<svg width="172" height="33" viewBox="0 0 172 33" fill="none" xmlns="http://www.w3.org/2000/svg">
<mask id="mask0_0_15" style="mask-type:luminance" maskUnits="userSpaceOnUse" x="0" y="4" width="24" height="25">
<path d="M24 4.5H0V28.5H24V4.5Z" fill="white"/>
</mask>
<g mask="url(#mask0_0_15)">
<path d="M3.88826 6.375H2.11166C1.98096 6.375 1.875 6.48096 1.875 6.61166V26.3876C1.875 26.5183 1.98096 26.6243 2.11166 26.6243H3.88826C4.01896 26.6243 4.12492 26.5183 4.12492 26.3876V6.61166C4.12492 6.48096 4.01896 6.375 3.88826 6.375Z" fill="white"/>
<path d="M8.38838 6.375H6.61178C6.48108 6.375 6.37512 6.48096 6.37512 6.61166V26.3876C6.37512 26.5183 6.48108 26.6243 6.61178 26.6243H8.38838C8.51908 26.6243 8.62504 26.5183 8.62504 26.3876V6.61166C8.62504 6.48096 8.51908 6.375 8.38838 6.375Z" fill="white"/>
<path d="M12.8885 6.375H11.1119C10.9812 6.375 10.8752 6.48096 10.8752 6.61166V26.3876C10.8752 26.5183 10.9812 26.6243 11.1119 26.6243H12.8885C13.0192 26.6243 13.1251 26.5183 13.1251 26.3876V6.61166C13.1251 6.48096 13.0192 6.375 12.8885 6.375Z" fill="white"/>
<path d="M17.3875 6.375H15.6109C15.4802 6.375 15.3742 6.48096 15.3742 6.61166V26.3876C15.3742 26.5183 15.4802 26.6243 15.6109 26.6243H17.3875C17.5182 26.6243 17.6241 26.5183 17.6241 26.3876V6.61166C17.6241 6.48096 17.5182 6.375 17.3875 6.375Z" fill="white"/>
<path d="M21.8887 14.2502H20.1121C19.9814 14.2502 19.8754 14.3562 19.8754 14.4869V18.5134C19.8754 18.6441 19.9814 18.75 20.1121 18.75H21.8887C22.0194 18.75 22.1253 18.6441 22.1253 18.5134V14.4869C22.1253 14.3562 22.0194 14.2502 21.8887 14.2502Z" fill="white"/>
</g>
<path d="M39.2 11.642C37.916 11.642 36.914 12.086 36.194 12.974C35.474 13.85 35.114 15.056 35.114 16.592C35.114 18.116 35.45 19.316 36.122 20.192C36.794 21.068 37.814 21.506 39.182 21.506C39.734 21.506 40.262 21.458 40.766 21.362C41.282 21.254 41.804 21.116 42.332 20.948V22.622C41.828 22.814 41.312 22.952 40.784 23.036C40.268 23.132 39.656 23.18 38.948 23.18C37.628 23.18 36.536 22.91 35.672 22.37C34.808 21.818 34.16 21.05 33.728 20.066C33.296 19.07 33.08 17.906 33.08 16.574C33.08 15.278 33.314 14.132 33.782 13.136C34.262 12.14 34.958 11.366 35.87 10.814C36.782 10.25 37.898 9.968 39.218 9.968C39.866 9.968 40.496 10.04 41.108 10.184C41.732 10.316 42.302 10.508 42.818 10.76L42.098 12.38C41.678 12.188 41.222 12.02 40.73 11.876C40.25 11.72 39.74 11.642 39.2 11.642ZM46.7926 23H44.8846V9.32H46.7926V23ZM50.7609 9.608C51.0489 9.608 51.3009 9.692 51.5169 9.86C51.7329 10.028 51.8409 10.31 51.8409 10.706C51.8409 11.09 51.7329 11.372 51.5169 11.552C51.3009 11.72 51.0489 11.804 50.7609 11.804C50.4489 11.804 50.1849 11.72 49.9689 11.552C49.7649 11.372 49.6629 11.09 49.6629 10.706C49.6629 10.31 49.7649 10.028 49.9689 9.86C50.1849 9.692 50.4489 9.608 50.7609 9.608ZM51.6969 13.298V23H49.7889V13.298H51.6969ZM58.5992 23.18C57.2552 23.18 56.1752 22.784 55.3592 21.992C54.5432 21.188 54.1352 19.928 54.1352 18.212C54.1352 17.012 54.3332 16.04 54.7292 15.296C55.1252 14.552 55.6712 14.006 56.3672 13.658C57.0632 13.298 57.8552 13.118 58.7432 13.118C59.2832 13.118 59.7872 13.178 60.2552 13.298C60.7352 13.406 61.1312 13.532 61.4432 13.676L60.8672 15.224C60.5312 15.092 60.1712 14.978 59.7872 14.882C59.4152 14.786 59.0612 14.738 58.7252 14.738C56.9732 14.738 56.0972 15.89 56.0972 18.194C56.0972 19.298 56.3132 20.138 56.7452 20.714C57.1772 21.29 57.8132 21.578 58.6532 21.578C59.1932 21.578 59.6672 21.518 60.0752 21.398C60.4952 21.278 60.8792 21.122 61.2272 20.93V22.586C60.8792 22.79 60.5012 22.94 60.0932 23.036C59.6852 23.132 59.1872 23.18 58.5992 23.18ZM65.4074 16.16C65.4074 16.4 65.3954 16.688 65.3714 17.024C65.3474 17.36 65.3294 17.66 65.3174 17.924H65.3714C65.5034 17.744 65.6834 17.51 65.9114 17.222C66.1514 16.922 66.3614 16.676 66.5414 16.484L69.5114 13.298H71.7254L67.8194 17.456L71.9774 23H69.7274L66.5234 18.662L65.4074 19.598V23H63.5174V9.32H65.4074V16.16ZM83.8141 23H81.8701V17.132H75.7321V23H73.7881V10.148H75.7321V15.476H81.8701V10.148H83.8141V23ZM95.587 18.14C95.587 19.748 95.173 20.99 94.345 21.866C93.517 22.742 92.401 23.18 90.997 23.18C90.121 23.18 89.341 22.982 88.657 22.586C87.985 22.19 87.451 21.62 87.055 20.876C86.671 20.12 86.479 19.208 86.479 18.14C86.479 16.532 86.887 15.296 87.703 14.432C88.519 13.556 89.635 13.118 91.051 13.118C91.939 13.118 92.719 13.316 93.391 13.712C94.075 14.096 94.609 14.66 94.993 15.404C95.389 16.148 95.587 17.06 95.587 18.14ZM88.441 18.14C88.441 19.232 88.645 20.084 89.053 20.696C89.473 21.308 90.133 21.614 91.033 21.614C91.933 21.614 92.587 21.308 92.995 20.696C93.415 20.084 93.625 19.232 93.625 18.14C93.625 17.036 93.415 16.19 92.995 15.602C92.575 15.002 91.915 14.702 91.015 14.702C90.115 14.702 89.461 15.002 89.053 15.602C88.645 16.19 88.441 17.036 88.441 18.14ZM106.358 13.298V23H104.828L104.558 21.722H104.468C104.156 22.226 103.724 22.598 103.172 22.838C102.62 23.066 102.038 23.18 101.426 23.18C100.286 23.18 99.4157 22.898 98.8157 22.334C98.2157 21.77 97.9157 20.876 97.9157 19.652V13.298H99.8417V19.364C99.8417 20.864 100.496 21.614 101.804 21.614C102.8 21.614 103.49 21.32 103.874 20.732C104.258 20.144 104.45 19.304 104.45 18.212V13.298H106.358ZM115.788 20.264C115.788 21.212 115.44 21.938 114.744 22.442C114.048 22.934 113.082 23.18 111.846 23.18C111.162 23.18 110.574 23.126 110.082 23.018C109.602 22.922 109.158 22.778 108.75 22.586V20.912C109.17 21.116 109.662 21.302 110.226 21.47C110.802 21.626 111.36 21.704 111.9 21.704C112.62 21.704 113.136 21.59 113.448 21.362C113.772 21.134 113.934 20.828 113.934 20.444C113.934 20.228 113.874 20.036 113.754 19.868C113.634 19.688 113.406 19.508 113.07 19.328C112.746 19.136 112.266 18.92 111.63 18.68C111.006 18.428 110.478 18.182 110.046 17.942C109.626 17.69 109.302 17.396 109.074 17.06C108.846 16.712 108.732 16.268 108.732 15.728C108.732 14.888 109.068 14.246 109.74 13.802C110.424 13.346 111.324 13.118 112.44 13.118C113.028 13.118 113.58 13.178 114.096 13.298C114.624 13.418 115.134 13.586 115.626 13.802L114.996 15.26C114.576 15.08 114.144 14.93 113.7 14.81C113.256 14.678 112.806 14.612 112.35 14.612C111.774 14.612 111.336 14.702 111.036 14.882C110.736 15.062 110.586 15.314 110.586 15.638C110.586 15.866 110.658 16.064 110.802 16.232C110.946 16.4 111.186 16.568 111.522 16.736C111.87 16.904 112.344 17.108 112.944 17.348C113.544 17.576 114.054 17.81 114.474 18.05C114.906 18.29 115.23 18.584 115.446 18.932C115.674 19.28 115.788 19.724 115.788 20.264ZM121.878 13.118C123.15 13.118 124.152 13.514 124.884 14.306C125.616 15.086 125.982 16.154 125.982 17.51V18.554H119.466C119.49 19.55 119.748 20.312 120.24 20.84C120.744 21.368 121.446 21.632 122.346 21.632C122.97 21.632 123.522 21.578 124.002 21.47C124.494 21.35 124.998 21.176 125.514 20.948V22.532C125.022 22.748 124.53 22.91 124.038 23.018C123.546 23.126 122.958 23.18 122.274 23.18C121.326 23.18 120.492 22.994 119.772 22.622C119.064 22.25 118.506 21.698 118.098 20.966C117.702 20.222 117.504 19.31 117.504 18.23C117.504 17.138 117.684 16.214 118.044 15.458C118.416 14.702 118.926 14.126 119.574 13.73C120.234 13.322 121.002 13.118 121.878 13.118ZM121.878 14.594C121.194 14.594 120.642 14.816 120.222 15.26C119.814 15.704 119.574 16.334 119.502 17.15H124.074C124.062 16.394 123.876 15.782 123.516 15.314C123.168 14.834 122.622 14.594 121.878 14.594Z" fill="white"/>
<path d="M136 23H132.409V11.3636H136.159C137.288 11.3636 138.254 11.5966 139.057 12.0625C139.86 12.5246 140.475 13.1894 140.903 14.0568C141.331 14.9205 141.545 15.9545 141.545 17.1591C141.545 18.3712 141.33 19.4148 140.898 20.2898C140.466 21.161 139.837 21.8314 139.011 22.3011C138.186 22.767 137.182 23 136 23ZM133.818 21.75H135.909C136.871 21.75 137.669 21.5644 138.301 21.1932C138.934 20.822 139.405 20.2936 139.716 19.608C140.027 18.9223 140.182 18.1061 140.182 17.1591C140.182 16.2197 140.028 15.411 139.722 14.733C139.415 14.0511 138.956 13.5284 138.347 13.1648C137.737 12.7973 136.977 12.6136 136.068 12.6136H133.818V21.75ZM147.273 23.1818C146.485 23.1818 145.794 22.9943 145.199 22.6193C144.608 22.2443 144.146 21.7197 143.812 21.0455C143.483 20.3712 143.318 19.5833 143.318 18.6818C143.318 17.7727 143.483 16.9792 143.812 16.3011C144.146 15.6231 144.608 15.0966 145.199 14.7216C145.794 14.3466 146.485 14.1591 147.273 14.1591C148.061 14.1591 148.75 14.3466 149.341 14.7216C149.936 15.0966 150.398 15.6231 150.727 16.3011C151.061 16.9792 151.227 17.7727 151.227 18.6818C151.227 19.5833 151.061 20.3712 150.727 21.0455C150.398 21.7197 149.936 22.2443 149.341 22.6193C148.75 22.9943 148.061 23.1818 147.273 23.1818ZM147.273 21.9773C147.871 21.9773 148.364 21.8239 148.75 21.517C149.136 21.2102 149.422 20.8068 149.608 20.3068C149.794 19.8068 149.886 19.2652 149.886 18.6818C149.886 18.0985 149.794 17.5549 149.608 17.0511C149.422 16.5473 149.136 16.1402 148.75 15.8295C148.364 15.5189 147.871 15.3636 147.273 15.3636C146.674 15.3636 146.182 15.5189 145.795 15.8295C145.409 16.1402 145.123 16.5473 144.938 17.0511C144.752 17.5549 144.659 18.0985 144.659 18.6818C144.659 19.2652 144.752 19.8068 144.938 20.3068C145.123 20.8068 145.409 21.2102 145.795 21.517C146.182 21.8239 146.674 21.9773 147.273 21.9773ZM156.82 23.1818C156.001 23.1818 155.297 22.9886 154.706 22.6023C154.115 22.2159 153.661 21.6837 153.342 21.0057C153.024 20.3277 152.865 19.553 152.865 18.6818C152.865 17.7955 153.028 17.0133 153.354 16.3352C153.683 15.6534 154.142 15.1212 154.729 14.7386C155.32 14.3523 156.009 14.1591 156.797 14.1591C157.411 14.1591 157.964 14.2727 158.456 14.5C158.948 14.7273 159.352 15.0455 159.666 15.4545C159.981 15.8636 160.176 16.3409 160.251 16.8864H158.911C158.808 16.4886 158.581 16.1364 158.229 15.8295C157.88 15.5189 157.411 15.3636 156.82 15.3636C156.297 15.3636 155.839 15.5 155.445 15.7727C155.054 16.0417 154.75 16.4223 154.53 16.9148C154.314 17.4034 154.206 17.9773 154.206 18.6364C154.206 19.3106 154.312 19.8977 154.524 20.3977C154.74 20.8977 155.043 21.286 155.433 21.5625C155.827 21.839 156.289 21.9773 156.82 21.9773C157.168 21.9773 157.484 21.9167 157.768 21.7955C158.053 21.6742 158.293 21.5 158.49 21.2727C158.687 21.0455 158.827 20.7727 158.911 20.4545H160.251C160.176 20.9697 159.988 21.4337 159.689 21.8466C159.393 22.2557 159.001 22.5814 158.513 22.8239C158.028 23.0625 157.464 23.1818 156.82 23.1818ZM168.393 16.2273L167.189 16.5682C167.113 16.3674 167.001 16.1723 166.854 15.983C166.71 15.7898 166.513 15.6307 166.263 15.5057C166.013 15.3807 165.693 15.3182 165.303 15.3182C164.768 15.3182 164.323 15.4413 163.967 15.6875C163.615 15.9299 163.439 16.2386 163.439 16.6136C163.439 16.947 163.56 17.2102 163.803 17.4034C164.045 17.5966 164.424 17.7576 164.939 17.8864L166.234 18.2045C167.015 18.3939 167.596 18.6837 167.979 19.0739C168.361 19.4602 168.553 19.9583 168.553 20.5682C168.553 21.0682 168.409 21.5152 168.121 21.9091C167.837 22.303 167.439 22.6136 166.928 22.8409C166.416 23.0682 165.821 23.1818 165.143 23.1818C164.253 23.1818 163.517 22.9886 162.933 22.6023C162.35 22.2159 161.981 21.6515 161.825 20.9091L163.098 20.5909C163.219 21.0606 163.448 21.4129 163.786 21.6477C164.126 21.8826 164.571 22 165.121 22C165.746 22 166.242 21.8674 166.609 21.6023C166.981 21.3333 167.166 21.0114 167.166 20.6364C167.166 20.3333 167.06 20.0795 166.848 19.875C166.636 19.6667 166.31 19.5114 165.871 19.4091L164.416 19.0682C163.617 18.8788 163.03 18.5852 162.655 18.1875C162.284 17.786 162.098 17.2841 162.098 16.6818C162.098 16.1894 162.236 15.7538 162.513 15.375C162.793 14.9962 163.174 14.6989 163.655 14.483C164.14 14.267 164.689 14.1591 165.303 14.1591C166.166 14.1591 166.844 14.3485 167.337 14.7273C167.833 15.1061 168.185 15.6061 168.393 16.2273Z" fill="white"/>
</svg>
