<svg xmlns="http://www.w3.org/2000/svg" width="111" height="70" fill="none" viewBox="0 0 111 70"><path fill="#F14600" d="M67.3198 0.959506C67.4924 0.96748 67.6363 0.974118 67.8076 1.01082C70.126 1.37706 71.9328 3.44725 72.682 6.56272C73.2135 8.77555 73.5999 11.0105 73.8424 13.2387C76.7404 14.7835 80.1201 15.8898 83.7252 16.4882C92.1398 17.8271 100.87 16.0996 108.373 11.609C109.054 11.2086 109.938 11.4222 110.339 12.1029C110.74 12.7837 110.526 13.6664 109.844 14.0668C101.777 18.9057 92.3202 20.7723 83.2479 19.3167C79.9854 18.7916 76.858 17.841 74.0631 16.5601C74.3551 23.3112 73.3263 29.9437 70.9901 36.1703C67.7363 44.7731 62.0783 52.3723 54.6303 58.1612C47.1822 63.95 38.4205 67.6051 29.2583 68.708C19.5454 69.8717 9.796 68.0969 1.04043 63.5462C0.337163 63.1682 0.0593615 62.3204 0.437963 61.618C0.816556 60.9157 1.66559 60.6382 2.36886 61.0162C10.5885 65.3117 19.7665 66.9738 28.8999 65.8697C37.5403 64.8291 45.831 61.3826 52.8315 55.9186C59.8607 50.4559 65.1822 43.273 68.2682 35.1808C70.6686 28.8132 71.6204 21.9756 71.05 15.0101C68.3011 13.3571 65.9738 11.3204 64.3202 9.05577C62.775 6.94009 62.4776 4.65169 63.5385 2.91552C64.378 1.60102 65.795 0.889069 67.3198 0.959506ZM70.648 11.2484C70.4504 9.91481 70.1665 8.57721 69.8539 7.23828C69.3966 5.28802 68.4456 4.03478 67.3289 3.86802C66.785 3.78532 66.2852 3.99256 66.035 4.4129C65.5989 5.11258 65.866 6.19028 66.7059 7.35201C67.7364 8.75289 69.0875 10.0822 70.648 11.2484Z"/></svg>