<svg xmlns="http://www.w3.org/2000/svg" width="92" height="73" fill="none" viewBox="0 0 92 73"><path fill="#F14600" fill-opacity=".2" d="M89.4292 5.50578C90.7234 5.50578 91.7725 4.45718 91.7725 3.16366C91.7725 1.87014 90.7234 0.821533 89.4292 0.821533C88.1351 0.821533 87.0859 1.87014 87.0859 3.16366C87.0859 4.45718 88.1351 5.50578 89.4292 5.50578Z"/><path fill="#F14600" fill-opacity=".2" d="M89.4292 26.1166C90.7234 26.1166 91.7725 25.068 91.7725 23.7745C91.7725 22.481 90.7234 21.4324 89.4292 21.4324C88.1351 21.4324 87.0859 22.481 87.0859 23.7745C87.0859 25.068 88.1351 26.1166 89.4292 26.1166Z"/><path fill="#F14600" fill-opacity=".2" d="M89.4292 46.7269C90.7234 46.7269 91.7725 45.6783 91.7725 44.3848C91.7725 43.0913 90.7234 42.0427 89.4292 42.0427C88.1351 42.0427 87.0859 43.0913 87.0859 44.3848C87.0859 45.6783 88.1351 46.7269 89.4292 46.7269Z"/><path fill="#F14600" fill-opacity=".2" d="M89.4292 67.3375C90.7234 67.3375 91.7725 66.2889 91.7725 64.9954C91.7725 63.7019 90.7234 62.6533 89.4292 62.6533C88.1351 62.6533 87.0859 63.7019 87.0859 64.9954C87.0859 66.2889 88.1351 67.3375 89.4292 67.3375Z"/><path fill="#F14600" fill-opacity=".2" d="M68.8111 5.50578C70.1052 5.50578 71.1543 4.45718 71.1543 3.16366C71.1543 1.87014 70.1052 0.821533 68.8111 0.821533C67.5169 0.821533 66.4678 1.87014 66.4678 3.16366C66.4678 4.45718 67.5169 5.50578 68.8111 5.50578Z"/><path fill="#F14600" fill-opacity=".2" d="M68.8111 26.1161C70.1052 26.1161 71.1543 25.0675 71.1543 23.774C71.1543 22.4805 70.1052 21.4319 68.8111 21.4319C67.5169 21.4319 66.4678 22.4805 66.4678 23.774C66.4678 25.0675 67.5169 26.1161 68.8111 26.1161Z"/><path fill="#F14600" fill-opacity=".2" d="M68.8111 46.7272C70.1052 46.7272 71.1543 45.6786 71.1543 44.3851C71.1543 43.0916 70.1052 42.043 68.8111 42.043C67.5169 42.043 66.4678 43.0916 66.4678 44.3851C66.4678 45.6786 67.5169 46.7272 68.8111 46.7272Z"/><path fill="#F14600" fill-opacity=".2" d="M68.8111 67.3375C70.1052 67.3375 71.1543 66.2889 71.1543 64.9954C71.1543 63.7019 70.1052 62.6533 68.8111 62.6533C67.5169 62.6533 66.4678 63.7019 66.4678 64.9954C66.4678 66.2889 67.5169 67.3375 68.8111 67.3375Z"/><path fill="#F14600" fill-opacity=".2" d="M48.1871 5.50578C49.4812 5.50578 50.5304 4.45718 50.5304 3.16366C50.5304 1.87014 49.4812 0.821533 48.1871 0.821533C46.8929 0.821533 45.8438 1.87014 45.8438 3.16366C45.8438 4.45718 46.8929 5.50578 48.1871 5.50578Z"/><path fill="#F14600" fill-opacity=".2" d="M48.1871 26.1163C49.4812 26.1163 50.5304 25.0677 50.5304 23.7742C50.5304 22.4807 49.4812 21.4321 48.1871 21.4321C46.8929 21.4321 45.8438 22.4807 45.8438 23.7742C45.8438 25.0677 46.8929 26.1163 48.1871 26.1163Z"/><path fill="#F14600" fill-opacity=".2" d="M48.1871 46.7269C49.4812 46.7269 50.5304 45.6783 50.5304 44.3848C50.5304 43.0913 49.4812 42.0427 48.1871 42.0427C46.8929 42.0427 45.8438 43.0913 45.8438 44.3848C45.8438 45.6783 46.8929 46.7269 48.1871 46.7269Z"/><path fill="#F14600" fill-opacity=".2" d="M48.1871 67.3375C49.4812 67.3375 50.5304 66.2889 50.5304 64.9954C50.5304 63.7019 49.4812 62.6533 48.1871 62.6533C46.8929 62.6533 45.8438 63.7019 45.8438 64.9954C45.8438 66.2889 46.8929 67.3375 48.1871 67.3375Z"/><path fill="#F14600" fill-opacity=".2" d="M27.566 5.50578C28.8601 5.50578 29.9093 4.45718 29.9093 3.16366C29.9093 1.87014 28.8601 0.821533 27.566 0.821533C26.2718 0.821533 25.2227 1.87014 25.2227 3.16366C25.2227 4.45718 26.2718 5.50578 27.566 5.50578Z"/><path fill="#F14600" fill-opacity=".2" d="M27.566 26.1161C28.8601 26.1161 29.9093 25.0675 29.9093 23.774C29.9093 22.4805 28.8601 21.4319 27.566 21.4319C26.2718 21.4319 25.2227 22.4805 25.2227 23.774C25.2227 25.0675 26.2718 26.1161 27.566 26.1161Z"/><path fill="#F14600" fill-opacity=".2" d="M27.566 46.7272C28.8601 46.7272 29.9093 45.6786 29.9093 44.3851C29.9093 43.0916 28.8601 42.043 27.566 42.043C26.2718 42.043 25.2227 43.0916 25.2227 44.3851C25.2227 45.6786 26.2718 46.7272 27.566 46.7272Z"/><path fill="#F14600" fill-opacity=".2" d="M27.566 67.3375C28.8601 67.3375 29.9093 66.2889 29.9093 64.9954C29.9093 63.7019 28.8601 62.6533 27.566 62.6533C26.2718 62.6533 25.2227 63.7019 25.2227 64.9954C25.2227 66.2889 26.2718 67.3375 27.566 67.3375Z"/><path fill="#F14600" fill-opacity=".2" d="M6.94437 5.50578C8.23854 5.50578 9.28767 4.45718 9.28767 3.16366C9.28767 1.87014 8.23854 0.821533 6.94437 0.821533C5.65021 0.821533 4.60107 1.87014 4.60107 3.16366C4.60107 4.45718 5.65021 5.50578 6.94437 5.50578Z"/><path fill="#F14600" fill-opacity=".2" d="M6.94389 26.1166C8.23805 26.1166 9.28719 25.068 9.28719 23.7745C9.28719 22.481 8.23805 21.4324 6.94389 21.4324C5.64972 21.4324 4.60059 22.481 4.60059 23.7745C4.60059 25.068 5.64972 26.1166 6.94389 26.1166Z"/><path fill="#F14600" fill-opacity=".2" d="M6.94389 46.7269C8.23805 46.7269 9.28719 45.6783 9.28719 44.3848C9.28719 43.0913 8.23805 42.0427 6.94389 42.0427C5.64972 42.0427 4.60059 43.0913 4.60059 44.3848C4.60059 45.6783 5.64972 46.7269 6.94389 46.7269Z"/><path fill="#F14600" fill-opacity=".2" d="M6.94389 67.3375C8.23805 67.3375 9.28719 66.2889 9.28719 64.9954C9.28719 63.7019 8.23805 62.6533 6.94389 62.6533C5.64972 62.6533 4.60059 63.7019 4.60059 64.9954C4.60059 66.2889 5.64972 67.3375 6.94389 67.3375Z"/></svg>