<svg xmlns="http://www.w3.org/2000/svg" xmlns:xlink="http://www.w3.org/1999/xlink" width="180" height="28" version="1.1" viewBox="0 0 180 28"><title>ClickHouse Logo</title><g id="Page-1" fill="none" fill-rule="evenodd" stroke="none" stroke-width="1"><g id="ClickHouse-Logo" fill-rule="nonzero" transform="translate(0.000000, 0.500000)"><g id="logo"><polygon id="Path" fill="red" points="0 23.625 3.376 23.625 3.376 27 0 27"/><polygon id="Path" fill="#FC0" points="0 0 3.376 0 3.376 23.625 0 23.625"/><polygon id="Path" fill="#FC0" points="6.751 0 10.127 0 10.127 27 6.751 27"/><polygon id="Path" fill="#FC0" points="13.502 0 16.878 0 16.878 27 13.502 27"/><polygon id="Path" fill="#FC0" points="20.253 0 23.629 0 23.629 27 20.253 27"/><polygon id="Path" fill="#FC0" points="27.004 10.969 30.38 10.969 30.38 16.031 27.004 16.031"/></g><g id="clickhouse-black" fill="#231F20" transform="translate(43.291139, 3.000000)"><path id="Path" d="M9.76370444,20.9560972 C8.43447886,20.9735251 7.11430823,20.7384252 5.875478,20.2636703 C4.72047444,19.8054437 3.67723122,19.1113387 2.81453379,18.2271205 C1.90927726,17.3283139 1.2048111,16.2531042 0.746328237,15.0704684 C-0.248776079,12.2964995 -0.248776079,9.27056268 0.746328237,6.4965938 C1.67159165,4.07354026 3.61800681,2.16434552 6.08229856,1.26266086 C7.35832383,0.792264319 8.71148185,0.557532775 10.0739353,0.570233938 C11.1612577,0.548839362 12.2465336,0.672146838 13.3003359,0.936812899 C14.1575307,1.16603291 14.9890302,1.47989577 15.7821826,1.8736258 L15.0376286,4.17492705 C14.334754,3.70811103 13.5779913,3.32526638 12.7832845,3.03445917 C11.8308864,2.71897047 10.8304102,2.56740693 9.82575061,2.58641822 C7.96245266,2.56886976 6.1853824,3.35817309 4.96546756,4.74516099 C4.30442786,5.50472232 3.79877758,6.38298172 3.47635956,7.33157921 C3.08814385,8.46618422 2.89929764,9.65767851 2.91794407,10.8548103 C2.90195973,12.0219322 3.07653544,13.184001 3.43499545,14.2965795 C3.73382292,15.2302331 4.21899806,16.0957206 4.86205728,16.8422667 C5.46077204,17.5238868 6.21094713,18.0604846 7.05435517,18.41041 C7.95798877,18.7824827 8.9290709,18.969569 9.90847883,18.9602785 C10.8005951,18.9648543 11.68759,18.827308 12.5350999,18.5529685 C13.3447055,18.2769814 14.1214074,17.9150606 14.8514901,17.4735971 L15.575362,19.2046644 C14.8756447,19.7279796 14.0929921,20.1339593 13.2589718,20.4062288 C12.1346344,20.7859604 10.952228,20.9719742 9.76370444,20.9560972 L9.76370444,20.9560972 Z"/><polygon id="Path" points="21.201 0 21.201 20.671 18.74 20.671 18.74 0 21.201 0"/><path id="Shape" d="M26.5161694,4.15456155 C26.0981094,4.18404053 25.6871808,4.03620327 25.3868859,3.74828616 C25.0865909,3.46036905 24.9255529,3.05981554 24.9443332,2.64751471 C24.9293499,2.23543398 25.0776822,1.83376364 25.3579743,1.52741233 C25.9917593,0.922143971 26.9992154,0.922143971 27.6330004,1.52741233 C27.9227354,1.82938962 28.0789406,2.23223687 28.0673236,2.64751471 C28.0795295,3.0508229 27.9224226,3.44126169 27.6330004,3.7268861 C27.3352303,4.0129939 26.9320049,4.16740365 26.5161694,4.15456155 L26.5161694,4.15456155 Z M27.7570927,6.31330432 L27.7570927,20.5691528 L25.3166102,20.5691528 L25.3166102,6.31330432 L27.7777748,6.31330432 L27.7570927,6.31330432 Z"/><path id="Path" d="M38.2015308,20.9561849 C37.2331788,20.9606473 36.2723959,20.7880054 35.3680892,20.4469598 C34.5040176,20.1277138 33.7207114,19.6274001 33.072381,18.9806439 C32.4086321,18.3083453 31.8882536,17.5120269 31.5419089,16.6386117 C30.789066,14.6134632 30.789066,12.3911868 31.5419089,10.3660384 C31.8953146,9.48650873 32.4305899,8.68894988 33.1137451,8.02400613 C33.8006138,7.36063917 34.6265105,6.85322326 35.5335456,6.53732479 C36.4665869,6.19626518 37.4544707,6.0237894 38.4497154,6.02818735 C39.2367736,6.02254268 40.0215928,6.11144966 40.7867877,6.29293882 C41.402916,6.43127907 41.9904819,6.67235105 42.5240804,7.00573124 L41.7381623,9.14410851 C41.2326995,8.76428196 40.6844527,8.44310218 40.1042799,8.18693012 C39.4990142,7.95244732 38.8516533,7.84158602 38.2015308,7.86108215 C37.5775701,7.85677667 36.958946,7.97445444 36.3815099,8.20729561 C35.8033669,8.44328317 35.2871426,8.80537627 34.8717198,9.2663015 C34.4220004,9.77237252 34.0776687,10.3605404 33.8582991,10.9973688 C33.5836299,11.7832018 33.4506403,12.6102801 33.4653401,13.4412285 C33.3646964,14.9221144 33.8543791,16.3832889 34.8303557,17.5143281 C35.8193073,18.4542588 37.1597853,18.9483223 38.5324437,18.8788165 C39.7296588,18.8515966 40.8932941,18.483801 41.8829366,17.8198106 L42.4413521,19.6119744 C41.8863529,20.0201826 41.2635134,20.3302813 40.6006492,20.5284218 C39.8277327,20.7904738 39.0186907,20.9346965 38.2015308,20.9561849 L38.2015308,20.9561849 Z"/><path id="Shape" d="M47.9427789,0 L47.9427789,20.6709803 L45.4402502,20.6709803 L45.4402502,0 L47.9427789,0 Z M54.3542161,20.6709803 L48.2736918,13.0135531 L54.2714879,6.33366982 L56.8360628,6.33366982 L50.9003129,12.7284361 L57.2497039,20.6709803 L54.3542161,20.6709803 L54.3542161,20.6709803 Z"/><polygon id="Path" points="73.113 11.873 62.772 11.873 62.772 20.651 60.104 20.651 60.104 .855 62.772 .855 62.772 9.898 73.113 9.898 73.113 .855 75.781 .855 75.781 20.671 73.113 20.671"/><path id="Shape" d="M86.3079919,20.9560972 C85.38699,20.956828 84.4743522,20.7840259 83.6193247,20.4469598 C82.7801539,20.1243214 82.0191689,19.6317014 81.3856627,19.0010094 C80.7288968,18.3272298 80.2155719,17.5309446 79.8758726,16.6589772 C79.1241518,14.6056391 79.1241518,12.35828 79.8758726,10.3049419 C80.2139667,9.43820628 80.7276537,8.64828849 81.3856627,7.98327514 C82.0210949,7.3549028 82.7815529,6.86262399 83.6193247,6.53732479 C84.4743522,6.20025867 85.38699,6.0274377 86.3079919,6.02818492 C87.235663,6.02783377 88.154999,6.20059422 89.0173412,6.53732479 C89.8608646,6.86326706 90.6279639,7.35528929 91.2716852,7.98327514 C91.9432058,8.64563226 92.4709473,9.43552137 92.8228394,10.3049419 C93.5941835,12.3548594 93.5941835,14.6090597 92.8228394,16.6589772 C92.5001582,17.5252355 92.0083217,18.3208853 91.3750955,19.0010094 C90.7336187,19.6317283 89.9659063,20.1241438 89.1207514,20.4469598 C88.2261198,20.7965781 87.270406,20.9695718 86.3079919,20.9560972 Z M86.3079919,19.1028369 C86.8871906,19.1004754 87.4613802,18.9970483 88.0039204,18.7973545 C88.5665616,18.5933999 89.0704796,18.2579374 89.4723464,17.8198106 C89.93364,17.3107661 90.2854168,16.714971 90.5064492,16.0683778 C90.7858877,15.2345245 90.9187812,14.3598326 90.8994082,13.4819595 C90.921252,12.6039337 90.7882958,11.7288286 90.5064492,10.8955413 C90.2829062,10.2561715 89.9312542,9.66751308 89.4723464,9.16447401 C89.0704796,8.72634722 88.5665616,8.39088465 88.0039204,8.18693012 C87.4613802,7.98723626 86.8871906,7.88380922 86.3079919,7.88144765 C85.7421967,7.88338153 85.1815027,7.98690253 84.6534274,8.18693012 C84.1067964,8.39867016 83.6180769,8.73344525 83.2263656,9.16447401 C82.771108,9.66662382 82.426093,10.2559587 82.2129449,10.8955413 C81.9432303,11.7312023 81.817401,12.6054092 81.8406679,13.4819595 C81.8197008,14.3583785 81.9454766,15.2322137 82.2129449,16.0683778 C82.4234966,16.7151843 82.7686424,17.3116787 83.2263656,17.8198106 C83.6175627,18.2514112 84.1064306,18.586288 84.6534274,18.7973545 C85.1815027,18.9973821 85.7421967,19.1009031 86.3079919,19.1028369 L86.3079919,19.1028369 Z"/><path id="Path" d="M104.218652,20.1211118 C103.261113,20.713834 102.142858,21.0051032 101.012933,20.9560972 C99.7999523,21.0051122 98.6193584,20.5636475 97.7451686,19.7341674 C96.8353108,18.7009502 96.3878256,17.3496664 96.5042453,15.9869158 L96.5042453,6.31330432 L98.9860919,6.31330432 L98.9860919,15.9869158 C98.9742754,16.4701161 99.0441695,16.9518863 99.1929125,17.4125006 C99.3056456,17.7606047 99.5046708,18.0755709 99.77201,18.328948 C100.016574,18.5594167 100.314849,18.7272509 100.640656,18.81772 C100.990271,18.9161408 101.352523,18.9641592 101.716123,18.9602785 C102.655549,19.0038445 103.582007,18.7308795 104.342744,18.1863895 C105.051689,17.6370184 105.630443,16.9420231 106.038673,16.1498398 L106.038673,6.31330432 L108.499837,6.31330432 L108.499837,20.5691528 L106.328222,20.5691528 L106.100719,18.0031001 L106.100719,18.0031001 C105.687922,18.8692089 105.035644,19.6032598 104.218652,20.1211118 L104.218652,20.1211118 Z"/><path id="Path" d="M116.421065,20.9560972 C115.801233,20.9950241 115.179512,20.9950241 114.55968,20.9560972 C114.092617,20.8964402 113.62981,20.8080164 113.173982,20.6913458 C112.813228,20.605003 112.460411,20.4891975 112.119197,20.3451323 C111.834495,20.2200141 111.558175,20.0771664 111.291915,19.9174568 L112.098515,17.8809071 C112.279343,18.026767 112.473161,18.156273 112.677613,18.2678515 C112.976636,18.4329534 113.287727,18.5759069 113.608305,18.695527 C114.017173,18.8537321 114.439319,18.9763932 114.869911,19.0621059 C115.380772,19.1609067 115.900459,19.2086684 116.421065,19.2046644 C117.260254,19.2611102 118.095255,19.0466179 118.799501,18.5936995 C119.330358,18.1920161 119.630919,17.5621502 119.606101,16.9033632 C119.629117,16.3456326 119.383876,15.8098319 118.944275,15.4574128 C118.248621,14.9827695 117.47054,14.6376468 116.648567,14.4391379 L114.869911,13.8485385 C114.332933,13.6600961 113.82489,13.3996834 113.36012,13.0746496 C112.918371,12.7629353 112.551287,12.3597625 112.284654,11.8934507 C111.990937,11.3416153 111.84837,10.7239217 111.871013,10.1012869 C111.7928,8.92823263 112.331666,7.79778562 113.298074,7.10755873 C114.467654,6.39295223 115.832855,6.05154147 117.206983,6.13001484 C118.07528,6.11663174 118.942387,6.19859987 119.79224,6.37440081 C120.389496,6.49652839 120.971868,6.68085438 121.529532,6.92426925 L120.950435,8.96081903 C120.479952,8.73041885 119.996597,8.52643737 119.502691,8.3498541 C118.797193,8.1146398 118.054965,8.00432014 117.310393,8.02400613 C116.535101,7.9880419 115.762277,8.13465573 115.056049,8.45168159 C114.47936,8.75940804 114.145458,9.37689414 114.208085,10.0198249 C114.202,10.3323024 114.296078,10.6387208 114.476951,10.8955413 C114.663996,11.1520366 114.903538,11.3670997 115.180141,11.5268718 C115.506126,11.720303 115.852962,11.8774057 116.214244,11.9952782 L117.455167,12.3618572 L119.130414,12.9117256 C119.664383,13.1015363 120.166356,13.3692768 120.619522,13.70598 C121.602378,14.4140087 122.154912,15.5634667 122.087948,16.7608047 C122.121004,17.4696719 121.956505,18.1739382 121.612261,18.7973545 C121.300726,19.3338382 120.869299,19.7934828 120.350655,20.1414773 C119.804193,20.5059941 119.194247,20.7683295 118.551316,20.9153662 C117.845409,21.0123699 117.130265,21.0260437 116.421065,20.9560972 Z"/><path id="Shape" d="M136.379248,19.4286849 C135.765636,19.9144267 135.063746,20.2807344 134.311043,20.5080563 C133.397586,20.8060079 132.439751,20.9505822 131.477601,20.9357317 C129.484022,21.0457076 127.539179,20.3034303 126.141631,18.899182 C124.819952,17.3656124 124.152831,15.3875844 124.280246,13.3801321 C124.263071,12.3194805 124.438164,11.2643153 124.797297,10.2642109 C125.111353,9.39844373 125.596363,8.60246478 126.224359,7.92217864 C126.799559,7.29363386 127.504769,6.79365416 128.292565,6.4558628 C129.13245,6.11650376 130.03203,5.94349361 130.939868,5.94672536 C131.84844,5.93569173 132.749586,6.10900306 133.587171,6.4558628 C134.355957,6.77570775 135.026242,7.28828126 135.531284,7.94254414 C136.069381,8.66407624 136.423989,9.5021104 136.565387,10.3864039 C136.756685,11.5054228 136.756685,12.6480576 136.565387,13.7670765 L126.720728,13.7670765 C126.831033,17.1749031 128.464915,18.8788165 131.622376,18.8788165 C132.38185,18.8941966 133.138087,18.7769813 133.856038,18.532603 C134.495821,18.304128 135.106567,18.0034291 135.676058,17.6365211 L136.379248,19.4286849 Z M131.022596,7.73888916 C130.017668,7.7293132 129.052936,8.12697327 128.354611,8.83862604 C127.526752,9.75405949 127.031943,10.9148261 126.948231,12.1378367 L134.331725,12.1378367 C134.534684,10.9751452 134.259342,9.78072052 133.566489,8.81826055 C132.931983,8.09270485 131.993938,7.6946933 131.022596,7.73888916 Z"/></g></g></g></svg>