<svg height="2500" viewBox="0 0 79.732 96" width="2083" xmlns="http://www.w3.org/2000/svg"><g fill="none"><path d="m0 53.597 39.79 18.316 39.788-18.316-39.789-1.649z" fill="#fcbf92"/><path d="m39.911 0-39.893 19.896v28.073h47.836v-43.999z" fill="#9d5025"/><path d="m.018 67.76 39.917 28.24 39.795-28.24-39.883-5.804z" fill="#fcbf92"/><g fill="#9d5025"><path d="m39.911 47.969h21.047v-29.956l-6.146-2.458-14.9 4.346z"/><path d="m54.812 47.969h16.268v-19.43l-4.653-1.396-11.615 1.972z"/><path d="m66.427 25.62v22.349h13.15l.155-22.448-3.995-1.596z"/></g><path d="m39.911 0v47.969h7.943v-43.999zm21.047 18.013-6.146-2.458v32.414h6.146zm10.122 10.526-4.653-1.396v20.827h4.653zm4.657 19.43h3.994v-22.449l-3.994-1.596zm-35.947 9.607v14.337l39.788-9.918v-8.398zm0 24.268v14.156l39.94-19.97v-8.27z" fill="#f68534"/><path d="m.018 76.116 39.772 19.884v-14.26l-39.77-13.981zm-.018-14.121 39.79 9.918v-14.337l-39.79-3.98z" fill="#9d5025"/></g></svg>