<?xml version="1.0" encoding="UTF-8"?>
<svg inkscape:version="1.0.2 (e86c870879, 2021-01-15, custom)" sodipodi:docname="Apache_Spark_logo.svg" version="1.1" viewBox="0 0 414 215" xml:space="preserve" xmlns="http://www.w3.org/2000/svg" xmlns:cc="http://creativecommons.org/ns#" xmlns:dc="http://purl.org/dc/elements/1.1/" xmlns:inkscape="http://www.inkscape.org/namespaces/inkscape" xmlns:rdf="http://www.w3.org/1999/02/22-rdf-syntax-ns#" xmlns:sodipodi="http://sodipodi.sourceforge.net/DTD/sodipodi-0.dtd">
<title>Apache Spark logo</title>
<metadata>
    <rdf:RDF>
        <cc:Work rdf:about="">
            <dc:format>image/svg+xml</dc:format>
            <dc:type rdf:resource="http://purl.org/dc/dcmitype/StillImage"/>
            <dc:title/>
        </cc:Work>
    </rdf:RDF>
</metadata>
<sodipodi:namedview bordercolor="#666666" borderopacity="1" gridtolerance="10" guidetolerance="10" inkscape:current-layer="g12650" inkscape:cx="89.093483" inkscape:cy="177.49819" inkscape:pageopacity="0" inkscape:pageshadow="2" inkscape:window-height="1014" inkscape:window-maximized="1" inkscape:window-width="1920" inkscape:window-x="0" inkscape:window-y="36" inkscape:zoom="1.086315" objecttolerance="10" pagecolor="#ffffff" showgrid="false"/><g transform="matrix(1.33 0 0 1.33 0 4.05e-6)" inkscape:groupmode="layer" inkscape:label="spark"><path d="m284 81.5c-.269-.575-.39-.864-.535-1.14-3.89-7.4-7.77-14.8-11.7-22.2-.394-.742-.344-1.18.195-1.82 6.19-7.23 12.3-14.5 18.5-21.7.219-.254.414-.523.496-.976-1.8.469-3.6.933-5.41 1.41-7.47 1.98-15 3.95-22.4 5.96-.695.187-1.01-.016-1.36-.594-4.24-7.09-8.51-14.2-12.8-21.2-.219-.367-.458-.723-.926-1.03-.344 1.89-.692 3.77-1.03 5.66-1.19 6.67-2.38 13.3-3.56 20-.129.719-.305 1.44-.367 2.16-.059.688-.414.942-1.04 1.14-8.81 2.77-17.6 5.56-26.4 8.35-.386.121-.765.281-1.18.656 7.2 2.86 14.4 5.72 21.7 8.63-.266.211-.442.375-.637.5-4.5 2.91-9.01 5.82-13.5 8.74-.539.352-.965.402-1.57.129-5.38-2.42-10.8-4.8-16.2-7.2-2.42-1.08-4.59-2.51-6.28-4.59-3.83-4.68-3.07-10 2.03-13.3 1.67-1.07 3.57-1.86 5.46-2.48 8.63-2.81 17.3-5.52 25.9-8.24.726-.231 1.06-.555 1.2-1.34 1.16-6.68 2.35-13.4 3.56-20 .644-3.57.984-7.22 2.72-10.5.665-1.26 1.46-2.49 2.42-3.54 3.44-3.82 8.23-3.96 11.9-.328 1.23 1.23 2.28 2.67 3.19 4.16 4 6.53 7.94 13.1 11.9 19.7.465.777.883.933 1.74.707 9.65-2.59 19.3-5.14 29-7.69 2-.527 4.01-.718 6.06-.335 4.45.832 6.4 4.22 4.89 8.53-.683 1.96-1.87 3.61-3.2 5.18-6.74 7.93-13.5 15.9-20.2 23.8-.551.648-.562 1.11-.18 1.84 4.04 7.61 8.04 15.2 12.1 22.9.961 1.82 1.7 3.72 1.72 5.81.047 4.76-3.44 8.66-8.17 9.36-2.65.387-5.11-.179-7.6-.945-6.05-1.87-12.1-3.71-18.2-5.54-.563-.168-.778-.391-.879-.996-.696-4.27-1.46-8.53-2.2-12.8-.019-.117.016-.242.036-.504 6.91 1.91 13.8 3.79 20.9 5.76" style="fill-rule:evenodd;fill:#e25a1c"/><path d="m272 144c-5.46-.008-10.9-.035-16.4-.011-.723 0-1.13-.207-1.53-.821-6.46-9.84-13-19.7-19.4-29.5-.207-.312-.426-.613-.793-1.14-1.39 10.6-2.76 21-4.13 31.4h-14.3c.168-1.39.317-2.74.493-4.08 1.39-10.7 2.8-21.3 4.2-32 1.34-10.2 2.67-20.4 4.03-30.6.039-.301.242-.688.488-.848 4.92-3.21 9.86-6.39 14.8-9.57.071-.047.172-.051.426-.125-1.49 11.4-2.97 22.7-4.46 34 .059.039.117.082.176.121 7.75-8.58 15.5-17.2 23.4-25.9.227 1.32.426 2.45.621 3.58.555 3.23 1.09 6.48 1.68 9.71.121.652-.055 1.05-.488 1.51-5.01 5.24-10 10.5-15 15.8-.219.231-.426.469-.676.743.16.253.297.5.457.726 8.61 12.1 17.2 24.2 25.8 36.3.156.219.382.391.574.586v.191" style="fill-rule:evenodd;fill:#3c3a3e"/><path d="m103 112c-.219-1.11-.375-2.75-.871-4.28-2.4-7.39-9.97-11.4-17.8-9.61-8.61 2-14.8 8.77-15.6 17.6-.66 6.5 2.84 12.8 9.34 15.1 5.24 1.89 10.3 1.1 15-1.71 6.21-3.72 9.57-9.25 10-17.1zm-37.8 27.5c-.422 3.18-.828 6.17-1.22 9.17-.523 3.98-1.05 7.97-1.55 12-.058.465-.199.672-.699.668-3.93-.015-7.86-.011-11.8-.019-.09 0-.18-.047-.391-.109.238-1.88.469-3.77.715-5.65.867-6.6 1.73-13.2 2.61-19.8 1.01-7.56 1.8-15.1 3.09-22.6 2.28-13.3 13.6-24.7 26.8-27.6 7.67-1.66 15-.891 21.7 3.43 6.68 4.3 10.5 10.6 11.4 18.4 1.24 11.1-2.85 20.3-10.7 28-5.18 5.01-11.4 8.19-18.5 9.27-7.37 1.11-14.3-.117-20.5-4.46-.227-.16-.473-.3-.863-.546" style="fill-rule:evenodd;fill:#3c3a3e"/><path d="m58.6 76.5c-4.4 3.28-8.65 6.44-12.9 9.61-.687-1.08-1.3-2.16-2.02-3.17-1.85-2.59-4.15-4.52-7.49-4.75-2.78-.196-5.16.718-7.05 2.77-1.69 1.83-1.91 4.44-.332 6.51 1.74 2.28 3.64 4.44 5.59 6.55 3.23 3.5 6.6 6.86 9.8 10.4 2.91 3.2 5.24 6.78 5.96 11.2.856 5.2-.183 10.1-2.64 14.7-4.55 8.45-11.7 13.4-21.2 14.9-4.18.675-8.34.543-12.4-.657-5.41-1.59-9.18-5.14-11.6-10.1-.855-1.77-1.51-3.64-2.28-5.54 4.73-2.53 9.34-5 14-7.49.16.387.277.711.426 1.02.797 1.59 1.45 3.28 2.43 4.75 2.93 4.35 7.65 5.67 12.4 3.52 1.23-.555 2.42-1.33 3.43-2.23 3.08-2.74 3.66-6.56 1.38-10-1.31-1.98-2.95-3.76-4.55-5.53-3.82-4.24-7.8-8.35-11.5-12.7-2.57-2.98-4.32-6.44-4.88-10.4-.605-4.36.266-8.46 2.53-12.1 5.63-9.11 13.8-13.8 24.6-13.5 6.17.223 11.1 3.11 14.9 7.91 1.13 1.42 2.19 2.89 3.34 4.43" style="fill-rule:evenodd;fill:#3c3a3e"/><path d="m163 125c-.719 5.49-1.4 10.7-2.1 15.9-.039.266-.246.625-.469.727-10.7 4.94-24.7 4.25-33.4-5.69-4.7-5.34-6.67-11.7-6.38-18.7.683-16.3 14.2-30.6 30.4-32.6 9.45-1.16 17.7 1.39 24.1 8.74 4.36 5 6.38 11 6.08 17.6-.195 4.36-.879 8.69-1.42 13-.77 6.14-1.61 12.3-2.42 18.4-.031.214-.074.433-.125.711h-12.7c.168-1.41.324-2.79.504-4.17.922-7.09 1.94-14.2 2.75-21.3.504-4.42.187-8.81-1.84-12.9-2.15-4.35-5.75-6.66-10.5-7.16-9.82-1.04-19.2 5.78-21.2 15.4-1.38 6.38.797 12.5 5.88 15.9 4.95 3.29 10.2 3.3 15.6 1.17 2.74-1.08 5.06-2.8 7.28-5.11" style="fill-rule:evenodd;fill:#3c3a3e"/><path d="m217 86.3c-.582 4.42-1.16 8.77-1.74 13.2-2.7 0-5.34-.015-7.98.004-2.14.016-4.09 1.4-4.74 3.4-.25.781-.343 1.62-.453 2.44-1.34 10.2-2.67 20.3-4 30.4-.336 2.56-.66 5.12-.996 7.72h-13.3c.246-1.95.48-3.84.726-5.73.863-6.58 1.73-13.2 2.6-19.7.754-5.69 1.43-11.4 2.32-17.1 1.19-7.6 8.75-14.4 16.4-14.7 3.66-.16 7.33-.027 11.1-.027" style="fill-rule:evenodd;fill:#3c3a3e"/><path d="m288 144v-5.6h-.031l-2.2 5.6h-.699l-2.2-5.6h-.035v5.6h-1.1v-6.71h1.71l2 5.1 1.97-5.1h1.7v6.71zm-9.74-5.81v5.81h-1.1v-5.81h-2.1v-.899h5.31v.899h-2.1" style="fill:#3c3a3e"/><path d="m76.3 67.1h3.29l-.778-4.98zm3.81 3.22h-5.47l-1.74 3.41h-3.88l8.55-16h3.74l2.91 16h-3.59l-.516-3.41" style="fill:#3c3a3e"/><path d="m99.7 61h-1.95l-.656 3.69h1.95c1.18 0 2.11-.773 2.11-2.23 0-.965-.586-1.46-1.46-1.46zm-4.72-3.22h5.12c2.68 0 4.55 1.6 4.55 4.34 0 3.46-2.44 5.78-5.92 5.78h-2.21l-1.04 5.85h-3.34l2.82-16" style="fill:#3c3a3e"/><path d="m116 67.1h3.29l-.777-4.98zm3.8 3.22h-5.47l-1.74 3.41h-3.88l8.55-16h3.74l2.91 16h-3.59l-.516-3.41" style="fill:#3c3a3e"/><path d="m141 73.2c-1.13.516-2.37.824-3.62.824-4.23 0-6.88-3.17-6.88-7.14 0-5.08 4.27-9.35 9.35-9.35 1.27 0 2.42.305 3.36.82l-.469 3.83c-.703-.777-1.84-1.32-3.24-1.32-2.91 0-5.5 2.63-5.5 5.68 0 2.32 1.46 4.14 3.76 4.14 1.41 0 2.77-.543 3.69-1.29l-.445 3.8" style="fill:#3c3a3e"/><path d="m162 67.3h-6.95l-1.13 6.43h-3.33l2.82-16h3.34l-1.12 6.32h6.95l1.13-6.32h3.34l-2.82 16h-3.34l1.12-6.43" style="fill:#3c3a3e"/><path d="m174 73.7 2.82-16h8.86l-.563 3.22h-5.52l-.563 3.1h5.07l-.563 3.22h-5.07l-.563 3.22h5.52l-.563 3.22h-8.86" style="fill:#3c3a3e"/></g></svg>
