<svg viewBox="-.075 -.174 158.4 163.101" xmlns="http://www.w3.org/2000/svg"><g fill="#006fd4"><path d="m6.225.026h146.6c1.3 0 3-.2 4.1.5.9.6.8 1.5.8 2.4v31.8c0 .9-.1 1.8-.8 2.4-.8.8-1.7.8-2.8.8h-14.1c-1.2 0-2.4-.1-3.2-1-.7-.8-.7-1.9-.7-2.9v-12.5h-114v12.8c0 1-.1 2-.8 2.8-.8.8-1.8.8-2.8.8h-14.8c-1 0-2 0-2.8-.8-.8-.8-.8-1.7-.9-2.8v-28.8c0-1.1-.1-2.3.1-3.4.2-1 1.1-1.8 2.1-2 1.4-.2 2.7-.1 4-.1z"/><path d="m36.625 37.627h19.4c1.2 0 2.6.1 3.4 1.1.7.8.7 1.8.7 2.8v14.4c0 1.1 0 2.1-.8 3-.8.8-1.9.8-3 .8h-17.7c-1.3 0-2.7.1-3.9-.2-1.2-.5-1.7-1.6-1.7-2.9v-15.1c0-1.1 0-2.1.7-2.9.8-.9 1.9-1 2.9-1zm38.2 17.2h19.8c1 0 1.9 0 2.7.7s.9 1.6.9 2.6v14.8c0 1.2-.4 2.2-1.5 2.8-1.2.5-2.8.3-4.1.3h-17.4c-1.1 0-2.1 0-2.9-.8s-.8-1.9-.8-2.9v-13.7c0-1.1.1-2.1.9-2.9.6-.8 1.4-.8 2.4-.9zm-36.1 16h17.7c1 0 1.9.1 2.6.8.8.8.8 1.9.8 2.9v14.1c0 1-.1 1.8-.8 2.5-.8.8-1.8.8-2.9.8h-19.4c-1 0-1.9 0-2.7-.7s-.9-1.6-1-2.6v-14.1c0-1.1 0-2.2.9-3 1.1-1 3.3-.6 4.8-.7zm73.9 0h20.1c1 0 1.9.1 2.6.8.9.8.8 1.9.8 3v14.1c0 1-.1 1.9-.9 2.6-.8.8-1.8.8-2.9.8h-17.1c-1.4 0-2.9.1-4.2-.2-1.2-.5-1.7-1.6-1.7-2.8v-14.4c0-1.1 0-2 .8-2.9.7-.8 1.6-1 2.5-1zm-37.8 16.4h19.8c1 0 1.9 0 2.7.7s.9 1.7.9 2.7v14.8c0 1.1-.4 2-1.3 2.6-1.2.6-2.9.4-4.3.4h-17.4c-1.1 0-2.1 0-2.9-.8s-.8-1.8-.9-2.9v-13.7c0-1.1 0-2.2.8-2.9.7-.8 1.6-.8 2.6-.9zm-36.1 16h17.8c1 0 1.9.1 2.6.9s.7 1.7.7 2.7v14.1c0 1 0 1.9-.7 2.7s-1.7.9-2.7.9h-19.8c-1.1 0-2.2 0-2.9-1-.7-.9-.7-1.9-.7-3v-14.1c0-1.3.5-2.4 1.7-2.9 1.2-.4 2.7-.2 4-.3zm-34.5 21.6h14.4c1.1 0 2.2.1 3 1 .7.8.6 1.7.7 2.7v12.7h114.4v-12.4c0-1 0-2 .8-2.8.9-.9 1.9-.9 3.1-.9h13.4c1 0 2.2 0 3 .6.9.7 1.3 1.9 1.3 3v30.5c0 1.1-.1 2-.9 2.7-1 1-2.8.6-4.1.7h-149.3c-.9 0-1.7-.1-2.3-.7-.8-.7-.9-1.7-.9-2.7v-30.8c0-1.2.2-2.3 1.1-3.1.5-.5 1.4-.4 2.3-.5z"/></g></svg>