<?xml version="1.0" encoding="utf-8"?>
<!-- Generator: Adobe Illustrator 25.3.1, SVG Export Plug-In . SVG Version: 6.00 Build 0)  -->
<svg version="1.1" id="Warstwa_1" xmlns="http://www.w3.org/2000/svg" xmlns:xlink="http://www.w3.org/1999/xlink" x="0px" y="0px"
	 viewBox="0 0 600 600" style="enable-background:new 0 0 600 600;" xml:space="preserve">
<style type="text/css">
	.st0{fill:none;}
	.st1{fill:#FAB90F;}
</style>
<rect class="st0" width="600" height="600"/>
<g>
	<path class="st1" d="M346,291h-90.6L210,212.5l45.3-78.5H346l45.3,78.5L346,291z M263.7,276.5h73.9l36.9-64l-36.9-64h-73.9
		l-36.9,64L263.7,276.5z"/>
	<path class="st1" d="M346,466h-90.6L210,387.5l45.3-78.5H346l45.3,78.5L346,466z M263.7,451.5h73.9l36.9-64l-36.9-64h-73.9
		l-36.9,64L263.7,451.5z"/>
	<polygon class="st1" points="494.7,221.6 404.1,221.6 358.8,300 404.1,378.5 494.7,378.5 540,300 	"/>
	<polygon class="st1" points="195.9,221.6 105.3,221.6 60,300 105.3,378.5 195.9,378.5 241.2,300 	"/>
</g>
</svg>
