<svg version="1.1" id="Layer_1" xmlns="http://www.w3.org/2000/svg" xmlns:xlink="http://www.w3.org/1999/xlink" x="0px" y="0px"
	 width="100%" viewBox="0 0 848 800" enable-background="new 0 0 848 800" xml:space="preserve">
<path fill="#000000" opacity="1.000000" stroke="none" 
	d="
M321.624390,472.393677 
	C302.220734,456.616425 281.944366,442.511353 263.557922,426.021179 
	C237.497833,402.648743 217.406738,375.385681 207.623489,341.289856 
	C200.788559,317.469238 199.630600,293.207123 201.386215,268.610474 
	C202.729019,249.797653 205.381241,231.239334 210.820541,213.191223 
	C219.729080,183.631958 233.582413,157.006088 258.230682,137.271805 
	C272.184662,126.099762 287.997131,119.115372 305.980408,117.602333 
	C309.760529,117.284294 312.522552,115.400078 314.796051,112.558891 
	C318.777130,107.583664 323.811005,103.705055 328.392822,99.349213 
	C337.310516,90.871384 348.834259,89.031479 359.938782,85.532608 
	C384.105438,77.918091 408.842773,77.763214 433.604156,78.927109 
	C452.793549,79.829094 471.335388,85.186150 489.207397,91.979233 
	C498.069489,95.347687 505.204193,102.510735 511.116699,109.779541 
	C516.412842,116.290504 522.104614,118.993050 530.250366,119.709930 
	C554.872009,121.876778 574.708801,133.871414 591.019775,151.864014 
	C611.036621,173.944458 621.917053,200.572861 628.256104,229.284241 
	C633.303894,252.147064 635.189941,275.339752 634.235291,298.695923 
	C632.670288,336.986115 619.144653,370.630371 594.155762,399.714630 
	C576.762878,419.957886 555.686890,436.035950 534.940430,452.491882 
	C521.750549,462.954010 508.765045,473.625824 496.966644,485.689026 
	C494.460938,488.250977 493.191101,490.773987 493.239868,494.435974 
	C493.432831,508.931122 493.453369,523.431335 493.291199,537.926880 
	C493.236328,542.829285 494.860352,545.519836 500.053955,545.440674 
	C502.548676,545.402649 505.046814,545.661133 507.543488,545.662842 
	C562.867615,545.700439 618.194031,546.026428 673.514893,545.615601 
	C701.112366,545.410645 725.396301,553.714355 745.999939,571.675049 
	C765.699036,588.847229 778.071899,610.509033 781.347595,636.800598 
	C783.359802,652.951294 783.333618,669.073853 778.290039,684.738525 
	C773.937256,698.257690 767.783508,710.888794 758.222656,721.658386 
	C752.467407,728.141235 746.557983,734.325623 739.611572,739.669922 
	C726.075317,750.084351 710.587280,755.644348 694.300110,759.531982 
	C692.067505,760.064880 689.681763,760.120300 687.366882,760.120544 
	C505.397064,760.140625 323.427277,760.132751 141.457458,760.128601 
	C128.914993,760.128357 117.677086,755.197205 106.794495,749.971130 
	C75.349762,734.870728 55.867760,709.925171 48.819866,675.764709 
	C43.396141,649.476501 46.411610,624.061462 59.594368,600.380249 
	C72.022011,578.055603 90.099472,561.881042 114.128014,552.865051 
	C125.501297,548.597534 137.187973,545.659180 149.586914,545.687317 
	C208.576691,545.821289 267.567017,545.710083 326.557159,545.666931 
	C334.748047,545.660950 334.556641,545.602173 334.958679,537.521667 
	C335.745544,521.706909 335.493652,505.884033 335.753204,490.066101 
	C335.823975,485.754333 334.428650,482.790527 331.129059,480.279205 
	C327.950806,477.860138 324.971405,475.179779 321.624390,472.393677 
M731.584839,711.097717 
	C732.618347,710.013062 733.671082,708.946045 734.682556,707.841187 
	C755.711853,684.869873 760.062927,657.811340 752.578552,628.694031 
	C748.128052,611.380005 737.021118,597.824463 722.476990,587.549866 
	C709.908203,578.670654 696.101807,572.989075 680.211426,573.121216 
	C664.056213,573.255554 647.895752,572.524292 631.736633,572.472107 
	C594.737854,572.352722 557.738403,572.391541 520.739258,572.426331 
	C513.258179,572.433350 505.775970,572.662170 498.297272,572.888306 
	C496.481598,572.943176 494.281708,573.124390 493.922974,575.409180 
	C493.151184,580.325134 492.515747,585.301086 494.345612,590.158569 
	C497.216766,597.780396 503.298767,599.681213 510.737030,599.680908 
	C544.235962,599.679565 577.734863,599.835327 611.233826,599.853699 
	C614.886963,599.855713 618.214111,600.304871 620.785950,603.166077 
	C624.771423,607.599915 625.275208,612.747742 623.384216,618.108887 
	C621.379028,623.793518 617.710327,626.284363 611.634766,626.286194 
	C575.302612,626.297180 538.960815,626.723938 502.642883,625.990845 
	C488.022888,625.695679 477.872040,616.442505 471.044617,603.881287 
	C467.577515,597.502441 468.120209,590.269409 468.020538,583.334290 
	C467.026764,514.186340 468.426086,445.027069 467.073181,375.878571 
	C466.756989,359.716827 466.676727,343.545563 466.844696,327.382355 
	C466.894745,322.564362 465.356750,321.109070 460.586761,321.131592 
	C430.088379,321.275787 399.588806,321.150757 369.089600,321.135712 
	C362.336060,321.132385 362.301575,321.171967 362.302460,328.129883 
	C362.309845,386.460510 362.330261,444.791107 362.348053,503.121735 
	C362.359467,540.619019 362.311920,578.116455 362.427124,615.613403 
	C362.457275,625.432617 363.258911,635.219238 366.077911,644.716064 
	C373.366211,669.269348 386.027405,690.340027 406.211090,706.519775 
	C425.138977,721.692871 446.335175,732.245728 470.841003,732.454468 
	C540.167236,733.045105 609.501648,732.608032 678.831787,732.857361 
	C699.349426,732.931152 716.251465,725.033142 731.584839,711.097717 
M370.581818,708.898499 
	C361.492065,698.385620 352.726501,687.270752 348.782501,673.998718 
	C345.529541,663.052124 339.452393,661.798157 329.637848,661.862061 
	C285.832550,662.147522 242.018173,662.503174 198.212845,661.423462 
	C194.898926,661.341797 192.037827,660.872009 189.623169,658.352295 
	C185.316452,653.858276 183.869583,648.624146 185.868011,643.823242 
	C188.628891,637.190674 191.953110,634.955322 199.267288,634.940491 
	C242.915253,634.851868 286.563263,634.780762 330.211243,634.697449 
	C336.938599,634.684631 336.888702,634.677246 335.879852,628.169617 
	C335.601440,626.373657 335.681671,624.517151 335.657074,622.687622 
	C335.460114,608.039368 335.978394,593.388733 335.133118,578.737061 
	C334.883820,574.415405 333.494446,572.589844 329.209595,573.034302 
	C328.057861,573.153809 326.879669,573.001526 325.713684,573.003479 
	C266.239716,573.104675 206.764053,572.979675 147.292526,573.416382 
	C120.208801,573.615234 99.721786,587.600159 85.574852,609.266174 
	C73.270882,628.109802 69.056412,649.453186 75.140602,672.306702 
	C80.780304,693.490662 92.002464,710.123779 110.724045,721.452515 
	C120.579102,727.415955 130.924271,732.539001 142.836258,732.650391 
	C182.643250,733.022766 222.450882,733.410095 262.259094,733.537842 
	C287.572845,733.619080 312.888092,733.255676 338.202606,733.081970 
	C354.694672,732.968872 371.186859,732.861755 387.678253,732.680664 
	C389.412354,732.661682 391.331696,733.236145 393.351501,731.483826 
	C385.522369,724.406128 377.518005,717.667358 370.581818,708.898499 
M509.746002,262.494781 
	C511.822693,248.877792 513.800720,235.244873 515.996521,221.647125 
	C520.627686,192.968048 517.759460,165.843369 499.403687,142.025620 
	C485.633057,124.157356 468.447113,111.736389 445.454437,108.375298 
	C436.998749,107.139229 428.522736,107.351967 420.071930,106.642403 
	C404.872223,105.366188 389.518707,106.091171 374.913269,109.778633 
	C359.304535,113.719414 346.116821,123.006294 335.087006,135.045975 
	C324.136841,146.998703 317.638885,161.195908 313.226410,176.571213 
	C309.047455,191.132812 309.437103,205.877213 312.221771,220.453918 
	C315.400146,237.091370 318.210693,253.777374 320.220276,270.571533 
	C321.609375,282.180237 328.941071,293.240295 342.950043,292.932892 
	C350.762115,292.761475 358.591400,293.558136 366.411316,293.525879 
	C406.383331,293.360962 446.354828,292.923462 486.326508,292.926575 
	C495.766663,292.927307 501.331085,288.430084 505.747162,280.728333 
	C508.919312,275.195953 508.246674,269.115173 509.746002,262.494781 
M590.424438,366.942383 
	C595.754578,358.456055 600.242432,349.564545 603.643616,340.117584 
	C612.172852,316.427185 612.775635,291.997437 611.012878,267.234955 
	C609.321045,243.467545 604.621399,220.459061 594.793091,198.696564 
	C585.548096,178.225967 572.597595,160.761765 552.456116,149.670059 
	C546.290466,146.274704 539.817261,143.498657 531.502502,142.689285 
	C534.308044,148.800781 537.186646,153.712921 538.882141,159.004135 
	C545.615723,180.018173 545.666138,201.627594 542.929626,223.202286 
	C540.736511,240.492844 537.188965,257.607025 534.655884,274.860199 
	C531.444580,296.732239 520.941589,312.384308 498.857788,318.722900 
	C495.379517,319.721252 493.942444,321.763641 493.936188,325.638458 
	C493.869446,366.947235 493.605286,408.255615 493.431396,449.564270 
	C493.422058,451.784180 493.090210,454.117584 494.511932,456.723541 
	C511.223419,441.814819 529.019592,428.913788 545.867615,414.828583 
	C562.548767,400.882812 578.177063,385.989868 590.424438,366.942383 
M326.913208,317.696075 
	C324.514221,316.572113 321.911713,316.069855 319.543701,314.721405 
	C303.407684,305.532745 296.135132,290.952911 293.669006,273.235687 
	C291.586914,258.277557 289.605164,243.291931 286.958344,228.429001 
	C282.710999,204.578873 283.299683,181.153809 290.903015,157.980835 
	C292.416962,153.366623 295.398926,149.074570 295.091431,143.817993 
	C292.167908,142.865723 289.998718,144.410782 287.844818,145.431305 
	C264.574219,156.456589 250.226242,175.652298 240.237534,198.494629 
	C224.879257,233.616150 221.136108,270.563934 224.244034,308.396179 
	C226.751724,338.921661 238.760757,365.526520 258.449432,388.789001 
	C275.160828,408.533752 295.758545,423.883240 316.071655,439.545959 
	C322.336487,444.376587 328.650269,449.143738 335.604736,454.445465 
	C335.604736,452.570099 335.610321,451.595154 335.603943,450.620270 
	C335.337036,409.816895 336.099579,369.009949 335.139648,328.208344 
	C334.955902,320.398926 335.097351,320.395599 326.913208,317.696075 
z"/>
<path fill="#000000" opacity="1.000000" stroke="none" 
	d="
M441.924835,194.390594 
	C451.293427,182.608902 461.814423,172.405075 472.422668,162.328857 
	C477.108093,157.878403 485.156372,159.357056 490.425629,164.722870 
	C494.487305,168.859039 494.598450,175.588806 490.600403,180.479446 
	C482.267670,190.672607 473.158386,200.155670 463.195374,208.731598 
	C456.407867,214.574127 452.833374,214.568481 446.122864,210.307480 
	C441.257446,207.218109 439.920074,202.421005 441.924835,194.390594 
z"/>
<path fill="#000000" opacity="1.000000" stroke="none" 
	d="
M338.483154,181.272400 
	C334.275299,174.418701 334.834412,167.821320 339.745911,163.303268 
	C344.540405,158.892853 351.238800,158.457443 357.019531,163.350906 
	C367.676819,172.372452 377.525665,182.304993 386.387146,193.113388 
	C389.718353,197.176498 388.141266,205.043991 383.927948,209.041885 
	C378.676025,214.025330 372.873260,214.556107 367.299927,210.100616 
	C363.542816,207.097076 360.065765,203.710846 356.680664,200.281403 
	C350.606995,194.128128 344.696838,187.813492 338.483154,181.272400 
z"/>
</svg>