<svg version="1.1" xmlns="http://www.w3.org/2000/svg" viewBox="53 41 396 414">
<path d="M0,0 L217,0 L235,6 L251,14 L262,22 L275,34 L284,46 L292,60 L298,75 L301,87 L302,120 L302,315 L300,332 L294,348 L286,363 L275,377 L267,385 L253,396 L236,405 L216,411 L209,412 L1,412 L-15,409 L-31,403 L-42,397 L-53,389 L-63,381 L-72,371 L-82,356 L-90,338 L-93,327 L-94,321 L-94,91 L-90,73 L-84,59 L-74,43 L-65,33 L-54,22 L-39,12 L-22,4 L-16,2 L-10,2 L-10,4 L-5,4 L-4,1 Z M98,23 L92,26 L80,37 L65,52 L63,53 L23,54 L17,58 L15,62 L15,83 L-20,83 L-31,87 L-43,96 L-50,106 L-53,113 L-54,118 L-54,134 L-52,143 L-46,154 L-45,155 L-44,262 L-51,263 L-58,269 L-59,271 L-59,315 L-52,327 L-43,334 L-34,337 L62,338 L57,351 L53,358 L46,361 L43,364 L43,371 L47,376 L49,377 L156,377 L161,371 L161,364 L151,343 L149,338 L154,337 L153,327 L146,290 L141,268 L138,251 L134,229 L132,219 L132,208 L136,198 L143,192 L149,189 L162,189 L171,193 L183,201 L196,211 L206,218 L217,226 L235,239 L247,248 L249,248 L250,157 L256,150 L260,141 L261,135 L261,116 L257,105 L249,95 L238,87 L231,84 L224,83 L175,82 L122,29 L112,23 Z M153,201 L147,206 L145,210 L146,220 L154,260 L157,280 L162,305 L170,346 L175,375 L177,380 L181,384 L189,384 L194,381 L202,367 L212,351 L216,356 L224,363 L231,365 L244,365 L251,363 L259,356 L264,344 L264,334 L259,323 L254,314 L262,313 L281,309 L286,304 L287,302 L287,296 L282,290 L264,277 L245,263 L226,249 L211,238 L197,228 L187,220 L176,213 L165,204 L159,201 Z " fill="#FCFCFC" transform="translate(147,43)"/>
<path d="M0,0 L14,0 L24,6 L77,59 L126,60 L135,62 L143,66 L152,73 L160,84 L163,93 L163,112 L161,121 L156,130 L152,134 L151,225 L147,223 L137,216 L128,209 L127,135 L122,130 L111,118 L99,107 L92,99 L57,64 L50,56 L36,43 L29,35 L16,23 L11,18 L3,18 L-25,46 L-32,54 L-34,56 L-39,56 L-43,49 L-67,49 L-68,83 L-69,87 L-72,88 L-73,91 L-76,92 L-77,95 L-79,96 L-80,100 L-87,106 L-94,114 L-112,132 L-117,136 L-118,138 L-119,254 L45,254 L47,264 L47,270 L-142,270 L-141,284 L-138,291 L-133,295 L-131,296 L-20,297 L-15,300 L-13,303 L-13,309 L-23,335 L-24,337 L39,337 L33,321 L30,311 L30,302 L33,298 L36,297 L53,297 L55,304 L56,314 L51,315 L61,337 L63,341 L63,348 L58,354 L-49,354 L-54,350 L-55,348 L-55,341 L-49,336 L-44,334 L-39,323 L-36,315 L-132,314 L-142,310 L-150,304 L-157,292 L-157,248 L-151,241 L-147,239 L-142,239 L-143,132 L-149,122 L-151,117 L-152,111 L-152,95 L-149,86 L-144,77 L-139,71 L-127,63 L-118,60 L-83,60 L-83,39 L-79,33 L-75,31 L-35,30 L-27,23 L-10,6 L-3,1 Z M-111,77 L-121,80 L-130,88 L-134,97 L-134,110 L-128,122 L-124,120 L-116,112 L-111,107 L-88,84 L-83,79 L-83,77 Z M94,77 L100,84 L138,122 L142,118 L146,107 L146,98 L140,86 L132,80 L124,77 Z " fill="#19282C" transform="translate(245,66)"/>
<path d="M0,0 L8,0 L13,4 L18,10 L26,17 L33,24 L39,31 L47,38 L54,45 L61,53 L96,88 L101,94 L109,101 L117,109 L121,114 L125,118 L125,179 L120,177 L104,166 L97,161 L96,129 L94,126 L79,126 L77,128 L76,156 L72,154 L64,150 L61,149 L48,149 L39,154 L34,159 L31,168 L30,165 L28,165 L28,134 L24,133 L10,133 L8,135 L7,209 L-4,209 L-5,151 L-6,149 L-22,149 L-24,151 L-25,208 L-33,208 L-34,171 L-33,169 L-39,168 L-51,169 L-53,171 L-54,209 L-66,209 L-66,178 L-69,177 L-82,177 L-84,179 L-85,209 L-96,209 L-97,129 L-100,126 L-107,126 L-109,128 L-110,216 L-111,216 L-112,131 L-117,132 L-118,134 L-120,135 L-121,202 L-122,202 L-122,121 L-117,115 L-109,108 L-92,91 L-87,85 L-79,78 L-72,71 L-71,69 L-70,53 L-59,47 L-51,40 L-49,37 L-47,37 L-46,34 L-42,38 L-37,38 L-32,32 L-27,27 Z M-1,41 L-11,44 L-21,51 L-26,56 L-31,65 L-33,72 L-33,85 L-31,94 L-27,102 L-20,110 L-12,115 L-4,117 L14,117 L24,113 L32,106 L34,102 L25,94 L13,85 L6,79 L5,53 L15,55 L24,60 L30,68 L32,73 L33,81 L44,81 L44,73 L40,61 L32,51 L23,45 L10,41 Z M47,111 L41,115 L38,119 L38,130 L42,136 L48,139 L55,139 L63,134 L66,129 L66,121 L63,115 L56,111 Z M-44,116 L-48,118 L-50,121 L-51,130 L-56,135 L-66,136 L-70,140 L-70,150 L-64,155 L-57,154 L-52,149 L-51,140 L-46,135 L-38,135 L-32,130 L-31,128 L-31,122 L-36,117 L-38,116 Z " fill="#FBD009" transform="translate(248,83)"/>
<path d="M0,0 L6,0 L16,6 L29,16 L43,26 L56,36 L65,42 L78,52 L96,65 L108,74 L125,86 L133,93 L134,95 L134,101 L131,106 L125,109 L105,113 L101,113 L106,122 L111,133 L111,143 L106,155 L98,162 L91,164 L78,164 L69,161 L61,152 L59,150 L48,168 L40,181 L36,183 L28,183 L23,178 L18,152 L13,125 L5,82 L2,68 L-1,49 L-8,14 L-7,7 L-2,1 Z M7,18 L14,57 L19,81 L21,90 L23,105 L27,124 L34,162 L36,162 L43,150 L47,142 L54,132 L55,131 L62,132 L71,145 L78,151 L89,151 L96,145 L97,143 L97,133 L89,120 L83,110 L83,105 L86,102 L109,98 L113,97 L113,95 L104,88 L90,78 L77,68 L59,55 L43,43 L29,33 L13,21 L9,18 Z " fill="#1A2A2E" transform="translate(300,244)"/>
<path d="M0,0 L7,0 L7,4 L10,5 L10,86 L23,86 L23,53 L24,53 L24,61 L27,61 L27,58 L30,57 L31,54 L34,53 L41,53 L41,84 L53,84 L53,46 L55,44 L70,44 L72,46 L72,85 L83,85 L83,25 L85,23 L101,23 L103,26 L103,84 L114,84 L114,10 L117,7 L131,7 L133,9 L133,85 L143,85 L145,91 L145,98 L2,98 L-3,94 L-3,3 Z " fill="#1A292C" transform="translate(141,208)"/>
<path d="M0,0 L5,2 L20,14 L32,22 L50,36 L63,45 L75,54 L83,60 L97,70 L106,77 L106,79 L90,82 L79,84 L76,87 L75,92 L62,96 L41,101 L20,104 L18,97 L15,81 L13,68 L8,42 L4,22 Z " fill="#FCD008" transform="translate(307,262)"/>
<path d="M0,0 L114,0 L130,1 L131,6 L131,22 L136,27 L143,27 L148,26 L150,20 L150,14 L148,9 L146,9 L146,6 L136,6 L136,4 L132,2 L133,1 L172,1 L172,25 L165,29 L164,31 L163,42 L149,44 L136,45 L118,45 L119,32 L115,27 L115,25 L4,25 L1,20 L-1,16 L-1,6 Z " fill="#FCD208" transform="translate(112,337)"/>
<path d="M0,0 L11,0 L24,4 L35,12 L42,22 L45,32 L45,40 L34,40 L32,29 L26,20 L19,15 L14,13 L6,12 L7,38 L20,49 L32,58 L35,62 L29,69 L23,73 L15,76 L-3,76 L-13,73 L-22,66 L-28,58 L-31,50 L-32,44 L-32,31 L-29,21 L-23,12 L-10,3 Z " fill="#19282A" transform="translate(247,124)"/>
<path d="M0,0 L4,0 L10,10 L18,23 L18,33 L12,40 L10,41 L-1,41 L-9,34 L-17,22 L-24,21 L-30,29 L-35,37 L-41,48 L-43,52 L-45,52 L-52,14 L-52,12 L-27,7 L-10,3 Z " fill="#EFB404" transform="translate(379,354)"/>
<path d="M0,0 L28,0 L28,2 L23,7 L-2,32 L-7,37 L-15,45 L-17,45 L-23,33 L-23,20 L-18,10 L-10,3 Z " fill="#F8F9F9" transform="translate(134,143)"/>
<path d="M0,0 L30,0 L40,4 L46,9 L52,21 L52,30 L48,41 L44,45 L0,1 Z " fill="#F8F9F9" transform="translate(339,143)"/>
<path d="M0,0 L1,0 L5,13 L8,22 L8,25 L-51,25 L-50,20 L-49,11 L-46,3 L-45,5 L-14,3 L0,2 Z " fill="#EFB204" transform="translate(275,377)"/>
<path d="M0,0 L15,0 L17,2 L17,46 L8,40 L-3,32 L-3,3 Z " fill="#1B2A2D" transform="translate(327,208)"/>
<path d="M0,0 L1,0 L1,87 L-1,86 L-1,84 L-5,84 L-5,80 L-1,80 L-1,76 L-5,76 L-5,74 L-7,74 L-9,72 L-9,5 L-5,2 Z " fill="#FED304" transform="translate(136,213)"/>
<path d="M0,0 L109,0 L110,6 L-20,6 L-20,1 Z " fill="#FED308" transform="translate(178,307)"/>
<path d="M0,0 L1,4 L3,4 L3,6 L7,6 L7,10 L3,10 L3,14 L7,14 L9,16 L13,21 L15,22 L158,23 L159,20 L159,24 L30,25 L30,30 L160,30 L160,31 L-2,31 L-2,2 L0,2 Z " fill="#FCD109" transform="translate(128,283)"/>
<path d="M0,0 L9,0 L16,4 L19,10 L19,18 L15,24 L8,28 L1,28 L-7,23 L-9,19 L-9,8 L-4,2 Z " fill="#1C292A" transform="translate(295,194)"/>
<path d="M0,0 L6,0 L11,3 L13,6 L13,12 L8,18 L1,19 L-3,20 L-7,24 L-8,33 L-15,39 L-22,38 L-26,34 L-26,24 L-22,20 L-12,19 L-7,14 L-6,5 L-2,1 Z " fill="#1C2A29" transform="translate(204,199)"/>
<path d="M0,0 L157,0 L157,1 L103,2 L103,4 L94,5 L0,5 Z " fill="#E8A402" transform="translate(126,314)"/>
<path d="M0,0 L1,4 L-180,4 L-180,20 L-176,28 L-65,29 L-65,31 L-178,30 L-184,26 L-188,21 L-189,17 L-189,3 L0,3 Z " fill="#E2C934" transform="translate(292,333)"/>
<path d="M0,0 L186,0 L201,1 L201,2 L-10,3 L-14,4 L-15,6 L-20,6 L-20,4 L-22,3 L-11,1 Z " fill="#E1E1E0" transform="translate(157,41)"/>
<path d="M0,0 L8,0 L12,2 L15,7 L15,13 L12,19 L7,21 L0,21 L-5,17 L-6,15 L-6,6 L-2,1 Z " fill="#1D2A29" transform="translate(248,344)"/>
<path d="M0,0 L6,0 L6,6 L-65,6 L-63,4 L-54,4 L-54,2 L-60,2 L-60,1 Z " fill="#DDA112" transform="translate(283,314)"/>
<path d="M0,0 L9,0 L12,12 L14,21 L14,26 L-2,26 L0,25 Z " fill="#ECAE0A" transform="translate(284,337)"/>
<path d="M0,0 L8,0 L23,10 L23,23 L14,17 L3,9 L-2,5 L1,4 L-1,3 Z " fill="#EEB20B" transform="translate(350,252)"/>
<path d="M0,0 L1,0 L5,18 L8,35 L8,38 L-1,38 L-1,2 Z " fill="#FBD20D" transform="translate(276,254)"/>
<path d="M0,0 L1,0 L1,59 L-10,59 L-11,20 L-12,19 L-26,18 L-26,17 L-11,16 L-7,18 L-8,21 L-8,57 L0,57 Z " fill="#D9B919" transform="translate(223,234)"/>
<path d="M0,0 L15,0 L16,4 L9,10 L0,15 L-2,15 L-2,6 Z " fill="#FEDE2F" transform="translate(180,121)"/>
<path d="M0,0 L22,0 L24,4 L22,4 L17,10 L15,8 L0,8 L-1,13 L-2,13 L-2,1 Z " fill="#F5D630" transform="translate(180,114)"/>
<path d="M0,0 L3,1 L4,3 L4,83 L15,83 L15,53 L16,53 L16,85 L3,85 L2,4 L0,3 Z " fill="#363A11" transform="translate(148,209)"/>
<path d="M0,0 L2,0 L2,31 L4,31 L4,43 L2,39 L1,75 L10,75 L10,76 L0,76 Z " fill="#C1A61B" transform="translate(274,217)"/>
<path d="M0,0 L1,0 L2,32 L12,39 L10,41 L6,41 L5,43 L8,44 L8,45 L3,45 L0,43 Z " fill="#E7B617" transform="translate(344,212)"/>
<path d="M0,0 L58,0 L58,1 L19,2 L23,4 L22,6 L32,6 L32,8 L22,8 L17,11 L16,1 L0,1 Z " fill="#F8CF10" transform="translate(226,337)"/>
<path d="M0,0 L92,0 L92,1 L0,1 Z " fill="#DDA112" transform="translate(126,319)"/>
<path d="M0,0 L1,0 L1,9 L0,10 L59,10 L59,12 L-4,12 L-1,3 Z " fill="#CFA724" transform="translate(225,391)"/>
<path d="M0,0 L13,0 L14,2 L6,3 L5,7 L2,7 L2,10 L-1,10 L-1,1 Z " fill="#2C3626" transform="translate(166,259)"/>
<path d="M0,0 L1,0 L1,35 L-6,43 L-11,47 L-12,44 L-9,44 L-8,40 L-5,40 L-4,36 L-1,36 Z " fill="#5E5D29" transform="translate(177,117)"/>
</svg>