<svg xmlns="http://www.w3.org/2000/svg" viewBox="-0.03 0 3040.95 1011.35"><path d="m569.74361 841.902829a90.761366 90.761366 0 0 1 -128.17483 0l-272.134243-272.159219a90.73639 90.73639 0 0 1 0-128.17483l125.976975-125.952-101.151219-101.126243-125.927025 125.952c-91.111024 91.111024-91.111024 239.341268 0 330.427317l272.134244 272.134244c91.086049 91.111024 239.316293 91.111024 330.402342 0l125.952-125.952-101.101269-101.126244z" fill="#51459e"></path><path d="m441.56878 169.459512a90.711415 90.711415 0 0 1 128.199805 0l125.952 125.952 101.126244-101.151219-125.976975-125.927025c-91.111024-91.111024-239.341268-91.111024-330.427317 0l-125.927025 125.952 101.126244 101.126244 125.952-125.952z" fill="#ff7c00"></path><path d="m790.602927 240.964683-74.677073 74.652097-106.146342 106.146342 101.15122 101.126244 106.146341-106.146342 24.800781 24.825756a90.761366 90.761366 0 0 1 0 128.199805l-125.952 125.952 101.151219 101.126244 125.927025-125.952c91.111024-91.111024 91.111024-239.341268 0-330.427317l-125.952-125.952z" fill="#ffc223"></path><g fill="#51459e"><path d="m1631.781463 443.217171h51.99922v-418.241561h-51.99922zm263.542635-39.911025c-30.72 0-56.669659-10.739512-77.024781-31.96878-20.405073-21.229268-30.72-47.453659-30.72-77.923903 0-30.49522 10.714537-57.194146 31.843903-79.347512 21.10439-22.103415 46.529561-33.317463 75.626146-33.317463s54.646634 11.214049 75.925854 33.317463c21.329171 22.153366 32.14361 48.75239 32.143609 79.072781 0 30.270439-10.63961 56.494829-31.56917 77.923902-20.904585 21.379122-46.554537 32.218537-76.225561 32.218537m0-273.432976c-44.706341 0-83.118829 16.034341-114.163513 47.653464-30.994732 31.594146-46.70439 70.03161-46.70439 114.238439s15.609756 82.569366 46.454634 113.988682c30.769951 31.419317 69.282341 47.353756 114.413269 47.353757 45.130927 0 83.543415-15.934439 114.188487-47.378732 30.620098-31.394341 46.154927-69.731902 46.154927-113.963707 0-44.206829-15.734634-82.669268-46.70439-114.238439-31.044683-31.619122-69.257366-47.653463-113.639024-47.653464m431.403707 121.831025c0 39.036878-1.748293 65.386146-5.194927 78.248585a100.501854 100.501854 0 0 1 -18.556878 36.189658c-8.916293 11.264-19.780683 20.230244-32.243512 26.549074a83.793171 83.793171 0 0 1 -38.212683 9.540683c-12.987317 0-24.151415-1.948098-33.117659-5.794342a52.748488 52.748488 0 0 1 -21.978536-17.333073 84.842146 84.842146 0 0 1 -13.361951-29.121561c-3.047024-11.538732-4.595512-33.891902-4.595513-66.435122v-145.982439h-52.024195v156.946732c0 40.910049 4.570537 71.754927 13.586732 91.660487a107.470049 107.470049 0 0 0 41.209756 47.50361 112.86478 112.86478 0 0 0 61.090341 17.258147c39.31161 0 74.027707-15.98439 103.349074-47.453659v39.761171h52.548683v-305.701464h-52.498732v114.138537zm-789.653854 84.642341c-37.66322 43.357659-82.569366 65.336195-133.494634 65.336195-51.050146 0-93.159024-15.484878-125.127805-46.055024-31.96878-30.520195-48.152976-69.082537-48.152975-114.638049 0-45.555512 16.558829-84.59239 49.251902-116.011707 32.718049-31.469268 72.179512-47.453659 117.335415-47.453659 55.345951 0 102.499902 22.902634 140.163122 68.033561l1.998048 2.397659 41.609366-31.818927-1.848195-2.497561a207.447415 207.447415 0 0 0 -78.648195-66.085464c-31.219512-14.985365-66.95961-22.552975-106.27122-22.552975a229.226146 229.226146 0 0 0 -110.641951 27.847805 207.347512 207.347512 0 0 0 -109.39317 184.020292c0 62.06439 21.079415 114.213463 62.588878 154.923708 41.484488 40.710244 95.481756 61.315122 160.443317 61.315122 76.924878 0 138.314927-28.472195 182.421853-84.667317l1.998049-2.572488-42.233756-31.818927z"></path><path d="m1428.355122 818.97522h126.626341c-6.668488 33.117659-23.277268 59.691707-49.37678 79.047804-27.223415 20.180293-59.966439 30.395317-97.404878 30.395317-50.57561 0-93.283902-16.60878-126.926049-49.326829-33.617171-32.718049-50.650537-71.580098-50.650536-115.487219a146.606829 146.606829 0 0 1 22.927609-79.02283c15.260098-24.301268 36.63922-43.882146 63.512976-58.19317 26.973659-14.311024 54.446829-21.553951 81.670244-21.553952 27.298341 0 54.272 5.74439 80.171707 17.008391 25.924683 11.313951 50.40078 27.847805 72.704 49.077073l2.247805 2.122927 41.634341-39.061854-2.547512-2.322732c-29.521171-26.84878-60.19122-47.104-91.061073-60.191219-30.969756-13.08722-64.936585-19.730732-100.926439-19.730732-66.460098 0-121.531317 21.27922-163.640195 63.26322s-63.463024 92.334829-63.463024 149.703805c0 57.344 21.354146 108.069463 63.438048 150.75278 42.108878 42.758244 99.253073 64.412098 169.784195 64.412098 61.639805 0 112.090537-18.606829 149.953561-55.296 37.863024-36.714146 57.618732-88.588488 58.742635-154.349269l.049951-3.246829h-187.466927zm387.321756-112.01561c24.825756 0 47.079024 6.993171 66.185366 20.779707 17.957463 13.012293 29.970732 31.169561 35.765073 54.04722h-201.303415c17.208195-50.350829 49.77639-74.826927 99.352976-74.826927zm160.693073 118.059707c-1.123902-51.849366-17.058341-93.308878-47.278829-123.254634-30.270439-29.970732-68.433171-45.155902-113.389268-45.155903-45.006049 0-83.268683 16.034341-113.738927 47.653464-30.420293 31.594146-45.85522 70.03161-45.85522 114.238439s15.335024 82.569366 45.580488 113.938732c30.245463 31.469268 69.182439 47.428683 115.662049 47.428683 33.617171 0 62.938537-7.842341 87.164878-23.32722 24.226341-15.409951 45.405659-39.53639 63.08839-71.729951l1.548488-2.872195-44.881171-22.727805-1.498536 2.797268c-24.925659 45.880195-61.539902 69.132488-108.768781 69.132488a99.902439 99.902439 0 0 1 -71.655024-28.971707c-19.256195-18.631805-30.220488-43.457561-32.568195-73.877854h266.664585l-.074927-3.246829zm316.19122-103.64878a107.819707 107.819707 0 0 0 -41.409561-47.528586 114.28839 114.28839 0 0 0 -61.489951-17.233171c-39.511415 0-74.427317 15.959415-103.898537 47.453659v-39.786146h-52.84839v305.701463h52.84839v-114.138536c0-39.111805 1.748293-65.436098 5.194927-78.248586 3.396683-12.662634 9.665561-24.825756 18.65678-36.164683 8.99122-11.313951 19.905561-20.230244 32.443317-26.599024a84.417561 84.417561 0 0 1 38.387513-9.490732c13.062244 0 24.276293 1.923122 33.317463 5.74439 8.941268 3.796293 16.384 9.665561 22.12839 17.358049 5.844293 7.842341 10.364878 17.657756 13.436878 29.121561 3.072 11.563707 4.620488 33.916878 4.620488 66.435122v145.957463h52.323902v-156.921756c0-40.910049-4.620488-71.754927-13.711609-91.660487m343.364683 158.270439c-28.27239 34.19161-63.463024 51.524683-104.647805 51.524683-34.266537 0-62.963512-11.338927-85.316683-33.642147-22.328195-22.328195-33.667122-49.451707-33.667122-80.671219 0-31.11961 11.48878-57.593756 34.166634-78.673171 22.702829-21.079415 51.249951-31.768976 84.817171-31.768976 42.633366 0 77.624195 17.133268 104.023414 50.925269l1.798244 2.322731 41.509464-25.749853-1.648391-2.722342c-14.385951-23.452098-34.616195-41.959024-60.191219-54.996292-25.450146-12.987317-53.672585-19.580878-83.818146-19.580879-50.900293 0-93.009171 16.109268-125.127805 47.90322-32.093659 31.768976-48.377756 70.481171-48.377756 115.08761 0 44.631415 16.209171 82.919024 48.128 113.763902 31.943805 30.869854 72.229463 46.47961 119.808 46.47961 30.470244 0 59.192195-6.193951 85.416585-18.407024a158.844878 158.844878 0 0 0 64.062439-53.822439l1.82322-2.647415-40.885074-27.648zm244.211512-172.681366c24.825756 0 47.079024 6.993171 66.185366 20.779707 17.932488 13.012293 29.970732 31.169561 35.765073 54.04722h-201.303415c17.233171-50.350829 49.751415-74.826927 99.352976-74.826927zm107.12039 155.048585c-24.97561 45.880195-61.564878 69.132488-108.76878 69.132488a99.927415 99.927415 0 0 1 -71.68-28.971707c-19.281171-18.631805-30.220488-43.457561-32.568196-73.877854h266.664586l-.074927-3.246829c-1.123902-51.874341-17.033366-93.333854-47.278829-123.27961-30.295415-29.970732-68.433171-45.155902-113.389269-45.155903-45.006049 0-83.293659 16.034341-113.738926 47.653464-30.420293 31.594146-45.85522 70.03161-45.85522 114.238439s15.335024 82.569366 45.580488 113.938732c30.245463 31.469268 69.182439 47.428683 115.662049 47.428683 33.617171 0 62.938537-7.842341 87.164878-23.32722 24.201366-15.409951 45.405659-39.53639 63.063414-71.729951l1.598439-2.872195-44.88117-22.727805z"></path></g></svg>
