<?xml version="1.0" encoding="utf-8"?>
<!-- Generator: Adobe Illustrator 24.3.0, SVG Export Plug-In . SVG Version: 6.00 Build 0)  -->
<svg version="1.1" id="Layer_1" xmlns="http://www.w3.org/2000/svg" xmlns:xlink="http://www.w3.org/1999/xlink" x="0px" y="0px"
	 viewBox="0 0 512 512" style="enable-background:new 0 0 512 512;" xml:space="preserve">
<style type="text/css">
	.st0{fill:url(#SVGID_1_);}
	.st1{fill:url(#SVGID_2_);}
	.st2{fill:url(#SVGID_3_);}
	.st3{fill:url(#SVGID_4_);}
	.st4{fill:#404041;}
</style>
  <defs></defs>
  <g transform="matrix(1.98373, 0, 0, 1.980505, -251.483063, -145.602615)" style="">
    <g>
      <g>
        <linearGradient id="SVGID_1_" gradientUnits="userSpaceOnUse" x1="184.32" y1="170.9534" x2="355.2964" y2="286.6595">
          <stop offset="0" style="stop-color:#5DCBDD"></stop>
          <stop offset="0.4944" style="stop-color:#73CC93"></stop>
          <stop offset="1" style="stop-color:#F4E736"></stop>
        </linearGradient>
        <path class="st0" d="M220,215.8c11.4,0,20.7-9.2,20.7-20.7c0-11.4-9.2-20.7-20.7-20.7c-11.4,0-20.7,9.2-20.7,20.7
				C199.3,206.5,208.6,215.8,220,215.8z" style="fill: url(#SVGID_1_);"></path>
        <linearGradient id="SVGID_2_" gradientUnits="userSpaceOnUse" x1="205.0725" y1="140.2879" x2="376.0489" y2="255.994">
          <stop offset="0" style="stop-color:#5DCBDD"></stop>
          <stop offset="0.4944" style="stop-color:#73CC93"></stop>
          <stop offset="1" style="stop-color:#F4E736"></stop>
        </linearGradient>
        <path class="st1" d="M286,215.8c11.4,0,20.7-9.2,20.7-20.7c0-11.4-9.2-20.7-20.7-20.7s-20.7,9.2-20.7,20.7
				C265.4,206.5,274.6,215.8,286,215.8z" style="fill: url(#SVGID_2_);"></path>
        <linearGradient id="SVGID_3_" gradientUnits="userSpaceOnUse" x1="159.1541" y1="208.1405" x2="330.1305" y2="323.8466">
          <stop offset="0" style="stop-color:#5DCBDD"></stop>
          <stop offset="0.4944" style="stop-color:#73CC93"></stop>
          <stop offset="1" style="stop-color:#F4E736"></stop>
        </linearGradient>
        <path class="st2" d="M359.7,277.4l-5.7-5.7l-30.1-30.1c-7.1,12-17.2,22.1-29.2,29.2c-12.3,7.2-26.6,11.4-41.8,11.4
				c-15.5,0-30-4.3-42.4-11.7c-12-7.2-22-17.3-29-29.4l-30.1,30.1c8,11.3,17.8,21.3,29.1,29.3c20.4,14.7,45.4,23.3,72.5,23.3
				c26.8,0,51.6-8.5,72-23l5.7,5.7c8.1,8.1,21.1,8.1,29.2,0C367.8,298.5,367.8,285.4,359.7,277.4z" style="fill: url(#SVGID_3_);"></path>
      </g>
    </g>
    <linearGradient id="SVGID_4_" gradientUnits="userSpaceOnUse" x1="387.2973" y1="147.0428" x2="123.8593" y2="150.1421">
      <stop offset="0" style="stop-color:#355AAD"></stop>
      <stop offset="0.4832" style="stop-color:#119ED8"></stop>
      <stop offset="1" style="stop-color:#53C29D"></stop>
    </linearGradient>
    <path class="st3" d="M375.3,179c-3.2-19.1-10.7-36.7-21.6-51.8c-8.1-11.3-18-21.1-29.3-29.1c-20.2-14.2-44.8-22.6-71.5-22.6
		c-26.8,0-51.6,8.5-72,23c-11.3,8-21.2,17.9-29.2,29.2c-10.7,15-18.1,32.4-21.2,51.3c-1.1,6.7-1.7,13.6-1.7,20.7s0.6,13.9,1.7,20.7
		h42.4c-1.7-6.6-2.6-13.5-2.6-20.7c0-7.1,0.9-14.1,2.6-20.7c1.9-7.5,4.9-14.6,8.8-21.2c7.1-12,17.2-22.1,29.2-29.2
		c12.3-7.2,26.6-11.4,41.8-11.4c15,0,29.1,4,41.3,11.1c12.1,7,22.2,17,29.4,29c4,6.7,7.1,14,9.1,21.7c1.7,6.6,2.6,13.5,2.6,20.7
		c0,7.1-0.9,14.1-2.6,20.7h42.6c1.1-6.7,1.7-13.6,1.7-20.7S376.4,185.7,375.3,179z" style="fill: url(#SVGID_4_);"></path>
  </g>
</svg>