<svg enable-background="new 0 0 43 43" viewBox="0 0 43 43" xmlns="http://www.w3.org/2000/svg"><g clip-rule="evenodd" fill="#173361" fill-rule="evenodd"><path d="m30.8 22.7c1.1-.1 2.2-.1 3.3-.2v-.8c-1.1-.1-2.2-.1-3.3-.2l-3.3-.1c-1.9-.1-3.9-.1-5.8-.1 0-1.9 0-3.9-.1-5.8l-.1-3.3c-.1-1.1-.1-2.2-.2-3.3h-.9c-.1 1.1-.1 2.2-.2 3.3l-.1 3.3v2.7c-.4-.8-.7-1.7-1.1-2.5l-1.4-3c-.5-1-.9-2-1.4-3l-.8.3c.4 1.1.7 2.1 1.1 3.1l1.2 3.1c.3.9.7 1.7 1 2.6-.7-.6-1.3-1.3-2-1.9l-2.4-2.3c-.8-.7-1.6-1.5-2.5-2.2l-.7.7c.7.8 1.5 1.6 2.2 2.5l2.3 2.4c.6.7 1.3 1.3 1.9 2-.8-.3-1.7-.7-2.6-1l-3.1-1.2c-1-.4-2.1-.8-3.1-1.1l-.4.9c1 .5 2 .9 3 1.4l3 1.4c.8.4 1.7.7 2.5 1.1-.9 0-1.8 0-2.7 0l-3.3.1c-1.1.1-2.2.1-3.3.2v.9c1.1.1 2.2.1 3.3.2l3.3.1c2 .1 3.9.1 5.8.1 0 1.9 0 3.9.1 5.8l.1 3.3c.1 1.1.1 2.2.2 3.3h.8c.1-1.1.1-2.2.2-3.3l.1-3.3c0-.9 0-1.9.1-2.8.4.9.7 1.7 1.1 2.6l1.4 3c.5 1 .9 2 1.4 3l.8-.3c-.3-1.1-.7-2.1-1.1-3.1l-1-3.3c-.3-.9-.7-1.7-1-2.6.7.7 1.3 1.3 2 1.9l2.4 2.3c.8.7 1.6 1.5 2.5 2.2l.6-.6c-.7-.8-1.5-1.6-2.2-2.5l-2.3-2.4c-.6-.7-1.3-1.4-1.9-2 .9.3 1.7.7 2.6 1l3.1 1.2c1 .4 2.1.8 3.1 1.1l.3-.8c-1-.5-2-1-3-1.4l-3-1.4c-.9-.4-1.7-.8-2.6-1.1.9 0 1.9 0 2.8-.1 0 0 3.3-.1 3.3-.1z"/><path d="m21.5 43c-11.9 0-21.5-9.6-21.5-21.5s9.6-21.5 21.5-21.5 21.5 9.6 21.5 21.5-9.6 21.5-21.5 21.5m0-41c-10.7 0-19.5 8.8-19.5 19.5s8.8 19.5 19.5 19.5 19.5-8.8 19.5-19.5-8.8-19.5-19.5-19.5"/></g></svg>