<svg viewBox="0 -1.428 255.582 290.108" xmlns="http://www.w3.org/2000/svg"><path d="m255.569 84.452c-.002-4.83-1.035-9.098-3.124-12.76-2.052-3.603-5.125-6.622-9.247-9.009-34.025-19.619-68.083-39.178-102.097-58.817-9.17-5.294-18.061-5.1-27.163.27-13.543 7.986-81.348 46.833-101.553 58.536-8.321 4.818-12.37 12.19-12.372 21.771-.013 39.455 0 78.91-.013 118.365 0 4.724.991 8.91 2.988 12.517 2.053 3.711 5.169 6.813 9.386 9.254 20.206 11.703 88.02 50.547 101.56 58.536 9.106 5.373 17.997 5.565 27.17.27 34.015-19.64 68.075-39.199 102.105-58.818 4.217-2.44 7.333-5.544 9.386-9.252 1.994-3.608 2.987-7.793 2.987-12.518 0 0 0-78.889-.013-118.345" fill="#a179dc"/><path d="m128.182 143.241-125.194 72.084c2.053 3.711 5.169 6.813 9.386 9.254 20.206 11.703 88.02 50.547 101.56 58.536 9.106 5.373 17.997 5.565 27.17.27 34.015-19.64 68.075-39.199 102.105-58.818 4.217-2.44 7.333-5.544 9.386-9.252z" fill="#280068"/><path d="m255.569 84.452c-.002-4.83-1.035-9.098-3.124-12.76l-124.263 71.55 124.413 72.073c1.994-3.608 2.985-7.793 2.987-12.518 0 0 0-78.889-.013-118.345" fill="#390091"/><g fill="#fff"><path d="m201.892 116.294v13.474h13.474v-13.474h6.737v13.474h13.474v6.737h-13.474v13.473h13.474v6.737h-13.474v13.474h-6.737v-13.474h-13.474v13.474h-6.737v-13.474h-13.473v-6.737h13.473v-13.473h-13.473v-6.737h13.473v-13.474zm13.474 20.21h-13.474v13.474h13.474z"/><path d="m128.457 48.626c35.144 0 65.827 19.086 82.262 47.456l-.16-.273-41.35 23.808c-8.146-13.793-23.08-23.102-40.213-23.294l-.54-.003c-26.125 0-47.305 21.18-47.305 47.305a47.08 47.08 0 0 0 6.239 23.47c8.154 14.235 23.483 23.836 41.067 23.836 17.693 0 33.109-9.723 41.221-24.11l-.197.345 41.287 23.918c-16.255 28.13-46.518 47.157-81.253 47.536l-1.058.006c-35.255 0-66.025-19.204-82.419-47.724-8.003-13.923-12.582-30.064-12.582-47.277 0-52.466 42.532-95 95-95z"/></g></svg>
