<svg viewBox="0 0 256 256">
  <path fill="#fefefe" d="M106.33 255.08c-49.997-9.09-90.173-47.7-101.184-97.3-3.184-14.1-3.432-42.7-.493-56.1 5.357-24.4 16.566-45.4 33.331-62.5 17.757-18.2 37.002-29.1 62.992-35.8 7.252-1.86 11.21-2.16 28.272-2.16s21.03.302 28.272 2.16c50.096 12.8 85.61 49.1 96.423 98.3 1.914 8.78 2.291 13.3 2.241 27.5-.044 14.7-.404 18.5-2.628 28.1-8.73 37.6-33.232 69.1-67.06 86.3-8.73 4.44-24.8 9.7-35.216 11.5-11.01 1.93-33.926 1.89-44.739-.068z"/>
  <path fill="#fcfbfb" d="M119.226 227.08c-22.518-5.68-42.557-26.6-62.1-64.7-27.874-54.4-31.446-104-8.6-119 7.827-4.88 19.245-4.7 29.363.443 5.615 2.86 7.212 4.66 10.416 11.7 3.939 8.67 5.476 18.6 6.14 39.6l.614 19.3 3.154-7.29c1.736-4.01 5.238-10.9 7.788-15.4 2.55-4.45 4.642-9.31 4.642-10.8 0-1.48-1.11-5.35-2.48-8.62-2.54-6.08-2.946-9.38-1.865-14.9.62-3.12.626-3.13 7.192-3.13l6.567-.004 4.097-5.34c4.623-6.04 13.59-13.4 21.328-17.4 4.484-2.34 6.399-2.72 13.69-2.72 7.52 0 9.007.32 13.293 2.84 2.638 1.56 4.583 3.05 4.325 3.31s-3.046-.286-6.21-1.21c-7.877-2.31-15.773-1.48-23.808 2.5-19.047 9.44-38.39 45-30.851 56.6 1.021 1.58 3.511 2.99 7.102 4.04 5.833 1.71 8.65 1.26 3.78-.608-10.218-3.91-8.105-13.2 6.845-30.1l8.521-9.63-.564-5.51c-.511-4.99-.355-5.63 1.666-6.72 2.778-1.5 7.311-.653 10.614 1.99 3.135 2.49 12.896 2.72 21.13.51 2.996-.813 8.234-1.48 11.606-1.49 5.774-.012 6.22.154 6.806 2.49.342 1.37.37 3.16.061 3.97-.308.81.375 3.6 1.518 6.21 2.57 5.86 3.531 19.7 1.895 27.3-.633 2.98-2.917 9.08-5.08 13.6-5.406 11.2-5.614 12.9-2.51 20.3 5.328 12.7 9.216 37 8.215 51.1-.297 4.15-1.727 13.4-3.185 20.5-2.777 13.7-2.56 18.5.992 21.5.816.682 1.488 2.68 1.488 4.44 0 3.72-2.777 6.71-7.837 8.41-4.741 1.6-14.979 1.42-19.939-.362-5.922-2.11-10.813-1.87-14.88.723-3.055 1.95-5.01 2.24-16.368 2.46-8.76.166-14.78-.224-18.749-1.22zm-15.078-35.2c-8.82-26.1-6.081-55.4 8.025-85.9l4.246-9.16-4.544-3.98-3.978 8.66c-16.17 35.2-18.65 66.2-7.063 89.3 3.066 6.12 5.843 10.9 6.359 10.9.137 0-1.23-4.39-3.035-9.75zm75.888-87.5 2.083-5.25-.453 4.37c-.256 2.49-.079 4 .413 3.5.812-.818 5.922-13.7 5.922-15 0-.311-1.349.582-3.005 1.98-3.066 2.6-8.571 4.61-12.698 4.62-2.083.005-2.222.329-1.647 3.76 1.131 6.77 1.429 7.25 4.425 7.25 2.5 0 3.095-.629 4.93-5.25z"/>
  <path fill="#fbfbfb" d="M119.226 227.08c-22.518-5.68-42.557-26.6-62.1-64.7-21.327-41.7-28.668-80.3-19.84-104 6.35-17.1 23.313-23 40.673-14.2 5.615 2.86 7.212 4.66 10.416 11.7 3.938 8.67 5.476 18.6 6.14 39.6l.613 19.3 3.155-7.29c1.736-4.01 5.238-10.9 7.787-15.4 2.55-4.45 4.643-9.31 4.643-10.8 0-1.48-1.111-5.35-2.48-8.62-2.54-6.08-2.947-9.38-1.865-14.9.619-3.12.626-3.13 7.192-3.13l6.567-.004 4.097-5.34c4.622-6.04 13.59-13.4 21.328-17.4 4.484-2.34 6.398-2.72 13.69-2.72 7.519 0 9.007.32 13.292 2.84 2.639 1.56 4.583 3.05 4.325 3.31s-3.045-.286-6.21-1.21c-7.876-2.31-15.773-1.48-23.808 2.5-19.046 9.44-38.39 45-30.85 56.6 1.02 1.58 3.51 2.99 7.102 4.04 5.833 1.71 8.65 1.26 3.78-.608-10.218-3.91-8.105-13.2 6.844-30.1l8.521-9.63-.564-5.51c-.51-4.99-.354-5.63 1.667-6.72 2.777-1.5 7.31-.653 10.614 1.99 3.135 2.49 12.896 2.72 21.13.51 2.995-.813 8.233-1.48 11.606-1.49 5.773-.012 6.22.154 6.805 2.49.342 1.37.37 3.16.062 3.97-.309.81.375 3.6 1.517 6.21 2.57 5.86 3.532 19.7 1.895 27.3-.633 2.98-2.916 9.08-5.079 13.6-5.406 11.2-5.615 12.9-2.51 20.3 5.327 12.7 9.216 37 8.214 51.1-.297 4.15-1.726 13.4-3.184 20.5-2.778 13.7-2.56 18.5.992 21.5.815.682 1.488 2.68 1.488 4.44 0 3.72-2.778 6.71-7.837 8.41-4.742 1.6-14.98 1.42-19.94-.362-5.922-2.11-10.812-1.87-14.88.723-3.055 1.95-5.009 2.24-16.367 2.46-8.76.166-14.781-.224-18.75-1.22zm-15.078-35.2c-8.82-26.1-6.081-55.4 8.025-85.9l4.246-9.16-4.544-3.98-3.978 8.66c-16.17 35.2-18.65 66.2-7.063 89.3 3.066 6.12 5.843 10.9 6.359 10.9.137 0-1.23-4.39-3.035-9.75zm75.888-87.5 2.083-5.25-.453 4.37c-.256 2.49-.079 4 .413 3.5.812-.818 5.922-13.7 5.922-15 0-.311-1.349.582-3.005 1.98-3.066 2.6-8.571 4.61-12.698 4.62-2.083.005-2.222.329-1.647 3.76 1.131 6.77 1.429 7.25 4.425 7.25 2.5 0 3.095-.629 4.93-5.25z"/>
  <path fill="#a08470" d="M119.226 227.08c-12.3-3.11-26.883-13.1-37.3-25.6-17.458-20.9-36.108-58.2-43.846-87.4-2.777-10.6-3.214-14-3.63-28.7-.418-14.9-.245-17.4 1.597-23.6 2.5-8.31 5.267-12.6 10.813-16.9 8.025-6.17 19.939-6.5 31.05-.859 5.614 2.86 7.211 4.66 10.415 11.7 3.938 8.67 5.476 18.6 6.14 39.6l.614 19.3 3.154-7.29c1.736-4.01 5.238-10.9 7.787-15.4 2.55-4.45 4.643-9.31 4.643-10.8 0-1.48-1.111-5.35-2.48-8.62-2.54-6.08-2.946-9.38-1.865-14.9.62-3.12.626-3.13 7.192-3.13l6.567-.004 4.097-5.34c4.623-6.04 13.59-13.4 21.328-17.4 4.484-2.34 6.398-2.72 13.69-2.72 7.52 0 9.007.32 13.292 2.84 2.64 1.56 4.584 3.05 4.326 3.31s-3.046-.286-6.21-1.21c-7.877-2.31-15.773-1.48-23.808 2.5-19.047 9.44-38.39 45-30.852 56.6 1.022 1.58 3.512 2.99 7.103 4.04 5.833 1.71 8.65 1.26 3.78-.608-10.218-3.91-8.105-13.2 6.845-30.1l8.52-9.63-.564-5.51c-.51-4.99-.354-5.63 1.667-6.72 2.778-1.5 7.311-.653 10.614 1.99 3.135 2.49 12.896 2.72 21.13.51 2.996-.813 8.234-1.48 11.606-1.49 5.774-.012 6.22.154 6.805 2.49.343 1.37.37 3.16.062 3.97-.309.81.375 3.6 1.518 6.21 2.569 5.86 3.531 19.7 1.894 27.3-.632 2.98-2.916 9.08-5.079 13.6-5.406 11.2-5.614 12.9-2.51 20.3 5.328 12.7 9.216 37 8.214 51.1-.296 4.15-1.726 13.4-3.184 20.5-2.778 13.7-2.56 18.5.992 21.5.815.682 1.488 2.68 1.488 4.44 0 3.72-2.778 6.71-7.837 8.41-4.741 1.6-14.979 1.42-19.939-.362-5.922-2.11-10.813-1.87-14.88.723-3.055 1.95-5.01 2.24-16.368 2.46-8.76.166-14.78-.224-18.749-1.22zm-15.078-35.2c-8.82-26.1-6.081-55.4 8.025-85.9l4.246-9.16-4.544-3.98-3.978 8.66c-16.17 35.2-18.65 66.2-7.063 89.3 3.066 6.12 5.843 10.9 6.359 10.9.137 0-1.23-4.39-3.035-9.75zm75.888-87.5 2.083-5.25-.453 4.37c-.256 2.49-.079 4 .413 3.5.812-.818 5.922-13.7 5.922-15 0-.311-1.349.582-3.005 1.98-3.066 2.6-8.571 4.61-12.698 4.62-2.083.005-2.222.329-1.647 3.76 1.131 6.77 1.429 7.25 4.425 7.25 2.5 0 3.095-.629 4.93-5.25z"/>
  <path fill="#45352f" d="M119.226 227.08c-22.22-6.14-42.557-28.1-61.702-66.5-16.17-32.4-23.015-58.2-21.924-81.9.9-19.4 6.33-30.1 17.757-35.1 6.409-2.78 15.575-2.41 23.114.932 8.76 3.86 11.904 8.32 15.574 21.9 1.706 6.37 2.133 11.7 2.55 31.2l.503 23.5 1.706-5c1.875-5.48 8.829-19.8 12.4-25.4 3.343-5.34 3.62-10.6.869-16.6-1.468-3.18-2.312-6.88-2.312-10.2-.015-8.04.246-8.32 7.788-8.39l6.587-.057 3.73-4.94c4.582-6.06 13.193-13 21.03-17 5.01-2.54 6.964-2.97 13.392-2.93 6.14.037 8.352.508 12.003 2.56 2.46 1.38 3.571 2.23 2.48 1.88-14.086-4.48-26.486-1.15-38.49 10.4-14.88 14.2-24.998 38.4-20.038 47.9 1.895 3.7 1.468 4.06-1.28 1.08l-1.944-2.11-1.934 3.86c-4.325 8.62-11.21 27.5-13.79 37.9-2.36 9.52-2.727 13-2.717 25.5.018 13 .292 15.3 2.668 22.5 3.185 9.64 11.21 23.3 15.178 25.7.566.347-.058-3.5-1.389-8.55-2.877-10.9-3.531-29.6-1.26-36.1l1.36-3.88 3.055 5.38c5.227 9.22 20.336 22.8 27.28 24.6 5.178 1.31 5.059-5.51-.366-20.2-4.683-12.7-5.615-17.5-5.655-29.5-.036-11.9 1.439-17.3 8.174-29.6 4.603-8.45 4.93-12.1 1.994-21.5-1.081-3.49-1.974-6.92-1.984-7.62-.007-.705 2.331.483 5.198 2.64 7.321 5.52 16.963 10.2 22.42 10.8 4.047.483 5.078.205 7.797-2.1 3.382-2.87 7.211-11.7 7.211-16.6 0-1.63.427-2.96.948-2.96 1.29 0 2.321 6.08 1.865 10.9l-.378 3.99 2.748-2.66c1.517-1.46 3.65-4.94 4.761-7.72l2.004-5.06-.328 8.53c-.297 7.72-.771 9.48-4.98 18.6-2.847 6.14-4.653 11.4-4.653 13.6 0 1.99 1.34 6.99 2.976 11.1 6.974 17.6 8.83 44.7 4.464 65.1-3.303 15.4-3.263 20.5.161 24.6 2.163 2.59 2.48 3.63 1.736 5.72-1.379 3.91-5.327 6.27-12.598 7.52-5.962 1.03-7.282.926-13.392-1.06-8.62-2.8-10.615-2.76-16.27.299-4.324 2.32-5.594 2.49-17.855 2.41-7.738-.052-15.178-.649-18.055-1.44zm59.123-117c.855-.688 2.073-2.15 2.718-3.25 1.101-1.9 1.131-1.89.553.25-.913 3.36 1.21 2.74 3.075-.913 2.292-4.47 5.476-14.1 4.87-14.7-.279-.282-1.735.663-3.223 2.1-3.333 3.2-7.172 4.74-11.805 4.74h-3.532l.474 4.97c.682 7.16 3.273 9.7 6.904 6.78zm-1.666-45.1c-10.02-4.75-12.4-11.4-5.456-14.8 4.533-2.23 16.665-4.31 20.137-3.43 2.381.603 2.708 1.16 2.708 4.7 0 6.88-6.15 16-10.812 15.9-.881-.005-3.84-1.07-6.567-2.37zm-33.828-5.87c1.171-1.82 1.24-3.04.335-6.42-2.074-7.75 2.698-9.47 12.499-4.5l5.565 2.83-5.238 1.66c-2.876.915-7.063 3.24-9.295 5.17-4.702 4.06-5.892 4.45-3.839 1.26z"/>
</svg>
