<svg xmlns="http://www.w3.org/2000/svg" fill="none" viewBox="0 0 82 25">
<path fill="#C6D300" d="M30.7337 21.0714H27.2898V24.5H30.7337V21.0714Z"></path>
<path fill="#59C1D5" d="M27.2898 3.92856V0.5H23.8459V3.92856V7.35716V10.7857V14.2143V17.6429V21.0714H27.2898V17.6429V14.2143V10.7857H30.7337V7.35716H27.2898V3.92856Z"></path>
<path fill="#59C1D5" d="M17.0887 3.92856V7.35716V10.7857V14.2143V17.6429V21.0714V24.5H20.5326V21.0714V17.6429V14.2143V10.7857V7.35716V3.92856V0.5H17.0887V3.92856Z"></path>
<path fill="#59C1D5" d="M10.3316 3.92856V7.35716H6.88772H3.44385V10.7857H6.88772H10.3316V14.2143V17.6429V21.0714H6.88772H3.44385V24.5H6.88772H10.3316H13.7755V21.0714V17.6429V14.2143V10.7857V7.35716V3.92856V0.5H10.3316V3.92856Z"></path>
<path fill="#59C1D5" d="M3.44388 14.2143V10.7857H0V14.2143V17.6429V21.0714H3.44388V17.6429V14.2143Z"></path>
<path fill="#C6D300" d="M44.3786 10.7857H37.4908V0.5H34.0469V24.5H37.4908V14.2143H44.3786V24.5H47.8224V0.5H44.3786V10.7857Z"></path>
<path fill="#C6D300" d="M54.5796 7.35718H51.1357V21.0715H54.5796V7.35718Z"></path>
<path fill="#C6D300" d="M61.4673 21.0715H54.5796V24.5H64.9112V7.35718H61.4673V21.0715Z"></path>
<path fill="#C6D300" d="M71.6684 10.7857H78.5561V7.35716H71.6684V0.5H68.2245V24.5H78.5561V21.0714H71.6684V10.7857Z"></path>
<path fill="#C6D300" d="M82 10.7857H78.5562V21.0714H82V10.7857Z"></path>
</svg>
