<svg xmlns="http://www.w3.org/2000/svg" width="51.05" height="51.002" viewBox="0 0 51.05 51.002"><g transform="translate(-1058.711 -389.758)"><g transform="translate(1059 390)" fill="#05fac0"><path d="M 45.6844482421875 50.260498046875 L 5.076048851013184 50.260498046875 C 2.552809000015259 50.260498046875 0.4999990165233612 48.20768737792969 0.4999990165233612 45.6844482421875 L 0.4999990165233612 5.076048851013184 C 0.4999990165233612 2.552809000015259 2.552809000015259 0.4999990165233612 5.076048851013184 0.4999990165233612 L 45.6844482421875 0.4999990165233612 C 48.20768737792969 0.4999990165233612 50.260498046875 2.552809000015259 50.260498046875 5.076048851013184 L 50.260498046875 45.6844482421875 C 50.260498046875 48.20768737792969 48.20768737792969 50.260498046875 45.6844482421875 50.260498046875 Z" stroke="none"/><path d="M 5.0760498046875 1 C 2.828510284423828 1 1 2.828510284423828 1 5.0760498046875 L 1 45.6844482421875 C 1 47.93198776245117 2.828510284423828 49.760498046875 5.0760498046875 49.760498046875 L 45.6844482421875 49.760498046875 C 47.93198776245117 49.760498046875 49.760498046875 47.93198776245117 49.760498046875 45.6844482421875 L 49.760498046875 5.0760498046875 C 49.760498046875 2.828510284423828 47.93198776245117 1 45.6844482421875 1 L 5.0760498046875 1 M 5.0760498046875 0 L 45.6844482421875 0 C 48.48788070678711 0 50.760498046875 2.272617340087891 50.760498046875 5.0760498046875 L 50.760498046875 45.6844482421875 C 50.760498046875 48.48788070678711 48.48788070678711 50.760498046875 45.6844482421875 50.760498046875 L 5.0760498046875 50.760498046875 C 2.272617340087891 50.760498046875 0 48.48788070678711 0 45.6844482421875 L 0 5.0760498046875 C 0 2.272617340087891 2.272617340087891 0 5.0760498046875 0 Z" stroke="none" fill="#00fcc8"/></g><path d="M1059.5-2628.271c14.01,0,26.428-4.739,34.052-12.164s11.151-20.144,11.091-33.048l-39.178-.01c-6.018.012-5.962,4.908-5.954,4.934Z" transform="translate(-0.247 3063.75)" fill="#03e2ae" stroke="#03e2ae" stroke-width="1"/><path d="M1059.522-2638.791c11.364,0,19.808-2.7,25.69-8.445s9.773-15.627,9.773-26.255h-30.33c-5.188.012-5.14,4.616-5.133,4.64Z" transform="translate(-0.257 3063.75)" fill="#00d09f" stroke="#00d09f" stroke-width="1"/></g></svg>