<svg viewBox="0 0 115 32" fill="none" xmlns="http://www.w3.org/2000/svg">
<path d="M47.014 24.442H53.242V26.9538H43.8828V5.41406H53.0011V7.92589H47.014V14.5668H51.9688V17.0786H47.014V24.442ZM64.8987 15.9431L69.5094 26.9538H66.0686L63.1782 18.7646L60.2879 26.9538H56.9503L61.4922 15.9431L57.26 5.41406H60.7008L63.1782 13.156L65.6901 5.41406H69.0621L64.8987 15.9431ZM74.3626 5.41406H81.4164C83.5497 5.41406 84.6164 6.42338 84.6164 8.44202V15.599C84.6164 17.6176 83.5497 18.627 81.4164 18.627H77.4594V26.9538H74.3626V5.41406ZM81.5196 15.1173V8.92374C81.5196 8.51084 81.4508 8.24704 81.3132 8.13234C81.1755 7.99471 80.9003 7.92589 80.4874 7.92589H77.4594V16.1495H80.4874C80.9003 16.1495 81.1755 16.0807 81.3132 15.9431C81.4508 15.8055 81.5196 15.5302 81.5196 15.1173ZM93.3882 24.442H98.7215V26.9538H90.2914V5.41406H93.3882V24.442ZM106.628 5.41406H110.447C112.581 5.41406 113.647 6.42338 113.647 8.44202V23.9259C113.647 25.9445 112.581 26.9538 110.447 26.9538H106.628C104.472 26.9538 103.394 25.9445 103.394 23.9259V8.44202C103.394 6.42338 104.472 5.41406 106.628 5.41406ZM110.55 23.4442V8.92374C110.55 8.51084 110.482 8.24704 110.344 8.13234C110.206 7.99471 109.931 7.92589 109.518 7.92589H107.523C107.11 7.92589 106.834 7.99471 106.697 8.13234C106.582 8.24704 106.525 8.51084 106.525 8.92374V23.4442C106.525 23.8571 106.582 24.1323 106.697 24.27C106.834 24.3847 107.11 24.442 107.523 24.442H109.518C109.931 24.442 110.206 24.3847 110.344 24.27C110.482 24.1323 110.55 23.8571 110.55 23.4442Z" fill="#0A2979"/>
<path d="M47.014 24.442H53.242V26.9538H43.8828V5.41406H53.0011V7.92589H47.014V14.5668H51.9688V17.0786H47.014V24.442ZM64.8987 15.9431L69.5094 26.9538H66.0686L63.1782 18.7646L60.2879 26.9538H56.9503L61.4922 15.9431L57.26 5.41406H60.7008L63.1782 13.156L65.6901 5.41406H69.0621L64.8987 15.9431ZM74.3626 5.41406H81.4164C83.5497 5.41406 84.6164 6.42338 84.6164 8.44202V15.599C84.6164 17.6176 83.5497 18.627 81.4164 18.627H77.4594V26.9538H74.3626V5.41406ZM81.5196 15.1173V8.92374C81.5196 8.51084 81.4508 8.24704 81.3132 8.13234C81.1755 7.99471 80.9003 7.92589 80.4874 7.92589H77.4594V16.1495H80.4874C80.9003 16.1495 81.1755 16.0807 81.3132 15.9431C81.4508 15.8055 81.5196 15.5302 81.5196 15.1173ZM93.3882 24.442H98.7215V26.9538H90.2914V5.41406H93.3882V24.442ZM106.628 5.41406H110.447C112.581 5.41406 113.647 6.42338 113.647 8.44202V23.9259C113.647 25.9445 112.581 26.9538 110.447 26.9538H106.628C104.472 26.9538 103.394 25.9445 103.394 23.9259V8.44202C103.394 6.42338 104.472 5.41406 106.628 5.41406ZM110.55 23.4442V8.92374C110.55 8.51084 110.482 8.24704 110.344 8.13234C110.206 7.99471 109.931 7.92589 109.518 7.92589H107.523C107.11 7.92589 106.834 7.99471 106.697 8.13234C106.582 8.24704 106.525 8.51084 106.525 8.92374V23.4442C106.525 23.8571 106.582 24.1323 106.697 24.27C106.834 24.3847 107.11 24.442 107.523 24.442H109.518C109.931 24.442 110.206 24.3847 110.344 24.27C110.482 24.1323 110.55 23.8571 110.55 23.4442Z" fill="black"/>
<mask id="mask0_18585_768" style="mask-type:alpha" maskUnits="userSpaceOnUse" x="0" y="0" width="32" height="32">
<path d="M15.9992 31.9984C24.8353 31.9984 31.9984 24.8353 31.9984 15.9992C31.9984 7.16308 24.8353 0 15.9992 0C7.16308 0 0 7.16308 0 15.9992C0 24.8353 7.16308 31.9984 15.9992 31.9984Z" fill="#115BB8"/>
</mask>
<g mask="url(#mask0_18585_768)">
<path d="M15.6489 32.4032C24.6777 32.4032 31.997 25.0839 31.997 16.0551C31.997 7.02632 24.6777 -0.292969 15.6489 -0.292969C6.62008 -0.292969 -0.699219 7.02632 -0.699219 16.0551C-0.699219 25.0839 6.62008 32.4032 15.6489 32.4032Z" fill="#0B3D91"/>
<path d="M25.0577 27.877C35.9583 27.877 44.795 19.0403 44.795 8.13969C44.795 -2.76095 35.9583 -11.5977 25.0577 -11.5977C14.157 -11.5977 5.32031 -2.76095 5.32031 8.13969C5.32031 19.0403 14.157 27.877 25.0577 27.877Z" fill="#0053BB"/>
<path d="M26.8148 20.739C34.3021 20.739 40.3718 14.6693 40.3718 7.18199C40.3718 -0.30533 34.3021 -6.375 26.8148 -6.375C19.3275 -6.375 13.2578 -0.30533 13.2578 7.18199C13.2578 14.6693 19.3275 20.739 26.8148 20.739Z" fill="#0069ED"/>
<path d="M26.6254 3.69357C26.62 3.69837 26.6148 3.70334 26.6098 3.70845L9.22345 21.4327C9.10128 21.5573 9.09166 21.7535 9.20105 21.8894C9.31045 22.0254 9.50424 22.0578 9.65201 21.9651L30.1778 9.0817C30.5874 8.8925 30.9531 8.62047 31.2516 8.28497C31.6935 7.78818 31.9883 7.1518 32.0588 6.44013C32.2364 4.6467 30.9255 3.04922 29.1315 2.87159C28.1802 2.77741 27.2835 3.10167 26.6254 3.69357Z" fill="#FC3D21" stroke="#FC3D21" stroke-width="0.691849" stroke-linejoin="round"/>
</g>
<path d="M26.6254 3.69357C26.62 3.69837 26.6148 3.70334 26.6098 3.70845L9.22345 21.4327C9.10128 21.5573 9.09166 21.7535 9.20105 21.8894C9.31045 22.0254 9.50424 22.0578 9.65201 21.9651L30.1778 9.0817C30.5874 8.8925 30.9531 8.62047 31.2516 8.28497C31.6935 7.78818 31.9883 7.1518 32.0588 6.44013C32.2364 4.6467 30.9255 3.04922 29.1315 2.87159C28.1802 2.77741 27.2835 3.10167 26.6254 3.69357Z" fill="#FC3D21" stroke="#FC3D21" stroke-width="0.691849" stroke-linejoin="round"/>
</svg>
