<svg width="23" height="32" viewBox="0 0 23 32" fill="none" xmlns="http://www.w3.org/2000/svg">
<path d="M15.714 16H18.8889C18.9654 16.002 19.0412 15.9845 19.1093 15.9491C19.1774 15.9137 19.2356 15.8615 19.2786 15.7974C19.3216 15.7333 19.348 15.6593 19.3554 15.5822C19.3628 15.5051 19.351 15.4273 19.3209 15.356L13.8592 0.306674C13.827 0.216837 13.7682 0.13921 13.6909 0.0843435C13.6136 0.0294768 13.5215 3.10476e-05 13.4271 7.67444e-06H10.2404C10.1801 -0.000343416 10.1203 0.011355 10.0644 0.0344326C10.0086 0.0575102 9.95781 0.0915132 9.91498 0.134493C9.87214 0.177473 9.83811 0.228586 9.81483 0.284901C9.79155 0.341217 9.77948 0.401628 9.7793 0.462674C9.77897 0.518241 9.7888 0.573391 9.80829 0.625341L15.2701 15.692C15.3027 15.7841 15.3632 15.8633 15.4429 15.9186C15.5225 15.9739 15.6174 16.0024 15.714 16V16Z" fill="#306BEA"/>
<path d="M15.1424 32H18.312C18.4337 32.0004 18.5505 31.9519 18.637 31.8651C18.7234 31.7784 18.7723 31.6605 18.773 31.5373C18.7734 31.4813 18.7635 31.4257 18.744 31.3733L7.48457 0.306668C7.4523 0.216617 7.39335 0.138839 7.31579 0.0839541C7.23822 0.029069 7.1458 -0.000249332 7.05116 1.59737e-06H3.88027C3.7596 0.00105404 3.6442 0.0502212 3.55912 0.136836C3.47403 0.223452 3.42612 0.340529 3.42578 0.462668C3.4261 0.518176 3.43591 0.57321 3.45476 0.625335L14.7169 31.692C14.7486 31.7809 14.8063 31.858 14.8823 31.913C14.9583 31.968 15.049 31.9983 15.1424 32V32Z" fill="#306BEA"/>
<path d="M8.89091 32H12.0658C12.1873 32.0054 12.306 31.9619 12.3959 31.8789C12.4857 31.796 12.5395 31.6803 12.5453 31.5573C12.5472 31.4946 12.5369 31.4321 12.515 31.3733L7.03344 16.3067C7.00156 16.2171 6.94326 16.1397 6.86644 16.0849C6.78962 16.03 6.69799 16.0004 6.60398 16H3.41333C3.34012 16.0025 3.26856 16.0227 3.20454 16.0587C3.14051 16.0947 3.08586 16.1456 3.04508 16.2072C3.0043 16.2688 2.97856 16.3393 2.96998 16.4129C2.9614 16.4865 2.97022 16.5612 2.99573 16.6307L8.45882 31.6973C8.49182 31.7863 8.55088 31.863 8.6281 31.9171C8.70532 31.9712 8.79701 32.0001 8.89091 32V32Z" fill="#306BEA"/>
<path d="M16.0979 0.629333L18.6575 7.67867C18.6899 7.76861 18.7489 7.84628 18.8264 7.90114C18.904 7.956 18.9963 7.98539 19.0909 7.98533H22.2631C22.3234 7.98568 22.3832 7.97399 22.4391 7.95091C22.4949 7.92783 22.5457 7.89383 22.5885 7.85085C22.6313 7.80787 22.6654 7.75675 22.6887 7.70044C22.7119 7.64412 22.724 7.58371 22.7242 7.52267C22.7239 7.46716 22.7141 7.41212 22.6952 7.36L20.1369 0.306667C20.1047 0.216829 20.046 0.139202 19.9686 0.0843358C19.8913 0.0294692 19.7992 2.33733e-05 19.7048 0L16.53 0C16.4088 -2.02466e-06 16.2926 0.0485173 16.2067 0.134958C16.1208 0.221399 16.0722 0.338736 16.0715 0.461333C16.0697 0.518516 16.0787 0.575526 16.0979 0.629333V0.629333Z" fill="#306BEA"/>
<path d="M3.02995 32H6.20479C6.3265 32.0004 6.44338 31.9519 6.52981 31.8651C6.61624 31.7784 6.66517 31.6605 6.66586 31.5374C6.66601 31.4815 6.65665 31.426 6.6382 31.3734L4.06144 24.3067C4.02941 24.2167 3.97071 24.139 3.89337 24.0841C3.81602 24.0292 3.72381 23.9998 3.62935 24H0.462414C0.40221 23.9995 0.342493 24.011 0.286672 24.0338C0.230852 24.0566 0.180022 24.0904 0.137084 24.1331C0.0941465 24.1758 0.0599423 24.2267 0.0364248 24.2828C0.0129073 24.3388 0.000536924 24.3991 2.01609e-05 24.46C-0.000519097 24.5175 0.00976417 24.5745 0.0303194 24.628L2.58995 31.6947C2.62298 31.7855 2.68306 31.8636 2.76189 31.9183C2.84071 31.973 2.93439 32.0016 3.02995 32V32Z" fill="#306BEA"/>
</svg>
