<svg id="Layer_1" data-name="Layer 1" xmlns="http://www.w3.org/2000/svg" viewBox="0 0 202 202"><defs><style>.cls-1{fill:#fff;}.cls-2{fill:#4285f4;}.cls-3{opacity:0.07;isolation:isolate;}</style></defs><path class="cls-2" d="M163.39,96.33l-26.3-45.74a11.54,11.54,0,0,0-9.86-5.88H74.62a11.55,11.55,0,0,0-9.86,5.88L38.45,96.21a11.51,11.51,0,0,0,0,11.44l26.3,46a11.78,11.78,0,0,0,9.86,6.09h52.61a11.73,11.73,0,0,0,9.87-6.06l26.3-45.74A11.73,11.73,0,0,0,163.39,96.33Z"/><path class="cls-3" d="M122.41,88.76,86.23,92.09l-7,7,6,6-6,10.42,44.2,44.2h3.74a11.73,11.73,0,0,0,9.87-6.06l18.33-31.88Z"/><g id="art"><path fill="#fff" d="M121.62,88.48H80.18a1.23,1.23,0,0,0-1.26,1.18v8.6a1.21,1.21,0,0,0,1.21,1.21h41.49a1.22,1.22,0,0,0,1.21-1.21V89.69a1.21,1.21,0,0,0-1.21-1.21m-6.41,8A2.48,2.48,0,1,1,117.69,94a2.48,2.48,0,0,1-2.48,2.48h0"/><path class="cls-1" d="M121.62,105H80.18a1.23,1.23,0,0,0-1.26,1.18v8.65A1.23,1.23,0,0,0,80.13,116h41.49a1.22,1.22,0,0,0,1.21-1.21v-8.62a1.21,1.21,0,0,0-1.21-1.21m-6.41,8a2.48,2.48,0,1,1,2.48-2.48,2.48,2.48,0,0,1-2.48,2.48h0"/></g></svg>
