<svg preserveAspectRatio="xMidYMid" viewBox="0 0 256 192" xmlns="http://www.w3.org/2000/svg"><path d="m94.92 42.186-16.957 2.754-15.47 6.783-13.139 8.265-12.504 15.258-7.063 7.482-6.832 2.518-1.806-4.416 3.159-4.559.71-6.43 2.115.086 2.312 2.109-.624-6.55-2.563-1.72.08-2.496-6.071 3.434-5.497 6.486-1.147 5.796 2.352 4.642 2.192 7.885 4.459 2.111 4.69-.23 4.448-2.584-2.967 15.047 2.967 16.742-3.266 7.73-10.698 11.527 1.902 6.886 5.068 7.979 9.555 6.723 5.068.695 5.635.19-3.516 14.433 12.928 5.297 16.106 2.12 5.51-3.602.424-9.75 6.147-10.173.424-8.053 14.835 1.06 13.775-1.271-13.775 8.264 2.332 9.962 8.688 13.563 8.477 3.602 6.782-2.755 2.754-5.51 14.2-10.808 2.755 2.33 22.253.849 4.45-3.602.423-6.36-1.482-2.753-1.061-17.167-7.417-14.835 1.272-6.57 4.45 2.332 12.504 11.655 6.146.425 6.781-2.756 6.783-5.086 3.39-11.02 19.922 1.271 12.08-4.661 9.748-9.114 6.994-13.14 1.694-15.47-1.483-18.015-3.814-16.105-3.815-5.086-5.297-1.696-9.326 10.172-8.477 2.967-7.418-12.292-7.417-6.781-4.027-2.543-16.107-13.352-12.927-6.994-12.928-1.059-15.046 2.543-13.14 4.873-9.113 7.418-7.205 8.69-7.417 2.12-12.929 12.291" fill="#ff0"/><path d="m45.747 80.435c-14.522 16.939-11.296 37.481-7.271 57.61a92899.4 92899.4 0 0 0 -6.444-16.28l-2.375-14.927c.226-5.088.451-10.176.679-15.263l6.104-14.585 9.158-13.568 14.246-11.87 15.602-6.445 18.317-2.374-16.96 19.333c-13.618 4.416-21.647 7.392-31.057 18.369" fill="#ffc"/><path d="m114.114 28.825c-10.095 9.85-15.61 17.28-22.036 28.813-4.595 8.25-9.75 16.197-14.583 24.332-2.443 4.118-2.674 7.57-3.405 12.319l-7.123-8.48c1.132-3.392 2.262-6.784 3.392-10.175l11.533-20.69 24.422-24.083c2.6-.679 5.2-1.356 7.8-2.036m49.861-24.42c-8.087 3.031-21.515 4.03-22.447 13.31-.663 6.592.497 9.904 4.47 16.878-9.813-10.155-12.24-8.584-31.205-5.428l8.14-11.532 14.246-8.82 18.317-4.07 8.48-.338" fill="#ffc"/><g fill="#cc0"><path d="m186.288 129.945c2.692 1.662 2.634 2.866 2.184 4.005 2.123-.85 4.247-1.7 6.37-2.547l4.128-5.543 3.063-7.896-3.915-2.943-17.11 2.184c-.422 1.152-.848 2.305-1.273 3.459.121 1.637.244 3.276.364 4.913.546.972 1.093 1.942 1.64 2.913.849.424 1.697.85 2.547 1.274.669.06 1.335.122 2.002.181m-1.592-29.259c-8.577 2.475-8.51 3.157-11.042 11.666 3.343-5.364 5.818-8.071 11.042-11.666m57.024-63.671c-1.524.705-3.01 1.043-3.962 2.438-2.052 3.002-3.81 5.527-7.203 7.634-1.709 1.062-3.476 1.75-5.288 2.315-1.503.467-2.407.049-3.686.97.76.13 1.519.264 2.278.397h5.02l6.189-3.821 3.64-3.823zm-136.612 19.032c-3.373 9.233-6.322 17.147-11.432 25.505 6.548-7.056 10.519-13.054 14.27-21.031 1.458-3.1 1.733-6.736 5.792-5.384.182 3.096.836 6.188 1.018 9.282 2.193-15.718 8.377-22.293 22.752-28.394l-12.195 1.457-11.468 2.548-5.642 8.19zm27.849-.364c3.1 14.59 7.564 28.594 9.503 43.416 1.259 9.631 1.396 14.258-3.449 22.568-5.296-.343-8.584.254-13.707 1.933-20.393 6.685-32.09 16.515-45.83-3.291l13.16 6.202c3.127-.615 6.254-1.228 9.38-1.845 5.522-3.214 11.043-6.43 16.565-9.645l12.922-2.55 4.187-17.471-3.095-23.117c-.12-3.64-.242-7.28-.364-10.92.244-1.76.487-3.52.728-5.279m35.129 90.279c-1.713 11.854 3.945 18.226 1.602 21.5-.663.926-1.562 2.544-2.565 2.988-3.585 1.583-8.514-.297-8.865.63h-11.831l-4.732-2.002 7.28-8.555c2.366-5.156 4.733-10.314 7.098-15.472l4.55-15.652h2.367z"/><path d="m148.201 111.502c.961 5.382 2.63 6.661 5.162 11.871-1.685 8.5-4.392 18.607-7.65 26.107-1.374 3.163-2.482 4.907-4.906 7.351-4.09 4.13-8.223 7.726-12.86 11.306-3.34 2.573-5.67 1.283-9.789.7-1.752 3.175-2.235 4.94-5.46 6.552-4.958 2.478-9.395-2.863-13.287-6.007 2.81 4.39 5.62 8.777 8.428 13.166 1.942 1.82 3.884 3.639 5.825 5.46l4.915.729 6.551-4.006c1.154-2.183 2.306-4.368 3.459-6.551 2.427-1.82 4.855-3.64 7.28-5.462 2.974-2.547 5.947-5.096 8.92-7.644l5.642-8.009 5.095-9.464c2.186-6.552 4.37-13.105 6.555-19.657.181-2.488.362-4.975.545-7.464-2.73-1.212-5.46-2.427-8.191-3.64-2.002-1.88-4.232-3.457-6.234-5.338m-65.298 37.919c9.186 0 18.888-.51 27.303-4.369 2.38-3.57 4.731-6.488 7.644-9.645-2.651 5.008-3.483 7.838-4.186 13.468l-2.73 4.005c-6.917.181-13.833.363-20.75.546-2.246-.244-4.49-.486-6.735-.728-.243-.245-.485-.487-.728-.729.062-.85.122-1.699.182-2.548m-1.273-6.37-.714-6.464c-1.569 9.448-1.192 15.78-5.54 24.243-3.248 3.762-7.247 7.186-11.827 9.019.387 2.32.503 3.77.278 5.471-.807 6.12-13.047 3.416-18.083 3.172l24.236 6.24 5.46-2.184c.608-3.518 1.215-7.039 1.821-10.557l5.096-9.464.91-5.825-1.638-13.65m-13.652-53.332c-.253 4.595-.55 6.51 1.476 10.566 2.575 5.156 5.737 10.002 8.535 15.098l.91-10.193c-3.639-5.158-7.28-10.314-10.92-15.47m-37.364 34.7c-.789 1.676-1.575 3.354-2.364 5.031 2.168 7.305 4.097 11.932 8.226 18.313-.72 2.585-1.258 3.716-2.912 5.823-3.634-.558-6.861-.72-10.544-.708 4.065 3.153 8.13 6.31 12.195 9.465 2.002-.366 4.005-.73 6.007-1.093l6.007-6.006-8.555-13.288c-2.688-5.845-5.374-11.692-8.06-17.537m211.132-89.822c2.476 11.137 5.67 21.416 5.373 32.824-.364 13.995-3.091 31.674-16.059 40.113-14.522 9.452-31.57 4.981-47.503.931l19.476 8.009c6.067.304 12.135.608 18.202.91 4.126-1.213 8.252-2.426 12.376-3.64 3.216-2.67 6.432-5.338 9.648-8.009l7.28-15.288 2.73-17.656c-.727-5.765-1.457-11.528-2.184-17.292l-4.004-17.109c-1.778-1.265-3.556-2.53-5.335-3.793m-216.718 33.196c-6.592 4.291-9.182 6.175-8.459 14.128l1.97 7.145 2.793 1.89 3.45 1.15 6.242-1.479c1.069-3.313 2.136-6.625 3.203-9.938l-8.87 4.354h-2.053a7094.7 7094.7 0 0 0 -2.3-3.532l2.793-4.107 1.478-7.803c.63.191 1.26.384 1.889.574.767.604 1.533 1.206 2.3 1.807l-.329-4.106-1.56-2.628c-.52-.44-1.04-.876-1.56-1.315zm147.91-62.665c5.852 5.434 13.033 10.156 17.713 16.796 1.811 2.57 3.823 3.885-.03 7.516 4.071-1.163 5.585-1.037 8.845-.642 5.93.718 11.488 9.148 11.842 15.188-.07.565-1.647 1.848-6.232 3.114-.09.176-2.588-.342-2.526-.172.477 1.303 1.113 1.503 2.086 2.112.21 1.45.346 3.687 1.334 5.273 2.885-.052 5.705.263 8.53.822.95 1.577.808 3.154.728 4.732l3.276-.545c-.302-2.488-.606-4.975-.909-7.463.97-1.638 1.94-3.277 2.912-4.913l-4.187-9.466c-2.669-2.548-5.338-5.097-8.009-7.645l-.77-.038a71383.19 71383.19 0 0 1 -9.007-5.528l-14.69-12.018-10.906-7.123m9.857 44.847c-.309.54-.775 1.402-1.372 2 2.437 2.305 3.64 3.849 4.509 7.11-2.756 1.367-5.51 2.736-8.265 4.102l-6.994 6.705c-3.069-1.652-3.833-2.92-5.318-6.07-1.73.459-3.367.9-4.795.375.906.007 1.462-.219 2.368-.779l4.45-4.623c2.62-1.984 5.24-3.97 7.86-5.953l5.145-1.677c.655-.269 1.757-.92 2.412-1.19"/><path d="m190.4 58.199c-8.766 4.72-17.16 9.466-21.642 18.429 0-11.377 11.423-16.385 21.641-18.43m-23.381-22.38c-6.509 4.438-11.111 13.394-10.533 22.122-2.12-7.558-1.369-14.699 5.14-19.919 1.1-.533 2.197-1.068 3.296-1.601.699-.2 1.397-.4 2.097-.602"/></g><path d="m254.605 56.424c-1.18-7.443-3.137-14.668-5.853-19.863-.33-.635-.832-1.279-1.454-1.893-1.349-1.33-3.346-2.59-5.409-3.299-2.186-.752-4.491-.905-6.321.051-.475.25-.917.57-1.31.97-1.185 1.2-2.185 2.66-3.186 4.121-1.113 1.628-2.233 3.264-3.573 4.407-1.553 1.328-3.496 2.134-5.329 2.87a36.122 36.122 0 0 0 -2.773-5.391c-1.253-1.998-2.68-3.869-4.25-5.74a23.555 23.555 0 0 0 -3.881-3.703c-1.354-1.033-2.74-1.903-4.354-2.913-4.327-2.71-8.012-5.942-11.77-9.24-1.708-1.498-3.433-3.01-5.12-4.401-8.95-7.38-17.298-10.959-26.226-11.52-8.867-.558-18.23 1.878-29.285 6.532-5.336 2.245-9.298 4.899-12.75 8.09-3.297 3.05-6.096 6.562-9.173 10.663-1.79.127-3.376.392-4.995 1.04-1.784.714-3.58 1.87-5.732 3.769a129.576 129.576 0 0 0 -4.4 4.067 151.876 151.876 0 0 0 -3.874 3.897c-10.064 1.617-18.264 3.402-25.608 6.246-7.51 2.91-14.13 6.912-20.929 12.94a55.038 55.038 0 0 0 -7.287 7.823c-2.068 2.709-3.838 5.557-5.391 8.56-1.36 1.505-2.723 3.024-4.198 4.353-1.438 1.295-2.971 2.386-4.689 3.047l.001.001c-.999.385-1.412.61-1.457.595-.05-.028-.078-.178-.148-.454 2.467-2.354 2.855-5.813 3.083-9.247.296.354.58.79.875 1.246.326.503.66 1.022 1.06 1.527l1.675 2.113.588-2.636c.494-2.209.864-5.15.288-7.7-.372-1.655-1.14-3.13-2.478-4.175.128-.334.249-.642.368-.946.42-1.075.853-2.178 1.22-3.22l.726-2.065-2.16.374c-2.874.5-9.05 3.894-13.4 8.407-1.615 1.677-3.004 3.53-3.915 5.474-.948 2.023-1.373 4.14-1.005 6.258.32 1.852 1.247 3.67 2.93 5.384.307 1.237.59 2.31.893 3.278.347 1.101.72 2.086 1.187 3.056 1.266 2.632 3.284 4.24 5.62 4.99 1.877.603 3.953.633 5.989.187a54.687 54.687 0 0 0 -.746 7.335c-.129 3.435-.003 7.23.375 11.634.083.967.208 2.03.369 3.186.14.986.306 1.954.485 2.915-.38 1.038-.763 2.078-1.145 3.116l-1.777 4.837-3.91 3.875c-1.217 1.203-2.434 2.409-3.65 3.614-.1.1-.511.494-.883.853-2.465 2.372-2.953 2.843-2.253 7.017a25.45 25.45 0 0 0 2.583 7.65c1.21 2.305 2.834 4.549 4.918 6.639 2.6 2.606 6.862 5.844 11.324 7.54 2.55.968 5.178 1.442 7.645 1.046-.126.38-.248.758-.387 1.14a43.089 43.089 0 0 1 -1.3 3.198c-3.027 6.635.08 10.1 4.916 12.305 2.415 1.1 5.286 1.848 7.953 2.544.546.14 1.092.284 1.78.47 3.16.854 8.621 2.423 13.609 2.738 5.444.344 10.354-.78 11.67-5.666.52-1.937.823-3.42.946-4.873.113-1.348.07-2.71-.088-4.396 1.552-3.44 2.21-4.407 3.345-6.066.222-.328.491-.72.572-.844 1.217-1.803 1.787-3.083 1.994-4.524.2-1.391.03-2.777-.221-4.895-.024-.201-.06-.495-.113-.884a78.13 78.13 0 0 0 9.452.648c1.586.01 3.171-.037 4.756-.12-.405.207-.802.413-1.236.636l-.59.303c-4.204 2.162-4.379 6.257-3.063 10.47 1.186 3.799 3.628 7.678 5.16 10.037 3.22 4.963 6.293 9.164 10.019 11.447 3.905 2.393 8.367 2.675 14.126-.442 2.93-1.586 3.854-3.203 5.098-5.383.381-.665.801-1.39 1.269-2.105 1.21-.802 4.223-3.287 7.18-5.732 1.007-.832 2.013-1.66 3.148-2.585.782.575 1.726.974 2.867 1.246 1.482.355 3.247.515 5.362.667 1.583.116 6.745.112 10.08.111 1.03 0 1.885 0 2.398.003 3.443.021 6.222-.16 8.322-1.35 2.238-1.269 3.565-3.516 3.855-7.546.126-1.79.15-2.894-.099-4.021-.232-1.056-.685-2.013-1.463-3.413a9145.09 9145.09 0 0 1 -.14-5.225c-.048-1.847-.1-3.696-.148-5.543-.059-2.178-.299-3.948-.741-5.689-.438-1.729-1.064-3.392-1.902-5.388a90.666 90.666 0 0 1 -1.478-3.806l-1.208.442.186-.068 1.022-.374v-.005c-.72-1.942-1.43-3.833-2.424-5.856.064-.39.129-.81.192-1.258l1.92 1.85 2.83 2.727c2.158 2.079 4.131 3.97 6.449 5.336 2.397 1.415 5.092 2.236 8.582 2.07 3.654-.172 7.564-1.711 10.783-4.086 3.114-2.299 5.613-5.399 6.656-8.83l.904-2.976.722-2.375c5.124.868 10.624 1.148 15.936.592 5.126-.539 10.078-1.844 14.349-4.122 6.278-3.35 10.985-8.284 14.368-14.143h.002c3.78-6.548 5.897-14.264 6.701-22.204.645-6.368.293-15.025-1.033-23.374zm-66.387 53.518c-2.953-.994-5.006-2.444-7.6-4.079.706 3.183 1.027 6.549.087 9.726-1.492 5.042-3.902 13.29 2.943 14.812 2.605.578 3.787.495 7.464-1.403-2.976.674-4.477.51-6.523.13-1.854-.341-2.837-1.518-3.355-2.907.648.467 1.704.721 3.51 1.156 5.074 1.224 9.909-1.22 10.855-4.738.55-2.056.457-3.136 1.626-5.938 1.05.325 2.135.62 3.249.89l-1.886 6.149c-1.63 5.32-7.985 9.61-13.595 9.511-5.186-.091-8.475-3.34-12.056-6.525-2.466-2.196-4.84-4.295-7.192-6.375-6.455-2.037-11.629-4.417-17.62-8.852 4.264 5.01 7.155 7.784 13.101 10.277-.864 8.82-3.93 15.252-6.543 23.693-1.184 3.816-10.521 19.111-13.109 20.602-1.845 1.063-13.403 10.797-15.576 12.082-1.62 2.15-3.041 5.122-5.476 6.408-7.418 3.923-12.185-3.588-16.177-9.931-1.817-2.89-6.865-11.214-2.465-13.546 4.16-2.203 6.49-3.777 10.735-6.565.624 1.137 1.693 2.235 2.39 3.37l-.462-3.726c-.28-2.25-.268-4.077-.09-6.341.174-2.192.346-4.384.518-6.577-.639 2.229-1.915 4.457-2.552 6.684-.255.892-.466 1.612-.588 2.28-9.524 1.946-18.979 2.067-28.505.368-.608-3.527-1.348-7.202-1.969-9.837-.188 2.95-.067 11.108-.082 15.676-.012 3.538-.16 4.75-1.986 7.76-1.708 2.818-2.431 3.458-4.824 8.22.2 3.005.203 4.99-.595 7.842-1.327 4.741-14.72 1.068-18.252.1-4.351-1.19-13.345-2.96-11.083-8.76 1.99-5.104 3.252-10.486 4.225-17.628-7.971-11.483-15.383-27.218-16.806-41.16-1.105-10.825-.442-17.488 1.9-24.11 3.712-10.492 8.906-19.574 17.238-26.887 11.24-9.863 21.746-13.823 38.198-16.328-3.956 4.43-7.87 9.112-12.136 14.133-4.319 5.083-6.884 10.217-9.627 15.778-3.788 7.679-3.706 10.601 1.315 17.343 4.327 5.81 6.663 8.425 8.553 14.11-1.56 3.216-2.128 5.935-2.652 10.326 5.298 5.793 9.236 9.761 14.38 10.983 5.047 1.2 9.26.968 13.776-1.34 10.027-5.126 19.305-11.746 30.616-12.02 5.233-12.864 4.704-23.614 2.192-36.061-1.716-8.501-2.405-16.55-2.938-25.216-2.121 8.925-2.52 16.773-.946 25.664 1.898 10.713 3.373 22.55-1.905 31.966-10.229.783-18.994 7.006-28.212 11.78-3.706 1.92-7.564 2.107-11.665.981-3.807-1.046-6.376-3.565-10.477-8.295-.065-4.749 1.007-6.94 3.188-11.242 3.504-6.907 7.371-13.336 11.615-20.131-5.196 6.272-10.12 11.513-14.21 17.82-1.564-4.454-3.8-6.716-7.503-11.732-3.617-4.899-3.995-7.043-1.29-12.713 2.719-5.697 5.025-10.704 9.654-15.702 7.997-8.637 15.324-18.249 24.07-26.755 4.749-4.618 6.677-4.459 12.976-5.413 5.694-.864 11.252-1.953 17.058-3.301-5.615.523-11.043.715-16.51.85l-.17.005c5.38-6.869 8.501-10.697 17.236-14.493 21.508-9.34 35.174-10.35 52.069 3.851 4.379 3.682 8.203 7.255 12.642 10.43-1.61.138-2.997.427-4.832 1.147 2.233-.426 4.812-.004 7.13.42.65.422 1.32.834 2.003 1.237 3.135 1.847 4.914 2.867 7.034 5.82 2.24 3.121 4.108 6.24 5.753 9.678-1.078-.386-1.983-.711-2.789-.95a6.003 6.003 0 0 0 -5.657.35l-.13.06c-1.734.845-4.42 1.807-6.217 2.099.917.316 2.945.435 3.901.056.128-.05.258-.09.392-.121a5.999 5.999 0 0 0 -.8 2.468 6 6 0 0 0 .641 3.335l.005.011c.162.382.388.733.636.987-.821.303-1.66.649-2.525 1.024 4.009-.61 7.623-.715 11.534-.2.258 1.233.518 2.54.76 3.869l-1.454.114a5.165 5.165 0 0 0 -.117.01c-1.851-1.479-3.913-1.23-6.73-.587-8.568 1.953-6.555 6.76-10.495 14.004 4.092-5.002 3.788-10.236 10.457-11.816 1.554-.367 2.612-.828 3.664-.67-1.893.952-3.53 2.531-4.18 4.364-1.83 5.169-.694 9.524-2.705 14.352 2.49-4.316 2.641-8.528 4.869-13.07.8-1.63 3.768-4.24 5.59-4.28l1.5-.033c.44 2.872.707 5.725.537 8.091-.311 4.318-1.433 10.727-2.104 13.18 2.256-2.901 3.284-9.044 4.275-13.37 1.032-4.502.771-9.905-.132-14.743-1.24-6.637 5.596-5.557 9.564-8.685 2.917-2.3 4.926-5.971 7.6-8.573 2.653-2.58 6.83 1.211 7.873 3.732 4.524 10.947 6.585 28.168 5.391 39.203-1.342 12.382-7.322 25.899-18.243 31.995-13.922 7.77-30.337 3.023-44.17-1.637zm-19.782 54.994c-.454 5.109-2.157 5.446-6.643 5.368-2.038-.036-10.154-.073-12.214-.25-2.91-.251-4.544-.511-5.433-1.175 4.572-3.356 12.34-17.212 13.855-21.983 1.602-5.04 3.355-9.438 4.659-14.096.6 1.947 1.073 3.876 1.946 5.944 1.457 3.456 2.17 5.591 2.274 9.298l.33 11.733c1.253 2.192 1.448 2.66 1.226 5.16zm-137.593-38.702c2.903 10.043 7.849 19.912 13.332 28.209v.145c-.345 1.427-.742 2.815-1.575 3.93-3.92 5.244-13.888-2.453-16.774-5.397-3.154-3.222-5.265-7.035-5.768-10.613-.366-2.608-.01-2.672 1.81-4.518l7.362-7.453zm-5.545-63.16c-.744 1.597-1.272 2.808-1.631 4.054-1.563 5.398.707 10.216-4.194 14.129 2.303 4.646 2.197 6.5 7.554 4.353 2.066-.83 3.77-1.99 5.292-3.364a99.36 99.36 0 0 0 -2.031 5.806c-.106.33-.207.663-.304.993-3.831 1.626-8.87 2.659-10.798-1.367-.936-1.955-1.465-3.873-2.148-6.343-6.309-6.536 3.122-15.166 8.26-18.261zm3.101 6.924c-.779-.78-1.402-1.307-2.409-1.193.085-.66.198-1.297.357-1.895.08-.308.166-.61.258-.913 1.306.761 1.65 2.14 1.794 4zm189.178-24.414c.238.502.472 1.013.702 1.53-.19.14-.371.287-.54.442a6.096 6.096 0 0 0 -1.321-1.938c.376-.014.762-.026 1.16-.034zm-182.144 29.669-.001-.001v.001zm48.499 79.108h.002zm56.863 16.976h-.001zm23.11-43.927h.002l-.001.001zm-137.955-44.3h-.001l-.043-.11.043.111zm221.854 18.238.03.018zm-244.116-19.81c1.004-11.367 3.214-16.275 11.29-24.83-10.13 7.138-12.658 10.382-11.29 24.829"/><path d="m1.075 72.253c1.115-5.116 2.155-7.047 5.31-11.246-5.119 3.575-5.785 5.043-5.311 11.246m118.851-71.319c-6.069 1.463-7.226 2.585-9.046 8.534 2.904-4.356 4.576-5.773 9.046-8.534"/><path d="m129.495.068c-12.037 2.95-15.574 5.048-19.572 18.999 5.082-10.218 8.93-13.98 19.572-19m25.924 50.857c1.283-5.684 3.563-11.161 12.39-15.399-11.7 2.93-13.894 7.845-12.39 15.4m74.448.392c6.929-2.47 10.269-8.041 11.928-14.595-2.712 5.493-6.897 10.087-12.582 12.901-3.051 1.51-5 .983-8.407.66 3.465.995 5.66 2.246 9.061 1.034m-47.202 5.57a7.873 7.873 0 0 0 -4.413-4.009c1.7-.907 3.369-1.86 4.671-3.045-3.815 1.766-8.256 1.335-11.53 3.546-2.883 1.948-6.863 8.12-9.793 10.737 2.122-.824 4.167-2.249 6.05-3.75a7.847 7.847 0 0 0 4.223 6.903 17.701 17.701 0 0 0 -2.558 4.67c5.579-6.612 13.668-11.606 21.274-13.741-2.126-.03-4.643.367-7.207 1.21a7.832 7.832 0 0 0 -.717-2.521m-8.027 49.962c-.271 1.712-.643 3.84-.914 5.553.725-1.938 1.597-4.19 2.44-6.038.894-1.956 1.397-2.14 3.294-3.172 1.345-.732 3.787-1.738 5.132-2.47-1.384.233-3.864.742-5.248.975-3.696.624-4.131 1.512-4.704 5.152m-63.138-66.103c-4.29 4.24-8.457 18.79-9.788 24.612 2.097-4.836 7.345-18.364 11.371-21.805 1.112-.951 1.889-1.535 2.724-1.96-2.882 4.833-2.67 6.035-1.659 12.51.859-6.583 3.135-9.126 6.87-14.037 4.094-1.027 7.926-2.258 12.126-3.896a777.87 777.87 0 0 1 -14.205 1.474c-3.978.377-4.619.313-7.44 3.102"/><path d="m169.94 65.514a3.293 3.293 0 0 1 1.556-4.386 3.305 3.305 0 0 1 4.578 2.027c-1.566 1.163-3.001 2.531-4.205 4.117-.81-.326-1.528-.918-1.93-1.758m36.634-14.172c.132-1.355 1.287-2.354 2.642-2.223a2.478 2.478 0 0 1 2.224 2.697 2.48 2.48 0 0 1 -.223.807c-1.24.213-2.48.575-3.758 1.045-.534-.547-.96-1.545-.885-2.326" fill="#ffc"/></svg>
