<svg id="Layer_1" data-name="Layer 1" xmlns="http://www.w3.org/2000/svg" viewBox="0 0 170.08 170.08"><defs><style>.cls-1{fill:#1c1733;}</style></defs><path class="cls-1" d="M141.87,68.52c0-1.58-1.37-3.09-3.84-4.48,2.47-1.39,3.84-2.9,3.84-4.48V26.73c0-6.84-25.39-12.39-56.71-12.39S28.45,19.89,28.45,26.73V59.56c0,1.58,1.36,3.09,3.83,4.48-2.47,1.39-3.83,2.9-3.83,4.48v32.82c0,1.58,1.36,3.09,3.83,4.48-2.47,1.39-3.83,2.91-3.83,4.49v32.82c0,6.85,25.39,12.4,56.71,12.4s56.71-5.55,56.71-12.4V132.72h14v-39h-14Zm-21.59,37.65a5.24,5.24,0,0,1,.44,2.18,4.64,4.64,0,0,1-.88,2.8,5.58,5.58,0,0,1-.39.46,5,5,0,0,1-.89.74,4.54,4.54,0,0,1,2.79,4.45,5.25,5.25,0,0,1-1,3.23,6.27,6.27,0,0,1-5.21,2.22h-7.74V103.1h7.19c2.46,0,4.38.89,5.39,2.44A4.82,4.82,0,0,1,120.28,106.17Zm10.59,32.72c-6,2.4-22.09,5.64-45.71,5.64s-39.69-3.24-45.71-5.64V117.64a115.69,115.69,0,0,0,18.92,3.59v11.49h72.5ZM103.4,107.57a8.88,8.88,0,0,1,1,2.11,9.7,9.7,0,0,1,.46,3c0,.1,0,.2,0,.3-.16,5.42-4.54,9.28-10,9.28H87.64V103.1h7.24a10.66,10.66,0,0,1,3.74.67A9.5,9.5,0,0,1,103.4,107.57Zm-23-4.47h3.83v13.59c0,3.64-2.63,5.83-6.13,5.83s-5.46-1.61-6.37-4.57l3.61-1.28A2.73,2.73,0,0,0,78.09,119a2.16,2.16,0,0,0,2.3-2.27V103.1Zm50.48-9.36H58.37v7.44q-3.42-.44-6.33-.93a67.81,67.81,0,0,1-12.59-3.14V75.85c10.32,3.07,26.94,5.06,45.71,5.06s35.38-2,45.71-5.06ZM39.45,34.07c10.32,3.06,26.94,5.06,45.71,5.06s35.38-2,45.71-5.06V55.32a68.19,68.19,0,0,1-12.6,3.14A200.43,200.43,0,0,1,85.16,61,200.56,200.56,0,0,1,52,58.46a67.81,67.81,0,0,1-12.59-3.14Zm102.71,75.08-.5.15-3.3,1a5.79,5.79,0,0,0-3-3.23,6.27,6.27,0,0,0-2.61-.57,5.77,5.77,0,0,0-4,1.57,5.92,5.92,0,0,0-1.12,1.45,6.51,6.51,0,0,0-.78,3.13,5.88,5.88,0,0,0,0,.6,6,6,0,0,0,2.84,4.68,5.28,5.28,0,0,0,1.1.52,6.1,6.1,0,0,0,5.5-.7A5.89,5.89,0,0,0,138.5,115l3.37,1,.43.13c-.13.34-.28.65-.43,1a9.66,9.66,0,0,1-5.5,4.77,10.57,10.57,0,0,1-5.5.38,9.62,9.62,0,0,1-7.93-9.65c0-.12,0-.24,0-.37a12.63,12.63,0,0,1,.2-1.76,9.92,9.92,0,0,1,1.46-3.5,9.6,9.6,0,0,1,5.24-3.79h0A7.84,7.84,0,0,1,131,103a10,10,0,0,1,1.83-.17,10.16,10.16,0,0,1,6.46,2.25A9.53,9.53,0,0,1,142.16,109.15Z"/><path class="cls-1" d="M115.09,114.45h-3.91v4.24h3.91a2.17,2.17,0,0,0,2.43-2.16C117.52,115.19,116.46,114.45,115.09,114.45Z"/><path class="cls-1" d="M114.91,110.87a2,2,0,0,0,2-2.11,2.07,2.07,0,0,0-2.35-2.1h-3.36v4.24h3.36C114.67,110.9,114.79,110.88,114.91,110.87Z"/><path class="cls-1" d="M91.47,106.66v12h3.41a5.88,5.88,0,0,0,6-5.44,5.49,5.49,0,0,0,0-.58,6,6,0,0,0-1-3.31,5.45,5.45,0,0,0-1.36-1.47,6.08,6.08,0,0,0-3.71-1.23Z"/></svg>