<svg fill="none" xmlns="http://www.w3.org/2000/svg" viewBox="0.4 0.37 248.37 51.27"><path d="M42.4594 0.376831H0.431641V42.401L9.45922 51.4286H51.5046V9.40441L42.4594 0.376831ZM43.8119 33.0846C43.811 35.9149 42.6863 38.6289 40.685 40.6302C38.6837 42.6314 35.9697 43.7562 33.1394 43.7571H21.9457V33.0846H33.1394V20.5242H43.8119V33.0846Z" fill="#AA00FF"></path><path d="M93.624 43.0526C93.6231 43.2659 93.5377 43.4702 93.3865 43.6207C93.2353 43.7712 93.0307 43.8557 92.8174 43.8557H81.1939C80.9809 43.8557 80.7766 43.7711 80.626 43.6205C80.4754 43.4699 80.3908 43.2656 80.3908 43.0526V38.3645H72.6383V44.5461L79.6828 51.6153H94.3003L101.373 44.5461V9.61221H93.624V43.0526Z" fill="white"></path><path d="M112.035 17.3718H119.918V43.8557H112.035V51.6153H135.623V43.8557H127.677V17.3718H135.623V9.61221H112.035V17.3718Z" fill="white"></path><path d="M143.813 17.3718H152.382V51.6153H160.142V17.3718H168.779V9.61221H143.813V17.3718Z" fill="white"></path><path d="M183.216 9.61221L176.147 16.6814V23.9479L197.147 36.2265V43.0526C197.146 43.2659 197.061 43.4702 196.909 43.6207C196.758 43.7712 196.554 43.8557 196.34 43.8557H184.717C184.504 43.8557 184.3 43.7711 184.149 43.6205C183.998 43.4699 183.914 43.2656 183.914 43.0526V38.3645H176.165V44.5461L183.234 51.6153H197.855L204.924 44.5461V33.4052L183.907 21.1265V18.1748C183.908 17.9621 183.993 17.7584 184.143 17.608C184.293 17.4576 184.497 17.3727 184.71 17.3718H196.333C196.547 17.3718 196.751 17.4563 196.902 17.6068C197.054 17.7573 197.139 17.9615 197.14 18.1748V22.863H204.889V16.6814L197.82 9.61221H183.216Z" fill="white"></path><path d="M241.003 9.61221V43.0526C241.003 43.2656 240.918 43.4699 240.768 43.6205C240.617 43.7711 240.413 43.8557 240.2 43.8557H223.712C223.605 43.8607 223.498 43.8434 223.398 43.8048C223.298 43.7663 223.208 43.7074 223.132 43.6318C223.056 43.5563 222.997 43.4658 222.958 43.3661C222.919 43.2663 222.901 43.1596 222.905 43.0526V9.61221H215.156V44.5461L222.226 51.6153H241.69L248.752 44.5461V9.61221H241.003Z" fill="white"></path></svg>
