<?xml version="1.0" encoding="utf-8"?>
<svg width="68" height="132" viewBox="0 0 68 132" fill="none" xmlns="http://www.w3.org/2000/svg">
    <path d="M67.4138 128.236V100.118C67.4138 99.8246 67.2846 99.5456 67.0605 99.3556L0 42.5V71.8103L65.7576 128.991C66.4048 129.554 67.4138 129.094 67.4138 128.236Z" fill="#6DCACD"/>
    <path d="M23.1322 21.6865L1.68394 1.57869C1.04528 0.979945 0 1.43279 0 2.30823V109.481C0 109.757 0.114407 110.021 0.316058 110.21L21.7643 130.318C22.403 130.917 23.4483 130.464 23.4483 129.588V22.416C23.4483 22.1396 23.3339 21.8755 23.1322 21.6865Z" fill="#4F83A5"/>
    <path d="M36.2484 56.6806C34.9938 57.653 33.1469 56.7779 33.1469 55.2109V30.2691C33.1469 29.6963 33.4144 29.1549 33.8731 28.7995L64.8986 4.80463C66.1532 3.83217 68 4.70729 68 6.27427V31.2161C68 31.7889 67.7326 32.3303 67.2739 32.6857L36.2484 56.6806Z" fill="#B8EBD9"/>
</svg>
