<svg xmlns="http://www.w3.org/2000/svg" viewBox="0 0 120 190"><defs><style>.cls-1{fill:#34a853;}.cls-2{fill:#fbbc04;}.cls-3{fill:#ea4335;}.cls-4{fill:#4285f4;}.cls-5{fill:#5f6368;}</style></defs><g id="Layer_2" data-name="Layer 2"><g id="specs"><path class="cls-1" d="M58.49,0A16.6,16.6,0,0,0,44.72,25.86l7.09-7.08a6.88,6.88,0,0,1-.35-2.19,7,7,0,1,1,7,7,6.87,6.87,0,0,1-2.18-.35l-7.08,7.08A16.59,16.59,0,1,0,58.49,0Z"/><path class="cls-2" d="M51.89,48.35a25.79,25.79,0,0,0-5.17-15.54L37.52,42A13.19,13.19,0,0,1,35,57.92l5,12.22A25.93,25.93,0,0,0,51.89,48.35Z"/><path class="cls-3" d="M26.18,61.54h-.24a13.2,13.2,0,1,1,7.25-24.23l9.11-9.11A25.94,25.94,0,1,0,25.94,74.29a26.53,26.53,0,0,0,5.24-.52Z"/><path class="cls-4" d="M58.84,72.11a58.87,58.87,0,0,0-17,2.49l7.29,17.81a40.19,40.19,0,0,1,9.7-1.18,39.71,39.71,0,1,1-28.09,11.63,40.12,40.12,0,0,1,9.47-7L33,78.1a58.87,58.87,0,1,0,25.89-6Z"/></g></g></svg>