<svg viewBox="-7.928823 -7.928823 403.989606 280.151746" xmlns="http://www.w3.org/2000/svg"><path d="m158.27673 174.58216c-6.09836 33.17749-14.14234 57.28763-24.12688 72.32809-7.7795 11.58931-16.30187 17.38385-25.58211 17.38385-2.4739 0-5.52458-.74716-9.14466-2.23175v-7.9978c1.76846.25963 3.84367.39813 6.23026.39813 4.32944 0 7.81854-1.19972 10.47308-3.59429 3.17888-2.91777 4.7697-6.1973 4.7697-9.83165 0-2.48235-1.24087-7.57605-3.71131-15.28134l-16.43538-51.17324h14.71197l11.79595 38.27281c2.64991 8.68961 3.7552 14.75582 3.31309 18.21346 6.45154-17.278 10.95861-36.1073 13.52283-56.48627h14.183m-64.96079 66.19054h-14.97552c-.52666-25.34459-1.98652-49.1768-4.37264-71.50125h-.1319l-22.80123 71.50125h-11.40235l-22.6631-71.50125h-.13351c-1.68161 21.43972-2.73954 45.27193-3.18073 71.50125h-13.6545c.88238-31.89902 3.09064-61.80161 6.62479-89.71471h18.56141l21.60563 65.91956h.13258l21.73821-65.91956h17.76011c3.88895 32.69112 6.18545 62.60297 6.89089 89.71471" fill="#00758f"/><path d="m357.6209 240.7727h-42.54601v-89.71471h14.31675v78.67871h28.22926v11.03577m-106.97136-17.94688c-3.62423-5.84804-5.43981-15.23246-5.43981-28.17249 0-22.59058 6.85116-33.89316 20.54654-33.89316 7.16068 0 12.4157 2.7033 15.7766 8.10434 3.61961 5.85082 5.43519 15.15395 5.43519 27.9131 0 22.77146-6.85116 34.16182-20.54654 34.16182-7.15837 0-12.4157-2.70052-15.77198-8.11268m53.28472 20.11008-16.44647-8.13167c1.46449-1.20412 2.85503-2.5032 4.11392-4.00701 6.98282-8.23103 10.4777-20.41371 10.4777-36.54272 0-29.68025-11.6211-44.52848-34.86098-44.52848-11.39934 0-20.28321 3.76359-26.64466 11.30165-6.98513 8.24099-10.47308 20.37782-10.47308 36.41534 0 15.76979 3.09064 27.33872 9.27655 34.68756 5.63615 6.64245 14.15967 9.9683 25.57056 9.9683 4.25715 0 8.16318-.52551 11.7135-1.57677l21.41737 12.49674 5.83942-10.08387m-80.04026-27.03045c0 7.60847-2.78805 13.85464-8.34566 18.74175-5.56224 4.86557-13.03476 7.30484-22.39215 7.30484-8.7522 0-17.23415-2.80752-25.45045-8.37671l3.84367-7.70644c7.07059 3.54379 13.46901 5.31349 19.21372 5.31349 5.389 0 9.60687-1.20249 12.65824-3.5783 3.04445-2.39295 4.86927-5.73039 4.86927-9.96344 0-5.32693-3.70508-9.88029-10.50311-13.70016-6.27599-3.45324-18.81873-10.66289-18.81873-10.66289-6.79572-4.97049-10.20282-10.30367-10.20282-19.09101 0-7.26755 2.54089-13.14176 7.61573-17.61106 5.0864-4.47832 11.64882-6.71748 19.68495-6.71748 8.30639 0 15.85976 2.22272 22.6624 6.65217l-3.4556 7.69926c-5.82094-2.47447-11.56104-3.71657-17.22029-3.71657-4.59208 0-8.13084 1.10545-10.59781 3.32933-2.48083 2.20465-4.0146 5.04182-4.0146 8.49969 0 5.31326 3.78592 9.92198 10.77567 13.81573 6.35453 3.45509 19.20449 10.80417 19.20449 10.80417 6.98975 4.96145 10.47308 10.25109 10.47308 18.96363" fill="#f29111"/><path d="m367.83064 240.76344h2.37227v-9.12781h3.1045v-1.86442h-8.70138v1.86442h3.22461zm18.05185 0h2.23601v-10.99223h-3.36321l-2.73723 7.49267-2.97977-7.49267h-3.24079v10.99223h2.11585v-8.36582h.12013l3.12068 8.36582h1.61228l3.11605-8.36582z" fill="#f29111"/><path d="m238.64559.00159781c-3.78299-.0564-7.08132 1.37231999-8.78516 5.55858999-2.91971 7.0500802 4.32474 13.9842002 6.8125 17.5625002 1.83635 2.48976 4.21658 5.31295 5.50781 8.12696.75767 1.84358.97638 3.79829 1.73633 5.74609 1.72781 4.76876 3.34585 10.08247 5.6211 14.5293 1.18497 2.27666 2.48115 4.66318 3.99414 6.71289.87312 1.19969 2.38133 1.73434 2.70703 3.69141-1.50836 2.16551-1.62633 5.41875-2.49024 8.13085-3.88986 12.24962-2.37931 27.42437 3.13672 36.419922 1.7255 2.70955 5.83979 8.6724 11.35352 6.39062 4.86464-1.94775 3.78308-8.12641 5.1875-13.542962.32336-1.31.10711-2.16913.7539-3.03515v.21875c1.51296 3.03079 3.03113 5.950702 4.43555 8.996082 3.35628 5.30609 9.18738 10.83552 14.05664 14.51758 2.58709 1.95869 4.64362 5.31376 7.88672 6.50977v-.32813h-.21289c-.65139-.9727-1.62205-1.40861-2.48828-2.16406-1.94496-1.95241-4.10118-4.33919-5.62109-6.50586-4.53895-6.06783-8.54397-12.79193-12.10352-19.728512-1.73471-3.36824-3.24562-7.04992-4.65234-10.4082-.6468-1.2947-.64713-3.25167-1.73047-3.90039-1.62615 2.38206-3.99826 4.44356-5.18555 7.36133-2.05581 4.66662-2.27091 10.410222-3.0332 16.374992-.42964.11324-.21256.001-.42969.21679-3.45561-.86664-4.64484-4.44351-5.94531-7.468742-3.2431-7.70644-3.78845-20.06341-.97266-28.95312.75303-2.27208 4.00591-9.42592 2.70313-11.59375-.65368-2.06822-2.81467-3.25-4.00196-4.88281-1.40213-2.05898-2.92349-4.65619-3.88672-6.9375-2.59632-6.06807-3.90122-12.79132-6.70312-18.85938-1.29816-2.82327-3.5745-5.74941-5.40625-8.3457-2.05812-2.9275-4.32536-4.98636-5.94922-8.45117-.53592-1.19509-1.29326-3.1483302-.43164-4.4453202.21249-.86852.65137-1.1944 1.51758-1.41211 1.39751-1.19274 5.40258.32185 6.80468.97266 4.00306 1.62124 7.35414 3.1459202 10.70118 5.4179702 1.51527 1.0862 3.13745 3.14677 5.08008 3.69336h2.27539c3.45791.75272 7.35225.20976 10.59765 1.18945 5.72624 1.84126 10.91427 4.55102 15.56641 7.47852 14.15736 8.99787 25.8324 21.79288 33.7207 37.07422 1.30047 2.48975 1.84592 4.76698 3.0332 7.36328 2.27063 5.32229 5.08556 10.74348 7.35157 15.9414 2.26834 5.09532 4.43392 10.29337 7.68164 14.52735 1.61693 2.272502 8.10568 3.464962 11.02539 4.658192 2.15747.97251 5.51369 1.84057 7.46094 3.03125 3.67504 2.27252 7.34374 4.87783 10.80859 7.375 1.72547 1.30093 7.13134 4.00839 7.45703 6.17969l.002.002c-8.65287-.217-15.35462.64846-20.97461 3.03516-1.62154.64965-4.21379.64908-4.43554 2.70898.87083.86574.97604 2.27503 1.73828 3.47266 1.29354 2.16783 3.55907 5.08968 5.61719 6.61133 2.2706 1.73519 4.54037 3.46322 6.92187 4.98047 4.21325 2.61274 8.97184 4.12378 13.07422 6.72656 2.38612 1.51539 4.75645 3.46543 7.14258 5.0957 1.18498.86667 1.93516 2.27806 3.45508 2.81445v-.33007c-.76229-.97275-.97354-2.38054-1.72657-3.47071-1.07872-1.07557-2.16275-2.05743-3.24609-3.13672-3.13684-4.2268-7.03391-7.90989-11.24023-10.94531-3.46254-2.39109-11.0338-5.64391-12.4336-9.64258 0 0-.11445-.11393-.2207-.2207 2.37919-.22003 5.19652-1.08856 7.46484-1.74609 3.67043-.97275 7.02108-.75382 10.80469-1.72656 1.73242-.43681 3.46218-.98075 5.19922-1.51368v-.98242c-1.95648-1.94685-3.35471-4.5535-5.4082-6.39453-5.50911-4.76783-11.57079-9.42564-17.83985-13.33398-3.35628-2.16853-7.68121-3.570682-11.25-5.417972-1.29121-.6515-3.45098-.97233-4.21094-2.0625-1.94726-2.38391-3.03343-5.52289-4.43554-8.3457-3.13222-5.95527-6.16337-12.56593-8.86133-18.86328-1.94491-4.22448-3.13448-8.44865-5.51367-12.35352-11.14064-18.43116-23.24517-29.5907-41.83985-40.54101-4.00074-2.279-8.75683-3.25255-13.83398-4.44531-2.7072-.11349-5.4068-.32511-8.10938-.43164-1.73247-.7620402-3.46594-2.8238202-4.97661-3.7988802-3.8532-2.43765-11.50361-6.65404999-17.80859-6.74804999zm26.67187 26.79492019c-1.83403 0-3.1285.22297-4.43359.54492v.2168h.21094c.87312 1.73009 2.38914 2.93257 3.46093 4.44727.87084 1.73477 1.62827 3.46217 2.49219 5.19922.10623-.10652.20899-.21875.20899-.21875 1.52451-1.07926 2.28125-2.81241 2.28125-5.41797-.6537-.76432-.75567-1.51732-1.30078-2.2793-.64678-1.08157-2.05372-1.62367-2.91993-2.49219z" fill="#00758f"/></svg>