<?xml version="1.0" encoding="utf-8"?>
<!-- Generator: Adobe Illustrator 26.3.1, SVG Export Plug-In . SVG Version: 6.00 Build 0)  -->
<svg version="1.0" xmlns="http://www.w3.org/2000/svg" xmlns:xlink="http://www.w3.org/1999/xlink" x="0px" y="0px"
	 viewBox="0 0 304.07 125.7" style="enable-background:new 0 0 304.07 125.7;" xml:space="preserve">
<style type="text/css">
	.st0{display:none;}
	.st1{display:inline;fill:#AA3F6B;}
	.st2{display:inline;}
	.st3{fill:#FFFFFF;}
	.st4{fill:#FF5789;}
	.st5{display:inline;fill:#FF5789;}
	.st6{fill:#AA3F6B;}
	.st7{display:inline;fill:#E8BF43;}
	.st8{fill:#00A1FF;}
	.st9{display:inline;fill:#A3ACBB;}
	.st10{display:inline;fill:#3F4755;}
	.st11{display:inline;fill:#00A1FF;}
	.st12{opacity:0.5;fill:#4EE8FF;}
	.st13{fill:#3F4755;}
	.st14{display:inline;fill:#6773A2;}
	.st15{display:inline;fill:#3FF2DE;}
	.st16{display:inline;fill:#4EE8FF;}
	.st17{display:inline;fill:#290E05;}
</style>
<g id="brandy_-_reversed_copy_2" class="st0">
	<rect x="-39.98" y="-34.22" class="st1" width="384.03" height="194.14"/>
	<g class="st2">
		<path class="st3" d="M84.77,63.44c0,9.2-3.25,17.05-9.75,23.55c-6.5,6.5-14.35,9.75-23.55,9.75c-9.2,0-17.05-3.25-23.55-9.75
			c-6.5-6.5-9.75-14.35-9.75-23.55c0-9.2,3.25-17.05,9.75-23.55c6.5-6.5,14.35-9.75,23.55-9.75c9.2,0,17.05,3.25,23.55,9.75
			C81.52,46.4,84.77,54.25,84.77,63.44z M51.47,39.66c-6.58,0-12.19,2.32-16.83,6.96c-4.64,4.64-6.96,10.25-6.96,16.83
			c0,6.58,2.32,12.19,6.96,16.83c4.64,4.64,10.25,6.96,16.83,6.96c6.58,0,12.19-2.32,16.83-6.96c4.64-4.64,6.96-10.25,6.96-16.83
			c0-6.58-2.32-12.19-6.96-16.83C63.66,41.98,58.05,39.66,51.47,39.66z"/>
		<path class="st3" d="M103.8,91.99c0,1.31-0.47,2.43-1.4,3.36c-0.93,0.93-2.05,1.4-3.36,1.4s-2.43-0.47-3.36-1.4
			c-0.93-0.93-1.4-2.05-1.4-3.36V34.9c0-1.31,0.47-2.43,1.4-3.36c0.93-0.93,2.05-1.4,3.36-1.4s2.43,0.47,3.36,1.4
			c0.93,0.93,1.4,2.05,1.4,3.36v1.25c4.72-4,10.27-6.01,16.65-6.01c7.21,0,13.38,2.56,18.49,7.67c1.07,1.07,2.04,2.2,2.91,3.39
			c0.87-1.19,1.84-2.32,2.91-3.39c5.11-5.11,11.28-7.67,18.49-7.67s13.38,2.56,18.49,7.67c5.12,5.11,7.67,11.28,7.67,18.49v35.68
			c0,1.31-0.47,2.43-1.4,3.36c-0.93,0.93-2.05,1.4-3.36,1.4s-2.43-0.47-3.36-1.4c-0.93-0.93-1.4-2.05-1.4-3.36V56.31
			c0-4.6-1.63-8.52-4.88-11.77c-3.25-3.25-7.18-4.88-11.77-4.88s-8.52,1.63-11.77,4.88c-3.25,3.25-4.88,7.18-4.88,11.77v35.68
			c0,1.31-0.47,2.43-1.4,3.36c-0.93,0.93-2.05,1.4-3.36,1.4c-1.31,0-2.43-0.47-3.36-1.4c-0.93-0.93-1.4-2.05-1.4-3.36V56.31
			c0-4.6-1.63-8.52-4.88-11.77c-3.25-3.25-7.18-4.88-11.77-4.88c-4.6,0-8.52,1.63-11.77,4.88c-3.25,3.25-4.88,7.18-4.88,11.77V91.99
			z"/>
		<path class="st3" d="M201.38,34.9c0-1.31,0.46-2.43,1.4-3.36c0.93-0.93,2.05-1.4,3.36-1.4s2.43,0.47,3.36,1.4
			c0.93,0.93,1.4,2.05,1.4,3.36v3.87c5.95-5.75,13.08-8.62,21.41-8.62c8.52,0,15.81,3.02,21.85,9.07
			c6.04,6.05,9.07,13.33,9.07,21.85v30.92c0,1.31-0.47,2.43-1.4,3.36c-0.93,0.93-2.05,1.4-3.36,1.4c-1.31,0-2.43-0.47-3.36-1.4
			c-0.93-0.93-1.4-2.05-1.4-3.36V61.06c0-5.91-2.09-10.95-6.27-15.13c-4.18-4.18-9.23-6.27-15.13-6.27s-10.95,2.09-15.13,6.27
			c-4.18,4.18-6.27,9.23-6.27,15.13v30.92c0,1.31-0.47,2.43-1.4,3.36c-0.93,0.93-2.05,1.4-3.36,1.4s-2.43-0.47-3.36-1.4
			c-0.93-0.93-1.4-2.05-1.4-3.36V34.9z"/>
		<path class="st3" d="M285.9,15.87c0,1.63-0.58,3.02-1.75,4.19c-1.17,1.17-2.57,1.75-4.19,1.75c-1.63,0-3.02-0.58-4.19-1.75
			c-1.17-1.17-1.75-2.57-1.75-4.19c0-1.62,0.58-3.02,1.75-4.19c1.17-1.17,2.57-1.75,4.19-1.75c1.62,0,3.02,0.58,4.19,1.75
			C285.32,12.85,285.9,14.24,285.9,15.87z M275.2,34.9c0-1.31,0.47-2.43,1.4-3.36c0.93-0.93,2.05-1.4,3.36-1.4
			c1.31,0,2.43,0.47,3.36,1.4c0.93,0.93,1.4,2.05,1.4,3.36v57.09c0,1.31-0.47,2.43-1.4,3.36c-0.93,0.93-2.05,1.4-3.36,1.4
			c-1.31,0-2.43-0.47-3.36-1.4c-0.93-0.93-1.4-2.05-1.4-3.36V34.9z"/>
		<path class="st4" d="M80.01,106.26c1.31,0,2.43,0.47,3.36,1.4c0.93,0.93,1.4,2.05,1.4,3.36c0,1.31-0.47,2.43-1.4,3.36
			c-0.93,0.93-2.05,1.4-3.36,1.4H22.92c-1.31,0-2.43-0.47-3.36-1.4c-0.93-0.93-1.4-2.05-1.4-3.36c0-1.31,0.47-2.43,1.4-3.36
			c0.93-0.93,2.05-1.4,3.36-1.4H80.01z"/>
	</g>
</g>
<g id="pink_-_reversed_copy" class="st0">
	<rect x="-39.98" y="-34.22" class="st5" width="384.03" height="194.14"/>
	<g class="st2">
		<path class="st3" d="M84.77,63.44c0,9.2-3.25,17.05-9.75,23.55c-6.5,6.5-14.35,9.75-23.55,9.75c-9.2,0-17.05-3.25-23.55-9.75
			c-6.5-6.5-9.75-14.35-9.75-23.55c0-9.2,3.25-17.05,9.75-23.55c6.5-6.5,14.35-9.75,23.55-9.75c9.2,0,17.05,3.25,23.55,9.75
			C81.52,46.4,84.77,54.25,84.77,63.44z M51.47,39.66c-6.58,0-12.19,2.32-16.83,6.96c-4.64,4.64-6.96,10.25-6.96,16.83
			c0,6.58,2.32,12.19,6.96,16.83c4.64,4.64,10.25,6.96,16.83,6.96c6.58,0,12.19-2.32,16.83-6.96c4.64-4.64,6.96-10.25,6.96-16.83
			c0-6.58-2.32-12.19-6.96-16.83C63.66,41.98,58.05,39.66,51.47,39.66z"/>
		<path class="st3" d="M103.8,91.99c0,1.31-0.47,2.43-1.4,3.36c-0.93,0.93-2.05,1.4-3.36,1.4s-2.43-0.47-3.36-1.4
			c-0.93-0.93-1.4-2.05-1.4-3.36V34.9c0-1.31,0.47-2.43,1.4-3.36c0.93-0.93,2.05-1.4,3.36-1.4s2.43,0.47,3.36,1.4
			c0.93,0.93,1.4,2.05,1.4,3.36v1.25c4.72-4,10.27-6.01,16.65-6.01c7.21,0,13.38,2.56,18.49,7.67c1.07,1.07,2.04,2.2,2.91,3.39
			c0.87-1.19,1.84-2.32,2.91-3.39c5.11-5.11,11.28-7.67,18.49-7.67s13.38,2.56,18.49,7.67c5.12,5.11,7.67,11.28,7.67,18.49v35.68
			c0,1.31-0.47,2.43-1.4,3.36c-0.93,0.93-2.05,1.4-3.36,1.4s-2.43-0.47-3.36-1.4c-0.93-0.93-1.4-2.05-1.4-3.36V56.31
			c0-4.6-1.63-8.52-4.88-11.77c-3.25-3.25-7.18-4.88-11.77-4.88s-8.52,1.63-11.77,4.88c-3.25,3.25-4.88,7.18-4.88,11.77v35.68
			c0,1.31-0.47,2.43-1.4,3.36c-0.93,0.93-2.05,1.4-3.36,1.4c-1.31,0-2.43-0.47-3.36-1.4c-0.93-0.93-1.4-2.05-1.4-3.36V56.31
			c0-4.6-1.63-8.52-4.88-11.77c-3.25-3.25-7.18-4.88-11.77-4.88c-4.6,0-8.52,1.63-11.77,4.88c-3.25,3.25-4.88,7.18-4.88,11.77V91.99
			z"/>
		<path class="st3" d="M201.38,34.9c0-1.31,0.46-2.43,1.4-3.36c0.93-0.93,2.05-1.4,3.36-1.4s2.43,0.47,3.36,1.4
			c0.93,0.93,1.4,2.05,1.4,3.36v3.87c5.95-5.75,13.08-8.62,21.41-8.62c8.52,0,15.81,3.02,21.85,9.07
			c6.04,6.05,9.07,13.33,9.07,21.85v30.92c0,1.31-0.47,2.43-1.4,3.36c-0.93,0.93-2.05,1.4-3.36,1.4c-1.31,0-2.43-0.47-3.36-1.4
			c-0.93-0.93-1.4-2.05-1.4-3.36V61.06c0-5.91-2.09-10.95-6.27-15.13c-4.18-4.18-9.23-6.27-15.13-6.27s-10.95,2.09-15.13,6.27
			c-4.18,4.18-6.27,9.23-6.27,15.13v30.92c0,1.31-0.47,2.43-1.4,3.36c-0.93,0.93-2.05,1.4-3.36,1.4s-2.43-0.47-3.36-1.4
			c-0.93-0.93-1.4-2.05-1.4-3.36V34.9z"/>
		<path class="st3" d="M285.9,15.87c0,1.63-0.58,3.02-1.75,4.19c-1.17,1.17-2.57,1.75-4.19,1.75c-1.63,0-3.02-0.58-4.19-1.75
			c-1.17-1.17-1.75-2.57-1.75-4.19c0-1.62,0.58-3.02,1.75-4.19c1.17-1.17,2.57-1.75,4.19-1.75c1.62,0,3.02,0.58,4.19,1.75
			C285.32,12.85,285.9,14.24,285.9,15.87z M275.2,34.9c0-1.31,0.47-2.43,1.4-3.36c0.93-0.93,2.05-1.4,3.36-1.4
			c1.31,0,2.43,0.47,3.36,1.4c0.93,0.93,1.4,2.05,1.4,3.36v57.09c0,1.31-0.47,2.43-1.4,3.36c-0.93,0.93-2.05,1.4-3.36,1.4
			c-1.31,0-2.43-0.47-3.36-1.4c-0.93-0.93-1.4-2.05-1.4-3.36V34.9z"/>
		<path class="st6" d="M80.01,106.26c1.31,0,2.43,0.47,3.36,1.4c0.93,0.93,1.4,2.05,1.4,3.36c0,1.31-0.47,2.43-1.4,3.36
			c-0.93,0.93-2.05,1.4-3.36,1.4H22.92c-1.31,0-2.43-0.47-3.36-1.4c-0.93-0.93-1.4-2.05-1.4-3.36c0-1.31,0.47-2.43,1.4-3.36
			c0.93-0.93,2.05-1.4,3.36-1.4H80.01z"/>
	</g>
</g>
<g id="yellow_-_reversed_copy_2" class="st0">
	<rect x="-39.98" y="-34.22" class="st7" width="384.03" height="194.14"/>
	<g class="st2">
		<path class="st3" d="M84.77,63.44c0,9.2-3.25,17.05-9.75,23.55c-6.5,6.5-14.35,9.75-23.55,9.75c-9.2,0-17.05-3.25-23.55-9.75
			c-6.5-6.5-9.75-14.35-9.75-23.55c0-9.2,3.25-17.05,9.75-23.55c6.5-6.5,14.35-9.75,23.55-9.75c9.2,0,17.05,3.25,23.55,9.75
			C81.52,46.4,84.77,54.25,84.77,63.44z M51.47,39.66c-6.58,0-12.19,2.32-16.83,6.96c-4.64,4.64-6.96,10.25-6.96,16.83
			c0,6.58,2.32,12.19,6.96,16.83c4.64,4.64,10.25,6.96,16.83,6.96c6.58,0,12.19-2.32,16.83-6.96c4.64-4.64,6.96-10.25,6.96-16.83
			c0-6.58-2.32-12.19-6.96-16.83C63.66,41.98,58.05,39.66,51.47,39.66z"/>
		<path class="st3" d="M103.8,91.99c0,1.31-0.47,2.43-1.4,3.36c-0.93,0.93-2.05,1.4-3.36,1.4s-2.43-0.47-3.36-1.4
			c-0.93-0.93-1.4-2.05-1.4-3.36V34.9c0-1.31,0.47-2.43,1.4-3.36c0.93-0.93,2.05-1.4,3.36-1.4s2.43,0.47,3.36,1.4
			c0.93,0.93,1.4,2.05,1.4,3.36v1.25c4.72-4,10.27-6.01,16.65-6.01c7.21,0,13.38,2.56,18.49,7.67c1.07,1.07,2.04,2.2,2.91,3.39
			c0.87-1.19,1.84-2.32,2.91-3.39c5.11-5.11,11.28-7.67,18.49-7.67s13.38,2.56,18.49,7.67c5.12,5.11,7.67,11.28,7.67,18.49v35.68
			c0,1.31-0.47,2.43-1.4,3.36c-0.93,0.93-2.05,1.4-3.36,1.4s-2.43-0.47-3.36-1.4c-0.93-0.93-1.4-2.05-1.4-3.36V56.31
			c0-4.6-1.63-8.52-4.88-11.77c-3.25-3.25-7.18-4.88-11.77-4.88s-8.52,1.63-11.77,4.88c-3.25,3.25-4.88,7.18-4.88,11.77v35.68
			c0,1.31-0.47,2.43-1.4,3.36c-0.93,0.93-2.05,1.4-3.36,1.4c-1.31,0-2.43-0.47-3.36-1.4c-0.93-0.93-1.4-2.05-1.4-3.36V56.31
			c0-4.6-1.63-8.52-4.88-11.77c-3.25-3.25-7.18-4.88-11.77-4.88c-4.6,0-8.52,1.63-11.77,4.88c-3.25,3.25-4.88,7.18-4.88,11.77V91.99
			z"/>
		<path class="st3" d="M201.38,34.9c0-1.31,0.46-2.43,1.4-3.36c0.93-0.93,2.05-1.4,3.36-1.4s2.43,0.47,3.36,1.4
			c0.93,0.93,1.4,2.05,1.4,3.36v3.87c5.95-5.75,13.08-8.62,21.41-8.62c8.52,0,15.81,3.02,21.85,9.07
			c6.04,6.05,9.07,13.33,9.07,21.85v30.92c0,1.31-0.47,2.43-1.4,3.36c-0.93,0.93-2.05,1.4-3.36,1.4c-1.31,0-2.43-0.47-3.36-1.4
			c-0.93-0.93-1.4-2.05-1.4-3.36V61.06c0-5.91-2.09-10.95-6.27-15.13c-4.18-4.18-9.23-6.27-15.13-6.27s-10.95,2.09-15.13,6.27
			c-4.18,4.18-6.27,9.23-6.27,15.13v30.92c0,1.31-0.47,2.43-1.4,3.36c-0.93,0.93-2.05,1.4-3.36,1.4s-2.43-0.47-3.36-1.4
			c-0.93-0.93-1.4-2.05-1.4-3.36V34.9z"/>
		<path class="st3" d="M285.9,15.87c0,1.63-0.58,3.02-1.75,4.19c-1.17,1.17-2.57,1.75-4.19,1.75c-1.63,0-3.02-0.58-4.19-1.75
			c-1.17-1.17-1.75-2.57-1.75-4.19c0-1.62,0.58-3.02,1.75-4.19c1.17-1.17,2.57-1.75,4.19-1.75c1.62,0,3.02,0.58,4.19,1.75
			C285.32,12.85,285.9,14.24,285.9,15.87z M275.2,34.9c0-1.31,0.47-2.43,1.4-3.36c0.93-0.93,2.05-1.4,3.36-1.4
			c1.31,0,2.43,0.47,3.36,1.4c0.93,0.93,1.4,2.05,1.4,3.36v57.09c0,1.31-0.47,2.43-1.4,3.36c-0.93,0.93-2.05,1.4-3.36,1.4
			c-1.31,0-2.43-0.47-3.36-1.4c-0.93-0.93-1.4-2.05-1.4-3.36V34.9z"/>
		<path class="st8" d="M80.01,106.26c1.31,0,2.43,0.47,3.36,1.4c0.93,0.93,1.4,2.05,1.4,3.36c0,1.31-0.47,2.43-1.4,3.36
			c-0.93,0.93-2.05,1.4-3.36,1.4H22.92c-1.31,0-2.43-0.47-3.36-1.4c-0.93-0.93-1.4-2.05-1.4-3.36c0-1.31,0.47-2.43,1.4-3.36
			c0.93-0.93,2.05-1.4,3.36-1.4H80.01z"/>
	</g>
</g>
<g id="light_grey_-_reversed_copy_3" class="st0">
	<rect x="-39.98" y="-34.22" class="st9" width="384.03" height="194.14"/>
	<g class="st2">
		<path class="st3" d="M84.77,63.44c0,9.2-3.25,17.05-9.75,23.55c-6.5,6.5-14.35,9.75-23.55,9.75c-9.2,0-17.05-3.25-23.55-9.75
			c-6.5-6.5-9.75-14.35-9.75-23.55c0-9.2,3.25-17.05,9.75-23.55c6.5-6.5,14.35-9.75,23.55-9.75c9.2,0,17.05,3.25,23.55,9.75
			C81.52,46.4,84.77,54.25,84.77,63.44z M51.47,39.66c-6.58,0-12.19,2.32-16.83,6.96c-4.64,4.64-6.96,10.25-6.96,16.83
			c0,6.58,2.32,12.19,6.96,16.83c4.64,4.64,10.25,6.96,16.83,6.96c6.58,0,12.19-2.32,16.83-6.96c4.64-4.64,6.96-10.25,6.96-16.83
			c0-6.58-2.32-12.19-6.96-16.83C63.66,41.98,58.05,39.66,51.47,39.66z"/>
		<path class="st3" d="M103.8,91.99c0,1.31-0.47,2.43-1.4,3.36c-0.93,0.93-2.05,1.4-3.36,1.4s-2.43-0.47-3.36-1.4
			c-0.93-0.93-1.4-2.05-1.4-3.36V34.9c0-1.31,0.47-2.43,1.4-3.36c0.93-0.93,2.05-1.4,3.36-1.4s2.43,0.47,3.36,1.4
			c0.93,0.93,1.4,2.05,1.4,3.36v1.25c4.72-4,10.27-6.01,16.65-6.01c7.21,0,13.38,2.56,18.49,7.67c1.07,1.07,2.04,2.2,2.91,3.39
			c0.87-1.19,1.84-2.32,2.91-3.39c5.11-5.11,11.28-7.67,18.49-7.67s13.38,2.56,18.49,7.67c5.12,5.11,7.67,11.28,7.67,18.49v35.68
			c0,1.31-0.47,2.43-1.4,3.36c-0.93,0.93-2.05,1.4-3.36,1.4s-2.43-0.47-3.36-1.4c-0.93-0.93-1.4-2.05-1.4-3.36V56.31
			c0-4.6-1.63-8.52-4.88-11.77c-3.25-3.25-7.18-4.88-11.77-4.88s-8.52,1.63-11.77,4.88c-3.25,3.25-4.88,7.18-4.88,11.77v35.68
			c0,1.31-0.47,2.43-1.4,3.36c-0.93,0.93-2.05,1.4-3.36,1.4c-1.31,0-2.43-0.47-3.36-1.4c-0.93-0.93-1.4-2.05-1.4-3.36V56.31
			c0-4.6-1.63-8.52-4.88-11.77c-3.25-3.25-7.18-4.88-11.77-4.88c-4.6,0-8.52,1.63-11.77,4.88c-3.25,3.25-4.88,7.18-4.88,11.77V91.99
			z"/>
		<path class="st3" d="M201.38,34.9c0-1.31,0.46-2.43,1.4-3.36c0.93-0.93,2.05-1.4,3.36-1.4s2.43,0.47,3.36,1.4
			c0.93,0.93,1.4,2.05,1.4,3.36v3.87c5.95-5.75,13.08-8.62,21.41-8.62c8.52,0,15.81,3.02,21.85,9.07
			c6.04,6.05,9.07,13.33,9.07,21.85v30.92c0,1.31-0.47,2.43-1.4,3.36c-0.93,0.93-2.05,1.4-3.36,1.4c-1.31,0-2.43-0.47-3.36-1.4
			c-0.93-0.93-1.4-2.05-1.4-3.36V61.06c0-5.91-2.09-10.95-6.27-15.13c-4.18-4.18-9.23-6.27-15.13-6.27s-10.95,2.09-15.13,6.27
			c-4.18,4.18-6.27,9.23-6.27,15.13v30.92c0,1.31-0.47,2.43-1.4,3.36c-0.93,0.93-2.05,1.4-3.36,1.4s-2.43-0.47-3.36-1.4
			c-0.93-0.93-1.4-2.05-1.4-3.36V34.9z"/>
		<path class="st3" d="M285.9,15.87c0,1.63-0.58,3.02-1.75,4.19c-1.17,1.17-2.57,1.75-4.19,1.75c-1.63,0-3.02-0.58-4.19-1.75
			c-1.17-1.17-1.75-2.57-1.75-4.19c0-1.62,0.58-3.02,1.75-4.19c1.17-1.17,2.57-1.75,4.19-1.75c1.62,0,3.02,0.58,4.19,1.75
			C285.32,12.85,285.9,14.24,285.9,15.87z M275.2,34.9c0-1.31,0.47-2.43,1.4-3.36c0.93-0.93,2.05-1.4,3.36-1.4
			c1.31,0,2.43,0.47,3.36,1.4c0.93,0.93,1.4,2.05,1.4,3.36v57.09c0,1.31-0.47,2.43-1.4,3.36c-0.93,0.93-2.05,1.4-3.36,1.4
			c-1.31,0-2.43-0.47-3.36-1.4c-0.93-0.93-1.4-2.05-1.4-3.36V34.9z"/>
		<path class="st8" d="M80.01,106.26c1.31,0,2.43,0.47,3.36,1.4c0.93,0.93,1.4,2.05,1.4,3.36c0,1.31-0.47,2.43-1.4,3.36
			c-0.93,0.93-2.05,1.4-3.36,1.4H22.92c-1.31,0-2.43-0.47-3.36-1.4c-0.93-0.93-1.4-2.05-1.4-3.36c0-1.31,0.47-2.43,1.4-3.36
			c0.93-0.93,2.05-1.4,3.36-1.4H80.01z"/>
	</g>
</g>
<g id="dark_grey_-_reversed" class="st0">
	<rect x="-39.98" y="-34.22" class="st10" width="384.03" height="194.14"/>
	<g class="st2">
		<path class="st3" d="M84.77,63.44c0,9.2-3.25,17.05-9.75,23.55c-6.5,6.5-14.35,9.75-23.55,9.75c-9.2,0-17.05-3.25-23.55-9.75
			c-6.5-6.5-9.75-14.35-9.75-23.55c0-9.2,3.25-17.05,9.75-23.55c6.5-6.5,14.35-9.75,23.55-9.75c9.2,0,17.05,3.25,23.55,9.75
			C81.52,46.4,84.77,54.25,84.77,63.44z M51.47,39.66c-6.58,0-12.19,2.32-16.83,6.96c-4.64,4.64-6.96,10.25-6.96,16.83
			c0,6.58,2.32,12.19,6.96,16.83c4.64,4.64,10.25,6.96,16.83,6.96c6.58,0,12.19-2.32,16.83-6.96c4.64-4.64,6.96-10.25,6.96-16.83
			c0-6.58-2.32-12.19-6.96-16.83C63.66,41.98,58.05,39.66,51.47,39.66z"/>
		<path class="st3" d="M103.8,91.99c0,1.31-0.47,2.43-1.4,3.36c-0.93,0.93-2.05,1.4-3.36,1.4s-2.43-0.47-3.36-1.4
			c-0.93-0.93-1.4-2.05-1.4-3.36V34.9c0-1.31,0.47-2.43,1.4-3.36c0.93-0.93,2.05-1.4,3.36-1.4s2.43,0.47,3.36,1.4
			c0.93,0.93,1.4,2.05,1.4,3.36v1.25c4.72-4,10.27-6.01,16.65-6.01c7.21,0,13.38,2.56,18.49,7.67c1.07,1.07,2.04,2.2,2.91,3.39
			c0.87-1.19,1.84-2.32,2.91-3.39c5.11-5.11,11.28-7.67,18.49-7.67s13.38,2.56,18.49,7.67c5.12,5.11,7.67,11.28,7.67,18.49v35.68
			c0,1.31-0.47,2.43-1.4,3.36c-0.93,0.93-2.05,1.4-3.36,1.4s-2.43-0.47-3.36-1.4c-0.93-0.93-1.4-2.05-1.4-3.36V56.31
			c0-4.6-1.63-8.52-4.88-11.77c-3.25-3.25-7.18-4.88-11.77-4.88s-8.52,1.63-11.77,4.88c-3.25,3.25-4.88,7.18-4.88,11.77v35.68
			c0,1.31-0.47,2.43-1.4,3.36c-0.93,0.93-2.05,1.4-3.36,1.4c-1.31,0-2.43-0.47-3.36-1.4c-0.93-0.93-1.4-2.05-1.4-3.36V56.31
			c0-4.6-1.63-8.52-4.88-11.77c-3.25-3.25-7.18-4.88-11.77-4.88c-4.6,0-8.52,1.63-11.77,4.88c-3.25,3.25-4.88,7.18-4.88,11.77V91.99
			z"/>
		<path class="st3" d="M201.38,34.9c0-1.31,0.46-2.43,1.4-3.36c0.93-0.93,2.05-1.4,3.36-1.4s2.43,0.47,3.36,1.4
			c0.93,0.93,1.4,2.05,1.4,3.36v3.87c5.95-5.75,13.08-8.62,21.41-8.62c8.52,0,15.81,3.02,21.85,9.07
			c6.04,6.05,9.07,13.33,9.07,21.85v30.92c0,1.31-0.47,2.43-1.4,3.36c-0.93,0.93-2.05,1.4-3.36,1.4c-1.31,0-2.43-0.47-3.36-1.4
			c-0.93-0.93-1.4-2.05-1.4-3.36V61.06c0-5.91-2.09-10.95-6.27-15.13c-4.18-4.18-9.23-6.27-15.13-6.27s-10.95,2.09-15.13,6.27
			c-4.18,4.18-6.27,9.23-6.27,15.13v30.92c0,1.31-0.47,2.43-1.4,3.36c-0.93,0.93-2.05,1.4-3.36,1.4s-2.43-0.47-3.36-1.4
			c-0.93-0.93-1.4-2.05-1.4-3.36V34.9z"/>
		<path class="st3" d="M285.9,15.87c0,1.63-0.58,3.02-1.75,4.19c-1.17,1.17-2.57,1.75-4.19,1.75c-1.63,0-3.02-0.58-4.19-1.75
			c-1.17-1.17-1.75-2.57-1.75-4.19c0-1.62,0.58-3.02,1.75-4.19c1.17-1.17,2.57-1.75,4.19-1.75c1.62,0,3.02,0.58,4.19,1.75
			C285.32,12.85,285.9,14.24,285.9,15.87z M275.2,34.9c0-1.31,0.47-2.43,1.4-3.36c0.93-0.93,2.05-1.4,3.36-1.4
			c1.31,0,2.43,0.47,3.36,1.4c0.93,0.93,1.4,2.05,1.4,3.36v57.09c0,1.31-0.47,2.43-1.4,3.36c-0.93,0.93-2.05,1.4-3.36,1.4
			c-1.31,0-2.43-0.47-3.36-1.4c-0.93-0.93-1.4-2.05-1.4-3.36V34.9z"/>
		<path class="st8" d="M80.01,106.26c1.31,0,2.43,0.47,3.36,1.4c0.93,0.93,1.4,2.05,1.4,3.36c0,1.31-0.47,2.43-1.4,3.36
			c-0.93,0.93-2.05,1.4-3.36,1.4H22.92c-1.31,0-2.43-0.47-3.36-1.4c-0.93-0.93-1.4-2.05-1.4-3.36c0-1.31,0.47-2.43,1.4-3.36
			c0.93-0.93,2.05-1.4,3.36-1.4H80.01z"/>
	</g>
</g>
<g id="blue_-_reversed_copy" class="st0">
	<rect x="-39.98" y="-34.22" class="st11" width="384.03" height="194.14"/>
	<g class="st2">
		<path class="st3" d="M84.77,63.44c0,9.2-3.25,17.05-9.75,23.55c-6.5,6.5-14.35,9.75-23.55,9.75c-9.2,0-17.05-3.25-23.55-9.75
			c-6.5-6.5-9.75-14.35-9.75-23.55c0-9.2,3.25-17.05,9.75-23.55c6.5-6.5,14.35-9.75,23.55-9.75c9.2,0,17.05,3.25,23.55,9.75
			C81.52,46.4,84.77,54.25,84.77,63.44z M51.47,39.66c-6.58,0-12.19,2.32-16.83,6.96c-4.64,4.64-6.96,10.25-6.96,16.83
			c0,6.58,2.32,12.19,6.96,16.83c4.64,4.64,10.25,6.96,16.83,6.96c6.58,0,12.19-2.32,16.83-6.96c4.64-4.64,6.96-10.25,6.96-16.83
			c0-6.58-2.32-12.19-6.96-16.83C63.66,41.98,58.05,39.66,51.47,39.66z"/>
		<path class="st3" d="M103.8,91.99c0,1.31-0.47,2.43-1.4,3.36c-0.93,0.93-2.05,1.4-3.36,1.4s-2.43-0.47-3.36-1.4
			c-0.93-0.93-1.4-2.05-1.4-3.36V34.9c0-1.31,0.47-2.43,1.4-3.36c0.93-0.93,2.05-1.4,3.36-1.4s2.43,0.47,3.36,1.4
			c0.93,0.93,1.4,2.05,1.4,3.36v1.25c4.72-4,10.27-6.01,16.65-6.01c7.21,0,13.38,2.56,18.49,7.67c1.07,1.07,2.04,2.2,2.91,3.39
			c0.87-1.19,1.84-2.32,2.91-3.39c5.11-5.11,11.28-7.67,18.49-7.67s13.38,2.56,18.49,7.67c5.12,5.11,7.67,11.28,7.67,18.49v35.68
			c0,1.31-0.47,2.43-1.4,3.36c-0.93,0.93-2.05,1.4-3.36,1.4s-2.43-0.47-3.36-1.4c-0.93-0.93-1.4-2.05-1.4-3.36V56.31
			c0-4.6-1.63-8.52-4.88-11.77c-3.25-3.25-7.18-4.88-11.77-4.88s-8.52,1.63-11.77,4.88c-3.25,3.25-4.88,7.18-4.88,11.77v35.68
			c0,1.31-0.47,2.43-1.4,3.36c-0.93,0.93-2.05,1.4-3.36,1.4c-1.31,0-2.43-0.47-3.36-1.4c-0.93-0.93-1.4-2.05-1.4-3.36V56.31
			c0-4.6-1.63-8.52-4.88-11.77c-3.25-3.25-7.18-4.88-11.77-4.88c-4.6,0-8.52,1.63-11.77,4.88c-3.25,3.25-4.88,7.18-4.88,11.77V91.99
			z"/>
		<path class="st3" d="M201.38,34.9c0-1.31,0.46-2.43,1.4-3.36c0.93-0.93,2.05-1.4,3.36-1.4s2.43,0.47,3.36,1.4
			c0.93,0.93,1.4,2.05,1.4,3.36v3.87c5.95-5.75,13.08-8.62,21.41-8.62c8.52,0,15.81,3.02,21.85,9.07
			c6.04,6.05,9.07,13.33,9.07,21.85v30.92c0,1.31-0.47,2.43-1.4,3.36c-0.93,0.93-2.05,1.4-3.36,1.4c-1.31,0-2.43-0.47-3.36-1.4
			c-0.93-0.93-1.4-2.05-1.4-3.36V61.06c0-5.91-2.09-10.95-6.27-15.13c-4.18-4.18-9.23-6.27-15.13-6.27s-10.95,2.09-15.13,6.27
			c-4.18,4.18-6.27,9.23-6.27,15.13v30.92c0,1.31-0.47,2.43-1.4,3.36c-0.93,0.93-2.05,1.4-3.36,1.4s-2.43-0.47-3.36-1.4
			c-0.93-0.93-1.4-2.05-1.4-3.36V34.9z"/>
		<path class="st3" d="M285.9,15.87c0,1.63-0.58,3.02-1.75,4.19c-1.17,1.17-2.57,1.75-4.19,1.75c-1.63,0-3.02-0.58-4.19-1.75
			c-1.17-1.17-1.75-2.57-1.75-4.19c0-1.62,0.58-3.02,1.75-4.19c1.17-1.17,2.57-1.75,4.19-1.75c1.62,0,3.02,0.58,4.19,1.75
			C285.32,12.85,285.9,14.24,285.9,15.87z M275.2,34.9c0-1.31,0.47-2.43,1.4-3.36c0.93-0.93,2.05-1.4,3.36-1.4
			c1.31,0,2.43,0.47,3.36,1.4c0.93,0.93,1.4,2.05,1.4,3.36v57.09c0,1.31-0.47,2.43-1.4,3.36c-0.93,0.93-2.05,1.4-3.36,1.4
			c-1.31,0-2.43-0.47-3.36-1.4c-0.93-0.93-1.4-2.05-1.4-3.36V34.9z"/>
		<path class="st12" d="M80.01,106.26c1.31,0,2.43,0.47,3.36,1.4c0.93,0.93,1.4,2.05,1.4,3.36c0,1.31-0.47,2.43-1.4,3.36
			c-0.93,0.93-2.05,1.4-3.36,1.4H22.92c-1.31,0-2.43-0.47-3.36-1.4c-0.93-0.93-1.4-2.05-1.4-3.36c0-1.31,0.47-2.43,1.4-3.36
			c0.93-0.93,2.05-1.4,3.36-1.4H80.01z"/>
	</g>
</g>
<g id="product_logo_2">
	<g>
		<path class="st13" d="M84.77,63.44c0,9.2-3.25,17.05-9.75,23.55c-6.5,6.5-14.35,9.75-23.55,9.75c-9.2,0-17.05-3.25-23.55-9.75
			c-6.5-6.5-9.75-14.35-9.75-23.55c0-9.2,3.25-17.05,9.75-23.55c6.5-6.5,14.35-9.75,23.55-9.75c9.2,0,17.05,3.25,23.55,9.75
			C81.52,46.4,84.77,54.25,84.77,63.44z M51.47,39.66c-6.58,0-12.19,2.32-16.83,6.96c-4.64,4.64-6.96,10.25-6.96,16.83
			c0,6.58,2.32,12.19,6.96,16.83c4.64,4.64,10.25,6.96,16.83,6.96c6.58,0,12.19-2.32,16.83-6.96c4.64-4.64,6.96-10.25,6.96-16.83
			c0-6.58-2.32-12.19-6.96-16.83C63.66,41.98,58.05,39.66,51.47,39.66z"/>
		<path class="st13" d="M103.8,91.99c0,1.31-0.47,2.43-1.4,3.36c-0.93,0.93-2.05,1.4-3.36,1.4s-2.43-0.47-3.36-1.4
			c-0.93-0.93-1.4-2.05-1.4-3.36V34.9c0-1.31,0.47-2.43,1.4-3.36c0.93-0.93,2.05-1.4,3.36-1.4s2.43,0.47,3.36,1.4
			c0.93,0.93,1.4,2.05,1.4,3.36v1.25c4.72-4,10.27-6.01,16.65-6.01c7.21,0,13.38,2.56,18.49,7.67c1.07,1.07,2.04,2.2,2.91,3.39
			c0.87-1.19,1.84-2.32,2.91-3.39c5.11-5.11,11.28-7.67,18.49-7.67s13.38,2.56,18.49,7.67c5.12,5.11,7.67,11.28,7.67,18.49v35.68
			c0,1.31-0.47,2.43-1.4,3.36c-0.93,0.93-2.05,1.4-3.36,1.4s-2.43-0.47-3.36-1.4c-0.93-0.93-1.4-2.05-1.4-3.36V56.31
			c0-4.6-1.63-8.52-4.88-11.77c-3.25-3.25-7.18-4.88-11.77-4.88s-8.52,1.63-11.77,4.88c-3.25,3.25-4.88,7.18-4.88,11.77v35.68
			c0,1.31-0.47,2.43-1.4,3.36c-0.93,0.93-2.05,1.4-3.36,1.4c-1.31,0-2.43-0.47-3.36-1.4c-0.93-0.93-1.4-2.05-1.4-3.36V56.31
			c0-4.6-1.63-8.52-4.88-11.77c-3.25-3.25-7.18-4.88-11.77-4.88c-4.6,0-8.52,1.63-11.77,4.88c-3.25,3.25-4.88,7.18-4.88,11.77V91.99
			z"/>
		<path class="st13" d="M201.38,34.9c0-1.31,0.46-2.43,1.4-3.36c0.93-0.93,2.05-1.4,3.36-1.4s2.43,0.47,3.36,1.4
			c0.93,0.93,1.4,2.05,1.4,3.36v3.87c5.95-5.75,13.08-8.62,21.41-8.62c8.52,0,15.81,3.02,21.85,9.07
			c6.04,6.05,9.07,13.33,9.07,21.85v30.92c0,1.31-0.47,2.43-1.4,3.36c-0.93,0.93-2.05,1.4-3.36,1.4c-1.31,0-2.43-0.47-3.36-1.4
			c-0.93-0.93-1.4-2.05-1.4-3.36V61.06c0-5.91-2.09-10.95-6.27-15.13c-4.18-4.18-9.23-6.27-15.13-6.27s-10.95,2.09-15.13,6.27
			c-4.18,4.18-6.27,9.23-6.27,15.13v30.92c0,1.31-0.47,2.43-1.4,3.36c-0.93,0.93-2.05,1.4-3.36,1.4s-2.43-0.47-3.36-1.4
			c-0.93-0.93-1.4-2.05-1.4-3.36V34.9z"/>
		<path class="st13" d="M285.9,15.87c0,1.63-0.58,3.02-1.75,4.19c-1.17,1.17-2.57,1.75-4.19,1.75c-1.63,0-3.02-0.58-4.19-1.75
			c-1.17-1.17-1.75-2.57-1.75-4.19c0-1.62,0.58-3.02,1.75-4.19c1.17-1.17,2.57-1.75,4.19-1.75c1.62,0,3.02,0.58,4.19,1.75
			C285.32,12.85,285.9,14.24,285.9,15.87z M275.2,34.9c0-1.31,0.47-2.43,1.4-3.36c0.93-0.93,2.05-1.4,3.36-1.4
			c1.31,0,2.43,0.47,3.36,1.4c0.93,0.93,1.4,2.05,1.4,3.36v57.09c0,1.31-0.47,2.43-1.4,3.36c-0.93,0.93-2.05,1.4-3.36,1.4
			c-1.31,0-2.43-0.47-3.36-1.4c-0.93-0.93-1.4-2.05-1.4-3.36V34.9z"/>
		<path class="st4" d="M80.01,106.26c1.31,0,2.43,0.47,3.36,1.4c0.93,0.93,1.4,2.05,1.4,3.36c0,1.31-0.47,2.43-1.4,3.36
			c-0.93,0.93-2.05,1.4-3.36,1.4H22.92c-1.31,0-2.43-0.47-3.36-1.4c-0.93-0.93-1.4-2.05-1.4-3.36c0-1.31,0.47-2.43,1.4-3.36
			c0.93-0.93,2.05-1.4,3.36-1.4H80.01z"/>
	</g>
</g>
<g id="product_logo_reversed" class="st0">
	<g class="st2">
		<path class="st3" d="M84.77,63.44c0,9.2-3.25,17.05-9.75,23.55c-6.5,6.5-14.35,9.75-23.55,9.75c-9.2,0-17.05-3.25-23.55-9.75
			c-6.5-6.5-9.75-14.35-9.75-23.55c0-9.2,3.25-17.05,9.75-23.55c6.5-6.5,14.35-9.75,23.55-9.75c9.2,0,17.05,3.25,23.55,9.75
			C81.52,46.4,84.77,54.25,84.77,63.44z M51.47,39.66c-6.58,0-12.19,2.32-16.83,6.96c-4.64,4.64-6.96,10.25-6.96,16.83
			c0,6.58,2.32,12.19,6.96,16.83c4.64,4.64,10.25,6.96,16.83,6.96c6.58,0,12.19-2.32,16.83-6.96c4.64-4.64,6.96-10.25,6.96-16.83
			c0-6.58-2.32-12.19-6.96-16.83C63.66,41.98,58.05,39.66,51.47,39.66z"/>
		<path class="st3" d="M103.8,91.99c0,1.31-0.47,2.43-1.4,3.36c-0.93,0.93-2.05,1.4-3.36,1.4s-2.43-0.47-3.36-1.4
			c-0.93-0.93-1.4-2.05-1.4-3.36V34.9c0-1.31,0.47-2.43,1.4-3.36c0.93-0.93,2.05-1.4,3.36-1.4s2.43,0.47,3.36,1.4
			c0.93,0.93,1.4,2.05,1.4,3.36v1.25c4.72-4,10.27-6.01,16.65-6.01c7.21,0,13.38,2.56,18.49,7.67c1.07,1.07,2.04,2.2,2.91,3.39
			c0.87-1.19,1.84-2.32,2.91-3.39c5.11-5.11,11.28-7.67,18.49-7.67s13.38,2.56,18.49,7.67c5.12,5.11,7.67,11.28,7.67,18.49v35.68
			c0,1.31-0.47,2.43-1.4,3.36c-0.93,0.93-2.05,1.4-3.36,1.4s-2.43-0.47-3.36-1.4c-0.93-0.93-1.4-2.05-1.4-3.36V56.31
			c0-4.6-1.63-8.52-4.88-11.77c-3.25-3.25-7.18-4.88-11.77-4.88s-8.52,1.63-11.77,4.88c-3.25,3.25-4.88,7.18-4.88,11.77v35.68
			c0,1.31-0.47,2.43-1.4,3.36c-0.93,0.93-2.05,1.4-3.36,1.4c-1.31,0-2.43-0.47-3.36-1.4c-0.93-0.93-1.4-2.05-1.4-3.36V56.31
			c0-4.6-1.63-8.52-4.88-11.77c-3.25-3.25-7.18-4.88-11.77-4.88c-4.6,0-8.52,1.63-11.77,4.88c-3.25,3.25-4.88,7.18-4.88,11.77V91.99
			z"/>
		<path class="st3" d="M201.38,34.9c0-1.31,0.46-2.43,1.4-3.36c0.93-0.93,2.05-1.4,3.36-1.4s2.43,0.47,3.36,1.4
			c0.93,0.93,1.4,2.05,1.4,3.36v3.87c5.95-5.75,13.08-8.62,21.41-8.62c8.52,0,15.81,3.02,21.85,9.07
			c6.04,6.05,9.07,13.33,9.07,21.85v30.92c0,1.31-0.47,2.43-1.4,3.36c-0.93,0.93-2.05,1.4-3.36,1.4c-1.31,0-2.43-0.47-3.36-1.4
			c-0.93-0.93-1.4-2.05-1.4-3.36V61.06c0-5.91-2.09-10.95-6.27-15.13c-4.18-4.18-9.23-6.27-15.13-6.27s-10.95,2.09-15.13,6.27
			c-4.18,4.18-6.27,9.23-6.27,15.13v30.92c0,1.31-0.47,2.43-1.4,3.36c-0.93,0.93-2.05,1.4-3.36,1.4s-2.43-0.47-3.36-1.4
			c-0.93-0.93-1.4-2.05-1.4-3.36V34.9z"/>
		<path class="st3" d="M285.9,15.87c0,1.63-0.58,3.02-1.75,4.19c-1.17,1.17-2.57,1.75-4.19,1.75c-1.63,0-3.02-0.58-4.19-1.75
			c-1.17-1.17-1.75-2.57-1.75-4.19c0-1.62,0.58-3.02,1.75-4.19c1.17-1.17,2.57-1.75,4.19-1.75c1.62,0,3.02,0.58,4.19,1.75
			C285.32,12.85,285.9,14.24,285.9,15.87z M275.2,34.9c0-1.31,0.47-2.43,1.4-3.36c0.93-0.93,2.05-1.4,3.36-1.4
			c1.31,0,2.43,0.47,3.36,1.4c0.93,0.93,1.4,2.05,1.4,3.36v57.09c0,1.31-0.47,2.43-1.4,3.36c-0.93,0.93-2.05,1.4-3.36,1.4
			c-1.31,0-2.43-0.47-3.36-1.4c-0.93-0.93-1.4-2.05-1.4-3.36V34.9z"/>
		<path class="st4" d="M80.01,106.26c1.31,0,2.43,0.47,3.36,1.4c0.93,0.93,1.4,2.05,1.4,3.36c0,1.31-0.47,2.43-1.4,3.36
			c-0.93,0.93-2.05,1.4-3.36,1.4H22.92c-1.31,0-2.43-0.47-3.36-1.4c-0.93-0.93-1.4-2.05-1.4-3.36c0-1.31,0.47-2.43,1.4-3.36
			c0.93-0.93,2.05-1.4,3.36-1.4H80.01z"/>
	</g>
</g>
<g id="product_logo_1_copy" class="st0">
	<g class="st2">
		<path class="st13" d="M84.77,63.44c0,9.2-3.25,17.05-9.75,23.55c-6.5,6.5-14.35,9.75-23.55,9.75c-9.2,0-17.05-3.25-23.55-9.75
			c-6.5-6.5-9.75-14.35-9.75-23.55c0-9.2,3.25-17.05,9.75-23.55c6.5-6.5,14.35-9.75,23.55-9.75c9.2,0,17.05,3.25,23.55,9.75
			C81.52,46.4,84.77,54.25,84.77,63.44z M51.47,39.66c-6.58,0-12.19,2.32-16.83,6.96c-4.64,4.64-6.96,10.25-6.96,16.83
			c0,6.58,2.32,12.19,6.96,16.83c4.64,4.64,10.25,6.96,16.83,6.96c6.58,0,12.19-2.32,16.83-6.96c4.64-4.64,6.96-10.25,6.96-16.83
			c0-6.58-2.32-12.19-6.96-16.83C63.66,41.98,58.05,39.66,51.47,39.66z"/>
		<path class="st13" d="M103.8,91.99c0,1.31-0.47,2.43-1.4,3.36c-0.93,0.93-2.05,1.4-3.36,1.4s-2.43-0.47-3.36-1.4
			c-0.93-0.93-1.4-2.05-1.4-3.36V34.9c0-1.31,0.47-2.43,1.4-3.36c0.93-0.93,2.05-1.4,3.36-1.4s2.43,0.47,3.36,1.4
			c0.93,0.93,1.4,2.05,1.4,3.36v1.25c4.72-4,10.27-6.01,16.65-6.01c7.21,0,13.38,2.56,18.49,7.67c1.07,1.07,2.04,2.2,2.91,3.39
			c0.87-1.19,1.84-2.32,2.91-3.39c5.11-5.11,11.28-7.67,18.49-7.67s13.38,2.56,18.49,7.67c5.12,5.11,7.67,11.28,7.67,18.49v35.68
			c0,1.31-0.47,2.43-1.4,3.36c-0.93,0.93-2.05,1.4-3.36,1.4s-2.43-0.47-3.36-1.4c-0.93-0.93-1.4-2.05-1.4-3.36V56.31
			c0-4.6-1.63-8.52-4.88-11.77c-3.25-3.25-7.18-4.88-11.77-4.88s-8.52,1.63-11.77,4.88c-3.25,3.25-4.88,7.18-4.88,11.77v35.68
			c0,1.31-0.47,2.43-1.4,3.36c-0.93,0.93-2.05,1.4-3.36,1.4c-1.31,0-2.43-0.47-3.36-1.4c-0.93-0.93-1.4-2.05-1.4-3.36V56.31
			c0-4.6-1.63-8.52-4.88-11.77c-3.25-3.25-7.18-4.88-11.77-4.88c-4.6,0-8.52,1.63-11.77,4.88c-3.25,3.25-4.88,7.18-4.88,11.77V91.99
			z"/>
		<path class="st13" d="M201.38,34.9c0-1.31,0.46-2.43,1.4-3.36c0.93-0.93,2.05-1.4,3.36-1.4s2.43,0.47,3.36,1.4
			c0.93,0.93,1.4,2.05,1.4,3.36v3.87c5.95-5.75,13.08-8.62,21.41-8.62c8.52,0,15.81,3.02,21.85,9.07
			c6.04,6.05,9.07,13.33,9.07,21.85v30.92c0,1.31-0.47,2.43-1.4,3.36c-0.93,0.93-2.05,1.4-3.36,1.4c-1.31,0-2.43-0.47-3.36-1.4
			c-0.93-0.93-1.4-2.05-1.4-3.36V61.06c0-5.91-2.09-10.95-6.27-15.13c-4.18-4.18-9.23-6.27-15.13-6.27s-10.95,2.09-15.13,6.27
			c-4.18,4.18-6.27,9.23-6.27,15.13v30.92c0,1.31-0.47,2.43-1.4,3.36c-0.93,0.93-2.05,1.4-3.36,1.4s-2.43-0.47-3.36-1.4
			c-0.93-0.93-1.4-2.05-1.4-3.36V34.9z"/>
		<path class="st13" d="M285.9,15.87c0,1.63-0.58,3.02-1.75,4.19c-1.17,1.17-2.57,1.75-4.19,1.75c-1.63,0-3.02-0.58-4.19-1.75
			c-1.17-1.17-1.75-2.57-1.75-4.19c0-1.62,0.58-3.02,1.75-4.19c1.17-1.17,2.57-1.75,4.19-1.75c1.62,0,3.02,0.58,4.19,1.75
			C285.32,12.85,285.9,14.24,285.9,15.87z M275.2,34.9c0-1.31,0.47-2.43,1.4-3.36c0.93-0.93,2.05-1.4,3.36-1.4
			c1.31,0,2.43,0.47,3.36,1.4c0.93,0.93,1.4,2.05,1.4,3.36v57.09c0,1.31-0.47,2.43-1.4,3.36c-0.93,0.93-2.05,1.4-3.36,1.4
			c-1.31,0-2.43-0.47-3.36-1.4c-0.93-0.93-1.4-2.05-1.4-3.36V34.9z"/>
		<path class="st6" d="M80.01,106.26c1.31,0,2.43,0.47,3.36,1.4c0.93,0.93,1.4,2.05,1.4,3.36c0,1.31-0.47,2.43-1.4,3.36
			c-0.93,0.93-2.05,1.4-3.36,1.4H22.92c-1.31,0-2.43-0.47-3.36-1.4c-0.93-0.93-1.4-2.05-1.4-3.36c0-1.31,0.47-2.43,1.4-3.36
			c0.93-0.93,2.05-1.4,3.36-1.4H80.01z"/>
	</g>
</g>
<g id="product_logo_2_00000120559292443265038710000006650155870649177772_" class="st0">
	<g class="st2">
		<path class="st13" d="M84.77,63.44c0,9.2-3.25,17.05-9.75,23.55c-6.5,6.5-14.35,9.75-23.55,9.75c-9.2,0-17.05-3.25-23.55-9.75
			c-6.5-6.5-9.75-14.35-9.75-23.55c0-9.2,3.25-17.05,9.75-23.55c6.5-6.5,14.35-9.75,23.55-9.75c9.2,0,17.05,3.25,23.55,9.75
			C81.52,46.4,84.77,54.25,84.77,63.44z M51.47,39.66c-6.58,0-12.19,2.32-16.83,6.96c-4.64,4.64-6.96,10.25-6.96,16.83
			c0,6.58,2.32,12.19,6.96,16.83c4.64,4.64,10.25,6.96,16.83,6.96c6.58,0,12.19-2.32,16.83-6.96c4.64-4.64,6.96-10.25,6.96-16.83
			c0-6.58-2.32-12.19-6.96-16.83C63.66,41.98,58.05,39.66,51.47,39.66z"/>
		<path class="st13" d="M103.8,91.99c0,1.31-0.47,2.43-1.4,3.36c-0.93,0.93-2.05,1.4-3.36,1.4s-2.43-0.47-3.36-1.4
			c-0.93-0.93-1.4-2.05-1.4-3.36V34.9c0-1.31,0.47-2.43,1.4-3.36c0.93-0.93,2.05-1.4,3.36-1.4s2.43,0.47,3.36,1.4
			c0.93,0.93,1.4,2.05,1.4,3.36v1.25c4.72-4,10.27-6.01,16.65-6.01c7.21,0,13.38,2.56,18.49,7.67c1.07,1.07,2.04,2.2,2.91,3.39
			c0.87-1.19,1.84-2.32,2.91-3.39c5.11-5.11,11.28-7.67,18.49-7.67s13.38,2.56,18.49,7.67c5.12,5.11,7.67,11.28,7.67,18.49v35.68
			c0,1.31-0.47,2.43-1.4,3.36c-0.93,0.93-2.05,1.4-3.36,1.4s-2.43-0.47-3.36-1.4c-0.93-0.93-1.4-2.05-1.4-3.36V56.31
			c0-4.6-1.63-8.52-4.88-11.77c-3.25-3.25-7.18-4.88-11.77-4.88s-8.52,1.63-11.77,4.88c-3.25,3.25-4.88,7.18-4.88,11.77v35.68
			c0,1.31-0.47,2.43-1.4,3.36c-0.93,0.93-2.05,1.4-3.36,1.4c-1.31,0-2.43-0.47-3.36-1.4c-0.93-0.93-1.4-2.05-1.4-3.36V56.31
			c0-4.6-1.63-8.52-4.88-11.77c-3.25-3.25-7.18-4.88-11.77-4.88c-4.6,0-8.52,1.63-11.77,4.88c-3.25,3.25-4.88,7.18-4.88,11.77V91.99
			z"/>
		<path class="st13" d="M201.38,34.9c0-1.31,0.46-2.43,1.4-3.36c0.93-0.93,2.05-1.4,3.36-1.4s2.43,0.47,3.36,1.4
			c0.93,0.93,1.4,2.05,1.4,3.36v3.87c5.95-5.75,13.08-8.62,21.41-8.62c8.52,0,15.81,3.02,21.85,9.07
			c6.04,6.05,9.07,13.33,9.07,21.85v30.92c0,1.31-0.47,2.43-1.4,3.36c-0.93,0.93-2.05,1.4-3.36,1.4c-1.31,0-2.43-0.47-3.36-1.4
			c-0.93-0.93-1.4-2.05-1.4-3.36V61.06c0-5.91-2.09-10.95-6.27-15.13c-4.18-4.18-9.23-6.27-15.13-6.27s-10.95,2.09-15.13,6.27
			c-4.18,4.18-6.27,9.23-6.27,15.13v30.92c0,1.31-0.47,2.43-1.4,3.36c-0.93,0.93-2.05,1.4-3.36,1.4s-2.43-0.47-3.36-1.4
			c-0.93-0.93-1.4-2.05-1.4-3.36V34.9z"/>
		<path class="st13" d="M285.9,15.87c0,1.63-0.58,3.02-1.75,4.19c-1.17,1.17-2.57,1.75-4.19,1.75c-1.63,0-3.02-0.58-4.19-1.75
			c-1.17-1.17-1.75-2.57-1.75-4.19c0-1.62,0.58-3.02,1.75-4.19c1.17-1.17,2.57-1.75,4.19-1.75c1.62,0,3.02,0.58,4.19,1.75
			C285.32,12.85,285.9,14.24,285.9,15.87z M275.2,34.9c0-1.31,0.47-2.43,1.4-3.36c0.93-0.93,2.05-1.4,3.36-1.4
			c1.31,0,2.43,0.47,3.36,1.4c0.93,0.93,1.4,2.05,1.4,3.36v57.09c0,1.31-0.47,2.43-1.4,3.36c-0.93,0.93-2.05,1.4-3.36,1.4
			c-1.31,0-2.43-0.47-3.36-1.4c-0.93-0.93-1.4-2.05-1.4-3.36V34.9z"/>
		<path class="st6" d="M80.01,106.26c1.31,0,2.43,0.47,3.36,1.4c0.93,0.93,1.4,2.05,1.4,3.36c0,1.31-0.47,2.43-1.4,3.36
			c-0.93,0.93-2.05,1.4-3.36,1.4H22.92c-1.31,0-2.43-0.47-3.36-1.4c-0.93-0.93-1.4-2.05-1.4-3.36c0-1.31,0.47-2.43,1.4-3.36
			c0.93-0.93,2.05-1.4,3.36-1.4H80.01z"/>
	</g>
</g>
<g id="product_logo_2_copy" class="st0">
	<g class="st2">
		<path class="st13" d="M84.77,63.44c0,9.2-3.25,17.05-9.75,23.55c-6.5,6.5-14.35,9.75-23.55,9.75c-9.2,0-17.05-3.25-23.55-9.75
			c-6.5-6.5-9.75-14.35-9.75-23.55c0-9.2,3.25-17.05,9.75-23.55c6.5-6.5,14.35-9.75,23.55-9.75c9.2,0,17.05,3.25,23.55,9.75
			C81.52,46.4,84.77,54.25,84.77,63.44z M51.47,39.66c-6.58,0-12.19,2.32-16.83,6.96c-4.64,4.64-6.96,10.25-6.96,16.83
			c0,6.58,2.32,12.19,6.96,16.83c4.64,4.64,10.25,6.96,16.83,6.96c6.58,0,12.19-2.32,16.83-6.96c4.64-4.64,6.96-10.25,6.96-16.83
			c0-6.58-2.32-12.19-6.96-16.83C63.66,41.98,58.05,39.66,51.47,39.66z"/>
		<path class="st13" d="M103.8,91.99c0,1.31-0.47,2.43-1.4,3.36c-0.93,0.93-2.05,1.4-3.36,1.4s-2.43-0.47-3.36-1.4
			c-0.93-0.93-1.4-2.05-1.4-3.36V34.9c0-1.31,0.47-2.43,1.4-3.36c0.93-0.93,2.05-1.4,3.36-1.4s2.43,0.47,3.36,1.4
			c0.93,0.93,1.4,2.05,1.4,3.36v1.25c4.72-4,10.27-6.01,16.65-6.01c7.21,0,13.38,2.56,18.49,7.67c1.07,1.07,2.04,2.2,2.91,3.39
			c0.87-1.19,1.84-2.32,2.91-3.39c5.11-5.11,11.28-7.67,18.49-7.67s13.38,2.56,18.49,7.67c5.12,5.11,7.67,11.28,7.67,18.49v35.68
			c0,1.31-0.47,2.43-1.4,3.36c-0.93,0.93-2.05,1.4-3.36,1.4s-2.43-0.47-3.36-1.4c-0.93-0.93-1.4-2.05-1.4-3.36V56.31
			c0-4.6-1.63-8.52-4.88-11.77c-3.25-3.25-7.18-4.88-11.77-4.88s-8.52,1.63-11.77,4.88c-3.25,3.25-4.88,7.18-4.88,11.77v35.68
			c0,1.31-0.47,2.43-1.4,3.36c-0.93,0.93-2.05,1.4-3.36,1.4c-1.31,0-2.43-0.47-3.36-1.4c-0.93-0.93-1.4-2.05-1.4-3.36V56.31
			c0-4.6-1.63-8.52-4.88-11.77c-3.25-3.25-7.18-4.88-11.77-4.88c-4.6,0-8.52,1.63-11.77,4.88c-3.25,3.25-4.88,7.18-4.88,11.77V91.99
			z"/>
		<path class="st13" d="M201.38,34.9c0-1.31,0.46-2.43,1.4-3.36c0.93-0.93,2.05-1.4,3.36-1.4s2.43,0.47,3.36,1.4
			c0.93,0.93,1.4,2.05,1.4,3.36v3.87c5.95-5.75,13.08-8.62,21.41-8.62c8.52,0,15.81,3.02,21.85,9.07
			c6.04,6.05,9.07,13.33,9.07,21.85v30.92c0,1.31-0.47,2.43-1.4,3.36c-0.93,0.93-2.05,1.4-3.36,1.4c-1.31,0-2.43-0.47-3.36-1.4
			c-0.93-0.93-1.4-2.05-1.4-3.36V61.06c0-5.91-2.09-10.95-6.27-15.13c-4.18-4.18-9.23-6.27-15.13-6.27s-10.95,2.09-15.13,6.27
			c-4.18,4.18-6.27,9.23-6.27,15.13v30.92c0,1.31-0.47,2.43-1.4,3.36c-0.93,0.93-2.05,1.4-3.36,1.4s-2.43-0.47-3.36-1.4
			c-0.93-0.93-1.4-2.05-1.4-3.36V34.9z"/>
		<path class="st13" d="M285.9,15.87c0,1.63-0.58,3.02-1.75,4.19c-1.17,1.17-2.57,1.75-4.19,1.75c-1.63,0-3.02-0.58-4.19-1.75
			c-1.17-1.17-1.75-2.57-1.75-4.19c0-1.62,0.58-3.02,1.75-4.19c1.17-1.17,2.57-1.75,4.19-1.75c1.62,0,3.02,0.58,4.19,1.75
			C285.32,12.85,285.9,14.24,285.9,15.87z M275.2,34.9c0-1.31,0.47-2.43,1.4-3.36c0.93-0.93,2.05-1.4,3.36-1.4
			c1.31,0,2.43,0.47,3.36,1.4c0.93,0.93,1.4,2.05,1.4,3.36v57.09c0,1.31-0.47,2.43-1.4,3.36c-0.93,0.93-2.05,1.4-3.36,1.4
			c-1.31,0-2.43-0.47-3.36-1.4c-0.93-0.93-1.4-2.05-1.4-3.36V34.9z"/>
		<path class="st6" d="M80.01,106.26c1.31,0,2.43,0.47,3.36,1.4c0.93,0.93,1.4,2.05,1.4,3.36c0,1.31-0.47,2.43-1.4,3.36
			c-0.93,0.93-2.05,1.4-3.36,1.4H22.92c-1.31,0-2.43-0.47-3.36-1.4c-0.93-0.93-1.4-2.05-1.4-3.36c0-1.31,0.47-2.43,1.4-3.36
			c0.93-0.93,2.05-1.4,3.36-1.4H80.01z"/>
	</g>
</g>
<g id="main_logo_00000103236330973322526150000010197286447891496845_" class="st0">
	<g class="st2">
		<path class="st13" d="M84.77,63.44c0,9.2-3.25,17.05-9.75,23.55c-6.5,6.5-14.35,9.75-23.55,9.75c-9.2,0-17.05-3.25-23.55-9.75
			c-6.5-6.5-9.75-14.35-9.75-23.55c0-9.2,3.25-17.05,9.75-23.55c6.5-6.5,14.35-9.75,23.55-9.75c9.2,0,17.05,3.25,23.55,9.75
			C81.52,46.4,84.77,54.25,84.77,63.44z M51.47,39.66c-6.58,0-12.19,2.32-16.83,6.96c-4.64,4.64-6.96,10.25-6.96,16.83
			c0,6.58,2.32,12.19,6.96,16.83c4.64,4.64,10.25,6.96,16.83,6.96c6.58,0,12.19-2.32,16.83-6.96c4.64-4.64,6.96-10.25,6.96-16.83
			c0-6.58-2.32-12.19-6.96-16.83C63.66,41.98,58.05,39.66,51.47,39.66z"/>
		<path class="st13" d="M103.8,91.99c0,1.31-0.47,2.43-1.4,3.36c-0.93,0.93-2.05,1.4-3.36,1.4s-2.43-0.47-3.36-1.4
			c-0.93-0.93-1.4-2.05-1.4-3.36V34.9c0-1.31,0.47-2.43,1.4-3.36c0.93-0.93,2.05-1.4,3.36-1.4s2.43,0.47,3.36,1.4
			c0.93,0.93,1.4,2.05,1.4,3.36v1.25c4.72-4,10.27-6.01,16.65-6.01c7.21,0,13.38,2.56,18.49,7.67c1.07,1.07,2.04,2.2,2.91,3.39
			c0.87-1.19,1.84-2.32,2.91-3.39c5.11-5.11,11.28-7.67,18.49-7.67s13.38,2.56,18.49,7.67c5.12,5.11,7.67,11.28,7.67,18.49v35.68
			c0,1.31-0.47,2.43-1.4,3.36c-0.93,0.93-2.05,1.4-3.36,1.4s-2.43-0.47-3.36-1.4c-0.93-0.93-1.4-2.05-1.4-3.36V56.31
			c0-4.6-1.63-8.52-4.88-11.77c-3.25-3.25-7.18-4.88-11.77-4.88s-8.52,1.63-11.77,4.88c-3.25,3.25-4.88,7.18-4.88,11.77v35.68
			c0,1.31-0.47,2.43-1.4,3.36c-0.93,0.93-2.05,1.4-3.36,1.4c-1.31,0-2.43-0.47-3.36-1.4c-0.93-0.93-1.4-2.05-1.4-3.36V56.31
			c0-4.6-1.63-8.52-4.88-11.77c-3.25-3.25-7.18-4.88-11.77-4.88c-4.6,0-8.52,1.63-11.77,4.88c-3.25,3.25-4.88,7.18-4.88,11.77V91.99
			z"/>
		<path class="st13" d="M201.38,34.9c0-1.31,0.46-2.43,1.4-3.36c0.93-0.93,2.05-1.4,3.36-1.4s2.43,0.47,3.36,1.4
			c0.93,0.93,1.4,2.05,1.4,3.36v3.87c5.95-5.75,13.08-8.62,21.41-8.62c8.52,0,15.81,3.02,21.85,9.07
			c6.04,6.05,9.07,13.33,9.07,21.85v30.92c0,1.31-0.47,2.43-1.4,3.36c-0.93,0.93-2.05,1.4-3.36,1.4c-1.31,0-2.43-0.47-3.36-1.4
			c-0.93-0.93-1.4-2.05-1.4-3.36V61.06c0-5.91-2.09-10.95-6.27-15.13c-4.18-4.18-9.23-6.27-15.13-6.27s-10.95,2.09-15.13,6.27
			c-4.18,4.18-6.27,9.23-6.27,15.13v30.92c0,1.31-0.47,2.43-1.4,3.36c-0.93,0.93-2.05,1.4-3.36,1.4s-2.43-0.47-3.36-1.4
			c-0.93-0.93-1.4-2.05-1.4-3.36V34.9z"/>
		<path class="st13" d="M285.9,15.87c0,1.63-0.58,3.02-1.75,4.19c-1.17,1.17-2.57,1.75-4.19,1.75c-1.63,0-3.02-0.58-4.19-1.75
			c-1.17-1.17-1.75-2.57-1.75-4.19c0-1.62,0.58-3.02,1.75-4.19c1.17-1.17,2.57-1.75,4.19-1.75c1.62,0,3.02,0.58,4.19,1.75
			C285.32,12.85,285.9,14.24,285.9,15.87z M275.2,34.9c0-1.31,0.47-2.43,1.4-3.36c0.93-0.93,2.05-1.4,3.36-1.4
			c1.31,0,2.43,0.47,3.36,1.4c0.93,0.93,1.4,2.05,1.4,3.36v57.09c0,1.31-0.47,2.43-1.4,3.36c-0.93,0.93-2.05,1.4-3.36,1.4
			c-1.31,0-2.43-0.47-3.36-1.4c-0.93-0.93-1.4-2.05-1.4-3.36V34.9z"/>
		<path class="st8" d="M80.01,106.26c1.31,0,2.43,0.47,3.36,1.4c0.93,0.93,1.4,2.05,1.4,3.36c0,1.31-0.47,2.43-1.4,3.36
			c-0.93,0.93-2.05,1.4-3.36,1.4H22.92c-1.31,0-2.43-0.47-3.36-1.4c-0.93-0.93-1.4-2.05-1.4-3.36c0-1.31,0.47-2.43,1.4-3.36
			c0.93-0.93,2.05-1.4,3.36-1.4H80.01z"/>
	</g>
</g>
<g id="main_logo_white" class="st0">
	<g class="st2">
		<path class="st3" d="M84.77,63.44c0,9.2-3.25,17.05-9.75,23.55c-6.5,6.5-14.35,9.75-23.55,9.75c-9.2,0-17.05-3.25-23.55-9.75
			c-6.5-6.5-9.75-14.35-9.75-23.55c0-9.2,3.25-17.05,9.75-23.55c6.5-6.5,14.35-9.75,23.55-9.75c9.2,0,17.05,3.25,23.55,9.75
			C81.52,46.4,84.77,54.25,84.77,63.44z M51.47,39.66c-6.58,0-12.19,2.32-16.83,6.96c-4.64,4.64-6.96,10.25-6.96,16.83
			c0,6.58,2.32,12.19,6.96,16.83c4.64,4.64,10.25,6.96,16.83,6.96c6.58,0,12.19-2.32,16.83-6.96c4.64-4.64,6.96-10.25,6.96-16.83
			c0-6.58-2.32-12.19-6.96-16.83C63.66,41.98,58.05,39.66,51.47,39.66z"/>
		<path class="st3" d="M103.8,91.99c0,1.31-0.47,2.43-1.4,3.36c-0.93,0.93-2.05,1.4-3.36,1.4s-2.43-0.47-3.36-1.4
			c-0.93-0.93-1.4-2.05-1.4-3.36V34.9c0-1.31,0.47-2.43,1.4-3.36c0.93-0.93,2.05-1.4,3.36-1.4s2.43,0.47,3.36,1.4
			c0.93,0.93,1.4,2.05,1.4,3.36v1.25c4.72-4,10.27-6.01,16.65-6.01c7.21,0,13.38,2.56,18.49,7.67c1.07,1.07,2.04,2.2,2.91,3.39
			c0.87-1.19,1.84-2.32,2.91-3.39c5.11-5.11,11.28-7.67,18.49-7.67s13.38,2.56,18.49,7.67c5.12,5.11,7.67,11.28,7.67,18.49v35.68
			c0,1.31-0.47,2.43-1.4,3.36c-0.93,0.93-2.05,1.4-3.36,1.4s-2.43-0.47-3.36-1.4c-0.93-0.93-1.4-2.05-1.4-3.36V56.31
			c0-4.6-1.63-8.52-4.88-11.77c-3.25-3.25-7.18-4.88-11.77-4.88s-8.52,1.63-11.77,4.88c-3.25,3.25-4.88,7.18-4.88,11.77v35.68
			c0,1.31-0.47,2.43-1.4,3.36c-0.93,0.93-2.05,1.4-3.36,1.4c-1.31,0-2.43-0.47-3.36-1.4c-0.93-0.93-1.4-2.05-1.4-3.36V56.31
			c0-4.6-1.63-8.52-4.88-11.77c-3.25-3.25-7.18-4.88-11.77-4.88c-4.6,0-8.52,1.63-11.77,4.88c-3.25,3.25-4.88,7.18-4.88,11.77V91.99
			z"/>
		<path class="st3" d="M201.38,34.9c0-1.31,0.46-2.43,1.4-3.36c0.93-0.93,2.05-1.4,3.36-1.4s2.43,0.47,3.36,1.4
			c0.93,0.93,1.4,2.05,1.4,3.36v3.87c5.95-5.75,13.08-8.62,21.41-8.62c8.52,0,15.81,3.02,21.85,9.07
			c6.04,6.05,9.07,13.33,9.07,21.85v30.92c0,1.31-0.47,2.43-1.4,3.36c-0.93,0.93-2.05,1.4-3.36,1.4c-1.31,0-2.43-0.47-3.36-1.4
			c-0.93-0.93-1.4-2.05-1.4-3.36V61.06c0-5.91-2.09-10.95-6.27-15.13c-4.18-4.18-9.23-6.27-15.13-6.27s-10.95,2.09-15.13,6.27
			c-4.18,4.18-6.27,9.23-6.27,15.13v30.92c0,1.31-0.47,2.43-1.4,3.36c-0.93,0.93-2.05,1.4-3.36,1.4s-2.43-0.47-3.36-1.4
			c-0.93-0.93-1.4-2.05-1.4-3.36V34.9z"/>
		<path class="st3" d="M285.9,15.87c0,1.63-0.58,3.02-1.75,4.19c-1.17,1.17-2.57,1.75-4.19,1.75c-1.63,0-3.02-0.58-4.19-1.75
			c-1.17-1.17-1.75-2.57-1.75-4.19c0-1.62,0.58-3.02,1.75-4.19c1.17-1.17,2.57-1.75,4.19-1.75c1.62,0,3.02,0.58,4.19,1.75
			C285.32,12.85,285.9,14.24,285.9,15.87z M275.2,34.9c0-1.31,0.47-2.43,1.4-3.36c0.93-0.93,2.05-1.4,3.36-1.4
			c1.31,0,2.43,0.47,3.36,1.4c0.93,0.93,1.4,2.05,1.4,3.36v57.09c0,1.31-0.47,2.43-1.4,3.36c-0.93,0.93-2.05,1.4-3.36,1.4
			c-1.31,0-2.43-0.47-3.36-1.4c-0.93-0.93-1.4-2.05-1.4-3.36V34.9z"/>
		<path class="st8" d="M80.01,106.26c1.31,0,2.43,0.47,3.36,1.4c0.93,0.93,1.4,2.05,1.4,3.36c0,1.31-0.47,2.43-1.4,3.36
			c-0.93,0.93-2.05,1.4-3.36,1.4H22.92c-1.31,0-2.43-0.47-3.36-1.4c-0.93-0.93-1.4-2.05-1.4-3.36c0-1.31,0.47-2.43,1.4-3.36
			c0.93-0.93,2.05-1.4,3.36-1.4H80.01z"/>
	</g>
</g>
<g id="color_palette" class="st0">
	<rect x="-29.79" y="266.69" class="st11" width="60.19" height="51.15"/>
	<rect x="46.1" y="266.69" class="st10" width="60.19" height="51.15"/>
	<rect x="121.99" y="266.69" class="st9" width="60.19" height="51.15"/>
	<rect x="199.15" y="266.69" class="st7" width="60.19" height="51.15"/>
	<rect x="-34.78" y="330.83" style="display:inline;fill:none;" width="72.49" height="19.11"/>
	<text transform="matrix(1 0 0 1 -19.8799 339.4169)" class="st2" style="font-family:'ArialMT'; font-size:12px;">00A1FF</text>
	<rect x="115.79" y="239.58" style="display:inline;fill:none;" width="72.49" height="19.11"/>
	<text transform="matrix(1 0 0 1 131.3669 248.1689)" class="st2" style="font-family:'ArialMT'; font-size:12px;">Primary</text>
	<rect x="115.79" y="391.11" style="display:inline;fill:none;" width="72.49" height="19.11"/>
	<text transform="matrix(1 0 0 1 123.3483 399.7022)" class="st2" style="font-family:'ArialMT'; font-size:12px;">Secondary</text>
	<rect x="39.95" y="330.83" style="display:inline;fill:none;" width="72.49" height="19.11"/>
	<text transform="matrix(1 0 0 1 55.8454 339.4169)" class="st2" style="font-family:'ArialMT'; font-size:12px;">3F4755</text>
	<rect x="115.84" y="330.83" style="display:inline;fill:none;" width="72.49" height="19.11"/>
	<text transform="matrix(1 0 0 1 128.4098 339.4169)" class="st2" style="font-family:'ArialMT'; font-size:12px;">A3ACBB</text>
	<rect x="191.74" y="330.83" style="display:inline;fill:none;" width="72.49" height="19.11"/>
	<text transform="matrix(1 0 0 1 206.3004 339.4169)" class="st2" style="font-family:'ArialMT'; font-size:12px;">E8BF43</text>
	<rect x="274.05" y="266.69" class="st1" width="60.19" height="51.15"/>
	<rect x="266.63" y="330.83" style="display:inline;fill:none;" width="72.49" height="19.11"/>
	<text transform="matrix(1 0 0 1 280.5343 339.4169)" class="st2" style="font-family:'ArialMT'; font-size:12px;">AA3F6B</text>
	<rect x="-29.79" y="417.86" class="st14" width="60.19" height="51.15"/>
	<rect x="46.1" y="417.86" class="st15" width="60.19" height="51.15"/>
	<rect x="121.99" y="417.86" class="st16" width="60.19" height="51.15"/>
	<rect x="197.89" y="417.86" class="st5" width="60.19" height="51.15"/>
	<rect x="273.78" y="417.86" class="st17" width="60.19" height="51.15"/>
	<rect x="-34.78" y="481.99" style="display:inline;fill:none;" width="72.49" height="19.11"/>
	<text transform="matrix(1 0 0 1 -19.2236 490.581)" class="st2" style="font-family:'ArialMT'; font-size:12px;">6773A2</text>
	<rect x="39.95" y="481.99" style="display:inline;fill:none;" width="72.49" height="19.11"/>
	<text transform="matrix(1 0 0 1 53.8561 490.581)" class="st2" style="font-family:'ArialMT'; font-size:12px;">3FF2DE</text>
	<rect x="115.84" y="481.99" style="display:inline;fill:none;" width="72.49" height="19.11"/>
	<text transform="matrix(1 0 0 1 130.0797 490.581)" class="st2" style="font-family:'ArialMT'; font-size:12px;">4EE8FF</text>
	<rect x="191.74" y="481.99" style="display:inline;fill:none;" width="72.49" height="19.11"/>
	<text transform="matrix(1 0 0 1 207.3023 490.581)" class="st2" style="font-family:'ArialMT'; font-size:12px;">FF5789</text>
	<rect x="266.36" y="481.99" style="display:inline;fill:none;" width="72.49" height="19.11"/>
	<text transform="matrix(1 0 0 1 281.9163 490.581)" class="st2" style="font-family:'ArialMT'; font-size:12px;">290E05</text>
</g>
</svg>
