<svg id="popsink" xmlns="http://www.w3.org/2000/svg" width="630" height="630" viewBox="0 0 630 630">
  <rect id="Rectangle_5" data-name="Rectangle 5" width="630" height="630" rx="32" fill="#757ae9"/>
  <g id="logo_reduced_-_white" data-name="logo reduced - white" transform="translate(72.329 165.996)">
    <path id="Path_1238" data-name="Path 1238" d="M1302.367-2104.163c-14.467-.09-26.141-6.595-26.141-21.383,0-14.762,11.674-21.264,26.141-21.354v-180.364h43.256v180.438h28.161c17.914,0,28.131-14.014,28.131-38.422V-2236.5a21.525,21.525,0,0,1,21.667-21.332h69.3c14.612,0,26.458,6.415,26.451,21.537s-11.844,21.126-26.451,21.126c-1.184,0-2.354.085-47.652,0v29.916c0,55.721-37.033,81.085-71.441,81.085h-71.416Z" transform="translate(-1076.657 2385.5)" fill="#fff"/>
    <path id="Path_1239" data-name="Path 1239" d="M1341.123-2299.245v-13.472h-16.245c-17.865,0-28.152,14.015-28.152,38.423v51.223a21.5,21.5,0,0,1-21.614,21.331c-76.308.085-77.964,0-77.964,0-12.521-.376-27.017-7.341-27.147-21.254,0-14.894,12.541-21.409,27.147-21.409h56.269v-29.891c0-55.719,37.047-81.111,71.462-81.111h82.464c14.607,0,26.442,6.464,26.442,21.358,0,14.774-11.648,21.228-26.095,21.329v13.473Z" transform="translate(-1127.329 2372.077)" fill="#fff"/>
  </g>
</svg>
