<svg xmlns="http://www.w3.org/2000/svg" viewBox="0 0 768 768" xml:space="preserve">
  <style>
    <![CDATA[
        [data-theme="dark"] path.quesma {
            fill: #FFF;
        }
        [data-theme="light"] path.quesma {
            fill: #000;
        }
    ]]>
  </style>
  <path class="quesma" d="M540.597 552.433c-2.434.405-3.155-1.344-4.14-2.594-12.824-16.265-23.934-33.64-33.806-51.84-1.685-3.106-1.135-4.735 1.484-7.082 32.221-28.883 53.791-64.467 60.065-107.234 10.437-71.14-14.694-128.864-71.704-172.28-24.749-18.847-53.41-28.919-84.372-32.179-3.746-.394-6.321-1.17-7.184-5.663-.963-5.023-6.011-8.162-11.237-8.16-5.514.003-10.09 3.166-11.385 8.61-.888 3.73-2.799 4.896-6.477 5.348-45.051 5.538-83.323 24.383-113.732 58.462-19.205 21.522-32.658 46.195-39.672 74.164-10.017 39.94-7.174 78.96 10.144 116.508 21.395 46.386 55.16 79.906 103.46 97.98.936.35 1.861.877 2.827.976 12.043 1.236 17.766 8.617 21.945 19.511 6.8 17.727 16.175 34.327 26.348 50.406 1.95 3.08 1.944 3.084 2.493 6.514-8.484 1.502-16.93.196-25.24-.869-34.789-4.457-67.436-15.429-97.354-33.868-55.756-34.363-92.547-83.287-111.265-145.941-8-26.777-10.503-54.24-8.888-81.965 2.23-38.261 12.201-74.65 31.93-107.58 38.967-65.039 95.286-106.993 170.505-119.871 93.005-15.923 171.35 13.011 233.592 83.61 31.13 35.309 49.531 77.387 55.921 123.996 8.935 65.166-5.811 124.925-43.955 178.776-14.09 19.891-31.44 36.564-50.303 52.265z"/>
  <path class="quesma" d="M410.812 560.081c-14.653-29.1-25.373-59.204-33.144-91.368 8.373 0 15.824.005 23.276-.001 11.68-.01 23.274-1.05 34.618-3.82 5.001-1.221 6.82.33 8.223 5.163 8.801 30.322 19.94 59.721 37.307 86.317 18.616 28.507 42.112 51.556 74.6 63.917 17.762 6.757 36.174 10.022 55.228 9.415 1.56-.05 3.28-.843 5.048.683-3.07 6.157-8.26 10.678-12.606 15.78-9.932 11.661-20.309 22.943-30.297 34.559-2.759 3.208-5.611 3.875-9.648 3.222-55.819-9.035-96.522-40.803-128.809-85.319-8.818-12.157-16.482-25.028-23.796-38.548zm-56.35-313.863c4.31-1.114 5.849.25 5.862 4.38.028 8.424.222 8.523-8.24 10.1-10.167 1.895-20.24 4.107-29.594 8.673-5.253 2.564-11.229 5.274-11.068 12.15.159 6.797 6.145 9.484 11.46 11.885 15.681 7.082 32.384 10.186 49.398 11.051 22.473 1.143 44.947.851 66.971-4.763 7.427-1.893 14.808-4.119 21.451-8.036 10.612-6.256 10.614-14.113.07-20.438-10.776-6.465-22.883-8.832-35.05-10.876-5.949-1-9.348-7.882-6.42-13.226.82-1.496 2.145-1.44 3.461-1.257 14.897 2.073 29.484 5.275 43.005 12.188 3.718 1.9 7.143 4.255 10.226 7.11 4.89 4.53 7.925 9.882 7.32 16.745-.35 3.976 1.377 5.258 5.188 5.276 7.585.035 15.188 1.74 22.678-1.225 2.674-1.059 5.326.13 7.022 2.548 1.586 2.262 1.512 4.738.012 7.037-1.739 2.665-4.497 4.092-7.32 2.786-7.71-3.57-15.755-1.36-23.62-1.974-2.162-.17-3.915.575-5.06 2.518-6.723 11.399-17.802 16.931-29.61 20.774-28.911 9.41-58.544 11.677-88.742 7.98-17.135-2.097-33.823-5.445-49.248-13.546-6.723-3.53-12.788-7.896-16.704-14.608-1.46-2.502-3.426-3.24-6.187-3.193-7.995.136-15.993.04-23.99.11-3.456.03-7.04.175-7.671-4.346-.454-3.248 2.965-5.215 8.181-5.057 7.488.227 14.981.345 22.464.686 3.615.164 5.05-1.16 5.067-4.884.043-8.828 4.172-15.545 11.402-20.478 14.148-9.654 30.4-13.117 47.286-16.09zM390 438.355c-24.321.123-47.682-2.646-69.935-11.678-7.093-2.879-13.948-6.315-19.076-12.41-2.928-3.482-4.524-7.227-4.382-11.83.167-5.418.04-10.844.04-17.047 17.556 19.573 40.547 24.077 63.887 27.247 27.977 3.8 55.755 2.349 83.162-4.848 14.522-3.813 28.165-9.107 37.885-21.488 2.545 2.38 1.39 5.032 1.484 7.373.114 2.825 1.09 4.338 4.094 4.41 7.91.19 15.838 1.955 23.662-1.115 2.856-1.12 5.629.025 7.44 2.663 1.458 2.122 1.391 4.382.118 6.595-1.639 2.848-4.46 4.174-7.223 3.016-7.923-3.322-16.11-1.346-24.156-1.88-2.043-.135-3.823.13-5.004 2.362-4.566 8.627-12.482 13.137-21.129 16.612-22.584 9.077-46.213 12.1-70.867 12.018z"/>
  <path class="quesma" d="M373.29 383.098c-14.872-1.503-29.249-3.052-43.084-7.717-8.881-2.994-17.482-6.509-24.999-12.253-5.76-4.402-9.19-9.86-8.639-17.506.357-4.955.067-9.957.067-16.543 5.603 7.26 11.254 12.345 18.315 15.76 14.387 6.956 29.612 10.777 45.374 12.921 12.582 1.712 25.207 2.388 37.86 1.843 19.345-.833 38.449-3.3 56.72-10.202 10.405-3.931 19.837-9.317 26.725-18.754 2.661 2.966 1.036 6.273 1.514 9.214 2.336 14.36-5.105 22.868-17.122 28.834-16.363 8.123-33.898 11.61-51.84 13.6-13.447 1.493-26.936 1.159-40.892.803zm20.938-146.104c.015 3.663.158 6.834.006 9.99-.16 3.316.683 5.988 2.926 8.631 4.09 4.819 3.553 11.018-.75 14.762-3.91 3.402-10.24 3.09-14.105-.697-3.885-3.807-3.915-10.467.396-14.807 2.36-2.375 3.03-4.864 3.001-8.029-.111-12.49-.054-24.981-.039-37.472.002-1.494-.064-3.031.254-4.47.416-1.88 1.486-3.374 3.691-3.465 1.95-.08 3.005 1.116 3.8 2.71.932 1.87.87 3.87.866 5.868-.014 8.827-.03 17.654-.046 26.98z"/>
</svg>
