<svg preserveAspectRatio="xMidYMid" viewBox="-7.5 0 271 271" xmlns="http://www.w3.org/2000/svg"><path d="m245.44 108.308h-85.09a7.738 7.738 0 0 1 -7.735-7.734v-88.68c0-6.567-5.325-11.894-11.889-11.894h-30.375c-6.568 0-11.89 5.327-11.89 11.894v88.143c0 4.573-3.697 8.29-8.27 8.31l-27.885.133c-4.612.025-8.359-3.717-8.35-8.325l.173-88.241c.015-6.577-5.312-11.914-11.889-11.914h-30.35c-6.569 0-11.89 5.327-11.89 11.894v248.316c0 5.834 4.726 10.56 10.555 10.56h234.885c5.834 0 10.56-4.726 10.56-10.56v-141.342c0-5.834-4.726-10.56-10.56-10.56zm-39.902 93.233c0 7.645-6.198 13.844-13.843 13.844h-24.005c-7.646 0-13.844-6.199-13.844-13.844v-24.005c0-7.646 6.198-13.844 13.844-13.844h24.005c7.645 0 13.843 6.198 13.843 13.844z" fill="#f60"/></svg>
