<svg width="362" height="222" viewBox="0 0 362 222" fill="none" xmlns="http://www.w3.org/2000/svg">
<path d="M238.239 0.410156H193.369V41.7302H238.239V0.410156Z" fill="#3525c8"/>
<path d="M316.179 0.410156L316.339 221.59H361.389V0.410156H316.179Z" fill="#3525c8"/>
<path d="M254.759 221.59H299.819V0.410156H254.609L254.759 221.59Z" fill="#3525c8"/>
<path d="M161.909 119.72C172.779 106.7 178.219 91.4702 178.219 74.0302C178.219 52.0702 171.329 34.3202 157.559 20.7502C143.779 7.19015 125.269 0.410156 102.019 0.410156H0.609375L23.9094 46.2602H94.5894C105.349 46.2602 113.579 49.0101 119.289 54.4901C124.989 59.9801 127.849 67.1401 127.849 75.9601C127.849 84.7801 124.729 91.6201 118.489 97.1101C112.239 102.6 103.739 105.34 92.9794 105.34H16.0793V146.35V221.58H57.7794V146.35L122.999 221.58H188.219L117.829 144.73C136.339 141.07 151.029 132.73 161.899 119.71L161.909 119.72Z" fill="#3525c8"/>
<path d="M238.239 58.1001H193.369V221.59H238.239V58.1001Z" fill="#3525c8"/>
</svg>
