<?xml version="1.0" encoding="UTF-8"?>
<svg id="Layer_1" data-name="Layer 1" xmlns="http://www.w3.org/2000/svg" viewBox="0 0 418.24 329.51">
  <defs>
    <style>
      .cls-1 {
        fill: #005eec;
      }
    </style>
  </defs>
  <path class="cls-1" d="m211.66,178.55c-10.25-25.86-12.59-52.42-8.19-75.78-29.98,42.24-20.57,100.87,21.37,131.55,17.1,12.51,36.99,18.46,56.67,18.32-29.08-11.43-55.54-37.97-69.85-74.09Z"/>
  <path class="cls-1" d="m178.35,218.13c-28.15-62.74-7.98-132.89,45.05-156.69,20.46-9.18,42.82-10.12,64.19-4.21-78.52-35.59-163.91-16.61-190.97,42.56-27.13,59.33,14.67,136.59,93.36,172.57,20.22,9.25,40.91,14.86,60.96,17.1-30.02-11.56-57.04-36.69-72.59-71.33Z"/>
  <path class="cls-1" d="m232.29,83.8c14.37,1.7,25.41,12.6,27.92,26.12,2.41,13.65,13.49,24.7,27.97,26.41,17.69,2.09,33.72-10.55,35.81-28.23,1.7-14.33-6.28-27.57-18.77-33.19-1.55-.68-3.13-1.3-4.72-1.89-8.34-2.57-17.19-3.86-26.36-4.04-19.31-.36-37.62,5.11-52.42,15.21,2.82-.44,7.61-.74,10.58-.39Z"/>
  <path class="cls-1" d="m274.47,186.71c-29.39-21.5-46.55-52.86-49.22-83.94-8.61,30.21-1.56,64.57,21.58,90.19,33.04,36.58,87.15,42.32,124.83,14.7-30.95,7.75-67.06,1.09-97.19-20.95Z"/>
  <path class="cls-1" d="m85.29,94.01c-27.61,21.44-42.92,52.19-37.7,83.25,6.27,37.36,45.18,67.83,82.54,75.37-44.55-32-81.58-92.64-44.83-158.62Z"/>
</svg>