<svg enable-background="new 0 0 841.9 595.3" viewBox="0 0 479.89998 481.70002" xmlns="http://www.w3.org/2000/svg"><g transform="translate(-181 -56.8)"><path d="m660.9 90.7c0-4.7-1-9.2-2.8-13.2-4.3-12-15.8-20.7-29.2-20.7h-415.9c-13.5 0-25 8.7-29.2 20.7-1.8 4.1-2.8 8.6-2.8 13.3v413.6c0 4.4.9 8.6 2.5 12.5 4 12.5 15.7 21.6 29.5 21.6h415.9c13.7 0 25.4-9.1 29.5-21.5 1.6-3.9 2.5-8.2 2.5-12.6v-413.7z" fill="#0f2647"/><g><path d="m485.4 400.7-53.5 1.3-20.2 46.3-52.5 13.7-32.9 30h264.7c13.7 0 24.9-11.2 24.9-24.9v-131.5l-93.9 23.4zm-192.9 3.9-44.5 38.2c-.4-2.7-1.5-5.5-3.4-7.8l-23.4 19.7c5 5.9 13.3 7 19.7 3.1l43.5-19.7zm258.5-134.3 5.4 14.2c8.3-2.1 21.2-11.3 30.2-18.4-.3 2.5-.2 5 .7 7.4l28.7-10.6c-3-7.9-11.7-11.9-19.7-9-.2.1-.5.2-.7.4l.1-.1zm49.5 24h-.2l-52.6-4.5-12-31.5v-33.4c2.4 1.3 5 2.1 7.9 2.1 8.7 0 15.8-6.7 16.6-15.1l12.6-8.3-.6-16.9c-.1-1.7-1.4-3.1-3.1-3.1l-15.7-.2c-3.3-4.6-9.4-6.6-14.8-4.1l-34.5 16.2c.1.1.1.2.1.3 1.2 2.4 2.9 4.2 5 5.5-42.1 21.7-59.9 51.1-59.9 51.1l-160.8 86.6c-9.4 5-21.2 1.5-26.3-7.9-5-9.4-1.5-21.2 7.9-26.3l45.6-24.5c11.6-6.2 18.3-17.8 19.2-29.9l-27.3 14.7-45.6 24.5c-17.8 9.6-24.5 31.9-15 49.7 6.6 12.3 19.3 19.3 32.4 19.3 5.9 0 11.8-1.4 17.3-4.4l20.6-11.1c-1.5 8.1-.8 16.8 2.4 25 1.1 2.8 1.8 4.5 1.8 4.5 7.3 15.8-2.3 28.2-14.9 28.2h-4l-14.5 63c-1.9-2-4.4-3.5-7.3-4.2l-7.2 29.7c7.3 1.7 14.5-2 17.4-8.6l32.8-58.8c41.5-4 63.3-32.1 62.3-71.7 43 2.6 100.2-24.4 125.7-61.3 19.3 24.5 55.9 21.1 72.1 14.9l3.1-1.1c-1.2 2.1-1.8 4.6-1.8 7.3l30.6-.3c-.1-8.8-6.9-15.5-15.3-15.4zm-285-55.7c1.5 2.8 2.2 5.8 2.3 8.8l16.1-8.7c-.7-2.8-1.7-5.6-3.2-8.3l-.8-1.6-15.2 8.2zm-5.9-10.9 15.2-8.2-2-3.6c-2.2-4.2-7.5-5.8-11.7-3.6s-5.8 7.5-3.6 11.7z" fill="#ffbe00"/><path d="m542.8 187.4c-2.7 0-4.9 2.2-4.9 5 0 2.7 2.2 5 4.9 5s5-2.2 5-5-2.3-5-5-5zm-28.8 36.9c-1.2.7-1.9 1.6-1.9 1.6s2.1 2.4 4.6 2.4 4.6-2.4 4.6-2.4-.7-.9-1.9-1.6c1.8-.7 3.1-1.9 3.1-1.9s-1.2-1.2-3.1-1.9c1.2-.7 1.9-1.6 1.9-1.6s-2.1-2.4-4.6-2.4-4.6 2.4-4.6 2.4.7.9 1.9 1.6c-1.8.7-3.1 1.9-3.1 1.9s1.3 1.3 3.1 1.9zm-16.7 6.1s-2.1-2.4-4.6-2.4c-2.6 0-4.6 2.4-4.6 2.4s.7.9 1.9 1.6c-1.8.7-3.1 1.9-3.1 1.9s1.2 1.2 3.1 1.9c-1.2.7-1.9 1.6-1.9 1.6s2.1 2.4 4.6 2.4c2.6 0 4.6-2.4 4.6-2.4s-.7-.9-1.9-1.6c1.8-.7 3.1-1.9 3.1-1.9s-1.2-1.2-3.1-1.9c1.2-.8 1.9-1.6 1.9-1.6zm22 23.4s-.7-.9-1.9-1.6c1.8-.7 3.1-1.9 3.1-1.9s-1.2-1.2-3.1-1.9c1.2-.7 1.9-1.6 1.9-1.6s-2.1-2.4-4.6-2.4-4.6 2.4-4.6 2.4.7.9 1.9 1.6c-1.8.7-3.1 1.9-3.1 1.9s1.2 1.2 3.1 1.9c-1.2.7-1.9 1.6-1.9 1.6s2.1 2.4 4.6 2.4 4.6-2.4 4.6-2.4zm-25 8.3c1.2-.7 1.9-1.6 1.9-1.6s-2.1-2.4-4.6-2.4-4.6 2.4-4.6 2.4.7.9 1.9 1.6c-1.8.7-3.1 1.9-3.1 1.9s1.2 1.2 3.1 1.9c-1.2.7-1.9 1.6-1.9 1.6s2.1 2.4 4.6 2.4 4.6-2.4 4.6-2.4-.7-.9-1.9-1.6c1.8-.7 3.1-1.9 3.1-1.9s-1.2-1.1-3.1-1.9zm-23.7-7.2c1.2-.7 1.9-1.6 1.9-1.6s-2.1-2.4-4.6-2.4c-2.6 0-4.6 2.4-4.6 2.4s.7.9 1.9 1.6c-1.8.7-3.1 1.9-3.1 1.9s1.2 1.2 3.1 1.9c-1.2.7-1.9 1.6-1.9 1.6s2.1 2.4 4.6 2.4c2.6 0 4.6-2.4 4.6-2.4s-.7-.9-1.9-1.6c1.8-.7 3.1-1.9 3.1-1.9s-1.2-1.1-3.1-1.9zm-9.1 28.1s-.7-.9-1.9-1.6c1.8-.7 3.1-1.9 3.1-1.9s-1.2-1.2-3.1-1.9c1.2-.7 1.9-1.6 1.9-1.6s-2.1-2.4-4.6-2.4c-2.6 0-4.6 2.4-4.6 2.4s.7.9 1.9 1.6c-1.8.7-3.1 1.9-3.1 1.9s1.2 1.2 3.1 1.9c-1.2.7-1.9 1.6-1.9 1.6s2.1 2.4 4.6 2.4 4.6-2.4 4.6-2.4zm-40.6 4.1s2.1 2.4 4.6 2.4 4.6-2.4 4.6-2.4-.7-.9-1.9-1.6c1.8-.7 3.1-1.9 3.1-1.9s-1.2-1.2-3.1-1.9c1.2-.7 1.9-1.6 1.9-1.6s-2.1-2.4-4.6-2.4-4.6 2.4-4.6 2.4.7.9 1.9 1.6c-1.8.7-3.1 1.9-3.1 1.9s1.2 1.2 3.1 1.9c-1.2.8-1.9 1.6-1.9 1.6zm22.3 14.3c1.2-.7 1.9-1.6 1.9-1.6s-2.1-2.4-4.6-2.4c-2.6 0-4.6 2.4-4.6 2.4s.7.9 1.9 1.6c-1.8.7-3.1 1.9-3.1 1.9s1.2 1.2 3.1 1.9c-1.2.7-1.9 1.6-1.9 1.6s2.1 2.4 4.6 2.4c2.6 0 4.6-2.4 4.6-2.4s-.7-.9-1.9-1.6c1.8-.7 3.1-1.9 3.1-1.9s-1.3-1.3-3.1-1.9zm24.5 5.3c1.2-.7 1.9-1.6 1.9-1.6s-2.1-2.4-4.6-2.4c-2.6 0-4.6 2.4-4.6 2.4s.7.9 1.9 1.6c-1.8.7-3.1 1.9-3.1 1.9s1.2 1.2 3.1 1.9c-1.2.7-1.9 1.6-1.9 1.6s2.1 2.4 4.6 2.4c2.6 0 4.6-2.4 4.6-2.4s-.7-.9-1.9-1.6c1.8-.7 3.1-1.9 3.1-1.9s-1.3-1.1-3.1-1.9zm20-19.3c1.2-.7 1.9-1.6 1.9-1.6s-2.1-2.4-4.6-2.4c-2.6 0-4.6 2.4-4.6 2.4s.7.9 1.9 1.6c-1.8.7-3.1 1.9-3.1 1.9s1.2 1.2 3.1 1.9c-1.2.7-1.9 1.6-1.9 1.6s2.1 2.4 4.6 2.4c2.6 0 4.6-2.4 4.6-2.4s-.7-.9-1.9-1.6c1.8-.7 3.1-1.9 3.1-1.9s-1.3-1.2-3.1-1.9zm35.8-16.1c1.2-.7 1.9-1.6 1.9-1.6s-2.1-2.4-4.6-2.4-4.6 2.4-4.6 2.4.7.9 1.9 1.6c-1.8.7-3.1 1.9-3.1 1.9s1.2 1.2 3.1 1.9c-1.2.7-1.9 1.6-1.9 1.6s2.1 2.4 4.6 2.4 4.6-2.4 4.6-2.4-.7-.9-1.9-1.6c1.8-.7 3.1-1.9 3.1-1.9s-1.3-1.3-3.1-1.9zm-117.6 30.4c1.2-.7 1.9-1.6 1.9-1.6s-2.1-2.4-4.6-2.4-4.6 2.4-4.6 2.4.7.9 1.9 1.6c-1.8.7-3.1 1.9-3.1 1.9s1.2 1.2 3.1 1.9c-1.2.7-1.9 1.6-1.9 1.6s2.1 2.4 4.6 2.4 4.6-2.4 4.6-2.4-.7-.9-1.9-1.6c1.8-.7 3.1-1.9 3.1-1.9s-1.3-1.2-3.1-1.9zm23.8 23.5c1.2-.7 1.9-1.6 1.9-1.6s-2.1-2.4-4.6-2.4-4.6 2.4-4.6 2.4.7.9 1.9 1.6c-1.8.7-3.1 1.9-3.1 1.9s1.2 1.2 3.1 1.9c-1.2.7-1.9 1.6-1.9 1.6s2.1 2.4 4.6 2.4 4.6-2.4 4.6-2.4-.7-.9-1.9-1.6c1.8-.7 3.1-1.9 3.1-1.9s-1.2-1.2-3.1-1.9zm-30.4 4.3c1.2-.7 1.9-1.6 1.9-1.6s-2.1-2.4-4.6-2.4c-2.6 0-4.6 2.4-4.6 2.4s.7.9 1.9 1.6c-1.8.7-3.1 1.9-3.1 1.9s1.2 1.2 3.1 1.9c-1.2.7-1.9 1.6-1.9 1.6s2.1 2.4 4.6 2.4c2.6 0 4.6-2.4 4.6-2.4s-.7-.9-1.9-1.6c1.8-.7 3.1-1.9 3.1-1.9s-1.2-1.2-3.1-1.9zm-24.8-17.5c1.2-.7 1.9-1.6 1.9-1.6s-2.1-2.4-4.6-2.4c-2.6 0-4.6 2.4-4.6 2.4s.7.9 1.9 1.6c-1.8.7-3.1 1.9-3.1 1.9s1.2 1.2 3.1 1.9c-1.2.7-1.9 1.6-1.9 1.6s2.1 2.4 4.6 2.4c2.6 0 4.6-2.4 4.6-2.4s-.7-.9-1.9-1.6c1.8-.7 3.1-1.9 3.1-1.9s-1.2-1.2-3.1-1.9zm-35.2 22.7c-1.2.7-1.9 1.6-1.9 1.6s2.1 2.4 4.6 2.4 4.6-2.4 4.6-2.4-.7-.9-1.9-1.6c1.8-.7 3.1-1.9 3.1-1.9s-1.2-1.2-3.1-1.9c1.2-.7 1.9-1.6 1.9-1.6s-2.1-2.4-4.6-2.4-4.6 2.4-4.6 2.4.7.9 1.9 1.6c-1.8.7-3.1 1.9-3.1 1.9s1.3 1.1 3.1 1.9zm31.7 8.4c1.2-.7 1.9-1.6 1.9-1.6s-2.1-2.4-4.6-2.4c-2.6 0-4.6 2.4-4.6 2.4s.7.9 1.9 1.6c-1.8.7-3.1 1.9-3.1 1.9s1.2 1.2 3.1 1.9c-1.2.7-1.9 1.6-1.9 1.6s2.1 2.4 4.6 2.4c2.6 0 4.6-2.4 4.6-2.4s-.7-.9-1.9-1.6c1.8-.7 3.1-1.9 3.1-1.9s-1.3-1.3-3.1-1.9zm-5.2 25.8c1.2-.7 1.9-1.6 1.9-1.6s-2.1-2.4-4.6-2.4c-2.6 0-4.6 2.4-4.6 2.4s.7.9 1.9 1.6c-1.8.7-3.1 1.9-3.1 1.9s1.2 1.2 3.1 1.9c-1.2.7-1.9 1.6-1.9 1.6s2.1 2.4 4.6 2.4c2.6 0 4.6-2.4 4.6-2.4s-.7-.9-1.9-1.6c1.8-.7 3.1-1.9 3.1-1.9s-1.3-1.2-3.1-1.9zm-24.1-3.8s-.7-.9-1.9-1.6c1.8-.7 3.1-1.9 3.1-1.9s-1.2-1.2-3.1-1.9c1.2-.7 1.9-1.6 1.9-1.6s-2.1-2.4-4.6-2.4c-2.6 0-4.6 2.4-4.6 2.4s.7.9 1.9 1.6c-1.8.7-3.1 1.9-3.1 1.9s1.2 1.2 3.1 1.9c-1.2.7-1.9 1.6-1.9 1.6s2.1 2.4 4.6 2.4c2.4.1 4.6-2.4 4.6-2.4zm6.2 24.4c1.2-.7 1.9-1.6 1.9-1.6s-2.1-2.4-4.6-2.4c-2.6 0-4.6 2.4-4.6 2.4s.7.9 1.9 1.6c-1.8.7-3.1 1.9-3.1 1.9s1.2 1.2 3.1 1.9c-1.2.7-1.9 1.6-1.9 1.6s2.1 2.4 4.6 2.4c2.6 0 4.6-2.4 4.6-2.4s-.7-.9-1.9-1.6c1.8-.7 3.1-1.9 3.1-1.9s-1.2-1.2-3.1-1.9z" fill="#0f2647"/></g></g></svg>
