<svg version="1.0" xmlns="http://www.w3.org/2000/svg"
 width="100%" height="100%" viewBox="0 0 3000.000000 3000.000000"
 preserveAspectRatio="xMidYMid meet">

<g transform="translate(0.000000,3000.000000) scale(0.100000,-0.100000)"
fill="#06f" stroke="none">
<path d="M0 15000 l0 -15000 15000 0 15000 0 0 15000 0 15000 -15000 0 -15000
0 0 -15000z m27750 10125 l0 -2305 -2310 0 c-1270 0 -2310 4 -2310 8 0 8 4607
4602 4616 4602 2 0 4 -1037 4 -2305z m-22815 -374 c1062 -1057 1932 -1926
1933 -1932 2 -5 -866 -9 -2307 -9 l-2311 0 0 2307 0 2308 378 -376 c207 -207
1245 -1241 2307 -2298z m18090 -2022 c-299 -302 -7989 -7965 -7996 -7967 -7
-3 -8099 8054 -8099 8064 0 2 3644 4 8097 4 l8098 0 -100 -101z m1553 -1346
c560 -593 943 -1227 1191 -1972 190 -571 270 -1110 258 -1740 -11 -588 -107
-1114 -302 -1651 -553 -1525 -1770 -2699 -3316 -3198 -1320 -426 -2777 -307
-4007 328 -427 221 -839 510 -1150 806 l-83 79 504 510 504 510 94 -84 c402
-357 848 -615 1349 -780 1153 -381 2429 -182 3415 533 222 161 513 433 688
645 679 820 981 1895 827 2946 -113 770 -452 1470 -989 2038 -67 71 -121 132
-121 136 0 11 990 1031 1000 1031 5 0 67 -62 138 -137z m-17984 -692 l219
-220 -94 -103 c-177 -193 -270 -312 -402 -514 -318 -486 -512 -1025 -589
-1634 -21 -166 -18 -700 5 -870 88 -649 307 -1211 672 -1725 235 -330 542
-639 868 -873 916 -657 2092 -874 3182 -587 616 163 1197 486 1632 909 l72 69
508 -503 c279 -277 509 -508 511 -514 5 -19 -281 -277 -473 -427 -815 -635
-1783 -1008 -2824 -1089 -172 -13 -620 -13 -787 0 -669 53 -1294 221 -1884
507 -552 267 -1008 590 -1435 1018 -804 804 -1330 1868 -1474 2985 -58 447
-60 901 -5 1340 96 773 384 1547 819 2205 171 260 335 466 569 717 l99 107
296 -289 c163 -159 395 -388 515 -509z m2770 -2818 c754 -751 1371 -1371 1371
-1378 0 -15 -101 -107 -200 -181 -466 -350 -1074 -471 -1645 -329 -460 115
-877 408 -1138 800 -174 260 -274 525 -318 840 -19 141 -15 417 9 555 56 317
183 610 375 860 57 75 161 196 171 199 2 0 620 -614 1375 -1366z m12993 1287
c255 -276 419 -608 488 -985 23 -123 31 -422 15 -549 -106 -868 -752 -1548
-1612 -1696 -580 -100 -1189 76 -1633 473 l-50 44 125 130 c707 733 2586 2663
2591 2661 4 -2 38 -37 76 -78z m-5736 -7949 l1634 -1630 -3273 0 c-2014 -1
-3272 3 -3270 8 5 14 3259 3251 3268 3251 4 0 742 -733 1641 -1629z m3764
-4831 c28 -14 74 -48 103 -77 173 -172 130 -445 -90 -564 -59 -32 -69 -34
-158 -34 -83 0 -102 3 -150 27 -31 15 -77 49 -103 75 -185 185 -118 484 132
584 66 27 197 21 266 -11z m-17169 -100 c620 -106 1164 -587 1359 -1201 52
-166 67 -262 72 -464 4 -161 2 -208 -16 -312 -74 -436 -322 -841 -680 -1112
-149 -112 -318 -204 -474 -257 l-71 -24 -778 0 -778 0 0 1695 0 1695 624 0
c580 0 632 -1 742 -20z m10844 -1675 l0 -1695 -330 0 -330 0 0 1695 0 1695
330 0 330 0 0 -1695z m9412 0 l-2 -1695 -248 0 -248 0 -38 89 -38 89 -71 -54
c-40 -30 -102 -70 -138 -89 l-67 -35 -441 0 -441 0 -68 34 c-213 108 -401 301
-519 532 -104 204 -146 382 -147 624 0 186 15 290 64 441 66 201 164 363 310
510 387 391 949 458 1378 166 l82 -56 0 569 0 570 318 0 317 0 -3 -1695z
m-14972 1065 l0 -300 275 0 275 0 0 -290 0 -290 -275 0 -275 0 0 -554 c0 -525
1 -557 20 -618 25 -82 81 -147 158 -185 52 -26 66 -28 172 -28 63 0 127 3 143
8 l27 7 0 -255 0 -255 -358 0 -359 0 -63 41 c-163 105 -292 292 -343 499 -31
121 -37 253 -37 798 l0 542 -190 0 -190 0 0 265 0 265 118 0 c151 0 208 16
266 74 70 69 79 107 84 361 l4 220 274 -3 274 -3 0 -299z m-2200 -280 c428
-53 746 -341 831 -755 17 -83 19 -149 19 -907 l0 -818 -248 0 -248 0 -38 89
-38 89 -71 -54 c-40 -30 -102 -70 -138 -89 l-67 -35 -454 0 -453 0 -65 38
c-94 55 -188 153 -237 248 -62 118 -77 186 -77 339 0 145 14 215 65 325 150
321 571 495 1252 517 l187 6 0 27 c0 99 -53 231 -119 297 -108 107 -297 142
-453 83 -80 -30 -160 -104 -199 -186 l-30 -64 -312 2 -312 3 3 30 c23 222 179
479 378 621 213 152 538 229 824 194z m4390 0 c274 -36 505 -163 656 -363 58
-77 135 -236 165 -342 23 -80 23 -82 26 -927 l4 -848 -249 0 -249 0 -38 89
-38 89 -56 -44 c-31 -24 -92 -64 -136 -89 l-80 -45 -453 0 -453 0 -47 24
c-151 79 -269 228 -318 406 -25 90 -25 308 0 400 70 256 265 431 596 534 206
64 406 93 703 103 l187 6 0 31 c0 52 -29 157 -57 209 -37 67 -121 141 -190
167 -115 43 -265 35 -371 -19 -58 -29 -119 -96 -153 -167 l-30 -64 -309 0
c-170 0 -311 3 -313 8 -9 15 31 179 62 253 62 148 182 298 317 395 212 152
543 230 824 194z m5460 -1 c496 -61 816 -400 870 -920 6 -60 10 -397 10 -830
l0 -729 -320 0 -320 0 0 713 c0 782 0 778 -61 899 -43 84 -136 176 -219 215
-264 124 -574 26 -695 -221 -62 -125 -64 -151 -65 -918 l0 -688 -315 0 -315 0
0 1230 0 1230 234 0 234 0 52 -117 c29 -65 54 -119 56 -121 1 -2 31 17 66 43
34 26 117 73 183 105 212 105 388 136 605 109z m2536 -14 c395 -75 655 -326
723 -697 l8 -48 -303 0 -304 0 -14 35 c-25 58 -109 139 -179 171 -48 22 -81
29 -144 32 -172 8 -286 -62 -313 -195 -11 -49 -10 -58 12 -101 40 -82 107
-111 513 -226 384 -108 583 -234 683 -434 58 -117 76 -206 70 -356 -5 -103
-10 -133 -37 -205 -17 -46 -49 -112 -71 -146 -66 -102 -196 -217 -307 -274
-41 -21 -51 -21 -543 -21 l-500 0 -69 34 c-148 75 -277 208 -351 361 -40 82
-90 252 -90 306 l0 29 299 0 299 0 17 -49 c42 -127 138 -211 273 -240 219 -46
430 68 450 244 8 74 -42 135 -148 183 -30 13 -158 52 -285 87 -263 72 -347
101 -460 157 -251 125 -376 303 -392 558 -22 357 217 668 595 775 48 14 119
29 157 34 93 13 310 6 411 -14z m6750 1 c416 -83 750 -378 898 -794 63 -177
90 -428 66 -620 l-12 -102 -879 0 c-557 0 -879 -4 -879 -10 0 -27 48 -133 86
-191 69 -104 160 -169 294 -210 96 -30 271 -32 370 -6 91 24 180 70 238 122
l51 46 328 -1 c258 0 327 -3 325 -12 -2 -7 -19 -47 -38 -88 -89 -188 -249
-372 -429 -492 -175 -117 -120 -108 -658 -108 l-467 0 -88 44 c-344 174 -593
502 -678 896 -26 119 -26 390 -1 510 54 253 164 463 339 646 186 194 444 333
693 373 39 6 81 13 95 15 46 8 274 -4 346 -18z m2755 9 c5 -4 9 -140 9 -336
l0 -329 -27 7 c-16 3 -75 7 -133 7 -81 0 -121 -5 -175 -21 -173 -54 -296 -189
-340 -374 -12 -54 -15 -171 -15 -746 l0 -683 -320 0 -320 0 0 1230 0 1230 238
0 237 0 18 -50 c10 -27 34 -88 53 -135 l36 -84 26 31 c15 17 60 58 101 90 158
126 323 182 509 173 51 -2 97 -7 103 -10z m-7651 -1245 l0 -1230 -315 0 -315
0 0 1230 0 1230 315 0 315 0 0 -1230z"/>
<path d="M2510 4575 l0 -1097 303 5 c327 4 352 7 501 68 162 66 342 207 456
357 68 90 154 265 186 382 35 129 44 344 19 475 -41 222 -138 412 -292 576
-92 97 -180 161 -308 224 -183 90 -221 97 -567 102 l-298 5 0 -1097z"/>
<path d="M22102 4770 c-200 -53 -357 -204 -427 -411 -37 -112 -47 -305 -20
-425 43 -199 163 -363 327 -444 83 -41 199 -69 283 -69 85 0 200 28 283 69 98
49 189 133 244 225 129 214 135 531 15 760 -42 80 -164 202 -244 243 -135 71
-313 91 -461 52z"/>
<path d="M6245 3933 c-299 -24 -456 -72 -537 -161 -43 -48 -58 -94 -58 -180 0
-140 103 -245 267 -274 56 -9 85 -8 160 4 124 21 208 62 289 140 106 102 154
224 154 393 l0 85 -117 -2 c-65 -1 -136 -3 -158 -5z"/>
<path d="M10635 3933 c-440 -36 -595 -122 -598 -332 -2 -107 55 -196 160 -249
157 -80 404 -33 552 104 107 99 150 199 158 372 l6 112 -119 -2 c-65 -1 -137
-3 -159 -5z"/>
<path d="M25055 4775 c-207 -45 -377 -206 -439 -414 -9 -30 -16 -56 -16 -58 0
-2 271 -3 601 -3 l602 0 -6 28 c-31 153 -152 314 -295 390 -124 66 -302 89
-447 57z"/>
</g>
</svg>
