<?xml version="1.0" encoding="UTF-8" standalone="no"?>
<svg
   id="Layer_1"
   data-name="Layer 1"
   viewBox="0 0 4626.5316 499.99998"
   version="1.1"
   sodipodi:docname="Rudderstack_Logo refresh_Superside-03.svg"
   inkscape:version="1.1.1 (3bf5ae0d25, 2021-09-20)"
   xmlns:inkscape="http://www.inkscape.org/namespaces/inkscape"
   xmlns:sodipodi="http://sodipodi.sourceforge.net/DTD/sodipodi-0.dtd"
   xmlns="http://www.w3.org/2000/svg"
   xmlns:svg="http://www.w3.org/2000/svg">
  <defs
     id="defs41" />
  <sodipodi:namedview
     id="namedview39"
     pagecolor="#ffffff"
     bordercolor="#666666"
     borderopacity="1.0"
     inkscape:pageshadow="2"
     inkscape:pageopacity="0.0"
     inkscape:pagecheckerboard="0"
     showgrid="false"
     inkscape:zoom="0.24489187"
     inkscape:cx="2313.2659"
     inkscape:cy="251.13125"
     inkscape:window-width="1920"
     inkscape:window-height="1001"
     inkscape:window-x="-7"
     inkscape:window-y="-7"
     inkscape:window-maximized="1"
     inkscape:current-layer="Layer_1"
     fit-margin-top="0"
     fit-margin-left="0"
     fit-margin-right="0"
     fit-margin-bottom="0" />
  <g
     id="g82"
     transform="matrix(2.1348362,0,0,2.1348362,-748.47357,-1653.4733)"
     style="stroke-width:0.46842">
    <path
       d="m 2478.52,785 h -6.43 v -4.49 h 19.16 V 785 h -6.39 v 15 h -6.34 z"
       fill="#00006f"
       id="path2"
       style="stroke-width:0.219417" />
    <path
       d="m 2511.66,793.45 c 0,-3.09 0.06,-6.83 0.2,-9.12 h -0.06 c -0.94,3.77 -2.18,8.8 -4.13,15.69 h -5.2 c -1.54,-6.41 -2.8,-11.79 -3.76,-15.73 v 0 c 0.12,2.27 0.34,6 0.34,9.38 V 800 h -5.66 v -19.47 h 9.07 a 127.91,127.91 0 0 1 3,12.46 v 0 c 0.75,-3.44 2,-8 3.3,-12.46 h 9 V 800 h -6.18 z"
       fill="#00006f"
       id="path4"
       style="stroke-width:0.219417" />
    <path
       d="M 719.26,836.73 H 778 v 32 h 1.75 c 6.14,-23.66 20.16,-34.18 38.13,-34.18 a 54.85,54.85 0 0 1 15.34,2.3 v 51.6 c -6,-2.08 -16.11,-3.06 -22.35,-3.06 -17.86,0 -31.12,12.7 -31.12,32 V 1005 h -60.49 z"
       fill="#00006f"
       id="path6"
       style="stroke-width:0.219417" />
    <path
       d="m 957.42,836.73 h 60.48 V 1005 h -57.41 v -32 h -1.76 c -7.34,21.48 -26.62,34.19 -51.71,34.19 -35.38,0 -58.61,-26.3 -58.72,-63.11 V 836.73 h 60.48 v 94.66 c 0.11,16.65 8.87,26.73 24.1,26.73 15,0 24.65,-10.08 24.54,-26.73 z"
       fill="#00006f"
       id="path8"
       style="stroke-width:0.219417" />
    <path
       d="m 1038.7,920.87 c 0,-60.91 32.43,-86.33 65.73,-86.33 25,0 40.76,14.46 47.33,31.55 h 0.88 v -85.45 h 60.48 V 1005 h -60 v -27.6 h -1.32 c -7,17.09 -23.22,29.8 -46.89,29.8 -35.97,0.01 -66.21,-28.04 -66.21,-86.33 z m 115.25,0 c 0,-25 -10.08,-39.88 -26.73,-39.88 -16.65,0 -26.29,14.9 -26.29,39.88 0,24.98 9.64,39.88 26.29,39.88 16.65,0 26.78,-15.34 26.78,-39.88 z"
       fill="#00006f"
       id="path10"
       style="stroke-width:0.219417" />
    <path
       d="m 1233,920.87 c 0,-60.91 32.43,-86.33 65.73,-86.33 25,0 40.76,14.46 47.33,31.55 h 0.88 v -85.45 h 60.47 V 1005 h -60 v -27.6 h -1.32 c -7,17.09 -23.22,29.8 -46.89,29.8 -35.92,0.01 -66.2,-28.04 -66.2,-86.33 z m 115.25,0 c 0,-25 -10.08,-39.88 -26.73,-39.88 -16.65,0 -26.29,14.9 -26.29,39.88 0,24.98 9.64,39.88 26.29,39.88 16.65,0 26.77,-15.34 26.77,-39.88 z"
       fill="#00006f"
       id="path12"
       style="stroke-width:0.219417" />
    <path
       d="m 1426.5,921.31 c 0,-52.15 33.31,-86.77 85.46,-86.77 50.83,0 83.7,32.76 83.7,86.33 v 14 H 1486.1 v 2.63 c 0,16.21 10.52,28 28.49,28 12.38,0 22.35,-5.37 25.85,-14.9 h 55.22 c -5.7,35.06 -35.72,57.41 -82.39,57.41 -53.9,0.07 -86.77,-32.25 -86.77,-86.7 z M 1540,901.59 c -0.33,-14.46 -11.72,-24.54 -26.73,-24.54 -14.79,0 -26.84,10 -27.17,24.54 z"
       fill="#00006f"
       id="path14"
       style="stroke-width:0.219417" />
    <path
       d="m 1615.58,836.73 h 58.73 v 32 h 1.75 c 6.13,-23.66 20.16,-34.18 38.13,-34.18 a 54.83,54.83 0 0 1 15.33,2.3 v 51.6 c -6,-2.08 -16.1,-3.06 -22.35,-3.06 -17.85,0 -31.11,12.7 -31.11,32 V 1005 h -60.48 z"
       fill="#00006f"
       id="path16"
       style="stroke-width:0.219417" />
    <path
       d="m 1847.72,883.08 c -3.84,-11.29 -13.26,-22.57 -33.64,-22.57 -18.62,0 -32.64,9.2 -32.54,22.13 -0.1,11.39 7.89,17.64 26.41,22 l 26.73,6.13 c 30.9,7.12 46,21.81 46,45.58 0,30.46 -28.16,52 -68.81,52 -37.79,0 -62.56,-16.76 -68,-46.56 l 31.66,-4.82 c 3.94,16.54 16.54,25 36.15,25 21.48,0 35.39,-10.19 35.39,-23.23 0,-10.52 -7.56,-17.75 -23.77,-21.36 l -28.49,-6.25 c -31.55,-7 -46,-22.9 -46,-46.78 0,-29.8 27,-49.85 65,-49.85 36.37,0 56.86,17.09 63.65,43.28 z"
       fill="#00006f"
       id="path18"
       style="stroke-width:0.219417" />
    <path
       d="m 1990.56,863 h -34.51 v 92.6 c 0,19 9.53,22.46 20.16,22.46 a 53.15,53.15 0 0 0 11.5,-1.42 l 5.92,27.06 a 62.8,62.8 0 0 1 -21.25,3.51 c -25.86,0.54 -49.2,-14.25 -49.09,-44.81 V 863 h -24.65 v -26.3 h 24.65 v -40.29 h 32.76 v 40.32 h 34.51 z"
       fill="#00006f"
       id="path20"
       style="stroke-width:0.219417" />
    <path
       d="m 2014.2,957.47 c 0,-38.24 32.65,-46.57 64.53,-50.29 30.24,-3.51 42.51,-3.29 42.51,-15.23 v -0.77 c 0,-19.06 -10.84,-30.13 -32,-30.13 -22,0 -34.29,11.51 -39.11,23.45 l -30.79,-7 c 11,-30.68 39,-43 69.46,-43 26.74,0 65.3,9.75 65.3,58.72 V 1005 h -32 v -23 h -1.32 c -6.24,12.6 -21.91,26.73 -49.74,26.73 -31.97,0.01 -56.84,-18.18 -56.84,-51.26 z m 107.15,-13.15 v -21.69 c -4.71,4.71 -29.91,7.56 -40.53,9 -19,2.52 -34.52,8.76 -34.52,26.29 0,16.22 13.37,24.54 31.89,24.54 27.28,-0.02 43.16,-18.2 43.16,-38.14 z"
       fill="#00006f"
       id="path22"
       style="stroke-width:0.219417" />
    <path
       d="m 2185.54,921.64 c 0,-51.38 30.67,-87.1 78.11,-87.1 38.24,0 65.95,22.57 69.46,56.53 h -31.88 c -3.51,-15.77 -16.22,-28.92 -37,-28.92 -27.39,0 -45.58,22.68 -45.58,58.72 0,36.71 17.86,59.82 45.58,59.82 18.73,0 32.87,-10.73 37,-28.92 h 31.88 c -3.62,32.76 -29.36,56.64 -69.13,56.64 -48.86,0 -78.44,-36.04 -78.44,-86.77 z"
       fill="#00006f"
       id="path24"
       style="stroke-width:0.219417" />
    <path
       d="m 2363.66,780.64 h 32.76 V 908 h 2.85 l 67.05,-71.22 h 39.22 l -68.15,72.2 72.75,96.08 h -40.21 l -57.19,-76 -16.32,16.32 V 1005 h -32.76 z"
       fill="#00006f"
       id="path26"
       style="stroke-width:0.219417" />
    <path
       d="m 529.61,893.86 v -59.67 h -59.67 a 59.66,59.66 0 0 0 59.67,59.67 z"
       fill="#00006f"
       id="path28"
       style="stroke-width:0.219417" />
    <path
       d="m 350.6,1005 h 88.29 a 90.73,90.73 0 0 0 90.72,-90.73 h -179 z"
       fill="#00006f"
       id="path30"
       style="stroke-width:0.219417" />
    <path
       d="m 469.94,774.52 a 59.66,59.66 0 0 0 59.67,59.67 v -59.67 z"
       fill="#00006f"
       id="path32"
       style="stroke-width:0.219417" />
    <path
       d="m 410.27,774.52 a 59.67,59.67 0 0 0 59.67,59.67 h -59.67 a 59.67,59.67 0 0 0 59.67,59.67 v 0 -119.34 z"
       fill="#00006f"
       id="path34"
       style="stroke-width:0.219417" />
    <path
       d="m 410.27,893.86 v 0 -59.67 H 350.6 a 59.67,59.67 0 0 0 59.67,59.67 z"
       fill="#00006f"
       id="path36"
       style="stroke-width:0.219417" />
  </g>
</svg>
