<svg width="200" height="200" viewBox="0 0 200 200" fill="none" xmlns="http://www.w3.org/2000/svg">
<path opacity="0.9" d="M100.279 199.833C44.5682 199.833 0 156.12 0 101.479C0 47.3844 44.5682 3.125 100.279 3.125H163.231C183.844 3.125 200 19.5174 200 39.1882V101.479C200 156.12 155.432 199.833 100.279 199.833Z" fill="#F25733"/>
<path d="M99.4919 58.9008C57.8802 58.9008 34.4413 93.3585 33.4637 94.8253C31.0537 98.4385 31.0537 103.111 33.4655 106.727C34.4413 108.191 57.8802 142.649 99.4919 142.649C141.103 142.649 164.543 108.191 165.52 106.724C167.93 103.111 167.93 98.4385 165.518 94.8227C164.542 93.3585 141.103 58.9008 99.4919 58.9008ZM39.2234 102.886C38.3677 101.604 38.3677 99.9463 39.2234 98.6633C40.0095 97.4834 56.6976 72.9705 86.5341 67.0904C73.0136 72.3095 63.393 85.4356 63.393 100.775C63.393 116.114 73.0136 129.24 86.5341 134.459C56.6976 128.579 40.0095 104.066 39.2234 102.886ZM82.8568 100.775C82.8568 102.686 81.3074 104.235 79.396 104.235C77.4845 104.235 75.9352 102.686 75.9352 100.775C75.9352 87.7858 86.5024 77.2185 99.4916 77.2185C101.403 77.2185 102.952 78.7676 102.952 80.6792C102.952 82.5908 101.403 84.1398 99.4916 84.1398C90.3189 84.1398 82.8568 91.6019 82.8568 100.775ZM99.4919 109.188C94.8525 109.188 91.0783 105.414 91.0783 100.775C91.0783 96.1356 94.8525 92.3612 99.4919 92.3612C104.132 92.3612 107.906 96.1354 107.906 100.775C107.906 105.414 104.132 109.188 99.4919 109.188ZM159.76 102.886C158.974 104.066 142.286 128.579 112.45 134.459C125.971 129.24 135.591 116.114 135.591 100.775C135.591 85.4358 125.971 72.3096 112.45 67.0905C142.286 72.971 158.974 97.4837 159.76 98.6634C160.616 99.9463 160.616 101.604 159.76 102.886Z" fill="#F9F2F9"/>
</svg>
