<svg viewBox="0 0 58 29" fill="none" xmlns="http://www.w3.org/2000/svg">
  <path d="M43.109 0C38.2038 0 33.6851 2.7597 29.3181 7.58158C25.027 2.68388 20.4325 0 15.2998 0C6.80086 0 0.599121 6.06527 0.599121 14.2306C0.599121 22.396 6.80086 28.3854 15.2998 28.3854C20.5235 28.3854 24.5721 25.9366 29.0907 21.0541C33.4577 25.9518 37.9005 28.4006 43.109 28.4006C51.608 28.3854 57.8097 22.4187 57.8097 14.2306C57.8097 6.04252 51.608 0 43.109 0ZM15.3605 19.8183C11.7592 19.8183 9.61362 17.4452 9.61362 14.3064C9.61362 11.1677 11.7592 8.7264 15.3605 8.7264C18.3931 8.7264 20.8723 11.1677 23.5561 14.4581C21.0239 17.521 18.3476 19.8183 15.3605 19.8183ZM42.8513 19.8183C39.8641 19.8183 37.3395 17.4452 34.6556 14.3064C37.4153 11.016 39.7883 8.7264 42.8513 8.7264C46.4525 8.7264 48.5754 11.198 48.5754 14.3064C48.5754 17.4149 46.4525 19.8183 42.8513 19.8183Z" fill="#484848"/>
  <path d="M35.5054 26.3587L41.2219 19.5353C38.9475 18.853 36.8474 16.8059 34.6714 14.2661L29.1066 21.0516C30.9284 23.1654 33.0914 24.9592 35.5054 26.3587Z" fill="#20A7C9"/>
  <path d="M29.3258 7.57021C27.516 5.42614 25.3667 3.59216 22.9648 2.1418L17.2407 9.04104C19.4166 9.7992 21.3424 11.7552 23.3894 14.2496L23.6168 14.4088L29.3258 7.57021Z" fill="#20A7C9"/>
</svg>
