<svg viewBox="0 0 42 42" fill="none" xmlns="http://www.w3.org/2000/svg">
  <g clip-path="url(#clip0_91_1936)">
    <path d="M20.391 0.308411V4.16322H16.947V5.17516H20.391V9.02997H21.6156V5.17516H25.0596V4.16322H21.6156V0.308411H20.391ZM30.9474 4.26691V9.94741H25.7722V11.5657H30.9474V17.1452H32.7731L32.7849 14.3771L32.8269 11.6222L35.3903 11.5802L37.9404 11.5657V9.94741H32.7731V4.26691H30.9474ZM9.23475 4.36797V9.95397H4.00575V11.5657H9.23475V17.1517H10.9581V11.5657H16.2278V9.94741H10.9581V4.36797H9.23475ZM19.8857 13.5909V19.8791H14.1041V21.9581H19.8857V28.2542H22.1287V21.9581H27.9182V19.8791H22.1287V13.5909H19.8857ZM36.9009 16.3025V20.1862H33.3729V21.609H36.9009V25.5662H38.4536V21.609H42.0013V20.1862H38.4536V16.3025H36.9009ZM3.45319 16.5283V20.3359H0V21.4226H3.45319V25.2656H4.62262V21.4226H8.12306V20.3359H4.5675V16.5283H3.45319ZM30.9474 24.4387V30.1337H25.662V31.7546H30.9474V37.3787H32.8204V31.7546H38.0428V30.1337H32.8204V24.4387H30.9474ZM9.13369 24.4532V30.1337H3.9585V31.7546H9.13369V37.3393H11.0604V31.7546H16.2278V30.1337H11.0604V24.4466H10.0984L9.13369 24.4532ZM20.1863 32.4647V36.3195H16.7409V37.733H20.1863V41.6915H21.8138L21.8347 39.7372L21.861 37.733H25.3142V36.3195H21.8138V32.4647H20.1863Z" fill="black"/>
  </g>
  <defs>
    <clipPath id="clip0_91_1936">
      <rect width="42" height="42" fill="white"/>
    </clipPath>
  </defs>
</svg>
