<svg id="Layer_1" data-name="Layer 1" xmlns="http://www.w3.org/2000/svg" viewBox="0 0 1090 1090"><defs><style>.cls-1{fill:#369;}.cls-2{fill:#fff;}</style></defs><title>trickster-logo</title><circle class="cls-1" cx="545" cy="544.24077" r="540"/><path class="cls-2" d="M408.31587,370.29091c1.566-3.5086,2.88521-5.95633,3.78109-8.54979,9.31957-26.97831,22.598-52.03442,37.25015-76.40923,21.48375-35.7396,51.53527-62.95071,87.14151-83.778,20.19039-11.81008,42.69931-18.83877,65.258-25.39755a501.64681,501.64681,0,0,1,95.14777-18.30647c22.27738-2.00306,44.86578-.55931,67.31523-.65121a6.07746,6.07746,0,0,1,1.25178.08912c4.83136,1.00265,7.50112-.49124,9.77583-5.41006,7.32766-15.84541,24.72821-23.94095,42.20874-20.49887,16.4797,3.245,29.42952,18.09454,30.48615,34.95829a38.51227,38.51227,0,0,1-25.76745,38.94124,38.04819,38.04819,0,0,1-44.30958-14.55c-2.28131-3.43071-4.11081-4.32275-8.2771-3.52043-29.84671,5.74756-58.80319,14.25951-86.02274,27.85978-21.27653,10.63083-40.90669,24.15331-55.43083,43.0313-10.87634,14.13673-19.84505,29.94549-28.13049,45.8076-10.9553,20.97347-20.05083,42.859-24.43206,66.35249a38.00238,38.00238,0,0,0-.71942,5.369c-.11936,2.90055-.03212,5.80955-.03212,9.44169,8.13872-1.36248,15.78533-2.56175,23.40115-3.932,28.07817-5.05193,56.37046-8.77479,84.89753-7.84977,29.85418.968,55.85549,12.29649,76.71646,33.94493,11.39285,11.82288,22.31092,24.13833,32.87041,36.711,6.15642,7.33014,11.191,15.60055,16.70792,23.46361.87827,1.25168,1.65445,2.5762,2.45033,3.88378,3.01689,4.95677,6.13,7.56217,13.21033,6.749,21.784-2.50162,37.44264,15.63659,37.98389,33.9402a35.51461,35.51461,0,1,1-70.946-.86374c.41034-5.814,2.78053-11.49021,4.734-19.10925-4.02173-3.85432-8.90136-9.41457-14.64243-13.86817-17.5508-13.61476-36.19919-25.56622-56.61766-34.52214a23.28667,23.28667,0,0,0-8.51091-1.845c-24.49864-.68006-48.11422,2.77366-69.82472,15.13113-3.51959,2.00335-6.15422,4.221-6.367,8.49544-.20732,4.16655-.61863,8.33085-.6375,12.49745-.0626,13.79987-.08285,27.60173.10238,41.39981.04382,3.26432-1.27771,4.65281-4.25778,4.82552-3.48093.20165-6.9703.41989-10.45384.38855q-42.7257-.38427-85.45069-.85409c-6.26361-.05978-7.68364,1.23932-7.88968,7.43388-.75977,22.84513-1.92932,45.68995-2.05808,68.53988-.23949,42.50829.03845,85.02066.30473,127.53.17183,27.43285,4.2966,54.29766,13.45554,80.21888,6.26908,17.74245,17.53116,32.04753,34.48072,40.23273,9.68143,4.67537,20.823,6.69164,31.522,8.83748,20.98335,4.20856,41.64146-.36022,62.26607-3.69034,6.92591-1.11833,13.73967-2.92917,20.99118-4.50762-.325,3.31588-.73012,7.24259-1.09218,11.17333-2.696,29.27228-5.43822,58.54047-8.00095,87.82439-.30392,3.473-1.93761,5.22826-4.897,6.42337a195.81321,195.81321,0,0,1-43.81133,12.06065c-21.9956,3.37623-44.05118,5.43135-66.31429,4.51181a251.52647,251.52647,0,0,1-72.95-13.54573c-27.97691-9.76059-49.721-27.37654-67.00507-51.2037-13.84729-19.08939-20.216-41.03081-26.0459-63.28512-5.85647-22.35586-7.29544-45.30319-9.31057-68.20228-3.49026-39.66126-2.39333-79.3944-2.36779-119.10482.02583-40.138.61983-80.2757,1.0066-120.41321.09655-10.02142.17014-10.00207-9.68847-9.99528q-30.16234.02084-60.3247.00209c-6.23867-.00321-7.09474-.56784-7.17792-6.88247-.14495-11.00629.37725-22.02453.10847-33.02531-.37756-15.45179-.84224-30.92287-2.08924-46.31957-.39586-4.8877-2.62166-10.07793-5.35565-14.25121-14.24454-21.74383-33.45677-37.78311-58.10678-46.37971a82.67849,82.67849,0,0,0-47.42719-2.327c-29.24086,7.09972-47.742,26.20239-59.72366,52.72234-.79787,1.766-1.56536,3.54566-2.42705,5.50067,6.9024,5.49694,11.68639,12.275,13.34709,21.04613,3.36288,17.76145-7.95068,35.16426-25.38574,38.93021-17.9771,3.883-35.67619-6.94639-39.9699-24.4561C83.8609,451.19887,94.53,432.96561,112.349,428.68078c3.69876-.88942,4.56007-2.61707,5.08864-5.73967,3.04886-18.01124,6.82362-35.81506,15.088-52.34724,14.3165-28.63866,35.76736-49.4486,65.47785-62.23117a168.11562,168.11562,0,0,1,63.79432-13.55633c12.10784-.23583,24.28286,2.64425,36.41807,4.19371,29.33248,3.74532,52.11881,19.785,73.33287,38.8562C383.45677,348.56148,395.55935,359.05087,408.31587,370.29091Z"/></svg>