<svg width="64" height="64" viewBox="0 0 64 64" fill="none" xmlns="http://www.w3.org/2000/svg" role="img" aria-label="upstash" aria-hidden="true" class="sc-1sddmxu-6 WaWGq"><path d="M9 55.2839C19.2877 65.5715 35.9674 65.5715 46.2551 55.2839C56.5427 44.9962 56.5427 28.3165 46.2551 18.0288L41.5981 22.6856C49.314 30.4015 49.314 42.9112 41.5981 50.6269C33.8825 58.3428 21.3727 58.3428 13.6568 50.6269L9 55.2839Z" fill="#00C98D"></path><path d="M18.3135 45.9707C23.4573 51.1145 31.7971 51.1145 36.941 45.9707C42.0848 40.8269 42.0848 32.4871 36.941 27.3433L32.2841 32.0001C34.856 34.572 34.856 38.7419 32.2841 41.3139C29.7121 43.8858 25.5422 43.8858 22.9703 41.3139L18.3135 45.9707Z" fill="#00C98D"></path><path d="M55.5695 8.71574C45.2817 -1.57191 28.6021 -1.57191 18.3144 8.71574C8.0267 19.0035 8.0267 35.6831 18.3144 45.9708L22.9712 41.314C15.2556 33.5982 15.2556 21.0884 22.9712 13.3727C30.687 5.65689 43.1968 5.65689 50.9125 13.3727L55.5695 8.71574Z" fill="#00C98D"></path><path d="M46.2551 18.0297C41.1113 12.8859 32.7713 12.8859 27.6275 18.0297C22.4835 23.1736 22.4835 31.5134 27.6275 36.6572L32.2843 32.0004C29.7124 29.4285 29.7124 25.2586 32.2843 22.6866C34.8562 20.1147 39.0261 20.1147 41.5981 22.6866L46.2551 18.0297Z" fill="#00C98D"></path><path d="M55.5695 8.71574C45.2817 -1.57191 28.6021 -1.57191 18.3144 8.71574C8.0267 19.0035 8.0267 35.6831 18.3144 45.9708L22.9712 41.314C15.2556 33.5982 15.2556 21.0884 22.9712 13.3727C30.687 5.65689 43.1968 5.65689 50.9125 13.3727L55.5695 8.71574Z" fill="white" fill-opacity="0.4"></path><path d="M46.2551 18.0297C41.1113 12.8859 32.7713 12.8859 27.6275 18.0297C22.4835 23.1736 22.4835 31.5134 27.6275 36.6572L32.2843 32.0004C29.7124 29.4285 29.7124 25.2586 32.2843 22.6866C34.8562 20.1147 39.0261 20.1147 41.5981 22.6866L46.2551 18.0297Z" fill="white" fill-opacity="0.4"></path></svg>