<svg width="64" height="64" viewBox="0 0 64 64" fill="none" xmlns="http://www.w3.org/2000/svg" role="img" aria-label="warpstream" aria-hidden="true" class="sc-1sddmxu-6 WaWGq"><path d="M5.87625 35.2294L4.58676 36.4864V36.4834L2 39.008V39.445L4.58676 41.9697L8.45528 45.7453V32.7153L5.87625 35.2248V35.2294Z" fill="#E52344"></path><path d="M14.9234 37.0934L12.3367 34.58V28.9243L10.97 30.2506V33.25L9.74219 32.0592V47.0034L12.3367 49.5431V49.5355L13.6262 50.7941L16.213 53.3187V25.1411L14.9311 26.3921L14.9234 37.0934Z" fill="#E52344"></path><path d="M22.6707 33.7132L20.086 36.2357L20.0881 27.1961V21.3556L18.7941 22.6186V25.9331L18.7995 37.4913L17.5 38.7596V53.7017L21.3821 49.9129L23.9702 47.387V17.5669L22.6707 18.8352V33.7132Z" fill="#E52344"></path><path d="M30.4339 26.1411L27.8458 28.667V13.7889L26.5464 15.0571L26.5463 29.9245L25.2632 31.1875L25.2578 46.1349L27.8458 43.609L29.1454 42.3407V42.3514L31.728 39.8309V39.8202V38.552V10L30.4285 11.2683L30.4339 26.1411Z" fill="#E52344"></path><path d="M38.8306 15.654L38.1863 15.0252V29.9246L35.5982 27.3988L35.5983 12.4247L34.9594 11.8012V11.8759L34.3151 11.2471L34.3096 26.1305L33.0156 24.8782V39.8096L35.5982 42.3302L36.8868 43.5878L39.4804 46.119V16.2135L38.8306 15.5794V15.654Z" fill="#E52344"></path><path d="M46.5861 23.2262L45.9418 22.5868V25.9758L45.9363 36.479V37.4915L44.6423 36.2285L43.3537 34.971V19.9969L42.6986 19.3575L42.6985 19.4321L42.0651 18.8032V29.7594V33.7026L40.7657 32.4451L40.7656 47.3765L43.3537 49.9024L44.6423 51.1599L47.2249 53.6805V37.7366V24.7236V23.775L46.5861 23.1515V23.2262Z" fill="#E52344"></path><path d="M54.9787 31.2755L53.6969 30.032V33.3328L51.1101 35.8537V27.5301L49.8207 26.2866V26.3092L49.8284 37.1028L48.5234 38.3745V53.3186L51.1101 50.7941L52.3996 49.5356V49.543L54.9865 47.0109V45.3077L54.9787 31.3433V31.2755Z" fill="#E52344"></path><path d="M60.1498 36.2799V36.2859L58.8681 35.0454V35.0439L56.2812 32.542V45.7453L58.8681 43.2281V43.2206L60.1498 41.9697L62.7367 39.445V38.7893L60.1498 36.2799Z" fill="#E52344"></path></svg>