<?xml version="1.0" encoding="UTF-8"?>
<svg width="80px" height="80px" viewBox="0 0 80 80" version="1.1" xmlns="http://www.w3.org/2000/svg" xmlns:xlink="http://www.w3.org/1999/xlink">
    <title>icon-youtube</title>
    <g id="Symbols" stroke="none" stroke-width="1" fill="none" fill-rule="evenodd">
        <g id="icon-youtube" transform="translate(0.000000, 10.000000)" fill-rule="nonzero">
            <path d="M78.2044888,49.8 C77.4064838,54 74.0149626,57.2 69.8254364,57.8 C63.2418953,58.8 52.2693267,60 39.9002494,60 C27.7306733,60 16.7581047,58.8 9.97506234,57.8 C5.78553616,57.2 2.39401496,54 1.59600998,49.8 C0.798004988,45.2 0,38.4 0,30 C0,21.6 0.798004988,14.8 1.59600998,10.2 C2.39401496,6 5.78553616,2.8 9.97506234,2.2 C16.5586035,1.2 27.5311721,0 39.9002494,0 C52.2693267,0 63.042394,1.2 69.8254364,2.2 C74.0149626,2.8 77.4064838,6 78.2044888,10.2 C79.0024938,14.8 80,21.6 80,30 C79.8004988,38.4 79.0024938,45.2 78.2044888,49.8 Z" id="Path" fill="#FF3D00"></path>
            <polygon id="Path" fill="#FFFFFF" points="31.9201995 44 31.9201995 16 55.8603491 30"></polygon>
        </g>
    </g>
</svg>