<svg xmlns="http://www.w3.org/2000/svg" xmlns:xlink="http://www.w3.org/1999/xlink" width="80" height="80" version="1.1" viewBox="0 0 80 80"><title>icon-security</title><g id="Page-1" fill="none" fill-rule="evenodd" stroke="none" stroke-width="1"><g id="Homepage" fill-rule="nonzero" transform="translate(-741.000000, -1674.000000)"><g id="Page/Why" transform="translate(185.000000, 1047.000000)"><g id="Feature-4" transform="translate(556.000000, 627.000000)"><g id="icon-security" transform="translate(0.000000, 0.000000)"><circle id="Oval" cx="40" cy="40" r="40" fill="#F1F6F9"/><path id="Shape" fill="#257AF4" d="M24,24 C21.794,24 20,25.794 20,28 L20,52 C20,54.206 21.794,56 24,56 C24,57.104 24.896,58 26,58 C27.104,58 28,57.104 28,56 L52,56 C52,57.104 52.896,58 54,58 C55.104,58 56,57.104 56,56 C58.206,56 60,54.206 60,52 L60,28 C60,25.794 58.206,24 56,24 L24,24 Z M53.1757333,30.8281333 C53.6877333,30.8281333 54.1998667,31.0201333 54.5898667,31.4101333 C55.3718667,32.1921333 55.3698667,33.4582667 54.5898667,34.2382667 L52.8672,35.9609333 C53.5712,37.1529333 54,38.52 54,40 C54,41.48 53.5712,42.8490667 52.8672,44.0390667 L54.7656,45.9374667 C55.5456,46.7174667 55.5456,47.9856 54.7656,48.7656 C53.9856,49.5476 52.7194667,49.5456 51.9374667,48.7656 L50.0390667,46.8672 C48.8490667,47.5692 47.48,48 46,48 C44.52,48 43.1509333,47.5712 41.9609333,46.8672 L40.2382667,48.5898667 C39.4582667,49.3698667 38.1901333,49.3698667 37.4101333,48.5898667 C36.6301333,47.8098667 36.6301333,46.5417333 37.4101333,45.7617333 L39.1328,44.0390667 C38.4288,42.8490667 38,41.48 38,40 C38,38.52 38.4288,37.1509333 39.1328,35.9609333 L37.5898667,34.414 C36.8098667,33.634 36.8098667,32.3698667 37.5898667,31.5898667 C38.3698667,30.8098667 39.634,30.8098667 40.414,31.5898667 L41.9609333,33.1328 C43.1509333,32.4288 44.52,32 46,32 C47.48,32 48.8490667,32.4288 50.0390667,33.1328 L51.7617333,31.4101333 C52.1517333,31.0201333 52.6637333,30.8281333 53.1757333,30.8281333 Z M28,34 C29.104,34 30,34.896 30,36 L30,44 C30,45.104 29.104,46 28,46 C26.896,46 26,45.104 26,44 L26,36 C26,34.896 26.896,34 28,34 Z M46,36 C44.9392,36 43.9217333,36.4214667 43.1716,37.1716 C42.4214667,37.9217333 42,38.9392 42,40 C42,41.0608 42.4214667,42.0782667 43.1716,42.8284 C43.9217333,43.5785333 44.9392,44 46,44 C47.0608,44 48.0782667,43.5785333 48.8284,42.8284 C49.5785333,42.0782667 50,41.0608 50,40 C50,38.9392 49.5785333,37.9217333 48.8284,37.1716 C48.0782667,36.4214667 47.0608,36 46,36 Z"/></g></g></g></g></g></svg>