<svg xmlns="http://www.w3.org/2000/svg" xmlns:xlink="http://www.w3.org/1999/xlink" width="31" height="24" version="1.1" viewBox="0 0 31 24"><title>icon-twitter-gray</title><g id="Symbols" fill="none" fill-rule="evenodd" stroke="none" stroke-width="1"><g id="Twitter-Link" fill="#6C757D" fill-rule="nonzero"><g id="twitter"><path id="Path" d="M30.2608696,2.8377931 C29.1488762,3.32275862 27.9528319,3.64634483 26.691228,3.79944828 C27.9738447,3.04965517 28.9606022,1.8537931 29.4237226,0.441103448 C28.2234758,1.1337931 26.8937906,1.64275862 25.4792141,1.91089655 C24.34957,0.731586207 22.7383143,0 20.9530733,0 C17.5237967,0 14.7442335,2.71282759 14.7442335,6.05793103 C14.7442335,6.53131034 14.8005476,6.99227586 14.9064518,7.44 C9.74740771,7.18510345 5.17167689,4.7702069 2.11051802,1.10565517 C1.57259228,2.00110345 1.27000905,3.04965517 1.27000905,4.15613793 C1.27000905,6.25903448 2.36351122,8.11034483 4.03110622,9.20110345 C3.01322465,9.17048276 2.05504443,8.89158621 1.21621648,8.44468966 C1.21621648,8.46289655 1.21621648,8.4902069 1.21621648,8.51586207 C1.21621648,11.4546207 3.35699282,13.9017931 6.1945763,14.4587586 C5.67598227,14.5986207 5.12797042,14.6764138 4.5631484,14.6764138 C4.16222562,14.6764138 3.77138895,14.6317241 3.39315992,14.5646897 C4.18323835,16.9663448 6.4753063,18.7216552 9.19099077,18.7737931 C7.0661841,20.3958621 4.39000355,21.3674483 1.48013629,21.3674483 C0.977511929,21.3674483 0.485814183,21.3393103 -7.46521926e-16,21.2813793 C2.74930483,22.9953103 6.01386688,24 9.51794876,24 C20.9362631,24 27.1829257,14.7674483 27.1829257,6.75806897 C27.1829257,6.49572414 27.1745206,6.2342069 27.161913,5.976 C28.380651,5.12855172 29.4312872,4.05931034 30.2608696,2.8377931 Z"/></g></g></g></svg>