<svg xmlns="http://www.w3.org/2000/svg" xmlns:xlink="http://www.w3.org/1999/xlink" width="80" height="80" version="1.1" viewBox="0 0 80 80"><title>icon-slack</title><g id="Symbols" fill="none" fill-rule="evenodd" stroke="none" stroke-width="1"><g id="icon-slack" fill-rule="nonzero"><path id="Shape" fill="#36C5F0" d="M29.3315949,0 C24.9093056,0.00326197757 21.3302911,3.58491335 21.3335573,7.99836901 C21.3302911,12.4118247 24.9125741,15.993476 29.3348634,15.996738 L37.3361695,15.996738 L37.3361695,8.00163099 C37.3394357,3.58817533 33.7571526,0.00652395515 29.3315949,0 C29.3348634,0 29.3348634,0 29.3315949,0 M29.3315949,21.3333333 L8.00132167,21.3333333 C3.57903242,21.3365953 -0.003250666,24.9182467 8.9080479e-06,29.3317023 C-0.00651917247,33.745158 3.57576392,37.3268094 7.99805317,37.3333333 L29.3315949,37.3333333 C33.7538841,37.3300714 37.3361672,33.74842 37.332901,29.3349643 C37.3361672,24.9182467 33.7538841,21.3365953 29.3315949,21.3333333 Z"/><path id="Shape" fill="#2EB67D" d="M79.9999844,29.3317023 C80.0032507,24.9182467 76.4209676,21.3365953 71.9986783,21.3333333 C67.5763891,21.3365953 63.994106,24.9182467 63.9973723,29.3317023 L63.9973723,37.3333333 L71.9986783,37.3333333 C76.4209676,37.3300714 80.0032507,33.74842 79.9999844,29.3317023 Z M58.6664427,29.3317023 L58.6664427,7.99836901 C58.6697089,3.58817533 55.0906944,0.00652395515 50.6684051,0 C46.2461159,0.00326197757 42.6638328,3.58491335 42.6670923,7.99836901 L42.6670923,29.3317023 C42.6605643,33.745158 46.2428474,37.3268094 50.6651366,37.3333333 C55.0874259,37.3300714 58.6697089,33.74842 58.6664427,29.3317023 L58.6664427,29.3317023 Z"/><path id="Shape" fill="#ECB22E" d="M50.6651366,80 C55.0874259,79.996738 58.6697089,76.4150866 58.6664427,72.001631 C58.6697089,67.5881753 55.0874259,64.006524 50.6651366,64.003262 L42.6638305,64.003262 L42.6638305,72.001631 C42.6605643,76.4118247 46.2428474,79.993476 50.6651366,80 Z M50.6651366,58.6634047 L71.9986783,58.6634047 C76.4209676,58.6601427 80.0032507,55.0784913 79.9999911,50.6650357 C80.0065192,46.25158 76.4242361,42.6699286 72.0019468,42.6634047 L50.6684051,42.6634047 C46.2461159,42.6666667 42.6638328,46.248318 42.667099,50.6617737 C42.6638328,55.0784913 46.2428474,58.6601427 50.6651366,58.6634047 L50.6651366,58.6634047 Z"/><path id="Shape" fill="#E01E5A" d="M1.56055896e-05,50.6650357 C-0.003250666,55.0784913 3.57903242,58.6601427 8.00132167,58.6634047 C12.4236109,58.6601427 16.005894,55.0784913 16.0026277,50.6650357 L16.0026277,42.6666667 L8.00132167,42.6666667 C3.57903242,42.6699286 -0.003250666,46.25158 1.56055896e-05,50.6650357 Z M21.3335506,50.6650357 L21.3335506,71.998369 C21.3270225,76.4118247 24.9093056,79.993476 29.3315949,80 C33.7538841,79.996738 37.3361672,76.4150866 37.3329077,72.001631 L37.3329077,50.6715596 C37.3394357,46.258104 33.7571526,42.6764526 29.3348634,42.6699286 C24.9093056,42.6699286 21.3302911,46.25158 21.3335506,50.6650357 C21.3335506,50.6650357 21.3335506,50.6682977 21.3335506,50.6650357"/></g></g></svg>