<svg xmlns="http://www.w3.org/2000/svg" xmlns:xlink="http://www.w3.org/1999/xlink" width="14" height="14" version="1.1" viewBox="0 0 14 14"><title>icon-slack</title><g id="Page-1" fill="none" fill-rule="evenodd" stroke="none" stroke-width="1"><g id="Link/Slack" fill="#212529" fill-rule="nonzero"><g id="Icon/Slack"><path id="Shape" d="M5.13302911,0 C4.35912849,0.000570846075 3.73280093,0.627359837 3.73337253,1.39971458 C3.73280093,2.17206932 4.35970047,2.79885831 5.13360109,2.79942915 L6.53382966,2.79942915 L6.53382966,1.40028542 C6.53440125,0.627930683 5.90750171,0.00114169215 5.13302911,0 C5.13360109,0 5.13360109,0 5.13302911,0 M5.13302911,3.73333333 L1.40023129,3.73333333 C0.626330674,3.73390418 -0.000568866549,4.36069317 1.55890848e-06,5.13304791 C-0.00114085518,5.90540265 0.625758685,6.53219164 1.3996593,6.53333333 L5.13302911,6.53333333 C5.90692972,6.53276249 6.53382926,5.9059735 6.53325767,5.13361876 C6.53382926,4.36069317 5.90692972,3.73390418 5.13302911,3.73333333 Z"/><path id="Shape" d="M13.9999973,5.13304791 C14.0005689,4.36069317 13.3736693,3.73390418 12.5997687,3.73333333 C11.8258681,3.73390418 11.1989685,4.36069317 11.1995401,5.13304791 L11.1995401,6.53333333 L12.5997687,6.53333333 C13.3736693,6.53276249 14.0005689,5.9059735 13.9999973,5.13304791 Z M10.2666275,5.13304791 L10.2666275,1.39971458 C10.2671991,0.627930683 9.64087151,0.00114169215 8.86697089,0 C8.09307028,0.000570846075 7.46617074,0.627359837 7.46674116,1.39971458 L7.46674116,5.13304791 C7.46559875,5.90540265 8.09249829,6.53219164 8.86639891,6.53333333 C9.64029953,6.53276249 10.2671991,5.9059735 10.2666275,5.13304791 L10.2666275,5.13304791 Z"/><path id="Shape" d="M8.86639891,14 C9.64029953,13.9994292 10.2671991,13.3726402 10.2666275,12.6002854 C10.2671991,11.8279307 9.64029953,11.2011417 8.86639891,11.2005708 L7.46617034,11.2005708 L7.46617034,12.6002854 C7.46559875,13.3720693 8.09249829,13.9988583 8.86639891,14 Z M8.86639891,10.2660958 L12.5997687,10.2660958 C13.3736693,10.265525 14.0005689,9.63873598 13.9999984,8.86638124 C14.0011409,8.0940265 13.3742413,7.46723751 12.6003407,7.46609582 L8.86697089,7.46609582 C8.09307028,7.46666667 7.46617074,8.09345566 7.46674233,8.8658104 C7.46617074,9.63873598 8.09249829,10.265525 8.86639891,10.2660958 L8.86639891,10.2660958 Z"/><path id="Shape" d="M2.73097794e-06,8.86638124 C-0.00056886655,9.63873598 0.626330674,10.265525 1.40023129,10.2660958 C2.17413191,10.265525 2.80103145,9.63873598 2.80045986,8.86638124 L2.80045986,7.46666667 L1.40023129,7.46666667 C0.626330674,7.46723751 -0.00056886655,8.0940265 2.73097794e-06,8.86638124 Z M3.73337136,8.86638124 L3.73337136,12.5997146 C3.73222895,13.3720693 4.35912849,13.9988583 5.13302911,14 C5.90692972,13.9994292 6.53382926,13.3726402 6.53325884,12.6002854 L6.53325884,8.86752294 C6.53440125,8.0951682 5.90750171,7.4683792 5.13360109,7.46723751 C4.35912849,7.46723751 3.73280093,8.0940265 3.73337136,8.86638124 C3.73337136,8.86638124 3.73337136,8.86695209 3.73337136,8.86638124"/></g></g></g></svg>