<svg xmlns="http://www.w3.org/2000/svg" xmlns:xlink="http://www.w3.org/1999/xlink" width="24" height="24" version="1.1" viewBox="0 0 24 24"><title>icon-linkedin-gray</title><defs><path id="path-1" d="M5.37214286,24 L0.396428571,24 L0.396428571,7.97642802 L5.37214286,7.97642802 L5.37214286,24 Z M2.88160714,5.79066494 C1.29053571,5.79066494 0,4.47277838 0,2.88167143 C0,1.29016824 1.29013948,0 2.88160714,0 C4.47307481,0 5.76321429,1.29016824 5.76321429,2.88167143 C5.76321429,4.47277838 4.47214286,5.79066494 2.88160714,5.79066494 Z M23.9946429,24 L19.0296429,24 L19.0296429,16.1998259 C19.0296429,14.3408558 18.9921429,11.956874 16.4426786,11.956874 C13.8557143,11.956874 13.4592857,13.976562 13.4592857,16.0658943 L13.4592857,24 L8.48892857,24 L8.48892857,7.97642802 L13.2610714,7.97642802 L13.2610714,10.1621911 L13.3307143,10.1621911 C13.995,8.90323442 15.6176786,7.57463333 18.0385714,7.57463333 C23.0742857,7.57463333 24,10.8907788 24,15.1980178 L24,24 L23.9946429,24 Z"/></defs><g id="Symbols" fill="none" fill-rule="evenodd" stroke="none" stroke-width="1"><g id="Logo"><mask id="mask-2" fill="#fff"><use xlink:href="#path-1"/></mask><use id="Brands/linkedin-in" fill="#6C757D" fill-rule="nonzero" xlink:href="#path-1"/></g></g></svg>