<svg xmlns="http://www.w3.org/2000/svg" xmlns:xlink="http://www.w3.org/1999/xlink" width="80" height="80" version="1.1" viewBox="0 0 80 80"><title>icon-scalability</title><g id="Page-1" fill="none" fill-rule="evenodd" stroke="none" stroke-width="1"><g id="Homepage" fill-rule="nonzero" transform="translate(-741.000000, -1263.000000)"><g id="Page/Why" transform="translate(185.000000, 1047.000000)"><g id="Feature-2" transform="translate(556.000000, 216.000000)"><g id="icon-scalability" transform="translate(0.000000, 0.000000)"><circle id="Oval" cx="40" cy="40" r="40" fill="#F1F6F9"/><path id="Shape" fill="#257AF4" d="M25.602,22.4 C25.39,22.3969333 25.1794667,22.4361333 24.9826667,22.5152 C24.786,22.5942667 24.6068,22.7116 24.4558667,22.8605333 C24.3049333,23.0093333 24.1849333,23.1868 24.1032,23.3824 C24.0213333,23.578 23.9792,23.788 23.9792,24 C23.9792,24.212 24.0213333,24.422 24.1032,24.6176 C24.1849333,24.8132 24.3049333,24.9905333 24.4558667,25.1394667 C24.6068,25.2882667 24.786,25.4057333 24.9826667,25.4848 C25.1794667,25.5638667 25.39,25.6029333 25.602,25.6 L39.9769333,25.6 L54.402,25.6 C54.614,25.6029333 54.8245333,25.5638667 55.0212,25.4848 C55.218,25.4057333 55.3970667,25.2882667 55.548,25.1394667 C55.6990667,24.9905333 55.8189333,24.8132 55.9008,24.6176 C55.9825333,24.422 56.0248,24.212 56.0248,24 C56.0248,23.788 55.9825333,23.578 55.9008,23.3824 C55.8189333,23.1868 55.6990667,23.0093333 55.548,22.8605333 C55.3970667,22.7116 55.218,22.5942667 55.0212,22.5152 C54.8245333,22.4361333 54.614,22.3969333 54.402,22.4 L25.602,22.4 Z M39.9769333,25.599807 C39.5613333,25.6066667 39.1645333,25.7746667 38.8706667,26.0686667 L35.6706667,29.2686667 C35.5172,29.4161333 35.3945333,29.5928 35.3101333,29.7881333 C35.2256,29.9836 35.1810667,30.1938667 35.1787197,30.4066667 C35.1766667,30.6196 35.2170667,30.8308 35.2974667,31.0278667 C35.378,31.2249333 35.4969333,31.404 35.6474667,31.5545333 C35.798,31.7050667 35.9770667,31.824 36.1741333,31.9044 C36.3712,31.9849333 36.5824,32.0252 36.7952,32.0230667 C37.0081333,32.0209333 37.2184,31.9762667 37.4137333,31.8918667 C37.6092,31.8073333 37.7857333,31.6848 37.9332,31.5312 L38.402,31.0625333 L38.402,48.9374667 L37.9332,48.4686667 C37.7841333,48.3154667 37.6057333,48.1936 37.4088,48.1104 C37.2118667,48.0272 37.0001333,47.9844 36.7862667,47.9844 C36.468,47.9844 36.1569333,48.0794667 35.8929333,48.2572 C35.6289333,48.4350667 35.424,48.6874667 35.3041333,48.9824 C35.1844,49.2773333 35.1553333,49.6012 35.2206667,49.9126667 C35.2858667,50.2242667 35.4426667,50.5092 35.6706667,50.7312 L38.8706667,53.9312 C39.0222667,54.0828 39.2026667,54.2024 39.4012,54.2829333 C39.5998667,54.3634667 39.8126667,54.4032 40.0269333,54.400179 C40.4425333,54.3933333 40.8393333,54.2252 41.1332,53.9312 L44.3332,50.7312 C44.5656,50.5077333 44.7250667,50.2193333 44.7906667,49.9037333 C44.8564,49.5881333 44.8251472,49.2601333 44.7012,48.9625333 C44.5772,48.6649333 44.3662667,48.4117333 44.096,48.236 C43.8256,48.0604 43.5086667,47.9705333 43.1862667,47.9781333 C42.7642667,47.9881333 42.3633333,48.1644 42.0706667,48.4686667 L41.602,48.9374667 L41.602,31.0625333 L42.0706667,31.5312 C42.2181333,31.6848 42.3946667,31.8073333 42.5901333,31.8918667 C42.7856,31.9762667 42.9958667,32.0209333 43.2086667,32.0230667 C43.4216,32.0252 43.6326667,31.9849333 43.8297333,31.9044 C44.0269333,31.824 44.2058667,31.7050667 44.3564,31.5545333 C44.5069333,31.404 44.626,31.2249333 44.7064,31.0278667 C44.7869333,30.8308 44.8272,30.6196 44.8251472,30.4066667 C44.8229333,30.1938667 44.7782667,29.9836 44.6938667,29.7881333 C44.6093333,29.5928 44.4868,29.4161333 44.3332,29.2686667 L41.1332,26.0686667 C40.9817333,25.9172 40.8013333,25.7976 40.6026667,25.7170667 C40.404,25.6365333 40.1912,25.5966667 39.9769333,25.599807 Z M40.0269333,54.4 L25.602,54.4 C25.39,54.3969333 25.1794667,54.4361333 24.9826667,54.5152 C24.786,54.5942667 24.6068,54.7116 24.4558667,54.8605333 C24.3049333,55.0093333 24.1849333,55.1868 24.1032,55.3824 C24.0213333,55.578 23.9792,55.788 23.9792,56 C23.9792,56.212 24.0213333,56.422 24.1032,56.6176 C24.1849333,56.8132 24.3049333,56.9905333 24.4558667,57.1394667 C24.6068,57.2882667 24.786,57.4057333 24.9826667,57.4848 C25.1794667,57.5638667 25.39,57.6029333 25.602,57.6 L54.402,57.6 C54.614,57.6029333 54.8245333,57.5638667 55.0212,57.4848 C55.218,57.4057333 55.3970667,57.2882667 55.548,57.1394667 C55.6990667,56.9905333 55.8189333,56.8132 55.9008,56.6176 C55.9825333,56.422 56.0248,56.212 56.0248,56 C56.0248,55.788 55.9825333,55.578 55.9008,55.3824 C55.8189333,55.1868 55.6990667,55.0093333 55.548,54.8605333 C55.3970667,54.7116 55.218,54.5942667 55.0212,54.5152 C54.8245333,54.4361333 54.614,54.3969333 54.402,54.4 L40.0269333,54.4 Z M25.602,28.8 C25.1776,28.8 24.7706667,28.9685333 24.4705333,29.2686667 C24.1705333,29.5686667 24.002,29.9756 24.002,30.4 C24.002,30.8242667 24.1705333,31.2313333 24.4705333,31.5313333 C24.7706667,31.8314667 25.1776,32 25.602,32 C26.0262667,32 26.4333333,31.8314667 26.7333333,31.5313333 C27.0333333,31.2313333 27.202,30.8242667 27.202,30.4 C27.202,29.9756 27.0333333,29.5686667 26.7333333,29.2686667 C26.4333333,28.9685333 26.0262667,28.8 25.602,28.8 Z M54.402,28.8 C53.9776,28.8 53.5706667,28.9685333 53.2705333,29.2686667 C52.9705333,29.5686667 52.802,29.9756 52.802,30.4 C52.802,30.8242667 52.9705333,31.2313333 53.2705333,31.5313333 C53.5706667,31.8314667 53.9776,32 54.402,32 C54.8262667,32 55.2332,31.8314667 55.5333333,31.5313333 C55.8333333,31.2313333 56.002,30.8242667 56.002,30.4 C56.002,29.9756 55.8333333,29.5686667 55.5333333,29.2686667 C55.2332,28.9685333 54.8262667,28.8 54.402,28.8 Z M25.602,35.2 C25.1776,35.2 24.7706667,35.3685333 24.4705333,35.6686667 C24.1705333,35.9686667 24.002,36.3756 24.002,36.8 C24.002,37.2242667 24.1705333,37.6313333 24.4705333,37.9313333 C24.7706667,38.2314667 25.1776,38.4 25.602,38.4 C26.0262667,38.4 26.4333333,38.2314667 26.7333333,37.9313333 C27.0333333,37.6313333 27.202,37.2242667 27.202,36.8 C27.202,36.3756 27.0333333,35.9686667 26.7333333,35.6686667 C26.4333333,35.3685333 26.0262667,35.2 25.602,35.2 Z M54.402,35.2 C53.9776,35.2 53.5706667,35.3685333 53.2705333,35.6686667 C52.9705333,35.9686667 52.802,36.3756 52.802,36.8 C52.802,37.2242667 52.9705333,37.6313333 53.2705333,37.9313333 C53.5706667,38.2314667 53.9776,38.4 54.402,38.4 C54.8262667,38.4 55.2332,38.2314667 55.5333333,37.9313333 C55.8333333,37.6313333 56.002,37.2242667 56.002,36.8 C56.002,36.3756 55.8333333,35.9686667 55.5333333,35.6686667 C55.2332,35.3685333 54.8262667,35.2 54.402,35.2 Z M25.602,41.6 C25.1776,41.6 24.7706667,41.7685333 24.4705333,42.0686667 C24.1705333,42.3686667 24.002,42.7756 24.002,43.2 C24.002,43.6242667 24.1705333,44.0313333 24.4705333,44.3313333 C24.7706667,44.6314667 25.1776,44.8 25.602,44.8 C26.0262667,44.8 26.4333333,44.6314667 26.7333333,44.3313333 C27.0333333,44.0313333 27.202,43.6242667 27.202,43.2 C27.202,42.7756 27.0333333,42.3686667 26.7333333,42.0686667 C26.4333333,41.7685333 26.0262667,41.6 25.602,41.6 Z M54.402,41.6 C53.9776,41.6 53.5706667,41.7685333 53.2705333,42.0686667 C52.9705333,42.3686667 52.802,42.7756 52.802,43.2 C52.802,43.6242667 52.9705333,44.0313333 53.2705333,44.3313333 C53.5706667,44.6314667 53.9776,44.8 54.402,44.8 C54.8262667,44.8 55.2332,44.6314667 55.5333333,44.3313333 C55.8333333,44.0313333 56.002,43.6242667 56.002,43.2 C56.002,42.7756 55.8333333,42.3686667 55.5333333,42.0686667 C55.2332,41.7685333 54.8262667,41.6 54.402,41.6 Z M25.602,48 C25.1776,48 24.7706667,48.1685333 24.4705333,48.4686667 C24.1705333,48.7686667 24.002,49.1756 24.002,49.6 C24.002,50.0242667 24.1705333,50.4313333 24.4705333,50.7313333 C24.7706667,51.0314667 25.1776,51.2 25.602,51.2 C26.0262667,51.2 26.4333333,51.0314667 26.7333333,50.7313333 C27.0333333,50.4313333 27.202,50.0242667 27.202,49.6 C27.202,49.1756 27.0333333,48.7686667 26.7333333,48.4686667 C26.4333333,48.1685333 26.0262667,48 25.602,48 Z M54.402,48 C53.9776,48 53.5706667,48.1685333 53.2705333,48.4686667 C52.9705333,48.7686667 52.802,49.1756 52.802,49.6 C52.802,50.0242667 52.9705333,50.4313333 53.2705333,50.7313333 C53.5706667,51.0314667 53.9776,51.2 54.402,51.2 C54.8262667,51.2 55.2332,51.0314667 55.5333333,50.7313333 C55.8333333,50.4313333 56.002,50.0242667 56.002,49.6 C56.002,49.1756 55.8333333,48.7686667 55.5333333,48.4686667 C55.2332,48.1685333 54.8262667,48 54.402,48 Z"/></g></g></g></g></g></svg>