<svg xmlns="http://www.w3.org/2000/svg" xmlns:xlink="http://www.w3.org/1999/xlink" width="64" height="80" version="1.1" viewBox="0 0 64 80"><title>icon-stack-overflow</title><g id="Symbols" fill="none" fill-rule="evenodd" stroke="none" stroke-width="1"><g id="icon-stack-overflow" fill-rule="nonzero"><polygon id="Path" fill="#607D8B" points="0 47.568 6.399 47.568 6.399 77.838 0 77.838"/><polygon id="Path" fill="#607D8B" points="0 73.514 55.459 73.514 55.459 80 0 80"/><path id="Shape" fill="#607D8B" d="M49.0601253,47.5675676 L55.4592721,47.5675676 L55.4592721,77.8378378 L49.0601253,77.8378378 L49.0601253,47.5675676 Z M12.7982936,60.5405405 L42.6609785,60.5405405 L42.6609785,67.027027 L12.7982936,67.027027 L12.7982936,60.5405405 Z"/><polygon id="Path" fill="#A68A6E" points="12.973 48.129 42.665 51.368 41.98 57.817 12.289 54.578"/><polygon id="Path" fill="#EF6C00" points="59.449 0 64 29.915 57.674 30.903 53.123 .989"/><polygon id="Path" fill="#FF9800" points="41.528 4.836 56.099 31.254 50.512 34.42 35.941 8.003"/><polygon id="Path" fill="#D38B28" points="24.53 18.489 49.059 35.747 45.409 41.078 20.88 23.82"/><polygon id="Path" fill="#C09553" points="16.85 32.903 44.948 43.149 42.781 49.254 14.683 39.009"/></g></g></svg>