<svg xmlns="http://www.w3.org/2000/svg" xmlns:xlink="http://www.w3.org/1999/xlink" width="80" height="80" version="1.1" viewBox="0 0 80 80"><title>icon-telegram</title><g id="Symbols" fill="none" fill-rule="evenodd" stroke="none" stroke-width="1"><g id="icon-telegram" fill-rule="nonzero"><path id="Path" fill="#29B6F6" d="M40,0 C29.3914,0 19.2172,4.21428 11.71572,11.71572 C4.21428,19.2172 0,29.3914 0,40 C0,50.6086 4.21428,60.7828 11.71572,68.2842 C19.2172,75.7858 29.3914,80 40,80 C50.6086,80 60.7828,75.7858 68.2842,68.2842 C75.7858,60.7828 80,50.6086 80,40 C80,29.3914 75.7858,19.2172 68.2842,11.71572 C60.7828,4.21428 50.6086,0 40,0 Z"/><path id="Path" fill="#FFF" d="M59.9,21.9999936 L52.408,60.252 C52.408,60.252 52.086,61.9999936 49.918,61.9999936 C48.766,61.9999936 48.172,61.452 48.172,61.452 L31.944,47.986 L24.004,43.984 L13.814,41.274 C13.814,41.274 12,40.75 12,39.25 C12,37.9999936 13.866,37.404 13.866,37.404 L56.498,20.468 C56.496,20.466 57.8,19.998 58.75,19.9999936 C59.334,19.9999936 60,20.25 60,20.9999936 C60,21.4999936 59.9,21.9999936 59.9,21.9999936 Z"/><path id="Path" fill="#B0BEC5" d="M37.9996,53.01 L31.1476,59.758 C31.1476,59.758 30.8496,59.988 30.4516,59.998 C30.3136,60.002 30.1656,59.98 30.0136,59.912 L31.9416,47.982 L37.9996,53.01 Z"/><path id="Path" fill="#CFD8DC" d="M51.794,28.3918 C51.456,27.9518 50.832,27.8718 50.392,28.2058 L24,43.9998 C24,43.9998 28.212,55.7838 28.854,57.8238 C29.498,59.8658 30.014,59.9138 30.014,59.9138 L31.942,47.9838 L51.606,29.7918 C52.046,29.4578 52.128,28.8318 51.794,28.3918 Z"/></g></g></svg>