<svg xmlns="http://www.w3.org/2000/svg" xmlns:xlink="http://www.w3.org/1999/xlink" width="82" height="80" version="1.1" viewBox="0 0 82 80"><title>icon-github</title><g id="Symbols" fill="none" fill-rule="evenodd" stroke="none" stroke-width="1"><g id="icon-github" fill="#212529" fill-rule="nonzero"><path id="Path" d="M36.3976019,0.285587315 C17.4993108,2.34863347 2.29853201,17.6152782 0.244369937,36.1826935 C-1.80979214,55.5751211 9.28268307,72.9047088 26.1267915,79.5064565 C27.3592888,79.9190657 28.591786,79.0938472 28.591786,77.4434103 L28.591786,70.8416626 C28.591786,70.8416626 26.9484564,71.2542719 24.8942943,71.2542719 C19.1426405,71.2542719 16.677646,66.3029611 16.2668136,63.4146965 C15.8559812,61.7642595 15.0343163,60.5264319 13.8018191,59.2886042 C12.5693218,58.8759949 12.1584894,58.8762012 12.1584894,58.463592 C12.1584894,57.6383735 13.3909867,57.6381672 13.8018191,57.6381672 C16.2668136,57.6381672 18.3209757,60.5264319 19.1426405,61.7642595 C21.1968026,65.0651334 23.6617971,65.8903519 24.8942943,65.8903519 C26.537624,65.8903519 27.7701212,65.4777426 28.591786,65.0651334 C29.0026185,62.1768688 30.2351157,59.2886042 32.7001102,57.6381672 C23.2509646,55.5751211 16.2668136,50.2114074 16.2668136,41.1340043 C16.2668136,36.5953028 18.3209757,32.0566012 21.1968026,28.7557274 C20.7859702,27.9305089 20.3751377,25.8674628 20.3751377,22.9791982 C20.3751377,21.3287612 20.3751377,19.2657151 21.1968026,17.6152782 C21.1968026,16.7900597 22.0184674,16.3774505 22.4292998,16.3774505 L22.8401322,16.3774505 C24.8942943,16.7900597 29.0026185,18.0278874 32.7001102,21.7413705 C35.1651047,20.916152 38.0409316,20.5035428 40.9167585,20.5035428 C43.7925854,20.5035428 46.6684123,20.916152 49.1334068,21.7413705 C52.8308985,18.0278874 57.3500551,16.7900597 59.4042172,16.3774505 L59.8150496,16.3774505 C60.6367144,16.3774505 61.0475468,16.7900597 61.4583792,17.6152782 C61.4583792,19.2657151 61.4583792,21.3287612 61.4583792,22.9791982 C61.4583792,26.280072 61.0475468,27.9305089 60.6367144,28.7557274 C63.5125413,32.0566012 65.5667034,36.1826935 65.5667034,41.1340043 C65.5667034,50.2114074 58.5825523,55.5751211 49.1334068,57.6381672 C51.5984013,59.7012134 53.2417309,63.4146965 53.2417309,67.1281795 L53.2417309,77.8560195 C53.2417309,79.0938472 54.4742282,80.3316749 56.1175578,79.9190657 C71.3183572,73.7299272 82,58.8759949 82,41.5466135 C82,16.7900597 61.0475468,-2.6026773 36.3976019,0.285587315 Z"/></g></g></svg>