<svg xmlns="http://www.w3.org/2000/svg" xmlns:xlink="http://www.w3.org/1999/xlink" width="81" height="81" version="1.1" viewBox="0 0 81 81"><title>Group</title><defs><polygon id="path-1" points="0 0 80 0 80 79.516 0 79.516"/></defs><g id="Page-1" fill="none" fill-rule="evenodd" stroke="none" stroke-width="1"><g id="Group" transform="translate(0.060000, 0.040000)"><g id="Group-3"><mask id="mask-2" fill="#fff"><use xlink:href="#path-1"/></mask><path id="Fill-1" fill="#1877F2" d="M80,39.9992187 C80,17.906518 62.0903569,-0.00312518312 39.9976561,-0.00312518312 C17.9049554,-0.00312518312 -0.00468777467,17.906518 -0.00468777467,39.9992187 C-0.00468777467,59.9655449 14.6235912,76.5146395 33.7472899,79.5155966 L33.7472899,51.5623962 L23.5904448,51.5623962 L23.5904448,39.9992187 L33.7472899,39.9992187 L33.7472899,31.1862023 C33.7472899,21.1606149 39.7193586,15.6227904 48.856769,15.6227904 C53.2333535,15.6227904 57.8111999,16.4040862 57.8111999,16.4040862 L57.8111999,26.248413 L52.7669981,26.248413 C47.7977225,26.248413 46.2480223,29.331953 46.2480223,32.4954197 L46.2480223,39.9992187 L57.3424224,39.9992187 L55.568881,51.5623962 L46.2480223,51.5623962 L46.2480223,79.5155966 C65.371721,76.5146395 80,59.9655449 80,39.9992187" mask="url(#mask-2)"/></g><path id="Fill-4" fill="#FFF" d="M55.568881,51.5623962 L57.3424224,39.9992187 L46.2480223,39.9992187 L46.2480223,32.4954197 C46.2480223,29.331953 47.7977225,26.248413 52.7669981,26.248413 L57.8111999,26.248413 L57.8111999,16.4040862 C57.8111999,16.4040862 53.2333535,15.6227904 48.856769,15.6227904 C39.7193586,15.6227904 33.7472899,21.1606149 33.7472899,31.1862023 L33.7472899,39.9992187 L23.5904448,39.9992187 L23.5904448,51.5623962 L33.7472899,51.5623962 L33.7472899,79.5155966 C35.7838936,79.8351466 37.8712815,80.0015626 39.9976561,80.0015626 C42.1240307,80.0015626 44.2114186,79.8351466 46.2480223,79.5155966 L46.2480223,51.5623962 L55.568881,51.5623962"/></g></g></svg>