<svg xmlns="http://www.w3.org/2000/svg" xmlns:xlink="http://www.w3.org/1999/xlink" width="80" height="80" version="1.1" viewBox="0 0 80 80"><title>icon-google</title><g id="Symbols" fill="none" fill-rule="evenodd" stroke="none" stroke-width="1"><g id="icon-google" fill-rule="nonzero"><path id="Path" fill="#FFC107" d="M79.222,32.1658392 L76,32.1658392 L76,31.99984 L40,31.99984 L40,47.99976 L62.606,47.99976 C59.308,57.3137134 50.446,63.99968 40,63.99968 C26.746,63.99968 16,53.2537337 16,39.9998 C16,26.7458663 26.746,15.99992 40,15.99992 C46.118,15.99992 51.684,18.3079085 55.922,22.0778896 L67.236,10.7639462 C60.092,4.10597947 50.536,0 40,0 C17.91,0 0,17.9099105 0,39.9998 C0,62.0896896 17.91,79.9996 40,79.9996 C62.09,79.9996 80,62.0896896 80,39.9998 C80,37.3178134 79.724,34.6998265 79.222,32.1658392 Z"/><path id="Path" fill="#FF3D00" d="M4.60938,21.3818931 L17.7514,31.0198449 C21.3074,22.2158889 29.9194,15.99992 39.9974,15.99992 C46.1154,15.99992 51.6814,18.3079085 55.9194,22.0778896 L67.2334,10.7639462 C60.0894,4.10597947 50.5334,0 39.9974,0 C24.6334,0 11.30938,8.67395663 4.60938,21.3818931 Z"/><path id="Path" fill="#4CAF50" d="M39.9996,80 C50.3316,80 59.7196,76.0460198 66.8176,69.6160519 L54.4376,59.1401043 C50.4216,62.1820891 45.4296,64.00008 39.9996,64.00008 C29.5956,64.00008 20.7616,57.3661132 17.4336,48.1081595 L4.38964,58.1581092 C11.00964,71.1120444 24.4536,80 39.9996,80 Z"/><path id="Path" fill="#1976D2" d="M79.222,32.1658392 L76,32.1658392 L76,31.99984 L40,31.99984 L40,47.99976 L62.606,47.99976 C61.022,52.4737376 58.144,56.3317183 54.432,59.1417043 C54.434,59.1397043 54.436,59.1397043 54.438,59.1377043 L66.818,69.6136519 C65.942,70.409648 80,59.9997 80,39.9998 C80,37.3178134 79.724,34.6998265 79.222,32.1658392 Z"/></g></g></svg>