<svg xmlns="http://www.w3.org/2000/svg" xmlns:xlink="http://www.w3.org/1999/xlink" width="80" height="80" version="1.1" viewBox="0 0 80 80"><title>icon-performance</title><g id="Page-1" fill="none" fill-rule="evenodd" stroke="none" stroke-width="1"><g id="Homepage" fill-rule="nonzero" transform="translate(-185.000000, -1263.000000)"><g id="Page/Why" transform="translate(185.000000, 1047.000000)"><g id="Feature-1" transform="translate(0.000000, 216.000000)"><g id="icon-performance" transform="translate(0.000000, 0.000000)"><circle id="Oval" cx="40" cy="40" r="40" fill="#F1F6F9"/><path id="Path" fill="#257AF4" d="M35.2021333,19.2 C34.8261333,19.2 34.4621333,19.3328 34.1741333,19.5745333 C33.8861333,19.8161333 33.6924,20.1516 33.6270667,20.5218667 L28.8584,41.1718667 L28.8614667,41.1750667 C28.8226667,41.3133333 28.8026667,41.4564 28.8021333,41.6 C28.8021333,42.0244 28.9706667,42.4313333 29.2706667,42.7314667 C29.5708,43.0314667 29.9777333,43.2 30.4021333,43.2 L39.2021333,43.2 L36.8333333,58.8813333 C36.8122667,58.9862667 36.8018667,59.0930667 36.8021333,59.2 C36.8021333,59.6244 36.9706667,60.0313333 37.2706667,60.3314667 C37.5708,60.6314667 37.9777333,60.8 38.4021333,60.8 C38.6928,60.8 38.978,60.7198667 39.2268,60.5696 C39.4756,60.4193333 39.6789333,60.204 39.8145333,59.9469333 L39.8177333,59.9469333 L50.8926667,39.3437333 L50.8770667,39.3156 C51.0665333,39.0528 51.2021333,38.7485333 51.2021333,38.4 C51.2021333,37.5168 50.4853333,36.8 49.6021333,36.8 L40.8021333,36.8 L46.2614667,21.4562667 C46.3542667,21.25 46.4021333,21.0262667 46.4021333,20.8 C46.4021333,20.3757333 46.2334667,19.9686667 45.9334667,19.6686667 C45.6333333,19.3686667 45.2264,19.2 44.8021333,19.2 L35.2021333,19.2 Z"/></g></g></g></g></g></svg>