<svg xmlns="http://www.w3.org/2000/svg" xmlns:xlink="http://www.w3.org/1999/xlink" width="20" height="14" version="1.1" viewBox="0 0 20 14"><title>icon-youtube</title><defs><path id="path-1" d="M19.5820806,2.19052604 C19.3520638,1.32828646 18.6743546,0.649213542 17.8138699,0.418760417 C16.2541794,0 10,0 10,0 C10,0 3.74585724,0 2.18613014,0.418760417 C1.32564535,0.64925 0.647936221,1.32828646 0.417919412,2.19052604 C0,3.75338542 0,7.01414583 0,7.01414583 C0,7.01414583 0,10.2749062 0.417919412,11.8377656 C0.647936221,12.7000052 1.32564535,13.3507865 2.18613014,13.5812396 C3.74585724,14 10,14 10,14 C10,14 16.2541428,14 17.8138699,13.5812396 C18.6743546,13.3507865 19.3520638,12.7000052 19.5820806,11.8377656 C20,10.2749062 20,7.01414583 20,7.01414583 C20,7.01414583 20,3.75338542 19.5820806,2.19052604 Z M7.95453131,9.97467188 L7.95453131,4.05361979 L13.1817832,7.01421875 L7.95453131,9.97467188 Z"/></defs><g id="Page-1" fill="none" fill-rule="evenodd" stroke="none" stroke-width="1"><g id="Icon/Youtube"><mask id="mask-2" fill="#fff"><use xlink:href="#path-1"/></mask><use id="Brands/youtube" fill="#212529" fill-rule="nonzero" xlink:href="#path-1"/></g></g></svg>