<svg xmlns="http://www.w3.org/2000/svg" xmlns:xlink="http://www.w3.org/1999/xlink" width="80" height="80" version="1.1" viewBox="0 0 80 80"><title>icon-youtube</title><g id="Symbols" fill="none" fill-rule="evenodd" stroke="none" stroke-width="1"><g id="icon-youtube" fill-rule="nonzero" transform="translate(0.000000, 10.000000)"><path id="Path" fill="#FF3D00" d="M78.2044888,49.8 C77.4064838,54 74.0149626,57.2 69.8254364,57.8 C63.2418953,58.8 52.2693267,60 39.9002494,60 C27.7306733,60 16.7581047,58.8 9.97506234,57.8 C5.78553616,57.2 2.39401496,54 1.59600998,49.8 C0.798004988,45.2 0,38.4 0,30 C0,21.6 0.798004988,14.8 1.59600998,10.2 C2.39401496,6 5.78553616,2.8 9.97506234,2.2 C16.5586035,1.2 27.5311721,0 39.9002494,0 C52.2693267,0 63.042394,1.2 69.8254364,2.2 C74.0149626,2.8 77.4064838,6 78.2044888,10.2 C79.0024938,14.8 80,21.6 80,30 C79.8004988,38.4 79.0024938,45.2 78.2044888,49.8 Z"/><polygon id="Path" fill="#FFF" points="31.92 44 31.92 16 55.86 30"/></g></g></svg>