<svg xmlns="http://www.w3.org/2000/svg" xmlns:xlink="http://www.w3.org/1999/xlink" width="750" height="500"><path fill="#c60b1e" d="M0 0h750v500H0z"/><path fill="#ffc400" d="M0 125h750v250H0z"/><g stroke="#000" stroke-width=".39"><g stroke-width=".26"><path d="M167.99 222.24c-8.943-3.634 2.42-9.829 7.69-7.92 4.54-1.233 15.064 2.852 8.589 7.703-5.347-.29-10.902-1.228-16.279.217z" fill="#ad1519" stroke-linejoin="round"/><g fill="#c8b100"><path d="M177.04 215.68c.568 2.35-2.664 3.51-2.71.669-.87-1.87 1.823-4.765 2.56-1.803.103.368.15.752.15 1.134z"/><path d="M176.32 215.68c.298.866-.676 3.5-1.141 1.43-.128-.914-.494-3.78.75-3.548.35.637.37 1.408.391 2.118z"/><path d="M176.61 213.04c-.24 2.025-3.164-.096-1.179-.838.544-.159 1.188.247 1.179.838z" stroke="none"/><path d="M176.96 212.74c-2.644 2.146-2.287-1.206-1.675-1.89 2.48-1.687-.547 2.32 1.675 1.89z" stroke-width=".3"/><path d="M175.94 212.2c2.019.783-1.037 2.865-1.178.786.02-.377.318-.698.678-.786" fill="none"/><path d="M175.68 222.08c-4.813 1.322-4.923-1.651-6.346-5.128-3.956-6.246 4.585 4.347 8.346 2.318 2.794-5.233 8.907-5.743 3.24-.072.455 4.054-2.412 2.695-5.24 2.882z"/><path d="M167.55 215.44c2.182-.207 3.556 2.244 4.73 3.74m11.55-3.74c-2.182-.206-3.551 2.249-4.73 3.74" fill="none"/></g><g id="a" fill="#c8b100"><path d="M168.58 224.25c-.505-4.809 22.063-.177 10.866.031-3.285-1.06-8.633.979-10.866-.031z"/><path d="M175.67 226.73c5.201.965 10.329-2.779 1.957-2.591-4.954-1.34-13.678 2.326-3.798 2.523zM183.48 222.08c-3.28-1.384-7.234-1.22-10.469-.999-4.87-.078-6.828 2.3.51.682 3.17-.594 7.643.945 9.959.317z"/><path d="M175.69 219.49c2.517 2.57 4.611-.353 7.18 1.6 5.282 1.158-2.314.733-5.86.52-2.928-1.005-11.186 1.44-10.15-.12 2.922-.228 3.43-1.516 6.21-1.22.109.295 2.4 1.503 2.62-.78z"/><path d="M175.67 222.23c-2.87-.042-12.553 1.597-4.338-.265 4.434-1.497 19.164 2.235 6.534.336l-1.082-.051z" stroke-linejoin="round"/><path d="M165.43 221c-3.15-1.859.814-1.968 0 0z"/><path d="M167.32 220.22c-.668 2.491-3.53-.68 0 0z"/><path d="M165.45 220.75c1.58-.082.106 1.54 0 0zM168.02 220.88c.226-1.42 1.024 1.035 0 0zM168.67 220.04c1.909 1.712 2.673-2.632 0 0z"/><path d="M170.08 217.76c-2.192 2.17 3.125 2.401 0 0z"/><path d="M172.36 219.3c-1.047 2.292-3.511-1.356 0 0z"/><path d="M171 219.65c-.754 1.55-1.437-1.273-.053-.213.034.065.053.139.053.213zM172.87 219.95c.46-1.333.81 1.164 0 0zM173.78 219.24c1.435 2.067 3.277-2.1 0 0z"/><path d="M175.66 217.15c-2.876 1.837 2.78 3.002 0 0z"/><path d="M177.55 219.24c-1.578 2.032-3.061-2.024 0 0z"/><path d="M176.16 219.21c-.754 1.55-1.437-1.273-.053-.213.034.065.053.139.053.213zM178.5 219.95c-.476-1.326-.815 1.159 0 0zM178.99 219.3c1.047 2.292 3.511-1.356 0 0z"/><path d="M181.27 217.76c2.192 2.17-3.125 2.401 0 0z"/><path d="M182.68 220.04c-1.877 1.744-2.725-2.692 0 0z"/><path d="M181.34 219.65c-.754 1.55-1.437-1.273-.053-.213.035.065.053.139.053.213zM183.34 220.88c-.226-1.42-1.024 1.035 0 0zM185.73 221c3.157-1.855-.828-1.966 0 0z"/><path d="M183.84 220.22c.61 2.47 3.592-.661 0 0z"/><path d="M185.74 220.75c-1.61-.072-.07 1.541 0 0z"/></g><g id="b" fill="none"><path d="M168.05 224.3c.813-1.694 1.565.75 0 0z" fill="#ad1519"/><path d="M170.85 223.81c-3.234-.075 2.718-1.494 0 0z" fill="#058e6e"/><path d="M173.63 223.3c-.38 1.219-1.519-.656-.229-.36.134.067.23.208.229.36z" fill="#fff"/><path d="M175.7 223.48c-4.854-1.034 4.717-.6 0 0z" fill="#ad1519"/><path d="M178.6 223.3c-.38 1.219-1.519-.656-.229-.36.134.067.23.208.229.36z" fill="#fff"/><path d="M180.5 223.81c3.234-.075-2.718-1.494 0 0z" fill="#058e6e"/><path d="M183.24 224.33c-.593-1.755-1.67.555 0 0z" fill="#ad1519"/><path d="M175.66 226.16c-4.37.24-8.62-1.13-1.775-1.297 3.919-.523 11.856 1.026 3.557 1.256z" fill="#ad1519" stroke-linejoin="round"/><path d="M176.8 226.08v-1.16m-.58 1.2l.01-1.23m-.43 1.25v-1.26" stroke-width=".01"/><path d="M175.44 226.15v-1.27" stroke-width=".02"/><path d="M175.09 226.15v-1.27" stroke-width=".03"/><path d="M174.77 226.15v-1.27M174.44 226.15v-1.27" stroke-width=".04"/><path d="M174.16 226.15v-1.27" stroke-width=".05"/><path d="M173.61 226.08l-.01-1.15m.27 1.17v-1.21" stroke-width=".06"/><path d="M173.1 226.03v-1.06m.26 1.09l-.01-1.13" stroke-width=".07"/><path d="M172.42 225.97v-.93m.23.94V225m.23 1.02V225" stroke-width=".08"/><path d="M172.19 225.96v-.9" stroke-width=".09"/><path d="M171.97 225.92v-.85" stroke-width=".1"/><path d="M171.73 225.89v-.78" stroke-width=".11"/><path d="M171.24 225.82l-.009-.535-.001-.085m.26.66V225.16M170.99 225.77v-.55" stroke-width=".12"/><path d="M170.76 225.73v-.46" stroke-width=".13"/><path d="M170.51 225.67v-.36" stroke-width=".14"/><path d="M170.26 225.64v-.27" stroke-width=".15"/><path d="M169.99 225.58v-.13" stroke-width=".18"/></g></g><g id="c"><g fill="#005bbf"><path d="M191.28 330.68c-8.527-3.28-16.86 1.553-25.465-1.48-4.996-.69-8.69 5.893-1.735 3.01 7.225-.451 14.224 1.29 21.527-.596 2.223.513 6.742 3.505 5.673-.934z"/><path d="M191.28 333.09c-8.528-3.293-16.859 1.558-25.465-1.485-4.994-.685-8.691 5.898-1.735 3.015 7.225-.448 14.223 1.286 21.527-.595 2.217.528 6.745 3.494 5.673-.935z" fill="#ccc"/><path d="M191.28 335.5c-8.53-3.288-16.86 1.556-25.465-1.485-4.989-.683-8.692 5.891-1.735 3.005 7.23-.423 14.224 1.282 21.527-.581 2.214.505 6.74 3.487 5.673-.939z"/><path d="M191.26 340.32c-8.518-3.28-16.848 1.55-25.445-1.48-4.999 4.044-8.684-1.625-1.735-1.82 7.23-.423 14.224 1.282 21.527-.581 2.164 1.793 6.825-.006 5.653 3.881z" fill="#ccc"/><path d="M191.26 342.73c-8.52-3.287-16.846 1.553-25.445-1.485-4.987 4.049-8.69-1.614-1.735-1.805 7.228-.443 14.222 1.284 21.527-.591 2.153 1.788 6.823.009 5.653 3.881z"/></g><g fill="#c8b100"><path d="M166.92 320.78c-2.3 4.477-2.56 3.014 2.67 3.25h17.59c-2.556-3.243-5.334-3.68-10.116-3.19-3.379-.044-6.773.086-10.144-.06z" stroke-linejoin="round"/><path d="M167.33 319.27c5.792.158 11.68-.312 17.414.229-.725 2.749-6.469.715-9.285 1.341-2.648-.652-8.314 1.451-8.849-1.341zM164.27 329.86h22.87c.369-3.739.491-7.232-4.28-5.83h-18.59v5.83z"/></g><path d="M167.55 318.32h16.25v-79.63h-16.25v79.63z" fill="#ccc"/><path d="M179.13 238.8v79.46m1.83-79.46v79.46" fill="none"/><g fill="#c8b100"><path d="M164.58 232.37h22.29c.365-3.739.496-7.243-4.28-5.84h-18.01v5.84z"/><path d="M166.92 236.26c5.839-.107 11.723-.133 17.56.01.75-4.19-4.05-2.07-7.941-2.57-3.118-.028-6.787.056-9.589-.04 1.274.326 1.205 2.277-.03 2.6z" stroke-linejoin="round"/><path d="M167.33 236.19c5.792.158 11.68-.312 17.414.229-.722 2.75-6.469.715-9.285 1.341-2.648-.652-8.317 1.452-8.849-1.341zM167.33 232.37c5.8.134 11.671-.266 17.429.195-.957 2.374-6.473.573-9.29 1.135-2.647-.59-8.086 1.285-8.859-1.135z"/></g></g><g id="d" fill="#ad1519"><path d="M162.48 298.62c-7.766 1.519.937 7.95 1.058 8.226 2.077-2.417 1.53-6.396-1.058-8.226z"/><path d="M200.4 268.47c-12.87-4.202-28.638-4.176-39.851 4.131-1.03 6.87-8.494-10.238-.91-10.59 12.368-6.451 27.427-7.086 40.721-3.361l.04 9.82z" stroke-linejoin="round"/><path d="M167.52 278.47c-7.565 1.923-10.69-8.496-2.049-7.888 3.859-1.169 1.35 5.858 2.049 7.888zM183.83 272.38c10.217-1.502 3.314 8.8-.026 6.76.01-2.253.017-4.507.026-6.76z"/><path d="M157.42 293.83c5.08-6.162 14.629-6.78 21.39-10.942 4.08-.176 11.058-9.014 11.388-7.06 4.476 10.04-7.573 13.983-14.545 17.4-5.428.517-15.404 8.218-17.018 7.124-.404-2.174-.814-4.348-1.215-6.522z" stroke-linejoin="round"/></g><g stroke-width=".26"><path d="M324.85 220.42c-3.41.305-6.92 2.69-10.089.397.754-6.879 14.532-3.865 20.11-2.67 1.622 5.296-4.782 3.263-7.227 2.944-.814-.429-1.954.92-2.794-.671z" fill="#ad1519" stroke-width=".27"/><g fill="#c8b100"><path d="M326.2 216.2c-.498 4.853-5.14-1.273-1.242-1.95.87.156 1.245 1.166 1.242 1.95z"/><path d="M325.48 216.2c.356 1.11-.998 2.74-1.191.821-.491-.86.456-3.922 1.091-1.799.07.32.1.65.1.978z"/><path d="M325.77 213.95c-.237 2.046-3.167-.098-1.179-.848.548-.161 1.19.256 1.179.848z" stroke="none"/><path d="M326.13 213.64c-2.64 2.138-2.289-1.192-1.675-1.88 1.638-1.537.407 1.45 1.23 1.88z" stroke-width=".3"/><path d="M325.11 213.12c2 .843-1.119 2.868-1.2.765.03-.374.33-.69.69-.775" fill="none"/></g><g fill="none" stroke-width=".21"><path d="M314.41 219.99c-1.092-2.346 1.715-4.997 3.98-3.59" stroke-width=".26" stroke-linecap="round"/><path d="M319.48 217.93c-1.33-2.288 2.45-3.74 4-2.47M330.17 217.96c1.228-2.329-2.42-3.763-4.03-2.5" stroke-width=".26"/><path d="M335.21 219.99c1.066-2.351-1.716-4.997-3.99-3.59" stroke-width=".26" stroke-linecap="round"/><path d="M314.02 218.68c-.983 1.68-1.262-1.585 0 0zM314.19 217.1c-.983 1.68-1.262-1.585 0 0zM315.21 215.9c-.983 1.68-1.262-1.585 0 0zM316.56 215.25c-.983 1.68-1.262-1.585 0 0zM318 215.31c-.983 1.68-1.262-1.585 0 0z"/><path d="M318.88 217.08c-.983 1.68-1.262-1.585 0 0z" fill="#fff"/><path d="M319.13 215.58c-.983 1.68-1.262-1.585 0 0zM320.26 214.64c-.983 1.68-1.262-1.585 0 0zM321.68 214.19c-.983 1.68-1.262-1.585 0 0zM323.12 214.24c-.983 1.68-1.262-1.585 0 0zM327.39 214.24c-.983 1.68-1.262-1.585 0 0zM328.84 214.19c-.983 1.68-1.262-1.585 0 0zM330.25 214.64c-.983 1.68-1.262-1.585 0 0zM331.38 215.58c-.983 1.68-1.262-1.585 0 0z"/><path d="M331.63 217.08c-.983 1.68-1.262-1.585 0 0z" fill="#fff"/><path d="M332.51 215.31c-.983 1.68-1.262-1.585 0 0zM333.96 215.25c-.983 1.68-1.262-1.585 0 0zM335.31 215.9c-.983 1.68-1.262-1.585 0 0zM336.33 217.1c-.983 1.68-1.262-1.585 0 0z"/><path d="M336.5 218.68c-.983 1.68-1.262-1.585 0 0z"/></g><use x="149.17" xlink:href="#a"/><use x="149.17" xlink:href="#b"/></g><use x="149.17" xlink:href="#c"/><use transform="matrix(-1 0 0 1 500.57 0)" xlink:href="#d"/><g fill="#c8b100" stroke="none"><path d="M166.42 264.65c8.803-3.818-6.767-5.817-1.816.196.483 4.09 4.235 3.847 1.816-.196zm-1.18-2.91c4.61-1.312.942 5.689 0 0z"/><path d="M172.78 259.22c-2.749-.5-1.389 8.415 1.768 6.198 5.387-.855-3.37-.645-1.68-5.809zM181.56 264.63c2.152-3.68 3.266-10.338.369-2.994-.154 2.962-5.507-7.762-4.072-1.632 1.47 1.033 1.48 5.171 3.703 4.626zM190.72 259.8c-1.378-4.553-7.398 2.07-1.12 3.74-2.46.748-5.816-.339-.563 1.337 6.303-1.08-5.556-7.702 1.503-5.097zM310.3 264.98c1.825-3.838 2.3-10.562.098-3.007.115 2.976-6.195-7.287-4.21-1.295 1.562.89 1.942 5.054 4.112 4.302zM316.48 258.16c-2.765-.818-3.245 8.315.785 6.428 4.619.27-3.587-1.106-.785-6.428zM323.52 259.21c7.723-.286-9.524-1.606-1.76-.14-1.59 3.693 1.167 8.94 1.524 2.713l.236-2.573zM326.01 265.53c3.06.31 2.195-4.81 3.92.86 4.662 1.66-1.936-3.83 2.57-4.49-2.926-5.203-6.56-1.5-6.35 3.057l-.127.52zm3.14-5.42c4.734 1.049-2.48 5.396 0 0zM337.57 267.46c.407 7.515 3.408-2.806 1.27-4.6-1.99 1.036-9.564 6.116-3.66 3.28.793.442 1.611.87 2.39 1.32zm-1.81-1.66c3.321-3.806 2.677 3.134 0 0z"/></g><g><path d="M249.65 182.72c9.293-.793 17.623 3.899 26.635 4.878 8.047-.626 18.534 1.857 23.046 7.788-2.19 2.296-1.047 6.341-4.438 8.227-2.654 2.938-5.92 5.712-9.256 7.64-2.885 1-4.003 3.492-8.171 1.794-9.553-.957-19.106-2.57-28.659-3.113l-31.957 3.736c-.551-3.564-5.322-2.222-7.158-5.471-2.988-2.328-5.986-5.13-7.831-8.34-2.941-5.982 1.381-8.06 7.317-10.348 8.917-3.333 18.944-.6 27.6-5.314 4.197-1.084 8.547-1.468 12.872-1.477z" fill="#ad1519" stroke-width=".26"/><g fill="#c8b100"><path d="M225.34 191.42c4.156 2.411 3.254-5.548-.063-6.825-1.934-9.996 11.964-13.023 18.999-9.358 5.9-.12-6.397-4.802-9.82-2.908-10.594.132-13.225 12.25-8.85 18.653z"/><path d="M225.43 191.46c-6.203-3.685-5.116-13.156 1.31-15.99-7.802 4.584-.1 11.485-1.31 15.99z"/><path d="M202.21 194.89c-7.662-9.17 4.83-18.421 13.817-17.603 5.045-1.36 10.631 2.788 2.787 1.664-8.539-1.786-23.198 6.607-14.374 15.639-.675 3.665-5.743 5.494-2.616.915l.284-.453z"/><path d="M204.9 180.48c-8.791 3.543-1.625 12.121-4.29 17-4.847-5.638-1.832-13.813 4.29-17zM250.04 171.27c6.379 2.13 4.06 13.59 4.201 18.111-2.428 2.843-4.858 5.333-7.31 1.086-4.316-4.017 0-12-.109-17.556.714-1.038 1.968-1.645 3.218-1.641z"/><path d="M250.04 172.94c2.528 3.475 4.49 13.003 1.567 16.729-3.5 3.777-6.783-4.65-4.047-7.484.799-2.82-1.32-8.365 2.48-9.245zM274.7 191.42c-4.174 2.41-3.26-5.543.063-6.825 1.934-9.996-11.965-13.024-19-9.358-5.911-.12 6.397-4.802 9.822-2.908 10.6.13 13.217 12.258 8.844 18.65z"/><path d="M274.61 191.46c6.203-3.685 5.116-13.156-1.31-15.99 7.822 4.588.069 11.495 1.31 15.99z"/><path d="M297.83 194.89c7.66-9.173-4.831-18.417-13.817-17.603-5.052-1.358-10.638 2.787-2.788 1.664 8.538-1.788 23.186 6.612 14.365 15.639.672 3.669 5.752 5.495 2.626.915l-.284-.453z"/><path d="M295.14 180.48c8.793 3.543 1.62 12.12 4.29 17 4.832-5.638 1.822-13.809-4.29-17z"/><path d="M254.48 167.3c.143 5.456-9.003 5.455-8.86 0 .107-5.525 8.73-5.552 8.86 0z" fill="#005bbf" stroke-width=".26"/><path d="M248.89 155.54c.983 2.61-5.874 3.86-.28 4.56.058 1.944 1.915 8.098-2.395 6.61-1.965 3.967 5.282 1.662 7.811 2.26.894-3.238-4.713-1.694-2.706-6.76-.463-2.215 5.712-4.12 0-4.41.306-2.602-.001-2.381-2.43-2.26z" stroke-width=".26"/></g><g fill="#fff"><path d="M251.95 188.94c-.166 3.547-5.895.934-3.097-1.41 1.148-.918 3.115-.127 3.097 1.41z"/><path d="M251.95 185.4c-.166 3.547-5.895.934-3.097-1.41 1.148-.918 3.115-.127 3.097 1.41zM251.56 181.6c-.052 2.596-4.377 1.108-2.683-.928.831-1.007 2.708-.424 2.683.928zM251.14 178.18c-.344 2.51-3.804-.3-1.287-1.025.624-.119 1.298.368 1.287 1.025zM250.92 175.18c-.225 1.93-2.996-.092-1.115-.8.517-.151 1.124.24 1.115.8zM200.04 198.67c-.344 2.51-3.804-.3-1.287-1.025.624-.119 1.298.368 1.287 1.025zM198.54 196.02c-.344 2.51-3.804-.3-1.287-1.025.624-.119 1.298.368 1.287 1.025zM197.54 192.94c-.344 2.51-3.804-.3-1.287-1.025.624-.119 1.298.368 1.287 1.025zM197.41 189.64c-.344 2.51-3.804-.3-1.287-1.025.624-.119 1.298.368 1.287 1.025zM198.22 186.4c-.344 2.51-3.804-.3-1.287-1.025.624-.119 1.298.368 1.287 1.025zM199.91 183.45c-.344 2.51-3.804-.3-1.287-1.025.624-.119 1.298.368 1.287 1.025zM202.16 181.02c-.344 2.51-3.804-.3-1.287-1.025.624-.119 1.298.368 1.287 1.025zM204.78 179.01c-.344 2.51-3.804-.3-1.287-1.025.624-.119 1.298.368 1.287 1.025zM207.9 177.36c-.344 2.51-3.804-.3-1.287-1.025.624-.119 1.298.368 1.287 1.025zM211.14 176.19c-.344 2.51-3.804-.3-1.287-1.025.624-.119 1.298.368 1.287 1.025zM214.76 175.54c-.344 2.51-3.804-.3-1.287-1.025.624-.119 1.298.368 1.287 1.025zM218.2 175.36c-.344 2.51-3.804-.3-1.287-1.025.624-.119 1.298.368 1.287 1.025zM221.57 175.48c-.344 2.51-3.804-.3-1.287-1.025.624-.119 1.298.368 1.287 1.025zM225.31 190.32c-.344 2.51-3.804-.3-1.287-1.025.624-.119 1.298.368 1.287 1.025zM223.44 187.65c-.344 2.51-3.804-.3-1.287-1.025.624-.119 1.298.368 1.287 1.025zM222.45 184.75c-.344 2.51-3.804-.3-1.287-1.025.624-.119 1.298.368 1.287 1.025zM222.57 181.57c-.344 2.51-3.804-.3-1.287-1.025.624-.119 1.298.368 1.287 1.025zM223.26 178.37c-.344 2.51-3.804-.3-1.287-1.025.624-.119 1.298.368 1.287 1.025zM224.94 175.48c-.344 2.51-3.804-.3-1.287-1.025.624-.119 1.298.368 1.287 1.025zM227.5 173.47c-.344 2.51-3.804-.3-1.287-1.025.624-.119 1.298.368 1.287 1.025zM230.49 171.81c-.344 2.51-3.804-.3-1.287-1.025.624-.119 1.298.368 1.287 1.025zM233.8 170.82c-.344 2.51-3.804-.3-1.287-1.025.624-.119 1.298.368 1.287 1.025zM237.23 170.23c-.344 2.51-3.804-.3-1.287-1.025.624-.119 1.298.368 1.287 1.025zM240.6 170.28c-.344 2.51-3.804-.3-1.287-1.025.624-.119 1.298.368 1.287 1.025zM244.09 170.87c-.344 2.51-3.804-.3-1.287-1.025.624-.119 1.298.368 1.287 1.025zM247.33 171.99c-.344 2.51-3.804-.3-1.287-1.025.624-.119 1.298.368 1.287 1.025zM254.9 171.99c-.344 2.51-3.804-.3-1.287-1.025.624-.119 1.298.368 1.287 1.025zM258.14 170.87c-.344 2.51-3.804-.3-1.287-1.025.624-.119 1.298.368 1.287 1.025zM261.64 170.28c-.344 2.51-3.804-.3-1.287-1.025.624-.119 1.298.368 1.287 1.025zM265 170.23c-.344 2.51-3.804-.3-1.287-1.025.624-.119 1.298.368 1.287 1.025zM268.44 170.82c-.344 2.51-3.804-.3-1.287-1.025.624-.119 1.298.368 1.287 1.025zM271.74 171.81c-.344 2.51-3.804-.3-1.287-1.025.624-.119 1.298.368 1.287 1.025zM274.74 173.47c-.344 2.51-3.804-.3-1.287-1.025.624-.119 1.298.368 1.287 1.025zM277.29 175.48c-.344 2.51-3.804-.3-1.287-1.025.624-.119 1.298.368 1.287 1.025zM278.98 178.37c-.344 2.51-3.804-.3-1.287-1.025.624-.119 1.298.368 1.287 1.025zM279.67 181.57c-.344 2.51-3.804-.3-1.287-1.025.624-.119 1.298.368 1.287 1.025zM279.79 184.75c-.344 2.51-3.804-.3-1.287-1.025.624-.119 1.298.368 1.287 1.025zM278.79 187.65c-.344 2.51-3.804-.3-1.287-1.025.624-.119 1.298.368 1.287 1.025zM276.93 190.32c-.344 2.51-3.804-.3-1.287-1.025.624-.119 1.298.368 1.287 1.025zM280.67 175.48c-.344 2.51-3.804-.3-1.287-1.025.624-.119 1.298.368 1.287 1.025zM284.04 175.36c-.344 2.51-3.804-.3-1.287-1.025.624-.119 1.298.368 1.287 1.025zM287.48 175.54c-.344 2.51-3.804-.3-1.287-1.025.624-.119 1.298.368 1.287 1.025zM291.1 176.19c-.344 2.51-3.804-.3-1.287-1.025.624-.119 1.298.368 1.287 1.025zM294.34 177.36c-.344 2.51-3.804-.3-1.287-1.025.624-.119 1.298.368 1.287 1.025zM297.46 179.01c-.344 2.51-3.804-.3-1.287-1.025.624-.119 1.298.368 1.287 1.025zM300.07 181.02c-.344 2.51-3.804-.3-1.287-1.025.624-.119 1.298.368 1.287 1.025zM302.32 183.45c-.344 2.51-3.804-.3-1.287-1.025.624-.119 1.298.368 1.287 1.025zM304.01 186.4c-.344 2.51-3.804-.3-1.287-1.025.624-.119 1.298.368 1.287 1.025zM304.82 189.64c-.344 2.51-3.804-.3-1.287-1.025.624-.119 1.298.368 1.287 1.025zM304.7 192.94c-.344 2.51-3.804-.3-1.287-1.025.624-.119 1.298.368 1.287 1.025zM303.7 196.02c-.344 2.51-3.804-.3-1.287-1.025.624-.119 1.298.368 1.287 1.025zM302.2 198.67c-.344 2.51-3.804-.3-1.287-1.025.624-.119 1.298.368 1.287 1.025z"/></g><g fill="#c8b100"><path d="M250.15 226.18c-10.647-.22-21.728-.614-31.735-4.316 5.113-5.91 17.834-4.431 26.088-5.652 12.507-.246 25.51.038 37.362 4.172-5.032 5.964-17.823 4.455-26.065 5.684-1.882.072-3.766.109-5.65.112z"/><path d="M250.07 216.09c-10.563.078-21.226.987-31.39 4 .987-4.566-5.77-6.792 2.497-6.955 20.795-4.092 42.654-4.01 63.213 1.335-4.396 2.062-1.234 8.36-7.484 4.355-8.797-1.965-17.836-2.69-26.836-2.735z"/><path d="M250.12 210.3c-11.783-.084-23.598 1.402-34.996 4.15 2.75-5.43 15.622-4.422 22.573-5.809 15.824-1.108 31.992-.456 47.323 3.889.215 4.641-11.702-2.117-16.001-1.092-6.267-.779-12.585-1.126-18.899-1.138z"/><path d="M250.2 199.78c.345 4.037 8.199 10.628 10.871 2.471.763 7.323 10.497 3.352 12.1-1.39-1.828 7.182 7.172 9.64 9.735 5.234-.858 11.286 15.956-7.218 7.458 3.98-5.204 5.505-8.8-1.793-14.318.238-4.045-6.446-9.998 2.296-15.056-3.893-5.46 5.631-10.505-4.08-14.961 1.65-5.898-2.026-9.163 1.238-15.152.31-3.345-3.672-7.11 5.87-12.157 1.24-3.519 10.386-17.43-10.355-7.46-1.05 4.77 6.404 5.907-4.45 7.16-1.76 5.822 6.43 8.675-3.596 9.34-6.064 1.25 7.832 11.291 6.788 11.514 1.505 3.196 8.358 10.27 1.974 10.926-2.471z"/><path d="M208.37 206.32c-2.698-1.83-7.1-3.654-8.92-5.487 3.126-3.312 9.146-1.848 7.39 3.897 2.507-6.335 10.417-2.508 6.79.91 1.24 1.246-4.583.835-5.26.68z"/><path d="M205.29 205.01c7.136-1.077.35 7.169 0 0z" fill="#ad1519"/><path d="M216.39 205.91c.964-6.072 3.945 4.37 0 0z" fill="#fff"/><path d="M226.12 201.86c-1.865-7.612-11.672.478-4.64 1.99-.227 1.614 4.308-1.415 4.64-1.99z"/><path d="M225.68 191.65c3.058 2.378 5.805 3.893 2.174 7.07-4.404 1.587-5.766-4.298-3.031-5.391z"/><path d="M228.97 201.38c-.952-7.777 11.152-3.296 5.08.37.831 1.447-4.599.06-5.08-.36"/><path d="M229.54 200.45c-.032 3.547-6.005 1.81-3.961-1.163 1.114-1.634 3.979-.88 3.961 1.163z" fill="#ad1519"/><path d="M237.76 201.77c2.151-5.81 3.025 5.014 0 0z" fill="#fff"/><path d="M248.5 199.83c.304-4.875-5.923-5.416-7.286-2.526-4.706 1.263 3.915 4.377 2.776 4.316 1.631-.224 3.191-.777 4.51-1.78M250.11 188.36c2.818 3.712 5.744 5.11.966 8.296-4.437 1.721-6.093-6.329-2.663-5.555a6.078 6.078 0 011.697-2.741zM251.76 199.83c-.46-4.778 6.418-5.7 7.29-2.526 3.1 1.33-2.489 4.075-2.77 4.316-1.634-.221-3.197-.78-4.52-1.78"/><path d="M252.31 198.5c-.032 3.547-6.005 1.81-3.961-1.163 1.114-1.634 3.98-.88 3.961 1.163z" fill="#ad1519"/><path d="M262.58 201.77c-2.151-5.813-3.02 5.016 0 0z" fill="#fff"/><path d="M271.38 201.38c.977-7.759-11.164-3.318-5.08.37-.558 1.371 4.423.093 5.07-.36"/><path d="M274.67 191.65c-3.071 2.378-5.81 3.891-2.175 7.07 4.41 1.589 5.745-4.3 3.027-5.391z"/><path d="M274.22 201.86c1.867-7.611 11.69.482 4.64 1.99.227 1.607-4.307-1.41-4.64-1.99z"/><path d="M275.15 200.45c-.032 3.547-6.005 1.81-3.961-1.163 1.114-1.634 3.98-.88 3.961 1.163z" fill="#ad1519"/><path d="M283.96 205.91c-.963-6.07-3.967 4.37 0 0z" fill="#fff"/><path d="M291.97 206.32c2.702-1.83 7.107-3.657 8.929-5.487-3.136-3.309-9.132-1.85-7.399 3.897-2.49-6.337-10.41-2.51-6.79.91-1.199 1.25 4.572.832 5.26.68z"/><path d="M295.05 205.01c-7.13-1.077-.35 7.17 0 0z" fill="#ad1519"/></g><g fill="none"><path d="M250.12 224.57c-8.044-.03-24.353-1.006-27.225-3.62 18.356-3.9 37.67-3.882 55.965.36-9.375 2.372-19.09 3.218-28.74 3.26z" fill="#ad1519" stroke-linejoin="round"/><path d="M258.04 224.28v-6.01m-3.02 6.21l.04-6.37m-2.24 6.45v-6.49" stroke-width=".05"/><path d="M250.95 224.64v-6.57" stroke-width=".09"/><path d="M249.16 224.64v-6.57" stroke-width=".14"/><path d="M247.48 224.64v-6.57" stroke-width=".18"/><path d="M245.81 224.64v-6.57" stroke-width=".23"/><path d="M244.32 224.64v-6.57" stroke-width=".28"/><path d="M241.48 224.28l-.04-5.97m1.39 6.05v-6.25" stroke-width=".33"/><path d="M238.86 224.01v-5.5m1.33 5.66l-.04-5.86" stroke-width=".37"/><path d="M235.35 223.7v-4.84m1.15 4.92v-5.08m1.19 5.24v-5.28" stroke-width=".42"/><path d="M234.12 223.66v-4.68" stroke-width=".46"/><path d="M232.97 223.42v-4.36" stroke-width=".51"/><path d="M231.74 223.31v-4.06" stroke-width=".56"/><path d="M229.22 222.95l-.04-3.22m1.33 3.38v-3.62" stroke-width=".6"/><path d="M227.93 222.68v-2.84" stroke-width=".63"/><path d="M226.74 222.45v-2.36" stroke-width=".68"/><path d="M225.45 222.13v-1.85" stroke-width=".73"/><path d="M224.12 221.98v-1.38" stroke-width=".77"/><path d="M222.72 221.66v-.67" stroke-width=".91"/><path d="M220.12 221.66c19.5-4.795 40.561-4.784 60.06 0"/><path d="M216.72 217.16c2.104-3.62 6.75.074 1.407.592l-1.407-.592z" fill="#ad1519"/><path d="M224.03 215.28c2.927-4.2 2.626 4.059 0 0z" fill="#fff"/><path d="M233.64 215.07c-6.036.941-1.689-3.194 2.15-2.34 3.355 1.219-.692 2.566-2.15 2.34z" fill="#058e6e"/><path d="M240.54 213.35c2.922-4.196 2.624 4.055 0 0z" fill="#fff"/><path d="M250.15 214.16c-5.894.995-3.854-3.436.98-2.07 5.634-.484 3.468 3.022-.98 2.07z" fill="#ad1519"/><path d="M257.56 213.35c2.927-4.198 2.626 4.058 0 0z" fill="#fff"/><path d="M266.66 215.07c6.032.942 1.686-3.196-2.15-2.34-3.358 1.217.69 2.566 2.15 2.34z" fill="#058e6e"/><path d="M274.07 215.28c2.927-4.2 2.626 4.059 0 0z" fill="#fff"/><path d="M283.57 217.16c-2.095-3.625-6.738.08-1.397.591l1.397-.591z" fill="#ad1519"/></g></g><g stroke-width=".52"><path d="M250.49 344.33c-14.758-.331-30.321-3.416-42.425-12.238-7.93-6.33-8.242-16.79-7.885-26.053V281.3H300.6c-.143 12.226.298 24.478-.244 36.686-1.314 11.815-12.247 18.745-22.72 21.778-8.72 2.985-17.927 4.564-27.146 4.566z" fill="#ccc"/><path d="M252.91 329.55c11.916 7.805-14.152 11.697-5.849.493.319-1.31 6.166-3.282 5.849-.493z" fill="#ffd691"/><path d="M250.32 340.32c-3.685-4.38-17.435-4.281-6.19.2 2.029.502 4.19.385 6.19-.2zM251.46 340.56c3.404-5.82 17.712-2.144 5.95.02-1.978.15-3.994-.43-5.95-.02z" fill="#058e6e"/><path d="M250.69 337.28c-4.268-2.562 1.064-11.621 1.62-3.72l-.435 2.062z" fill="#ad1519"/><path d="M249.68 342.71c-.46-7.132 3.28-4.578.8-.29z" fill="#058e6e"/><g fill="#c8b100"><path d="M250.32 314.57c.404 15.647-16.715 27.273-31.335 23.07-11.772-2.502-20.27-14.327-18.865-26.28v-30.14h50.2v33.35z" fill="#ad1519"/><path d="M200.03 314.12c-.626 4.312 4.024 16.276 5.73 14.065V280.32c-3.736-.424-7.039-.412-5.669 4.28l-.061 29.52zM211.08 334.23c5.767 5.088 6.784 1.24 6.012-4.186l-.132-50.004c-3.74-.353-7.288-.515-5.88 4.28v49.91zM222.28 338.25c7.061 2.672 6.014-3.374 5.87-8.026V280.04c-3.74-.356-7.277-.51-5.87 4.28v53.93zM233.32 337c6.978.013 6.266-5.773 6.03-10.656V280.04c-3.738-.353-7.287-.515-5.891 4.28L233.32 337zM244.81 329.24c7.842-8.306 5.101-20.117 5.658-30.417l.072-18.783c-3.74-.356-7.278-.51-5.858 4.28l.128 44.92z"/></g><g><path d="M300.65 281.22c-.17 12.322.354 24.681-.29 36.979-2.31 16.394-22.8 25.208-36.875 17.317-9.426-4.468-14.279-15.119-13.165-25.227V281.22h50.33z" fill="#ad1519"/><path d="M272.71 306.14c-.989-2.809-4.072-5.17-6.457-5.214-3.333-2.28-.386-4.984-4.191-7.251-2.311-5.543-4.667.655-1.189 1.706 1.818 3.716-2.039 4.441-1.563 7.674.805 5.465 5.012 1.904 7.59 1.415 3.718-.997 1.943 2.813 5.81 1.67zm-6.98-18.5c-.112 4.53 6.011-1.225.085 0zm-7.3 20.37c4.15-2.706-4.012-2.405 0 0zm15.99-9.73c-3.731-.582-1.253-5.485-.006-6.51-1.938-5.357-4.578-.495-7.66-.85-1.518-.444-7.62-3.775-4.49.529 1.898 3.121 4.296 3.99 6.69 4.854 2.711 2.328.391 4.98 4.209 7.235 2.357 3.565.77-4.569 1.257-5.258zm-7.25-1.39c-4.264 2.223 5.489 4.782 0 0zm8.004 36.186c-3.33-1.567-11.66-6.056-2.324-3.636 2.966-2.197 1.675-7.049-.17-8.58-.95-3.89 3.126-3.943 1.76-8.15 1.071-5.885-2.197-1.271-4.138.924 2.242 2.222-2.33 5.468-4.13 4.574-5.405 3.162-.6 7.33-.652 10.312-6.215-2.973-7.621-5.806-7.87-12.52 2.929.995 3.653 7.29 7.127 1.262-1.007-1.607 1.462-6.464 4.183-4.632 1.58-1.885 6.525-5.86 1.02-4.88-.738 3.615-5.625 1.135-6.8-.003-5.261-1.704-2.181 6.151-5.58 5.643.174-4.756-2.915-6.886.015-11.1-.12-2.037-3.943-5.15-.726-7.142 3.086-2.675-4.996-10.577 3.249-8.788 3.252 3.915 4.723-2.15 8.863-.39 1.269 4.945 7.695-3.272 6.205 3.1 1.225 3.299-2.124 6.236.039 7.77l-.021 21.59c-1.965 1.546 1.097 4.707-.025 7.96l-.025 6.686zm-5.914-18.306c-3.143-3.54-3.93 5.777 0 0zm-9.96-18.44c-4.77-.824.901 6.92 0 0zm9.16 11.41c.78-4.45-7.722.72 0 0zm-10.6 9.69c-3.7.796-1.606-8.025-.26-4.35-.002 1.453-.03 2.917.26 4.35zm1.46-5.52c5.093.72-1.036 10.178-.006 1.59l.006-1.59zm10.81 16.93c1.383-4.76-10.232-3.478-1.36-.51zm-.85 1.44c-3.697 3.985-8.495-6.43-1.348-.523z" id="e" fill="#c8b100" stroke="#c8b100" stroke-width=".26"/><use transform="matrix(-1 0 0 1 550.43 0)" xlink:href="#e" width="100%" height="100%"/><path d="M272.59 306.94c6.7-10.031 6.883 9.762 0 0z" fill="#058e6e" stroke="none"/></g><g fill="#c8b100" stroke-width=".46"><path d="M200.12 281.25h50.18v-55.72h-50.18v55.72z" fill="#ad1519" stroke-width=".52"/><path d="M217.34 238.41c-2.128-3.527-4.425 3.09-.92 2.77 1.14 4.395-5.67.84-3.47 6.295-1.028 4.287 3.223 3.294 1.85 7.926v10.509c-4.917-1.544-3.62 3.128-3.7 6.42.527 2.731 6.041.473 8.561 1.21h19.859c-.81-2.447 1.98-8.494-2.14-7.63-3.257-.113-.774-5.967-1.55-8.561-.691-3.92.526-5.93 1.85-7.834.644-3.907-.088-6.439-3.47-6.32-.09-1.624 4.153-5.097 0-5.705-.846.618-3.145.819-4.77 0-2.898 2.524 2.95 4.08.535 6.24-4.722 1.429-2.39-4.197-2.925-6.956 1.599-.302 3.208-6.192 0-4.299-1.908-.512-2.682.33-5.32-.535-1.034 4.31 3.21 3.343 1.85 7.98 2.26 3.861-4.204 5.852-3.47 1.67 3.141.447 1.38-6.697-.535-3.18.182-.866-2.693-1.845-2.235 0zm-6.24 35.13h28.42m-28.42-1.85h28.42m-28.42-1.85h28.42m-28.42-1.85h28.42m-28.42-2.08h28.42m-24.72-1.62h21.03m-21.03-1.85h21.03m-21.03-2.08h21.03m-21.03-1.84h21.03m-21.03-1.85h21.03m-21.03-1.85h21.03m-21.03-1.85h21.03m-22.88-1.85h24.73m-24.73-1.85h24.73m-24.73-1.85h24.73m-24.73-1.84h24.73m-21.26-1.85h17.79m-10.63-1.85h3.47m-3.47-1.85h3.47m-3.47-1.85h3.47m-3.47-1.85h3.47m-5.32-2.31h7.16m-12.47 7.86h3.69m-5.31-2.31h6.93m-6.93 33.97v-1.85m0-1.85v-1.85m-1.85 1.85v1.85m3.47 0v-1.85m1.84 3.7v-1.85m0-1.85v-1.85m0-2.08v-1.62m0-1.85v-2.08m-1.84 7.63v-2.08m-3.47 2.08v-2.08m7.16 0v2.08m1.62-2.08v-1.62m-5.31-1.85v1.85m3.69-1.85v1.85m3.47-1.85v1.85m-1.85-1.85v-2.08m1.85-1.84v1.84m0-5.54v1.85m-1.85-3.7v1.85m1.85-3.7v1.85m-3.47-1.85v1.85m-3.69-1.85v1.85m-1.62-3.7v1.85m3.46-1.85v1.85m3.47-1.85v1.85m1.85-3.7v1.85m-3.47-1.85v1.85m-3.69-1.85v1.85m-1.62-3.69v1.84m6.93-1.84v1.84m-3.47-5.54v1.85m15.95-1.85h-3.7m5.32-2.31h-6.94m6.94 33.97v-1.85m0-1.85v-1.85m1.85 1.85v1.85m-3.47 0v-1.85m-1.85 3.7v-1.85m0-1.85v-1.85m0-2.08v-1.62m0-1.85v-2.08m1.85 7.63v-2.08m3.47 2.08v-2.08m-7.17 0v2.08m-1.62-2.08v-1.62m5.32-1.85v1.85m-3.7-1.85v1.85m-3.46-1.85v1.85m1.84-1.85v-2.08m-1.84-1.84v1.84m0-5.54v1.85m1.84-3.7v1.85m-1.84-3.7v1.85m3.46-1.85v1.85m3.7-1.85v1.85m1.62-3.7v1.85m-3.47-1.85v1.85m-3.47-1.85v1.85m-1.84-3.7v1.85m3.46-1.85v1.85m3.7-1.85v1.85m1.62-3.69v1.84m-6.94-1.84v1.84m3.47-5.54v1.85m-7.16 18.71v-2.08m0-5.54v-1.85m0 5.55v-1.85m0-5.55v-1.85m0-1.85v-1.84m0-3.7v-1.85m0-1.85v-1.85m-8.78 4.85h3.69m3.47-5.54h3.47m3.46 5.54h3.7"/><path d="M230.05 273.54c2.225-6.027-5.332-12.548-9.333-5.826-.673 3.721-.645 7.329 4.144 5.826h5.189z"/><path d="M222.19 268.91c-6.845.143 1.968-6.13 0 0z"/><path d="M226.12 266.6c4.475-5.9-7.81-.827 0 0zM228.43 268.91c6.826.15-1.93-6.134 0 0zM221.73 260.83c1.854-4.225-3.228-11.664-5.08-4.555-.69 5.128.37 4.813 5.08 4.555zM228.89 260.83c-1.857-4.228 3.236-11.662 5.09-4.555.695 5.136-.381 4.81-5.09 4.555zM220.11 248.35c1.696-3.834-1.529-6.159-4.106-4.088.108 3.58.063 4.724 4.106 4.088zM227.05 248.35c1.877-3.817-1.208-6.166-3.903-4.086-.065 3.63-.205 4.7 3.903 4.086zM230.51 248.35c-1.978-4.006 1.427-6.076 4.107-4.088-.097 3.592-.06 4.72-4.107 4.088z"/><g fill="#0039f0" stroke="none"><path d="M228.43 273.54c2.574-5.792-6.665-10.12-6.24-2.555-1.283 4.34 3.8 1.946 6.24 2.555zM221.27 260.36c1.932-4.12-3.601-10.206-4.16-3.32-.722 4.202.69 3.312 4.16 3.32zM229.36 260.36c-1.93-4.118 3.596-10.206 4.16-3.32.722 4.202-.69 3.312-4.16 3.32z"/></g></g><g><path d="M250.28 281.25h50.32v-55.72h-50.32v55.72z" fill="#ccc"/><path d="M275.93 239.26c-1.035-2.087-13.86-5.676-5.06-.26 1.683.262 3.387-.143 5.06.26z" fill="#db4446" stroke-width=".39"/><g fill="none" stroke-width=".39"><path d="M283.46 237c.427 5.39-1.187 4.428.659 8.547-3.365-3.734.655 5.17-3.339.013 2.261 4.844-1.528 3.025-.9 3.84-.803 8.144 13.368 10.71 8.72.75-1.918-4.095-.127-16.253 1.92-15.21-.478 2.755 6.93-5.903 1.94 1.779 2.644.97-7.869 9.63-1.5 15.384 2.241 7.022-11.628 8.809-2.9 14.837-2.238 4.32-1.482 8.354-4.556 6.716-2.518-.777-.673-1.96-2.004-4.106 4.978.234.388-4.853.26-2.23-1.29-3.18.311 3.537-2.42-1.09 1.306-6.637-5.643-4.325-2.42 1.26-3.937 1.102-7.775 1.553-8.981.159-2.013-1.065 1.194-6.885 3.04-2.634 4.106.314 1.958-2.644 1.421-2.155.321-3.11-1.672 2.317-.93-3.43 1.912-3.418 10.498-.477 3.25-3.97-1.568-4.78-5.36-2.088-5.63-2.64.098-1.228-3.3 3.582-2.621.558-3.607 2.766-5.397 3.473-5.909-.398 1.38-.26-1.103-4.105 3.28-1.709 6.029-.973 2.934-5.141-1.64-5.331 5.529-1.394-5.827-1.339.84-2.09-2.63-1.982-5.683-3.113-3.81-4.89-.68-2.43 2.557-1.372 3.53-2.43-2.651 4.234 12.908 10.655 10.231 3.641 8.566-.226-5.953-6.08 3.229-5.791 1.832-3.44 5.724 1.16 7.24 2.63" fill="#ed72aa"/><path d="M269 243.39c-4.203 3.197 6.371-.433 1.64 5.57 2.937-.749 4.277-3.737 3.93.91 2.89-4.105 3.281 2.262 4.603-1.944l.167.364m-11.41.61c.653-1.207 1.927-1.771 3.08-2.36m.99 5.17c.963-.416 1.965-.978 2.57-1.87"/><path d="M282.57 240.9c-.14-.217-.573-.97-.65-1.13" stroke-width=".26"/><path d="M278.33 257.41c2.113.983 2.554 3.007.85 4.72"/></g><path d="M273.05 236.24c-1.2-1.567 1.546-.928 0 0z" stroke-width=".26"/><path d="M277.06 234.85c1.617-1.148 3.33 2.364 0 0z" stroke-width=".05"/><g stroke-width=".26"><path d="M273.08 240.14c.1-1.364 1.43.59 0 0zM273.89 240.12c.366-1.228 1.435.52 0 0zM273.53 236.83c2.334.095-.774 1.335 0 0z"/><path d="M274.52 237.1c1.594-.178-.323 1.427 0 0z"/></g><g fill="#db4446" stroke-width=".39"><path d="M261.88 236.08c3.547 1.9.253-4.595 0 0zM259.59 237.12c-4.012-2.329-1.691 2.758 0 0zM258.49 240.25c-4.375 1.564 1.924 3.023 0 0zM261.06 250.37c-4.185-1.302-1.445 2.608 0 0zM260.21 253.34c-4.083.684.875 2.983 0 0zM261.66 256.08c.427 3.974 2.977-.428 0 0zM269 263.12c-3.523-2.182-2.06 2.382 0 0zM266.83 265.93c-4.557.73 1.244 3.064 0 0zM268.84 268.9c-.873 4.538 3.374-.593 0 0zM281.24 270.11c-4.375.267.346 2.808 0 0zM281.64 273.1c-2.03 3.673 3.437.663 0 0zM284.75 274.04c.413 4.485 3.025-1.404 0 0z"/></g><g fill="#c8b100" stroke-width=".26"><path d="M282.88 232.71c-2.185.247-2.78-.79-4.33-2.34-1.426 4.661 9.722 9.226 6.12 4.06-1.277.804-2.617-.561-1.79-1.72z"/><g fill="#000" stroke-width=".05"><path d="M280.63 233.4c.699-.111.059.663 0 0z"/><path d="M281.58 234.19c-2.238-1.873 1.872 1.155 0 0z"/><path d="M279.84 233c-1.167-1.058 1.352.589 0 0zM278.8 232.29c.67-.132.092.686 0 0zM282.63 234.92c-.038-.664-.709.107 0 0zM283.2 235.58c1.344.86-.878-1.128 0 0zM284.15 236.39c-.059-.686-.675.122 0 0z"/></g><path d="M281.4 230.36c-2.134-.325.577 2.869 0 0z"/><path d="M281.4 230.36c-2.134-.325.577 2.869 0 0z"/><path d="M279.8 230.84c2.05 1.268-.111.31 0 0z"/><path d="M281.7 231.92c-1.691 1.319-.865-2.815 0 0z"/><path d="M280.51 231.25c1.131-.475.12 1.196 0 0zM278.36 230.35c-1.914-2.188 1.395-1.203 0 0z"/><path d="M279.39 230.66c-1.349 1.685-1.383-2.554 0 0z"/><path d="M278.24 230.29c.815-.776.136 1.11 0 0zM283.67 231.77c-2.078-.537.126 2.857 0 0z"/><path d="M282.01 232.03c1.302 1.871.437.001 0 0z"/><path d="M283.73 233.36c-1.859 1.123-.439-2.96 0 0z"/><path d="M282.65 232.54c1.217-.323-.073 1.21 0 0zM285.64 233.61c1.136 1.873-3.573.12 0 0z"/><path d="M285.49 235.2c-2.006.87-.032-3.002 0 0z"/><path d="M283.97 233.66c-1.182 2.222 4.067-.485 0 0z"/><path d="M284.91 234.63c.268-1.198-1.256.135 0 0zM286.29 236.43c2.595 1.312 1.013-1.539 0 0z"/><path d="M285.75 235.54c-1.635 1.534 3.237.801 0 0z"/><path d="M286.37 236.53c.631-.927-1.136.095 0 0z"/></g></g><g stroke-width=".61"><path d="M266.69 281.01c.824 11.393-11.634 22.46-22.592 16.855-13.96-6.378-12.864-29.94 1.982-34.488 10.906-3.609 21.076 7.024 20.61 17.633z" fill="#ad1519"/><path d="M261.88 280.97c.8 8.543-9.036 17.166-16.925 11.777-9.936-6.009-6.855-24.827 5.485-25.197 6.91-.02 11.597 7.012 11.44 13.42z" fill="#005bbf"/><g id="f" fill="#c8b100" stroke-width=".34"><path d="M245.03 271.74c-2.33 4.056.296 4.805-3.69 5.88 1.593 2.632 2.579 1.392 2.065 3.49-.907 1.711 2.554 2.16 3.297 1.13.384-2.185-1.313-2.656 1.808-3.85-.144-4.083-4.19.687-2.307-4.82l-.478-.918z" stroke-linejoin="round"/><path d="M242.87 281.11c5.043.779 5.134-1.713.08-1.03-.445-.074.196.937-.08 1.03z"/></g><use x="10.63" xlink:href="#f"/><use x="5.31" y="9.14" xlink:href="#f"/></g></g></g></svg>