<svg xmlns="http://www.w3.org/2000/svg" width="12" height="12" fill="none" viewBox="0 0 12 12"><path fill="#eee" d="M11.6658 3.33622C12.1114 2.89061 12.1114 2.16356 11.6658 1.7414L10.2586 0.334208C9.83644 -0.111403 9.10939 -0.111403 8.66378 0.334208L7.58493 1.41306C7.49112 1.50687 7.49112 1.69449 7.58493 1.81176L10.1882 4.41507C10.3055 4.50888 10.4931 4.50888 10.5869 4.41507L11.6658 3.33622ZM6.67026 2.32773L0.502068 8.49592L0.00955113 11.3338C-0.0608085 11.7325 0.267536 12.0608 0.666241 11.9904L3.50408 11.4979L9.67227 5.32974C9.78954 5.23593 9.78954 5.0483 9.67227 4.93104L7.06896 2.32773C6.9517 2.23392 6.76407 2.23392 6.67026 2.32773ZM2.91775 7.9565C2.77703 7.83923 2.77703 7.62815 2.91775 7.51089L6.52954 3.89909C6.64681 3.75838 6.85789 3.75838 6.97515 3.89909C7.11587 4.01636 7.11587 4.22744 6.97515 4.34471L3.36336 7.9565C3.24609 8.09722 3.03501 8.09722 2.91775 7.9565ZM2.07343 9.92657H3.19919V10.7943L1.67473 11.0523L0.947679 10.3253L1.20566 8.80081H2.07343V9.92657Z"/></svg>