<svg xmlns="http://www.w3.org/2000/svg" width="20" height="20" fill="none" viewBox="0 0 20 20"><path fill="#C4C4C4" d="M3.18138 2.5C2.80526 2.5 2.5 2.80545 2.5 3.18182V5.90909C2.5 6.28545 2.80526 6.59091 3.18138 6.59091H6.58826C6.96438 6.59091 7.26964 6.28545 7.26964 5.90909V3.18182C7.26964 2.80545 6.96438 2.5 6.58826 2.5H3.18138ZM9.99515 3.86364C9.90486 3.86236 9.81521 3.87905 9.73143 3.91274C9.64764 3.94643 9.57138 3.99645 9.50708 4.05989C9.44277 4.12333 9.39172 4.19893 9.35686 4.28228C9.32201 4.36564 9.30407 4.4551 9.30407 4.54545C9.30407 4.63581 9.32201 4.72527 9.35686 4.80863C9.39172 4.89198 9.44277 4.96758 9.50708 5.03102C9.57138 5.09446 9.64764 5.14448 9.73143 5.17817C9.81521 5.21186 9.90486 5.22855 9.99515 5.22727H16.8089C16.8992 5.22855 16.9889 5.21186 17.0726 5.17817C17.1564 5.14448 17.2327 5.09446 17.297 5.03102C17.3613 4.96758 17.4124 4.89198 17.4472 4.80863C17.4821 4.72527 17.5 4.63581 17.5 4.54545C17.5 4.4551 17.4821 4.36564 17.4472 4.28228C17.4124 4.19893 17.3613 4.12333 17.297 4.05989C17.2327 3.99645 17.1564 3.94643 17.0726 3.91274C16.9889 3.87905 16.8992 3.86236 16.8089 3.86364H9.99515ZM3.18138 7.95455C2.80526 7.95455 2.5 8.26 2.5 8.63636V11.3636C2.5 11.74 2.80526 12.0455 3.18138 12.0455H6.58826C6.96438 12.0455 7.26964 11.74 7.26964 11.3636V8.63636C7.26964 8.26 6.96438 7.95455 6.58826 7.95455H3.18138ZM9.99515 9.31818C9.90486 9.3169 9.81521 9.3336 9.73143 9.36729C9.64764 9.40098 9.57138 9.451 9.50708 9.51444C9.44277 9.57788 9.39172 9.65347 9.35686 9.73683C9.32201 9.82018 9.30407 9.90964 9.30407 10C9.30407 10.0904 9.32201 10.1798 9.35686 10.2632C9.39172 10.3465 9.44277 10.4221 9.50708 10.4856C9.57138 10.549 9.64764 10.599 9.73143 10.6327C9.81521 10.6664 9.90486 10.6831 9.99515 10.6818H16.8089C16.8992 10.6831 16.9889 10.6664 17.0726 10.6327C17.1564 10.599 17.2327 10.549 17.297 10.4856C17.3613 10.4221 17.4124 10.3465 17.4472 10.2632C17.4821 10.1798 17.5 10.0904 17.5 10C17.5 9.90964 17.4821 9.82018 17.4472 9.73683C17.4124 9.65347 17.3613 9.57788 17.297 9.51444C17.2327 9.451 17.1564 9.40098 17.0726 9.36729C16.9889 9.3336 16.8992 9.3169 16.8089 9.31818H9.99515ZM3.18138 13.4091C2.80526 13.4091 2.5 13.7145 2.5 14.0909V16.8182C2.5 17.1945 2.80526 17.5 3.18138 17.5H6.58826C6.96438 17.5 7.26964 17.1945 7.26964 16.8182V14.0909C7.26964 13.7145 6.96438 13.4091 6.58826 13.4091H3.18138ZM9.99515 14.7727C9.90486 14.7714 9.81521 14.7881 9.73143 14.8218C9.64764 14.8555 9.57138 14.9055 9.50708 14.969C9.44277 15.0324 9.39172 15.108 9.35686 15.1914C9.32201 15.2747 9.30407 15.3642 9.30407 15.4545C9.30407 15.5449 9.32201 15.6344 9.35686 15.7177C9.39172 15.8011 9.44277 15.8767 9.50708 15.9401C9.57138 16.0035 9.64764 16.0536 9.73143 16.0873C9.81521 16.1209 9.90486 16.1376 9.99515 16.1364H16.8089C16.8992 16.1376 16.9889 16.1209 17.0726 16.0873C17.1564 16.0536 17.2327 16.0035 17.297 15.9401C17.3613 15.8767 17.4124 15.8011 17.4472 15.7177C17.4821 15.6344 17.5 15.5449 17.5 15.4545C17.5 15.3642 17.4821 15.2747 17.4472 15.1914C17.4124 15.108 17.3613 15.0324 17.297 14.969C17.2327 14.9055 17.1564 14.8555 17.0726 14.8218C16.9889 14.7881 16.8992 14.7714 16.8089 14.7727H9.99515Z"/></svg>