<svg xmlns="http://www.w3.org/2000/svg" width="24" height="24" fill="none" viewBox="0 0 24 24"><path fill="#E8E8E8" d="M5.6 2.40002C4.716 2.40002 4 3.11602 4 4.00002V20.8C4 21.684 4.716 22.4 5.6 22.4H18.4C19.284 22.4 20 21.684 20 20.8V8.40002C20 8.18802 19.916 7.9848 19.7656 7.8344L14.5656 2.6344C14.4152 2.484 14.212 2.40002 14 2.40002H5.6ZM13.6 3.92346L18.4766 8.80002H14.4C13.9584 8.80002 13.6 8.44162 13.6 8.00002V3.92346ZM11.2625 9.84065C11.6969 9.84065 12.0611 10.0242 12.2875 10.3578C12.4699 10.625 12.5578 10.9686 12.5578 11.4094C12.5578 12.1654 12.2194 13.3523 11.6922 14.6235C11.9466 15.2003 12.2434 15.7715 12.5594 16.2906C13.2938 16.2954 14.3034 16.3623 15.1266 16.6391C16.3114 17.0359 16.5609 17.6888 16.5609 18.1672C16.5601 18.856 16.0014 19.6 14.7734 19.6C13.8654 19.6 12.8533 18.6788 11.9797 17.4172C11.3429 17.438 10.738 17.5002 10.1828 17.5938C9.16521 19.2586 8.01201 20.561 7.13281 20.561C6.16641 20.561 5.84063 19.6063 5.84063 19.1703C5.84063 17.7999 7.57386 16.9898 9.48906 16.5938C9.85066 15.977 10.2007 15.3101 10.5031 14.6485C10.0575 13.5437 9.78281 12.4634 9.78281 11.661C9.78281 11.1522 9.88735 10.74 10.0938 10.4328C10.3513 10.0504 10.7673 9.84065 11.2625 9.84065ZM11.2609 10.9594C11.0873 10.9594 11.0483 11.0186 11.0219 11.0578C10.9771 11.1242 10.9016 11.2914 10.9016 11.661C10.9016 12.0706 10.9834 12.5497 11.125 13.0625C11.3346 12.4081 11.4543 11.8126 11.4375 11.3406C11.4247 10.9598 11.3329 10.9594 11.2609 10.9594ZM13.3641 17.4438C13.8785 18.0742 14.3815 18.4797 14.7719 18.4797C15.2327 18.4797 15.4391 18.3224 15.4391 18.1656C15.4399 18.0184 15.1775 17.8353 14.7703 17.6985C14.4007 17.5745 13.9177 17.4886 13.3641 17.4438ZM8.59844 17.9797C7.58644 18.3213 6.95938 18.7656 6.95938 19.1688C6.96018 19.1688 7.00485 19.4406 7.13125 19.4406C7.43525 19.4191 7.98884 18.8389 8.59844 17.9797Z"/></svg>