<svg xmlns="http://www.w3.org/2000/svg" width="14" height="15" fill="none" viewBox="0 0 14 15"><path fill="#7E7E84" d="M5.82981 0.727295C2.617 0.727295 0 3.26499 0 6.38045C0 9.4959 2.617 12.0336 5.82981 12.0336C7.22693 12.0336 8.51 11.5525 9.51558 10.7539L12.9964 14.1292C13.0501 14.1835 13.1144 14.2268 13.1856 14.2567C13.2568 14.2865 13.3335 14.3023 13.411 14.303C13.4886 14.3038 13.5655 14.2895 13.6373 14.2611C13.7091 14.2327 13.7744 14.1906 13.8292 14.1375C13.8841 14.0843 13.9274 14.021 13.9567 13.9514C13.9861 13.8817 14.0008 13.8071 14 13.7319C13.9992 13.6567 13.9829 13.5824 13.9522 13.5134C13.9214 13.4443 13.8767 13.3819 13.8208 13.3298L10.3399 9.95452C11.1635 8.97942 11.6596 7.73523 11.6596 6.38045C11.6596 3.26499 9.04262 0.727295 5.82981 0.727295ZM5.82981 1.85793C8.41249 1.85793 10.4937 3.87603 10.4937 6.38045C10.4937 8.88486 8.41249 10.903 5.82981 10.903C3.24713 10.903 1.16596 8.88486 1.16596 6.38045C1.16596 3.87603 3.24713 1.85793 5.82981 1.85793Z"/></svg>