<svg xmlns="http://www.w3.org/2000/svg" width="20" height="20" fill="none" viewBox="0 0 20 20"><path fill="#C4C4C4" fill-rule="evenodd" d="M3.5 3C3.22386 3 3 3.22386 3 3.5V6.5C3 6.77614 3.22386 7 3.5 7H5V9V10V15.5C5 15.7761 5.22386 16 5.5 16H6H12V17C12 17.2761 12.2239 17.5 12.5 17.5H16.5C16.7761 17.5 17 17.2761 17 17V14C17 13.7239 16.7761 13.5 16.5 13.5H12.5C12.2239 13.5 12 13.7239 12 14V15H6V10L12 10V11C12 11.2761 12.2239 11.5 12.5 11.5H16.5C16.7761 11.5 17 11.2761 17 11V8C17 7.72386 16.7761 7.5 16.5 7.5H12.5C12.2239 7.5 12 7.72386 12 8V9L6 9V7H7.5C7.77614 7 8 6.77614 8 6.5V3.5C8 3.22386 7.77614 3 7.5 3H3.5Z" clip-rule="evenodd"/></svg>