<svg xmlns="http://www.w3.org/2000/svg" xmlns:xlink="http://www.w3.org/1999/xlink" width="206" height="15" version="1.1" viewBox="0 0 206 15"><title>logo-firstmark</title><g id="Page-1" fill="none" fill-rule="evenodd" stroke="none" stroke-width="1"><g id="logo-firstmark" fill-rule="nonzero" transform="translate(0.000000, 0.650000)"><polyline id="Fill-1" fill="#0F0F0F" points="12.1 2.65 2 2.65 2 5.85 9 5.85 9 7.75 2 7.75 2 13.25 0 13.25 0 .75 12.1 .75 12.1 2.65"/><polygon id="Fill-2" fill="#0F0F0F" points="18.5 13.25 20.5 13.25 20.5 .75 18.5 .75"/><path id="Fill-3" fill="#0F0F0F" d="M37.4,6.65 C38.9,6.65 39.7,6.05 39.7,4.75 C39.7,3.35 38.9,2.65 37.2,2.65 L31,2.65 L31,6.65 L37.4,6.65 L37.4,6.65 Z M41.8,13.25 L39.5,13.25 L36.3,8.45 L31,8.45 L31,13.25 L29,13.25 L29,0.75 L37.7,0.75 C39,0.75 39.9,1.15 40.7,1.85 C41.4,2.55 41.8,3.55 41.8,4.75 C41.8,5.85 41.5,6.65 40.9,7.35 C40.4,7.95 39.6,8.35 38.7,8.45 L41.8,13.25 Z"/><path id="Fill-4" fill="#0F0F0F" d="M59.9,3.75 C58.1,2.75 56.3,2.35 54.5,2.35 C53.3,2.35 52.3,2.55 51.7,2.75 C51,3.05 50.7,3.45 50.7,3.95 C50.7,4.55 51,4.95 51.7,5.15 C52.2,5.35 53,5.55 54.2,5.55 C55.9,5.65 56.9,5.75 57.5,5.85 C59,6.05 60.1,6.45 60.8,7.05 C61.5,7.65 61.9,8.45 61.9,9.45 C61.9,10.75 61.3,11.75 60.2,12.55 C59.1,13.25 57.5,13.65 55.4,13.65 C52.3,13.65 50,12.95 48.3,11.55 L49.4,10.05 C51.3,11.25 53.3,11.85 55.5,11.85 C56.9,11.85 58,11.65 58.8,11.25 C59.5,10.85 59.9,10.35 59.9,9.65 C59.9,8.85 59.4,8.35 58.4,8.05 C57.9,7.95 56.5,7.75 54.3,7.65 C52.3,7.55 50.9,7.25 50.1,6.85 C49.2,6.35 48.7,5.55 48.7,4.45 C48.7,3.25 49.2,2.35 50.3,1.65 C51.4,0.95 52.8,0.65 54.8,0.65 C57.4,0.65 59.5,1.25 61.3,2.45 L59.9,3.75"/><polyline id="Fill-5" fill="#0F0F0F" points="80 2.65 74.3 2.65 74.3 13.25 72.3 13.25 72.3 2.65 66.6 2.65 66.6 .75 80 .75 80 2.65"/><polyline id="Fill-6" fill="#0F0F0F" points="102.7 13.25 100.8 13.25 100.8 3.05 100.7 3.05 94.5 11.25 88.3 3.05 88.3 3.05 88.3 13.25 86.3 13.25 86.3 .75 88.8 .75 94.5 8.35 100.3 .75 102.7 .75 102.7 13.25"/><path id="Fill-7" fill="#0F0F0F" d="M119.8,8.65 L116.7,2.55 L113.6,8.65 L119.8,8.65 Z M124.3,13.25 L122.1,13.25 L120.7,10.45 L112.6,10.45 L111.2,13.25 L109,13.25 L115.3,0.75 L117.8,0.75 L124.3,13.25 Z"/><path id="Fill-8" fill="#0F0F0F" d="M138.3,6.65 C139.8,6.65 140.6,6.05 140.6,4.75 C140.6,3.35 139.8,2.65 138.1,2.65 L132,2.65 L132,6.65 L138.3,6.65 L138.3,6.65 Z M142.8,13.25 L140.5,13.25 L137.3,8.45 L132,8.45 L132,13.25 L130,13.25 L130,0.75 L138.7,0.75 C140,0.75 140.9,1.15 141.7,1.85 C142.4,2.55 142.8,3.55 142.8,4.75 C142.8,5.85 142.5,6.65 141.9,7.35 C141.4,7.95 140.6,8.35 139.7,8.45 L142.8,13.25 Z"/><polyline id="Fill-9" fill="#0F0F0F" points="163.9 13.25 161.3 13.25 155.6 6.75 152 9.45 152 13.25 150 13.25 150 .75 152 .75 152 7.25 160.4 .75 163.2 .75 157.1 5.55 163.9 13.25"/><path id="Fill-10" fill="#F6EB3B" d="M176.1,0.85 C176,0.85 176.1,0.95 176.1,0.85"/><path id="Fill-11" fill="#F6EB3B" d="M181.9,0.85 C181.8,0.85 181.9,0.95 181.9,0.85"/><path id="Fill-12" fill="#F6EB3B" d="M182,0.85 C181.9,0.85 182,0.95 182,0.85"/><path id="Fill-13" fill="#F6EB3B" d="M182,0.85 C182,0.85 182.1,0.95 182,0.85"/><path id="Fill-14" fill="#F6EB3B" d="M175.8,1.15 C175.9,0.75 175.9,1.55 175.8,1.15"/><path id="Fill-15" fill="#F6EB3B" d="M175.9,1.15 C175.9,1.05 175.9,1.15 175.9,1.15"/><path id="Fill-16" fill="#F6EB3B" d="M176,1.15 C176,1.15 176,1.25 176,1.15"/><path id="Fill-18" fill="#F6EB3B" d="M191.6,12.25 C191.7,12.05 191.5,12.05 191.5,12.15 C191.5,12.15 191.6,12.25 191.6,12.25 Z M191.2,11.55 C191,11.55 191,11.55 190.8,11.45 C190.8,11.75 191.2,11.55 191.2,11.55 Z M191.6,11.35 C191.6,11.35 191.6,11.25 191.5,11.25 C191.4,11.45 191.6,11.45 191.6,11.35 Z M190.7,11.15 C190.7,11.15 190.9,11.25 190.9,11.05 C190.8,10.95 190.7,11.05 190.7,11.15 Z M190.6,11.05 C190.5,11.05 190.6,10.85 190.5,10.95 C190.5,11.05 190.6,11.25 190.6,11.05 Z M191.6,10.25 C191.7,10.05 191.5,10.05 191.5,10.15 C191.5,10.25 191.5,10.35 191.6,10.25 Z M194.3,9.95 C194.3,9.95 194.3,10.05 194.3,9.95 C194.4,10.05 194.4,9.95 194.5,9.95 C194.8,9.95 194.4,9.75 194.3,9.95 C194.3,9.95 194.3,9.95 194.3,9.95 C194.2,9.85 194.2,9.95 194.2,10.05 C194.3,10.05 194.3,9.95 194.3,9.95 Z M191.6,10.25 C191.8,10.35 192.5,10.35 192.8,10.05 C192.3,10.05 192,9.85 191.6,10.25 Z M192.6,9.55 C192.6,9.55 192.6,9.55 192.6,9.55 C192.7,9.35 192.5,9.35 192.6,9.55 C192.6,9.45 192.6,9.45 192.6,9.55 Z M191.3,9.55 C191.4,9.55 191.4,9.75 191.5,9.55 C191.5,9.55 191.5,9.45 191.5,9.45 C191.5,9.45 191.6,9.45 191.6,9.35 C191.4,9.35 191.3,9.25 191.3,9.55 Z M190.1,9.45 C190.1,9.55 190.1,9.55 190.1,9.45 C190.2,9.45 190.1,9.35 190.1,9.45 Z M193,9.15 C193,9.45 193.1,9.25 193.2,9.25 C193.3,8.95 193.1,9.05 193,9.15 Z M193.7,9.05 C193.7,9.15 193.7,9.15 193.8,9.15 C193.8,9.15 193.9,8.85 193.8,8.85 C193.8,9.05 193.8,9.05 193.7,9.05 C193.7,8.95 193.6,8.95 193.6,8.95 C193.6,9.15 193.7,9.05 193.7,9.05 Z M193.4,9.05 C193.4,9.05 193.4,9.15 193.4,9.05 C193.4,9.05 193.5,9.05 193.4,9.05 C193.5,9.15 193.5,9.15 193.5,9.15 C193.5,9.15 193.6,9.15 193.6,9.15 C193.6,9.05 193.6,9.05 193.6,8.95 C193.5,9.05 193.4,8.85 193.4,9.05 Z M190.9,9.25 C190.9,9.35 191,9.35 191.1,9.35 C191.1,9.25 191.1,9.15 191.1,9.15 C191.1,9.35 190.9,9.05 190.9,9.25 Z M191.3,9.05 C191.3,9.15 191.3,9.15 191.3,9.05 C191.4,8.95 191.4,9.15 191.5,9.15 C191.5,8.85 191.4,9.05 191.3,8.95 C191.3,8.95 191.3,9.05 191.3,9.05 Z M190.4,9.05 C190.3,9.05 190.2,9.05 190.2,9.25 C190.3,9.15 190.4,9.35 190.4,9.05 C190.4,9.05 190.4,8.95 190.4,9.05 Z M193.6,8.65 C193.5,8.65 193.4,8.65 193.4,8.85 C193.5,8.85 193.7,9.05 193.7,8.75 C193.5,8.85 193.8,8.45 193.6,8.55 C193.6,8.55 193.6,8.65 193.6,8.65 Z M194.1,8.45 C194.2,8.45 194.3,8.45 194.3,8.25 C194.2,8.35 194.1,8.35 194.1,8.45 Z M193.4,8.25 C193.4,8.15 193.5,8.15 193.5,8.05 C193.4,7.95 193.3,8.15 193.4,8.25 Z M194.9,6.65 C194.9,6.65 194.7,6.55 194.7,6.75 C194.8,6.75 194.9,6.85 194.9,6.65 Z M196,6.45 C196.2,6.35 196.4,6.75 196.5,6.35 C196.3,6.55 196.1,6.25 196,6.45 Z M194.6,6.25 C194.7,6.35 194.7,6.25 194.6,6.25 C194.6,6.25 194.6,6.15 194.6,6.15 C194.5,6.15 194.9,6.15 194.9,6.35 C195,6.45 194.5,6.25 194.6,6.25 Z M196.1,6.15 C196.1,5.95 196.1,5.85 196,5.95 C196,6.15 196.1,6.05 196.1,6.15 Z M194.8,6.35 C194.8,6.05 195,6.35 195,5.95 C194.9,6.05 194.9,6.05 194.8,5.95 C194.8,6.15 194.7,6.25 194.8,6.35 Z M172.3,6.85 C172.4,6.75 172.4,6.95 172.5,6.95 C172.5,6.65 172.4,6.65 172.3,6.65 C172.4,6.55 172.3,6.35 172.2,6.25 C172.2,6.45 172.2,6.65 172.3,6.85 Z M194.3,5.25 C194.5,5.55 194.6,5.15 195,5.35 C195,5.15 195,5.05 195.1,5.15 C195.1,5.25 195,5.35 195.1,5.35 C195.3,5.05 195.8,5.35 196.1,5.05 C195.3,4.85 195.1,5.05 194.3,5.25 Z M193.3,4.65 C193.3,4.65 193.1,4.55 193.1,4.75 C193.2,4.75 193.4,4.85 193.3,4.65 Z M191,4.95 C191.1,4.95 191.1,4.75 191.1,4.65 C191,4.65 191,4.65 191,4.75 C191.1,4.75 191.1,4.85 191,4.95 Z M193.5,4.35 C193.4,4.45 193.5,4.45 193.5,4.35 C193.5,4.35 193.5,4.35 193.5,4.35 C193.6,4.55 193.5,4.75 193.4,4.45 C193.4,4.55 193.4,4.65 193.4,4.75 C193.5,4.85 193.5,4.55 193.5,4.75 C193.5,4.75 193.5,4.75 193.5,4.85 C193.6,4.75 193.7,4.65 193.7,4.45 C193.5,4.65 193.6,4.25 193.7,4.15 C193.6,4.25 193.4,4.15 193.5,4.35 Z M196,4.05 C196,3.75 196.2,4.05 196.1,3.75 C196.1,3.75 196,3.75 196,3.75 C196,3.75 195.9,4.05 196,4.05 Z M195.9,4.05 C195.9,4.15 195.9,3.95 195.9,4.05 C195.9,3.95 195.9,3.95 195.9,4.05 C195.9,3.85 195.9,3.85 195.9,4.05 C195.9,3.95 195.9,3.85 195.8,3.85 C195.8,3.85 195.8,4.05 195.9,4.05 Z M196.5,3.65 C196.6,3.65 196.6,3.65 196.5,3.65 C196.7,3.45 196.5,3.45 196.5,3.65 C196.5,3.55 196.5,3.55 196.5,3.65 Z M192.6,3.85 C192.6,3.75 192.5,3.75 192.6,3.85 C192.5,3.85 192.6,3.95 192.6,3.85 Z M195.7,3.45 C195.7,3.65 196.7,3.55 196.6,3.55 C196.6,3.75 195.8,3.65 195.9,3.65 C195.8,3.65 195.7,3.55 195.8,3.35 C195.7,3.35 196.7,3.35 196.7,3.35 C196.7,3.45 195.6,3.45 195.7,3.45 Z M196.6,3.35 C196.6,3.35 196.6,3.45 196.6,3.45 C196.6,3.55 196.7,3.25 196.6,3.35 C196.6,3.25 196.6,3.35 196.6,3.35 Z M192.3,3.45 C192.3,3.45 192.3,3.55 192.3,3.45 C192.3,3.35 192.3,3.35 192.3,3.45 Z M194.7,3.15 C194.7,3.05 194.7,3.05 194.7,3.15 C194.8,3.05 194.8,3.05 194.8,3.05 C194.8,3.05 194.8,3.05 194.7,3.05 C194.7,3.05 194.7,3.05 194.7,3.15 Z M193.2,3.15 C193.2,3.15 193.2,3.15 193.2,3.15 C193.3,3.05 193.3,3.05 193.3,3.05 C193.3,3.05 193.3,3.05 193.2,3.05 C193.2,3.05 193.2,3.15 193.2,3.15 Z M193,3.25 C193.1,3.25 193.1,3.25 193.1,3.05 C193,3.05 193,3.05 193,3.25 Z M192.7,3.25 C192.8,3.25 192.8,3.25 192.7,3.25 C192.8,3.15 192.8,3.15 192.8,3.15 C192.8,3.15 192.8,3.15 192.7,3.15 C192.7,3.15 192.7,3.15 192.7,3.25 Z M193.4,3.05 C193.5,3.05 193.6,3.05 193.6,2.85 C193.5,2.85 193.4,2.85 193.4,3.05 Z M185.5,2.85 C185.4,2.85 185.3,2.75 185.3,2.95 C185.4,2.85 185.5,2.95 185.5,2.85 Z M184.5,2.95 C184.5,3.15 184.7,2.85 184.5,2.95 C184.5,2.85 184.4,2.95 184.5,2.95 Z M172,3.35 C172.1,3.35 172.1,3.35 172.1,3.25 C172.1,3.15 172.1,3.05 172,3.05 C172.1,3.25 172,3.15 172,3.35 Z M185,2.95 C185,2.95 185.2,3.05 185.2,2.85 C185.1,2.75 185,2.75 185,2.95 Z M191.2,2.35 C191.2,2.35 191.1,2.35 191.1,2.45 C191.1,2.55 191.2,2.55 191.2,2.35 Z M191,2.55 C191,2.55 191,2.55 191,2.55 C191.1,2.45 191.1,2.45 191.1,2.45 C191.1,2.45 191.1,2.45 191,2.45 C191,2.45 191,2.45 191,2.55 Z M184.7,2.85 C184.6,2.85 184.6,2.85 184.6,2.75 C184.6,2.95 184.8,2.95 184.7,2.85 Z M171.9,3.05 C172,3.05 172,2.95 172,2.95 C172,2.85 171.9,2.85 171.9,3.05 Z M191.7,2.25 C191.7,2.25 191.6,2.25 191.6,2.35 C191.7,2.35 191.7,2.35 191.7,2.25 Z M191.3,2.35 C191.3,2.45 191.3,2.45 191.3,2.35 C191.6,2.45 191.5,2.15 191.3,2.35 Z M186,2.55 C186,2.55 185.9,2.55 185.9,2.65 C186,2.65 186,2.65 186,2.55 Z M193.2,2.15 C193.1,2.25 193.2,2.25 193.2,2.15 C193.3,2.35 193.3,1.95 193.2,2.15 Z M191.8,2.35 C191.9,2.15 192.1,2.55 192.2,2.15 C192.1,2.15 191.8,2.05 191.8,2.35 Z M192.6,2.05 C192.5,1.95 192.5,2.15 192.4,1.95 C192.4,2.25 192.6,2.25 192.6,2.05 Z M192.2,2.35 C192.2,2.25 192.3,2.25 192.3,2.35 C192.3,2.25 192.3,2.25 192.4,2.15 C192.3,2.15 192.3,2.15 192.3,2.25 C192.3,2.15 192.3,2.15 192.2,2.15 C192.1,2.15 192.1,2.25 192.2,2.35 Z M192.3,2.65 C192.2,2.65 192.1,2.35 192,2.75 C192.2,2.75 192.2,2.95 192.3,2.65 C192.3,2.65 192.3,2.55 192.4,2.55 C192.3,2.85 192.5,3.15 192.3,2.95 C192.4,3.45 192.7,3.15 192.9,3.05 C193,3.05 193,3.15 193.1,3.15 C193.1,2.95 193.1,2.75 193.3,2.75 C193.3,3.15 193.6,2.65 193.7,3.05 C193.8,2.35 194,2.95 194.3,2.95 C194.2,2.65 194.4,2.55 194.2,2.45 C194.1,2.65 193.7,2.45 193.6,2.35 C193.8,2.45 193.9,2.05 194,2.25 C194,2.05 194,1.65 193.9,1.95 C193.9,2.45 193,1.95 193,2.75 C192.9,2.55 192.6,2.95 192.7,2.45 C192.6,2.55 192.3,2.35 192.3,2.65 Z M195.3,1.55 C195.2,1.55 195.1,1.45 195.1,1.65 C195.2,1.55 195.3,1.75 195.3,1.55 Z M195,1.55 C195,1.55 194.9,1.55 194.9,1.65 C195,1.65 195,1.65 195,1.55 Z M194.2,1.85 C194.3,1.85 194.3,1.85 194.3,1.65 C194.3,1.65 194.3,1.65 194.3,1.55 C194.3,1.55 194.3,1.55 194.2,1.55 C194.2,1.75 194.2,1.75 194.2,1.85 Z M194.3,1.65 C194.4,1.95 194.6,1.85 194.6,1.65 C194.5,1.45 194.5,1.55 194.3,1.65 Z M194.1,1.65 C194,1.65 194,1.75 194.1,1.65 C194.1,1.85 194.2,2.15 194.2,1.95 C194.1,1.95 194.1,1.65 194.1,1.65 C194.1,1.65 194.1,1.65 194.1,1.65 C194.1,1.55 194.1,1.55 194.1,1.65 Z M193.4,1.85 C193.2,1.95 192.9,1.95 192.7,2.15 C192.9,2.05 193.3,2.05 193.4,1.95 C193.4,1.95 193.4,1.85 193.4,1.85 C193.6,2.05 193.8,1.85 194,1.75 C194,1.75 193.9,1.75 193.9,1.65 C194,1.65 194.1,1.65 194.1,1.45 C193.8,1.55 193.3,1.55 193.4,1.85 Z M192.6,1.55 C192.6,1.95 192.7,1.15 192.6,1.55 C192.6,1.55 192.5,1.55 192.6,1.55 Z M188.1,2.15 C188.1,2.15 188.2,2.15 188.2,2.15 C188.2,1.95 188.2,1.95 188.1,1.95 C188.1,2.05 188.1,2.05 188.1,2.15 Z M186.1,2.05 C186.1,2.05 186,2.05 186,2.15 C186.1,2.15 186.1,2.15 186.1,2.05 Z M192.9,1.55 C193,1.55 193,1.65 193.1,1.45 C193.1,1.45 193.1,1.35 193,1.35 C193,1.45 192.8,1.45 192.9,1.55 Z M192.2,1.65 C192.3,1.65 192.4,1.55 192.3,1.35 C192.2,1.35 192.1,1.45 192.2,1.65 Z M190,1.75 C190,1.75 190.1,1.75 190.1,1.75 C190.1,1.65 190.1,1.35 190,1.45 C190,1.65 189.9,1.65 190,1.75 Z M188.4,2.15 C188.5,2.25 188.5,1.75 188.4,1.85 C188.4,1.95 188.4,2.05 188.4,2.15 Z M193.2,1.45 C193.3,1.45 193.3,1.35 193.3,1.35 C193.2,1.25 193.2,1.25 193.2,1.45 Z M192.1,1.35 C192.2,1.35 192.2,1.25 192.2,1.25 C192.1,1.15 192,1.15 192.1,1.35 Z M192.4,1.15 C192.4,1.25 192.5,1.25 192.4,1.15 C192.5,1.15 192.4,1.05 192.4,1.15 Z M192.3,1.15 C192.3,1.05 192.2,1.05 192.2,1.15 C192.2,1.35 192.3,1.35 192.3,1.15 Z M192,1.25 C192,1.25 192,1.25 192,1.25 C192.1,1.15 192.1,1.15 192.1,1.15 C192.1,1.15 192.1,1.15 192,1.15 C191.9,1.15 192,1.25 192,1.25 Z M191.7,1.25 C191.8,1.35 191.8,1.15 191.7,1.25 C191.7,1.05 191.7,1.25 191.7,1.25 Z M190.7,1.35 C190.8,1.35 190.9,1.45 190.8,1.25 C190.8,1.25 190.7,1.25 190.7,1.25 C190.7,1.25 190.7,1.25 190.7,1.35 Z M190.6,1.15 C190.6,1.25 190.5,1.05 190.4,1.15 C190.4,1.55 190.7,1.35 190.6,1.15 Z M190.2,1.35 C190.3,1.15 190.1,1.15 190.1,1.25 C190.2,1.25 190.2,1.35 190.2,1.35 Z M189.7,1.35 C189.8,1.15 189.5,1.15 189.5,1.25 C189.6,1.35 189.6,1.45 189.7,1.35 Z M189.7,1.35 C189.6,1.35 189.5,1.35 189.4,1.35 C189.4,1.75 189.7,1.75 189.7,1.35 Z M188.5,1.65 C188.5,1.65 188.5,1.75 188.5,1.65 C188.6,1.75 188.7,1.75 188.7,1.45 C188.6,1.55 188.6,1.35 188.5,1.65 Z M188.4,1.45 C188.2,1.45 188.1,1.45 187.9,1.45 C188,1.95 188.4,1.75 188.4,1.45 Z M187.8,1.45 C187.8,1.45 187.2,1.55 187.2,1.55 C187.2,1.65 187.8,1.55 187.8,1.45 Z M186.2,1.65 C186.1,1.55 186,1.55 185.9,1.55 C185.9,1.95 186.1,1.85 186.2,1.65 Z M185.6,1.85 C185.7,1.85 185.7,1.75 185.7,1.65 C185.7,1.65 185.6,1.65 185.6,1.85 Z M185,1.95 C185.3,2.05 185.3,2.05 185.6,1.75 C185.5,1.65 185,1.55 185,1.95 Z M184.1,1.85 C184.2,1.85 184.3,1.85 184.2,1.65 C184.2,1.65 184.1,1.65 184.1,1.65 C184.1,1.75 184.1,1.85 184.1,1.85 Z M193.4,1.05 C193.3,1.05 193.2,0.95 193.2,1.15 C193,1.05 192.6,0.95 192.5,1.35 C192.7,1.25 192.8,1.25 193,1.35 C193,1.55 193.1,1.55 193.1,1.45 C193,1.45 193,1.35 193,1.35 C193,1.15 193.1,1.45 193.1,1.25 C193.2,1.15 193.3,1.25 193.4,1.05 C193.4,0.95 193.4,0.95 193.4,1.05 Z M172.7,1.25 C172.8,1.25 172.9,1.35 172.8,1.15 C172.7,1.15 172.7,1.15 172.7,1.25 Z M190.5,12.65 C190.5,12.75 190.3,12.75 190.3,12.95 C190.2,12.75 190.1,12.65 190,12.85 C189.8,12.45 189.9,13.05 189.6,12.65 C189.5,12.65 189.6,12.75 189.6,12.85 C189.4,12.75 189,12.95 188.7,13.05 C188.6,13.05 188.3,12.85 188.4,13.25 C188.2,13.05 188.1,13.15 187.9,13.35 C187.8,12.95 187.5,13.55 187.4,13.15 C187.2,13.05 186.6,13.35 186.4,13.35 C186.2,13.35 186,12.95 185.8,13.35 C185.7,12.85 185.5,13.55 185.4,13.05 C185,13.75 184.5,12.85 183.9,13.45 C183.8,13.45 183.8,13.25 183.7,13.25 C183.5,13.65 172.2,13.05 171.9,13.15 C171.6,12.95 171.9,12.15 171.8,11.95 C171.8,11.85 171.8,11.35 171.7,11.05 C171.6,10.45 171.7,10.15 171.7,9.65 C171.5,9.45 171.6,8.85 171.6,8.55 C171.9,8.65 171.9,7.95 172,7.75 C172,7.75 172,7.45 172,7.25 C172,7.15 172.1,7.15 172.1,7.15 C172.2,7.25 172.2,6.45 172.1,6.45 C172.1,5.85 172,4.45 171.9,3.85 C172,3.85 172.1,3.65 171.9,3.75 C172,3.55 172.2,3.75 172.2,3.55 C172.1,3.35 172,3.35 171.9,3.35 C172,3.05 171.9,3.05 171.9,2.75 C172,2.75 172,2.65 172,2.65 C172,2.55 171.9,2.55 171.9,2.55 C171.9,2.45 171.9,2.25 172,2.35 C172,2.15 171.9,2.25 171.9,1.95 C171.9,1.95 172,1.85 172,1.85 C172.1,1.15 172.5,0.85 172.8,1.05 C172.9,1.05 178.5,0.65 178.6,0.75 C178.5,1.05 178.7,0.75 178.7,0.75 C178.7,0.95 178.8,1.05 178.9,1.05 C178.9,1.35 179,1.25 179.1,1.35 C179.2,1.05 183.5,1.25 183.6,0.95 C183.7,0.85 183.9,1.05 183.8,1.25 C183.8,1.25 183.9,1.25 183.9,1.35 C184.2,1.05 184.6,1.55 184.9,1.25 C184.9,1.05 184.8,1.15 184.8,0.95 C184.9,0.85 184.8,0.95 184.9,0.95 C184.9,1.05 184.9,1.15 184.9,1.25 C185.2,1.65 185.8,1.15 186,1.45 C186,1.35 186.1,1.35 186.1,1.15 C186.1,1.15 186.1,1.15 186.1,1.15 C186.5,1.25 187.6,1.45 187.8,1.15 C188,1.25 188,1.35 188.2,1.05 C188.3,1.25 188.5,0.95 188.5,1.25 C188.6,0.95 188.7,1.05 188.8,0.75 C188.9,0.75 188.9,1.05 189,1.15 C189.1,1.05 189.2,1.25 189.2,1.15 C189.3,1.25 189.2,1.35 189.1,1.35 C189.2,1.55 189.3,1.45 189.4,1.35 C189.4,1.25 189.3,1.25 189.3,1.25 C189.4,0.95 189.8,0.95 190,0.95 C190.3,0.95 190.5,1.15 190.7,0.95 C190.7,0.95 190.7,0.85 190.7,0.75 C190.8,0.85 190.8,1.05 190.9,1.05 C192.1,0.55 192.8,1.35 193.6,0.55 C193.7,0.55 193.8,0.55 193.8,0.55 C193.8,0.65 193.8,0.65 193.8,0.65 C193.7,0.85 193.5,0.85 193.3,1.15 C193.4,1.65 193.6,0.75 193.7,1.15 C193.6,1.15 193.6,1.25 193.6,1.25 C193.7,1.25 193.7,1.25 193.7,1.15 C193.7,1.15 193.8,1.15 193.7,1.05 C193.7,0.85 193.8,1.15 193.8,1.25 C194,1.15 194.2,1.45 194.3,1.05 C194.4,1.05 194.3,1.25 194.4,1.25 C194.5,1.15 194.3,0.95 194.4,0.95 C194.5,1.05 194.6,1.05 194.6,1.25 C194.6,1.25 194.7,1.25 194.7,1.15 C194.8,1.15 194.8,1.15 194.8,1.05 C194.8,1.15 194.9,1.15 194.9,1.15 C194.9,1.05 194.9,1.05 194.9,0.95 C194.9,0.95 194.9,0.95 194.9,0.95 C194.9,1.05 194.4,1.15 194.4,1.25 C194.5,1.25 195,0.85 194.9,0.95 C194.9,0.75 194.5,0.85 194.6,0.85 C194.6,1.15 194.5,0.75 194.5,1.05 C194.7,1.15 194.8,1.15 194.9,0.95 C194.9,0.95 195,0.85 195,0.85 C195,1.05 194.9,1.05 194.9,1.25 C195.3,0.95 196.5,1.45 197,1.15 C197,1.25 197,1.35 197,1.35 C197.1,0.95 197.3,0.95 197.5,1.35 C197.3,1.55 197,1.15 197,1.75 C196.9,1.75 197,1.65 197,1.45 C196.8,1.45 196.7,1.55 196.6,1.45 C196.5,1.65 195.2,1.65 195.2,1.65 C195.1,1.65 195.1,1.75 195.2,1.85 C195.1,1.85 195.1,1.65 195,1.75 C195,1.65 195,1.75 195,1.75 C195,1.75 194.9,1.75 194.9,1.85 C194.9,1.85 194.8,1.85 194.8,1.75 C194.9,1.65 194.8,1.45 194.7,1.55 C194.7,1.65 194.8,1.55 194.8,1.75 C194.7,1.75 194.8,1.85 194.7,1.95 C194.6,1.95 194.7,1.65 194.6,1.75 C194.6,1.85 194.5,1.95 194.5,2.15 C194.5,2.15 194.5,2.05 194.5,2.05 C194.5,2.05 194.5,1.95 194.5,2.05 C194.4,2.05 194.9,1.85 194.8,1.95 C194.7,1.75 194.6,2.25 194.4,2.15 C194.4,1.95 194.5,1.95 194.6,1.95 C194.6,1.55 194.3,2.05 194.2,1.85 C194.2,2.15 194.4,2.05 194.2,2.25 C194.3,2.45 194.4,2.25 194.5,2.35 C194.5,2.45 194.5,2.45 194.5,2.55 C194.4,2.55 194.4,2.55 194.3,2.55 C194.2,2.85 194.4,2.55 194.4,2.75 C194.5,2.75 194.5,2.65 194.4,2.55 C194.5,2.45 194.5,2.85 194.6,2.55 C194.6,2.65 194.6,2.65 194.6,2.75 C194.7,2.75 194.7,2.75 194.8,2.75 C194.8,2.65 194.7,2.75 194.7,2.65 C194.8,2.65 194.5,2.35 194.5,2.75 C194.5,2.75 194.5,2.75 194.5,2.75 C194.5,2.65 194.4,2.75 194.4,2.85 C194.2,2.85 194.8,2.95 194.8,3.05 C194.8,3.05 194.8,3.05 194.7,3.05 C194.7,2.95 194.7,3.05 194.7,3.05 C194.7,3.15 194.4,3.15 194.4,3.05 C194.4,3.05 194.5,3.15 194.5,3.15 C194.5,3.15 194.5,3.25 194.5,3.25 C194.6,3.25 194.6,3.05 194.7,3.15 C194.7,3.45 194.5,3.25 194.5,3.55 C194.4,3.45 194.9,3.55 194.8,3.45 C194.8,3.35 194.4,3.45 194.5,3.25 C194.5,3.35 194.5,3.25 194.5,3.25 C194.5,3.25 194.5,3.15 194.5,3.15 C194.4,3.25 194.9,3.35 194.8,3.35 C194.9,3.05 194.5,3.45 194.4,3.25 C194.5,3.45 194.5,3.45 194.3,3.45 C194.3,3.35 194.3,3.25 194.3,3.25 C194.4,3.25 194.4,3.05 194.5,3.15 C194.5,2.95 194.4,3.05 194.4,2.85 C194.3,2.85 194.4,3.15 194.4,3.25 C194.3,3.25 194.4,2.95 194.3,3.05 C194.3,3.15 194.3,3.15 194.3,3.45 C194.2,3.45 194.2,3.45 194.1,3.45 C194.2,3.25 194,3.35 194,3.15 C194,3.15 194,3.05 194,3.05 C194,2.95 194.1,3.05 194.1,2.95 C194.1,2.95 194.1,3.05 194.1,3.15 C194,3.15 194.1,3.25 194.1,3.15 C194.1,3.05 194.2,2.95 194.2,2.95 C194,2.55 193.7,3.35 193.9,3.25 C193.9,3.35 193.9,3.35 193.9,3.35 C193.8,3.45 193.8,3.45 193.7,3.55 C193.8,3.45 193.8,3.35 193.7,3.15 C193.9,3.15 193.6,2.95 193.8,3.05 C193.6,2.85 193.5,3.55 193.3,3.55 C193.1,3.55 193.2,3.65 193,3.65 C193,3.75 193.1,3.85 193.1,3.75 L193.1,3.75 C193.1,3.85 192.9,3.85 192.9,3.65 C192.9,3.75 192.8,3.75 192.8,3.95 C192.8,3.95 192.7,3.85 192.7,3.85 C192.7,3.85 192.7,3.85 192.7,3.75 C192.7,3.75 192.7,3.85 192.7,3.85 C192.7,4.05 192.6,3.75 192.6,3.85 C192.6,4.25 192.7,3.85 192.7,4.15 C192.7,4.15 192.7,4.15 192.7,4.25 C192.7,4.25 192.7,4.25 192.7,4.15 C192.8,4.05 193,4.25 192.9,3.95 C192.9,3.95 192.9,3.95 193,3.95 C193.1,4.15 193.1,4.05 193,4.35 C193.1,4.15 193.3,4.15 193.3,3.95 C193.4,3.95 193.3,4.15 193.4,4.05 C193.4,4.05 193.4,4.05 193.4,4.15 C193.4,4.15 193.4,4.05 193.4,4.05 C193.4,3.85 193.5,3.85 193.4,3.65 C193.2,3.85 193.2,4.05 192.9,3.95 C192.9,3.85 193,3.75 193.1,3.75 C193.1,3.65 193.1,3.65 193,3.65 C193,3.55 193.1,3.55 193.1,3.45 C193.2,3.65 193.2,3.45 193.3,3.45 C193.4,3.45 193.6,3.75 193.5,3.55 C193.6,3.55 193.5,3.85 193.5,3.95 C193.5,3.95 193.4,3.95 193.4,3.85 C193.4,4.35 193.6,3.75 193.5,4.25 C193.6,4.05 193.7,4.05 193.7,3.85 C193.8,3.85 193.8,4.15 193.8,4.25 C193.9,4.25 193.9,3.95 193.9,3.75 C194,3.75 194,3.75 194,3.95 C194,3.95 194,4.05 194,3.95 C194.1,4.05 194.1,3.65 194.2,3.75 C194.2,3.85 194.1,3.85 194.1,3.95 C194,3.95 194,3.95 193.9,4.05 C193.9,4.25 194.1,3.95 194,4.25 C194,4.25 194,4.35 193.9,4.35 C193.8,4.25 193.5,4.35 193.3,4.45 C193.3,4.55 193.5,4.45 193.6,4.55 C193.6,4.55 193.6,4.65 193.6,4.65 C193.4,4.55 193.4,4.75 193.2,4.85 C193.2,5.05 193.3,4.85 193.4,4.95 C193.4,5.15 193.3,5.15 193.2,5.05 C193.4,5.45 193.6,4.95 193.8,4.95 C193.8,5.05 193.8,5.05 193.8,5.15 C193.8,5.05 193.9,4.85 193.9,5.15 C194,5.05 194.2,5.05 194.4,4.95 C194.4,4.95 193.9,5.05 194,5.05 C194,4.95 194.4,4.85 194.4,4.95 C194.1,4.95 194.1,4.65 194.1,4.75 C194.1,4.75 194.1,4.75 194.1,4.85 C194.1,4.85 194.1,4.95 194.1,4.85 C194.1,4.85 194.1,4.85 194.1,4.75 C194.2,4.75 194.2,4.75 194.2,4.65 C194.4,4.85 194.7,4.75 194.9,4.65 C194.9,4.15 194.8,4.35 194.8,4.15 C194.7,4.15 194.7,4.35 194.6,4.35 C194.5,3.95 194.1,4.45 194,4.25 C194.1,4.15 194.2,4.15 194.1,3.85 C194.3,4.35 194.7,3.65 194.9,4.05 C195,4.05 194.9,3.85 195,3.75 C195.1,3.75 195,3.85 195,3.95 C195.1,4.05 195.2,3.95 195.4,3.85 C195.5,4.05 195.5,3.55 195.7,3.65 C195.7,3.75 195.8,3.75 195.8,3.75 C195.8,3.65 195.7,3.65 195.7,3.65 C195.7,3.45 195.9,3.25 196,3.45 C195.8,3.45 196,3.95 196,3.45 C196,3.45 196.1,3.35 196.1,3.35 C196.3,3.35 195.3,3.45 195.5,3.35 C195.5,3.45 195.5,3.45 195.5,3.55 C195.6,3.55 195.7,3.35 195.7,3.65 C195.7,3.65 195.6,3.65 195.6,3.75 C195.6,3.75 195.5,3.75 195.5,3.75 C195.5,3.85 195.7,3.95 195.6,3.75 C195.6,3.75 195.7,3.75 195.7,3.65 C195.7,3.65 195.8,3.65 195.8,3.65 C195.8,3.85 195.7,3.85 195.7,3.95 C195.7,4.05 195.9,4.05 195.9,3.95 C195.9,3.95 195.9,3.75 196,3.75 C196,3.75 196.1,3.75 196.1,3.75 C196.1,3.85 196.1,3.85 196.2,3.85 C196.2,3.75 196.2,3.75 196.1,3.75 C196.1,3.45 196.2,3.75 196.3,3.55 C196.3,3.65 196.3,3.85 196.3,3.95 C196.4,3.85 196.3,3.55 196.5,3.65 C196.5,3.75 196.5,3.75 196.5,3.85 C196.5,3.85 196.4,3.85 196.4,3.85 C196.4,3.95 196.5,3.95 196.5,3.85 C196.6,3.75 196.7,3.95 196.8,3.85 C196.8,3.95 196.8,3.95 196.9,3.95 C196.9,3.85 196.9,3.85 196.8,3.85 C196.7,3.65 196.6,3.85 196.6,3.75 C196.6,3.45 196.8,3.65 196.9,3.75 C197,3.75 196.9,3.65 196.9,3.45 C197,3.55 197.4,3.75 197.4,3.45 C197.4,3.45 197.4,3.35 197.4,3.35 C197.4,3.35 197.4,3.45 197.4,3.55 C197.4,3.55 197.4,3.35 197.4,3.25 C197.3,3.25 197.3,3.25 197.3,3.45 C197.2,3.45 197.2,3.25 197.2,3.15 C197.2,3.15 197.2,3.15 197.2,3.05 C197.3,3.05 197.3,3.25 197.4,3.15 C197.4,3.15 197.4,3.25 197.4,3.25 C197.4,3.25 197.4,3.15 197.4,3.15 C197.4,3.05 197.5,3.05 197.5,3.05 C197.5,3.25 197.4,3.25 197.4,3.35 C197.4,3.35 197.4,3.35 197.3,3.35 C197.3,3.45 197.3,3.55 197.3,3.65 C197.2,3.85 196.9,3.75 196.7,3.85 C196.7,3.85 196.7,3.85 196.7,3.85 C196.7,3.95 196.7,3.85 196.7,3.85 C197,3.85 197.4,4.05 197.6,3.85 C197.8,3.85 197.9,3.95 198,3.85 C198.1,4.05 197.9,4.05 197.8,4.05 C197.3,4.15 196.4,3.85 196.1,4.15 C196,4.05 196,3.95 195.9,3.85 C196,4.15 195.8,4.05 195.8,4.25 C195.8,4.25 195.8,4.25 195.8,4.25 C195.8,4.25 195.8,4.15 195.8,4.15 C195.8,4.15 195.8,4.25 195.8,4.25 C195.8,4.35 195.8,4.25 195.8,4.25 C195.8,4.25 195.9,4.25 195.9,4.25 C195.9,4.35 195.9,4.35 195.8,4.35 C195.8,4.45 195.9,4.35 195.9,4.55 C195.8,4.45 195.7,4.65 195.7,4.35 C195.5,4.35 195.5,4.45 195.4,4.55 C195.3,4.45 195.4,4.45 195.4,4.35 C195.4,4.15 195.2,4.35 195.3,4.15 C195.2,4.05 195.2,4.25 195.2,4.35 C195.2,4.25 196.1,4.25 196,4.25 C196,4.25 196,4.35 196,4.35 C195.9,4.35 195.8,4.55 195.8,4.25 C195.6,4.25 195.5,4.45 195.4,4.65 C195.4,4.45 195.4,4.35 195.3,4.45 C195.3,4.35 195,4.35 195.2,4.25 C195.1,4.05 195,4.35 194.9,4.25 C194.9,4.45 195,4.45 195.1,4.35 C195,4.45 195.1,4.55 195.1,4.65 C195.1,4.65 195,4.65 195,4.65 C195,4.25 194.9,4.95 195,4.65 C195,4.75 195.2,4.75 195.1,4.65 C195.1,4.65 195.1,4.65 195.1,4.65 C195.1,4.75 195.1,4.65 195.1,4.65 C195.1,4.75 195.2,4.75 195.3,4.65 C195.3,4.85 195.5,4.45 195.5,4.75 C195.6,4.65 195.6,4.65 195.8,4.55 C195.8,4.45 195.8,4.45 195.7,4.45 C195.8,4.25 194.9,4.55 195,4.65 C195.1,4.65 195.1,4.45 195.2,4.45 C195.1,4.75 195.3,4.65 195.3,4.55 C195.3,4.55 195.4,4.65 195.4,4.75 C195.6,4.65 195.7,4.75 195.7,4.55 C195.8,4.75 196.3,4.75 196.4,4.35 C196.5,4.45 196.4,4.45 196.4,4.65 C196.5,4.55 196.6,4.75 196.7,4.45 C196.8,4.65 196.9,4.45 197,4.55 C197.1,4.55 197.1,4.05 197.2,4.25 C197.2,4.35 197,4.45 197.2,4.45 C197.5,4.65 198.7,4.65 199,4.55 C199.4,4.75 198.7,4.55 199.3,4.85 C198.3,4.95 198.9,4.95 197.9,4.85 C197.8,4.85 197.9,5.15 197.8,5.05 C197.8,4.95 197.8,4.95 197.8,4.85 C197.7,4.95 197.6,4.75 197.5,4.95 C197.6,5.05 197.6,5.15 197.4,5.05 C197.4,5.15 197.5,5.05 197.5,5.25 C197.4,5.15 197.4,5.35 197.3,5.35 C197.4,5.05 197.2,4.95 197.1,5.05 C197.1,4.95 197.1,4.95 197.2,4.95 C196.9,4.85 196.2,4.65 195.9,5.05 C196,5.15 196.1,5.25 196.3,5.25 C195.8,5.25 196.2,5.65 195.8,5.35 C195.7,5.45 195.6,5.45 195.5,5.35 C194.9,5.85 194.6,5.35 193.8,5.85 C194.2,6.05 194.3,5.75 194.6,5.75 C194.7,5.65 195,5.85 195.1,5.65 C195.1,5.65 195.1,5.75 195.1,5.85 C195.5,5.45 195.1,5.75 195.4,5.45 C195.4,5.45 195.5,5.55 195.5,5.65 C195.6,5.45 196.2,5.75 196.2,5.35 C196.2,5.45 196.2,5.45 196.2,5.55 C196.5,5.55 196.8,5.45 197.1,5.45 C197.2,5.45 197.3,5.65 197.4,5.65 C197.6,5.65 197.9,5.35 198,5.65 C198.5,5.45 198,5.45 198.5,5.65 C198.5,5.95 198.3,5.55 198.4,5.85 C198.4,5.85 198.4,5.75 198.4,5.75 C197.9,5.95 198.6,5.75 198,5.75 C197.7,5.75 197.4,5.95 197.1,5.95 C197,5.95 196.7,5.75 196.8,5.95 C196.7,5.85 196.3,6.05 196.2,5.85 C196,6.05 195.4,6.05 195.1,5.95 C194.9,6.15 195.7,6.05 195.5,6.15 C195.6,6.45 194.8,6.35 195,6.35 C195.1,6.35 195.3,6.25 195.4,6.15 C195.9,6.35 196.5,6.15 197,6.25 C197,6.45 197.2,6.45 197.1,6.25 C197.2,6.45 197.3,6.15 197.4,6.35 C197.4,6.35 197.4,6.35 197.3,6.35 C197.3,6.45 197.4,6.45 197.4,6.35 C197.5,6.05 197.5,6.45 197.6,6.25 C197.6,6.35 197.6,6.35 197.6,6.45 C197.8,6.35 198.2,6.35 198.2,6.45 C198.4,6.25 198.6,6.25 198.8,6.35 C198.7,6.35 198.4,6.65 198.3,6.55 C198.4,6.95 198.8,6.45 198.9,6.75 C199,6.65 199.1,6.55 199.2,6.65 C199.2,6.55 199.1,6.45 199.1,6.55 C199.1,6.45 199.1,6.45 199.1,6.45 C199.1,6.35 199.2,6.35 199.2,6.35 C199.2,6.45 199.2,6.45 199.1,6.45 C199.2,6.65 199.4,6.55 199.5,6.25 C199.9,6.55 198.7,6.35 199.1,6.35 C199.1,6.85 198.6,6.55 198.4,6.55 C198.5,6.55 198.4,6.45 198.4,6.55 C198.2,6.65 199.4,6.55 199.2,6.65 C199.3,6.95 198,6.55 198.1,6.85 C198.1,6.85 198.1,6.95 198.1,6.95 C197.8,6.85 199.1,7.15 198.7,6.95 C197.3,7.25 196.5,6.95 195.2,7.35 C195.4,7.65 194.8,7.25 195.1,7.35 C194.9,7.65 195.4,7.45 195,7.55 C195,7.35 195.1,7.45 195.2,7.35 C195.2,7.15 195.1,7.35 195,7.25 C194.9,7.75 194.5,7.35 194.4,7.55 C194.4,7.75 194.6,7.55 194.5,7.75 C194.4,7.85 194.1,7.65 194,7.95 C194,7.95 194,7.95 194,7.85 C194,7.85 194,7.75 194,7.75 C194,7.55 194.1,7.75 194.2,7.65 C194.2,7.65 194.2,7.55 194.2,7.55 C194.2,7.55 194.3,7.55 194.3,7.45 C194.3,7.45 194.3,7.45 194.4,7.45 C194.4,7.55 194.4,7.45 194.4,7.45 C194.7,7.35 194.4,6.95 194.3,7.45 C194.3,7.45 194.2,7.45 194.2,7.55 C194,7.65 193.9,7.55 193.9,7.75 C193.9,7.75 193.8,7.75 193.8,7.85 C193.7,7.75 194,7.85 194,7.65 C194.1,7.65 193.8,7.75 193.9,7.45 C193.9,7.45 194.1,7.55 193.9,7.45 C193.9,7.45 193.9,7.75 193.8,7.55 C193.8,7.55 193.8,7.45 193.8,7.55 C193.7,7.65 193.8,7.75 193.8,7.95 C193.7,7.95 193.6,7.65 193.6,7.85 C193.6,7.85 193.5,7.85 193.5,7.85 C193.5,8.05 193.5,8.15 193.6,8.05 C193.5,8.15 193.3,8.05 193.2,7.95 C193.2,8.25 192.9,8.15 192.8,8.15 C192.7,8.35 192.2,8.55 192,8.45 C192,8.15 192.4,8.25 192.3,8.15 C192.2,8.35 191.8,8.45 191.6,8.45 C191.6,8.35 192.1,8.25 192.1,8.25 C192,8.25 191.5,8.35 191.5,8.55 C191.5,8.55 191.9,8.45 191.9,8.45 C191.8,8.65 191.1,8.55 191,8.55 C191,8.55 191,8.75 190.9,8.75 C191,8.95 191.1,8.55 191.1,8.85 C191,8.95 191,8.85 190.9,9.05 C190.9,9.15 191,9.15 191,9.15 C191,9.35 190.8,9.15 190.9,9.35 C190.8,9.35 190.8,9.15 190.9,9.05 C190.9,8.85 190.8,9.25 190.7,9.15 C190.7,8.95 190.8,9.05 190.8,8.95 C190.7,8.75 190.4,9.05 190.2,9.15 C190.3,9.25 190.4,9.25 190.4,9.05 C190.5,9.05 190.4,9.25 190.4,9.25 C190.5,9.25 190.5,9.15 190.5,9.05 C190.7,9.05 190.9,9.35 190.8,9.55 C190.9,9.65 190.9,9.45 190.9,9.45 C190.9,9.55 190.9,9.45 190.9,9.45 C191.1,9.35 191.3,8.85 191.6,9.05 C191.6,9.15 191.5,9.15 191.5,9.15 C191.5,9.25 191.5,9.25 191.6,9.25 C191.5,9.45 191.5,9.05 191.3,9.15 C191.2,9.45 191.2,9.25 191.1,9.45 C191.1,9.45 191.3,9.55 191.3,9.75 C191.4,9.55 191.2,9.55 191.3,9.35 C191.4,9.35 191.4,9.55 191.5,9.35 C191.6,9.45 191.4,9.55 191.5,9.75 C191.4,9.75 191.4,9.95 191.3,9.95 C191.4,10.15 191.5,9.95 191.5,9.75 C191.6,9.75 191.7,9.65 191.8,9.55 C191.7,9.45 191.6,9.35 191.7,8.95 C191.7,8.95 191.8,9.05 191.8,9.05 C191.8,9.05 191.8,9.05 191.8,9.15 C191.8,9.15 191.8,9.15 191.8,9.05 C192,9.15 192.1,8.85 192.2,8.85 C192.1,9.25 192,9.05 191.8,9.15 C191.8,9.25 191.8,9.25 191.8,9.35 C191.9,9.35 192,8.95 192,9.35 C192,9.35 191.9,9.45 191.9,9.45 C192,9.45 192.2,9.45 192.2,9.35 C192.2,9.25 192.1,9.25 192.1,8.95 C192.2,9.05 192.2,8.95 192.2,8.75 C192.3,8.75 192.3,8.85 192.4,8.85 C192.4,8.95 192.4,9.05 192.4,9.15 C192.5,9.15 192.5,9.05 192.6,9.05 C192.6,8.85 192.5,8.95 192.5,8.65 C192.4,8.75 192.4,8.85 192.3,8.75 C192.3,8.65 192.4,8.65 192.4,8.65 C192.4,8.45 192.2,8.85 192.2,8.55 C192.3,8.55 192.7,8.45 192.8,8.35 C193,8.45 192.8,8.15 193,8.35 C193.2,8.25 193.7,7.95 193.9,8.05 C193.9,8.15 193.8,8.05 193.8,8.15 C193.7,8.15 193.7,8.25 193.7,8.25 C193.7,8.45 193.9,8.35 193.8,8.15 C194,8.15 193.5,8.05 193.7,7.95 C193.7,8.05 193.7,8.15 193.8,8.05 C193.8,8.15 193.8,8.15 193.8,8.15 C194.1,7.95 194.4,7.85 194.8,7.85 C194.8,7.85 194.8,7.95 194.8,7.95 C194.8,7.95 194.8,8.05 194.8,7.95 C194.8,7.95 194.8,7.85 194.8,7.85 C194.9,7.65 194.8,8.15 194.9,8.15 C195,8.15 195,7.95 195,7.95 C195.1,8.15 195.4,8.05 195.5,7.95 C195.6,8.05 194.8,8.15 194.9,7.95 C195,7.95 194.9,8.15 195,8.05 C194.5,8.25 194.5,8.25 194.1,8.25 C194.1,8.35 194.1,8.45 194,8.55 C193.9,8.55 194,8.35 194,8.25 C193.9,8.15 193.8,8.45 193.8,8.25 C193.8,8.55 193.6,8.35 193.5,8.65 C193.5,8.65 193.4,8.65 193.4,8.75 C193.3,8.75 193.3,8.65 193.4,8.55 C193.2,8.55 193.1,8.55 193,8.65 C193,8.55 193,8.55 193.1,8.45 C193,8.25 193.3,8.65 193.2,8.35 C193.1,8.45 193.2,8.75 193.1,8.75 C193.1,8.65 193.1,8.45 193.2,8.45 C193.1,8.35 193,8.75 192.9,8.65 C192.9,8.75 193.1,8.65 193,8.85 C193.1,8.85 193.2,8.85 193.2,8.95 C193.2,9.15 193.1,8.95 193,9.05 C193,9.15 193.1,9.25 193.1,9.15 C193.1,9.25 193.2,9.25 193.2,9.15 C193.3,9.15 193.3,9.15 193.4,9.15 C193.4,9.15 193.4,9.25 193.4,9.25 C193.8,9.25 193.8,9.15 194.3,9.25 C194.3,9.35 194.4,9.35 194.4,9.45 C194.3,9.35 194,9.55 193.8,9.45 C193.8,9.65 193.8,9.65 193.8,9.85 C193.9,9.75 194,9.85 194,9.65 C194.1,9.65 194,9.85 194.1,9.75 C194.1,9.95 193.9,9.85 193.9,9.95 C193.9,9.95 193.9,9.85 193.8,9.85 C193.8,9.95 193.9,10.05 193.9,9.95 C194,10.25 194.1,9.95 194.2,10.05 C194.4,9.95 194.7,10.05 195.1,9.95 C195.1,10.05 195,10.05 195,10.05 C195,10.05 195,10.05 194.9,10.05 C194.9,10.15 195,10.15 195,10.05 C195,10.05 195.2,10.05 195.1,9.95 C195.3,9.95 194.6,9.95 194.9,9.85 C194.9,9.95 194.9,9.95 194.9,9.95 C195.2,9.85 195.2,9.85 195.4,9.95 C195.4,10.05 195.4,10.05 195.5,10.05 C195.5,9.95 195.5,9.95 195.4,9.95 C195.6,9.75 195.8,9.95 196,9.85 C196.1,9.85 196,10.05 196,10.15 C195.9,10.15 195.9,9.95 195.8,9.95 C195.8,10.05 195.8,10.15 195.9,10.05 C195.4,10.25 195,10.15 194.6,10.15 C194.6,10.15 194.6,10.15 194.6,10.05 C194.6,10.05 194.6,10.15 194.6,10.15 C194.1,10.25 194.5,10.35 194.1,10.25 C194.1,10.25 194.1,10.35 194.1,10.45 C194,10.35 193.9,10.25 193.8,10.35 C193.8,10.45 193.8,10.45 193.9,10.45 C193.3,10.65 193.2,10.35 192.6,10.65 C192.5,10.45 192.3,10.65 192.1,10.65 C191.8,10.65 191.5,10.55 191.2,10.75 C191.1,10.85 191.2,11.05 191.1,11.15 C190.9,10.75 190.5,11.05 190.1,11.15 C190.1,11.35 190.3,11.15 190.2,11.45 C190.4,11.25 190.4,11.85 190.6,11.55 C190.5,11.45 190.5,11.25 190.4,11.35 C190.5,11.25 190.7,11.25 190.9,11.25 C190.9,11.35 190.9,11.35 190.9,11.45 C191,11.55 190.9,11.15 191,11.25 C191,11.45 191.1,11.25 191.1,11.55 C191,11.55 191,11.55 190.9,11.65 C191.9,12.45 190.4,12.55 191.4,11.65 C191.5,11.65 191.5,11.65 191.6,11.65 C191.5,12.25 191.3,12.45 191.1,12.65 C190.8,12.85 190.5,12.65 190,12.55 C190.2,12.75 190.5,13.25 190.7,13.25 L190.5,12.65 Z"/><path id="Fill-20" fill="#F6EB3B" d="M197.9,1.15 C197.8,1.15 198,0.75 197.9,1.15"/><path id="Fill-21" fill="#F6EB3B" d="M189.4,1.55 C189.4,1.25 189.6,1.65 189.4,1.55"/><path id="Fill-22" fill="#F6EB3B" d="M198.2,1.45 C198.2,1.05 198.2,1.85 198.2,1.45"/><path id="Fill-23" fill="#F6EB3B" d="M197.8,1.55 C197.9,1.25 197.9,1.85 197.8,1.55"/><path id="Fill-24" fill="#F6EB3B" d="M198,1.55 C198,1.45 198.1,1.45 198.2,1.45 C198.1,1.55 198,1.55 198,1.55"/><path id="Fill-25" fill="#F6EB3B" d="M198.8,1.55 C198.8,1.55 198.8,1.65 198.8,1.55"/><path id="Fill-26" fill="#F6EB3B" d="M200.8,0.75 C200.7,0.75 200.8,0.65 200.8,0.75 C200.8,0.75 200.8,0.75 200.8,0.75"/><path id="Fill-27" fill="#F6EB3B" d="M197.5,1.25 C197.4,1.45 197.3,1.35 197.2,1.45 C197.2,1.25 197.4,1.25 197.5,1.25"/><path id="Fill-28" fill="#F6EB3B" d="M197.7,1.35 C197.6,1.25 197.7,1.35 197.7,1.35"/><path id="Fill-29" fill="#F6EB3B" d="M200,1.55 C200,1.45 200.1,1.55 200,1.55"/><path id="Fill-30" fill="#F6EB3B" d="M200.8,0.75 C200.8,0.75 200.8,0.85 200.8,0.75 C200.6,0.75 200.7,0.95 200.6,1.05 C200.5,0.75 200.2,0.95 200.2,1.25 C200.1,1.15 200.1,1.15 200,0.95 C199.9,0.95 200,1.15 200,1.15 C199.9,1.45 199.9,0.85 199.8,1.05 C199.8,0.85 199.6,1.15 199.6,0.85 C199.8,1.05 200.3,0.65 200.8,0.75"/><path id="Fill-31" fill="#F6EB3B" d="M200.8,0.75 C200.9,0.85 201.1,0.65 201.1,0.85 C201.1,1.15 200.8,1.15 200.7,1.05 C200.7,0.95 200.8,0.95 200.8,0.85 C200.8,0.85 200.9,0.85 200.8,0.75"/><path id="Fill-32" fill="#F6EB3B" d="M201,0.75 C201.2,0.65 201.1,0.85 201.3,0.85 C201.3,1.05 200.9,1.05 201,0.75"/><path id="Fill-33" fill="#F6EB3B" d="M201.6,0.95 C201.4,0.95 201.6,0.45 201.6,0.95"/><path id="Fill-34" fill="#F6EB3B" d="M199.8,1.55 C199.8,1.55 199.9,1.65 199.8,1.55"/><path id="Fill-35" fill="#F6EB3B" d="M199.9,1.65 C199.9,1.55 200,1.55 200,1.55 C200,1.55 199.9,1.55 199.9,1.65"/><path id="Fill-36" fill="#F6EB3B" d="M198.4,1.65 C198.4,1.55 198.5,1.55 198.4,1.65"/><path id="Fill-37" fill="#F6EB3B" d="M198.6,1.65 C198.6,1.55 198.7,1.55 198.7,1.55 C198.7,1.65 198.6,1.65 198.6,1.65"/><path id="Fill-38" fill="#F6EB3B" d="M198.8,1.75 C198.6,1.85 198.8,1.45 198.8,1.75"/><path id="Fill-39" fill="#F6EB3B" d="M201.3,0.95 C201.4,0.55 201.4,1.35 201.3,0.95"/><path id="Fill-40" fill="#F6EB3B" d="M201.4,0.95 C201.4,0.95 201.5,1.05 201.4,0.95"/><path id="Fill-41" fill="#F6EB3B" d="M201.6,0.85 C201.6,0.85 201.6,1.05 201.6,0.85"/><path id="Fill-42" fill="#F6EB3B" d="M197.2,1.45 C197.2,1.45 197.3,1.45 197.3,1.45 C197.3,1.55 197.3,1.55 197.3,1.65 C197.3,1.65 197.2,1.65 197.2,1.65 C197.2,1.55 197.2,1.55 197.2,1.45"/><path id="Fill-43" fill="#F6EB3B" d="M198.3,1.85 C198.2,1.85 198.2,2.05 198.1,2.05 C198.1,1.95 198.3,1.45 198.3,1.85"/><path id="Fill-44" fill="#F6EB3B" d="M198,1.75 C198,1.65 198.1,1.75 198,1.75"/><path id="Fill-45" fill="#F6EB3B" d="M198.6,1.65 C198.6,1.75 198.5,1.75 198.5,1.95 C198.4,1.85 198.3,2.05 198.1,1.95 C198.1,1.55 198.3,1.75 198.6,1.65"/><path id="Fill-46" fill="#F6EB3B" d="M198.8,1.85 C198.8,1.85 198.8,1.75 198.8,1.85 C198.8,1.75 198.8,1.85 198.8,1.85"/><path id="Fill-47" fill="#F6EB3B" d="M199.5,1.75 C199.5,1.65 199.5,1.75 199.5,1.75"/><path id="Fill-48" fill="#F6EB3B" d="M199.5,1.75 C199.7,1.35 199.6,2.05 199.5,1.75"/><path id="Fill-49" fill="#F6EB3B" d="M199.5,1.15 C199.5,1.05 199.6,1.05 199.6,1.05 C199.6,1.15 199.6,1.15 199.5,1.15"/><path id="Fill-50" fill="#F6EB3B" d="M199.6,1.15 C199.7,0.75 199.6,1.75 199.6,1.15"/><path id="Fill-51" fill="#F6EB3B" d="M199.8,1.05 C199.8,1.15 199.9,1.25 199.9,1.25 C199.9,1.45 199.8,1.35 199.7,1.35 C199.7,1.15 199.7,0.95 199.8,1.05"/><path id="Fill-52" fill="#F6EB3B" d="M198.6,1.75 C198.6,1.65 198.7,1.65 198.7,1.65 C198.7,1.75 198.7,1.75 198.6,1.75"/><path id="Fill-53" fill="#F6EB3B" d="M198.8,1.85 C198.8,2.05 198.6,1.75 198.8,1.85"/><path id="Fill-54" fill="#F6EB3B" d="M200,1.75 C199.9,1.75 199.9,1.65 200,1.75"/><path id="Fill-55" fill="#F6EB3B" d="M197.5,1.65 C197.5,1.65 197.5,1.75 197.5,1.65"/><path id="Fill-56" fill="#F6EB3B" d="M200,1.85 C199.9,1.85 200,1.95 200,1.85"/><path id="Fill-57" fill="#F6EB3B" d="M199.9,1.75 C200,1.75 200,1.85 199.9,1.75"/><path id="Fill-58" fill="#F6EB3B" d="M200,1.85 C200,1.75 200.1,1.85 200,1.85"/><path id="Fill-59" fill="#F6EB3B" d="M201.1,1.55 C201,1.45 200.9,1.55 200.7,1.45 C200.8,1.55 200.8,1.55 201,1.55 C200.5,1.55 200.2,1.65 199.7,1.55 C199.6,1.55 199.6,1.65 199.6,1.75 C199.3,1.45 199.9,1.75 199.5,1.65 C199.5,1.55 199.6,1.55 199.5,1.55 C200.1,1.35 199.7,1.45 200.8,1.25 C200.8,1.15 200.7,1.15 200.6,1.15 C200.8,1.05 201,1.05 201.2,1.15 C201.1,1.35 201.1,1.05 200.9,1.15 C201,1.45 201.2,1.25 201.4,1.25 C201.4,1.55 201.2,1.35 201.1,1.55 Z"/><path id="Fill-60" fill="#F6EB3B" d="M201.2,1.25 C201.2,1.05 201.5,1.05 201.4,1.35 C201.4,1.25 201.2,1.15 201.2,1.25"/><path id="Fill-61" fill="#F6EB3B" d="M199.3,2.05 C199.4,1.65 199.4,2.35 199.3,2.05"/><path id="Fill-62" fill="#F6EB3B" d="M199.4,1.95 C199.4,1.95 199.5,2.05 199.4,1.95"/><path id="Fill-63" fill="#F6EB3B" d="M200.2,1.25 C200.2,1.25 200.3,1.35 200.2,1.25"/><path id="Fill-64" fill="#F6EB3B" d="M201.4,1.25 C201.3,1.15 201.4,1.25 201.4,1.25"/><path id="Fill-65" fill="#F6EB3B" d="M201.5,1.25 C201.5,1.15 201.6,1.25 201.5,1.25"/><path id="Fill-66" fill="#F6EB3B" d="M202.3,1.15 C202.3,1.15 202.4,1.25 202.3,1.15"/><path id="Fill-67" fill="#F6EB3B" d="M204.7,0.95 C204.8,0.95 204.8,1.15 204.9,1.15 C204.9,1.35 204.7,1.25 204.6,1.25 C204.5,0.95 204.7,1.15 204.7,0.95"/><path id="Fill-68" fill="#F6EB3B" d="M198.8,2.05 C198.8,2.05 198.8,2.15 198.8,2.05"/><path id="Fill-69" fill="#F6EB3B" d="M199.5,2.15 C199.5,2.05 199.5,2.05 199.5,2.15"/><path id="Fill-70" fill="#F6EB3B" d="M201.5,1.35 C201.4,1.35 201.5,1.45 201.5,1.35"/><path id="Fill-71" fill="#F6EB3B" d="M201.6,1.45 C201.6,1.25 201.9,1.35 202,1.35 C201.9,1.55 201.7,1.35 201.6,1.45"/><path id="Fill-72" fill="#F6EB3B" d="M202.1,1.35 C202.1,1.15 202.3,1.25 202.4,1.25 C202.4,1.45 202.2,1.35 202.1,1.35"/><path id="Fill-73" fill="#F6EB3B" d="M203.2,1.35 C203.2,1.55 203.1,1.45 203,1.35 C203,1.15 203.1,1.25 203.2,1.35"/><path id="Fill-74" fill="#F6EB3B" d="M201.8,1.55 C201.8,1.15 201.8,1.95 201.8,1.55"/><path id="Fill-79" fill="#F6EB3B" d="M201.1,1.55 C201.2,1.55 201.2,1.55 201.3,1.55 C201.3,1.75 201.2,1.65 201.2,1.85 C201.2,1.75 201.1,1.75 201.1,1.55"/><path id="Fill-80" fill="#F6EB3B" d="M201.3,1.65 C201.3,1.45 201.6,1.45 201.5,1.75 C201.5,1.75 201.4,1.75 201.4,1.75 C201.4,1.65 201.4,1.65 201.3,1.65"/><path id="Fill-81" fill="#F6EB3B" d="M201.5,1.55 C201.4,1.55 201.5,1.65 201.5,1.55"/><path id="Fill-82" fill="#F6EB3B" d="M201.9,1.55 C201.9,1.45 202,1.45 202,1.45 C202,1.55 201.9,1.55 201.9,1.55"/><path id="Fill-83" fill="#F6EB3B" d="M204.5,1.25 C204.5,1.25 204.5,1.45 204.5,1.25"/><path id="Fill-84" fill="#F6EB3B" d="M196.9,2.15 C196.9,2.05 196.9,2.15 196.9,2.15"/><path id="Fill-85" fill="#F6EB3B" d="M200,2.25 C200,2.25 200,2.25 200,2.25 C200,2.35 200,2.35 200,2.25"/><path id="Fill-86" fill="#F6EB3B" d="M201.8,1.55 C201.6,1.85 201.4,1.45 201.8,1.55"/><path id="Fill-87" fill="#F6EB3B" d="M202.5,1.65 C202.5,1.25 202.8,1.65 202.5,1.65"/><path id="Fill-88" fill="#F6EB3B" d="M199.8,1.95 C199.8,1.85 199.9,1.85 200,1.85 C199.9,1.95 199.9,1.85 199.8,1.95"/><path id="Fill-89" fill="#F6EB3B" d="M200,1.85 C200.2,1.65 199.9,2.25 200,1.85"/><path id="Fill-90" fill="#F6EB3B" d="M200.3,1.85 C200.4,1.45 200.4,2.25 200.3,1.85"/><path id="Fill-91" fill="#F6EB3B" d="M200.7,2.15 C200.7,2.15 200.7,2.05 200.7,2.15 C200.6,2.05 200.7,2.15 200.7,2.15 C200.7,2.25 200.6,2.25 200.5,2.25 C200.4,1.85 200.7,2.05 200.7,1.75 C200.8,1.75 200.8,1.95 200.7,2.15 C200.7,2.15 200.7,2.15 200.7,2.15"/><path id="Fill-92" fill="#F6EB3B" d="M202.6,1.55 C202.6,1.75 202.5,1.65 202.6,1.55"/><path id="Fill-93" fill="#F6EB3B" d="M197.9,2.55 C197.9,2.55 197.9,2.65 197.9,2.55"/><path id="Fill-94" fill="#F6EB3B" d="M198.5,2.55 C198.4,2.45 198.5,2.55 198.5,2.55"/><path id="Fill-95" fill="#F6EB3B" d="M198.8,2.55 C198.7,2.45 198.8,2.55 198.8,2.55"/><path id="Fill-96" fill="#F6EB3B" d="M197.9,2.55 C197.7,2.65 197.9,2.25 197.9,2.55"/><path id="Fill-97" fill="#F6EB3B" d="M198.2,2.45 C198.2,2.45 198.2,2.55 198.2,2.45"/><path id="Fill-98" fill="#F6EB3B" d="M200.2,1.95 C200.1,1.95 200.1,1.75 200.2,1.95"/><path id="Fill-99" fill="#F6EB3B" d="M200.9,1.95 C200.9,1.95 200.8,1.95 200.8,2.05 C200.6,1.95 200.9,1.65 200.9,1.95"/><path id="Fill-100" fill="#F6EB3B" d="M201.1,1.85 C201,1.85 201.1,1.95 201.1,1.85"/><path id="Fill-101" fill="#F6EB3B" d="M197.2,2.55 C197.3,2.55 197.3,2.45 197.4,2.45 C197.4,2.55 197.3,2.55 197.4,2.75 C197.2,2.75 197.2,2.65 197.2,2.55"/><path id="Fill-102" fill="#F6EB3B" d="M197.7,2.35 C197.7,2.35 197.7,2.45 197.7,2.35"/><path id="Fill-103" fill="#F6EB3B" d="M198.1,2.35 C198.1,2.35 198.1,2.45 198.1,2.35"/><path id="Fill-104" fill="#F6EB3B" d="M197.9,2.55 C198,2.55 198,2.65 198.1,2.65 C198.1,2.75 197.8,2.75 197.9,2.55"/><path id="Fill-105" fill="#F6EB3B" d="M199.6,2.05 C199.6,1.95 199.6,1.95 199.6,2.05 C199.6,2.05 199.6,2.05 199.6,2.05"/><path id="Fill-106" fill="#F6EB3B" d="M200.2,1.95 C200.3,1.95 200.1,2.35 200.2,1.95"/><path id="Fill-107" fill="#F6EB3B" d="M199.7,1.85 C199.8,1.85 199.8,1.95 199.9,1.95 C199.8,2.15 199.8,2.15 199.8,2.35 C199.7,2.35 199.6,2.35 199.5,2.35 C199.3,2.25 199.6,2.25 199.7,2.25 C199.7,2.15 199.6,2.05 199.5,2.15 C199.5,2.05 199.6,2.05 199.7,2.05 C199.7,2.15 199.8,2.05 199.7,2.05 C199.7,1.95 199.7,1.95 199.7,1.85"/><path id="Fill-108" fill="#F6EB3B" d="M201.6,1.95 C201.6,1.95 201.6,1.75 201.6,1.95"/><path id="Fill-109" fill="#F6EB3B" d="M202.7,1.75 C202.7,1.75 202.8,1.85 202.7,1.75"/><path id="Fill-110" fill="#F6EB3B" d="M175,3.05 C175,3.05 175,2.95 175,3.05"/><path id="Fill-111" fill="#F6EB3B" d="M197.1,2.55 C197.1,2.55 197.1,2.65 197.1,2.55"/><path id="Fill-112" fill="#F6EB3B" d="M198.1,2.35 C198.1,2.35 198.1,2.45 198.1,2.35"/><path id="Fill-113" fill="#F6EB3B" d="M199.6,2.05 C199.6,2.15 199.5,2.05 199.6,2.05"/><path id="Fill-114" fill="#F6EB3B" d="M199.6,2.05 C199.7,2.05 199.7,2.15 199.6,2.05"/><path id="Fill-115" fill="#F6EB3B" d="M199.8,2.45 C199.7,2.45 199.8,2.15 199.7,2.15 C199.8,1.75 199.9,2.25 199.8,2.45"/><path id="Fill-116" fill="#F6EB3B" d="M200.4,1.95 C200.2,2.15 200.1,2.35 199.9,2.45 C200,2.05 200.2,1.95 200.4,1.95"/><path id="Fill-117" fill="#F6EB3B" d="M201.6,1.95 C201.8,2.05 201.5,2.25 201.6,1.95"/><path id="Fill-118" fill="#F6EB3B" d="M197.9,2.35 C198.2,2.25 198.3,2.45 198.6,2.35 C198.9,2.55 199.1,2.45 199.3,2.05 C199.2,2.55 199.4,1.95 199.5,2.45 C198.8,2.55 198.5,2.65 197.9,2.35 C197.9,2.35 197.9,2.35 197.9,2.35"/><path id="Fill-119" fill="#F6EB3B" d="M202.3,1.95 C202.3,1.95 202.3,2.05 202.3,1.95"/><path id="Fill-120" fill="#F6EB3B" d="M197.3,2.55 C197.2,2.85 197.1,2.65 196.8,2.75 C196.8,2.45 197.1,2.55 197.3,2.55"/><path id="Fill-121" fill="#F6EB3B" d="M197.7,2.55 C197.8,2.35 197.5,2.95 197.7,2.55"/><path id="Fill-122" fill="#F6EB3B" d="M198,2.45 C198,2.55 198.1,2.55 198.2,2.55 C198.2,2.75 198.1,2.75 198.1,2.65 C198,2.65 198,2.55 198,2.45"/><path id="Fill-123" fill="#F6EB3B" d="M198.5,2.55 C198.4,2.55 198.4,2.55 198.3,2.55 C198.4,2.65 198.5,2.65 198.5,2.75 C198.7,2.85 198,2.95 198.1,2.65 C198.1,2.45 198.2,2.75 198.3,2.65 C198.3,2.55 198.2,2.45 198.1,2.45 C198.2,2.15 198.3,2.55 198.4,2.25 C198.5,2.45 198.5,2.45 198.5,2.55"/><path id="Fill-124" fill="#F6EB3B" d="M199.9,2.25 C200,1.85 200.1,2.55 199.9,2.25"/><path id="Fill-125" fill="#F6EB3B" d="M202.3,2.05 C202.4,2.15 202.4,2.25 202.5,2.25 C202.5,2.65 202.2,2.25 202.3,2.05"/><path id="Fill-126" fill="#F6EB3B" d="M197.9,2.65 C197.9,2.55 198,2.55 198,2.55 C198,2.65 197.9,2.65 197.9,2.65"/><path id="Fill-127" fill="#F6EB3B" d="M198.1,2.65 C198.1,2.65 198.1,2.75 198.1,2.75 C198,2.75 198,2.75 198,2.95 C197.9,2.75 198.8,2.75 198.7,2.75 C198.7,2.65 198.7,2.55 198.6,2.65 C198.6,2.65 198.6,2.55 198.6,2.55 C198.6,2.55 198.6,2.55 198.6,2.45 C198.6,2.45 198.6,2.55 198.6,2.65 C198.9,2.75 197.9,2.65 198.1,2.65"/><path id="Fill-128" fill="#F6EB3B" d="M200.2,2.25 C200.2,2.25 200.2,2.35 200.2,2.25"/><path id="Fill-129" fill="#F6EB3B" d="M200.7,2.25 C200.6,2.25 200.7,2.35 200.7,2.25"/><path id="Fill-130" fill="#F6EB3B" d="M201.8,2.35 C201.8,2.15 201.9,2.15 202,2.15 C202,2.25 201.9,2.35 201.8,2.35"/><path id="Fill-131" fill="#F6EB3B" d="M202,2.25 C202,2.05 202.1,2.25 202.2,2.25 C202.2,2.45 202.1,2.25 202,2.25"/><path id="Fill-132" fill="#F6EB3B" d="M196.9,2.65 C196.9,2.55 196.9,2.65 196.9,2.65"/><path id="Fill-133" fill="#F6EB3B" d="M197.1,2.65 C197.2,2.25 197.2,3.05 197.1,2.65"/><path id="Fill-134" fill="#F6EB3B" d="M198.6,2.75 C198.5,3.05 198.4,2.65 198.3,2.75 C198.4,2.45 198.5,2.75 198.6,2.75"/><path id="Fill-135" fill="#F6EB3B" d="M201,2.35 C201,2.25 201.1,2.35 201,2.35"/><path id="Fill-136" fill="#F6EB3B" d="M201.4,2.35 C201.4,2.25 201.5,2.25 201.6,2.25 C201.6,2.35 201.5,2.35 201.4,2.35"/><path id="Fill-137" fill="#F6EB3B" d="M200.4,2.45 C200.4,1.95 200.6,2.35 200.4,2.45"/><path id="Fill-138" fill="#F6EB3B" d="M202.5,2.25 C202.5,2.25 202.6,2.35 202.5,2.25"/><path id="Fill-139" fill="#F6EB3B" d="M196.7,2.75 C196.7,2.55 196.9,2.65 197,2.65 C196.8,2.95 196.8,2.95 196.7,2.75"/><path id="Fill-140" fill="#F6EB3B" d="M197,2.65 C197,2.65 197,2.75 197,2.65"/><path id="Fill-141" fill="#F6EB3B" d="M197.2,2.55 C197.3,2.55 197.3,2.55 197.4,2.55 C197.5,2.85 197.3,2.75 197.2,2.75 C197.2,2.75 197.2,2.65 197.2,2.55"/><path id="Fill-142" fill="#F6EB3B" d="M197.4,2.85 C197.5,2.45 197.5,3.15 197.4,2.85"/><path id="Fill-143" fill="#F6EB3B" d="M198.5,2.75 C198.5,2.65 198.6,2.65 198.5,2.75 C198.6,2.75 198.5,2.75 198.5,2.75"/><path id="Fill-144" fill="#F6EB3B" d="M200,2.35 C200,2.35 200.1,2.45 200,2.35"/><path id="Fill-145" fill="#F6EB3B" d="M201.9,2.25 C201.9,2.55 201.6,2.15 201.9,2.25"/><path id="Fill-146" fill="#F6EB3B" d="M196.4,2.75 C196.4,2.85 196.5,2.85 196.5,2.75 C196.7,2.85 196.3,3.15 196.4,2.75"/><path id="Fill-147" fill="#F6EB3B" d="M196.6,2.85 C196.5,2.85 196.6,2.95 196.6,2.85"/><path id="Fill-148" fill="#F6EB3B" d="M197.6,2.75 C197.7,2.95 197.5,3.35 197.8,3.35 C197.8,3.45 197.6,3.45 197.5,3.45 C197.6,3.25 197.5,2.95 197.3,3.05 C197.4,2.85 197.6,3.05 197.6,2.75"/><path id="Fill-149" fill="#F6EB3B" d="M198.7,2.95 C198.7,3.15 198.5,2.95 198.5,3.05 C198.5,3.15 198.3,3.15 198.4,3.35 C198.3,3.35 198.3,3.45 198.2,3.45 C198.2,3.25 198.3,3.25 198.4,3.05 C198.3,2.85 198.2,3.15 198.2,2.95 C198.2,2.55 198.5,3.05 198.7,2.95"/><path id="Fill-150" fill="#F6EB3B" d="M198.6,2.75 C198.7,2.75 198.7,2.85 198.8,2.85 C198.8,2.95 198.7,2.95 198.8,3.15 C198.8,3.15 198.7,3.05 198.7,3.05 C198.6,2.85 198.6,2.75 198.6,2.75"/><path id="Fill-151" fill="#F6EB3B" d="M200.3,2.45 C200.3,2.35 200.3,2.45 200.3,2.45"/><path id="Fill-152" fill="#F6EB3B" d="M200.4,2.35 C200.4,2.45 200.3,2.45 200.4,2.35"/><path id="Fill-153" fill="#F6EB3B" d="M197.1,2.95 C197,2.95 197.1,3.15 197,3.15 C197,3.05 196.9,3.15 197,3.15 C197,3.15 197,3.25 197,3.25 C196.9,3.25 196.9,3.25 196.9,3.15 C196.9,3.15 196.8,3.25 196.8,3.25 C196.8,3.05 196.7,3.35 196.6,3.25 C196.6,3.25 196.6,3.15 196.6,3.15 C196.6,3.15 196.6,3.05 196.7,3.05 C196.8,3.25 196.8,2.85 196.9,2.95 C196.9,3.05 196.9,3.05 196.9,3.05 C197,3.05 197,2.95 197.1,2.95 C197,2.85 196.9,2.85 196.8,2.85 C196.9,2.65 197.1,2.75 197.1,2.95 C197.1,2.85 197.1,2.95 197.1,2.95"/><path id="Fill-154" fill="#F6EB3B" d="M197.9,3.15 C197.9,3.05 197.9,3.05 197.9,2.95 C198,2.75 198.2,2.65 198.3,3.15 C198.1,2.95 198,3.05 197.9,3.15"/><path id="Fill-155" fill="#F6EB3B" d="M198.6,2.85 C198.6,2.75 198.7,2.75 198.8,2.75 C198.7,2.85 198.7,2.85 198.6,2.85"/><path id="Fill-156" fill="#F6EB3B" d="M201.8,2.45 C201.8,2.35 201.8,2.45 201.8,2.45"/><path id="Fill-157" fill="#F6EB3B" d="M196.5,2.95 C196.5,2.95 196.5,3.05 196.5,2.95"/><path id="Fill-158" fill="#F6EB3B" d="M196.6,2.95 C196.6,2.95 196.5,2.95 196.6,2.95 C196.6,2.95 196.6,2.95 196.6,2.95"/><path id="Fill-159" fill="#F6EB3B" d="M196.8,2.95 C196.8,2.85 196.9,2.85 196.8,2.95 C196.9,2.95 196.8,2.95 196.8,2.95"/><path id="Fill-160" fill="#F6EB3B" d="M197.1,2.95 C197.2,2.75 197.3,2.85 197.4,2.85 C197.4,3.05 197.3,2.95 197.2,2.95 C197.2,3.55 197.3,3.25 197.4,3.55 C197.2,3.45 197.1,3.65 196.9,3.55 C196.9,3.35 197,3.45 197.1,3.55 C197.2,3.35 197.3,2.95 197.1,2.95"/><path id="Fill-161" fill="#F6EB3B" d="M198,3.05 C198,3.15 198,3.15 198.1,3.15 C198,3.35 197.9,3.25 197.7,3.35 C197.7,3.15 198,2.95 197.6,3.05 C197.5,2.85 197.8,2.95 197.9,2.85 C197.9,2.95 197.8,3.05 197.9,3.15 C197.9,3.15 198,3.15 198,3.05"/><path id="Fill-162" fill="#F6EB3B" d="M197.9,2.95 C197.8,2.95 197.9,2.85 197.9,2.95"/><path id="Fill-163" fill="#F6EB3B" d="M198.1,2.85 C198.2,3.15 198.6,2.65 198.6,3.15 C198.3,3.15 198.3,3.15 198.1,3.05 C198,2.95 198.1,2.85 198.1,2.85"/><path id="Fill-164" fill="#F6EB3B" d="M199.6,2.85 C199.5,2.65 199.4,2.95 199.3,2.85 C199.3,2.55 199.7,2.35 199.6,2.85"/><path id="Fill-165" fill="#F6EB3B" d="M199.6,2.65 C199.6,2.55 199.7,2.55 199.7,2.55 C199.7,2.65 199.7,2.65 199.6,2.65"/><path id="Fill-166" fill="#F6EB3B" d="M200.2,2.65 C200.1,2.65 200.1,2.75 200,2.75 C200.1,2.95 200.1,2.85 200.2,2.65 C200.2,3.25 199.8,2.95 199.7,2.95 C199.9,2.85 199.9,2.45 200.2,2.65 C200.2,2.55 200.2,2.55 200.2,2.65"/><path id="Fill-167" fill="#F6EB3B" d="M201.2,2.45 C201.2,2.45 201.3,2.55 201.2,2.45"/><path id="Fill-168" fill="#F6EB3B" d="M201.9,2.45 C201.9,2.35 202,2.45 201.9,2.45"/><path id="Fill-169" fill="#F6EB3B" d="M198.7,2.95 C198.7,2.85 198.8,2.85 198.8,2.95 C198.8,3.15 198.8,2.95 198.7,2.95"/><path id="Fill-170" fill="#F6EB3B" d="M198.8,2.95 C198.7,3.05 198.6,2.95 198.4,3.05 C198.5,2.95 198.7,2.75 198.8,2.95"/><path id="Fill-171" fill="#F6EB3B" d="M198.8,2.45 C198.8,2.05 198.7,3.15 198.8,2.45"/><path id="Fill-172" fill="#F6EB3B" d="M198.9,2.45 C198.9,2.35 199,2.35 199,2.35 C199,2.45 199,2.45 198.9,2.45"/><path id="Fill-173" fill="#F6EB3B" d="M200,2.65 C200,2.65 200,2.55 200,2.55 C200,2.55 200.1,2.65 200,2.65"/><path id="Fill-174" fill="#F6EB3B" d="M197,2.95 C197,2.95 197,2.95 197,2.95 C197.1,2.95 197,3.05 197,2.95"/><path id="Fill-176" fill="#F6EB3B" d="M200.1,2.35 C200.3,2.25 200.3,2.65 200.2,2.75 C200.1,2.75 200.1,2.55 200.1,2.35"/><path id="Fill-177" fill="#F6EB3B" d="M200.4,2.45 C200.5,2.05 200.5,2.95 200.4,2.45"/><path id="Fill-178" fill="#F6EB3B" d="M198.5,3.05 C198.6,3.05 198.6,3.25 198.7,3.05 C198.9,3.25 198.6,3.25 198.6,3.45 C198.4,3.45 198.5,3.15 198.5,3.05"/><path id="Fill-179" fill="#F6EB3B" d="M199.1,2.95 C198.9,2.95 199.1,2.65 199,2.65 C199,2.45 199.2,2.55 199.3,2.55 C199.3,2.65 199.2,2.65 199.1,2.65 C199.1,2.75 199.1,2.85 199.1,2.95"/><path id="Fill-180" fill="#F6EB3B" d="M197.1,3.15 C197.3,2.85 197,3.45 197.1,3.15"/><path id="Fill-181" fill="#F6EB3B" d="M198.8,3.15 C198.7,3.15 198.8,3.25 198.8,3.15"/><path id="Fill-182" fill="#F6EB3B" d="M198.6,3.05 C198.6,3.25 198.6,3.35 198.5,3.45 C198.4,3.45 198.4,3.25 198.3,3.25 C198.4,3.15 198.5,3.05 198.6,3.05"/><path id="Fill-183" fill="#F6EB3B" d="M198.6,3.15 C198.6,3.05 198.6,3.15 198.6,3.15"/><path id="Fill-184" fill="#F6EB3B" d="M198.9,3.15 C198.9,3.15 198.9,3.15 198.9,3.15 C198.8,3.15 198.9,3.15 198.9,3.15 C198.9,3.25 198.9,3.35 198.8,3.35 C198.8,3.25 198.7,3.35 198.8,3.35 C198.8,3.55 198.6,3.35 198.5,3.55 C198.5,3.55 198.4,3.55 198.4,3.45 C198.4,3.45 198.4,3.35 198.4,3.35 C198.4,3.35 198.5,3.35 198.5,3.45 C198.6,3.45 198.5,3.35 198.6,3.35 C198.6,3.45 198.7,3.35 198.6,3.35 C198.6,3.35 198.6,3.25 198.6,3.25 C198.7,3.25 198.8,3.25 198.8,3.15 C198.9,3.05 199,3.05 198.9,3.15 C199,3.15 198.9,3.15 198.9,3.15"/><path id="Fill-185" fill="#F6EB3B" d="M198.4,2.75 C198.3,2.75 198.4,2.55 198.4,2.75"/><path id="Fill-186" fill="#F6EB3B" d="M198.6,2.75 C198.6,2.85 198.4,2.85 198.4,2.75 C198.5,2.65 198.5,2.55 198.6,2.75"/><path id="Fill-187" fill="#F6EB3B" d="M201.9,2.45 C202.1,2.35 202,2.55 202.2,2.55 C202.1,2.85 202,2.85 201.9,2.75 C201.9,2.65 201.9,2.65 201.9,2.45"/><path id="Fill-188" fill="#F6EB3B" d="M202.6,2.45 C202.5,2.35 202.6,2.45 202.6,2.45"/><path id="Fill-189" fill="#F6EB3B" d="M197,3.25 C197,3.25 197.1,3.15 197,3.25 C197.1,3.25 197.1,3.25 197,3.25"/><path id="Fill-190" fill="#F6EB3B" d="M198.5,3.15 C198.5,3.25 198.4,3.35 198.5,3.35 C198.5,3.65 198.3,3.05 198.3,3.55 C198.3,3.45 198.1,3.55 198.1,3.25 C198.3,3.35 198.3,3.05 198.5,3.15"/><path id="Fill-191" fill="#F6EB3B" d="M199.3,2.75 C199.2,2.75 199.3,2.55 199.3,2.75"/><path id="Fill-192" fill="#F6EB3B" d="M200.9,2.65 C200.7,3.05 200.7,2.35 200.9,2.65"/><path id="Fill-193" fill="#F6EB3B" d="M202.8,2.45 C202.7,2.85 202.6,2.15 202.8,2.45"/><path id="Fill-194" fill="#F6EB3B" d="M203.2,2.35 C203.4,2.35 203.1,2.85 203.2,2.35"/><path id="Fill-195" fill="#F6EB3B" d="M197.1,3.25 C197.1,3.35 197.1,3.45 197.1,3.55 C197,3.65 196.9,3.75 196.8,3.75 C196.9,3.45 197,3.45 197.1,3.25"/><path id="Fill-196" fill="#F6EB3B" d="M196.7,3.25 C196.7,3.25 196.7,3.25 196.7,3.25 C196.6,3.25 196.6,3.25 196.7,3.25"/><path id="Fill-197" fill="#F6EB3B" d="M196.8,3.25 C196.8,3.25 196.8,3.15 196.8,3.25 C196.8,3.25 196.8,3.35 196.8,3.25"/><path id="Fill-198" fill="#F6EB3B" d="M197.3,3.25 C197.3,2.85 197.3,3.65 197.3,3.25"/><path id="Fill-199" fill="#F6EB3B" d="M198.7,3.35 C198.6,3.65 198.6,3.05 198.7,3.35"/><path id="Fill-200" fill="#F6EB3B" d="M198,3.35 C198,3.25 198.1,3.25 198.1,3.25 C198.1,3.25 198,3.25 198,3.35"/><path id="Fill-201" fill="#F6EB3B" d="M199.1,2.85 C199.2,2.85 199.2,2.75 199.3,2.85 C199.3,2.95 199.1,2.95 199.1,2.85"/><path id="Fill-202" fill="#F6EB3B" d="M200.4,2.75 C200.4,2.65 200.5,2.65 200.5,2.75 C200.5,2.95 200.5,2.75 200.4,2.75"/><path id="Fill-203" fill="#F6EB3B" d="M200.7,2.65 C200.7,2.55 200.8,2.75 200.7,2.65"/><path id="Fill-204" fill="#F6EB3B" d="M200.8,2.65 C200.8,2.55 200.9,2.55 200.9,2.55 C200.9,2.65 200.9,2.65 200.8,2.65"/><path id="Fill-205" fill="#F6EB3B" d="M201.7,2.55 C201.7,2.55 201.7,2.65 201.7,2.55"/><path id="Fill-206" fill="#F6EB3B" d="M196.7,3.35 C196.7,3.25 196.8,3.25 196.7,3.35 C196.8,3.35 196.8,3.35 196.7,3.35"/><path id="Fill-207" fill="#F6EB3B" d="M197.4,3.25 C197.4,3.25 197.5,3.35 197.4,3.25"/><path id="Fill-208" fill="#F6EB3B" d="M197.8,3.45 C197.8,3.35 197.9,3.35 197.9,3.35 C197.9,3.45 197.8,3.45 197.8,3.45"/><path id="Fill-209" fill="#F6EB3B" d="M198.1,3.35 C198.1,3.35 198.1,3.35 198.1,3.35 C198,3.45 198,3.35 198.1,3.35"/><path id="Fill-210" fill="#F6EB3B" d="M198.4,3.35 C198.5,3.25 198.4,3.45 198.4,3.35"/><path id="Fill-211" fill="#F6EB3B" d="M197.8,3.35 C197.8,3.35 197.8,3.45 197.8,3.35"/><path id="Fill-212" fill="#F6EB3B" d="M198.5,2.95 C198.5,2.75 198.6,2.85 198.5,2.95"/><path id="Fill-213" fill="#F6EB3B" d="M198.6,2.95 C198.6,2.85 198.7,2.85 198.7,2.95 C198.7,3.05 198.7,2.95 198.6,2.95"/><path id="Fill-214" fill="#F6EB3B" d="M198.9,2.85 C199.2,2.75 198.9,3.15 198.9,2.85"/><path id="Fill-215" fill="#F6EB3B" d="M199.8,2.85 C199.8,2.75 199.8,2.95 199.8,2.85"/><path id="Fill-216" fill="#F6EB3B" d="M201.4,2.75 C201.4,2.75 201.5,2.85 201.4,2.75"/><path id="Fill-217" fill="#F6EB3B" d="M202.2,2.75 C202.2,2.65 202.2,2.75 202.2,2.75"/><path id="Fill-218" fill="#F6EB3B" d="M198.1,3.35 C198.1,3.35 198.1,3.35 198.1,3.35 C198.2,3.45 198.2,3.45 198.2,3.55 C198.1,3.65 198.2,3.65 198.2,3.55 C198.3,3.35 198.3,3.55 198.4,3.55 C198.3,3.85 198.2,4.05 198.1,3.75 C198,3.65 198,3.55 198.1,3.35"/><path id="Fill-219" fill="#F6EB3B" d="M198.5,2.95 C198.5,3.05 198.4,2.95 198.5,2.95"/><path id="Fill-220" fill="#F6EB3B" d="M200.6,2.95 C200.7,2.75 201.1,2.75 201.1,3.15 C201,2.95 200.8,2.95 200.6,2.95"/><path id="Fill-221" fill="#F6EB3B" d="M198,3.55 C197.9,3.45 198,3.55 198,3.55"/><path id="Fill-222" fill="#F6EB3B" d="M198.3,3.55 C198.5,3.25 198.2,3.85 198.3,3.55"/><path id="Fill-223" fill="#F6EB3B" d="M198.6,3.05 C198.6,2.95 198.6,3.15 198.6,3.05"/><path id="Fill-224" fill="#F6EB3B" d="M199,3.05 C198.9,2.95 199,3.05 199,3.05"/><path id="Fill-225" fill="#F6EB3B" d="M199.6,3.05 C199.7,3.15 199.7,3.15 199.8,2.95 C200,3.05 199.5,3.55 199.6,3.05"/><path id="Fill-226" fill="#F6EB3B" d="M200.2,2.95 C200.2,2.85 200.3,2.85 200.3,2.85 C200.3,2.95 200.2,2.95 200.2,2.95"/><path id="Fill-227" fill="#F6EB3B" d="M201.3,2.95 C201.2,2.85 201.3,2.95 201.3,2.95"/><path id="Fill-228" fill="#F6EB3B" d="M202.2,2.95 C202,3.15 201.9,2.95 201.7,3.05 C201.7,2.75 202.1,2.75 202.2,2.95"/><path id="Fill-229" fill="#F6EB3B" d="M197.7,3.65 C197.6,4.05 197.6,3.15 197.7,3.65"/><path id="Fill-230" fill="#F6EB3B" d="M197.6,3.65 C197.6,3.55 197.7,3.55 197.6,3.65"/><path id="Fill-231" fill="#F6EB3B" d="M199.3,3.05 C199.3,2.95 199.4,2.95 199.4,2.95 C199.4,3.05 199.4,3.05 199.3,3.05"/><path id="Fill-232" fill="#F6EB3B" d="M198.8,3.45 C198.8,3.45 198.8,3.55 198.8,3.45"/><path id="Fill-233" fill="#F6EB3B" d="M198.4,3.15 C198.3,3.05 198.4,3.15 198.4,3.15"/><path id="Fill-234" fill="#F6EB3B" d="M199.1,3.15 C199.1,3.05 199.2,3.05 199.3,3.05 C199.3,3.15 199.2,3.15 199.1,3.15"/><path id="Fill-235" fill="#F6EB3B" d="M201.6,2.95 C201.6,3.05 201.5,3.15 201.4,3.15 C201.4,3.05 201.5,2.95 201.4,2.95 C201.4,2.85 201.5,2.95 201.6,2.95"/><path id="Fill-236" fill="#F6EB3B" d="M201.5,2.95 C201.5,2.85 201.6,2.85 201.6,2.95 C201.6,2.95 201.6,2.95 201.5,2.95"/><path id="Fill-237" fill="#F6EB3B" d="M200.6,2.85 C200.6,2.95 200.6,2.95 200.6,3.05 C200.5,3.05 202.2,3.05 202.2,2.95 C202.2,2.85 200.6,2.85 200.6,2.85"/><path id="Fill-239" fill="#F6EB3B" d="M201.4,3.05 C201.4,2.65 201.7,3.05 201.4,3.05"/><path id="Fill-240" fill="#F6EB3B" d="M202.2,2.85 C202.2,2.85 202.2,2.95 202.2,2.85"/><path id="Fill-241" fill="#F6EB3B" d="M196.9,3.65 C196.8,3.55 196.9,3.65 196.9,3.65"/><path id="Fill-242" fill="#F6EB3B" d="M197.5,3.65 C197.5,3.65 197.5,3.55 197.5,3.65"/><path id="Fill-243" fill="#F6EB3B" d="M197.6,3.65 C197.6,3.75 197.6,3.65 197.6,3.65"/><path id="Fill-244" fill="#F6EB3B" d="M197.8,3.65 C197.9,3.35 197.9,4.05 197.8,3.65"/><path id="Fill-245" fill="#F6EB3B" d="M198.4,3.55 C198.4,3.55 198.5,3.65 198.4,3.55"/><path id="Fill-246" fill="#F6EB3B" d="M200.9,3.05 C201.1,2.85 200.7,3.45 200.9,3.05"/><path id="Fill-247" fill="#F6EB3B" d="M201.6,2.95 C201.7,2.95 201.6,3.15 201.6,2.95"/><path id="Fill-248" fill="#F6EB3B" d="M202.1,3.05 C202.1,2.95 202.2,2.95 202.2,2.95 C202.2,3.05 202.1,3.05 202.1,3.05"/><path id="Fill-249" fill="#F6EB3B" d="M197.5,3.65 C197.6,3.65 197.6,3.85 197.5,3.65"/><path id="Fill-250" fill="#F6EB3B" d="M197.7,3.75 C197.8,3.45 197.8,4.15 197.7,3.75"/><path id="Fill-251" fill="#F6EB3B" d="M197.9,3.75 C197.9,3.65 198,3.65 198.1,3.65 C198,3.75 198,3.75 197.9,3.75"/><path id="Fill-252" fill="#F6EB3B" d="M198.1,3.65 C198.1,4.05 197.9,3.65 198.1,3.65"/><path id="Fill-253" fill="#F6EB3B" d="M200.2,3.25 C200,3.35 199.7,3.35 199.6,3.35 C199.8,3.15 200.1,3.05 200.2,3.25"/><path id="Fill-254" fill="#F6EB3B" d="M201.2,3.15 C201.2,2.95 201.5,2.95 201.4,3.25 C201.4,3.25 201.2,3.15 201.2,3.15"/><path id="Fill-255" fill="#F6EB3B" d="M200.7,2.95 C200.7,2.95 200.7,3.15 200.7,2.95"/><path id="Fill-256" fill="#F6EB3B" d="M201.8,3.05 C201.8,3.05 201.8,2.85 201.8,3.05"/><path id="Fill-257" fill="#F6EB3B" d="M201.9,3.05 C201.9,2.95 201.9,3.05 201.9,3.05"/><path id="Fill-258" fill="#F6EB3B" d="M202.5,2.95 C202.4,2.95 202.5,3.05 202.5,2.95"/><path id="Fill-259" fill="#F6EB3B" d="M202.8,2.85 C202.9,2.85 202.8,3.05 202.9,3.05 C202.9,3.35 202.7,3.15 202.8,2.85"/><path id="Fill-260" fill="#F6EB3B" d="M203.3,2.95 C203.3,2.85 203.4,3.05 203.3,2.95"/><path id="Fill-261" fill="#F6EB3B" d="M197.1,3.75 C197.1,3.75 197.2,3.85 197.1,3.75"/><path id="Fill-262" fill="#F6EB3B" d="M197.3,3.85 C197.3,3.75 197.4,3.75 197.4,3.75 C197.4,3.75 197.3,3.75 197.3,3.85"/><path id="Fill-263" fill="#F6EB3B" d="M197.4,3.75 C197.5,3.45 197.3,4.45 197.4,3.75"/><path id="Fill-264" fill="#F6EB3B" d="M196.9,3.75 C196.9,3.95 196.7,3.75 196.6,3.85 C196.7,3.75 196.9,3.65 196.9,3.75"/><path id="Fill-265" fill="#F6EB3B" d="M196.8,3.75 C196.9,3.45 197.1,3.85 196.8,3.75"/><path id="Fill-266" fill="#F6EB3B" d="M197,3.75 C196.9,3.65 197,3.75 197,3.75"/><path id="Fill-267" fill="#F6EB3B" d="M196.9,3.75 C196.9,3.45 197,4.05 196.9,3.75"/><path id="Fill-268" fill="#F6EB3B" d="M197.1,3.65 C197.1,3.65 197.2,3.75 197.1,3.65"/><path id="Fill-269" fill="#F6EB3B" d="M197.6,3.75 C197.6,3.75 197.7,3.85 197.6,3.75"/><path id="Fill-270" fill="#F6EB3B" d="M200.2,3.25 C200.2,3.05 200.5,3.05 200.4,3.35 C200.4,3.35 200.3,3.35 200.3,3.35 C200.2,3.35 200.2,3.25 200.2,3.25"/><path id="Fill-271" fill="#F6EB3B" d="M200.7,3.25 C200.7,3.15 200.8,3.15 200.8,3.15 C200.8,3.25 200.7,3.25 200.7,3.25"/><path id="Fill-272" fill="#F6EB3B" d="M200.8,3.15 C200.8,2.95 201,3.05 201.1,3.05 C201.1,3.25 200.9,3.15 200.8,3.15"/><path id="Fill-273" fill="#F6EB3B" d="M201.6,3.05 C201.6,3.05 201.6,3.15 201.6,3.05"/><path id="Fill-274" fill="#F6EB3B" d="M201.8,3.05 C202,3.05 201.8,3.45 201.8,3.05"/><path id="Fill-275" fill="#F6EB3B" d="M202,3.15 C202,3.05 202.1,3.05 202.1,3.05 C202.1,3.05 202.1,3.05 202,3.15"/><path id="Fill-276" fill="#F6EB3B" d="M202.3,3.05 C202.3,2.95 202.4,2.95 202.4,2.95 C202.4,3.05 202.3,3.05 202.3,3.05"/><path id="Fill-277" fill="#F6EB3B" d="M202.6,3.05 C202.6,3.05 202.6,3.15 202.6,3.05"/><path id="Fill-278" fill="#F6EB3B" d="M197.8,3.75 C198,3.85 197.9,3.85 198.1,3.75 C198.1,4.15 197.8,4.15 197.8,3.75"/><path id="Fill-279" fill="#F6EB3B" d="M197.8,3.85 C197.8,3.75 197.9,3.75 197.9,3.85 C197.9,3.85 197.8,3.85 197.8,3.85"/><path id="Fill-280" fill="#F6EB3B" d="M200.4,3.35 C200.4,3.25 200.5,3.25 200.6,3.25 C200.6,3.35 200.5,3.35 200.4,3.35"/><path id="Fill-281" fill="#F6EB3B" d="M201.8,3.25 C201.8,3.15 201.9,3.15 201.9,3.15 C201.9,3.25 201.9,3.25 201.8,3.25"/><path id="Fill-282" fill="#F6EB3B" d="M202.3,3.25 C202.3,3.15 202.3,3.25 202.3,3.25"/><path id="Fill-283" fill="#F6EB3B" d="M201.9,3.15 C201.9,3.05 202,3.05 202,3.05 C202,3.15 201.9,3.15 201.9,3.15"/><path id="Fill-284" fill="#F6EB3B" d="M202.5,3.15 C202.5,3.05 202.6,3.15 202.5,3.15"/><path id="Fill-285" fill="#F6EB3B" d="M202.9,3.15 C202.9,3.05 203,3.05 203,3.05 C203,3.15 202.9,3.15 202.9,3.15"/><path id="Fill-286" fill="#F6EB3B" d="M199.9,3.55 C199.7,3.55 199.9,3.05 199.9,3.55"/><path id="Fill-287" fill="#F6EB3B" d="M201.6,3.25 C201.6,3.15 201.7,3.35 201.6,3.25"/><path id="Fill-288" fill="#F6EB3B" d="M202.2,3.25 C202.2,3.15 202.2,3.25 202.2,3.25"/><path id="Fill-289" fill="#F6EB3B" d="M196.4,4.15 C196.4,4.15 196.4,4.15 196.4,4.15 C196.4,4.05 196.4,3.95 196.5,3.95 C196.4,4.05 196.4,4.05 196.4,4.15"/><path id="Fill-290" fill="#F6EB3B" d="M197.1,3.95 C197.1,3.55 197.1,4.25 197.1,3.95"/><path id="Fill-291" fill="#F6EB3B" d="M198.1,3.95 C198.1,3.85 198.1,3.95 198.1,3.95"/><path id="Fill-292" fill="#F6EB3B" d="M198.5,3.95 C198.3,4.05 198.5,3.65 198.5,3.95"/><path id="Fill-293" fill="#F6EB3B" d="M200.2,3.45 C200.2,3.45 200.2,3.55 200.2,3.45"/><path id="Fill-294" fill="#F6EB3B" d="M200.9,3.45 C200.9,3.35 201,3.45 200.9,3.45"/><path id="Fill-295" fill="#F6EB3B" d="M201.5,3.45 C201.8,3.15 202,3.75 201.5,3.45"/><path id="Fill-296" fill="#F6EB3B" d="M200.4,3.45 C200.5,3.45 200.4,3.65 200.5,3.65 C200.5,3.95 200.3,3.65 200.4,3.45"/><path id="Fill-297" fill="#F6EB3B" d="M200.6,3.55 C200.6,3.45 200.6,3.45 200.6,3.55"/><path id="Fill-298" fill="#F6EB3B" d="M200.7,3.55 C200.7,3.45 200.7,3.55 200.7,3.55"/><path id="Fill-299" fill="#F6EB3B" d="M200.8,3.55 C200.8,3.35 200.9,3.45 200.8,3.55"/><path id="Fill-300" fill="#F6EB3B" d="M201.8,3.45 C201.8,3.45 201.9,3.55 201.8,3.45"/><path id="Fill-301" fill="#F6EB3B" d="M201.9,3.45 C201.9,3.45 201.9,3.55 201.9,3.45"/><path id="Fill-302" fill="#F6EB3B" d="M201.2,3.45 C201.2,3.35 201.3,3.35 201.4,3.35 C201.3,3.45 201.2,3.45 201.2,3.45"/><path id="Fill-303" fill="#F6EB3B" d="M201.3,3.35 C201.3,3.35 201.3,3.45 201.3,3.35"/><path id="Fill-304" fill="#F6EB3B" d="M175.3,4.75 C175.4,4.35 175.4,5.05 175.3,4.75"/><path id="Fill-305" fill="#F6EB3B" d="M196.4,4.05 C196.4,4.15 196.3,4.15 196.4,4.05 C196.3,4.05 196.3,4.05 196.4,4.05"/><path id="Fill-306" fill="#F6EB3B" d="M196.5,4.05 C196.7,3.95 196.5,4.25 196.5,4.05"/><path id="Fill-307" fill="#F6EB3B" d="M196.7,4.05 C196.6,4.05 196.7,4.15 196.7,4.05"/><path id="Fill-308" fill="#F6EB3B" d="M200.6,3.55 C200.6,3.75 200.8,3.65 200.9,3.55 C201,3.55 201.2,3.75 201.3,3.65 C201.3,3.95 200.3,3.95 200.6,3.55"/><path id="Fill-309" fill="#F6EB3B" d="M201.8,3.65 C201.8,3.95 201.3,3.85 201.3,3.55 C201.5,3.45 201.7,3.65 201.8,3.65"/><path id="Fill-310" fill="#F6EB3B" d="M200.9,3.65 C200.8,3.15 201.1,3.55 200.9,3.65"/><path id="Fill-311" fill="#F6EB3B" d="M201,3.45 C201,3.45 201,3.55 201,3.45"/><path id="Fill-312" fill="#F6EB3B" d="M201.5,3.35 C201.6,3.35 201.6,3.45 201.5,3.65 C202,3.65 202.2,3.65 202.5,3.65 C202.4,4.05 202.1,3.75 202,3.65 C201.7,3.45 201.2,4.15 201,3.55 C201.2,3.55 201.5,3.85 201.5,3.35"/><path id="Fill-313" fill="#F6EB3B" d="M201.7,3.65 C201.7,3.45 201.9,3.65 202,3.55 C202.2,3.55 201.6,3.75 201.9,3.95 C201.8,4.35 201.8,3.65 201.7,3.65"/><path id="Fill-314" fill="#F6EB3B" d="M202,3.65 C202,3.45 202.5,3.45 202.3,3.85 C202.2,3.65 202.1,3.85 202,3.65"/><path id="Fill-315" fill="#F6EB3B" d="M200.9,3.55 C200.9,3.95 202.3,3.75 202.3,3.75 C202.3,3.35 200.8,3.65 200.9,3.55"/><path id="Fill-316" fill="#F6EB3B" d="M203.1,3.45 C203.3,3.85 202.7,4.05 202.7,3.85 C202.6,3.15 203,4.25 203.1,3.45"/><path id="Fill-317" fill="#F6EB3B" d="M203.2,3.55 C203.2,3.45 203.3,3.45 203.4,3.45 C203.4,3.55 203.3,3.55 203.2,3.55"/><path id="Fill-318" fill="#F6EB3B" d="M198.8,4.15 C199,4.35 198.5,4.55 198.6,4.15 C198.6,4.15 198.7,4.15 198.8,4.15"/><path id="Fill-319" fill="#F6EB3B" d="M199.6,4.15 C199.6,4.15 199.7,4.25 199.6,4.15"/><path id="Fill-320" fill="#F6EB3B" d="M199.8,4.15 C199.8,4.15 199.8,4.25 199.8,4.15"/><path id="Fill-321" fill="#F6EB3B" d="M200,4.15 C199.9,4.15 200,4.25 200,4.15"/><path id="Fill-322" fill="#F6EB3B" d="M199.9,3.75 C199.9,3.75 200,3.75 200,3.75 C200,3.85 200,3.85 200,3.95 C200,3.95 199.9,3.95 199.9,3.95 C199.9,3.85 199.9,3.85 199.9,3.75"/><path id="Fill-323" fill="#F6EB3B" d="M203.5,3.75 C203.5,3.75 203.4,3.75 203.4,3.85 C203.3,3.75 203.5,3.15 203.5,3.75"/><path id="Fill-324" fill="#F6EB3B" d="M197,4.35 C196.9,4.25 197,4.35 197,4.35"/><path id="Fill-325" fill="#F6EB3B" d="M197.4,4.15 C197.3,4.55 197.2,4.15 197.1,4.35 C197.1,4.55 197.3,4.25 197.3,4.65 C197.2,4.55 197.1,4.55 197,4.35 C197,4.15 197.2,4.15 197.4,4.15"/><path id="Fill-326" fill="#F6EB3B" d="M198.7,4.35 C198.7,4.25 198.7,4.25 198.7,4.35 C198.7,4.35 198.7,4.35 198.7,4.35"/><path id="Fill-327" fill="#F6EB3B" d="M198,4.35 C198.2,4.25 197.5,4.35 198,4.35"/><path id="Fill-328" fill="#F6EB3B" d="M200,4.25 C200,4.15 200.1,4.25 200,4.25"/><path id="Fill-329" fill="#F6EB3B" d="M200.4,3.95 C200.5,3.45 200.5,4.25 200.4,3.95"/><path id="Fill-330" fill="#F6EB3B" d="M197.7,4.35 C197.7,4.35 197.7,4.35 197.7,4.35 C197.6,4.45 197.6,4.35 197.7,4.35"/><path id="Fill-331" fill="#F6EB3B" d="M196.9,4.35 C196.9,4.55 196.7,4.25 196.9,4.35"/><path id="Fill-332" fill="#F6EB3B" d="M196.7,4.45 C196.8,4.35 197,4.15 197.1,4.45 C197,4.65 196.8,4.55 196.7,4.45"/><path id="Fill-333" fill="#F6EB3B" d="M197.4,4.35 C197.4,4.25 197.5,4.35 197.4,4.35"/><path id="Fill-334" fill="#F6EB3B" d="M198.6,4.35 C198.6,4.35 198.7,4.35 198.6,4.35 C198.7,4.35 198.6,4.45 198.6,4.35"/><path id="Fill-335" fill="#F6EB3B" d="M198.7,4.35 C198.8,4.35 198.7,4.45 198.7,4.35"/><path id="Fill-336" fill="#F6EB3B" d="M199.2,4.35 C199.3,3.95 199.3,4.75 199.2,4.35"/><path id="Fill-337" fill="#F6EB3B" d="M200.4,4.25 C200.4,4.25 200.5,4.35 200.4,4.25"/><path id="Fill-338" fill="#F6EB3B" d="M200.6,4.25 C200.6,4.15 200.7,4.15 200.7,4.15 C200.7,4.25 200.6,4.25 200.6,4.25"/><path id="Fill-340" fill="#F6EB3B" d="M203.2,3.75 C203.2,3.65 203.3,3.65 203.4,3.65 C203.4,3.75 203.3,3.75 203.2,3.75"/><path id="Fill-341" fill="#F6EB3B" d="M203.5,3.75 C203.5,3.75 203.5,3.65 203.5,3.65 C203.6,3.65 203.6,3.75 203.7,3.85 C203.6,3.85 203.5,3.75 203.5,3.75"/><path id="Fill-342" fill="#F6EB3B" d="M197.8,4.35 C197.8,4.35 197.9,4.35 197.9,4.35 C197.8,4.65 197.5,4.85 197.4,4.55 C197.4,4.35 197.8,4.65 197.8,4.35"/><path id="Fill-343" fill="#F6EB3B" d="M196.7,4.35 C196.7,4.65 196.5,4.35 196.7,4.35"/><path id="Fill-344" fill="#F6EB3B" d="M196.7,4.45 C196.4,4.55 196.6,4.15 196.7,4.45"/><path id="Fill-345" fill="#F6EB3B" d="M198,4.45 C198,4.75 197.9,4.65 197.9,4.45 C197.9,4.45 198,4.45 198,4.45"/><path id="Fill-346" fill="#F6EB3B" d="M198.6,4.45 C198.6,4.65 198.3,4.55 198.2,4.55 C198.2,4.35 198.5,4.35 198.6,4.45"/><path id="Fill-347" fill="#F6EB3B" d="M198.5,4.45 C198.5,4.35 198.6,4.45 198.5,4.45"/><path id="Fill-348" fill="#F6EB3B" d="M198.6,4.45 C198.6,4.25 198.8,4.35 198.9,4.35 C198.8,4.55 198.7,4.35 198.6,4.45"/><path id="Fill-349" fill="#F6EB3B" d="M199,4.45 C199,4.35 199,4.35 199,4.45 C199.1,4.45 199,4.35 199,4.45"/><path id="Fill-350" fill="#F6EB3B" d="M199.1,4.35 C199.1,4.35 199.2,4.45 199.1,4.35"/><path id="Fill-351" fill="#F6EB3B" d="M199.4,4.35 C199.4,4.05 199.4,4.75 199.4,4.35"/><path id="Fill-352" fill="#F6EB3B" d="M199.9,4.35 C199.9,4.35 200,4.35 199.9,4.35"/><path id="Fill-353" fill="#F6EB3B" d="M202.1,4.25 C202.1,4.15 202.1,4.25 202.1,4.25"/><path id="Fill-354" fill="#F6EB3B" d="M203.4,3.75 C203.4,3.75 203.5,3.75 203.4,3.75 C203.5,3.75 203.4,3.85 203.4,3.75"/><path id="Fill-355" fill="#F6EB3B" d="M196.9,4.55 C197.2,4.25 197.3,4.85 196.9,4.55"/><path id="Fill-356" fill="#F6EB3B" d="M196.7,4.45 C196.7,4.45 196.8,4.45 196.8,4.45 C196.8,4.55 196.7,4.55 196.7,4.45"/><path id="Fill-357" fill="#F6EB3B" d="M197.4,4.45 C197.5,4.25 197.3,4.75 197.4,4.45"/><path id="Fill-358" fill="#F6EB3B" d="M198.1,4.55 C198.1,4.45 198.2,4.45 198.1,4.55 C198.2,4.55 198.2,4.45 198.1,4.55"/><path id="Fill-359" fill="#F6EB3B" d="M200.1,4.45 C200.2,4.15 200.4,4.55 200.1,4.45"/><path id="Fill-360" fill="#F6EB3B" d="M200.3,4.35 C200.4,4.45 200.3,4.85 200.2,4.75 C200.2,4.55 200.3,4.55 200.3,4.35"/><path id="Fill-361" fill="#F6EB3B" d="M200.7,4.35 C200.7,4.35 200.8,4.45 200.7,4.35"/><path id="Fill-362" fill="#F6EB3B" d="M203.6,3.75 C203.6,3.75 203.6,3.95 203.6,3.75"/><path id="Fill-363" fill="#F6EB3B" d="M196.8,4.75 C196.8,4.75 196.7,4.75 196.6,4.75 C196.6,4.45 196.8,4.55 197,4.45 C197,4.75 196.8,4.55 196.8,4.75"/><path id="Fill-364" fill="#F6EB3B" d="M197.2,4.55 C197.2,4.45 197.3,4.55 197.2,4.55"/><path id="Fill-365" fill="#F6EB3B" d="M197.9,4.65 C197.9,4.55 197.9,4.55 197.9,4.65 C197.9,4.65 197.9,4.65 197.9,4.65"/><path id="Fill-366" fill="#F6EB3B" d="M199.5,4.45 C199.5,4.45 199.6,4.55 199.5,4.45"/><path id="Fill-367" fill="#F6EB3B" d="M202.1,4.35 C202.2,3.95 202.1,4.85 202.1,4.35"/><path id="Fill-368" fill="#F6EB3B" d="M197.9,4.55 C198,4.65 197.9,4.75 197.9,4.95 C197.8,4.95 197.8,4.85 197.8,4.75 C197.8,4.75 197.8,4.75 197.8,4.85 C197.5,4.65 197.9,4.75 197.9,4.55"/><path id="Fill-369" fill="#F6EB3B" d="M198.6,4.55 C198.4,4.85 198.1,4.45 198.6,4.55"/><path id="Fill-370" fill="#F6EB3B" d="M198.7,4.55 C198.8,4.75 198.8,4.45 199,4.55 C199,4.65 198.7,4.95 198.7,4.55"/><path id="Fill-371" fill="#F6EB3B" d="M199.4,4.55 C199.4,4.55 199.4,4.65 199.4,4.55"/><path id="Fill-372" fill="#F6EB3B" d="M202.2,4.45 C202.1,4.75 202,4.15 202.2,4.45"/><path id="Fill-373" fill="#F6EB3B" d="M202.2,4.45 C202.2,4.35 202.3,4.45 202.2,4.45"/><path id="Fill-374" fill="#F6EB3B" d="M202.3,4.45 C202.3,4.35 202.4,4.45 202.3,4.45"/><path id="Fill-375" fill="#F6EB3B" d="M201.2,4.45 C201.1,4.45 201.1,4.55 201,4.55 C201.1,4.45 201.1,4.35 201.2,4.45 C201.2,4.35 201.2,4.35 201.2,4.45"/><path id="Fill-376" fill="#F6EB3B" d="M201.6,4.45 C201.5,4.45 201.4,4.45 201.4,4.25 C201.4,4.25 201.5,4.25 201.5,4.25 C201.6,4.35 201.6,4.45 201.6,4.45 C201.6,4.45 201.6,4.45 201.6,4.45"/><path id="Fill-377" fill="#F6EB3B" d="M201.6,4.35 C201.9,4.35 201.6,4.85 201.6,4.35"/><path id="Fill-378" fill="#F6EB3B" d="M202,4.55 C202.1,4.55 202.1,4.35 202.1,4.25 C202.2,4.25 202.2,4.45 202.2,4.45 C202.1,4.55 202.1,4.65 202,4.55 C202,4.65 202,4.65 202,4.55"/><path id="Fill-379" fill="#F6EB3B" d="M200.1,4.65 C200.1,4.35 200.3,4.75 200.1,4.65"/><path id="Fill-380" fill="#F6EB3B" d="M201.1,4.45 C201.1,4.75 202.5,4.45 202.4,4.45 C202.4,4.25 201,4.45 201.1,4.45"/><path id="Fill-381" fill="#F6EB3B" d="M201.2,4.35 C201.3,4.45 201.6,4.15 201.6,4.55 C201.4,4.35 201.2,4.95 201.2,4.35"/><path id="Fill-382" fill="#F6EB3B" d="M201.8,4.45 C201.8,4.35 201.9,4.35 201.8,4.45"/><path id="Fill-383" fill="#F6EB3B" d="M202.2,4.55 C202.2,4.15 202.4,4.45 202.2,4.55"/><path id="Fill-384" fill="#F6EB3B" d="M202.7,4.35 C202.8,4.45 202.7,4.55 202.7,4.65 C202.6,4.55 202.7,4.45 202.7,4.35"/><path id="Fill-385" fill="#F6EB3B" d="M202.8,4.45 C202.8,4.35 202.9,4.35 202.9,4.35 C202.9,4.45 202.8,4.35 202.8,4.45"/><path id="Fill-386" fill="#F6EB3B" d="M197.2,4.95 C197.2,4.85 197.2,4.85 197.2,4.75 C197.3,4.75 197.3,4.75 197.4,4.75 C197.4,4.85 197.3,4.85 197.4,5.05 C197.3,5.05 197.3,4.95 197.2,4.95"/><path id="Fill-387" fill="#F6EB3B" d="M197.4,4.85 C197.4,4.75 197.5,4.75 197.5,4.75 C197.5,4.85 197.4,4.85 197.4,4.85"/><path id="Fill-388" fill="#F6EB3B" d="M197.6,4.75 C197.6,4.75 197.6,4.85 197.6,4.75"/><path id="Fill-389" fill="#F6EB3B" d="M196.7,4.65 C196.8,4.65 196.9,4.65 196.9,4.85 C196.8,4.85 196.8,4.85 196.7,4.85 C196.7,4.85 196.7,4.75 196.7,4.65"/><path id="Fill-390" fill="#F6EB3B" d="M196.9,4.75 C196.9,4.75 196.9,4.85 196.9,4.75"/><path id="Fill-391" fill="#F6EB3B" d="M200.7,4.65 C200.7,4.55 200.7,4.55 200.7,4.65 C200.8,4.65 200.7,4.65 200.7,4.65"/><path id="Fill-392" fill="#F6EB3B" d="M201.4,4.55 C201.4,4.65 201.2,4.65 201.1,4.75 C201.1,4.55 201.2,4.55 201.4,4.55"/><path id="Fill-393" fill="#F6EB3B" d="M201.8,4.55 C202,4.25 201.9,4.95 201.8,4.55"/><path id="Fill-394" fill="#F6EB3B" d="M201.6,4.45 C201.6,4.45 201.6,4.55 201.6,4.45"/><path id="Fill-395" fill="#F6EB3B" d="M201.8,4.55 C201.8,4.45 201.8,4.45 201.8,4.55 C201.8,4.45 201.8,4.55 201.8,4.55"/><path id="Fill-396" fill="#F6EB3B" d="M202,4.45 C201.9,4.55 202,4.35 202,4.45"/><path id="Fill-397" fill="#F6EB3B" d="M201.4,4.55 C201.5,4.45 201.4,4.65 201.4,4.55"/><path id="Fill-398" fill="#F6EB3B" d="M201.8,4.45 C201.8,4.65 201.7,4.55 201.8,4.45"/><path id="Fill-399" fill="#F6EB3B" d="M202.3,4.45 C202.3,4.55 202.2,4.55 202.3,4.45"/><path id="Fill-400" fill="#F6EB3B" d="M202.5,4.55 C202.5,4.45 202.6,4.55 202.5,4.55"/><path id="Fill-401" fill="#F6EB3B" d="M201.9,4.75 C201.9,4.35 201.9,5.05 201.9,4.75"/><path id="Fill-402" fill="#F6EB3B" d="M202.2,4.65 C202.3,4.35 202.3,5.05 202.2,4.65"/><path id="Fill-403" fill="#F6EB3B" d="M203.4,4.75 C203.4,4.65 203.5,4.75 203.4,4.75"/><path id="Fill-404" fill="#F6EB3B" d="M203.1,4.85 C203,4.75 203.1,4.85 203.1,4.85"/><path id="Fill-405" fill="#F6EB3B" d="M203.3,4.85 C203.3,4.75 203.3,4.75 203.3,4.85 C203.4,4.85 203.3,4.85 203.3,4.85"/><path id="Fill-406" fill="#F6EB3B" d="M199.6,5.15 C199.7,4.75 199.7,5.55 199.6,5.15"/><path id="Fill-407" fill="#F6EB3B" d="M199.7,5.15 C199.8,4.75 199.8,5.55 199.7,5.15"/><path id="Fill-408" fill="#F6EB3B" d="M199.4,5.25 C199.4,5.15 199.4,5.25 199.4,5.25"/><path id="Fill-409" fill="#F6EB3B" d="M199.8,5.25 C199.8,5.15 199.9,5.15 200,5.15 C200,5.25 199.9,5.25 199.8,5.25"/><path id="Fill-410" fill="#F6EB3B" d="M200.1,5.15 C200.1,5.15 200.1,5.25 200.1,5.15"/><path id="Fill-411" fill="#F6EB3B" d="M200.8,5.15 C200.7,5.15 200.8,5.25 200.8,5.15"/><path id="Fill-412" fill="#F6EB3B" d="M202,4.85 C202.2,5.05 202.3,4.75 202.5,4.85 C202.5,5.05 202.3,4.95 202.4,5.05 C202.4,5.05 202,5.25 202,4.85"/><path id="Fill-413" fill="#F6EB3B" d="M202.5,4.95 C202.5,4.85 202.6,4.95 202.5,4.95"/><path id="Fill-414" fill="#F6EB3B" d="M201.7,5.15 C201.8,4.85 201.8,5.55 201.7,5.15"/><path id="Fill-415" fill="#F6EB3B" d="M201.4,5.05 C201.4,5.05 201.5,5.05 201.5,5.05 C201.5,5.15 201.5,5.15 201.5,5.25 C201.5,5.25 201.4,5.25 201.4,5.25 C201.4,5.15 201.4,5.05 201.4,5.05"/><path id="Fill-416" fill="#F6EB3B" d="M198.5,5.35 C198.5,5.15 198.8,5.25 198.9,5.25 C198.8,5.45 198.6,5.25 198.5,5.35"/><path id="Fill-417" fill="#F6EB3B" d="M199.4,5.25 C199.3,5.25 199.3,5.15 199.4,5.25"/><path id="Fill-418" fill="#F6EB3B" d="M201.5,5.25 C201.5,5.15 201.6,5.25 201.5,5.25"/><path id="Fill-419" fill="#F6EB3B" d="M202.6,5.15 C202.6,5.15 202.7,5.25 202.6,5.15"/><path id="Fill-420" fill="#F6EB3B" d="M197.7,5.55 C197.7,5.25 197.9,5.45 198,5.35 C198,5.75 197.8,5.25 197.7,5.55"/><path id="Fill-421" fill="#F6EB3B" d="M199,5.35 C199,5.25 199.1,5.25 199,5.35 C199.1,5.35 199.1,5.35 199,5.35"/><path id="Fill-422" fill="#F6EB3B" d="M199.3,5.25 C199.4,5.25 199.4,5.25 199.3,5.25 C199.4,5.35 199.3,5.35 199.3,5.25"/><path id="Fill-423" fill="#F6EB3B" d="M202.1,5.25 C201.9,5.35 202,4.95 202.1,5.25"/><path id="Fill-424" fill="#F6EB3B" d="M199,5.45 C198.9,5.35 199,5.45 199,5.45"/><path id="Fill-425" fill="#F6EB3B" d="M199.4,5.35 C199.8,5.15 199.5,5.65 199.4,5.35"/><path id="Fill-426" fill="#F6EB3B" d="M200,5.35 C200,5.35 200.1,5.25 200,5.35 C200.1,5.35 200.1,5.35 200,5.35"/><path id="Fill-427" fill="#F6EB3B" d="M200.1,5.35 C200.2,5.25 200.4,5.45 200.6,5.35 C200.6,5.45 200.5,5.45 200.5,5.65 C200.4,5.25 200.1,5.75 200.1,5.35"/><path id="Fill-428" fill="#F6EB3B" d="M200.8,5.35 C200.8,5.25 200.9,5.25 200.8,5.35"/><path id="Fill-429" fill="#F6EB3B" d="M200.3,5.15 C200.3,5.25 200.3,5.25 200.3,5.15 C200.3,5.25 200.3,5.25 200.3,5.15"/><path id="Fill-430" fill="#F6EB3B" d="M202.4,5.25 C202.4,5.15 202.5,5.15 202.5,5.15 C202.5,5.25 202.5,5.25 202.4,5.25"/><path id="Fill-431" fill="#F6EB3B" d="M198.3,5.45 C198.3,5.45 198.4,5.55 198.3,5.45"/><path id="Fill-432" fill="#F6EB3B" d="M198.4,5.45 C198.4,5.45 198.4,5.55 198.4,5.45"/><path id="Fill-433" fill="#F6EB3B" d="M199.7,5.45 C199.7,5.35 199.7,5.45 199.7,5.45"/><path id="Fill-434" fill="#F6EB3B" d="M199.7,5.45 C199.7,5.35 199.8,5.35 199.8,5.35 C199.8,5.45 199.8,5.45 199.7,5.45"/><path id="Fill-435" fill="#F6EB3B" d="M200.2,5.35 C200.1,5.45 199.9,5.55 199.9,5.45 C199.9,5.25 200.1,5.45 200.2,5.35"/><path id="Fill-436" fill="#F6EB3B" d="M200.5,5.35 C200.4,5.35 200.5,5.45 200.5,5.35"/><path id="Fill-437" fill="#F6EB3B" d="M200.3,5.25 C200.5,5.15 200.3,5.55 200.3,5.25"/><path id="Fill-438" fill="#F6EB3B" d="M199.4,5.45 C199.4,5.35 199.4,5.45 199.4,5.45"/><path id="Fill-439" fill="#F6EB3B" d="M201.6,5.25 C201.7,5.25 201.7,5.45 201.8,5.45 C201.7,5.65 201.5,5.45 201.6,5.25"/><path id="Fill-440" fill="#F6EB3B" d="M195.8,6.15 C195.7,6.25 197.1,5.75 197.2,6.05 L195.8,6.15"/><path id="Fill-441" fill="#F6EB3B" d="M199,5.65 C199,5.55 199.1,5.55 199.1,5.55 C199.2,5.65 199.1,5.65 199,5.65"/><path id="Fill-442" fill="#F6EB3B" d="M200.4,5.55 C200.4,5.45 200.4,5.55 200.4,5.55"/><path id="Fill-443" fill="#F6EB3B" d="M201.2,5.45 C201.1,5.35 201.2,5.45 201.2,5.45"/><path id="Fill-444" fill="#F6EB3B" d="M201.9,5.45 C201.9,5.45 201.9,5.55 201.9,5.45"/><path id="Fill-445" fill="#F6EB3B" d="M202,5.45 C202,5.35 202,5.35 202.1,5.35 C202.1,5.45 202,5.45 202,5.45"/><path id="Fill-446" fill="#F6EB3B" d="M175.1,6.45 C175.1,6.45 175.2,6.55 175.1,6.45"/><path id="Fill-447" fill="#F6EB3B" d="M200.3,5.55 C200.3,5.55 200.3,5.65 200.3,5.55"/><path id="Fill-448" fill="#F6EB3B" d="M201.1,5.55 C201.1,5.55 201.1,5.65 201.1,5.55"/><path id="Fill-449" fill="#F6EB3B" d="M199.9,5.65 C199.9,5.35 200.1,5.65 200.1,5.95 C200,5.95 200,5.65 199.9,5.65"/><path id="Fill-450" fill="#F6EB3B" d="M200.7,5.65 C200.7,5.25 200.7,6.05 200.7,5.65"/><path id="Fill-451" fill="#F6EB3B" d="M200.7,5.65 C200.7,5.55 200.8,5.55 200.8,5.55 C200.8,5.65 200.8,5.65 200.7,5.65"/><path id="Fill-452" fill="#F6EB3B" d="M200.2,5.75 C200,5.85 200.2,5.45 200.2,5.75"/><path id="Fill-453" fill="#F6EB3B" d="M200.1,5.75 C200.2,5.75 200.2,5.55 200.3,5.75 C200.3,5.85 200.1,6.15 200.1,5.75"/><path id="Fill-454" fill="#F6EB3B" d="M175.2,6.65 C175.2,6.65 175.3,6.65 175.4,6.65 C175.5,6.95 175.2,6.75 175.3,7.05 C175.1,6.95 175.2,6.75 175.2,6.65"/><path id="Fill-455" fill="#F6EB3B" d="M200.5,5.75 C200.5,5.95 200.4,5.95 200.3,5.95 C200.3,5.65 200.4,5.75 200.5,5.75"/><path id="Fill-456" fill="#F6EB3B" d="M200.5,5.75 C200.6,5.75 200.7,5.75 200.6,5.95 C200.6,5.95 200.5,5.95 200.5,5.95 C200.5,5.85 200.5,5.75 200.5,5.75"/><path id="Fill-457" fill="#F6EB3B" d="M200.8,5.75 C200.7,5.75 200.7,5.65 200.8,5.75"/><path id="Fill-458" fill="#F6EB3B" d="M201.3,5.85 C201,5.95 201.2,5.45 201.3,5.85"/><path id="Fill-459" fill="#F6EB3B" d="M200.8,5.75 C200.8,5.75 200.8,5.85 200.8,5.75"/><path id="Fill-460" fill="#F6EB3B" d="M200.9,5.85 C200.9,5.75 201,5.75 201,5.75 C201,5.85 200.9,5.85 200.9,5.85"/><path id="Fill-461" fill="#F6EB3B" d="M201,5.85 C201,5.75 201.1,5.75 201.1,5.75 C201.1,5.85 201,5.85 201,5.85"/><path id="Fill-462" fill="#F6EB3B" d="M201.3,5.75 C201.2,5.75 201.3,5.85 201.3,5.75"/><path id="Fill-463" fill="#F6EB3B" d="M198.3,6.05 C198.3,5.95 198.4,5.95 198.4,6.05 C198.4,6.05 198.4,6.05 198.3,6.05"/><path id="Fill-464" fill="#F6EB3B" d="M201.8,5.85 C201.8,5.75 201.9,5.75 201.9,5.85 C201.9,5.95 201.9,5.85 201.8,5.85"/><path id="Fill-465" fill="#F6EB3B" d="M199.1,6.15 C199.1,6.05 199.1,6.15 199.1,6.15"/><path id="Fill-466" fill="#F6EB3B" d="M199.3,6.05 C199.3,6.05 199.4,6.15 199.3,6.05"/><path id="Fill-467" fill="#F6EB3B" d="M199.9,5.95 C199.9,5.95 200,6.05 199.9,5.95"/><path id="Fill-468" fill="#F6EB3B" d="M200.5,6.15 C200.5,6.35 200.3,6.15 200.2,6.25 C200.3,5.95 200.3,6.25 200.5,6.15"/><path id="Fill-469" fill="#F6EB3B" d="M200.5,6.15 C200.5,6.05 200.6,6.15 200.5,6.15"/><path id="Fill-470" fill="#F6EB3B" d="M200.2,6.35 C200.1,6.35 200.2,6.45 200.2,6.35"/><path id="Fill-471" fill="#F6EB3B" d="M200.2,6.35 C200.2,6.35 200.3,6.45 200.2,6.35"/><path id="Fill-472" fill="#F6EB3B" d="M200.7,6.25 C200.7,6.25 200.8,6.25 200.8,6.25 C200.8,6.45 200.7,6.45 200.7,6.45 C200.6,6.35 200.7,6.35 200.7,6.25"/><path id="Fill-473" fill="#F6EB3B" d="M200.8,6.25 C200.8,6.15 200.9,6.15 200.9,6.15 C200.9,6.25 200.8,6.25 200.8,6.25"/><path id="Fill-474" fill="#F6EB3B" d="M201.6,6.25 C201.5,6.25 201.6,6.15 201.6,6.25"/><path id="Fill-475" fill="#F6EB3B" d="M201.6,6.25 C201.7,6.25 201.6,6.35 201.6,6.25"/><path id="Fill-476" fill="#F6EB3B" d="M200.5,6.45 C200.5,6.35 200.5,6.45 200.5,6.45"/><path id="Fill-477" fill="#F6EB3B" d="M199.5,6.65 C199.4,6.15 199.7,6.75 199.5,6.65"/><path id="Fill-478" fill="#F6EB3B" d="M199.6,6.65 C199.6,6.55 199.7,6.55 199.7,6.55 C199.7,6.65 199.6,6.55 199.6,6.65"/><path id="Fill-479" fill="#F6EB3B" d="M199.7,6.65 C199.7,6.65 199.8,6.65 199.7,6.65 C199.8,6.75 199.8,6.75 199.8,6.85 C199.8,6.85 199.7,6.85 199.7,6.85 C199.7,6.75 199.7,6.75 199.7,6.65"/><path id="Fill-480" fill="#F6EB3B" d="M200.8,6.65 C200.8,6.65 200.8,6.75 200.8,6.65"/><path id="Fill-481" fill="#F6EB3B" d="M201.1,6.65 C201.2,6.35 201.2,6.95 201.4,6.75 C201.4,6.95 201.2,6.85 201.1,6.85 C201,6.75 201.1,6.75 201.1,6.65 C201.1,6.65 201.1,6.65 201.1,6.65"/><path id="Fill-482" fill="#F6EB3B" d="M201.3,6.55 C201.5,6.55 201.6,6.65 201.7,6.55 C201.9,6.65 201.7,6.75 201.7,6.95 C201.6,6.85 201.5,6.85 201.3,6.85 C201.3,6.75 201.3,6.65 201.3,6.55"/><path id="Fill-483" fill="#F6EB3B" d="M199.5,6.85 C199.5,6.75 199.6,6.75 199.6,6.75 C199.7,6.75 199.6,6.75 199.5,6.85"/><path id="Fill-484" fill="#F6EB3B" d="M199.9,6.75 C199.9,6.65 200,6.65 200,6.65 C200,6.75 199.9,6.75 199.9,6.75"/><path id="Fill-485" fill="#F6EB3B" d="M200.2,6.75 C200.2,6.75 200.2,6.85 200.2,6.75"/><path id="Fill-486" fill="#F6EB3B" d="M200.4,6.75 C200.4,6.65 200.4,6.75 200.4,6.75"/><path id="Fill-487" fill="#F6EB3B" d="M197.7,6.95 C197.8,6.95 197.7,7.15 197.8,7.25 C197.6,7.15 197.7,7.25 197.5,7.15 C197.5,6.95 197.8,7.25 197.7,6.95"/><path id="Fill-488" fill="#F6EB3B" d="M198.2,7.15 C197.6,7.45 197.4,7.15 196.7,7.25 C197.2,6.85 197.8,7.05 198.2,7.15 C198.2,7.05 198.2,7.15 198.2,7.15"/><path id="Fill-489" fill="#F6EB3B" d="M200.6,6.75 C200.5,6.75 200.6,6.85 200.6,6.75"/><path id="Fill-490" fill="#F6EB3B" d="M200.9,6.75 C200.8,6.75 200.9,6.85 200.9,6.75"/><path id="Fill-491" fill="#F6EB3B" d="M201.6,6.75 C201.6,6.85 201.5,6.75 201.6,6.75"/><path id="Fill-492" fill="#F6EB3B" d="M198.4,7.05 C198.4,7.05 198.4,7.15 198.4,7.05"/><path id="Fill-493" fill="#F6EB3B" d="M200.1,7.15 C199.6,7.35 199.1,7.15 198.5,7.15 C199,6.95 199.5,6.95 200.1,7.15"/><path id="Fill-494" fill="#F6EB3B" d="M198.2,7.15 C198.6,6.95 198.4,7.35 198.2,7.15"/><path id="Fill-495" fill="#F6EB3B" d="M200.1,7.15 C200.2,7.05 200.3,6.95 200.3,7.05 C200.3,7.25 200.2,7.35 200.1,7.15"/><path id="Fill-496" fill="#F6EB3B" d="M201.3,7.15 C201.3,7.05 201.4,7.15 201.3,7.15"/><path id="Fill-497" fill="#F6EB3B" d="M199.7,0.55 C199.7,0.45 199.8,0.45 199.8,0.45 C199.8,0.55 199.7,0.55 199.7,0.55"/><path id="Fill-498" fill="#F6EB3B" d="M199.8,0.55 C199.8,0.45 199.9,0.45 199.9,0.45 C199.9,0.55 199.9,0.55 199.8,0.55"/><path id="Fill-501" fill="#F6EB3B" d="M199.3,0.55 C199.2,0.55 199.2,0.45 199.3,0.55"/><path id="Fill-503" fill="#F6EB3B" d="M197,7.55 C197,7.45 197,7.45 197,7.55 C197.1,7.55 197,7.55 197,7.55"/><path id="Fill-504" fill="#F6EB3B" d="M198.4,1.15 C198.5,1.45 199.2,1.45 199.2,1.35 C199.2,0.85 198.4,1.55 198.4,1.15"/><path id="Fill-505" fill="#F6EB3B" d="M199.4,0.55 C199.4,0.55 199.4,0.65 199.4,0.55"/><path id="Fill-506" fill="#F6EB3B" d="M196.2,7.45 C196.4,7.35 196.2,7.85 196.2,7.45"/><path id="Fill-507" fill="#F6EB3B" d="M196,7.55 C196.1,7.55 196.1,7.65 196.2,7.65 C196.2,7.85 196,7.65 196,7.55 C196,7.55 196,7.55 196,7.55"/><path id="Fill-508" fill="#F6EB3B" d="M196.9,7.55 C196.9,7.15 196.9,7.95 196.9,7.55"/><path id="Fill-509" fill="#F6EB3B" d="M196.5,7.55 C196.5,7.55 196.6,7.55 196.6,7.55 C196.6,7.65 196.6,7.65 196.6,7.75 C196.6,7.75 196.5,7.75 196.5,7.75 C196.6,7.65 196.6,7.65 196.5,7.55"/><path id="Fill-510" fill="#F6EB3B" d="M199.3,0.85 C199.4,0.45 199.4,1.25 199.3,0.85"/><path id="Fill-511" fill="#F6EB3B" d="M196.5,7.75 C196.5,7.35 196.5,8.05 196.5,7.75"/><path id="Fill-512" fill="#F6EB3B" d="M196.7,7.65 C196.6,7.65 196.7,7.75 196.7,7.65"/><path id="Fill-513" fill="#F6EB3B" d="M197,7.75 C196.9,7.75 197,7.85 197,7.75"/><path id="Fill-514" fill="#F6EB3B" d="M199.7,0.85 C199.7,0.55 199.9,0.95 199.7,0.85"/><path id="Fill-515" fill="#F6EB3B" d="M199.9,0.85 C199.9,0.75 199.9,0.85 199.9,0.85"/><path id="Fill-516" fill="#F6EB3B" d="M196.2,7.85 C196.2,7.75 196.4,7.75 196.5,7.65 C196.4,7.95 196.2,7.95 196.2,7.85"/><path id="Fill-517" fill="#F6EB3B" d="M199.1,0.95 C199.1,0.95 199.1,1.05 199.1,0.95"/><path id="Fill-518" fill="#F6EB3B" d="M199.8,0.95 C199.8,0.85 199.9,0.85 199.9,0.85 C199.9,0.95 199.9,0.95 199.8,0.95"/><path id="Fill-519" fill="#F6EB3B" d="M199.8,0.85 C199.8,1.05 199.6,1.05 199.4,1.05 C199.4,0.65 199.7,0.85 199.8,0.85"/><path id="Fill-520" fill="#F6EB3B" d="M200.2,0.95 C200.2,0.95 200.2,0.95 200.2,0.95 C200.2,0.95 200.2,0.95 200.2,0.95 C200.2,1.05 200.1,1.05 200,1.05 C200,0.95 200,0.85 200,0.75 C200.1,0.85 200.3,0.75 200.2,0.95 C200.3,0.95 200.2,0.95 200.2,0.95"/><path id="Fill-521" fill="#F6EB3B" d="M198.7,1.65 C198.6,1.75 198.6,1.55 198.7,1.65"/><path id="Fill-522" fill="#F6EB3B" d="M199.8,0.85 C199.8,0.85 199.9,0.95 199.9,0.95 C199.7,1.35 201,0.95 201.2,1.15 C201.1,1.35 200.8,1.35 200.6,1.35 C200.2,1.35 199.8,1.25 199.5,1.35 C199.6,1.05 199.8,0.95 199.9,1.05 C199.7,1.05 199.8,0.95 199.8,0.85"/><path id="Fill-523" fill="#F6EB3B" d="M200.3,0.95 C200.4,0.55 200.4,1.35 200.3,0.95"/><path id="Fill-524" fill="#F6EB3B" d="M202.1,0.85 C202.1,0.75 202.2,0.85 202.1,0.85"/><path id="Fill-525" fill="#F6EB3B" d="M196.6,7.95 C196.7,8.05 196.7,8.25 196.8,8.25 C196.8,8.45 196,8.15 196,8.45 C195.9,8.15 196.6,8.15 196.6,7.95"/><path id="Fill-526" fill="#F6EB3B" d="M199.3,1.05 C199.3,0.95 199.3,1.05 199.3,1.05"/><path id="Fill-527" fill="#F6EB3B" d="M199.9,1.05 C199.9,0.95 200,0.95 200.1,0.95 C200.1,1.05 200,1.05 199.9,1.05"/><path id="Fill-528" fill="#F6EB3B" d="M200.5,0.95 C200.5,0.95 200.6,1.05 200.5,0.95"/><path id="Fill-529" fill="#F6EB3B" d="M196.4,8.05 C196.4,7.95 196.5,8.05 196.4,8.05"/><path id="Fill-530" fill="#F6EB3B" d="M196.1,8.05 C196.1,8.05 196.1,8.25 196.1,8.05"/><path id="Fill-531" fill="#F6EB3B" d="M196.3,8.15 C196.1,8.25 196.3,7.85 196.3,8.15"/><path id="Fill-532" fill="#F6EB3B" d="M196.5,8.05 C196.5,8.15 196.3,8.65 196.2,8.15 C196.3,8.05 196.4,8.05 196.5,8.05"/><path id="Fill-533" fill="#F6EB3B" d="M201.5,1.15 C201.4,1.15 201.4,1.35 201.4,1.45 C201.2,1.35 201.3,0.95 201.5,0.95 C201.5,1.05 201.5,1.15 201.5,1.15"/><path id="Path_1_" fill="#F6EB3B" d="M202.3,1.15 C202.3,1.15 202.3,1.15 202.3,1.15 C202.3,1.25 202.3,1.25 202.3,1.15 C202.3,1.15 202.3,1.05 202.4,1.05 C202.9,1.35 203.2,1.05 203.5,1.35 C203.5,1.35 203.5,1.25 203.6,1.15 C203.7,1.25 203.7,1.35 203.6,1.45 C203.1,1.35 202.8,1.45 202.4,1.45 C202.4,1.65 202.1,1.45 202.2,1.35 C201.5,1.35 202.5,1.25 201.6,1.35 C201.6,1.15 201.7,1.25 201.7,1.05 C201.8,1.45 202.2,1.25 202.4,1.05 C203,1.25 201.8,1.25 202.3,1.15 C202.2,1.15 202.3,1.15 202.3,1.15 Z"/><path id="Fill-535" fill="#F6EB3B" d="M202,1.05 C202,0.95 202.1,0.95 202,1.05 C202.1,1.05 202.1,1.05 202,1.05"/><path id="Fill-536" fill="#F6EB3B" d="M196.9,8.15 C196.7,8.25 196.9,7.95 196.9,8.15"/><path id="Fill-537" fill="#F6EB3B" d="M195.9,8.15 C195.8,8.35 195.4,8.35 195.3,8.55 C195.2,8.45 195.1,8.55 195.1,8.25 C195.2,8.15 195.8,8.25 195.9,8.15"/><path id="Fill-538" fill="#F6EB3B" d="M199.2,1.25 C199.1,1.25 199.2,1.35 199.2,1.25"/><path id="Fill-539" fill="#F6EB3B" d="M199.2,1.35 C199.3,0.95 199.3,1.65 199.2,1.35"/><path id="Fill-540" fill="#F6EB3B" d="M201.4,1.15 C201.5,1.15 201.5,1.25 201.6,1.25 C201.6,1.35 201.5,1.45 201.4,1.45 C201.4,1.35 201.4,1.25 201.4,1.15"/><path id="Fill-541" fill="#F6EB3B" d="M195.5,8.35 C195.7,7.95 195.6,8.65 195.5,8.35"/><path id="Fill-542" fill="#F6EB3B" d="M199.7,1.45 C199.6,1.25 199.7,1.35 199.7,1.45"/><path id="Fill-543" fill="#F6EB3B" d="M196.4,8.25 C196.4,8.15 196.9,8.15 197,8.15 C196.9,8.25 196.4,8.25 196.4,8.25"/><path id="Fill-544" fill="#F6EB3B" d="M196.5,8.35 C196.5,8.05 196.7,8.45 196.6,8.65 C196.6,8.65 196.5,8.35 196.5,8.35"/><path id="Fill-545" fill="#F6EB3B" d="M199.2,1.45 C199.2,1.45 199.2,1.55 199.2,1.45"/><path id="Fill-546" fill="#F6EB3B" d="M199.4,1.45 C199.4,1.35 199.5,1.35 199.5,1.35 C199.5,1.45 199.4,1.45 199.4,1.45"/><path id="Fill-547" fill="#F6EB3B" d="M199.7,1.35 C199.7,1.55 199.6,1.45 199.7,1.35"/><path id="Fill-548" fill="#F6EB3B" d="M199.5,1.45 C199.4,1.35 199.5,1.45 199.5,1.45"/><path id="Fill-549" fill="#F6EB3B" d="M199.8,1.45 C199.8,1.35 199.9,1.35 199.9,1.35 C200,1.45 199.9,1.45 199.8,1.45"/><path id="Fill-550" fill="#F6EB3B" d="M200.3,1.35 C200.3,1.35 200.4,1.45 200.3,1.35"/><path id="Fill-551" fill="#F6EB3B" d="M196,8.25 C196,8.45 195.9,8.45 195.8,8.45 C195.8,8.15 195.9,8.35 196,8.25"/><path id="Fill-552" fill="#F6EB3B" d="M199.4,1.55 C199.3,1.65 199.2,1.75 199.1,1.75 C199.1,1.65 200.1,1.55 200.1,1.55 C200.1,1.35 199.2,1.55 199.4,1.55"/><path id="Fill-553" fill="#F6EB3B" d="M201,1.45 C201,1.35 201.1,1.35 201,1.45 C201.1,1.45 201,1.45 201,1.45"/><path id="Fill-554" fill="#F6EB3B" d="M195.8,8.45 C195.8,8.35 195.8,8.35 195.8,8.45 C195.9,8.45 195.8,8.45 195.8,8.45"/><path id="Fill-555" fill="#F6EB3B" d="M204,3.55 C204.1,3.15 204.2,3.85 204,3.55"/><path id="Fill-556" fill="#F6EB3B" d="M200,1.55 C200,1.45 200.1,1.55 200,1.55"/><path id="Fill-557" fill="#F6EB3B" d="M201.6,1.45 C201.6,1.35 201.6,1.45 201.6,1.45"/><path id="Fill-558" fill="#F6EB3B" d="M203.7,1.45 C203.7,1.35 203.7,1.25 203.7,1.15 C203.8,1.15 203.8,1.25 203.9,1.25 C203.9,1.45 203.7,1.65 203.7,1.45"/><path id="Fill-559" fill="#F6EB3B" d="M196.1,8.35 C196.1,8.35 196.1,8.35 196.1,8.35 C196.1,8.45 196.1,8.45 196.1,8.35"/><path id="Fill-560" fill="#F6EB3B" d="M200.4,1.55 C200.4,1.55 200.4,1.65 200.4,1.55"/><path id="Fill-561" fill="#F6EB3B" d="M202.4,1.45 C202.3,1.45 202.4,1.55 202.4,1.45"/><path id="Fill-562" fill="#F6EB3B" d="M202.5,1.45 C202.5,1.35 202.6,1.35 202.7,1.35 C202.6,1.45 202.5,1.45 202.5,1.45"/><path id="Fill-563" fill="#F6EB3B" d="M202.8,1.45 C202.7,1.45 202.8,1.55 202.8,1.45"/><path id="Fill-564" fill="#F6EB3B" d="M202.9,1.45 C202.9,1.35 203,1.35 202.9,1.45 C203,1.45 203,1.45 202.9,1.45"/><path id="Fill-565" fill="#F6EB3B" d="M203.9,1.35 C203.8,1.25 203.9,1.35 203.9,1.35"/><path id="Fill-566" fill="#F6EB3B" d="M196,8.45 C196.1,8.45 196,8.55 196,8.45"/><path id="Fill-567" fill="#F6EB3B" d="M203.5,1.45 C203.4,1.45 203.5,1.55 203.5,1.45"/><path id="Fill-568" fill="#F6EB3B" d="M203.6,1.45 C203.6,1.35 203.7,1.35 203.7,1.35 C203.7,1.45 203.6,1.45 203.6,1.45"/><path id="Fill-569" fill="#F6EB3B" d="M204,1.35 C204,1.35 204.1,1.45 204,1.35"/><path id="Fill-570" fill="#F6EB3B" d="M202.4,1.55 C202.4,1.45 202.5,1.45 202.5,1.45 C202.6,1.55 202.5,1.55 202.4,1.55"/><path id="Fill-571" fill="#F6EB3B" d="M203,1.65 C203,1.55 203.1,1.65 203,1.65"/><path id="Fill-572" fill="#F6EB3B" d="M204.1,1.45 C204,1.45 204.1,1.55 204.1,1.45"/><path id="Fill-574" fill="#F6EB3B" d="M191.6,12.95 C191.6,13.05 191.6,13.05 191.6,12.95"/><path id="Fill-575" fill="#F6EB3B" d="M191.4,13.05 C191.4,13.05 191.4,13.15 191.4,13.05"/><path id="Fill-576" fill="#F6EB3B" d="M191.5,13.15 C191.5,13.05 191.6,13.05 191.6,13.05 C191.6,13.15 191.5,13.05 191.5,13.15"/><path id="Fill-577" fill="#F6EB3B" d="M189.3,12.85 C189.5,12.45 189.5,13.05 189.3,12.85"/><path id="Fill-578" fill="#F6EB3B" d="M190.2,12.75 C190.2,12.55 190.2,12.65 190.2,12.85 C190.1,12.85 190.3,12.75 190.2,12.75"/><path id="Fill-579" fill="#F6EB3B" d="M191.3,12.55 C191.4,12.55 191.3,12.75 191.3,12.55"/><path id="Fill-580" fill="#F6EB3B" d="M192,13.15 C191.9,13.05 192,13.15 192,13.15"/><path id="Fill-581" fill="#F6EB3B" d="M189.1,12.85 C189.1,12.85 189.2,12.95 189.1,12.85"/><path id="Fill-582" fill="#F6EB3B" d="M190,12.85 C190,12.45 190,13.25 190,12.85"/><path id="Fill-583" fill="#F6EB3B" d="M188.7,12.95 C188.6,12.85 188.7,12.95 188.7,12.95"/><path id="Fill-584" fill="#F6EB3B" d="M190.4,12.95 C190.3,12.95 190.4,13.05 190.4,12.95"/></g></g></svg>