<svg xmlns="http://www.w3.org/2000/svg" xmlns:xlink="http://www.w3.org/1999/xlink" width="1062" height="155" version="1.1" viewBox="0 0 1062 155"><title>cf-logo-h</title><g id="Page-1" fill="none" fill-rule="evenodd" stroke="none" stroke-width="1"><g id="cf-logo-h" fill-rule="nonzero"><g id="Group" fill="#404041" transform="translate(367.600000, 95.800000)"><polygon id="Path" points="77.1 1.1 92.7 1.1 92.7 43.6 119.8 43.6 119.8 57.2 77.1 57.2"/><path id="Shape" d="M135.9,29.3 L135.9,29.2 C135.9,13.1 148.9,0 166.2,0 C183.5,0 196.3,12.9 196.3,29 L196.3,29.2 C196.3,45.3 183.3,58.4 166,58.4 C148.8,58.3 135.9,45.4 135.9,29.3 M180.5,29.3 L180.5,29.2 C180.5,21.1 174.7,14.1 166.1,14.1 C157.6,14.1 151.9,21 151.9,29.1 L151.9,29.3 C151.9,37.4 157.7,44.4 166.2,44.4 C174.8,44.3 180.5,37.4 180.5,29.3"/><path id="Path" d="M215.4,32.6 L215.4,1.1 L231.2,1.1 L231.2,32.3 C231.2,40.4 235.3,44.2 241.5,44.2 C247.7,44.2 251.8,40.5 251.8,32.7 L251.8,1.1 L267.6,1.1 L267.6,32.2 C267.6,50.3 257.3,58.2 241.3,58.2 C225.4,58.3 215.4,50.2 215.4,32.6"/><path id="Shape" d="M291.4,1.1 L313.1,1.1 C333.1,1.1 344.8,12.6 344.8,28.8 L344.8,29 C344.8,45.2 333,57.2 312.8,57.2 L291.5,57.2 L291.4,1.1 L291.4,1.1 Z M313.3,43.4 C322.6,43.4 328.8,38.3 328.8,29.2 L328.8,29 C328.8,20 322.6,14.8 313.3,14.8 L307,14.8 L307,43.3 L313.3,43.4 L313.3,43.4 Z"/><polygon id="Path" points="367.3 1.1 412.2 1.1 412.2 14.8 382.8 14.8 382.8 24.3 409.4 24.3 409.4 37.2 382.8 37.2 382.8 57.2 367.3 57.2"/><polygon id="Path" points="433.8 1.1 449.3 1.1 449.3 43.6 476.5 43.6 476.5 57.2 433.8 57.2"/><path id="Shape" d="M517.1,0.7 L532.1,0.7 L556,57.2 L539.3,57.2 L535.2,47.2 L513.6,47.2 L509.6,57.2 L493.3,57.2 L517.1,0.7 Z M530.8,35.1 L524.6,19.2 L518.3,35.1 L530.8,35.1 Z"/><path id="Shape" d="M576,1.1 L602.5,1.1 C611.1,1.1 617,3.3 620.8,7.2 C624.1,10.4 625.8,14.7 625.8,20.3 L625.8,20.5 C625.8,29.1 621.2,34.8 614.3,37.7 L627.7,57.3 L609.7,57.3 L598.4,40.3 L591.6,40.3 L591.6,57.3 L576.1,57.3 L576,1.1 L576,1.1 Z M601.8,28.1 C607.1,28.1 610.1,25.5 610.1,21.5 L610.1,21.2 C610.1,16.8 606.9,14.6 601.7,14.6 L591.5,14.6 L591.5,28.1 L601.8,28.1 L601.8,28.1 Z"/><polygon id="Path" points="648.2 1.1 693.3 1.1 693.3 14.4 663.6 14.4 663.6 22.8 690.5 22.8 690.5 35.1 663.6 35.1 663.6 44 693.7 44 693.7 57.2 648.2 57.2"/><path id="Path" d="M43.1,35.9 C40.9,40.8 36.3,44.3 30.3,44.3 C21.8,44.3 16,37.2 16,29.2 L16,29 C16,20.9 21.7,14 30.2,14 C36.6,14 41.5,17.9 43.5,23.3 L59.9,23.3 C57.3,9.9 45.5,0 30.3,0 C13,0 5.68434189e-14,13.1 5.68434189e-14,29.2 L5.68434189e-14,29.4 C5.68434189e-14,45.5 12.8,58.4 30.1,58.4 C44.9,58.4 56.5,48.8 59.5,36 L43.1,35.9 L43.1,35.9 Z"/></g><g id="Group"><polygon id="Path" fill="#FFF" points="312.8 91.6 269.9 67 262.5 63.8 87 65.1 87 154.1 312.8 154.2"/><path id="Path" fill="#F38020" d="M234.7,146 C236.8,138.8 236,132.2 232.5,127.3 C229.3,122.8 223.9,120.2 217.4,119.9 L94.3,118.3 C93.5,118.3 92.8,117.9 92.4,117.3 C92,116.7 91.9,115.9 92.1,115.1 C92.5,113.9 93.7,113 95,112.9 L219.2,111.3 C233.9,110.6 249.9,98.7 255.5,84.1 L262.6,65.6 C262.9,64.8 263,64 262.8,63.2 C254.8,27 222.5,1.42108547e-14 183.9,1.42108547e-14 C148.3,1.42108547e-14 118.1,23 107.3,54.9 C100.3,49.7 91.4,46.9 81.8,47.8 C64.7,49.5 51,63.2 49.3,80.3 C48.9,84.7 49.2,89 50.2,93 C22.3,93.8 1.42108547e-14,116.6 1.42108547e-14,144.7 C1.42108547e-14,147.2 0.2,149.7 0.5,152.2 C0.7,153.4 1.7,154.3 2.9,154.3 L230.1,154.3 C231.4,154.3 232.6,153.4 233,152.1 L234.7,146 Z"/><path id="Path" fill="#FAAE40" d="M273.9,66.9 C272.8,66.9 271.6,66.9 270.5,67 C269.7,67 269,67.6 268.7,68.4 L263.9,85.1 C261.8,92.3 262.6,98.9 266.1,103.8 C269.3,108.3 274.7,110.9 281.2,111.2 L307.4,112.8 C308.2,112.8 308.9,113.2 309.3,113.8 C309.7,114.4 309.8,115.3 309.6,116 C309.2,117.2 308,118.1 306.7,118.2 L279.4,119.8 C264.6,120.5 248.7,132.4 243.1,147 L241.1,152.1 C240.7,153.1 241.4,154.1 242.5,154.1 L336.3,154.1 C337.4,154.1 338.4,153.4 338.7,152.3 C340.3,146.5 341.2,140.4 341.2,134.1 C341.2,97 311.1,66.9 273.9,66.9"/></g></g></g></svg>