<svg xmlns="http://www.w3.org/2000/svg" viewBox="0 0 484.72 95.49"><defs><style>.cls-1{fill:#99b9e2}.cls-2{fill:#e75204}.cls-3{fill:#187ac6}.cls-4{fill:#005cb9}</style></defs><title>AC Logo</title><path d="M215.74,253.56l3.72,55.38a4.92,4.92,0,0,0,7.66,3.76l35.4-23.77a5.3,5.3,0,0,0,.13-8.71l-41.49-29.68A3.43,3.43,0,0,0,215.74,253.56Z" class="cls-1" transform="translate(-178.92 -249.89)"/><path d="M205.9,252.18,180.05,294a7.57,7.57,0,0,0,3.52,11l22.95,9.57a4.83,4.83,0,0,0,6.69-4.74l-3.28-56.55A2.18,2.18,0,0,0,205.9,252.18Z" class="cls-2" transform="translate(-178.92 -249.89)"/><path d="M182.27,309l19.61,7.73a49.54,49.54,0,0,1,20.43,15l9.57,11.89a1.09,1.09,0,0,1-1.47,1.57l-49-34.65A.89.89,0,0,1,182.27,309Z" class="cls-3" transform="translate(-178.92 -249.89)"/><path d="M228.29,317.16l38.24-25a1.2,1.2,0,0,1,1.73,1.54l-23.83,47.46a5.15,5.15,0,0,1-8.68.83l-9.56-12.39A8.61,8.61,0,0,1,228.29,317.16Z" class="cls-4" transform="translate(-178.92 -249.89)"/><path d="M432.5,314.24h-4.58c-2.42,0-4-1.07-5.47-4-1.57,1.63-5,5-12.41,5-8,0-12-4.75-12-8.8,0-3.06,1.23-7.87,7.75-9.12,4.1-.79,16.67.37,16.85-4.56,0-1.08-1.44-5-8.22-5s-9.59,3-9.59,6.33l-4.77.06c0-5.81,4.46-10.75,14.7-10.75,8,0,13.14,3.63,13,8.23v15.41c-.11,2.9,3.45,3.13,4.68,3.13Zm-9.83-15c-.72.46-4.49,1.38-10.83,2s-8.08,1.9-8.08,4.83,2.59,4.56,7.52,4.56c6.63,0,10.44-5.23,10.85-7.17A35.09,35.09,0,0,0,422.67,299.28Z" class="cls-2" transform="translate(-178.92 -249.89)"/><path d="M547.58,314.24h-4.38c-2.42,0-4-1.07-5.47-4-1.57,1.63-5,5-12.41,5-8,0-12-4.75-12-8.8,0-3.06,1.23-7.87,7.75-9.12,4.1-.79,16.67.37,16.85-4.56,0-1.08-1.44-5-8.22-5s-9.59,3-9.59,6.33l-4.77.06c0-5.81,4.46-10.75,14.7-10.75,8,0,13.14,3.63,13,8.23v15.41c-.11,2.9,3.24,3.13,4.48,3.13Zm-9.63-15c-.72.46-4.49,1.38-10.83,2s-8.08,1.9-8.08,4.83,2.59,4.56,7.52,4.56c6.63,0,10.44-5.23,10.85-7.17A35.09,35.09,0,0,0,538,299.28Z" class="cls-4" transform="translate(-178.92 -249.89)"/><path d="M654.46,314.24h-4.59c-2.42,0-4-1.07-5.47-4-1.57,1.63-5,5-12.41,5-8,0-12-4.75-12-8.8,0-3.06,1.23-7.87,7.75-9.12,4.1-.79,16.67.37,16.85-4.56,0-1.08-1.44-5-8.22-5s-9.59,3-9.59,6.33l-4.77.06c0-5.81,4.46-10.75,14.7-10.75,8,0,13.14,3.63,13,8.23v15.41c-.11,2.9,3.45,3.13,4.69,3.13Zm-9.84-15c-.72.46-4.49,1.38-10.83,2s-8.08,1.9-8.08,4.83,2.59,4.56,7.52,4.56c6.63,0,10.44-5.23,10.85-7.17A35.09,35.09,0,0,0,644.62,299.28Z" class="cls-4" transform="translate(-178.92 -249.89)"/><path d="M454.93,289.3H435.06v-4.8H463v4.56l-21.4,20.19h22.35v5H434.1v-5Z" class="cls-2" transform="translate(-178.92 -249.89)"/><path d="M556.83,285.26v3.92H557a8.09,8.09,0,0,1,4.43-3.5,19.39,19.39,0,0,1,6.64-1.09,18.31,18.31,0,0,1,7,1.23,13.76,13.76,0,0,1,8,8.18,16.79,16.79,0,0,1,1,5.83,17.34,17.34,0,0,1-1,5.83,13.1,13.1,0,0,1-3,4.79,13.87,13.87,0,0,1-5,3.22,18.86,18.86,0,0,1-6.94,1.18,20.58,20.58,0,0,1-2.85-.22,18.43,18.43,0,0,1-3.12-.73,13,13,0,0,1-2.92-1.37,8.32,8.32,0,0,1-2.32-2.16h-.13v14.91h-5.7v-40Zm20.5,10.28a10,10,0,0,0-1.95-3.45,9.26,9.26,0,0,0-3.35-2.41,11.88,11.88,0,0,0-4.8-.9,11.39,11.39,0,0,0-4.9,1,9.42,9.42,0,0,0-3.29,2.49,9.66,9.66,0,0,0-1.85,3.5,14.25,14.25,0,0,0,0,8.1,9.21,9.21,0,0,0,5.3,5.94,12.34,12.34,0,0,0,5,.92,11.33,11.33,0,0,0,4.93-1,8.69,8.69,0,0,0,3.19-2.52,10,10,0,0,0,1.74-3.59,16,16,0,0,0,.54-4.15A12.53,12.53,0,0,0,577.32,295.55Z" class="cls-4" transform="translate(-178.92 -249.89)"/><path d="M589,280.05v-5.83h5.48v5.83Zm5.48,5.21v29H589v-29Z" class="cls-4" transform="translate(-178.92 -249.89)"/><path d="M617.88,285v4.26h-8.05v18.61a4.62,4.62,0,0,0,.16,1.36,1.41,1.41,0,0,0,.62.79,3,3,0,0,0,1.27.37q.82.08,2.12.09h4v4.26h-5.7a22.84,22.84,0,0,1-3.69-.26,5.84,5.84,0,0,1-2.48-.94,7.89,7.89,0,0,1-2.12-5.23V289.27h-5.95V285H604v-8.73h5.81V285Z" class="cls-4" transform="translate(-178.92 -249.89)"/><path d="M336.44,273.5v40.74H331V273.5Z" class="cls-2" transform="translate(-178.92 -249.89)"/><path d="M663.64,273.5v40.74h-5.47V273.5Z" class="cls-4" transform="translate(-178.92 -249.89)"/><path d="M594.48,285.26v29H589v-29Z" class="cls-4" transform="translate(-178.92 -249.89)"/><path d="M594.48,274.22v6H589v-6Z" class="cls-4" transform="translate(-178.92 -249.89)"/><path d="M382.21,283.79c-5,0-9,2.57-12.42,5.61v0c-2.53-5.36-8.21-5.64-9.9-5.64-5,0-8.1,1.73-11.39,4.83h-.14v-3.33h-5.5v29h5.84V295.53c0-3,4.31-6.78,9.27-6.71,3.33,0,7.22,1.47,7.22,5.72v19.7H371V295.53c0-3,3.6-6.72,9.27-6.71,3.33,0,6.88,1.47,6.88,5.72v19.7H393V295.53C393,284.63,384.41,283.79,382.21,283.79Z" class="cls-2" transform="translate(-178.92 -249.89)"/><path d="M310,274.22h-7.52l-17.58,40.09h6.31l5.63-12h19l4.83,12h6.93Zm-11.73,23.15,7.42-16.72h1.09l7.18,16.72Z" class="cls-2" transform="translate(-178.92 -249.89)"/><path d="M503.11,298.78a13.48,13.48,0,0,1-1.16,4.58,11,11,0,0,1-2.67,3.66,12.39,12.39,0,0,1-4.06,2.4,15.51,15.51,0,0,1-5.38.86,17.09,17.09,0,0,1-7.09-1.34,13.49,13.49,0,0,1-4.86-3.6,14.55,14.55,0,0,1-2.8-5.3,22.55,22.55,0,0,1-.9-6.45,20.19,20.19,0,0,1,.9-6,14.73,14.73,0,0,1,2.8-5.16,13.55,13.55,0,0,1,4.83-3.6,16.87,16.87,0,0,1,7.05-1.34,15.83,15.83,0,0,1,8.34,2.12,11.57,11.57,0,0,1,4.86,8.7s4.44-.09,6,0a16.6,16.6,0,0,0-2.35-7.94,14.73,14.73,0,0,0-4.19-4,19.64,19.64,0,0,0-5.73-2.46,27,27,0,0,0-6.83-.84,25,25,0,0,0-9.37,1.65,19.34,19.34,0,0,0-6.83,4.49,19,19,0,0,0-4.15,6.67,23.32,23.32,0,0,0-1.42,8.18,24.61,24.61,0,0,0,1.32,8.15,18.09,18.09,0,0,0,4,6.59A18.28,18.28,0,0,0,480,313.1a25.14,25.14,0,0,0,9.34,1.59q8.82,0,13.91-4.19t6-11.72Z" class="cls-4" transform="translate(-178.92 -249.89)"/></svg>