<svg version="1.1" xmlns="http://www.w3.org/2000/svg" viewBox="0 0 726.0733500989077 517.48828125" width="726.0733500989077" height="517.48828125">
  <!-- svg-source:excalidraw -->
  
  <defs>
    <style>
      @font-face {
        font-family: "Virgil";
        src: url("https://excalidraw.com/Virgil.woff2");
      }
      @font-face {
        font-family: "Cascadia";
        src: url("https://excalidraw.com/Cascadia.woff2");
      }
    </style>
  </defs>
  <g transform="translate(268.11241259890767 10) rotate(0 44.5 22)"><text x="44.5" y="18" font-family="Helvetica, Segoe UI Emoji" font-size="19.270312499999978px" fill="#000000" text-anchor="middle" style="white-space: pre;" direction="ltr">timestamp</text><text x="44.5" y="40" font-family="Helvetica, Segoe UI Emoji" font-size="19.270312499999978px" fill="#000000" text-anchor="middle" style="white-space: pre;" direction="ltr"> column</text></g><g transform="translate(502.04210009890767 10) rotate(0 38 22)"><text x="38" y="18" font-family="Helvetica, Segoe UI Emoji" font-size="19.270312499999978px" fill="#000000" text-anchor="middle" style="white-space: pre;" direction="ltr">visitor_id</text><text x="38" y="40" font-family="Helvetica, Segoe UI Emoji" font-size="19.270312499999978px" fill="#000000" text-anchor="middle" style="white-space: pre;" direction="ltr">column</text></g><g transform="translate(398.85460009890767 10) rotate(0 31.5 22)"><text x="31.5" y="18" font-family="Helvetica, Segoe UI Emoji" font-size="19.270312499999978px" fill="#000000" text-anchor="middle" style="white-space: pre;" direction="ltr">url</text><text x="31.5" y="40" font-family="Helvetica, Segoe UI Emoji" font-size="19.270312499999978px" fill="#000000" text-anchor="middle" style="white-space: pre;" direction="ltr">column</text></g><g stroke-linecap="round" transform="translate(276.74913134890767 184.17578125) rotate(0 44.482421875 47.666015625)"><path d="M-1.93 -0.6 C18.95 0.28, 42.25 -0.43, 88.32 1.7 M0.04 -0.31 C21.51 -0.82, 42.37 -1.11, 88.39 0.71 M89.75 0.75 C89.6 23.2, 89.4 44.95, 87.57 94.8 M89.82 -0.16 C90.22 31.48, 89.47 63.91, 88.02 94.49 M87.53 97.08 C68.38 98.04, 44.28 94.76, -0.67 94.43 M89.62 96.06 C69.52 96.84, 51.74 94.95, 0.32 94.9 M-1.64 95.14 C-0.36 65.5, 0.86 37.49, -1.23 0.28 M0.33 95.61 C-0.43 62.21, -0.77 28.46, 0.14 0.28" stroke="#000000" stroke-width="1" fill="none"></path></g><g stroke-linecap="round" transform="translate(384.79600634890767 183.9609375) rotate(0 44.482421875 47.666015625)"><path d="M0.15 1.07 C19.81 -0.11, 40.03 -0.13, 89.79 -0.65 M0.82 0.52 C34.34 0.62, 68.38 0.78, 89.58 0.52 M89.92 0.98 C88.98 24.74, 90.45 47.69, 90.27 93.95 M89.02 -0.37 C87.91 21.29, 88.69 43.94, 88.27 94.67 M87.75 93.39 C59.23 95.32, 26.16 97.18, -0.99 94.71 M89.34 94.61 C57.17 94.97, 27.27 95.24, -0.42 95.2 M1.25 96.04 C-0.78 72.71, 0.73 52.3, -0.62 1.76 M-0.27 95.61 C0.63 64.3, 0.9 34.69, -0.88 -0.87" stroke="#000000" stroke-width="1" fill="none"></path></g><g stroke-linecap="round" transform="translate(499.68663134890767 183.41015625) rotate(0 44.482421875 47.666015625)"><path d="M-0.06 -0.84 C18.14 -1.5, 38.21 -1.09, 88.79 1.77 M0.7 -0.96 C30.74 0.8, 58.93 0.95, 89.43 0.16 M87.42 -0.46 C87.4 28.34, 87.25 56.75, 89.94 96.4 M88.05 -0.51 C87.84 20.03, 88.77 41.1, 89.8 95.4 M88.51 95.61 C70.29 96.75, 53.26 97.14, -0.03 94.94 M88.82 96.12 C70.84 94.92, 53.07 95.71, 0.08 94.78 M1.28 96.53 C0.94 68.83, -1.86 45.38, 0.14 0.46 M0.61 94.72 C1.7 62.72, 0.83 30.45, 0.31 0.71" stroke="#000000" stroke-width="1" fill="none"></path></g><g stroke-linecap="round" transform="translate(275.55381884890767 288.203125) rotate(0 45.234375 52.29296875)"><path d="M0.29 -0.05 C18.66 1.79, 41.36 0.18, 89.95 0.15 M-0.89 0.35 C29.6 -0.82, 58.86 -0.18, 90.11 0.52 M91.2 -0.3 C91.11 23.91, 89.7 44.33, 91.55 106.15 M90.39 0.94 C90.06 34.9, 89.89 71.56, 90.64 103.98 M92.37 103.19 C55.64 106.18, 20.47 105.06, -1.13 102.64 M91.27 104.5 C57.37 104.93, 23.11 103.15, 0.02 104.47 M1.94 104.25 C0.78 71.65, -0.9 39.48, 0.76 -0.62 M-0.81 104.84 C-0.23 67.84, 0.8 31.2, 0.91 -0.83" stroke="#000000" stroke-width="1" fill="none"></path></g><g stroke-linecap="round" transform="translate(384.42881884890767 288.1953125) rotate(0 45.234375 52.29296875)"><path d="M1.07 -0.6 C24.33 -0.86, 49.34 0.75, 89.82 1.8 M0.52 -0.35 C28.79 -1.74, 57.62 -0.13, 90.99 -0.4 M91.45 -0.26 C89.92 35.61, 88.04 70.11, 89.09 103.14 M90.1 -0.14 C89.56 21.96, 90.53 41.93, 89.81 105.08 M88.53 105.97 C64.68 103.48, 41.36 103.04, -0.62 105.63 M89.75 104.14 C65.66 105.93, 41.65 104.51, -0.14 103.84 M0.71 104.66 C-1.23 65.39, -0.14 22.41, 1.76 0.31 M0.28 104.56 C-1.66 80.73, -1.21 55.52, -0.87 0.67" stroke="#000000" stroke-width="1" fill="none"></path></g><g stroke-linecap="round" transform="translate(499.52647509890767 287.64453125) rotate(0 45.234375 52.29296875)"><path d="M-0.84 -1.95 C16.62 -1.96, 35.14 -0.15, 92.24 0.69 M-0.96 1 C32.79 -1.18, 64.95 -0.17, 90.63 -0.11 M90.01 -1.18 C90.25 25.84, 91.09 55.31, 91.54 102.83 M89.96 -0.85 C89.96 28.35, 90.78 57.36, 90.53 103.69 M90.75 104.62 C56.47 106.09, 21.8 104.35, -0.4 102.65 M91.26 104.55 C55.38 104.75, 21.51 104.53, -0.55 104.27 M1.2 106.28 C-1.58 63.75, 0.54 25.27, 0.46 0.85 M-0.61 105.53 C0.28 81.64, 0.67 58.87, 0.71 0.47" stroke="#000000" stroke-width="1" fill="none"></path></g><g stroke-linecap="round" transform="translate(272.74522509890767 402.90234375) rotate(0 45.234375 52.29296875)"><path d="M-0.67 -1.1 C24.83 0.55, 44.41 -1.02, 90.73 -1.1 M0.29 0.1 C18.53 0.38, 38.36 1.3, 90.44 0.14 M89.95 1.89 C90.6 25.88, 92.04 52.51, 89.4 104.4 M89.89 0.04 C90.72 20.32, 92.13 41.53, 89.98 105.24 M90.02 103.17 C66.22 104.29, 46.88 105.46, -1.08 103.92 M90.12 103.65 C70.08 103.76, 49.21 104.05, -0.54 105.08 M-1.68 103.23 C-1.9 82.75, 0.67 61.41, 0.54 1.57 M0.38 105.02 C0.3 71.48, -0.2 38.83, 0.02 -0.65" stroke="#000000" stroke-width="1" fill="none"></path></g><g stroke-linecap="round" transform="translate(382.24131884890767 402.89453125) rotate(0 45.234375 52.29296875)"><path d="M-0.6 -0.7 C20.34 -1.2, 43.09 -1.14, 92.27 0.34 M-0.35 0.13 C21.17 -0.18, 44.93 0.05, 90.07 0.29 M90.21 -0.08 C92.18 24.73, 92.27 51.98, 89.02 102.66 M90.33 -0.4 C91.17 26.84, 89.83 51.87, 90.97 104.37 M91.85 103.98 C56.82 104.97, 23.29 103.09, 1.05 103.95 M90.02 104.06 C62.65 103.68, 32.42 103.8, -0.74 105.49 M0.07 103.46 C0.93 72.1, -1.27 41.45, 0.31 -1.39 M-0.03 103.62 C0.52 65.71, -0.59 26.99, 0.67 -0.12" stroke="#000000" stroke-width="1" fill="none"></path></g><g stroke-linecap="round" transform="translate(496.92491259890767 402.55078125) rotate(0 45.234375 52.29296875)"><path d="M-1.95 -1.5 C25.11 -0.72, 54.01 2.15, 91.16 1.08 M1 0.78 C26.37 1.8, 54.31 1.03, 90.36 -0.4 M89.29 0.77 C88.33 23.11, 90.64 44.06, 88.72 103.99 M89.62 -0.22 C89.61 29.12, 90.35 57.11, 89.57 105.46 M90.5 105.64 C61.3 106.15, 28.68 104.32, -1.93 106.25 M90.43 104.16 C63.53 105.67, 36.09 104.75, -0.32 105.38 M1.7 103.65 C-1.77 67.89, -0.53 29.27, 0.85 -1.6 M0.94 104.62 C-0.57 76.01, -0.33 47.27, 0.47 0.9" stroke="#000000" stroke-width="1" fill="none"></path></g><g stroke-linecap="round" transform="translate(276.26475634890767 77.453125) rotate(0 44.978515625 48.638671875)"><path d="M1.39 -0.2 C34.88 1.25, 69.25 2.56, 89.21 -1.06 M0.31 0.48 C29.75 0.95, 59.92 0.79, 89.52 -0.81 M88.26 0.69 C89.88 24.44, 88.58 48.87, 91.12 96.47 M90.66 -0.97 C90.73 26.45, 89.8 52.28, 90.49 96.36 M89.46 96.85 C61.43 95.97, 31.52 99.03, -0.37 95.42 M88.98 97.76 C70.04 96.09, 48.17 96.41, -0.83 97.37 M-0.4 95.94 C0.56 62.85, 1.79 30.27, 1.83 -1.57 M0.24 97.34 C-1.61 62.29, -0.84 26.25, -0.76 -0.58" stroke="#000000" stroke-width="1" fill="none"></path></g><g stroke-linecap="round" transform="translate(384.92491259890767 77.23828125) rotate(0 44.978515625 48.638671875)"><path d="M-0.7 -0.8 C26.92 1.09, 54.63 2.07, 90.29 -1.1 M0.13 -0.99 C34.69 0.92, 69.33 -0.08, 90.25 -0.45 M89.88 1.21 C88.48 35.14, 89.05 66.23, 88.03 96.3 M89.56 0.64 C90.17 29.03, 88.93 59.96, 89.74 97.94 M89.36 96.72 C69.68 96.91, 46.27 98.95, -0.63 97.65 M89.43 98.27 C59.29 96.45, 29.01 96.13, 0.9 97.38 M-1.13 98.86 C-0.38 61.38, 1.42 27.01, -1.39 1.34 M-0.96 97.51 C-0.78 69.89, -1.14 44.92, -0.12 0.38" stroke="#000000" stroke-width="1" fill="none"></path></g><g stroke-linecap="round" transform="translate(499.81553759890767 76.48046875) rotate(0 44.978515625 48.638671875)"><path d="M-1.5 -1.98 C25.64 0.71, 55.25 1.56, 91.03 -0.05 M0.78 -0.55 C34.18 -0.43, 66.67 -1, 89.55 -0.94 M90.72 -1.33 C91.34 22.64, 90.8 41.57, 89.36 96.73 M89.73 0.09 C90.06 21.13, 89.52 39.68, 90.83 97.69 M91.01 98.99 C66.45 97.27, 39.68 95.36, 1.66 97.3 M89.53 97.57 C64.62 97.32, 37.98 96.93, 0.8 97.9 M-0.93 96.17 C0.6 62.01, -0.12 27.32, -1.6 -0.45 M0.04 97.34 C1.02 62.46, 1.3 27.48, 0.9 0.81" stroke="#000000" stroke-width="1" fill="none"></path></g><g transform="translate(12.075106573058065 83.10408334818487) rotate(1.1535737979464493 49 18)"><text x="0" y="14" font-family="Helvetica, Segoe UI Emoji" font-size="16.131201375757225px" fill="#000000" text-anchor="start" style="white-space: pre;" direction="ltr">Granule 4072</text><text x="0" y="32" font-family="Helvetica, Segoe UI Emoji" font-size="16.131201375757225px" fill="#000000" text-anchor="start" style="white-space: pre;" direction="ltr">   8192 rows </text></g><g transform="translate(10.352450323058065 189.35798959818487) rotate(1.1535737979464493 49 18)"><text x="0" y="14" font-family="Helvetica, Segoe UI Emoji" font-size="16.131201375757225px" fill="#000000" text-anchor="start" style="white-space: pre;" direction="ltr">Granule 4073</text><text x="0" y="32" font-family="Helvetica, Segoe UI Emoji" font-size="16.131201375757225px" fill="#000000" text-anchor="start" style="white-space: pre;" direction="ltr">   8192 rows </text></g><g transform="translate(14.743075323058065 290.5220520981849) rotate(1.1535737979464493 49 18)"><text x="0" y="14" font-family="Helvetica, Segoe UI Emoji" font-size="16.131201375757225px" fill="#000000" text-anchor="start" style="white-space: pre;" direction="ltr">Granule 4074</text><text x="0" y="32" font-family="Helvetica, Segoe UI Emoji" font-size="16.131201375757225px" fill="#000000" text-anchor="start" style="white-space: pre;" direction="ltr">   8192 rows </text></g><g transform="translate(12.567294073058065 387.2759583481849) rotate(1.1535737979464493 49 18)"><text x="0" y="14" font-family="Helvetica, Segoe UI Emoji" font-size="16.131201375757225px" fill="#000000" text-anchor="start" style="white-space: pre;" direction="ltr">Granule 4075</text><text x="0" y="32" font-family="Helvetica, Segoe UI Emoji" font-size="16.131201375757225px" fill="#000000" text-anchor="start" style="white-space: pre;" direction="ltr">   8192 rows </text></g><g transform="translate(171.49131884890767 85.67578125) rotate(0 34.5 15)"><text x="0" y="12" font-family="Helvetica, Segoe UI Emoji" font-size="13.578750000000007px" fill="#000000" text-anchor="start" style="white-space: pre;" direction="ltr">2022-02-07</text><text x="0" y="27" font-family="Helvetica, Segoe UI Emoji" font-size="13.578750000000007px" fill="#000000" text-anchor="start" style="white-space: pre;" direction="ltr">   15:00:00</text></g><g transform="translate(171.49131884890767 176.99609375) rotate(0 34.5 15)"><text x="0" y="12" font-family="Helvetica, Segoe UI Emoji" font-size="13.578750000000007px" fill="#000000" text-anchor="start" style="white-space: pre;" direction="ltr">2022-02-07</text><text x="0" y="27" font-family="Helvetica, Segoe UI Emoji" font-size="13.578750000000007px" fill="#000000" text-anchor="start" style="white-space: pre;" direction="ltr">   16:00:00</text></g><g transform="translate(171.49131884890767 286.86328125) rotate(0 34.5 15)"><text x="0" y="12" font-family="Helvetica, Segoe UI Emoji" font-size="13.578750000000007px" fill="#000000" text-anchor="start" style="white-space: pre;" direction="ltr">2022-02-07</text><text x="0" y="27" font-family="Helvetica, Segoe UI Emoji" font-size="13.578750000000007px" fill="#000000" text-anchor="start" style="white-space: pre;" direction="ltr">   17:00:00</text></g><g transform="translate(171.49131884890767 403.3203125) rotate(0 34.5 15)"><text x="0" y="12" font-family="Helvetica, Segoe UI Emoji" font-size="13.578750000000007px" fill="#000000" text-anchor="start" style="white-space: pre;" direction="ltr">2022-02-07</text><text x="0" y="27" font-family="Helvetica, Segoe UI Emoji" font-size="13.578750000000007px" fill="#000000" text-anchor="start" style="white-space: pre;" direction="ltr">   18:00:00</text></g><g stroke-linecap="round"><g transform="translate(590.7725688489077 103.75005851704987) rotate(0 44.24917892515657 4.540130342963238)"><path d="M0.88 0.26 C15.07 2, 72.06 8.25, 86.29 9.73 M-0.11 -0.65 C14.36 0.83, 73.8 6.22, 88.61 8.1" stroke="#c92a2a" stroke-width="1" fill="none"></path></g><g transform="translate(590.7725688489077 103.75005851704987) rotate(0 44.24917892515657 4.540130342963238)"><path d="M59.93 14.08 C72.66 10.95, 83.19 11.07, 90.58 8.64 M58.78 15.24 C67.62 12.51, 74.35 11.23, 87.95 7.44" stroke="#c92a2a" stroke-width="1" fill="none"></path></g><g transform="translate(590.7725688489077 103.75005851704987) rotate(0 44.24917892515657 4.540130342963238)"><path d="M62.09 -6.32 C73.84 -1.33, 83.51 6.9, 90.58 8.64 M60.94 -5.17 C69.18 -2.84, 75.38 0.92, 87.95 7.44" stroke="#c92a2a" stroke-width="1" fill="none"></path></g></g><g stroke-linecap="round"><g transform="translate(594.9522563489077 252.1048267703518) rotate(0 42.53753780655552 5.5214298946438305)"><path d="M-0.55 1.03 C13.91 2.79, 71.19 7.98, 85.63 9.44 M1.36 0.52 C15.81 2.51, 70.9 8.8, 84.99 10.52" stroke="#c92a2a" stroke-width="1" fill="none"></path></g><g transform="translate(594.9522563489077 252.1048267703518) rotate(0 42.53753780655552 5.5214298946438305)"><path d="M57.5 18.37 C60.41 17.83, 67 13.14, 85.5 10.96 M56.75 17 C65.59 14.75, 74.83 13.87, 85.17 10.82" stroke="#c92a2a" stroke-width="1" fill="none"></path></g><g transform="translate(594.9522563489077 252.1048267703518) rotate(0 42.53753780655552 5.5214298946438305)"><path d="M59.91 -2.01 C62.13 1.63, 68.23 1.13, 85.5 10.96 M59.15 -3.38 C67.25 0.8, 75.74 6.34, 85.17 10.82" stroke="#c92a2a" stroke-width="1" fill="none"></path></g></g><g stroke-linecap="round"><g transform="translate(593.5147563489077 320.2260469256679) rotate(0 40.87294948341321 4.1558147076221985)"><path d="M0.52 -1.13 C14.01 0.23, 66.73 6.66, 80.32 8.29 M-0.67 0.89 C13.23 2.38, 68.71 7.96, 82.41 9.44" stroke="#c92a2a" stroke-width="1" fill="none"></path></g><g transform="translate(593.5147563489077 320.2260469256679) rotate(0 40.87294948341321 4.1558147076221985)"><path d="M51.43 14.76 C59.3 15.69, 67.15 12.31, 80.91 10.14 M53.11 16.13 C61.22 14.66, 66.73 12.78, 81.55 9.43" stroke="#c92a2a" stroke-width="1" fill="none"></path></g><g transform="translate(593.5147563489077 320.2260469256679) rotate(0 40.87294948341321 4.1558147076221985)"><path d="M53.55 -5.65 C60.91 0.36, 68.24 2.04, 80.91 10.14 M55.23 -4.28 C63.03 -0.82, 68.02 2.23, 81.55 9.43" stroke="#c92a2a" stroke-width="1" fill="none"></path></g></g><g stroke-linecap="round"><g transform="translate(594.5264750989077 352.6877496464591) rotate(0 41.368920900570174 4.420419056841979)"><path d="M1.12 -1.11 C14.81 0.41, 69.17 6.86, 82.49 8.67 M0.25 0.92 C13.82 2.65, 68.67 8.82, 81.95 9.95" stroke="#c92a2a" stroke-width="1" fill="none"></path></g><g transform="translate(594.5264750989077 352.6877496464591) rotate(0 41.368920900570174 4.420419056841979)"><path d="M51.02 18.62 C61.58 13.58, 72.9 13.83, 83.18 8.88 M53.16 16.94 C63.05 14.81, 75.28 11.42, 81.75 10.22" stroke="#c92a2a" stroke-width="1" fill="none"></path></g><g transform="translate(594.5264750989077 352.6877496464591) rotate(0 41.368920900570174 4.420419056841979)"><path d="M53.09 -1.8 C62.9 -0.15, 73.54 6.78, 83.18 8.88 M55.23 -3.47 C64.49 1.98, 75.96 6.2, 81.75 10.22" stroke="#c92a2a" stroke-width="1" fill="none"></path></g></g><g stroke-linecap="round"><g transform="translate(591.3506938489077 446.3088433964591) rotate(0 40.12069558080282 5.197611721284318)"><path d="M0.34 0.93 C13.96 2.46, 67.71 7.35, 81.18 8.78 M-0.94 0.37 C12.52 2.09, 66.44 8.27, 79.95 10.02" stroke="#c92a2a" stroke-width="1" fill="none"></path></g><g transform="translate(591.3506938489077 446.3088433964591) rotate(0 40.12069558080282 5.197611721284318)"><path d="M52.28 15.94 C57.37 14.1, 66.07 12.81, 80.41 9.23 M51.04 16.95 C59.06 15.45, 68.68 12.13, 80.5 10.04" stroke="#c92a2a" stroke-width="1" fill="none"></path></g><g transform="translate(591.3506938489077 446.3088433964591) rotate(0 40.12069558080282 5.197611721284318)"><path d="M54.75 -4.44 C59.13 -1.02, 67.2 2.95, 80.41 9.23 M53.51 -3.42 C60.69 1.4, 69.54 4.38, 80.5 10.04" stroke="#c92a2a" stroke-width="1" fill="none"></path></g></g><g transform="translate(679.0733500989077 102.7578125) rotate(0 18.5 9)"><text x="18.5" y="14" font-family="Helvetica, Segoe UI Emoji" font-size="16px" fill="#c92a2a" text-anchor="middle" style="white-space: pre;" direction="ltr">1001</text></g><g transform="translate(679.0733500989077 259.0625) rotate(0 18.5 9)"><text x="18.5" y="14" font-family="Helvetica, Segoe UI Emoji" font-size="16px" fill="#c92a2a" text-anchor="middle" style="white-space: pre;" direction="ltr">1001</text></g><g transform="translate(679.0733500989077 322.12890625) rotate(0 18.5 9)"><text x="18.5" y="14" font-family="Helvetica, Segoe UI Emoji" font-size="16px" fill="#c92a2a" text-anchor="middle" style="white-space: pre;" direction="ltr">1001</text></g><g transform="translate(679.0733500989077 354.7578125) rotate(0 18.5 9)"><text x="18.5" y="14" font-family="Helvetica, Segoe UI Emoji" font-size="16px" fill="#c92a2a" text-anchor="middle" style="white-space: pre;" direction="ltr">1001</text></g><g transform="translate(679.0733500989077 448.5859375) rotate(0 18.5 9)"><text x="18.5" y="14" font-family="Helvetica, Segoe UI Emoji" font-size="16px" fill="#c92a2a" text-anchor="middle" style="white-space: pre;" direction="ltr">1001</text></g><g stroke-linecap="round"><g transform="translate(591.5381938489077 103.46093750000003) rotate(0 -47.30502400286491 -1.1331762793287652)"><path d="M-0.21 0.13 C-15.77 0.02, -78.98 -0.59, -94.4 -0.8 M-1.77 -0.85 C-16.86 -1.26, -76.87 -2.01, -92.08 -2.4" stroke="#c92a2a" stroke-width="1" fill="none"></path></g></g><g stroke-linecap="round"><g transform="translate(595.6553813489077 252.78125) rotate(0 -46.23386447895325 -0.509050721637891)"><path d="M0.58 -0.86 C-14.77 -1.42, -76.77 -2.21, -92.64 -2.31 M-0.57 1.3 C-15.94 1.42, -77.78 -0.83, -93.05 -1.04" stroke="#c92a2a" stroke-width="1" fill="none"></path></g></g><g stroke-linecap="round"><g transform="translate(594.3311625989077 319.421875) rotate(0 -46.69814205853265 -0.3403963818121838)"><path d="M-1.18 -0.74 C-16.79 -0.91, -77.65 -1.84, -93.13 -2.17 M0.4 1.49 C-15.37 1.59, -77.89 -0.26, -93.8 -0.82" stroke="#c92a2a" stroke-width="1" fill="none"></path></g></g><g stroke-linecap="round"><g transform="translate(595.3428813489077 351.84375) rotate(0 -46.758594853803515 -1.760204123603188)"><path d="M0.78 -0.49 C-15.12 -0.51, -78.72 -1.12, -94.3 -1.21 M-0.27 -1.8 C-15.87 -2.07, -76.47 -2.82, -91.92 -3.03" stroke="#c92a2a" stroke-width="1" fill="none"></path></g></g><g stroke-linecap="round"><g transform="translate(592.1671000989077 445.46484375) rotate(0 -47.01548357933757 0.06116172719748647)"><path d="M-0.53 -0.55 C-16.29 -0.98, -78.63 -1.49, -94.2 -1.65 M1.39 1.77 C-14.6 1.48, -79.39 0.27, -95.43 -0.03" stroke="#c92a2a" stroke-width="1" fill="none"></path></g></g></svg>