<svg version="1.1" xmlns="http://www.w3.org/2000/svg" viewBox="0 0 595.110893799454 517.6953125" width="595.110893799454" height="517.6953125">
  <!-- svg-source:excalidraw -->
  
  <defs>
    <style>
      @font-face {
        font-family: "Virgil";
        src: url("https://excalidraw.com/Virgil.woff2");
      }
      @font-face {
        font-family: "Cascadia";
        src: url("https://excalidraw.com/Cascadia.woff2");
      }
    </style>
  </defs>
  <g transform="translate(136.33897509890778 10) rotate(0 36 22)"><text x="36" y="18" font-family="Helvetica, Segoe UI Emoji" font-size="19.270312499999978px" fill="#000000" text-anchor="middle" style="white-space: pre;" direction="ltr">my_key </text><text x="36" y="40" font-family="Helvetica, Segoe UI Emoji" font-size="19.270312499999978px" fill="#000000" text-anchor="middle" style="white-space: pre;" direction="ltr">column</text></g><g transform="translate(249.28819384890778 10) rotate(0 41 22)"><text x="41" y="18" font-family="Helvetica, Segoe UI Emoji" font-size="19.270312499999978px" fill="#000000" text-anchor="middle" style="white-space: pre;" direction="ltr">my_value</text><text x="41" y="40" font-family="Helvetica, Segoe UI Emoji" font-size="19.270312499999978px" fill="#000000" text-anchor="middle" style="white-space: pre;" direction="ltr">column</text></g><g stroke-linecap="round" transform="translate(136.68272509890778 184.3828125) rotate(0 44.482421875 47.666015625)"><path d="M-1.93 -0.6 C18.95 0.28, 42.25 -0.43, 88.32 1.7 M0.04 -0.31 C21.51 -0.82, 42.37 -1.11, 88.39 0.71 M89.75 0.75 C89.6 23.2, 89.4 44.95, 87.57 94.8 M89.82 -0.16 C90.22 31.48, 89.47 63.91, 88.02 94.49 M87.53 97.08 C68.38 98.04, 44.28 94.76, -0.67 94.43 M89.62 96.06 C69.52 96.84, 51.74 94.95, 0.32 94.9 M-1.64 95.14 C-0.36 65.5, 0.86 37.49, -1.23 0.28 M0.33 95.61 C-0.43 62.21, -0.77 28.46, 0.14 0.28" stroke="#000000" stroke-width="1" fill="none"></path></g><g stroke-linecap="round" transform="translate(244.72960009890778 184.16796875) rotate(0 44.482421875 47.666015625)"><path d="M0.15 1.07 C19.81 -0.11, 40.03 -0.13, 89.79 -0.65 M0.82 0.52 C34.34 0.62, 68.38 0.78, 89.58 0.52 M89.92 0.98 C88.98 24.74, 90.45 47.69, 90.27 93.95 M89.02 -0.37 C87.91 21.29, 88.69 43.94, 88.27 94.67 M87.75 93.39 C59.23 95.32, 26.16 97.18, -0.99 94.71 M89.34 94.61 C57.17 94.97, 27.27 95.24, -0.42 95.2 M1.25 96.04 C-0.78 72.71, 0.73 52.3, -0.62 1.76 M-0.27 95.61 C0.63 64.3, 0.9 34.69, -0.88 -0.87" stroke="#000000" stroke-width="1" fill="none"></path></g><g stroke-linecap="round" transform="translate(135.48741259890778 288.41015625) rotate(0 45.234375 52.29296875)"><path d="M0.29 -0.05 C18.66 1.79, 41.36 0.18, 89.95 0.15 M-0.89 0.35 C29.6 -0.82, 58.86 -0.18, 90.11 0.52 M91.2 -0.3 C91.11 23.91, 89.7 44.33, 91.55 106.15 M90.39 0.94 C90.06 34.9, 89.89 71.56, 90.64 103.98 M92.37 103.19 C55.64 106.18, 20.47 105.06, -1.13 102.64 M91.27 104.5 C57.37 104.93, 23.11 103.15, 0.02 104.47 M1.94 104.25 C0.78 71.65, -0.9 39.48, 0.76 -0.62 M-0.81 104.84 C-0.23 67.84, 0.8 31.2, 0.91 -0.83" stroke="#000000" stroke-width="1" fill="none"></path></g><g stroke-linecap="round" transform="translate(244.36241259890778 288.40234375) rotate(0 45.234375 52.29296875)"><path d="M1.07 -0.6 C24.33 -0.86, 49.34 0.75, 89.82 1.8 M0.52 -0.35 C28.79 -1.74, 57.62 -0.13, 90.99 -0.4 M91.45 -0.26 C89.92 35.61, 88.04 70.11, 89.09 103.14 M90.1 -0.14 C89.56 21.96, 90.53 41.93, 89.81 105.08 M88.53 105.97 C64.68 103.48, 41.36 103.04, -0.62 105.63 M89.75 104.14 C65.66 105.93, 41.65 104.51, -0.14 103.84 M0.71 104.66 C-1.23 65.39, -0.14 22.41, 1.76 0.31 M0.28 104.56 C-1.66 80.73, -1.21 55.52, -0.87 0.67" stroke="#000000" stroke-width="1" fill="none"></path></g><g stroke-linecap="round" transform="translate(132.67881884890778 403.109375) rotate(0 45.234375 52.29296875)"><path d="M-0.67 -1.1 C24.83 0.55, 44.41 -1.02, 90.73 -1.1 M0.29 0.1 C18.53 0.38, 38.36 1.3, 90.44 0.14 M89.95 1.89 C90.6 25.88, 92.04 52.51, 89.4 104.4 M89.89 0.04 C90.72 20.32, 92.13 41.53, 89.98 105.24 M90.02 103.17 C66.22 104.29, 46.88 105.46, -1.08 103.92 M90.12 103.65 C70.08 103.76, 49.21 104.05, -0.54 105.08 M-1.68 103.23 C-1.9 82.75, 0.67 61.41, 0.54 1.57 M0.38 105.02 C0.3 71.48, -0.2 38.83, 0.02 -0.65" stroke="#000000" stroke-width="1" fill="none"></path></g><g stroke-linecap="round" transform="translate(242.17491259890778 403.1015625) rotate(0 45.234375 52.29296875)"><path d="M-0.6 -0.7 C20.34 -1.2, 43.09 -1.14, 92.27 0.34 M-0.35 0.13 C21.17 -0.18, 44.93 0.05, 90.07 0.29 M90.21 -0.08 C92.18 24.73, 92.27 51.98, 89.02 102.66 M90.33 -0.4 C91.17 26.84, 89.83 51.87, 90.97 104.37 M91.85 103.98 C56.82 104.97, 23.29 103.09, 1.05 103.95 M90.02 104.06 C62.65 103.68, 32.42 103.8, -0.74 105.49 M0.07 103.46 C0.93 72.1, -1.27 41.45, 0.31 -1.39 M-0.03 103.62 C0.52 65.71, -0.59 26.99, 0.67 -0.12" stroke="#000000" stroke-width="1" fill="none"></path></g><g stroke-linecap="round" transform="translate(136.19835009890778 77.66015625) rotate(0 44.978515625 48.638671875)"><path d="M1.39 -0.2 C34.88 1.25, 69.25 2.56, 89.21 -1.06 M0.31 0.48 C29.75 0.95, 59.92 0.79, 89.52 -0.81 M88.26 0.69 C89.88 24.44, 88.58 48.87, 91.12 96.47 M90.66 -0.97 C90.73 26.45, 89.8 52.28, 90.49 96.36 M89.46 96.85 C61.43 95.97, 31.52 99.03, -0.37 95.42 M88.98 97.76 C70.04 96.09, 48.17 96.41, -0.83 97.37 M-0.4 95.94 C0.56 62.85, 1.79 30.27, 1.83 -1.57 M0.24 97.34 C-1.61 62.29, -0.84 26.25, -0.76 -0.58" stroke="#000000" stroke-width="1" fill="none"></path></g><g stroke-linecap="round" transform="translate(244.85850634890778 77.4453125) rotate(0 44.978515625 48.638671875)"><path d="M-0.7 -0.8 C26.92 1.09, 54.63 2.07, 90.29 -1.1 M0.13 -0.99 C34.69 0.92, 69.33 -0.08, 90.25 -0.45 M89.88 1.21 C88.48 35.14, 89.05 66.23, 88.03 96.3 M89.56 0.64 C90.17 29.03, 88.93 59.96, 89.74 97.94 M89.36 96.72 C69.68 96.91, 46.27 98.95, -0.63 97.65 M89.43 98.27 C59.29 96.45, 29.01 96.13, 0.9 97.38 M-1.13 98.86 C-0.38 61.38, 1.42 27.01, -1.39 1.34 M-0.96 97.51 C-0.78 69.89, -1.14 44.92, -0.12 0.38" stroke="#000000" stroke-width="1" fill="none"></path></g><g transform="translate(12.8099882613202 105.47172134638012) rotate(1.1535737979464493 46.5 18.000000000000014)"><text x="0" y="14" font-family="Helvetica, Segoe UI Emoji" font-size="16.131201375757225px" fill="#000000" text-anchor="start" style="white-space: pre;" direction="ltr">Granule 61</text><text x="0" y="32" font-family="Helvetica, Segoe UI Emoji" font-size="16.131201375757225px" fill="#000000" text-anchor="start" style="white-space: pre;" direction="ltr">   8192 rows </text></g><g transform="translate(11.3256132613202 209.53812759638015) rotate(1.1535737979464493 46.5 18)"><text x="0" y="14" font-family="Helvetica, Segoe UI Emoji" font-size="16.131201375757225px" fill="#000000" text-anchor="start" style="white-space: pre;" direction="ltr">Granule 62</text><text x="0" y="32" font-family="Helvetica, Segoe UI Emoji" font-size="16.131201375757225px" fill="#000000" text-anchor="start" style="white-space: pre;" direction="ltr">   8192 rows </text></g><g transform="translate(13.4076445113202 315.25297134638015) rotate(1.1535737979464493 46.5 18)"><text x="0" y="14" font-family="Helvetica, Segoe UI Emoji" font-size="16.131201375757225px" fill="#000000" text-anchor="start" style="white-space: pre;" direction="ltr">Granule 63</text><text x="0" y="32" font-family="Helvetica, Segoe UI Emoji" font-size="16.131201375757225px" fill="#000000" text-anchor="start" style="white-space: pre;" direction="ltr">   8192 rows </text></g><g transform="translate(10.3529570113202 430.44828384638015) rotate(1.1535737979464493 46.5 18)"><text x="0" y="14" font-family="Helvetica, Segoe UI Emoji" font-size="16.131201375757225px" fill="#000000" text-anchor="start" style="white-space: pre;" direction="ltr">Granule 64</text><text x="0" y="32" font-family="Helvetica, Segoe UI Emoji" font-size="16.131201375757225px" fill="#000000" text-anchor="start" style="white-space: pre;" direction="ltr">   8192 rows </text></g><g transform="translate(146.33355004945395 107.5311279296875) rotate(0 35.5 18)"><text x="35.5" y="14" font-family="Helvetica, Segoe UI Emoji" font-size="16px" fill="#1864ab" text-anchor="middle" style="white-space: pre;" direction="ltr">507904 ...</text><text x="35.5" y="32" font-family="Helvetica, Segoe UI Emoji" font-size="16px" fill="#1864ab" text-anchor="middle" style="white-space: pre;" direction="ltr">516095</text></g><g transform="translate(145.77495629945395 322.9100341796875) rotate(0 35.5 18)"><text x="35.5" y="14" font-family="Helvetica, Segoe UI Emoji" font-size="16px" fill="#1864ab" text-anchor="middle" style="white-space: pre;" direction="ltr">524288 ...</text><text x="35.5" y="32" font-family="Helvetica, Segoe UI Emoji" font-size="16px" fill="#1864ab" text-anchor="middle" style="white-space: pre;" direction="ltr">532479</text></g><g transform="translate(148.58745629945395 215.0350341796875) rotate(0 33.5 18)"><text x="33.5" y="14" font-family="Helvetica, Segoe UI Emoji" font-size="16px" fill="#1864ab" text-anchor="middle" style="white-space: pre;" direction="ltr">516096...</text><text x="33.5" y="32" font-family="Helvetica, Segoe UI Emoji" font-size="16px" fill="#1864ab" text-anchor="middle" style="white-space: pre;" direction="ltr">524287</text></g><g transform="translate(148.44292504945395 431.0350341796875) rotate(0 33.5 18)"><text x="33.5" y="14" font-family="Helvetica, Segoe UI Emoji" font-size="16px" fill="#1864ab" text-anchor="middle" style="white-space: pre;" direction="ltr">516096...</text><text x="33.5" y="32" font-family="Helvetica, Segoe UI Emoji" font-size="16px" fill="#1864ab" text-anchor="middle" style="white-space: pre;" direction="ltr">524288</text></g><g transform="translate(342.51714379945395 75.5230712890625) rotate(0 19.775390625 100.59375)" stroke="none" fill="#2b8a3e"><path d="M 0.40,-2.52 Q 0.40,-2.52 1.92,-2.25 3.45,-1.98 4.62,-1.82 5.79,-1.65 7.26,-1.55 8.74,-1.45 10.87,-1.46 13.00,-1.47 15.02,-1.56 17.03,-1.65 18.55,-1.71 20.06,-1.77 21.32,-1.84 22.57,-1.91 23.66,-1.85 24.74,-1.79 26.10,-1.19 27.46,-0.59 29.18,-0.67 30.90,-0.74 32.66,-0.75 34.42,-0.76 35.91,-0.68 37.39,-0.61 38.35,-0.07 39.31,0.47 39.77,1.69 40.23,2.91 40.16,4.49 40.10,6.07 40.11,8.99 40.12,11.92 40.27,13.68 40.43,15.44 40.66,17.02 40.90,18.60 40.89,22.59 40.87,26.58 41.00,29.27 41.12,31.96 41.14,36.62 41.16,41.27 41.14,44.35 41.13,47.43 41.16,49.28 41.20,51.13 41.16,54.49 41.11,57.84 41.08,60.38 41.05,62.93 41.02,65.13 41.00,67.33 40.98,69.97 40.96,72.60 40.99,74.55 41.01,76.50 41.03,78.45 41.05,80.40 41.17,81.49 41.28,82.58 41.44,83.86 41.61,85.15 41.73,86.61 41.85,88.08 41.96,89.32 42.07,90.56 42.08,91.91 42.08,93.27 41.91,95.74 41.73,98.21 41.71,99.64 41.68,101.07 41.39,102.84 41.09,104.61 41.02,105.79 40.94,106.98 40.29,109.35 39.64,111.72 39.31,113.23 38.97,114.74 38.67,116.19 38.37,117.65 38.02,119.36 37.66,121.06 37.58,122.27 37.49,123.48 37.36,125.34 37.22,127.21 37.24,128.57 37.25,129.94 37.15,131.19 37.05,132.45 36.86,134.51 36.68,136.57 36.68,138.03 36.69,139.49 36.66,141.22 36.64,142.95 36.75,144.23 36.87,145.51 37.23,147.33 37.60,149.16 37.98,150.85 38.37,152.55 38.78,153.96 39.18,155.38 39.66,156.97 40.14,158.57 40.49,159.86 40.84,161.16 40.93,162.79 41.02,164.43 40.78,166.32 40.53,168.21 40.36,169.40 40.19,170.60 40.12,171.71 40.05,172.83 39.81,174.08 39.58,175.33 39.49,176.47 39.41,177.62 39.45,178.77 39.48,179.92 39.77,180.98 40.07,182.05 40.14,183.18 40.21,184.31 40.05,185.65 39.89,186.99 39.50,188.04 39.12,189.09 39.13,190.63 39.15,192.16 39.05,194.14 38.94,196.12 38.92,196.78 38.91,197.44 38.98,197.89 39.05,198.34 39.01,198.80 38.96,199.26 38.81,199.69 38.66,200.12 38.41,200.51 38.17,200.89 37.83,201.21 37.50,201.52 37.10,201.75 36.70,201.97 36.26,202.09 35.81,202.22 35.36,202.23 34.90,202.24 34.45,202.15 34.00,202.05 33.59,201.85 33.18,201.65 32.82,201.35 32.47,201.06 32.20,200.69 31.93,200.32 31.75,199.90 31.58,199.47 32.49,200.48 33.40,201.50 32.19,200.52 30.98,199.55 31.99,200.25 32.99,200.96 31.70,201.56 30.40,202.15 29.07,202.55 27.74,202.94 26.72,203.46 25.69,203.98 24.44,204.16 23.19,204.34 21.91,203.83 20.64,203.32 18.54,202.72 16.44,202.13 15.03,201.29 13.62,200.46 12.87,197.49 12.12,194.51 11.75,196.79 11.37,199.07 11.17,198.66 10.98,198.24 10.88,197.79 10.79,197.34 10.81,196.89 10.83,196.43 10.96,195.99 11.08,195.55 11.31,195.15 11.54,194.75 11.86,194.42 12.18,194.09 12.56,193.84 12.95,193.60 13.39,193.45 13.82,193.31 14.28,193.27 14.74,193.23 15.19,193.31 15.64,193.38 16.06,193.56 16.49,193.74 16.85,194.01 17.22,194.29 17.51,194.64 17.80,195.00 18.12,196.17 18.45,197.34 17.52,199.13 16.60,200.92 15.55,201.25 14.51,201.59 13.37,201.89 12.22,202.19 11.30,202.80 10.38,203.41 7.61,204.31 4.85,205.21 4.23,205.11 3.62,205.02 3.08,204.74 2.53,204.46 2.10,204.01 1.67,203.57 1.40,203.01 1.13,202.45 1.06,201.84 0.99,201.23 1.11,200.62 1.24,200.02 1.55,199.49 1.86,198.95 2.33,198.55 2.79,198.14 3.36,197.91 3.93,197.67 4.55,197.63 5.17,197.59 5.76,197.75 6.36,197.91 6.88,198.25 7.39,198.59 7.77,199.07 8.15,199.56 8.35,200.14 8.56,200.73 8.57,201.34 8.57,201.96 8.38,202.55 8.19,203.14 7.83,203.63 7.46,204.13 6.95,204.48 6.44,204.83 5.85,205.01 5.26,205.18 4.64,205.15 4.02,205.13 3.45,204.90 2.87,204.68 2.40,204.29 1.92,203.89 1.60,203.37 1.27,202.84 1.13,202.24 0.99,201.64 1.05,201.03 1.11,200.41 1.36,199.85 1.62,199.28 2.03,198.83 2.45,198.38 3.00,198.08 3.54,197.79 4.15,197.68 4.76,197.57 4.75,197.57 4.75,197.57 4.37,198.55 3.99,199.52 4.76,198.59 5.53,197.65 7.14,196.68 8.76,195.72 9.99,195.38 11.23,195.04 12.40,194.54 13.58,194.04 12.56,195.18 11.54,196.32 11.46,197.70 11.37,199.07 11.17,198.66 10.98,198.24 10.88,197.79 10.79,197.35 10.81,196.89 10.83,196.43 10.96,195.99 11.08,195.55 11.31,195.15 11.54,194.75 11.86,194.42 12.18,194.09 12.56,193.84 12.95,193.60 13.39,193.45 13.82,193.31 14.28,193.27 14.74,193.23 15.19,193.31 15.64,193.38 16.06,193.56 16.48,193.74 16.85,194.01 17.22,194.29 17.51,194.64 17.80,195.00 17.35,197.34 16.89,199.68 16.53,196.70 16.17,193.72 17.19,194.26 18.20,194.81 19.42,195.20 20.63,195.58 21.93,195.90 23.23,196.22 24.39,197.05 25.54,197.87 24.55,197.43 23.56,196.99 24.53,196.46 25.51,195.94 26.72,195.53 27.93,195.13 29.41,194.52 30.88,193.92 32.22,193.63 33.55,193.33 34.60,193.76 35.65,194.18 36.51,194.81 37.37,195.43 38.14,196.43 38.91,197.44 38.98,197.89 39.05,198.34 39.01,198.80 38.96,199.26 38.81,199.69 38.66,200.12 38.41,200.51 38.17,200.89 37.83,201.21 37.50,201.52 37.10,201.75 36.70,201.97 36.26,202.09 35.81,202.22 35.36,202.23 34.90,202.24 34.45,202.15 34.00,202.05 33.59,201.85 33.18,201.65 32.82,201.35 32.47,201.06 32.20,200.69 31.93,200.32 31.75,199.90 31.58,199.47 31.51,198.97 31.44,198.46 31.40,197.13 31.35,195.80 31.55,194.65 31.75,193.50 31.79,192.38 31.82,191.26 31.93,190.20 32.03,189.13 32.16,188.06 32.29,186.99 32.61,185.95 32.92,184.92 32.98,183.71 33.04,182.49 32.74,181.25 32.44,180.02 32.48,178.78 32.52,177.54 32.59,176.46 32.67,175.38 32.92,174.29 33.17,173.19 33.39,172.15 33.61,171.10 33.87,169.19 34.13,167.27 34.27,165.85 34.40,164.43 34.44,163.37 34.48,162.30 34.33,161.17 34.19,160.03 33.84,158.41 33.50,156.78 33.16,155.18 32.83,153.58 32.65,152.21 32.48,150.84 32.44,149.49 32.40,148.14 32.29,146.82 32.19,145.50 32.32,144.21 32.45,142.92 32.44,141.17 32.44,139.41 32.50,137.93 32.56,136.45 32.69,133.15 32.83,129.85 32.89,128.47 32.95,127.08 32.93,125.04 32.91,122.99 33.10,121.63 33.29,120.26 33.57,118.48 33.85,116.70 34.17,115.22 34.49,113.74 34.83,112.26 35.16,110.79 35.43,108.69 35.71,106.59 35.82,105.27 35.93,103.94 36.07,102.36 36.21,100.77 36.41,99.17 36.61,97.56 36.81,95.41 37.01,93.27 37.02,91.91 37.02,90.56 37.13,89.32 37.24,88.08 37.36,86.61 37.48,85.15 37.65,83.86 37.81,82.58 37.93,81.49 38.04,80.40 38.06,78.45 38.08,76.50 38.10,74.55 38.13,72.60 38.11,69.97 38.09,67.34 38.06,65.13 38.03,62.93 37.99,60.39 37.95,57.85 37.90,54.51 37.84,51.17 37.84,49.32 37.84,47.47 37.74,44.41 37.63,41.35 37.45,36.82 37.27,32.29 36.92,29.50 36.57,26.71 36.32,23.06 36.08,19.42 35.76,17.79 35.44,16.16 35.08,14.30 34.71,12.44 34.28,9.26 33.84,6.09 33.79,4.71 33.73,3.34 34.07,4.41 34.41,5.48 32.63,5.45 30.86,5.43 27.81,5.21 24.75,4.99 23.66,4.59 22.57,4.20 21.32,4.12 20.06,4.05 18.54,4.00 17.03,3.94 14.98,3.83 12.94,3.72 10.72,3.61 8.49,3.50 6.73,3.44 4.98,3.38 3.82,3.17 2.66,2.95 1.13,2.74 -0.40,2.52 -0.69,2.43 -0.99,2.35 -1.26,2.20 -1.52,2.04 -1.75,1.83 -1.97,1.62 -2.13,1.36 -2.30,1.10 -2.40,0.81 -2.50,0.51 -2.52,0.21 -2.55,-0.09 -2.50,-0.39 -2.45,-0.70 -2.33,-0.98 -2.21,-1.27 -2.03,-1.51 -1.84,-1.76 -1.60,-1.95 -1.37,-2.15 -1.09,-2.28 -0.81,-2.42 -0.51,-2.48 -0.21,-2.54 0.09,-2.53 0.40,-2.52 0.40,-2.52 L 0.40,-2.52 Z"></path></g><g transform="translate(353.03276879945395 298.7261962890625) rotate(0 19.775390625 100.59375)" stroke="none" fill="#2b8a3e"><path d="M 0.40,-2.52 Q 0.40,-2.52 1.92,-2.25 3.45,-1.98 4.62,-1.82 5.79,-1.65 7.26,-1.55 8.74,-1.45 10.87,-1.46 13.00,-1.47 15.02,-1.56 17.03,-1.65 18.55,-1.71 20.06,-1.77 21.32,-1.84 22.57,-1.91 23.66,-1.85 24.74,-1.79 26.10,-1.19 27.46,-0.59 29.18,-0.67 30.90,-0.74 32.66,-0.75 34.42,-0.76 35.91,-0.68 37.39,-0.61 38.35,-0.07 39.31,0.47 39.77,1.69 40.23,2.91 40.16,4.49 40.10,6.07 40.11,8.99 40.12,11.92 40.27,13.68 40.43,15.44 40.66,17.02 40.90,18.60 40.89,22.59 40.87,26.58 41.00,29.27 41.12,31.96 41.14,36.62 41.16,41.27 41.14,44.35 41.13,47.43 41.16,49.28 41.20,51.13 41.16,54.49 41.11,57.84 41.08,60.38 41.05,62.93 41.02,65.13 41.00,67.33 40.98,69.97 40.96,72.60 40.99,74.55 41.01,76.50 41.03,78.45 41.05,80.40 41.17,81.49 41.28,82.58 41.44,83.86 41.61,85.15 41.73,86.61 41.85,88.08 41.96,89.32 42.07,90.56 42.08,91.91 42.08,93.27 41.91,95.74 41.73,98.21 41.71,99.64 41.68,101.07 41.39,102.84 41.09,104.61 41.02,105.79 40.94,106.98 40.29,109.35 39.64,111.72 39.31,113.23 38.97,114.74 38.67,116.19 38.37,117.65 38.02,119.36 37.66,121.06 37.58,122.27 37.49,123.48 37.36,125.34 37.22,127.21 37.24,128.57 37.25,129.94 37.15,131.19 37.05,132.45 36.86,134.51 36.68,136.57 36.68,138.03 36.69,139.49 36.66,141.22 36.64,142.95 36.75,144.23 36.87,145.51 37.23,147.33 37.60,149.16 37.98,150.85 38.37,152.55 38.78,153.96 39.18,155.38 39.66,156.97 40.14,158.57 40.49,159.86 40.84,161.16 40.93,162.79 41.02,164.43 40.78,166.32 40.53,168.21 40.36,169.40 40.19,170.60 40.12,171.71 40.05,172.83 39.81,174.08 39.58,175.33 39.49,176.47 39.41,177.62 39.45,178.77 39.48,179.92 39.77,180.98 40.07,182.05 40.14,183.18 40.21,184.31 40.05,185.65 39.89,186.99 39.50,188.04 39.12,189.09 39.13,190.63 39.15,192.16 39.05,194.14 38.94,196.12 38.92,196.78 38.91,197.44 38.98,197.89 39.05,198.34 39.01,198.80 38.96,199.26 38.81,199.69 38.66,200.12 38.41,200.51 38.17,200.89 37.83,201.21 37.50,201.52 37.10,201.75 36.70,201.97 36.26,202.09 35.81,202.22 35.36,202.23 34.90,202.24 34.45,202.15 34.00,202.05 33.59,201.85 33.18,201.65 32.82,201.35 32.47,201.06 32.20,200.69 31.93,200.32 31.75,199.90 31.58,199.47 32.49,200.48 33.40,201.50 32.19,200.52 30.98,199.55 31.99,200.25 32.99,200.96 31.70,201.56 30.40,202.15 29.07,202.55 27.74,202.94 26.72,203.46 25.69,203.98 24.44,204.16 23.19,204.34 21.91,203.83 20.64,203.32 18.54,202.72 16.44,202.13 15.03,201.29 13.62,200.46 12.87,197.49 12.12,194.51 11.75,196.79 11.37,199.07 11.17,198.66 10.98,198.24 10.88,197.79 10.79,197.34 10.81,196.89 10.83,196.43 10.96,195.99 11.08,195.55 11.31,195.15 11.54,194.75 11.86,194.42 12.18,194.09 12.56,193.84 12.95,193.60 13.39,193.45 13.82,193.31 14.28,193.27 14.74,193.23 15.19,193.31 15.64,193.38 16.06,193.56 16.49,193.74 16.85,194.01 17.22,194.29 17.51,194.64 17.80,195.00 18.12,196.17 18.45,197.34 17.52,199.13 16.60,200.92 15.55,201.25 14.51,201.59 13.37,201.89 12.22,202.19 11.30,202.80 10.38,203.41 7.61,204.31 4.85,205.21 4.23,205.11 3.62,205.02 3.08,204.74 2.53,204.46 2.10,204.01 1.67,203.57 1.40,203.01 1.13,202.45 1.06,201.84 0.99,201.23 1.11,200.62 1.24,200.02 1.55,199.49 1.86,198.95 2.33,198.55 2.79,198.14 3.36,197.91 3.93,197.67 4.55,197.63 5.17,197.59 5.76,197.75 6.36,197.91 6.88,198.25 7.39,198.59 7.77,199.07 8.15,199.56 8.35,200.14 8.56,200.73 8.57,201.34 8.57,201.96 8.38,202.55 8.19,203.14 7.83,203.63 7.46,204.13 6.95,204.48 6.44,204.83 5.85,205.01 5.26,205.18 4.64,205.15 4.02,205.13 3.45,204.90 2.87,204.68 2.40,204.29 1.92,203.89 1.60,203.37 1.27,202.84 1.13,202.24 0.99,201.64 1.05,201.03 1.11,200.41 1.36,199.85 1.62,199.28 2.03,198.83 2.45,198.38 3.00,198.08 3.54,197.79 4.15,197.68 4.76,197.57 4.75,197.57 4.75,197.57 4.37,198.55 3.99,199.52 4.76,198.59 5.53,197.65 7.14,196.68 8.76,195.72 9.99,195.38 11.23,195.04 12.40,194.54 13.58,194.04 12.56,195.18 11.54,196.32 11.46,197.70 11.37,199.07 11.17,198.66 10.98,198.24 10.88,197.79 10.79,197.35 10.81,196.89 10.83,196.43 10.96,195.99 11.08,195.55 11.31,195.15 11.54,194.75 11.86,194.42 12.18,194.09 12.56,193.84 12.95,193.60 13.39,193.45 13.82,193.31 14.28,193.27 14.74,193.23 15.19,193.31 15.64,193.38 16.06,193.56 16.48,193.74 16.85,194.01 17.22,194.29 17.51,194.64 17.80,195.00 17.35,197.34 16.89,199.68 16.53,196.70 16.17,193.72 17.19,194.26 18.20,194.81 19.42,195.20 20.63,195.58 21.93,195.90 23.23,196.22 24.39,197.05 25.54,197.87 24.55,197.43 23.56,196.99 24.53,196.46 25.51,195.94 26.72,195.53 27.93,195.13 29.41,194.52 30.88,193.92 32.22,193.63 33.55,193.33 34.60,193.76 35.65,194.18 36.51,194.81 37.37,195.43 38.14,196.43 38.91,197.44 38.98,197.89 39.05,198.34 39.01,198.80 38.96,199.26 38.81,199.69 38.66,200.12 38.41,200.51 38.17,200.89 37.83,201.21 37.50,201.52 37.10,201.75 36.70,201.97 36.26,202.09 35.81,202.22 35.36,202.23 34.90,202.24 34.45,202.15 34.00,202.05 33.59,201.85 33.18,201.65 32.82,201.35 32.47,201.06 32.20,200.69 31.93,200.32 31.75,199.90 31.58,199.47 31.51,198.97 31.44,198.46 31.40,197.13 31.35,195.80 31.55,194.65 31.75,193.50 31.79,192.38 31.82,191.26 31.93,190.20 32.03,189.13 32.16,188.06 32.29,186.99 32.61,185.95 32.92,184.92 32.98,183.71 33.04,182.49 32.74,181.25 32.44,180.02 32.48,178.78 32.52,177.54 32.59,176.46 32.67,175.38 32.92,174.29 33.17,173.19 33.39,172.15 33.61,171.10 33.87,169.19 34.13,167.27 34.27,165.85 34.40,164.43 34.44,163.37 34.48,162.30 34.33,161.17 34.19,160.03 33.84,158.41 33.50,156.78 33.16,155.18 32.83,153.58 32.65,152.21 32.48,150.84 32.44,149.49 32.40,148.14 32.29,146.82 32.19,145.50 32.32,144.21 32.45,142.92 32.44,141.17 32.44,139.41 32.50,137.93 32.56,136.45 32.69,133.15 32.83,129.85 32.89,128.47 32.95,127.08 32.93,125.04 32.91,122.99 33.10,121.63 33.29,120.26 33.57,118.48 33.85,116.70 34.17,115.22 34.49,113.74 34.83,112.26 35.16,110.79 35.43,108.69 35.71,106.59 35.82,105.27 35.93,103.94 36.07,102.36 36.21,100.77 36.41,99.17 36.61,97.56 36.81,95.41 37.01,93.27 37.02,91.91 37.02,90.56 37.13,89.32 37.24,88.08 37.36,86.61 37.48,85.15 37.65,83.86 37.81,82.58 37.93,81.49 38.04,80.40 38.06,78.45 38.08,76.50 38.10,74.55 38.13,72.60 38.11,69.97 38.09,67.34 38.06,65.13 38.03,62.93 37.99,60.39 37.95,57.85 37.90,54.51 37.84,51.17 37.84,49.32 37.84,47.47 37.74,44.41 37.63,41.35 37.45,36.82 37.27,32.29 36.92,29.50 36.57,26.71 36.32,23.06 36.08,19.42 35.76,17.79 35.44,16.16 35.08,14.30 34.71,12.44 34.28,9.26 33.84,6.09 33.79,4.71 33.73,3.34 34.07,4.41 34.41,5.48 32.63,5.45 30.86,5.43 27.81,5.21 24.75,4.99 23.66,4.59 22.57,4.20 21.32,4.12 20.06,4.05 18.54,4.00 17.03,3.94 14.98,3.83 12.94,3.72 10.72,3.61 8.49,3.50 6.73,3.44 4.98,3.38 3.82,3.17 2.66,2.95 1.13,2.74 -0.40,2.52 -0.69,2.43 -0.99,2.35 -1.26,2.20 -1.52,2.04 -1.75,1.83 -1.97,1.62 -2.13,1.36 -2.30,1.10 -2.40,0.81 -2.50,0.51 -2.52,0.21 -2.55,-0.09 -2.50,-0.39 -2.45,-0.70 -2.33,-0.98 -2.21,-1.27 -2.03,-1.51 -1.84,-1.76 -1.60,-1.95 -1.37,-2.15 -1.09,-2.28 -0.81,-2.42 -0.51,-2.48 -0.21,-2.54 0.09,-2.53 0.40,-2.52 0.40,-2.52 L 0.40,-2.52 Z"></path></g><g transform="translate(386.79839379945395 165.3941650390625) rotate(0 8.158203125 1.44921875)" stroke="none" fill="#2b8a3e"><path d="M 0.92,-2.40 Q 0.92,-2.40 1.94,-2.04 2.96,-1.68 4.66,-1.26 6.37,-0.84 7.66,-0.62 8.95,-0.40 10.37,-0.24 11.79,-0.08 13.23,0.32 14.67,0.73 14.97,-0.00 15.26,-0.75 15.77,-0.83 16.29,-0.92 16.80,-0.84 17.31,-0.76 17.77,-0.52 18.23,-0.29 18.59,0.08 18.95,0.45 19.17,0.92 19.39,1.39 19.45,1.90 19.51,2.42 19.41,2.93 19.30,3.43 19.03,3.88 18.77,4.33 18.38,4.67 17.99,5.01 17.51,5.20 17.03,5.40 16.51,5.43 15.99,5.46 15.49,5.33 14.99,5.19 14.56,4.90 14.13,4.62 13.81,4.21 13.49,3.80 13.32,3.31 13.15,2.82 13.15,2.30 13.14,1.78 13.31,1.29 13.47,0.79 13.78,0.38 14.09,-0.03 14.52,-0.32 14.94,-0.62 15.44,-0.76 15.94,-0.90 16.46,-0.88 16.98,-0.85 17.46,-0.67 17.94,-0.48 18.34,-0.14 18.74,0.18 19.01,0.62 19.28,1.06 19.40,1.57 19.51,2.07 19.46,2.59 19.41,3.11 19.19,3.58 18.98,4.05 18.62,4.43 18.27,4.81 17.82,5.06 17.36,5.30 17.36,5.30 17.36,5.30 14.96,5.77 12.57,6.24 11.50,5.95 10.42,5.67 9.16,5.40 7.90,5.14 6.59,4.78 5.27,4.41 3.17,3.82 1.08,3.23 0.07,2.82 -0.92,2.40 -1.19,2.26 -1.47,2.11 -1.70,1.91 -1.93,1.70 -2.11,1.44 -2.28,1.19 -2.39,0.90 -2.50,0.60 -2.54,0.30 -2.57,-0.00 -2.54,-0.31 -2.50,-0.62 -2.39,-0.91 -2.27,-1.20 -2.10,-1.46 -1.92,-1.71 -1.69,-1.92 -1.45,-2.12 -1.18,-2.27 -0.90,-2.41 -0.60,-2.48 -0.30,-2.56 0.00,-2.55 0.31,-2.55 0.62,-2.48 0.92,-2.40 0.92,-2.40 L 0.92,-2.40 Z"></path></g><g transform="translate(397.31401879945395 388.5972900390625) rotate(0 8.158203125 1.44921875)" stroke="none" fill="#2b8a3e"><path d="M 0.92,-2.40 Q 0.92,-2.40 1.94,-2.04 2.96,-1.68 4.66,-1.26 6.37,-0.84 7.66,-0.62 8.95,-0.40 10.37,-0.24 11.79,-0.08 13.23,0.32 14.67,0.73 14.97,-0.00 15.26,-0.75 15.77,-0.83 16.29,-0.92 16.80,-0.84 17.31,-0.76 17.77,-0.52 18.23,-0.29 18.59,0.08 18.95,0.45 19.17,0.92 19.39,1.39 19.45,1.90 19.51,2.42 19.41,2.93 19.30,3.43 19.03,3.88 18.77,4.33 18.38,4.67 17.99,5.01 17.51,5.20 17.03,5.40 16.51,5.43 15.99,5.46 15.49,5.33 14.99,5.19 14.56,4.90 14.13,4.62 13.81,4.21 13.49,3.80 13.32,3.31 13.15,2.82 13.15,2.30 13.14,1.78 13.31,1.29 13.47,0.79 13.78,0.38 14.09,-0.03 14.52,-0.32 14.94,-0.62 15.44,-0.76 15.94,-0.90 16.46,-0.88 16.98,-0.85 17.46,-0.67 17.94,-0.48 18.34,-0.14 18.74,0.18 19.01,0.62 19.28,1.06 19.40,1.57 19.51,2.07 19.46,2.59 19.41,3.11 19.19,3.58 18.98,4.05 18.62,4.43 18.27,4.81 17.82,5.06 17.36,5.30 17.36,5.30 17.36,5.30 14.96,5.77 12.57,6.24 11.50,5.95 10.42,5.67 9.16,5.40 7.90,5.14 6.59,4.78 5.27,4.41 3.17,3.82 1.08,3.23 0.07,2.82 -0.92,2.40 -1.19,2.26 -1.47,2.11 -1.70,1.91 -1.93,1.70 -2.11,1.44 -2.28,1.19 -2.39,0.90 -2.50,0.60 -2.54,0.30 -2.57,-0.00 -2.54,-0.31 -2.50,-0.62 -2.39,-0.91 -2.27,-1.20 -2.10,-1.46 -1.92,-1.71 -1.69,-1.92 -1.45,-2.12 -1.18,-2.27 -0.90,-2.41 -0.60,-2.48 -0.30,-2.56 0.00,-2.55 0.31,-2.55 0.62,-2.48 0.92,-2.40 0.92,-2.40 L 0.92,-2.40 Z"></path></g><g stroke-linecap="round" transform="translate(246.86870629945395 124.1558837890625) rotate(0 42 23.322265625)"><path d="M0 0 C0 0, 0 0, 0 0 M0 0 C0 0, 0 0, 0 0 M0.39 25.73 C10.11 13.76, 15.27 3.41, 19.48 -1.94 M-0.51 24.75 C5.12 17.81, 11.02 12.71, 20.97 0.3 M-0.61 48.4 C18.47 27.94, 34.92 9.18, 44.09 -2.01 M1.97 48.4 C9.64 37.77, 19.17 26.01, 41.85 -0.08 M23.57 48.59 C37.22 30.7, 53.32 13.53, 63.35 1.31 M22 46.95 C34.01 35, 46.58 21.46, 63.63 -0.06 M43.73 46.22 C55.92 32.18, 70.99 14.06, 82.45 1.58 M43.92 47.39 C55.64 33.65, 67.49 20.45, 85.06 -0.21 M65.16 47.89 C73.37 41.02, 76.86 30.85, 84.87 24.1 M64.31 46.62 C69.53 41.2, 74.33 37.28, 84.66 23.59" stroke="#ced4da" stroke-width="2" fill="none"></path><path d="M-1.28 -0.74 C20.15 -0.71, 37.42 -0.16, 82.08 -0.83 M0.26 -0.91 C18.87 -0.21, 38.67 0.27, 83.65 0.98 M82.38 1.59 C83.85 16.64, 84.14 34.46, 82.95 46.98 M84.31 0.98 C83.75 13.18, 83.62 24.3, 84.55 46.08 M82.44 47.86 C64.72 45.19, 44.35 47.39, -1.67 45.77 M83.33 46.18 C61.65 45.44, 38.52 46.57, -0.96 47.02 M0.59 46.68 C-0.06 29.14, 1.1 13.51, -1.33 0.64 M-0.56 47.33 C-0.19 30.6, 0.1 12.1, 0.47 -0.17" stroke="#c92a2a" stroke-width="4" fill="none"></path></g><g stroke-linecap="round" transform="translate(245.19683129945395 78.0386962890625) rotate(0 42 23.322265625)"><path d="M0 0 C0 0, 0 0, 0 0 M0 0 C0 0, 0 0, 0 0 M-0.9 25.7 C9.66 14.17, 13.33 5.97, 22.06 1.79 M-0.2 23.23 C5.85 17.86, 11.11 10.31, 20.78 -0.13 M2.46 46.96 C12.37 37.56, 18.74 24.2, 41.76 -0.07 M1.38 48.31 C14.77 31.28, 30.65 13.67, 42.18 0.6 M21.23 46.24 C31.03 37.19, 40.64 24.17, 63.55 0.28 M21.78 48.3 C31.59 38.17, 39.25 28.97, 63.45 -0.97 M45.43 48.63 C57.26 30.9, 73.51 12.37, 86.29 -1.3 M43.66 47.06 C51.67 38.1, 61.27 27.48, 84.51 0.25 M65.36 45.21 C71.51 41.25, 76.92 31.01, 85.53 23.47 M65.33 47.85 C72.29 39.46, 78.5 32.65, 85.2 23.96" stroke="#ced4da" stroke-width="2" fill="none"></path><path d="M0.88 -1.6 C30.01 1.16, 63.78 -1.22, 83.05 -0.16 M-0.18 0.22 C20.09 -0.24, 39.59 1.19, 84.61 0.09 M85.21 -1.84 C84.84 10.45, 85.32 21.65, 83.97 45.77 M83.38 0.19 C83.96 19.31, 83.15 36.71, 84.98 46.35 M84.01 46.47 C54.11 46.93, 23.08 44.82, -0.14 48.64 M83.88 46.49 C65.75 46.75, 46.82 45.47, 0.58 47.22 M-0.38 48.36 C1.27 35.35, 0.28 20.41, 1.14 0.2 M0.34 46.23 C0.64 28.78, -0.11 12.73, -0.94 0.44" stroke="#495057" stroke-width="4" fill="none"></path></g><g stroke-linecap="round" transform="translate(244.88042504945395 182.0621337890625) rotate(0 42 23.322265625)"><path d="M0 0 C0 0, 0 0, 0 0 M0 0 C0 0, 0 0, 0 0 M-1.67 22.64 C4.61 17.7, 14.75 10.39, 22.66 -0.48 M1.11 23.77 C4.52 18.51, 10.09 11.77, 21 0.68 M-0.35 45.47 C12.58 35.9, 23.85 23.04, 42.61 -0.35 M2.06 46.88 C15.31 30.7, 29.36 13.32, 42.92 0.19 M23.36 46.95 C34.6 31.84, 49.6 14.01, 64.78 -1.2 M22.32 48.22 C32.25 36.72, 41.08 24.79, 64.14 -0.61 M41.93 47.19 C57.08 33.5, 66.89 18.53, 82.78 -0.04 M42.74 46.39 C55.35 33.58, 67 20.19, 84.51 0.64 M63.08 48.23 C73.25 38.65, 79.86 28.02, 85.29 25.16 M65.96 46.25 C70.34 40.69, 76.75 34.86, 85.28 25.43" stroke="#ced4da" stroke-width="2" fill="none"></path><path d="M0.76 0.83 C21.03 -0.05, 36.8 0.09, 83.57 -0.99 M-0.57 -0.4 C26.41 -0.82, 51.56 -0.25, 83.91 -0.44 M83.68 -1.1 C82.94 18.03, 84.07 33.32, 82.12 44.79 M83.28 0.96 C84.83 13.87, 84.07 28.91, 83.41 47.51 M83.06 45.8 C52.86 48.01, 21.17 46.21, -0.14 46.71 M83.87 46.63 C62.55 45.65, 39.66 45.39, -0.21 47.38 M-1.49 46.09 C-0.11 35.16, 0.87 26.27, -0.08 -0.94 M-0.29 47 C-0.02 35.65, -0.02 24.72, -0.62 0.28" stroke="#495057" stroke-width="4" fill="none"></path></g><g stroke-linecap="round" transform="translate(241.42339379945395 295.6051025390625) rotate(0 42 23.322265625)"><path d="M0 0 C0 0, 0 0, 0 0 M0 0 C0 0, 0 0, 0 0 M-1.45 24.71 C5.64 15.13, 13.73 9.52, 23 -1.49 M-0.53 23.95 C8.57 14.35, 15.03 5.67, 20.53 -0.56 M-0.77 48.86 C10.34 37.79, 19.4 26.83, 43.54 1.22 M0.78 47.61 C15.29 29.92, 30.43 12.99, 42.31 -0.4 M24.35 47.58 C30.65 37.51, 41.1 26.63, 62.24 -0.43 M22.18 46.77 C36.09 31.05, 51.93 13.72, 64.43 0.62 M43.84 45.75 C55.52 34.84, 66.83 21.73, 85.42 -1.39 M43.74 47.8 C55.97 31.92, 70.1 17.7, 83.96 -0.1 M64.94 46.12 C71.75 38.05, 81.37 30.41, 83.16 25.75 M64.13 47 C71.12 39.71, 77.92 32.86, 83.82 24.96" stroke="#ced4da" stroke-width="2" fill="none"></path><path d="M-1 -0.37 C27.19 -1.61, 53.23 1.13, 82.01 1.04 M0.26 0.08 C22.42 0.95, 44.92 -0.19, 83.97 0.98 M84.83 1.97 C84.14 14.64, 85.56 32.21, 84.18 46.47 M84.46 0.79 C83.84 14.78, 83.86 30.46, 84.34 47.63 M84.59 47.71 C53.69 48.31, 26.01 45.62, 0.01 47.36 M83.36 46.82 C51.51 46.1, 17.36 45.67, -0.68 46.56 M1.21 47.95 C1.08 32.74, -0.52 20.15, -1.93 0.98 M-0.47 46.15 C-0.74 29.02, 0.32 10.93, 0.82 -0.85" stroke="#495057" stroke-width="4" fill="none"></path></g><g stroke-linecap="round" transform="translate(247.59526879945395 409.3433837890625) rotate(0 42 23.322265625)"><path d="M0 0 C0 0, 0 0, 0 0 M0 0 C0 0, 0 0, 0 0 M-1.65 24.35 C7.8 16.67, 13.08 10.64, 19.53 -1.52 M0.82 24.29 C8.59 16, 15.82 7.46, 21.56 -0.71 M1.19 47.57 C11.08 35.74, 23.26 26.75, 41.51 -0.2 M0.64 47.58 C15.69 31.38, 30.37 12.92, 41.66 -0.69 M20.67 47.46 C37.71 33.17, 49.26 14.95, 65.33 -0.61 M22.39 47.08 C34.83 33.08, 45.62 20.78, 64.01 -0.4 M45.55 46.72 C57.19 29.96, 71.2 14.88, 86.31 0.42 M43.16 47.95 C56.9 31.88, 69.72 17.96, 84.49 -0.18 M63.72 49.04 C73.36 41.13, 79.42 33.27, 84.76 26.09 M64.41 47.56 C71.53 39.35, 79.04 29.77, 83.93 23.72" stroke="#ced4da" stroke-width="2" fill="none"></path><path d="M1.94 -1.16 C29.24 1.87, 58.74 0.41, 85.22 1.94 M-0.1 0.73 C32.64 -0.96, 67.46 -1.14, 83.36 -0.7 M85.06 -1.22 C84.48 14.85, 85.37 31.81, 85.21 45.71 M84.92 0 C85.12 14.75, 83.37 28.52, 83.39 46.17 M82.68 48.59 C60.91 45.73, 35.03 47.76, -1.38 46.06 M84.96 47.27 C62.39 45.96, 39.34 46.53, 1 46.67 M0.99 46.08 C1.48 33.29, 0.85 21.92, -1.43 -1.89 M-0.9 46.62 C0.48 33.89, -0.16 22.12, -0.11 -0.66" stroke="#495057" stroke-width="4" fill="none"></path></g><g stroke-linecap="round" transform="translate(246.95855004945395 230.0855712890625) rotate(0 42 23.322265625)"><path d="M0 0 C0 0, 0 0, 0 0 M0 0 C0 0, 0 0, 0 0 M1.5 24.18 C3.85 19.44, 10.88 11.84, 22.9 -0.1 M0.59 23.84 C6.98 14.8, 14.8 6.75, 21.36 -0.89 M-0.41 45.68 C8.81 35.91, 18.54 27.12, 43.27 1.3 M0.81 48.01 C13.25 33.22, 25.52 18.23, 43.05 0.04 M22.65 48.67 C32.06 35.08, 42.23 25.89, 61.89 0.96 M22.09 46.87 C36.15 31.1, 51.32 14.74, 63.95 0.26 M44.36 48.14 C51.84 38.19, 62.23 27.79, 83.52 1.83 M43.94 46.56 C57.31 30.94, 73.71 13.82, 84.12 0.67 M66.1 47.59 C71.29 39.99, 79.19 31.42, 86.41 26.43 M65.93 47.69 C69.79 40.75, 75.12 36.44, 84.25 24.47" stroke="#ced4da" stroke-width="2" fill="none"></path><path d="M-0.77 -1.89 C26.41 -0.08, 57.39 -0.14, 82.64 -1.1 M-0.76 0.51 C17.5 -0.82, 36.29 0.29, 83.08 0.56 M84.8 -1.79 C82.18 15.6, 84.63 29.42, 83.36 45.26 M83.71 0.12 C85.13 14.53, 84 30.75, 84.82 46.86 M83.94 48 C52.44 48.83, 23.07 46.1, -1.88 45.7 M84.59 47.09 C59.94 47.39, 34.69 46.56, 0.62 47.42 M1.27 48.11 C-1.13 26.99, 0.71 11.65, -0.99 1.65 M0.63 47.22 C0 32.94, -0.33 20.25, -0.42 0.78" stroke="#495057" stroke-width="4" fill="none"></path></g><g stroke-linecap="round" transform="translate(243.50151879945395 343.6285400390625) rotate(0 42 23.322265625)"><path d="M0 0 C0 0, 0 0, 0 0 M0 0 C0 0, 0 0, 0 0 M0.89 23.38 C6.24 16.51, 15.54 8.24, 19.84 1.17 M0.13 24.63 C4.13 18.05, 9.07 12.29, 20.77 -1.02 M2.64 48.34 C16 32.42, 29.49 15.04, 43.87 1.05 M1.39 46.65 C13.18 32.83, 25.74 18.8, 42.26 -0.98 M22.69 46.7 C35.98 32.72, 48.5 15.19, 63.55 0.66 M21.88 46.56 C33 36.2, 42.53 23.88, 64.61 -0.48 M42.19 47.87 C55.05 35.43, 65.68 22.96, 82.52 0.91 M44.23 46.65 C57.4 31.65, 72.17 14.76, 83.81 1.22 M63.89 46.8 C71.84 40.39, 80.21 28.4, 85.84 25.34 M64.76 46.66 C70.85 40.43, 77.34 33.48, 85.05 25.22" stroke="#ced4da" stroke-width="2" fill="none"></path><path d="M-0.37 1.16 C28.89 1.59, 62.41 -1.57, 85.04 -0.71 M0.08 0.19 C21.39 0.25, 41.47 -0.24, 84.98 0.32 M85.97 -0.06 C83.1 17.37, 85.16 32.23, 83.82 47.1 M84.79 0.17 C83.27 10.85, 83.9 21.68, 84.99 47.21 M85.07 46.27 C58.94 48.77, 29.44 46.9, 0.71 48.57 M84.18 47.43 C54.34 46.02, 24.65 45.43, -0.09 46.66 M1.3 47.85 C0.4 30.98, 1.85 14.16, 0.98 1.78 M-0.49 46.1 C0.89 31.2, 0.95 15.54, -0.85 0.23" stroke="#495057" stroke-width="4" fill="none"></path></g><g stroke-linecap="round" transform="translate(249.67339379945395 457.3668212890625) rotate(0 42 23.322265625)"><path d="M0 0 C0 0, 0 0, 0 0 M0 0 C0 0, 0 0, 0 0 M0.54 25.18 C6.87 16.65, 14.83 7.48, 19.81 1.07 M0.48 25.05 C8.27 16.07, 15.83 7.05, 20.62 -0.67 M1.35 47.03 C10.48 38.37, 22.4 24.58, 42.46 0.94 M1.36 47.26 C14.2 33.49, 24.77 18.68, 41.97 0.22 M22.56 48.71 C36.37 32.86, 46.17 21.46, 63.38 -0.51 M22.19 47.78 C32.78 34.15, 45.05 22.25, 63.59 0.22 M43.16 46.46 C51.55 35.63, 61.66 27.76, 84.32 0.79 M44.38 47.89 C57.47 31.51, 72.74 14.41, 83.73 0.85 M66.81 49.05 C73.21 40.89, 79.69 32, 86.18 25.85 M65.32 46.49 C70.3 41.23, 73.93 35.18, 83.81 25.39" stroke="#ced4da" stroke-width="2" fill="none"></path><path d="M-1.16 -0.11 C31.44 -0.77, 59.82 0.4, 85.94 1.96 M0.73 -0.8 C26.07 0.66, 52.66 -0.55, 83.3 0.24 M82.78 0.47 C84.07 15.42, 85.93 29.32, 83.07 46.55 M84 0.87 C85.41 15.61, 85.41 32.39, 83.53 46.58 M85.94 48.19 C53.48 46.38, 25.86 44.71, -0.59 45.99 M84.62 47.47 C50.26 47.67, 17.98 48.45, 0.03 46.31 M-0.56 48.39 C-1.31 31.17, -0.25 12.06, -1.89 -0.57 M-0.02 47.45 C-0.29 29.59, 0.62 12.1, -0.66 0.49" stroke="#495057" stroke-width="4" fill="none"></path></g><g transform="translate(251.86870629945395 135.9781494140625) rotate(0 37 11.5)"><text x="37" y="18" font-family="Helvetica, Segoe UI Emoji" font-size="20px" fill="#c92a2a" text-anchor="middle" style="white-space: pre;" direction="ltr">125</text></g><g transform="translate(250.19683129945395 89.8609619140625) rotate(0 37 11.5)"><text x="37" y="18" font-family="Helvetica, Segoe UI Emoji" font-size="20px" fill="#495057" text-anchor="middle" style="white-space: pre;" direction="ltr">124</text></g><g transform="translate(249.88042504945395 193.8843994140625) rotate(0 37 11.5)"><text x="37" y="18" font-family="Helvetica, Segoe UI Emoji" font-size="20px" fill="#495057" text-anchor="middle" style="white-space: pre;" direction="ltr">126</text></g><g transform="translate(246.42339379945395 307.4273681640625) rotate(0 37 11.5)"><text x="37" y="18" font-family="Helvetica, Segoe UI Emoji" font-size="20px" fill="#495057" text-anchor="middle" style="white-space: pre;" direction="ltr">128</text></g><g transform="translate(252.59526879945395 421.1656494140625) rotate(0 37 11.5)"><text x="37" y="18" font-family="Helvetica, Segoe UI Emoji" font-size="20px" fill="#495057" text-anchor="middle" style="white-space: pre;" direction="ltr">130</text></g><g transform="translate(251.95855004945395 241.9078369140625) rotate(0 37 11.5)"><text x="37" y="18" font-family="Helvetica, Segoe UI Emoji" font-size="20px" fill="#495057" text-anchor="middle" style="white-space: pre;" direction="ltr">127</text></g><g transform="translate(248.50151879945395 355.4508056640625) rotate(0 37 11.5)"><text x="37" y="18" font-family="Helvetica, Segoe UI Emoji" font-size="20px" fill="#495057" text-anchor="middle" style="white-space: pre;" direction="ltr">129</text></g><g transform="translate(254.67339379945395 469.1890869140625) rotate(0 37 11.5)"><text x="37" y="18" font-family="Helvetica, Segoe UI Emoji" font-size="20px" fill="#495057" text-anchor="middle" style="white-space: pre;" direction="ltr">131</text></g><g transform="translate(416.67730004945395 82.0777587890625) rotate(0 62 34.5)"><text x="62" y="18" font-family="Helvetica, Segoe UI Emoji" font-size="20px" fill="#2b8a3e" text-anchor="middle" style="white-space: pre;" direction="ltr">Skip Index</text><text x="62" y="41" font-family="Helvetica, Segoe UI Emoji" font-size="20px" fill="#2b8a3e" text-anchor="middle" style="white-space: pre;" direction="ltr">Block of </text><text x="62" y="64" font-family="Helvetica, Segoe UI Emoji" font-size="20px" fill="#2b8a3e" text-anchor="middle" style="white-space: pre;" direction="ltr">Two Granules</text></g><g transform="translate(420.85308129945395 313.0426025390625) rotate(0 62 34.5)"><text x="62" y="18" font-family="Helvetica, Segoe UI Emoji" font-size="20px" fill="#2b8a3e" text-anchor="middle" style="white-space: pre;" direction="ltr">Skip Index</text><text x="62" y="41" font-family="Helvetica, Segoe UI Emoji" font-size="20px" fill="#2b8a3e" text-anchor="middle" style="white-space: pre;" direction="ltr">Block of </text><text x="62" y="64" font-family="Helvetica, Segoe UI Emoji" font-size="20px" fill="#2b8a3e" text-anchor="middle" style="white-space: pre;" direction="ltr">Two Granules</text></g><g transform="translate(417.72808129945395 183.6636962890625) rotate(0 81.5 46)"><text x="81.5" y="18" font-family="Helvetica, Segoe UI Emoji" font-size="20px" fill="#2b8a3e" text-anchor="middle" style="white-space: pre;" direction="ltr">index calc is </text><text x="81.5" y="41" font-family="Helvetica, Segoe UI Emoji" font-size="20px" fill="#2b8a3e" text-anchor="middle" style="white-space: pre;" direction="ltr">set of (124, 125,</text><text x="81.5" y="64" font-family="Helvetica, Segoe UI Emoji" font-size="20px" fill="#2b8a3e" text-anchor="middle" style="white-space: pre;" direction="ltr">126, 127) so block</text><text x="81.5" y="87" font-family="Helvetica, Segoe UI Emoji" font-size="20px" fill="#2b8a3e" text-anchor="middle" style="white-space: pre;" direction="ltr">not skipped</text></g><g transform="translate(422.11089379945395 414.4215087890625) rotate(0 81.5 34.5)"><text x="81.5" y="18" font-family="Helvetica, Segoe UI Emoji" font-size="20px" fill="#2b8a3e" text-anchor="middle" style="white-space: pre;" direction="ltr">set of (128, 129,</text><text x="81.5" y="41" font-family="Helvetica, Segoe UI Emoji" font-size="20px" fill="#2b8a3e" text-anchor="middle" style="white-space: pre;" direction="ltr">130, 131) so block</text><text x="81.5" y="64" font-family="Helvetica, Segoe UI Emoji" font-size="20px" fill="#2b8a3e" text-anchor="middle" style="white-space: pre;" direction="ltr">skipped</text></g></svg>