<svg xmlns="http://www.w3.org/2000/svg" width="40" height="40" fill="none" viewBox="0 0 40 40"><g clip-path="url(#clip0)"><path fill="#fff" fill-opacity=".8" d="M10.0013 3.3335C8.16797 3.3335 6.66797 4.8335 6.66797 6.66683V33.3335C6.66797 35.1668 8.16797 36.6668 10.0013 36.6668H28.6211L21.668 29.7137V21.6668H29.7148L33.3346 25.2866V13.3335L23.3346 3.3335H10.0013ZM25.0013 25.0002V28.3335L33.5788 36.911L36.9121 33.5776L28.3346 25.0002H25.0013ZM38.0905 34.756L34.7572 38.0894L36.4238 39.756C36.7488 40.081 37.2772 40.081 37.6022 39.756L39.7572 37.6011C40.0822 37.2744 40.0822 36.7477 39.7572 36.4227L38.0905 34.756Z"/></g><defs><clipPath id="clip0"><rect width="40" height="40" fill="#fff"/></clipPath></defs></svg>