<svg xmlns="http://www.w3.org/2000/svg" width="60" height="60" fill="none" viewBox="0 0 60 60"><circle cx="30" cy="30" r="30" fill="#FAFAFA"/><path fill="#F14600" d="M26.4016 14.4C26.1196 14.4001 25.8466 14.4996 25.6306 14.6809C25.4146 14.8621 25.2693 15.1137 25.2203 15.3914L21.6438 30.8789L21.6461 30.8813C21.617 30.985 21.602 31.0923 21.6016 31.2C21.6016 31.5183 21.728 31.8235 21.953 32.0486C22.1781 32.2736 22.4833 32.4 22.8016 32.4H29.4016L27.625 44.161C27.6092 44.2397 27.6014 44.3198 27.6016 44.4C27.6016 44.7183 27.728 45.0235 27.953 45.2486C28.1781 45.4736 28.4833 45.6 28.8016 45.6C29.0196 45.5997 29.2335 45.5399 29.4201 45.4272C29.6067 45.3145 29.7592 45.153 29.8609 44.9602H29.8633L38.1695 29.5078L38.1578 29.4867C38.2999 29.2896 38.4016 29.0614 38.4016 28.8C38.4016 28.1376 37.864 27.6 37.2016 27.6H30.6016L34.6961 16.0922C34.7657 15.9375 34.8016 15.7697 34.8016 15.6C34.8016 15.2818 34.6751 14.9765 34.4501 14.7515C34.225 14.5265 33.9198 14.4 33.6016 14.4H26.4016Z"/></svg>