<svg xmlns="http://www.w3.org/2000/svg" width="48" height="48" fill="none" viewBox="0 0 48 48"><path fill="#eee" d="M21.8005 4.19995C12.6005 5.19995 5.20051 12.6 4.20051 21.6C3.20051 30.9999 8.60051 39.3999 16.8005 42.5999C17.4005 42.7999 18.0005 42.3999 18.0005 41.5999V38.3999C18.0005 38.3999 17.2005 38.5999 16.2005 38.5999C13.4005 38.5999 12.2005 36.1999 12.0005 34.7999C11.8005 33.9999 11.4005 33.3999 10.8005 32.7999C10.2005 32.5999 10.0005 32.6 10.0005 32.4C10.0005 32 10.6005 31.9999 10.8005 31.9999C12.0005 31.9999 13.0005 33.3999 13.4005 33.9999C14.4005 35.5999 15.6005 35.9999 16.2005 35.9999C17.0005 35.9999 17.6005 35.7999 18.0005 35.5999C18.2005 34.1999 18.8005 32.7999 20.0005 31.9999C15.4005 30.9999 12.0005 28.4 12.0005 24C12.0005 21.8 13.0005 19.6 14.4005 18C14.2005 17.6 14.0005 16.6 14.0005 15.2C14.0005 14.4 14.0005 13.4 14.4005 12.6C14.4005 12.2 14.8005 12 15.0005 12H15.2005C16.2005 12.2 18.2005 12.8 20.0005 14.6C21.2005 14.2 22.6005 14 24.0005 14C25.4005 14 26.8005 14.2 28.0005 14.6C29.8005 12.8 32.0005 12.2 33.0005 12H33.2005C33.6005 12 33.8005 12.2 34.0005 12.6C34.0005 13.4 34.0005 14.4 34.0005 15.2C34.0005 16.8 33.8005 17.6 33.6005 18C35.0005 19.6 36.0005 21.6 36.0005 24C36.0005 28.4 32.6005 30.9999 28.0005 31.9999C29.2005 32.9999 30.0005 34.7999 30.0005 36.5999V41.7999C30.0005 42.3999 30.6005 42.9999 31.4005 42.7999C38.8005 39.7999 44.0005 32.5999 44.0005 24.2C44.0005 12.2 33.8005 2.79995 21.8005 4.19995Z"/></svg>