<svg xmlns="http://www.w3.org/2000/svg" width="48" height="48" fill="none" viewBox="0 0 48 48"><path fill="#FFC107" d="M43.611 19.083H42V19H24V27H35.303C33.654 31.657 29.223 35 24 35C17.373 35 12 29.627 12 23C12 16.373 17.373 11 24 11C27.059 11 29.842 12.154 31.961 14.039L37.618 8.382C34.046 5.053 29.268 3 24 3C12.955 3 4 11.955 4 23C4 34.045 12.955 43 24 43C35.045 43 44 34.045 44 23C44 21.659 43.862 20.35 43.611 19.083Z"/><path fill="#FF3D00" d="M6.30469 13.691L12.8757 18.51C14.6537 14.108 18.9597 11 23.9987 11C27.0577 11 29.8407 12.154 31.9597 14.039L37.6167 8.382C34.0447 5.053 29.2667 3 23.9987 3C16.3167 3 9.65469 7.337 6.30469 13.691Z"/><path fill="#4CAF50" d="M23.9998 43.0002C29.1658 43.0002 33.8598 41.0232 37.4088 37.8082L31.2188 32.5702C29.2108 34.0912 26.7148 35.0002 23.9998 35.0002C18.7978 35.0002 14.3808 31.6832 12.7168 27.0542L6.19482 32.0792C9.50482 38.5562 16.2268 43.0002 23.9998 43.0002Z"/><path fill="#1976D2" d="M43.611 19.083H42V19H24V27H35.303C34.511 29.237 33.072 31.166 31.216 32.571C31.217 32.57 31.218 32.57 31.219 32.569L37.409 37.807C36.971 38.205 44 33 44 23C44 21.659 43.862 20.35 43.611 19.083Z"/></svg>