<svg xmlns="http://www.w3.org/2000/svg" xmlns:xlink="http://www.w3.org/1999/xlink" viewBox="0 0 1280 960"><defs><style>.a{isolation:isolate;}.b{fill:url(#a);}.c{fill:url(#b);}.d{fill:url(#c);}.e{fill:url(#d);}.f{fill:#e7eaee;}.g{fill:url(#e);}.ad,.ae,.ak,.am,.an,.as,.au,.ay,.bb,.bc,.h,.x{fill:none;stroke-linecap:round;stroke-miterlimit:10;}.h{stroke:#fff;}.am,.an,.as,.bb,.bc,.h,.x{stroke-width:4px;}.ab,.i{fill:#616172;}.i,.t{opacity:0.05;}.j{fill:url(#f);}.k{fill:#a6b1ba;}.l{fill:url(#g);}.m{fill:url(#h);}.n{fill:url(#i);}.o{fill:url(#j);}.p{fill:url(#k);}.aj,.az,.q{opacity:0.5;}.r{fill:url(#l);}.s{fill:url(#m);}.t{fill:#057afe;mix-blend-mode:multiply;}.u{fill:url(#n);}.v{fill:url(#o);}.aa,.w{fill:#444450;}.w{opacity:0.2;}.x{stroke:url(#p);}.ap,.at,.y{opacity:0.8;}.y{fill:url(#q);}.z{fill:#313138;}.ac{fill:#f6f6f6;}.ad{stroke:#313138;}.ad,.ae,.ak,.au,.ay{stroke-width:2px;}.ae{stroke:#616172;}.af{fill:#00d880;}.ag,.ao{fill:#257af4;}.ah{fill:#f8cc47;}.ai{fill:#f14600;}.aj{fill:url(#r);}.ak{stroke:#dce6ef;}.al,.ba{opacity:0.3;}.al{fill:url(#s);}.am{stroke:#b6c2cb;}.an{stroke:#7f8a93;}.ao{opacity:0.4;}.ap{fill:#444451;}.aq{fill:url(#t);}.ar{fill:url(#u);}.as{stroke:url(#v);}.at{fill:url(#w);}.au{stroke:#b3c5da;}.av{fill:#c40000;}.aw{fill:#dd4a07;}.ax{fill:#ff571d;}.ay{stroke:#dd4a07;}.az{fill:url(#x);}.ba{fill:url(#y);}.bb{stroke:#b7c3cc;}.bc{stroke:#c5d0da;}</style><linearGradient id="a" x1="413.52" y1="757.37" x2="866.46" y2="757.37" gradientUnits="userSpaceOnUse"><stop offset="0" stop-color="#e9ecef"/><stop offset="0.32" stop-color="#e6e9ed"/><stop offset="0.69" stop-color="#c6ced4"/><stop offset="1" stop-color="#bac3ca"/></linearGradient><linearGradient id="b" x1="413.53" y1="821.94" x2="866.47" y2="821.94" gradientUnits="userSpaceOnUse"><stop offset="0" stop-color="#e8ebee"/><stop offset="0.25" stop-color="#e7eaed"/><stop offset="0.54" stop-color="#cbd2d8"/><stop offset="0.7" stop-color="#c6cdd3"/><stop offset="1" stop-color="#bbc4cb"/></linearGradient><linearGradient id="c" x1="529.85" y1="719.76" x2="750.14" y2="719.76" gradientUnits="userSpaceOnUse"><stop offset="0" stop-color="#e9ecef"/><stop offset="0.65" stop-color="#c7ced4"/><stop offset="1" stop-color="#c4ccd2"/></linearGradient><linearGradient id="d" x1="644.2" y1="714.01" x2="658.87" y2="633.34" gradientUnits="userSpaceOnUse"><stop offset="0" stop-color="#e9ecef" stop-opacity="0"/><stop offset="0.92" stop-color="#818f99"/></linearGradient><linearGradient id="e" x1="618.4" y1="413.27" x2="661.58" y2="413.27" gradientUnits="userSpaceOnUse"><stop offset="0" stop-color="#d5dce4"/><stop offset="1" stop-color="#b1bbc4"/></linearGradient><linearGradient id="f" x1="344.76" y1="154.84" x2="592.43" y2="154.84" xlink:href="#e"/><linearGradient id="g" x1="611.1" y1="207.77" x2="668.89" y2="207.77" xlink:href="#e"/><linearGradient id="h" x1="687.57" y1="154.84" x2="935.24" y2="154.84" xlink:href="#e"/><linearGradient id="i" x1="310.74" y1="137.64" x2="335.99" y2="170.89" gradientUnits="userSpaceOnUse"><stop offset="0" stop-color="#e9ecef"/><stop offset="1" stop-color="#c8d3dd"/></linearGradient><linearGradient id="j" x1="942.14" y1="139.28" x2="970.47" y2="170.62" xlink:href="#i"/><linearGradient id="k" x1="610.3" y1="123.9" x2="665.96" y2="181.9" xlink:href="#i"/><linearGradient id="l" x1="628.19" y1="94.18" x2="651.79" y2="94.18" xlink:href="#e"/><linearGradient id="m" x1="630.42" y1="53.49" x2="648.67" y2="77.49" xlink:href="#i"/><linearGradient id="n" x1="77.96" y1="577.16" x2="569.64" y2="577.16" gradientUnits="userSpaceOnUse"><stop offset="0" stop-color="#b7c3cc"/><stop offset="1" stop-color="#a8b5be"/></linearGradient><linearGradient id="o" x1="66.79" y1="551.2" x2="580.8" y2="551.2" gradientUnits="userSpaceOnUse"><stop offset="0" stop-color="#c8d3dd"/><stop offset="1" stop-color="#8b99a2"/></linearGradient><linearGradient id="p" x1="321.96" y1="323.99" x2="551.22" y2="323.99" gradientUnits="userSpaceOnUse"><stop offset="0" stop-color="#a8b0b6"/><stop offset="1" stop-color="#7f8a93"/></linearGradient><linearGradient id="q" x1="118.5" y1="441.22" x2="529.25" y2="441.22" gradientUnits="userSpaceOnUse"><stop offset="0" stop-color="#dfe4ea"/><stop offset="1" stop-color="#f5f6ff"/></linearGradient><linearGradient id="r" x1="116.25" y1="550.11" x2="529.61" y2="557.24" xlink:href="#o"/><linearGradient id="s" x1="118.51" y1="594.85" x2="529.26" y2="594.85" gradientUnits="userSpaceOnUse"><stop offset="0" stop-color="#7a9ac1"/><stop offset="1" stop-color="#b8cee8" stop-opacity="0.5"/></linearGradient><linearGradient id="t" x1="1185.47" y1="577.16" x2="713.15" y2="577.16" xlink:href="#n"/><linearGradient id="u" x1="707.29" y1="546.9" x2="1209.96" y2="555.57" xlink:href="#o"/><linearGradient id="v" x1="728.78" y1="323.99" x2="958.04" y2="323.99" gradientUnits="userSpaceOnUse"><stop offset="0" stop-color="#c5d0da"/><stop offset="1" stop-color="#a8b0b6"/></linearGradient><linearGradient id="w" x1="658.13" y1="441.22" x2="1068.89" y2="441.22" gradientTransform="matrix(-1, 0, 0, 1, 1819.63, 0)" gradientUnits="userSpaceOnUse"><stop offset="0" stop-color="#cce4ff"/><stop offset="1" stop-color="#e3f1fe"/></linearGradient><linearGradient id="x" x1="658.13" y1="555.43" x2="1068.89" y2="555.43" gradientTransform="matrix(-1, 0, 0, 1, 1819.63, 0)" gradientUnits="userSpaceOnUse"><stop offset="0" stop-color="#aecdec" stop-opacity="0.66"/><stop offset="1" stop-color="#6b9ac1"/></linearGradient><linearGradient id="y" x1="658.14" y1="594.85" x2="1068.89" y2="594.85" gradientTransform="matrix(-1, 0, 0, 1, 1819.63, 0)" xlink:href="#s"/></defs><title>215</title><g class="a"><ellipse class="b" cx="639.99" cy="757.37" rx="226.47" ry="129.13"/><path class="c" d="M866.47,757.37c0,71.32-101.39,129.13-226.47,129.13S413.53,828.69,413.53,757.37Z"/><path class="d" d="M719.23,697.75c-34.26-19.47-36.59-52-36.59-52H597.35s-2.34,32.53-36.6,52c-19.13,10.19-30.9,24.06-30.9,39.35,0,31.3,49.31,56.67,110.14,56.67S750.14,768.4,750.14,737.1C750.14,721.81,738.36,707.94,719.23,697.75Z"/><path class="e" d="M719.24,697.75c-34.26-19.47-36.59-52-36.59-52h-85.3s-2.33,32.53-36.59,52c-19.13,10.19-30.91,24.06-30.91,39.35,0,31.3,49.32,56.67,110.15,56.67S750.15,768.4,750.15,737.1C750.15,721.81,738.37,707.94,719.24,697.75Z"/><ellipse class="f" cx="639.99" cy="645.75" rx="42.65" ry="24.31"/><path class="g" d="M640,168.49c-11.92,0-21.59,5.51-21.59,12.31v465c0,6.79,9.67,12.31,21.59,12.31s21.59-5.52,21.59-12.31V180.8C661.58,174,651.91,168.49,640,168.49Z"/><path class="h" d="M576.84,750.62a172.28,172.28,0,0,1-14.74,16.62"/><path class="h" d="M607.87,675.24c-3.14,22.78-10,42.06-19.79,58.75"/><path class="h" d="M586.89,713.52A93.31,93.31,0,0,1,560.14,746"/><line class="h" x1="624.33" y1="277" x2="624.33" y2="356.33"/><path class="i" d="M413.52,757.37a77,77,0,0,0,5.36,28c74.39-21.16,125.49-65,125.49-115.6a77.07,77.07,0,0,0-5.36-28C464.62,662.94,413.52,706.75,413.52,757.37Z"/><path class="i" d="M748.52,644A76.63,76.63,0,0,0,744,669.79c0,48.9,47.67,91.44,118,113.36a76.62,76.62,0,0,0,4.51-25.78C866.47,708.48,818.8,665.93,748.52,644Z"/><path class="j" d="M587.43,159.84H349.76a5,5,0,0,1,0-10H587.43a5,5,0,0,1,0,10Z"/><path class="k" d="M356.11,149.84h-6.35a5,5,0,0,0,0,10h12.31A27.3,27.3,0,0,0,356.11,149.84Z"/><path class="k" d="M652.32,229.69l-31.47,4.42a8.4,8.4,0,0,0-2.45,5.68v15.74c7.1,11.36,25.74,16,43.18,6.49V239.79C661.58,235.6,657.91,231.91,652.32,229.69Z"/><path class="l" d="M640,157.3c-16,0-28.89,7.37-28.89,16.47v68c0,9.1,12.93,16.48,28.89,16.48s28.9-7.38,28.9-16.48v-68C668.89,164.67,656,157.3,640,157.3Z"/><path class="k" d="M656.51,170.87l-42.06,5.91a11.27,11.27,0,0,0-3.26,7.58v21c9.49,15.18,33.94,29.7,57.7,12.43V184.36C668.89,178.78,664,173.84,656.51,170.87Z"/><path class="m" d="M692.57,159.84H930.24a5,5,0,0,0,0-10H692.57a5,5,0,0,0,0,10Z"/><path class="k" d="M923.89,149.84h6.35a5,5,0,0,1,0,10H917.93A27.3,27.3,0,0,1,923.89,149.84Z"/><circle class="n" cx="323.8" cy="154.84" r="25.96"/><path class="h" d="M314.24,139a18.54,18.54,0,0,0-6.56,6.89"/><circle class="o" cx="956.2" cy="154.84" r="25.96"/><path class="h" d="M946.64,139a18.62,18.62,0,0,0-6.56,6.89"/><path class="k" d="M701.11,149.84h-6.35a5,5,0,0,0,0,10h12.31A27.3,27.3,0,0,0,701.11,149.84Z"/><circle class="p" cx="639.99" cy="154.84" r="52.56"/><path class="h" d="M619.84,120a40.4,40.4,0,0,0-12.73,11.64"/><path class="r" d="M640,71c-6.52,0-11.8,3-11.8,6.73v32.82c0,3.72,5.28,6.73,11.8,6.73s11.8-3,11.8-6.73V77.77C651.79,74.06,646.51,71,640,71Z"/><path class="k" d="M646.73,72.25l-17.2,2.42a4.6,4.6,0,0,0-1.34,3.1v8.6c3.88,6.21,13.88,12.15,23.6,5.09V77.77C651.79,75.49,649.79,73.47,646.73,72.25Z"/><circle class="s" cx="639.99" cy="66.07" r="20.15"/><path class="t" d="M956.24,128.66a26,26,0,0,0-25.49,21c-.16,0-.31,0-.47,0H692.61c-.09,0-.17,0-.26,0a52.59,52.59,0,0,0-40.52-46.24V82.17a20.15,20.15,0,1,0-23.6,0v21.24a52.59,52.59,0,0,0-40.53,46.24c-.08,0-.16,0-.24,0H349.79c-.16,0-.31,0-.47,0a26,26,0,1,0,0,9.91c.16,0,.31,0,.47,0H587.46l.24,0a52.53,52.53,0,0,0,23.43,38.93v43c0,4.2,2.76,8,7.31,10.95V624.57a46.3,46.3,0,0,0-10.16,4.73c-33.89,2.72-65.38,9.7-92.72,20l-.09,0q-6.44,2.43-12.56,5.08l-.05,0q-4.5,2-8.82,4l-.36.17q-4.2,2-8.22,4.18l-.35.18-2.58,1.4-.38.21c-2.56,1.42-5.06,2.88-7.5,4.36l-.7.44q-3.48,2.13-6.78,4.35l-.81.55c-.66.45-1.33.91-2,1.37l-.8.56c-1.18.83-2.34,1.68-3.48,2.53l-.82.61c-.59.44-1.17.88-1.74,1.33l-1,.8c-.56.43-1.12.87-1.67,1.32l-.12.1c-1.21,1-2.39,2-3.56,3l-1.11,1c-.48.41-.95.83-1.42,1.25l-1.22,1.12c-.7.64-1.38,1.28-2.06,1.93-.42.4-.84.8-1.25,1.21l-1.21,1.2-1.21,1.23-1.08,1.12c-.67.71-1.32,1.41-2,2.13l-1,1.09c-.4.46-.81.92-1.21,1.39s-.63.73-.93,1.1c-.53.63-1,1.27-1.57,1.91L433,704.7c-.45.57-.88,1.13-1.31,1.7l-.78,1.05-1.22,1.71c-.2.28-.41.57-.6.86-.56.8-1.09,1.61-1.62,2.42l-.6.94c-.37.59-.73,1.18-1.09,1.77l-.56.94c-.5.84-1,1.68-1.45,2.53l-.35.66c-.37.69-.72,1.38-1.07,2.07-.16.3-.31.61-.46.92-.36.72-.7,1.44-1,2.16l-.27.58c-.4.89-.78,1.78-1.14,2.68-.12.28-.23.56-.34.84-.27.69-.54,1.38-.8,2.08-.09.27-.19.53-.29.79-.32.92-.63,1.84-.92,2.76l-.18.59c-.23.77-.46,1.53-.67,2.29-.07.29-.15.57-.23.85-.22.86-.43,1.72-.63,2.59,0,.1-.05.19-.07.29-.21,1-.4,1.9-.57,2.86-.05.27-.1.54-.14.81-.14.77-.25,1.54-.36,2.31,0,.23-.07.46-.1.69-.13,1-.24,1.93-.32,2.9,0,.21,0,.42-.05.63-.07.8-.12,1.6-.16,2.39,0,.28,0,.55,0,.83,0,1-.07,2-.07,3,0,1.17,0,2.33.09,3.49,0,.31,0,.61.06.92.05.86.1,1.72.18,2.57,0,.32.08.64.11,1,.09.85.19,1.7.31,2.54,0,.29.09.57.13.86.14.88.28,1.77.45,2.65,0,.24.09.47.14.7.19.94.39,1.88.61,2.81,0,.18.09.36.13.54.25,1,.51,2,.79,3,0,.11.07.23.11.35.3,1.05.64,2.11,1,3.16l.06.16c.37,1.12.78,2.23,1.2,3.33h0C441.36,843,531.82,886.29,640,886.29h0c109.59,0,201-44.39,222-103.35h0a79.05,79.05,0,0,0,3.37-12.7l0-.17c.17-1,.33-2,.47-3.06,0-.21,0-.42.07-.62.11-.88.21-1.75.29-2.63,0-.44,0-.87.08-1.31.05-.66.11-1.31.14-2,0-1.1.07-2.2.07-3.31,0-15.6-4.86-30.55-13.75-44.39h0a113,113,0,0,0-11-14.37l0,0c-1.63-1.82-3.35-3.62-5.13-5.39l-.15-.15q-2.64-2.61-5.47-5.14l-.27-.24q-2.81-2.49-5.81-4.9l-.35-.29c-2-1.59-4-3.15-6.16-4.69l-.43-.31c-1-.72-2-1.43-3-2.14l-.19-.13c-1.08-.75-2.18-1.48-3.29-2.22l-.48-.31c-1-.65-2-1.29-3-1.92-.15-.1-.3-.2-.46-.29-1.12-.71-2.25-1.4-3.4-2.09l-.49-.29-3-1.77-.69-.39c-1.16-.66-2.33-1.32-3.52-2l-.43-.23c-1.05-.57-2.1-1.13-3.17-1.69l-.87-.45c-1.19-.61-2.4-1.23-3.62-1.83l-.28-.14-3.43-1.65-1-.47-3.44-1.58-.36-.16c-1.24-.56-2.49-1.1-3.75-1.64l-1.13-.48c-1-.45-2.1-.89-3.17-1.32l-.79-.33-3.82-1.51-1.21-.46c-1-.39-2-.77-3-1.14l-1.1-.41c-1.28-.47-2.58-.93-3.88-1.38l-1.26-.44-3-1-1.32-.44c-1.24-.4-2.48-.8-3.74-1.19h0a354,354,0,0,0-76.78-14.5,46.22,46.22,0,0,0-10.15-4.73V252.51c4.54-2.92,7.3-6.75,7.3-10.95v-43a52.55,52.55,0,0,0,23.43-38.93l.26,0H930.28c.16,0,.32,0,.47,0a26,26,0,1,0,25.49-30.92Z"/><ellipse class="u" cx="323.8" cy="577.16" rx="245.84" ry="140.17"/><ellipse class="v" cx="323.8" cy="551.2" rx="257" ry="148.24"/><path class="t" d="M581,551.2C581,469.32,465.9,403,324,403S67,469.32,67,551.2c0,17.29,5.15,33.88,14.58,49.31C101,666.8,202.14,717.32,324,717.32S546.88,666.8,566.38,600.51C575.81,585.08,581,568.49,581,551.2Z"/><path class="f" d="M323.8,437C188,437,78,499.74,78,577.16a82.31,82.31,0,0,0,3.42,23.35c35.23,57.63,130.45,98.93,242.42,98.93S531,658.14,566.22,600.51a82.67,82.67,0,0,0,3.42-23.35C569.64,499.74,459.57,437,323.8,437Z"/><path class="w" d="M579.75,536.76C569.23,474,490.88,422.69,387.5,407.52l-29.35,32.07-169.87,157,23.36-8.09L256,634.55,279,626.46l44.83,46.08,244-112.85Z"/><line class="x" x1="323.96" y1="180.8" x2="549.22" y2="467.19"/><path class="y" d="M323.88,462.94c113.42,0,205.37,51.14,205.37,114.22V419.5c0-63.08-91.95-114.22-205.37-114.22S118.5,356.42,118.5,419.5V577.16C118.5,514.08,210.45,462.94,323.88,462.94Z"/><polygon class="z" points="274.91 344.14 274.91 504.94 323.88 529.27 323.88 368.48 274.91 344.14"/><polygon class="aa" points="372.69 344.14 372.69 504.94 323.88 529.27 323.88 368.48 372.69 344.14"/><polygon class="ab" points="323.8 320.98 274.91 344.14 323.88 368.48 372.69 344.14 323.8 320.98"/><polygon class="ac" points="317.85 370.76 317.85 522.27 280.33 503.63 280.33 352.12 317.85 370.76"/><line class="ad" x1="280.9" y1="438.4" x2="317.9" y2="456.6"/><line class="ad" x1="280.9" y1="482.4" x2="317.9" y2="500.6"/><line class="ad" x1="280.9" y1="460.4" x2="317.9" y2="478.6"/><line class="ad" x1="280.9" y1="416.62" x2="317.9" y2="434.82"/><line class="ad" x1="280.9" y1="394.62" x2="317.9" y2="412.82"/><line class="ad" x1="280.9" y1="372.62" x2="317.9" y2="390.82"/><line class="ae" x1="294.08" y1="368.72" x2="314.1" y2="378.57"/><ellipse class="af" cx="287.25" cy="365.4" rx="3.7" ry="4.26" transform="translate(-126.99 154.6) rotate(-24.86)"/><line class="ae" x1="294.08" y1="390.86" x2="314.1" y2="400.71"/><ellipse class="ag" cx="287.25" cy="387.53" rx="3.7" ry="4.26" transform="translate(-136.29 156.65) rotate(-24.86)"/><line class="ae" x1="294.08" y1="412.46" x2="314.1" y2="422.31"/><ellipse class="ag" cx="287.25" cy="409.14" rx="3.7" ry="4.26" transform="translate(-145.37 158.65) rotate(-24.86)"/><line class="ae" x1="294.08" y1="433.77" x2="314.1" y2="443.62"/><ellipse class="ag" cx="287.25" cy="430.45" rx="3.7" ry="4.26" transform="translate(-154.33 160.62) rotate(-24.86)"/><line class="ae" x1="294.08" y1="456.64" x2="314.1" y2="466.49"/><ellipse class="ah" cx="287.25" cy="453.32" rx="3.7" ry="4.26" transform="translate(-163.94 162.74) rotate(-24.86)"/><line class="ae" x1="294.08" y1="478.64" x2="314.1" y2="488.49"/><ellipse class="ag" cx="287.25" cy="475.32" rx="3.7" ry="4.26" transform="translate(-173.19 164.78) rotate(-24.86)"/><line class="ae" x1="294.08" y1="499.87" x2="314.1" y2="509.72"/><ellipse class="ai" cx="287.25" cy="496.55" rx="3.7" ry="4.26" transform="translate(-182.12 166.75) rotate(-24.86)"/><polygon class="ab" points="207.15 376.25 256.04 402.1 304.92 377.81 256.04 353.09 207.15 376.25"/><polygon class="ab" points="391.56 353.09 440.45 376.25 391.56 402.1 342.67 377.81 391.56 353.09"/><polygon class="aa" points="304.92 377.81 304.92 538.6 256.04 562.89 256.04 402.1 304.92 377.81"/><polygon class="z" points="207.15 376.25 207.15 537.04 256.04 562.89 256.04 402.1 207.15 376.25"/><polygon class="aa" points="391.56 402.1 391.56 562.89 440.45 537.04 440.45 376.25 391.56 402.1"/><polygon class="z" points="342.67 377.81 342.67 538.6 391.56 562.89 391.56 402.1 342.67 377.81"/><polygon class="ac" points="385.7 403.14 385.7 554.65 348.19 536.01 348.19 384.5 385.7 403.14"/><line class="ad" x1="348.65" y1="472.16" x2="385.65" y2="490.36"/><line class="ad" x1="348.65" y1="516.16" x2="385.65" y2="534.36"/><line class="ad" x1="348.65" y1="494.16" x2="385.65" y2="512.36"/><line class="ad" x1="348.65" y1="450.37" x2="385.65" y2="468.57"/><line class="ad" x1="348.65" y1="428.37" x2="385.65" y2="446.57"/><line class="ad" x1="348.65" y1="406.37" x2="385.65" y2="424.57"/><line class="ae" x1="361.83" y1="402.47" x2="381.86" y2="412.32"/><ellipse class="af" cx="355" cy="399.15" rx="3.7" ry="4.26" transform="translate(-134.9 186.2) rotate(-24.86)"/><line class="ae" x1="361.83" y1="424.61" x2="381.86" y2="434.46"/><ellipse class="ag" cx="355" cy="421.29" rx="3.7" ry="4.26" transform="translate(-144.2 188.26) rotate(-24.86)"/><line class="ae" x1="361.83" y1="446.21" x2="381.86" y2="456.06"/><ellipse class="ag" cx="355" cy="442.89" rx="3.7" ry="4.26" transform="translate(-153.28 190.26) rotate(-24.86)"/><line class="ae" x1="361.83" y1="467.53" x2="381.86" y2="477.38"/><ellipse class="ag" cx="355" cy="464.21" rx="3.7" ry="4.26" transform="translate(-162.24 192.23) rotate(-24.86)"/><line class="ae" x1="361.83" y1="490.39" x2="381.86" y2="500.24"/><ellipse class="ah" cx="355" cy="487.07" rx="3.7" ry="4.26" transform="translate(-171.85 194.35) rotate(-24.86)"/><line class="ae" x1="361.83" y1="512.39" x2="381.86" y2="522.24"/><ellipse class="ag" cx="355" cy="509.07" rx="3.7" ry="4.26" transform="translate(-181.1 196.39) rotate(-24.86)"/><line class="ae" x1="361.83" y1="533.62" x2="381.86" y2="543.47"/><ellipse class="ai" cx="355" cy="530.3" rx="3.7" ry="4.26" transform="translate(-190.03 198.35) rotate(-24.86)"/><polygon class="z" points="274.91 412.08 274.91 572.88 323.8 600.28 323.8 437.93 274.91 412.08"/><polygon class="aa" points="372.69 412.08 372.69 574.43 323.8 600.28 323.8 437.93 372.69 412.08"/><polygon class="ab" points="274.91 412.08 323.88 387.4 372.69 412.08 323.8 437.93 274.91 412.08"/><polygon class="z" points="459.32 435.77 459.32 596.56 410.44 572.27 410.44 411.48 459.32 435.77"/><polygon class="ac" points="453.64 438.14 453.64 589.65 416.12 571.01 416.12 419.5 453.64 438.14"/><line class="ad" x1="416.38" y1="506.36" x2="453.38" y2="524.56"/><line class="ad" x1="416.38" y1="550.36" x2="453.38" y2="568.56"/><line class="ad" x1="416.38" y1="528.36" x2="453.38" y2="546.56"/><line class="ad" x1="416.38" y1="484.58" x2="453.38" y2="502.78"/><line class="ad" x1="416.38" y1="462.58" x2="453.38" y2="480.78"/><line class="ad" x1="416.38" y1="440.58" x2="453.38" y2="458.78"/><line class="ae" x1="429.56" y1="436.68" x2="449.58" y2="446.53"/><ellipse class="af" cx="422.73" cy="433.36" rx="3.7" ry="4.26" transform="translate(-143 217.84) rotate(-24.86)"/><line class="ae" x1="429.56" y1="458.82" x2="449.58" y2="468.67"/><ellipse class="ag" cx="422.73" cy="455.5" rx="3.7" ry="4.26" transform="translate(-152.31 219.89) rotate(-24.86)"/><line class="ae" x1="429.56" y1="480.42" x2="449.58" y2="490.27"/><ellipse class="ag" cx="422.73" cy="477.1" rx="3.7" ry="4.26" transform="translate(-161.39 221.9) rotate(-24.86)"/><line class="ae" x1="429.56" y1="501.74" x2="449.58" y2="511.59"/><ellipse class="ag" cx="422.73" cy="498.42" rx="3.7" ry="4.26" transform="translate(-170.35 223.87) rotate(-24.86)"/><line class="ae" x1="429.56" y1="524.6" x2="449.58" y2="534.45"/><ellipse class="ah" cx="422.73" cy="521.28" rx="3.7" ry="4.26" transform="translate(-179.96 225.99) rotate(-24.86)"/><line class="ae" x1="429.56" y1="546.6" x2="449.58" y2="556.45"/><ellipse class="ag" cx="422.73" cy="543.28" rx="3.7" ry="4.26" transform="translate(-189.21 228.03) rotate(-24.86)"/><line class="ae" x1="429.56" y1="567.83" x2="449.58" y2="577.68"/><ellipse class="ai" cx="422.73" cy="564.51" rx="3.7" ry="4.26" transform="translate(-198.13 229.99) rotate(-24.86)"/><polygon class="aa" points="508.21 408.36 508.21 569.15 459.32 596.56 459.32 435.77 508.21 408.36"/><polygon class="ab" points="459.32 385.19 508.21 408.36 459.32 435.77 410.44 411.48 459.32 385.19"/><polygon class="z" points="342.67 447.91 342.67 608.7 391.56 634.55 391.56 473.76 342.67 447.91"/><polygon class="ac" points="348.26 456 348.26 607.57 385.97 627.5 385.97 475.94 348.26 456"/><polygon class="ac" points="280.18 419.84 280.18 571.41 317.89 591.35 317.89 439.78 280.18 419.84"/><polygon class="ac" points="212.42 383.82 212.42 535.39 250.12 555.32 250.12 403.76 212.42 383.82"/><polygon class="aa" points="440.45 446.35 440.45 607.14 391.56 634.55 391.56 473.76 440.45 446.35"/><line class="ad" x1="348.5" y1="543.53" x2="385.5" y2="562.79"/><line class="ad" x1="348.5" y1="587.53" x2="385.5" y2="606.79"/><line class="ad" x1="348.5" y1="565.53" x2="385.5" y2="584.79"/><line class="ad" x1="348.5" y1="521.75" x2="385.5" y2="541.01"/><line class="ad" x1="348.5" y1="499.75" x2="385.5" y2="519.01"/><line class="ad" x1="348.5" y1="477.75" x2="385.5" y2="497.01"/><line class="ae" x1="361.68" y1="474.23" x2="381.7" y2="484.65"/><ellipse class="af" cx="354.85" cy="470.71" rx="3.66" ry="4.31" transform="translate(-176.77 216.01) rotate(-27.39)"/><line class="ae" x1="361.68" y1="496.36" x2="381.7" y2="506.79"/><ellipse class="ag" cx="354.85" cy="492.85" rx="3.66" ry="4.31" transform="translate(-186.95 218.49) rotate(-27.39)"/><line class="ae" x1="361.68" y1="517.97" x2="381.7" y2="528.39"/><ellipse class="ag" cx="354.85" cy="514.45" rx="3.66" ry="4.31" transform="translate(-196.89 220.92) rotate(-27.39)"/><line class="ae" x1="361.68" y1="539.28" x2="381.7" y2="549.71"/><ellipse class="ag" cx="354.85" cy="535.76" rx="3.66" ry="4.31" transform="translate(-206.69 223.31) rotate(-27.39)"/><line class="ae" x1="361.68" y1="562.14" x2="381.7" y2="572.57"/><ellipse class="ah" cx="354.85" cy="558.63" rx="3.66" ry="4.31" transform="translate(-217.21 225.87) rotate(-27.39)"/><line class="ae" x1="361.68" y1="584.14" x2="381.7" y2="594.57"/><ellipse class="ag" cx="354.85" cy="580.63" rx="3.66" ry="4.31" transform="translate(-227.33 228.33) rotate(-27.39)"/><line class="ae" x1="361.68" y1="605.38" x2="381.7" y2="615.8"/><ellipse class="ai" cx="354.85" cy="601.86" rx="3.66" ry="4.31" transform="translate(-237.1 230.71) rotate(-27.39)"/><line class="ad" x1="280.9" y1="507.96" x2="317.9" y2="527.22"/><line class="ad" x1="280.9" y1="551.96" x2="317.9" y2="571.22"/><line class="ad" x1="280.9" y1="529.96" x2="317.9" y2="549.22"/><line class="ad" x1="280.9" y1="486.17" x2="317.9" y2="505.44"/><line class="ad" x1="280.9" y1="464.17" x2="317.9" y2="483.44"/><line class="ad" x1="280.9" y1="442.17" x2="317.9" y2="461.44"/><line class="ae" x1="294.08" y1="438.65" x2="314.1" y2="449.08"/><ellipse class="af" cx="287.25" cy="435.14" rx="3.66" ry="4.31" transform="translate(-167.98 180.93) rotate(-27.39)"/><line class="ae" x1="294.08" y1="460.79" x2="314.1" y2="471.22"/><ellipse class="ag" cx="287.25" cy="457.27" rx="3.66" ry="4.31" transform="translate(-178.16 183.41) rotate(-27.39)"/><line class="ae" x1="294.08" y1="482.39" x2="314.1" y2="492.82"/><ellipse class="ag" cx="287.25" cy="478.88" rx="3.66" ry="4.31" transform="translate(-188.1 185.83) rotate(-27.39)"/><line class="ae" x1="294.08" y1="503.71" x2="314.1" y2="514.13"/><ellipse class="ag" cx="287.25" cy="500.19" rx="3.66" ry="4.31" transform="translate(-197.91 188.22) rotate(-27.39)"/><line class="ae" x1="294.08" y1="526.57" x2="314.1" y2="537"/><ellipse class="ah" cx="287.25" cy="523.06" rx="3.66" ry="4.31" transform="translate(-208.43 190.78) rotate(-27.39)"/><line class="ae" x1="294.08" y1="548.57" x2="314.1" y2="559"/><ellipse class="ag" cx="287.25" cy="545.06" rx="3.66" ry="4.31" transform="translate(-218.55 193.25) rotate(-27.39)"/><line class="ae" x1="294.08" y1="569.8" x2="314.1" y2="580.23"/><ellipse class="ai" cx="287.25" cy="566.29" rx="3.66" ry="4.31" transform="translate(-228.31 195.63) rotate(-27.39)"/><line class="ad" x1="213.09" y1="470.89" x2="250.09" y2="490.16"/><line class="ad" x1="213.09" y1="514.89" x2="250.09" y2="534.16"/><line class="ad" x1="213.09" y1="492.89" x2="250.09" y2="512.16"/><line class="ad" x1="213.09" y1="449.11" x2="250.09" y2="468.38"/><line class="ad" x1="213.09" y1="427.11" x2="250.09" y2="446.38"/><line class="ad" x1="213.09" y1="405.11" x2="250.09" y2="424.38"/><line class="ae" x1="226.27" y1="401.59" x2="246.3" y2="412.02"/><ellipse class="af" cx="219.45" cy="398.07" rx="3.66" ry="4.31" transform="translate(-158.53 145.58) rotate(-27.39)"/><line class="ae" x1="226.27" y1="423.73" x2="246.3" y2="434.15"/><ellipse class="ag" cx="219.45" cy="420.21" rx="3.66" ry="4.31" transform="translate(-168.71 148.06) rotate(-27.39)"/><line class="ae" x1="226.27" y1="445.33" x2="246.3" y2="455.76"/><ellipse class="ag" cx="219.45" cy="441.81" rx="3.66" ry="4.31" transform="translate(-178.65 150.48) rotate(-27.39)"/><line class="ae" x1="226.27" y1="466.65" x2="246.3" y2="477.07"/><ellipse class="ag" cx="219.45" cy="463.13" rx="3.66" ry="4.31" transform="translate(-188.46 152.87) rotate(-27.39)"/><line class="ae" x1="226.27" y1="489.51" x2="246.3" y2="499.93"/><ellipse class="ah" cx="219.45" cy="485.99" rx="3.66" ry="4.31" transform="translate(-198.98 155.44) rotate(-27.39)"/><line class="ae" x1="226.27" y1="511.51" x2="246.3" y2="521.93"/><ellipse class="ag" cx="219.45" cy="507.99" rx="3.66" ry="4.31" transform="translate(-209.1 157.9) rotate(-27.39)"/><line class="ae" x1="226.27" y1="532.74" x2="246.3" y2="543.17"/><ellipse class="ai" cx="219.45" cy="529.22" rx="3.66" ry="4.31" transform="translate(-218.86 160.28) rotate(-27.39)"/><polygon class="ab" points="342.67 447.91 391.56 473.76 440.45 446.35 391.56 421.63 342.67 447.91"/><polygon class="aa" points="188.28 435.77 188.28 596.56 237.16 572.27 237.16 411.48 188.28 435.77"/><polygon class="z" points="139.39 408.36 139.39 569.15 188.28 596.56 188.28 435.77 139.39 408.36"/><polygon class="ab" points="188.28 385.19 139.39 408.36 188.28 435.77 237.16 411.48 188.28 385.19"/><polygon class="z" points="207.15 446.35 207.15 607.14 256.04 634.55 256.04 473.76 207.15 446.35"/><polygon class="aa" points="304.92 447.91 304.92 608.7 256.04 634.55 256.04 473.76 304.92 447.91"/><polygon class="ab" points="207.15 446.35 256.04 473.76 304.92 447.91 256.04 421.63 207.15 446.35"/><polygon class="z" points="274.91 484.34 274.91 645.13 323.8 672.54 323.8 511.75 274.91 484.34"/><polygon class="aa" points="372.69 484.34 372.69 645.13 323.8 672.54 323.8 511.75 372.69 484.34"/><polygon class="ab" points="323.88 458.01 372.69 484.34 323.8 511.75 274.91 484.34 323.88 458.01"/><polygon class="ac" points="280.82 492.74 280.82 643.99 317.89 664.77 317.89 513.52 280.82 492.74"/><line class="ad" x1="280.82" y1="579.24" x2="317.89" y2="600.02"/><line class="ad" x1="280.82" y1="623.24" x2="317.89" y2="644.02"/><line class="ad" x1="280.82" y1="601.24" x2="317.89" y2="622.02"/><line class="ad" x1="280.82" y1="557.46" x2="317.89" y2="578.24"/><line class="ad" x1="280.82" y1="535.46" x2="317.89" y2="556.24"/><line class="ad" x1="280.82" y1="513.46" x2="317.89" y2="534.24"/><line class="ae" x1="294.03" y1="510.48" x2="314.08" y2="521.72"/><ellipse class="af" cx="287.19" cy="506.68" rx="3.6" ry="4.38" transform="translate(-214.86 211.48) rotate(-30)"/><line class="ae" x1="294.03" y1="532.61" x2="314.08" y2="543.86"/><ellipse class="af" cx="287.19" cy="528.82" rx="3.6" ry="4.38" transform="translate(-225.93 214.44) rotate(-30)"/><line class="ae" x1="294.03" y1="554.22" x2="314.08" y2="565.46"/><ellipse class="af" cx="287.19" cy="550.42" rx="3.6" ry="4.38" transform="translate(-236.73 217.34) rotate(-30)"/><line class="ae" x1="294.03" y1="575.53" x2="314.08" y2="586.78"/><ellipse class="af" cx="287.19" cy="571.74" rx="3.6" ry="4.38" transform="translate(-247.39 220.19) rotate(-30)"/><line class="ae" x1="294.03" y1="598.4" x2="314.08" y2="609.64"/><ellipse class="af" cx="287.19" cy="594.6" rx="3.6" ry="4.38" transform="translate(-258.82 223.26) rotate(-30)"/><line class="ae" x1="294.03" y1="620.4" x2="314.08" y2="631.64"/><ellipse class="af" cx="287.19" cy="616.6" rx="3.6" ry="4.38" transform="translate(-269.82 226.2) rotate(-30)"/><line class="ae" x1="294.03" y1="641.63" x2="314.08" y2="652.87"/><ellipse class="af" cx="287.19" cy="637.83" rx="3.6" ry="4.38" transform="translate(-280.44 229.05) rotate(-30)"/><polygon class="ac" points="145.3 416.45 145.3 567.7 182.36 588.47 182.36 437.22 145.3 416.45"/><polygon class="ac" points="213.06 454.44 213.06 605.69 250.12 626.46 250.12 475.21 213.06 454.44"/><line class="ad" x1="212.74" y1="541.01" x2="249.8" y2="561.79"/><line class="ad" x1="212.74" y1="585.01" x2="249.8" y2="605.79"/><line class="ad" x1="212.74" y1="563.01" x2="249.8" y2="583.79"/><line class="ad" x1="212.74" y1="519.23" x2="249.8" y2="540.01"/><line class="ad" x1="212.74" y1="497.23" x2="249.8" y2="518.01"/><line class="ad" x1="212.74" y1="475.23" x2="249.8" y2="496.01"/><line class="ae" x1="225.94" y1="472.25" x2="246" y2="483.5"/><ellipse class="af" cx="219.11" cy="468.45" rx="3.6" ry="4.38" transform="translate(-204.87 172.31) rotate(-30)"/><line class="ae" x1="225.94" y1="494.39" x2="246" y2="505.63"/><ellipse class="af" cx="219.11" cy="490.59" rx="3.6" ry="4.38" transform="translate(-215.94 175.28) rotate(-30)"/><line class="ae" x1="225.94" y1="515.99" x2="246" y2="527.24"/><ellipse class="af" cx="219.11" cy="512.19" rx="3.6" ry="4.38" transform="translate(-226.74 178.17) rotate(-30)"/><line class="ae" x1="225.94" y1="537.31" x2="246" y2="548.55"/><ellipse class="af" cx="219.11" cy="533.51" rx="3.6" ry="4.38" transform="translate(-237.4 181.03) rotate(-30)"/><line class="ae" x1="225.94" y1="560.17" x2="246" y2="571.41"/><ellipse class="af" cx="219.11" cy="556.37" rx="3.6" ry="4.38" transform="translate(-248.83 184.09) rotate(-30)"/><line class="ae" x1="225.94" y1="582.17" x2="246" y2="593.41"/><ellipse class="af" cx="219.11" cy="578.37" rx="3.6" ry="4.38" transform="translate(-259.83 187.04) rotate(-30)"/><line class="ae" x1="225.94" y1="603.4" x2="246" y2="614.65"/><ellipse class="af" cx="219.11" cy="599.61" rx="3.6" ry="4.38" transform="translate(-270.45 189.88) rotate(-30)"/><line class="ad" x1="145.3" y1="502.02" x2="182.36" y2="522.8"/><line class="ad" x1="145.3" y1="546.02" x2="182.36" y2="566.8"/><line class="ad" x1="145.3" y1="524.02" x2="182.36" y2="544.8"/><line class="ad" x1="145.3" y1="480.24" x2="182.36" y2="501.02"/><line class="ad" x1="145.3" y1="458.24" x2="182.36" y2="479.02"/><line class="ad" x1="145.3" y1="436.24" x2="182.36" y2="457.02"/><line class="ae" x1="158.5" y1="433.26" x2="178.56" y2="444.51"/><ellipse class="af" cx="151.67" cy="429.46" rx="3.6" ry="4.38" transform="translate(-194.41 133.37) rotate(-30)"/><line class="ae" x1="158.5" y1="455.4" x2="178.56" y2="466.64"/><ellipse class="af" cx="151.67" cy="451.6" rx="3.6" ry="4.38" transform="translate(-205.48 136.34) rotate(-30)"/><line class="ae" x1="158.5" y1="477" x2="178.56" y2="488.25"/><ellipse class="af" cx="151.67" cy="473.2" rx="3.6" ry="4.38" transform="translate(-216.28 139.23) rotate(-30)"/><line class="ae" x1="158.5" y1="498.32" x2="178.56" y2="509.56"/><ellipse class="af" cx="151.67" cy="494.52" rx="3.6" ry="4.38" transform="translate(-226.94 142.09) rotate(-30)"/><line class="ae" x1="158.5" y1="521.18" x2="178.56" y2="532.42"/><ellipse class="af" cx="151.67" cy="517.38" rx="3.6" ry="4.38" transform="translate(-238.37 145.15) rotate(-30)"/><line class="ae" x1="158.5" y1="543.18" x2="178.56" y2="554.42"/><ellipse class="af" cx="151.67" cy="539.38" rx="3.6" ry="4.38" transform="translate(-249.37 148.1) rotate(-30)"/><line class="ae" x1="158.5" y1="564.41" x2="178.56" y2="575.66"/><ellipse class="af" cx="151.67" cy="560.62" rx="3.6" ry="4.38" transform="translate(-259.99 150.94) rotate(-30)"/><path class="aj" d="M323.88,533.71c-113.43,0-205.38-51.13-205.38-114.21V577.16c0,63.07,91.95,114.21,205.38,114.21s205.37-51.14,205.37-114.21V419.5C529.25,482.58,437.3,533.71,323.88,533.71Z"/><path class="ak" d="M502.31,524.32c-21.8,21.26-55.54,38.24-96.13,48.14"/><path class="h" d="M134.54,463.92c-10.38-13.65-16.12-28.67-16.12-44.42"/><path class="h" d="M259.52,528a283.12,283.12,0,0,1-64.93-19.73"/><path class="h" d="M529.17,419.5c0,45.52-47.89,84.83-117.19,103.18"/><path class="al" d="M323.88,612.54c-113.42,0-205.37-51.13-205.37-114.21v78.83c0,63.07,92,114.21,205.37,114.21s205.38-51.14,205.38-114.21V498.33C529.26,561.41,437.31,612.54,323.88,612.54Z"/><path class="ak" d="M508.86,581.47a124.3,124.3,0,0,1-15.78,15.09"/><path class="ak" d="M488.93,626.46c-14.79,11.11-33.11,20.67-54.05,28.17"/><path class="ak" d="M502.31,615.06a135.39,135.39,0,0,1-13.38,11.4"/><path class="h" d="M269.19,608.45c-86.88-13.32-150.68-57.58-150.68-110.12"/><path class="h" d="M409.41,602.2a335.74,335.74,0,0,1-56.31,9.19"/><line class="am" x1="90.95" y1="594.85" x2="323.96" y2="180.8"/><path class="am" d="M110.54,633.82c-11.33-35.13-21.4-48.38-30-34.9"/><path class="an" d="M535.29,466.82c11.29-8.7,22.09,4.27,28.07,33.93"/><ellipse class="ag" cx="463.04" cy="529.78" rx="9.96" ry="8.18" transform="translate(-220.09 698.36) rotate(-62.71)"/><ellipse class="ai" cx="434.88" cy="541.77" rx="9.96" ry="8.18" transform="translate(-251.75 647.5) rotate(-60)"/><ellipse class="ai" cx="394.63" cy="639.36" rx="9.96" ry="8.18" transform="translate(-356.39 661.44) rotate(-60)"/><ellipse class="ag" cx="487.62" cy="514.91" rx="9.96" ry="8.18" transform="translate(-193.56 712.15) rotate(-62.71)"/><ellipse class="ao" cx="165.17" cy="625.28" rx="4.3" ry="5.52" transform="translate(-74.56 24.62) rotate(-6.96)"/><ellipse class="ap" cx="191.44" cy="615.64" rx="4.43" ry="5.52" transform="translate(-81.97 31.77) rotate(-7.82)"/><ellipse class="ap" cx="151.67" cy="597.98" rx="4.43" ry="5.52" transform="translate(-79.94 26.19) rotate(-7.82)"/><ellipse class="ao" cx="191.09" cy="597.98" rx="4.43" ry="5.52" transform="translate(-79.57 31.55) rotate(-7.82)"/><ellipse class="ag" cx="192.15" cy="650.98" rx="4.43" ry="5.52" transform="translate(-86.77 32.19) rotate(-7.82)"/><ellipse class="ap" cx="209.52" cy="640.85" rx="4.58" ry="5.53" transform="translate(-98.51 41.1) rotate(-9.08)"/><ellipse class="ao" cx="227.85" cy="646.36" rx="4.58" ry="5.53" transform="translate(-99.15 44.06) rotate(-9.08)"/><ellipse class="aq" cx="956.2" cy="577.16" rx="245.84" ry="140.17"/><ellipse class="ar" cx="956.2" cy="551.2" rx="257" ry="148.24"/><path class="f" d="M956.51,436.77c135.78,0,245.84,62.76,245.84,140.17a82.55,82.55,0,0,1-3.41,23.35c-35.24,57.63-130.46,98.93-242.43,98.93s-207.18-41.3-242.42-98.93a82.55,82.55,0,0,1-3.41-23.35C710.68,499.53,820.74,436.77,956.51,436.77Z"/><path class="w" d="M1055.91,414.53,888.28,569.42l23.36-8.08L956,607.41,979,599.33l44.82,46.07L1201,563.48l12.18-10.87a.49.49,0,0,1,0-.11c0-.43,0-.87,0-1.3C1213.21,489.72,1148.33,437,1055.91,414.53Z"/><line class="as" x1="956.04" y1="180.8" x2="730.78" y2="467.19"/><path class="at" d="M956.12,462.94c-113.42,0-205.37,51.14-205.37,114.22V419.5c0-63.08,92-114.22,205.37-114.22S1161.5,356.42,1161.5,419.5V577.16C1161.5,514.08,1069.55,462.94,956.12,462.94Z"/><path class="au" d="M898.74,467.46C831.57,478.31,778.6,507.72,759,545.05"/><path class="t" d="M1213.27,551.2c0-81.88-115.07-148.25-257-148.25s-257,66.37-257,148.25c0,17.29,5.15,33.88,14.58,49.31,19.5,66.29,120.61,116.81,242.42,116.81s222.92-50.52,242.43-116.81C1208.12,585.08,1213.27,568.49,1213.27,551.2Z"/><polygon class="av" points="888.28 408.64 888.28 569.43 937.17 545.14 937.17 384.35 888.28 408.64"/><polygon class="aw" points="839.39 381.23 839.39 542.02 888.28 569.43 888.28 408.64 839.39 381.23"/><polygon class="ax" points="888.28 358.07 839.39 381.23 888.28 408.64 937.17 384.35 888.28 358.07"/><polygon class="aw" points="907.16 419.22 907.16 580.01 956.04 607.42 956.04 446.63 907.16 419.22"/><polygon class="av" points="1004.93 420.78 1004.93 581.57 956.04 607.42 956.04 446.63 1004.93 420.78"/><polygon class="ax" points="907.16 419.22 956.04 446.63 1004.93 420.78 956.04 394.5 907.16 419.22"/><polygon class="aw" points="974.92 457.21 974.92 618 1023.8 645.41 1023.8 484.62 974.92 457.21"/><polygon class="av" points="1072.69 457.21 1072.69 618 1023.8 645.41 1023.8 484.62 1072.69 457.21"/><polygon class="ax" points="1023.89 430.88 1072.69 457.21 1023.8 484.62 974.92 457.21 1023.89 430.88"/><polygon class="ac" points="980.83 465.62 980.83 616.87 1017.89 637.64 1017.89 486.39 980.83 465.62"/><polygon class="ac" points="845.31 389.32 845.31 540.57 882.37 561.35 882.37 410.1 845.31 389.32"/><polygon class="ac" points="913.07 427.31 913.07 578.56 950.13 599.34 950.13 448.09 913.07 427.31"/><line class="ay" x1="980.83" y1="551" x2="1017.89" y2="571.78"/><line class="ay" x1="980.83" y1="595" x2="1017.89" y2="615.78"/><line class="ay" x1="980.83" y1="573" x2="1017.89" y2="593.78"/><line class="ay" x1="980.83" y1="529.22" x2="1017.89" y2="549.99"/><line class="ay" x1="980.83" y1="507.22" x2="1017.89" y2="527.99"/><line class="ay" x1="980.83" y1="485.22" x2="1017.89" y2="505.99"/><line class="ae" x1="994.03" y1="482.24" x2="1014.09" y2="493.48"/><ellipse class="af" cx="987.19" cy="478.44" rx="3.6" ry="4.38" transform="translate(-106.96 557.7) rotate(-30)"/><line class="ae" x1="994.03" y1="504.37" x2="1014.09" y2="515.62"/><ellipse class="af" cx="987.19" cy="500.57" rx="3.6" ry="4.38" transform="translate(-118.03 560.66) rotate(-30)"/><line class="ae" x1="994.03" y1="525.98" x2="1014.09" y2="537.22"/><ellipse class="af" cx="987.19" cy="522.18" rx="3.6" ry="4.38" transform="translate(-128.83 563.56) rotate(-30)"/><line class="ae" x1="994.03" y1="547.29" x2="1014.09" y2="558.53"/><ellipse class="af" cx="987.19" cy="543.49" rx="3.6" ry="4.38" transform="translate(-139.49 566.41) rotate(-30)"/><line class="ae" x1="994.03" y1="570.15" x2="1014.09" y2="581.4"/><ellipse class="af" cx="987.19" cy="566.36" rx="3.6" ry="4.38" transform="translate(-150.92 569.47) rotate(-30)"/><line class="ae" x1="994.03" y1="592.15" x2="1014.09" y2="603.4"/><ellipse class="af" cx="987.19" cy="588.36" rx="3.6" ry="4.38" transform="translate(-161.92 572.42) rotate(-30)"/><line class="ae" x1="994.03" y1="613.39" x2="1014.09" y2="624.63"/><ellipse class="af" cx="987.19" cy="609.59" rx="3.6" ry="4.38" transform="translate(-172.54 575.27) rotate(-30)"/><line class="ay" x1="913.07" y1="513.89" x2="950.13" y2="534.66"/><line class="ay" x1="913.07" y1="557.89" x2="950.13" y2="578.66"/><line class="ay" x1="913.07" y1="535.89" x2="950.13" y2="556.66"/><line class="ay" x1="913.07" y1="492.1" x2="950.13" y2="512.88"/><line class="ay" x1="913.07" y1="470.1" x2="950.13" y2="490.88"/><line class="ay" x1="913.07" y1="448.1" x2="950.13" y2="468.88"/><line class="ae" x1="926.27" y1="445.12" x2="946.33" y2="456.37"/><ellipse class="af" cx="919.43" cy="441.33" rx="3.6" ry="4.38" transform="translate(-97.48 518.84) rotate(-30)"/><line class="ae" x1="926.27" y1="467.26" x2="946.33" y2="478.5"/><ellipse class="af" cx="919.43" cy="463.46" rx="3.6" ry="4.38" transform="translate(-108.55 521.81) rotate(-30)"/><line class="ae" x1="926.27" y1="488.86" x2="946.33" y2="500.11"/><ellipse class="af" cx="919.43" cy="485.07" rx="3.6" ry="4.38" transform="translate(-119.35 524.7) rotate(-30)"/><line class="ae" x1="926.27" y1="510.18" x2="946.33" y2="521.42"/><ellipse class="af" cx="919.43" cy="506.38" rx="3.6" ry="4.38" transform="translate(-130.01 527.56) rotate(-30)"/><line class="ae" x1="926.27" y1="533.04" x2="946.33" y2="544.29"/><ellipse class="af" cx="919.43" cy="529.25" rx="3.6" ry="4.38" transform="translate(-141.44 530.62) rotate(-30)"/><line class="ae" x1="926.27" y1="555.04" x2="946.33" y2="566.29"/><ellipse class="af" cx="919.43" cy="551.25" rx="3.6" ry="4.38" transform="translate(-152.44 533.57) rotate(-30)"/><line class="ae" x1="926.27" y1="576.27" x2="946.33" y2="587.52"/><ellipse class="af" cx="919.43" cy="572.48" rx="3.6" ry="4.38" transform="translate(-163.06 536.41) rotate(-30)"/><line class="ay" x1="845.31" y1="475.99" x2="882.37" y2="496.77"/><line class="ay" x1="845.31" y1="519.99" x2="882.37" y2="540.77"/><line class="ay" x1="845.31" y1="497.99" x2="882.37" y2="518.77"/><line class="ay" x1="845.31" y1="454.21" x2="882.37" y2="474.99"/><line class="ay" x1="845.31" y1="432.21" x2="882.37" y2="452.99"/><line class="ay" x1="845.31" y1="410.21" x2="882.37" y2="430.99"/><line class="ae" x1="858.51" y1="407.23" x2="878.57" y2="418.47"/><ellipse class="af" cx="851.67" cy="403.43" rx="3.6" ry="4.38" transform="translate(-87.61 479.88) rotate(-30)"/><line class="ae" x1="858.51" y1="429.36" x2="878.57" y2="440.61"/><ellipse class="af" cx="851.67" cy="425.57" rx="3.6" ry="4.38" transform="translate(-98.68 482.85) rotate(-30)"/><line class="ae" x1="858.51" y1="450.97" x2="878.57" y2="462.21"/><ellipse class="af" cx="851.67" cy="447.17" rx="3.6" ry="4.38" transform="translate(-109.48 485.74) rotate(-30)"/><line class="ae" x1="858.51" y1="472.28" x2="878.57" y2="483.53"/><ellipse class="af" cx="851.67" cy="468.48" rx="3.6" ry="4.38" transform="translate(-120.14 488.6) rotate(-30)"/><line class="ae" x1="858.51" y1="495.14" x2="878.57" y2="506.39"/><ellipse class="af" cx="851.67" cy="491.35" rx="3.6" ry="4.38" transform="translate(-131.57 491.66) rotate(-30)"/><line class="ae" x1="858.51" y1="517.14" x2="878.57" y2="528.39"/><ellipse class="af" cx="851.67" cy="513.35" rx="3.6" ry="4.38" transform="translate(-142.57 494.61) rotate(-30)"/><line class="ae" x1="858.51" y1="538.38" x2="878.57" y2="549.62"/><ellipse class="af" cx="851.67" cy="534.58" rx="3.6" ry="4.38" transform="translate(-153.19 497.46) rotate(-30)"/><path class="az" d="M956.12,533.71c113.43,0,205.38-51.13,205.38-114.21V577.16c0,63.07-92,114.21-205.38,114.21S750.75,640.23,750.75,577.16V419.5C750.75,482.58,842.7,533.71,956.12,533.71Z"/><path class="ak" d="M1080.56,566.47c32.43-13.74,57.29-32.73,70.48-54.69"/><path class="h" d="M1145.46,463.92c10.38-13.65,16.12-28.67,16.12-44.42"/><path class="h" d="M1020.48,528a283.12,283.12,0,0,0,64.93-19.73"/><path class="h" d="M750.83,419.5c0,45.52,47.89,84.83,117.19,103.18"/><path class="ba" d="M956.12,612.54c113.42,0,205.37-51.13,205.37-114.21v78.83c0,63.07-92,114.21-205.37,114.21S750.74,640.23,750.74,577.16V498.33C750.74,561.41,842.69,612.54,956.12,612.54Z"/><path class="ak" d="M1086.06,563.8c19.26-8.77,35.61-19.44,48.12-31.5"/><path class="ak" d="M870.59,579.21A326.1,326.1,0,0,0,912.72,587"/><path class="ak" d="M764.37,516.35c7.68,11.1,18.4,21.37,31.57,30.49"/><path class="ak" d="M797.22,599.34c32.78,22.23,80.36,37.46,134.37,41"/><path class="ak" d="M873.57,657.86a338,338,0,0,0,71.56,11"/><path class="ak" d="M771.14,576.69a124.36,124.36,0,0,0,15.78,15.1"/><path class="h" d="M1010.81,608.45c86.88-13.32,150.68-57.58,150.68-110.12"/><path class="h" d="M870.59,602.2a335.74,335.74,0,0,0,56.31,9.19"/><line class="bb" x1="1189.05" y1="594.85" x2="956.04" y2="180.8"/><path class="bb" d="M1169.46,633.82c11.33-35.13,21.4-48.38,30-34.9"/><path class="bc" d="M744.71,466.82c-11.29-8.7-20.83,3.43-28.07,33.68"/><ellipse class="ah" cx="816.96" cy="636.82" rx="8.18" ry="9.96" transform="translate(-201.05 445.49) rotate(-27.29)"/><ellipse class="ai" cx="845.12" cy="648.81" rx="8.18" ry="9.96" transform="translate(-211.18 509.48) rotate(-30)"/><ellipse class="ai" cx="816.96" cy="558.85" rx="8.18" ry="9.96" transform="translate(-169.97 483.35) rotate(-30)"/><ellipse class="ag" cx="845.12" cy="569.75" rx="8.18" ry="9.96" transform="translate(-171.65 498.89) rotate(-30)"/><ellipse class="ah" cx="792.38" cy="621.95" rx="8.18" ry="9.96" transform="translate(-196.97 432.56) rotate(-27.29)"/><ellipse class="ap" cx="1103.32" cy="643.77" rx="5.52" ry="4.3" transform="translate(330.59 1660.94) rotate(-83.04)"/><ellipse class="ao" cx="1114.83" cy="625.28" rx="5.52" ry="4.3" transform="translate(359.06 1656.12) rotate(-83.04)"/><ellipse class="ag" cx="1087.85" cy="650.98" rx="5.52" ry="4.43" transform="translate(294.94 1640.16) rotate(-82.18)"/><ellipse class="ap" cx="1070.48" cy="640.85" rx="5.53" ry="4.58" transform="matrix(0.16, -0.99, 0.99, 0.16, 268.72, 1596.78)"/><ellipse class="ao" cx="1070.2" cy="658.49" rx="5.53" ry="4.58" transform="translate(251.06 1611.36) rotate(-80.92)"/><ellipse class="ag" cx="1052.65" cy="629.5" rx="5.53" ry="4.79" transform="translate(221.91 1531.83) rotate(-78.25)"/><ellipse class="ai" cx="1053.01" cy="611.83" rx="5.53" ry="4.79" transform="translate(239.5 1518.12) rotate(-78.25)"/><ellipse class="ah" cx="1033.04" cy="617" rx="5.55" ry="4.99" transform="translate(150.29 1434.68) rotate(-73.66)"/><polygon class="ah" points="856.76 383.86 852.34 381.41 888.14 363.47 892.58 365.91 856.76 383.86"/><polygon class="ah" points="865.27 388.55 860.84 386.11 896.65 368.16 901.08 370.61 865.27 388.55"/><polygon class="ah" points="873.78 393.25 869.35 390.8 905.16 372.86 909.59 375.31 873.78 393.25"/><polygon class="ah" points="882.28 397.94 877.85 395.5 913.66 377.56 918.09 380 882.28 397.94"/><polygon class="ah" points="905.21 395.53 900.78 393.08 909.19 388.87 913.62 391.32 905.21 395.53"/><polygon class="aw" points="857.06 379.04 852.34 381.41 856.76 383.86 861.53 381.47 857.06 379.04"/><polygon class="ah" points="924.39 421.31 919.89 418.92 955.03 400.93 959.53 403.32 924.39 421.31"/><polygon class="ah" points="933.03 425.88 928.53 423.5 963.67 405.51 968.17 407.9 933.03 425.88"/><polygon class="ah" points="941.67 430.46 937.17 428.08 972.31 410.09 976.81 412.48 941.67 430.46"/><polygon class="ah" points="950.31 435.04 945.81 432.66 980.95 414.67 985.45 417.06 950.31 435.04"/><polygon class="ah" points="973.11 432.49 968.61 430.11 976.85 425.88 981.35 428.27 973.11 432.49"/><polygon class="aw" points="924.52 416.55 919.89 418.92 924.39 421.31 929.07 418.91 924.52 416.55"/><polygon class="ah" points="992.06 458.43 987.48 456.01 1022.02 437.7 1026.6 440.13 992.06 458.43"/><polygon class="ah" points="1000.86 463.09 996.28 460.67 1030.81 442.36 1035.39 444.79 1000.86 463.09"/><polygon class="ah" points="1009.65 467.75 1005.07 465.32 1039.6 447.02 1044.18 449.45 1009.65 467.75"/><polygon class="ah" points="1018.44 472.41 1013.86 469.99 1048.4 451.68 1052.98 454.11 1018.44 472.41"/><polygon class="ah" points="1041.16 469.82 1036.58 467.39 1044.68 463.09 1049.26 465.52 1041.16 469.82"/><polygon class="aw" points="992.04 453.59 987.48 456.01 992.06 458.43 996.66 456 992.04 453.59"/></g></svg>
