<svg xmlns="http://www.w3.org/2000/svg" xmlns:xlink="http://www.w3.org/1999/xlink" viewBox="0 0 1280 960"><defs><style>.cls-1,.cls-115,.cls-117,.cls-3{opacity:.8}.cls-1{fill:url(#Безымянный_градиент_16)}.cls-2{opacity:.6;fill:url(#Безымянный_градиент_10)}.cls-3{fill:url(#Безымянный_градиент_10-2)}.cls-112,.cls-118,.cls-4,.cls-5{fill:none;stroke-miterlimit:10}.cls-118,.cls-4,.cls-5{stroke:#fff}.cls-4,.cls-5{stroke-width:2px}.cls-112,.cls-118,.cls-5{stroke-linecap:round}.cls-6{fill:#d61a1a}.cls-7{fill:url(#Безымянный_градиент_52)}.cls-8{fill:url(#Безымянный_градиент_52-2)}.cls-9{fill:url(#Безымянный_градиент_52-3)}.cls-10{fill:url(#Безымянный_градиент_52-4)}.cls-11{fill:url(#Безымянный_градиент_52-5)}.cls-12{fill:url(#Безымянный_градиент_52-6)}.cls-13{fill:url(#Безымянный_градиент_52-7)}.cls-14{fill:url(#Безымянный_градиент_52-8)}.cls-15{fill:url(#Безымянный_градиент_52-9)}.cls-16{fill:url(#Безымянный_градиент_52-10)}.cls-17{fill:url(#Безымянный_градиент_52-11)}.cls-18{fill:url(#Безымянный_градиент_52-12)}.cls-19{fill:url(#Безымянный_градиент_52-13)}.cls-20{fill:url(#Безымянный_градиент_52-14)}.cls-21{fill:url(#Безымянный_градиент_52-15)}.cls-22{fill:url(#Безымянный_градиент_52-16)}.cls-23{fill:url(#Безымянный_градиент_52-17)}.cls-24{fill:url(#Безымянный_градиент_52-18)}.cls-25{fill:url(#Безымянный_градиент_52-19)}.cls-26{fill:url(#Безымянный_градиент_52-20)}.cls-27{fill:url(#Безымянный_градиент_52-21)}.cls-28{fill:url(#Безымянный_градиент_52-22)}.cls-29{fill:url(#Безымянный_градиент_52-23)}.cls-30{fill:url(#Безымянный_градиент_52-24)}.cls-31{fill:url(#Безымянный_градиент_52-25)}.cls-32{fill:url(#Безымянный_градиент_52-26)}.cls-33{fill:url(#Безымянный_градиент_52-27)}.cls-34{fill:url(#Безымянный_градиент_52-28)}.cls-35{fill:url(#Безымянный_градиент_52-29)}.cls-36{fill:url(#Безымянный_градиент_52-30)}.cls-37{fill:url(#Безымянный_градиент_52-31)}.cls-38{fill:url(#Безымянный_градиент_52-32)}.cls-39{fill:url(#Безымянный_градиент_52-33)}.cls-40{fill:url(#Безымянный_градиент_52-34)}.cls-41{fill:url(#Безымянный_градиент_52-35)}.cls-42{fill:url(#Безымянный_градиент_52-36)}.cls-43{fill:url(#Безымянный_градиент_52-37)}.cls-44{fill:url(#Безымянный_градиент_52-38)}.cls-45{fill:url(#Безымянный_градиент_56)}.cls-46{fill:url(#Безымянный_градиент_56-2)}.cls-47{fill:url(#Безымянный_градиент_56-3)}.cls-48{fill:url(#Безымянный_градиент_56-4)}.cls-49{fill:url(#Безымянный_градиент_56-5)}.cls-50{fill:url(#Безымянный_градиент_56-6)}.cls-51{fill:url(#Безымянный_градиент_56-7)}.cls-52{fill:url(#Безымянный_градиент_56-8)}.cls-53{fill:url(#Безымянный_градиент_56-9)}.cls-54{fill:url(#Безымянный_градиент_56-10)}.cls-55{fill:url(#Безымянный_градиент_56-11)}.cls-56{fill:url(#Безымянный_градиент_56-12)}.cls-57{fill:url(#Безымянный_градиент_56-13)}.cls-58{fill:url(#Безымянный_градиент_56-14)}.cls-59{fill:url(#Безымянный_градиент_56-15)}.cls-60{fill:url(#Безымянный_градиент_56-16)}.cls-61{fill:url(#Безымянный_градиент_56-17)}.cls-62{fill:url(#Безымянный_градиент_56-18)}.cls-63{fill:url(#Безымянный_градиент_56-19)}.cls-64{fill:url(#Безымянный_градиент_56-20)}.cls-65{fill:url(#Безымянный_градиент_56-21)}.cls-66{fill:#ff571d}.cls-67{fill:#fddd55}.cls-68{fill:#f14600}.cls-69{fill:url(#Безымянный_градиент_139)}.cls-70{fill:url(#Безымянный_градиент_139-2)}.cls-71{fill:url(#Безымянный_градиент_139-3)}.cls-72{fill:url(#Безымянный_градиент_139-4)}.cls-73{fill:url(#Безымянный_градиент_139-5)}.cls-74{fill:url(#Безымянный_градиент_139-6)}.cls-75{fill:url(#Безымянный_градиент_139-7)}.cls-76{fill:url(#Безымянный_градиент_139-8)}.cls-77{fill:url(#Безымянный_градиент_139-9)}.cls-78{fill:url(#Безымянный_градиент_139-10)}.cls-79{fill:url(#Безымянный_градиент_139-11)}.cls-80{fill:url(#Безымянный_градиент_139-12)}.cls-81{fill:url(#Безымянный_градиент_139-13)}.cls-82{fill:url(#Безымянный_градиент_139-14)}.cls-83{fill:url(#Безымянный_градиент_139-15)}.cls-84{fill:url(#Безымянный_градиент_139-16)}.cls-85{fill:url(#Безымянный_градиент_139-17)}.cls-86{fill:url(#Безымянный_градиент_139-18)}.cls-87{fill:url(#Безымянный_градиент_139-19)}.cls-88{fill:url(#Безымянный_градиент_139-20)}.cls-89{fill:url(#Безымянный_градиент_139-21)}.cls-90{fill:url(#Безымянный_градиент_139-22)}.cls-91{fill:url(#Безымянный_градиент_139-23)}.cls-92{fill:url(#Безымянный_градиент_139-24)}.cls-93{fill:url(#Безымянный_градиент_139-25)}.cls-94{fill:url(#Безымянный_градиент_139-26)}.cls-95{fill:url(#Безымянный_градиент_139-27)}.cls-96{fill:url(#Безымянный_градиент_139-28)}.cls-97{fill:url(#Безымянный_градиент_139-29)}.cls-98{fill:url(#Безымянный_градиент_139-30)}.cls-99{fill:url(#Безымянный_градиент_139-31)}.cls-100{fill:url(#Безымянный_градиент_139-32)}.cls-101{fill:url(#Безымянный_градиент_139-33)}.cls-102{fill:url(#Безымянный_градиент_139-34)}.cls-103{fill:url(#Безымянный_градиент_139-35)}.cls-104{fill:url(#Безымянный_градиент_139-36)}.cls-105{fill:url(#Безымянный_градиент_139-37)}.cls-106{fill:url(#Безымянный_градиент_139-38)}.cls-107,.cls-108,.cls-109,.cls-110{opacity:.3}.cls-107{fill:url(#Безымянный_градиент_48)}.cls-108{fill:url(#Безымянный_градиент_33)}.cls-109{fill:url(#Безымянный_градиент_200)}.cls-110{fill:url(#Безымянный_градиент_200-2)}.cls-111{fill:#c3d5ed;opacity:.4}.cls-112{stroke:#a0c9f5;stroke-width:7px}.cls-113,.cls-114,.cls-115{fill:#257af4}.cls-114,.cls-116{opacity:.5}.cls-116,.cls-117{fill:#444451}.cls-118{stroke-width:4px}.cls-119{fill:url(#Безымянный_градиент_4)}.cls-120{fill:url(#Безымянный_градиент_2)}.cls-121{fill:url(#Безымянный_градиент_135)}.cls-122{fill:url(#Безымянный_градиент_2-2)}.cls-123{fill:url(#Безымянный_градиент_233)}.cls-124{fill:url(#Безымянный_градиент_230)}.cls-125{fill:url(#Безымянный_градиент_93)}.cls-126{fill:url(#Безымянный_градиент_3)}.cls-127{fill:url(#Безымянный_градиент_230-2)}</style><linearGradient id="Безымянный_градиент_16" x1="254.06" x2="1094.09" y1="398.29" y2="412.95" gradientUnits="userSpaceOnUse"><stop offset="0" stop-color="#d3e2f5"/><stop offset="1" stop-color="#e3f1fe"/></linearGradient><linearGradient id="Безымянный_градиент_10" x1="939.05" x2="315.08" y1="715.68" y2="417.19" gradientUnits="userSpaceOnUse"><stop offset="0" stop-color="#d1e1f8"/><stop offset="1" stop-color="#e3f1fe"/></linearGradient><linearGradient id="Безымянный_градиент_10-2" x1="471.89" x2="246.89" y1="602.45" y2="627.45" xlink:href="#Безымянный_градиент_10"/><linearGradient id="Безымянный_градиент_52" x1="938.8" x2="308.8" y1="-35.04" y2="364.96" gradientUnits="userSpaceOnUse"><stop offset="0" stop-color="#fcb644"/><stop offset="1" stop-color="#ff9e1d"/></linearGradient><linearGradient id="Безымянный_градиент_52-2" x1="962.95" x2="332.95" y1="3" y2="403" xlink:href="#Безымянный_градиент_52"/><linearGradient id="Безымянный_градиент_52-3" x1="988.17" x2="358.17" y1="42.72" y2="442.72" xlink:href="#Безымянный_градиент_52"/><linearGradient id="Безымянный_градиент_52-4" x1="1014.51" x2="384.51" y1="84.2" y2="484.2" xlink:href="#Безымянный_градиент_52"/><linearGradient id="Безымянный_градиент_52-5" x1="1042.06" x2="412.06" y1="127.6" y2="527.6" xlink:href="#Безымянный_градиент_52"/><linearGradient id="Безымянный_градиент_52-6" x1="1070.91" x2="440.91" y1="173.03" y2="573.03" xlink:href="#Безымянный_градиент_52"/><linearGradient id="Безымянный_градиент_52-7" x1="1101.14" x2="471.14" y1="220.64" y2="620.64" xlink:href="#Безымянный_градиент_52"/><linearGradient id="Безымянный_градиент_52-8" x1="1132.86" x2="502.86" y1="270.6" y2="670.6" xlink:href="#Безымянный_градиент_52"/><linearGradient id="Безымянный_градиент_52-9" x1="948.32" x2="318.32" y1="-20.05" y2="379.95" xlink:href="#Безымянный_градиент_52"/><linearGradient id="Безымянный_градиент_52-10" x1="972.51" x2="342.51" y1="18.06" y2="418.06" xlink:href="#Безымянный_градиент_52"/><linearGradient id="Безымянный_градиент_52-11" x1="997.76" x2="367.76" y1="57.82" y2="457.82" xlink:href="#Безымянный_градиент_52"/><linearGradient id="Безымянный_градиент_52-12" x1="1024.13" x2="394.13" y1="99.36" y2="499.36" xlink:href="#Безымянный_градиент_52"/><linearGradient id="Безымянный_градиент_52-13" x1="1051.7" x2="421.7" y1="142.78" y2="542.78" xlink:href="#Безымянный_градиент_52"/><linearGradient id="Безымянный_градиент_52-14" x1="1080.56" x2="450.56" y1="188.23" y2="588.23" xlink:href="#Безымянный_градиент_52"/><linearGradient id="Безымянный_градиент_52-15" x1="1110.79" x2="480.79" y1="235.84" y2="635.84" xlink:href="#Безымянный_градиент_52"/><linearGradient id="Безымянный_градиент_52-16" x1="1142.5" x2="512.5" y1="285.78" y2="685.78" xlink:href="#Безымянный_градиент_52"/><linearGradient id="Безымянный_градиент_52-17" x1="1175.79" x2="545.79" y1="338.22" y2="738.22" xlink:href="#Безымянный_градиент_52"/><linearGradient id="Безымянный_градиент_52-18" x1="957.71" x2="327.71" y1="-5.26" y2="394.74" xlink:href="#Безымянный_градиент_52"/><linearGradient id="Безымянный_градиент_52-19" x1="981.94" x2="351.94" y1="32.91" y2="432.91" xlink:href="#Безымянный_градиент_52"/><linearGradient id="Безымянный_градиент_52-20" x1="1007.22" x2="377.22" y1="72.72" y2="472.72" xlink:href="#Безымянный_градиент_52"/><linearGradient id="Безымянный_градиент_52-21" x1="1033.61" x2="403.61" y1="114.29" y2="514.29" xlink:href="#Безымянный_градиент_52"/><linearGradient id="Безымянный_градиент_52-22" x1="1061.2" x2="431.2" y1="157.74" y2="557.74" xlink:href="#Безымянный_градиент_52"/><linearGradient id="Безымянный_градиент_52-23" x1="1090.06" x2="460.06" y1="203.2" y2="603.2" xlink:href="#Безымянный_градиент_52"/><linearGradient id="Безымянный_градиент_52-24" x1="1120.29" x2="490.29" y1="250.81" y2="650.81" xlink:href="#Безымянный_градиент_52"/><linearGradient id="Безымянный_градиент_52-25" x1="1151.99" x2="521.99" y1="300.73" y2="700.73" xlink:href="#Безымянный_градиент_52"/><linearGradient id="Безымянный_градиент_52-26" x1="1185.26" x2="555.26" y1="353.13" y2="753.13" xlink:href="#Безымянный_градиент_52"/><linearGradient id="Безымянный_градиент_52-27" x1="966.98" x2="336.98" y1="9.34" y2="409.34" xlink:href="#Безымянный_градиент_52"/><linearGradient id="Безымянный_градиент_52-28" x1="991.24" x2="361.24" y1="47.56" y2="447.56" xlink:href="#Безымянный_градиент_52"/><linearGradient id="Безымянный_градиент_52-29" x1="1016.55" x2="386.55" y1="87.41" y2="487.41" xlink:href="#Безымянный_градиент_52"/><linearGradient id="Безымянный_градиент_52-30" x1="1042.96" x2="412.96" y1="129.02" y2="529.02" xlink:href="#Безымянный_градиент_52"/><linearGradient id="Безымянный_градиент_52-31" x1="1070.56" x2="440.56" y1="172.49" y2="572.49" xlink:href="#Безымянный_градиент_52"/><linearGradient id="Безымянный_градиент_52-32" x1="1099.43" x2="469.43" y1="217.95" y2="617.95" xlink:href="#Безымянный_градиент_52"/><linearGradient id="Безымянный_градиент_52-33" x1="1129.65" x2="499.65" y1="265.56" y2="665.56" xlink:href="#Безымянный_градиент_52"/><linearGradient id="Безымянный_градиент_52-34" x1="1161.33" x2="531.33" y1="315.45" y2="715.45" xlink:href="#Безымянный_градиент_52"/><linearGradient id="Безымянный_градиент_52-35" x1="1194.57" x2="564.57" y1="367.8" y2="767.8" xlink:href="#Безымянный_градиент_52"/><linearGradient id="Безымянный_градиент_52-36" x1="1052.18" x2="422.18" y1="143.54" y2="543.54" xlink:href="#Безымянный_градиент_52"/><linearGradient id="Безымянный_градиент_52-37" x1="1079.79" x2="449.79" y1="187.03" y2="587.03" xlink:href="#Безымянный_градиент_52"/><linearGradient id="Безымянный_градиент_52-38" x1="1108.66" x2="478.66" y1="232.49" y2="632.49" xlink:href="#Безымянный_градиент_52"/><linearGradient id="Безымянный_градиент_56" x1="941.28" x2="552.28" y1="-98.16" y2="241.84" gradientUnits="userSpaceOnUse"><stop offset="0" stop-color="#feaa30"/><stop offset="1" stop-color="#ff9e1d"/></linearGradient><linearGradient id="Безымянный_градиент_56-2" x1="969.71" x2="580.71" y1="-65.62" y2="274.38" xlink:href="#Безымянный_градиент_56"/><linearGradient id="Безымянный_градиент_56-3" x1="999.37" x2="610.37" y1="-31.69" y2="308.31" xlink:href="#Безымянный_градиент_56"/><linearGradient id="Безымянный_градиент_56-4" x1="1030.33" x2="641.33" y1="3.73" y2="343.73" xlink:href="#Безымянный_градиент_56"/><linearGradient id="Безымянный_градиент_56-5" x1="1062.68" x2="673.68" y1="40.74" y2="380.74" xlink:href="#Безымянный_градиент_56"/><linearGradient id="Безымянный_градиент_56-6" x1="1096.51" x2="707.51" y1="79.45" y2="419.45" xlink:href="#Безымянный_градиент_56"/><linearGradient id="Безымянный_градиент_56-7" x1="1131.93" x2="742.93" y1="119.98" y2="459.98" xlink:href="#Безымянный_градиент_56"/><linearGradient id="Безымянный_градиент_56-8" x1="1169.06" x2="780.06" y1="162.45" y2="502.45" xlink:href="#Безымянный_градиент_56"/><linearGradient id="Безымянный_градиент_56-9" x1="1208.02" x2="819.02" y1="207.03" y2="547.03" xlink:href="#Безымянный_градиент_56"/><linearGradient id="Безымянный_градиент_56-10" x1="965.98" x2="576.98" y1="-69.89" y2="270.11" xlink:href="#Безымянный_градиент_56"/><linearGradient id="Безымянный_градиент_56-11" x1="994.75" x2="605.75" y1="-36.98" y2="303.02" xlink:href="#Безымянный_градиент_56"/><linearGradient id="Безымянный_градиент_56-12" x1="1024.74" x2="635.74" y1="-2.67" y2="337.33" xlink:href="#Безымянный_градиент_56"/><linearGradient id="Безымянный_градиент_56-13" x1="1056.03" x2="667.03" y1="33.14" y2="373.14" xlink:href="#Безымянный_градиент_56"/><linearGradient id="Безымянный_градиент_56-14" x1="1088.73" x2="699.73" y1="70.54" y2="410.54" xlink:href="#Безымянный_градиент_56"/><linearGradient id="Безымянный_градиент_56-15" x1="1122.91" x2="733.91" y1="109.65" y2="449.65" xlink:href="#Безымянный_градиент_56"/><linearGradient id="Безымянный_градиент_56-16" x1="1158.69" x2="769.69" y1="150.58" y2="490.58" xlink:href="#Безымянный_градиент_56"/><linearGradient id="Безымянный_градиент_56-17" x1="1196.17" x2="807.17" y1="193.47" y2="533.47" xlink:href="#Безымянный_градиент_56"/><linearGradient id="Безымянный_градиент_56-18" x1="1235.49" x2="846.49" y1="238.46" y2="578.46" xlink:href="#Безымянный_градиент_56"/><linearGradient id="Безымянный_градиент_56-19" x1="1081.39" x2="692.39" y1="62.14" y2="402.14" xlink:href="#Безымянный_градиент_56"/><linearGradient id="Безымянный_градиент_56-20" x1="1114.41" x2="725.41" y1="99.93" y2="439.93" xlink:href="#Безымянный_градиент_56"/><linearGradient id="Безымянный_градиент_56-21" x1="1148.93" x2="759.93" y1="139.42" y2="479.42" xlink:href="#Безымянный_градиент_56"/><linearGradient id="Безымянный_градиент_139" x1="847.8" x2="615.8" y1="43.12" y2="428.12" gradientUnits="userSpaceOnUse"><stop offset="0" stop-color="#fada79"/><stop offset="1" stop-color="#f8cc46"/></linearGradient><linearGradient id="Безымянный_градиент_139-2" x1="809.39" x2="577.39" y1="19.98" y2="404.98" xlink:href="#Безымянный_градиент_139"/><linearGradient id="Безымянный_градиент_139-3" x1="772.86" x2="540.86" y1="-2.04" y2="382.96" xlink:href="#Безымянный_градиент_139"/><linearGradient id="Безымянный_градиент_139-4" x1="738.07" x2="506.07" y1="-23" y2="362" xlink:href="#Безымянный_градиент_139"/><linearGradient id="Безымянный_градиент_139-5" x1="704.9" x2="472.9" y1="-42.99" y2="342.01" xlink:href="#Безымянный_градиент_139"/><linearGradient id="Безымянный_градиент_139-6" x1="673.24" x2="441.24" y1="-62.07" y2="322.93" xlink:href="#Безымянный_градиент_139"/><linearGradient id="Безымянный_градиент_139-7" x1="642.99" x2="410.99" y1="-80.3" y2="304.7" xlink:href="#Безымянный_градиент_139"/><linearGradient id="Безымянный_градиент_139-8" x1="614.05" x2="382.05" y1="-97.73" y2="287.27" xlink:href="#Безымянный_градиент_139"/><linearGradient id="Безымянный_градиент_139-9" x1="966.9" x2="734.9" y1="114.89" y2="499.89" xlink:href="#Безымянный_градиент_139"/><linearGradient id="Безымянный_градиент_139-10" x1="924.78" x2="692.78" y1="89.51" y2="474.51" xlink:href="#Безымянный_градиент_139"/><linearGradient id="Безымянный_градиент_139-11" x1="884.75" x2="652.75" y1="65.39" y2="450.39" xlink:href="#Безымянный_градиент_139"/><linearGradient id="Безымянный_градиент_139-12" x1="846.67" x2="614.67" y1="42.44" y2="427.44" xlink:href="#Безымянный_градиент_139"/><linearGradient id="Безымянный_градиент_139-13" x1="810.39" x2="578.39" y1="20.58" y2="405.58" xlink:href="#Безымянный_градиент_139"/><linearGradient id="Безымянный_градиент_139-14" x1="775.78" x2="543.78" y1="-.28" y2="384.72" xlink:href="#Безымянный_градиент_139"/><linearGradient id="Безымянный_градиент_139-15" x1="742.74" x2="510.74" y1="-20.19" y2="364.81" xlink:href="#Безымянный_градиент_139"/><linearGradient id="Безымянный_градиент_139-16" x1="711.16" x2="479.16" y1="-39.22" y2="345.78" xlink:href="#Безымянный_градиент_139"/><linearGradient id="Безымянный_градиент_139-17" x1="680.95" x2="448.95" y1="-57.42" y2="327.58" xlink:href="#Безымянный_градиент_139"/><linearGradient id="Безымянный_градиент_139-18" x1="1044.3" x2="812.3" y1="161.53" y2="546.53" xlink:href="#Безымянный_градиент_139"/><linearGradient id="Безымянный_градиент_139-19" x1="1000.55" x2="768.55" y1="135.17" y2="520.17" xlink:href="#Безымянный_градиент_139"/><linearGradient id="Безымянный_градиент_139-20" x1="958.97" x2="726.97" y1="110.11" y2="495.11" xlink:href="#Безымянный_градиент_139"/><linearGradient id="Безымянный_градиент_139-21" x1="919.38" x2="687.38" y1="86.25" y2="471.25" xlink:href="#Безымянный_градиент_139"/><linearGradient id="Безымянный_градиент_139-22" x1="881.65" x2="649.65" y1="63.52" y2="448.52" xlink:href="#Безымянный_градиент_139"/><linearGradient id="Безымянный_градиент_139-23" x1="845.66" x2="613.66" y1="41.83" y2="426.83" xlink:href="#Безымянный_градиент_139"/><linearGradient id="Безымянный_градиент_139-24" x1="811.28" x2="579.28" y1="21.11" y2="406.11" xlink:href="#Безымянный_градиент_139"/><linearGradient id="Безымянный_градиент_139-25" x1="778.41" x2="546.41" y1="1.31" y2="386.31" xlink:href="#Безымянный_градиент_139"/><linearGradient id="Безымянный_градиент_139-26" x1="746.95" x2="514.95" y1="-17.65" y2="367.35" xlink:href="#Безымянный_градиент_139"/><linearGradient id="Безымянный_градиент_139-27" x1="1120.47" x2="888.47" y1="207.43" y2="592.43" xlink:href="#Безымянный_градиент_139"/><linearGradient id="Безымянный_градиент_139-28" x1="1075.15" x2="843.15" y1="180.12" y2="565.12" xlink:href="#Безымянный_градиент_139"/><linearGradient id="Безымянный_градиент_139-29" x1="1032.05" x2="800.05" y1="154.15" y2="539.15" xlink:href="#Безымянный_градиент_139"/><linearGradient id="Безымянный_градиент_139-30" x1="991.01" x2="759.01" y1="129.42" y2="514.42" xlink:href="#Безымянный_градиент_139"/><linearGradient id="Безымянный_градиент_139-31" x1="951.89" x2="719.89" y1="105.84" y2="490.84" xlink:href="#Безымянный_градиент_139"/><linearGradient id="Безымянный_градиент_139-32" x1="914.55" x2="682.55" y1="83.34" y2="468.34" xlink:href="#Безымянный_градиент_139"/><linearGradient id="Безымянный_градиент_139-33" x1="878.87" x2="646.87" y1="61.84" y2="446.84" xlink:href="#Безымянный_градиент_139"/><linearGradient id="Безымянный_градиент_139-34" x1="844.75" x2="612.75" y1="41.28" y2="426.28" xlink:href="#Безымянный_градиент_139"/><linearGradient id="Безымянный_градиент_139-35" x1="812.09" x2="580.09" y1="21.6" y2="406.6" xlink:href="#Безымянный_градиент_139"/><linearGradient id="Безымянный_градиент_139-36" x1="1061.6" x2="829.6" y1="171.95" y2="556.95" xlink:href="#Безымянный_градиент_139"/><linearGradient id="Безымянный_градиент_139-37" x1="1021.12" x2="789.12" y1="147.56" y2="532.56" xlink:href="#Безымянный_градиент_139"/><linearGradient id="Безымянный_градиент_139-38" x1="1025.83" x2="648.83" y1="121.19" y2="326.19" xlink:href="#Безымянный_градиент_139"/><linearGradient id="Безымянный_градиент_48" x1="251.97" x2="1085.54" y1="459.11" y2="459.11" gradientUnits="userSpaceOnUse"><stop offset="0" stop-color="#b8cee8" stop-opacity=".5"/><stop offset="1" stop-color="#7a9ac1"/></linearGradient><linearGradient id="Безымянный_градиент_33" x1="203.26" x2="981.23" y1="634.7" y2="634.7" gradientUnits="userSpaceOnUse"><stop offset="0" stop-color="#7a9ac1"/><stop offset="1" stop-color="#b8cee8" stop-opacity=".5"/></linearGradient><linearGradient id="Безымянный_градиент_200" x1="311.31" x2="312.6" y1="187" y2="187" gradientUnits="userSpaceOnUse"><stop offset="0" stop-color="#277cf4"/><stop offset="1" stop-color="#7aaef9" stop-opacity=".5"/></linearGradient><linearGradient id="Безымянный_градиент_200-2" x1="1086.11" x2="1088.16" y1="511.28" y2="511.28" xlink:href="#Безымянный_градиент_200"/><linearGradient id="Безымянный_градиент_4" x1="123.31" x2="367.31" y1="564.89" y2="852.89" gradientUnits="userSpaceOnUse"><stop offset="0" stop-color="#fff"/><stop offset="1" stop-color="#f8cc46"/></linearGradient><linearGradient id="Безымянный_градиент_2" x1="265.5" x2="334.5" y1="737.76" y2="878.76" gradientUnits="userSpaceOnUse"><stop offset="0" stop-color="#f14600" stop-opacity="0"/><stop offset=".39" stop-color="#f14600" stop-opacity=".27"/><stop offset="1" stop-color="#f14600"/></linearGradient><linearGradient id="Безымянный_градиент_135" x1="825.75" x2="1179.75" y1="772.78" y2="624.78" gradientUnits="userSpaceOnUse"><stop offset=".19" stop-color="#fff"/><stop offset="1" stop-color="#f8cc46"/></linearGradient><linearGradient id="Безымянный_градиент_2-2" x1="1002.27" x2="1043.77" y1="707.39" y2="534.39" xlink:href="#Безымянный_градиент_2"/><linearGradient id="Безымянный_градиент_233" x1="1134.69" x2="1144.81" y1="552.23" y2="582.35" gradientUnits="userSpaceOnUse"><stop offset="0" stop-color="#fff"/><stop offset="1" stop-color="#fadb7b"/></linearGradient><linearGradient id="Безымянный_градиент_230" x1="376.94" x2="345.94" y1="838.28" y2="821.44" gradientUnits="userSpaceOnUse"><stop offset="0" stop-color="#fff"/><stop offset="1" stop-color="#fadc81"/></linearGradient><linearGradient id="Безымянный_градиент_93" x1="258.49" x2="203.49" y1="101.39" y2="438.39" gradientUnits="userSpaceOnUse"><stop offset=".15" stop-color="#fff"/><stop offset="1" stop-color="#f8cc46"/></linearGradient><linearGradient id="Безымянный_градиент_3" x1="265.56" x2="320.89" y1="293.19" y2="488.52" gradientUnits="userSpaceOnUse"><stop offset="0" stop-color="#f14600" stop-opacity="0"/><stop offset=".27" stop-color="#f14600" stop-opacity=".16"/><stop offset="1" stop-color="#f14600"/></linearGradient><linearGradient id="Безымянный_градиент_230-2" x1="291.66" x2="247.11" y1="477.54" y2="453.35" xlink:href="#Безымянный_градиент_230"/></defs><title>114</title><g id="Слой_6" data-name="Слой 6"><path d="M981.23,689.07a54.7,54.7,0,0,0,3.05-6.18c30.91-74-107-202.07-308-286s-389-92-420-18a54.65,54.65,0,0,0-2,5.61L310,184.69q.78-2.41,1.75-4.75C345.47,99.18,546.6,106.29,761,195.82s360.83,227.58,327.1,308.34q-1.14,2.74-2.54,5.35Z" class="cls-1"/><path d="M890.67,845.06a47.91,47.91,0,0,0,2.39-4.91c28.09-67.25-102.72-185.91-292.16-265S235.12,486.39,207,553.64a47.92,47.92,0,0,0-1.87,5.35L254.28,384.7a54.65,54.65,0,0,1,2-5.61c30.91-74,218.93-65.95,420,18s338.94,212,308,286a54.7,54.7,0,0,1-3.05,6.18Z" class="cls-2"/><path d="M891.39,843.37a47.91,47.91,0,0,0,2.39-4.91c28.09-67.25-102.72-185.91-292.16-265s-365.78-88.73-393.87-21.48a47.92,47.92,0,0,0-1.87,5.35L255,383a54.65,54.65,0,0,1,2-5.61c30.91-74,218.93-65.95,420,18s338.94,212,308,286a54.7,54.7,0,0,1-3.05,6.18Z" class="cls-3"/><path d="M253.65,385.46a54.74,54.74,0,0,1,2.24-6.47c30.93-74.06,219-66,420.14,18s339.07,212.11,308.14,286.16q-.66,1.57-1.41,3.09" class="cls-4"/><path d="M204,557.65q.54-1.61,1.2-3.18C233.35,487,410.27,496.7,600.34,576.08S921.66,774.48,893.5,841.93l-.21.5" class="cls-5"/></g><g id="Слой_3" data-name="Слой 3"><polygon points="480.95 715.89 513.58 766.29 610.64 718.04 581.82 666.41 480.95 715.89" class="cls-6"/><polygon points="352.89 307.1 370.74 342.05 452.84 303.36 436.67 268.09 352.89 307.1" class="cls-7"/><polygon points="366.38 350.16 386.03 387.45 469.74 347.77 451.97 310.08 366.38 350.16" class="cls-8"/><polygon points="380.49 395.2 401.96 434.75 487.35 394.04 467.97 354 380.49 395.2" class="cls-9"/><polygon points="395.27 442.37 418.57 484.08 505.51 442.37 484.72 399.97 395.27 442.37" class="cls-10"/><polygon points="410.75 491.8 435.9 535.58 524.86 492.62 502.28 448.15 410.75 491.8" class="cls-11"/><polygon points="427 543.67 454.02 589.38 544.87 545.21 520.7 498.69 427 543.67" class="cls-12"/><polygon points="444.07 598.17 472.96 645.65 565.79 600.19 540.04 551.78 444.07 598.17" class="cls-13"/><polygon points="462.04 655.51 492.8 704.55 587.69 657.74 560.39 607.62 462.04 655.51" class="cls-14"/><polygon points="563.68 208.94 577.36 244.69 496.33 282.87 481.03 247.43 563.68 208.94" class="cls-15"/><polygon points="497.29 288.86 514.08 326.76 596.67 287.61 581.7 249.33 497.29 288.86" class="cls-16"/><polygon points="514.29 332.18 532.57 372.47 616.79 332.31 600.54 291.56 514.29 332.18" class="cls-17"/><polygon points="532.08 377.53 551.84 420.14 637.77 378.91 620.25 335.75 532.08 377.53" class="cls-18"/><polygon points="550.72 425.05 571.95 469.87 659.65 427.52 640.9 382.04 550.72 425.05" class="cls-19"/><polygon points="570.28 474.89 592.96 521.82 682.49 478.29 662.56 430.59 570.28 474.89" class="cls-20"/><polygon points="590.82 527.24 614.92 576.13 706.38 531.35 685.3 481.57 590.82 527.24" class="cls-21"/><polygon points="612.42 582.29 637.91 632.97 731.37 586.87 709.21 535.16 612.42 582.29" class="cls-22"/><polygon points="635.16 640.24 661.99 692.52 757.54 645.02 734.38 591.57 635.16 640.24" class="cls-23"/><polygon points="689 150.58 700.25 186.78 620.28 224.47 607.45 188.55 689 150.58" class="cls-24"/><polygon points="709.66 189.41 721.93 228.25 640.42 266.88 626.4 228.4 709.66 189.41" class="cls-25"/><polygon points="731.25 229.98 744.49 271.42 661.4 311.04 646.21 270.04 731.25 229.98" class="cls-26"/><polygon points="753.84 272.44 768.01 316.42 683.27 357.07 666.93 313.63 753.84 272.44" class="cls-27"/><polygon points="777.5 316.9 792.53 363.34 706.07 405.1 688.63 359.27 777.5 316.9" class="cls-28"/><polygon points="802.3 363.51 818.13 412.33 729.89 455.24 711.4 407.14 802.3 363.51" class="cls-29"/><polygon points="828.33 412.43 844.89 463.52 754.78 507.64 735.3 457.4 828.33 412.43" class="cls-30"/><polygon points="855.69 463.84 872.87 517.06 780.82 562.47 760.42 510.23 855.69 463.84" class="cls-31"/><polygon points="884.47 517.93 902.17 573.13 808.09 619.89 786.85 565.82 884.47 517.93" class="cls-32"/><polygon points="812.65 92.99 821.57 129.62 742.62 166.82 732.19 130.46 812.65 92.99" class="cls-33"/><polygon points="835.88 130.29 845.53 169.67 765.1 207.79 753.75 168.76 835.88 130.29" class="cls-34"/><polygon points="860.15 169.27 870.47 211.35 788.5 250.44 776.28 208.77 860.15 169.27" class="cls-35"/><polygon points="885.53 210.03 896.46 254.78 812.88 294.88 799.85 250.63 885.53 210.03" class="cls-36"/><polygon points="912.11 252.7 923.55 300.06 838.31 341.23 824.53 294.46 912.11 252.7" class="cls-37"/><polygon points="939.96 297.42 951.83 347.32 864.85 389.62 850.41 340.41 939.96 297.42" class="cls-38"/><polygon points="969.18 344.34 981.37 396.69 892.58 440.17 877.56 388.63 969.18 344.34" class="cls-39"/><polygon points="999.87 393.63 1012.26 448.3 921.58 493.03 906.09 439.3 999.87 393.63" class="cls-40"/><polygon points="1032.16 445.48 1044.59 502.33 951.95 548.38 936.1 492.6 1032.16 445.48" class="cls-41"/><polygon points="1015.37 148.5 1023.16 193.99 940.72 233.54 930.89 188.53 1015.37 148.5" class="cls-42"/><polygon points="1044.77 189.43 1052.76 237.66 968.69 278.26 958.46 230.59 1044.77 189.43" class="cls-43"/><polygon points="1075.58 232.31 1083.63 283.24 997.88 324.93 987.35 274.67 1075.58 232.31" class="cls-44"/><polygon points="607.45 188.55 620.28 224.47 607.03 196.56 595.03 162.42 607.45 188.55" class="cls-45"/><polygon points="613.42 201.1 626.63 237.84 640.42 266.88 626.4 228.4 613.42 201.1" class="cls-46"/><polygon points="632.64 241.51 647.04 280.8 661.4 311.04 646.21 270.04 632.64 241.51" class="cls-47"/><polygon points="652.73 283.76 668.29 325.55 683.27 357.07 666.93 313.63 652.73 283.76" class="cls-48"/><polygon points="673.76 327.99 690.45 372.21 706.07 405.1 688.63 359.27 673.76 327.99" class="cls-49"/><polygon points="695.79 374.33 713.58 421.3 729.89 455.24 711.4 407.14 695.79 374.33" class="cls-50"/><polygon points="735.3 457.4 754.78 507.64 737.73 471.74 718.91 422.94 735.3 457.4" class="cls-51"/><polygon points="743.19 474 762.98 524.9 780.82 562.47 760.42 510.23 743.19 474" class="cls-52"/><polygon points="786.85 565.82 808.09 619.89 789.4 580.54 768.72 527.69 786.85 565.82" class="cls-53"/><polygon points="732.19 130.46 742.62 166.82 727.84 139.86 718.04 105.34 732.19 130.46" class="cls-54"/><polygon points="738.98 142.53 749.71 179.74 765.1 207.79 753.75 168.76 738.98 142.53" class="cls-55"/><polygon points="776.28 208.77 788.5 250.44 772.48 221.24 760.85 181.36 776.28 208.77" class="cls-56"/><polygon points="783.7 221.95 796.18 264.45 812.88 294.88 799.85 250.63 783.7 221.95" class="cls-57"/><polygon points="807.62 264.42 820.89 309.49 838.31 341.23 824.53 294.46 807.62 264.42" class="cls-58"/><polygon points="832.67 308.92 846.67 356.48 864.85 389.62 850.41 340.41 832.67 308.92" class="cls-59"/><polygon points="858.94 355.57 873.58 405.54 892.58 440.17 877.56 388.63 858.94 355.57" class="cls-60"/><polygon points="886.53 404.56 901.71 456.81 921.58 493.03 906.09 439.3 886.53 404.56" class="cls-61"/><polygon points="915.52 456.04 931.14 510.45 951.95 548.38 936.1 492.6 915.52 456.04" class="cls-62"/><polygon points="930.89 188.53 940.72 233.54 922.35 204.17 912.85 161 930.89 188.53" class="cls-63"/><polygon points="939.57 201.77 949.54 247.64 968.69 278.26 958.46 230.59 939.57 201.77" class="cls-64"/><polygon points="987.35 274.67 997.88 324.93 977.89 292.96 967.55 244.46 987.35 274.67" class="cls-65"/><polygon points="567.12 626.08 594.91 676.71 610.64 718.04 581.82 666.41 567.12 626.08" class="cls-66"/><polygon points="426.63 240.56 441.73 274.15 452.84 303.36 436.67 268.09 426.63 240.56" class="cls-67"/><polygon points="441.49 281.31 458.17 317.37 469.74 347.77 451.97 310.08 441.49 281.31" class="cls-67"/><polygon points="457.01 323.91 475.29 362.36 487.35 394.04 467.97 354 457.01 323.91" class="cls-67"/><polygon points="473.24 368.47 493.13 409.24 505.51 442.37 484.61 399.66 473.24 368.47" class="cls-67"/><polygon points="490.25 415.13 511.74 458.13 524.86 492.62 502.28 448.15 490.25 415.13" class="cls-67"/><polygon points="508.07 464.04 531.16 509.18 544.87 545.21 520.7 498.69 508.07 464.04" class="cls-67"/><polygon points="526.78 515.38 551.46 562.52 565.79 600.19 540.04 551.78 526.78 515.38" class="cls-67"/><polygon points="546.44 569.33 572.69 618.3 587.69 657.74 560.39 607.62 546.44 569.33" class="cls-67"/><polygon points="581.82 666.41 480.95 715.89 467.98 674.47 567.12 626.08 581.82 666.41" class="cls-68"/><polygon points="560.39 607.62 462.04 655.51 449.72 616.19 546.44 569.33 560.39 607.62" class="cls-69"/><polygon points="540.04 551.78 444.07 598.17 432.37 560.8 526.78 515.38 540.04 551.78" class="cls-70"/><polygon points="520.7 498.69 427 543.67 415.86 508.11 508.07 464.04 520.7 498.69" class="cls-71"/><polygon points="502.28 448.15 410.75 491.8 400.14 457.92 490.25 415.13 502.28 448.15" class="cls-72"/><polygon points="484.72 399.97 395.27 442.37 385.14 410.05 473.24 368.47 484.72 399.97" class="cls-73"/><polygon points="467.97 354 380.49 395.2 370.82 364.34 457.01 323.91 467.97 354" class="cls-74"/><polygon points="451.97 310.08 366.38 350.16 357.14 320.66 441.49 281.31 451.97 310.08" class="cls-75"/><polygon points="436.67 268.09 352.89 307.1 344.05 278.87 426.63 240.56 436.67 268.09" class="cls-76"/><polygon points="734.38 591.57 635.16 640.24 619.56 600.49 717.12 552.88 734.38 591.57" class="cls-77"/><polygon points="709.21 535.16 612.42 582.29 597.61 544.53 692.82 498.41 709.21 535.16" class="cls-78"/><polygon points="685.3 481.57 590.82 527.24 576.74 491.35 669.71 446.62 685.3 481.57" class="cls-79"/><polygon points="662.56 430.59 570.28 474.89 556.87 440.72 647.72 397.31 662.56 430.59" class="cls-80"/><polygon points="640.9 382.04 550.72 425.05 537.95 392.48 626.75 350.31 640.9 382.04" class="cls-81"/><polygon points="620.25 335.75 532.08 377.53 519.89 346.45 606.74 305.46 620.25 335.75" class="cls-82"/><polygon points="600.54 291.56 514.29 332.18 502.64 302.5 587.63 262.62 600.54 291.56" class="cls-83"/><polygon points="581.7 249.33 497.29 288.86 486.15 260.48 569.36 221.66 581.7 249.33" class="cls-84"/><polygon points="563.68 208.94 481.03 247.43 470.38 220.26 551.86 182.45 563.68 208.94" class="cls-85"/><polygon points="884.47 517.93 786.85 565.82 768.72 527.69 864.73 480.83 884.47 517.93" class="cls-86"/><polygon points="855.69 463.84 760.42 510.23 743.19 474 836.93 428.58 855.69 463.84" class="cls-87"/><polygon points="828.33 412.43 735.3 457.4 718.91 422.94 810.48 378.89 828.33 412.43" class="cls-88"/><polygon points="802.3 363.51 711.4 407.14 695.79 374.33 785.3 331.56 802.3 363.51" class="cls-89"/><polygon points="777.5 316.9 688.63 359.27 673.76 327.99 761.28 286.43 777.5 316.9" class="cls-90"/><polygon points="753.84 272.44 666.93 313.63 652.73 283.76 738.36 243.35 753.84 272.44" class="cls-91"/><polygon points="731.25 229.98 646.21 270.04 632.64 241.51 716.46 202.18 731.25 229.98" class="cls-92"/><polygon points="709.66 189.41 626.4 228.4 613.42 201.1 695.5 162.81 709.66 189.41" class="cls-93"/><polygon points="689 150.58 607.45 188.55 595.03 162.42 675.44 125.11 689 150.58" class="cls-94"/><polygon points="1032.16 445.48 936.1 492.6 915.52 456.04 1010.02 409.92 1032.16 445.48" class="cls-95"/><polygon points="999.87 393.63 906.09 439.3 886.53 404.56 978.83 359.84 999.87 393.63" class="cls-96"/><polygon points="969.18 344.34 877.56 388.63 858.94 355.57 949.14 312.18 969.18 344.34" class="cls-97"/><polygon points="939.96 297.42 850.41 340.41 832.67 308.92 920.87 266.77 939.96 297.42" class="cls-98"/><polygon points="912.11 252.7 824.53 294.46 807.62 264.42 893.89 223.46 912.11 252.7" class="cls-99"/><polygon points="885.53 210.03 799.85 250.63 783.7 221.95 868.14 182.1 885.53 210.03" class="cls-100"/><polygon points="860.15 169.27 776.28 208.77 760.85 181.36 843.52 142.57 860.15 169.27" class="cls-101"/><polygon points="835.88 130.29 753.75 168.76 738.98 142.53 819.97 104.74 835.88 130.29" class="cls-102"/><polygon points="812.65 92.99 732.19 130.46 718.04 105.34 797.4 68.52 812.65 92.99" class="cls-103"/><polygon points="1075.58 232.31 987.35 274.67 967.55 244.46 1054.46 202.92 1075.58 232.31" class="cls-104"/><polygon points="1044.77 189.43 958.46 230.59 939.57 201.77 1024.62 161.38 1044.77 189.43" class="cls-105"/><polygon points="1015.37 148.5 930.89 188.53 912.85 161 996.12 121.7 1015.37 148.5" class="cls-106"/></g><g id="Слой_5" data-name="Слой 5"><path d="M981.23,689.07c-38.68,67.3-221.66,57.35-416.9-24.19-196-81.87-332-205.68-310-280.41L310,184.69C283.7,266,428.61,400.48,638.84,488.28c209.53,87.51,406.41,96.28,446.7,21.23Z" class="cls-107"/><path d="M890.69,845.06c-34.54,61.82-206.79,50.74-391.48-26.39C314.7,741.61,185.81,627,205.18,559l49.13-174.52c-22,74.73,114,198.54,310,280.41,195.25,81.54,378.22,91.49,416.9,24.19Z" class="cls-108"/><path d="M311.31,189.32l1.29-4.64C312.11,186.21,311.69,187.76,311.31,189.32Z" class="cls-109"/><path d="M1086.11,513.05q1.09-1.74,2.06-3.54Z" class="cls-110"/><path d="M649.82,868c-324.67-133.72-386.55-367.65-397-478.28L205.18,559c-19.37,68,109.52,182.62,294,259.67C551.35,840.45,602.49,857,649.82,868Z" class="cls-111"/><path d="M447.69,464.94C367.29,412,311.23,354.82,293,306.07" class="cls-112"/><path d="M357.84,476.55c-29.17-24.61-52.26-49.22-67.91-72.58" class="cls-112"/><path d="M979,664c-55.58,26.57-162,21.18-283.85-14.66" class="cls-112"/><path d="M474.13,718.74c-54.93-26.92-103.33-56.87-142.38-87.23" class="cls-112"/><path d="M276.83,582.08c-13.46-14.41-24.41-28.58-32.54-42.23" class="cls-112"/><path d="M408.09,631.51A709.33,709.33,0,0,1,346,588.18" class="cls-112"/><path d="M398.59,729.22A756.7,756.7,0,0,1,317.1,675" class="cls-112"/><path d="M330.69,570.82c3-9.37-.62-20.18-8.12-24.14s-16,.42-19.05,9.79.62,20.18,8.12,24.14S327.67,580.19,330.69,570.82Z" class="cls-68"/><path d="M316,613.78c3-9.37-.62-20.18-8.12-24.14s-16,.42-19.05,9.79.62,20.18,8.12,24.14S313,623.15,316,613.78Z" class="cls-113"/><path d="M300.6,657.93c3-9.37-.62-20.18-8.12-24.14s-16,.42-19.05,9.79.62,20.18,8.12,24.14S297.58,667.3,300.6,657.93Z" class="cls-113"/><path d="M857.89,618.2c3-9.37,12.23-16,20.58-14.89s12.67,9.67,9.65,19-12.23,16-20.58,14.89S854.87,627.57,857.89,618.2Z" class="cls-113"/><path d="M778.3,812.58c1.26-3.91,5.11-6.7,8.6-6.22s5.29,4,4,8-5.11,6.7-8.6,6.22S777,816.49,778.3,812.58Z" class="cls-114"/><path d="M788.73,790.74c1.26-3.91,5.11-6.7,8.6-6.22s5.29,4,4,8-5.11,6.7-8.6,6.22S787.47,794.66,788.73,790.74Z" class="cls-115"/><path d="M812.54,813.57c1.26-3.91,5.11-6.7,8.6-6.22s5.29,4,4,8-5.11,6.7-8.6,6.22S811.28,817.49,812.54,813.57Z" class="cls-68"/><path d="M789.84,860.48c1.26-3.91,5.11-6.7,8.6-6.22s5.29,4,4,8-5.11,6.7-8.6,6.22S788.58,864.39,789.84,860.48Z" class="cls-116"/><path d="M823.55,791.56c1.26-3.91,5.11-6.7,8.6-6.22s5.29,4,4,8-5.11,6.7-8.6,6.22S822.29,795.47,823.55,791.56Z" class="cls-113"/><path d="M844,811.32c1.26-3.91,5.11-6.7,8.6-6.22s5.29,4,4,8-5.11,6.7-8.6,6.22S842.78,815.24,844,811.32Z" class="cls-114"/><path d="M742,809.09c1.26-3.91,5.11-6.7,8.6-6.22s5.29,4,4,8-5.11,6.7-8.6,6.22S740.77,813,742,809.09Z" class="cls-114"/><path d="M704.77,803c1.26-3.91,5.11-6.7,8.6-6.22s5.29,4,4,8-5.11,6.7-8.6,6.22S703.51,806.89,704.77,803Z" class="cls-117"/><path d="M714.24,780.63c1.26-3.91,5.11-6.7,8.6-6.22s5.29,4,4,8-5.11,6.7-8.6,6.22S713,784.54,714.24,780.63Z" class="cls-113"/><path d="M723.6,758.28c1.26-3.91,5.11-6.7,8.6-6.22s5.29,4,4,8-5.11,6.7-8.6,6.22S722.34,762.19,723.6,758.28Z" class="cls-68"/><path d="M685.48,749.91c1.26-3.91,5.11-6.7,8.6-6.22s5.29,4,4,8-5.11,6.7-8.6,6.22S684.22,753.82,685.48,749.91Z" class="cls-115"/><path d="M658.85,817.26c1.26-3.91,5.11-6.7,8.6-6.22s5.29,4,4,8-5.11,6.7-8.6,6.22S657.59,821.17,658.85,817.26Z" class="cls-115"/><path d="M649.07,842.2c1.26-3.91,5.11-6.7,8.6-6.22s5.29,4,4,8-5.11,6.7-8.6,6.22S647.81,846.11,649.07,842.2Z" class="cls-117"/><path d="M695.51,825.33c1.26-3.91,5.11-6.7,8.6-6.22s5.29,4,4,8-5.11,6.7-8.6,6.22S694.25,829.24,695.51,825.33Z" class="cls-114"/><path d="M731.42,831.45c1.26-3.91,5.11-6.7,8.6-6.22s5.29,4,4,8-5.11,6.7-8.6,6.22S730.16,835.36,731.42,831.45Z" class="cls-115"/><path d="M963.84,612.43c3-9.37,12.23-16,20.58-14.89s12.67,9.67,9.65,19-12.23,16-20.58,14.89S960.82,621.8,963.84,612.43Z" class="cls-68"/><path d="M914,618.72c3-9.37,12.23-16,20.58-14.89s12.67,9.67,9.65,19-12.23,16-20.58,14.89S911,628.1,914,618.72Z" class="cls-68"/><path d="M416.25,360.52c-83-66-126.13-133.7-106.24-181.31" class="cls-118"/><path d="M808.09,543.31c-19.12-4.38-38.75-9.55-58.77-15.5" class="cls-118"/><path d="M1091.23,505.47C1071,554,989.76,570.64,881.34,556.59" class="cls-118"/><path d="M542.57,655.47C359,574,232.08,456.14,253.33,380.75" class="cls-118"/><path d="M986.83,681.83c-13.26,27.13-45.07,43.31-89.39,49.26" class="cls-118"/></g><g id="Слой_7" data-name="Слой 7"><path d="M346.36,855.08a901.75,901.75,0,0,1-88.25-65.18c-28-23.58-54.43-49.1-77.86-77.41a375.6,375.6,0,0,1-32.15-44.87C138.59,651.79,130.36,635,125,617.1a134.74,134.74,0,0,1-5.35-27.49,99.19,99.19,0,0,1-.25-14,91.68,91.68,0,0,1,1.76-13.91A80.94,80.94,0,0,1,131.33,536a83.31,83.31,0,0,1,17.77-20.34.5.5,0,0,1,.69.72,80.5,80.5,0,0,0-14.39,21.76,74.52,74.52,0,0,0-6.11,24.7,82.58,82.58,0,0,0,.12,12.62,88.37,88.37,0,0,0,1.92,12.45A107.44,107.44,0,0,0,134.76,600c1.38,4,2.92,7.91,4.68,11.75,7,15.4,16.52,29.65,27.2,43a349.8,349.8,0,0,0,35.28,37.34c25.3,23.29,53.24,43.77,82.37,62.26A850.7,850.7,0,0,0,375,804a29.35,29.35,0,1,1-28.46,51.2Z" class="cls-119"/><path d="M346.36,855.08a901.75,901.75,0,0,1-88.25-65.18c-28-23.58-54.43-49.1-77.86-77.41a375.6,375.6,0,0,1-32.15-44.87C138.59,651.79,130.36,635,125,617.1a134.74,134.74,0,0,1-5.35-27.49,99.19,99.19,0,0,1-.25-14,91.68,91.68,0,0,1,1.76-13.91A80.94,80.94,0,0,1,131.33,536a83.31,83.31,0,0,1,17.77-20.34.5.5,0,0,1,.69.72,80.5,80.5,0,0,0-14.39,21.76,74.52,74.52,0,0,0-6.11,24.7,82.58,82.58,0,0,0,.12,12.62,88.37,88.37,0,0,0,1.92,12.45A107.44,107.44,0,0,0,134.76,600c1.38,4,2.92,7.91,4.68,11.75,7,15.4,16.52,29.65,27.2,43a349.8,349.8,0,0,0,35.28,37.34c25.3,23.29,53.24,43.77,82.37,62.26A850.7,850.7,0,0,0,375,804a29.35,29.35,0,1,1-28.46,51.2Z" class="cls-120"/><path d="M1161.33,557.21a255,255,0,0,1,11.22,31.53,191.84,191.84,0,0,1,6.39,33.61,149.72,149.72,0,0,1-.66,35,128.12,128.12,0,0,1-9.7,34.14,126,126,0,0,1-18.69,29.75,141.94,141.94,0,0,1-25.06,23.17A178.81,178.81,0,0,1,1096.32,761l-3.69,1.7c-1.23.57-2.46,1.14-3.71,1.62l-7.48,3c-2.51.94-5,1.78-7.55,2.67-1.26.43-2.51.91-3.78,1.29l-3.81,1.15c-20.28,6.25-40.9,9.78-61.45,12a489.45,489.45,0,0,1-61.52,2.18c-40.84-1-81.19-6.19-120.85-13.91a.5.5,0,0,1,.14-1c40.17,3.78,80.55,4.93,120.39,2a473.57,473.57,0,0,0,59-7.94c19.28-4,38.22-9.28,55.91-16.74l3.32-1.37c1.11-.45,2.17-1,3.26-1.49,2.15-1,4.33-2,6.46-3l6.28-3.28c1.06-.52,2.07-1.12,3.07-1.72l3-1.78a149.41,149.41,0,0,0,22.31-16.08,109.27,109.27,0,0,0,17.44-19.67,90.45,90.45,0,0,0,11.23-22.6c5.21-15.86,5.58-32.88,2.21-49.79s-10.27-33.67-19.08-49.66a24.43,24.43,0,0,1,42.8-23.57q.58,1.05,1,2.14Z" class="cls-121"/><path d="M1161.33,557.21a255,255,0,0,1,11.22,31.53,191.84,191.84,0,0,1,6.39,33.61,149.72,149.72,0,0,1-.66,35,128.12,128.12,0,0,1-9.7,34.14,126,126,0,0,1-18.69,29.75,141.94,141.94,0,0,1-25.06,23.17A178.81,178.81,0,0,1,1096.32,761l-3.69,1.7c-1.23.57-2.46,1.14-3.71,1.62l-7.48,3c-2.51.94-5,1.78-7.55,2.67-1.26.43-2.51.91-3.78,1.29l-3.81,1.15c-20.28,6.25-40.9,9.78-61.45,12a489.45,489.45,0,0,1-61.52,2.18c-40.84-1-81.19-6.19-120.85-13.91a.5.5,0,0,1,.14-1c40.17,3.78,80.55,4.93,120.39,2a473.57,473.57,0,0,0,59-7.94c19.28-4,38.22-9.28,55.91-16.74l3.32-1.37c1.11-.45,2.17-1,3.26-1.49,2.15-1,4.33-2,6.46-3l6.28-3.28c1.06-.52,2.07-1.12,3.07-1.72l3-1.78a149.41,149.41,0,0,0,22.31-16.08,109.27,109.27,0,0,0,17.44-19.67,90.45,90.45,0,0,0,11.23-22.6c5.21-15.86,5.58-32.88,2.21-49.79s-10.27-33.67-19.08-49.66a24.43,24.43,0,0,1,42.8-23.57q.58,1.05,1,2.14Z" class="cls-122"/><circle cx="1139.76" cy="567.31" r="15.78" class="cls-123"/><circle cx="361.64" cy="829.97" r="18.75" class="cls-124"/></g><g id="Слой_8" data-name="Слой 8"><path d="M241.82,491.85a659.92,659.92,0,0,1-45.41-53.68c-1.78-2.34-3.55-4.69-5.27-7.1s-3.47-4.77-5.17-7.18l-5-7.31c-1.69-2.42-3.28-4.95-4.91-7.41-6.46-10-12.65-20.12-18.3-30.71-11.29-21.13-21-43.54-27.08-67.54a200.24,200.24,0,0,1-5.93-37,157.43,157.43,0,0,1,2.15-38.1,130.91,130.91,0,0,1,33.87-67c1-1.16,2.14-2.23,3.24-3.31s2.18-2.17,3.31-3.21c2.3-2,4.53-4.13,6.92-6a162.48,162.48,0,0,1,14.61-10.63,197.08,197.08,0,0,1,31.34-16.09c21.52-8.7,43.77-13.9,66-17.12a445.68,445.68,0,0,1,66.73-4.12.5.5,0,0,1,.06,1,440,440,0,0,0-64.59,13.33c-20.93,6.13-41.21,14.13-59.48,24.77a174.73,174.73,0,0,0-25.42,18A136.39,136.39,0,0,0,192.57,176c-1.74,1.8-3.27,3.76-4.88,5.63-.78,1-1.5,2-2.25,2.93s-1.5,1.94-2.17,3l-2.07,3c-.66,1-1.27,2.07-1.91,3.09l-.95,1.54-.86,1.58-1.72,3.16-1.54,3.23c-.25.54-.53,1.06-.76,1.61l-.68,1.65c-.44,1.1-.93,2.18-1.34,3.29L170.27,213a95.07,95.07,0,0,0-4.95,27.49c-.68,18.65,3.69,37.55,11.18,55.61s18,35.38,30.07,51.75c6,8.2,12.56,16.12,19.32,23.86,1.72,1.92,3.37,3.88,5.14,5.77l5.26,5.68c1.77,1.88,3.6,3.73,5.39,5.59s3.62,3.7,5.47,5.52a589.13,589.13,0,0,0,46.79,41.53A38.36,38.36,0,1,1,242,492.06Z" class="cls-125"/><path d="M241.82,491.85a659.92,659.92,0,0,1-45.41-53.68c-1.78-2.34-3.55-4.69-5.27-7.1s-3.47-4.77-5.17-7.18l-5-7.31c-1.69-2.42-3.28-4.95-4.91-7.41-6.46-10-12.65-20.12-18.3-30.71-11.29-21.13-21-43.54-27.08-67.54a200.24,200.24,0,0,1-5.93-37,157.43,157.43,0,0,1,2.15-38.1,130.91,130.91,0,0,1,33.87-67c1-1.16,2.14-2.23,3.24-3.31s2.18-2.17,3.31-3.21c2.3-2,4.53-4.13,6.92-6a162.48,162.48,0,0,1,14.61-10.63,197.08,197.08,0,0,1,31.34-16.09c21.52-8.7,43.77-13.9,66-17.12a445.68,445.68,0,0,1,66.73-4.12.5.5,0,0,1,.06,1,440,440,0,0,0-64.59,13.33c-20.93,6.13-41.21,14.13-59.48,24.77a174.73,174.73,0,0,0-25.42,18A136.39,136.39,0,0,0,192.57,176c-1.74,1.8-3.27,3.76-4.88,5.63-.78,1-1.5,2-2.25,2.93s-1.5,1.94-2.17,3l-2.07,3c-.66,1-1.27,2.07-1.91,3.09l-.95,1.54-.86,1.58-1.72,3.16-1.54,3.23c-.25.54-.53,1.06-.76,1.61l-.68,1.65c-.44,1.1-.93,2.18-1.34,3.29L170.27,213a95.07,95.07,0,0,0-4.95,27.49c-.68,18.65,3.69,37.55,11.18,55.61s18,35.38,30.07,51.75c6,8.2,12.56,16.12,19.32,23.86,1.72,1.92,3.37,3.88,5.14,5.77l5.26,5.68c1.77,1.88,3.6,3.73,5.39,5.59s3.62,3.7,5.47,5.52a589.13,589.13,0,0,0,46.79,41.53A38.36,38.36,0,1,1,242,492.06Z" class="cls-126"/><circle cx="269.68" cy="465.61" r="26.94" class="cls-127"/></g></svg>