<svg xmlns="http://www.w3.org/2000/svg" xmlns:xlink="http://www.w3.org/1999/xlink" x="0" y="0" enable-background="new 0 0 1280 960" version="1.1" viewBox="0 0 1280 960" xml:space="preserve"><style type="text/css">.st0{fill:url(#SVGID_1_)}.st1{opacity:.2;fill:url(#SVGID_2_)}.st2{opacity:.1;fill:url(#SVGID_3_)}.st3{opacity:.5;fill:none;stroke:#fff;stroke-width:2;stroke-linecap:round;stroke-miterlimit:10}.st4{display:none}.st5{display:inline;fill:none;stroke:#1d1d1b;stroke-miterlimit:10}.st6{opacity:.5;fill:url(#SVGID_4_)}.st7,.st8{opacity:.71;fill:url(#SVGID_5_)}.st8{fill:url(#SVGID_6_)}.st9{fill:#f5faff}.st10{opacity:.6;fill:url(#SVGID_7_)}.st11{fill:none;stroke:#fff;stroke-width:4;stroke-linecap:round;stroke-miterlimit:10}.st12{fill:#f14600}.st13{fill:#257af4}.st14{fill:#f8cc47}.st15{fill:#444451}.st16{opacity:.3;fill:url(#SVGID_8_)}.st17{opacity:.2;fill:url(#SVGID_9_)}.st18,.st19{opacity:.63;fill:none;stroke:#fff;stroke-width:2;stroke-linecap:round;stroke-miterlimit:10}.st19{opacity:.54;stroke:#dce6ef}.st20{fill:#dd4a07}.st21{fill:url(#SVGID_10_)}.st22{fill:url(#SVGID_11_)}.st23{fill:url(#SVGID_12_)}.st24{fill:url(#SVGID_13_)}.st25{fill:#f8ce4f}.st26{fill:url(#SVGID_14_)}.st27{fill:url(#SVGID_15_)}.st28{fill:url(#SVGID_16_)}.st29{fill:url(#SVGID_17_)}.st30{opacity:.7}.st31{fill:url(#SVGID_18_)}.st32{fill:url(#SVGID_19_)}.st33{fill:url(#SVGID_20_)}.st34{fill:url(#SVGID_21_)}</style><g id="Слой_13"><linearGradient id="SVGID_1_" x1="768.592" x2="1605.238" y1="362.033" y2="362.033" gradientTransform="matrix(-1 0 0 1 1819.6328 0)" gradientUnits="userSpaceOnUse"><stop offset="0" stop-color="#D3E2F5"/><stop offset="1" stop-color="#E3F1FE"/></linearGradient><path d="M632.7,406.3c-231,0-418.3,104.2-418.3,232.6V317.8c0-128.5,187.3-232.6,418.3-232.6S1051,189.3,1051,317.8 v321.1C1051,510.4,863.8,406.3,632.7,406.3z" class="st0"/><linearGradient id="SVGID_2_" x1="768.549" x2="1605.195" y1="362.033" y2="362.033" gradientTransform="matrix(-1 0 0 1 1819.6328 0)" gradientUnits="userSpaceOnUse"><stop offset="0" stop-color="#D3E2F5"/><stop offset="1" stop-color="#E3F1FE"/></linearGradient><path d="M632.8,406.3c-231,0-418.3,104.2-418.3,232.6V317.8c0-128.5,187.3-232.6,418.3-232.6s418.3,104.2,418.3,232.6 v321.1C1051.1,510.4,863.8,406.3,632.8,406.3z" class="st1"/><linearGradient id="SVGID_3_" x1="768.603" x2="1605.249" y1="740.451" y2="740.451" gradientTransform="matrix(-1 0 0 -1 1819.6328 1182.8362)" gradientUnits="userSpaceOnUse"><stop offset="0" stop-color="#7A9AC1"/><stop offset="1" stop-color="#B8CEE8" stop-opacity=".5"/></linearGradient><path d="M632.7,406.3c231,0,418.3,104.2,418.3,232.6V478.4c0-128.5-187.3-232.6-418.3-232.6S214.4,349.9,214.4,478.4 V639C214.4,510.5,401.7,406.3,632.7,406.3z" class="st2"/><path d="M678.5,247.2c-15-0.9-30.3-1.4-45.7-1.4c-197.9,0-363.6,76.4-407.2,179" class="st3"/><path d="M999.5,366.5c-37.2-37.6-92.6-68.9-159.6-90.2" class="st3"/></g><g id="_x32_22_2_" class="st4"><path d="M778,474.9c15.7,26.1,80.9,16.4,145.9-3" class="st5"/><path d="M486.8,474.9c-15.7,26.1-80.2,16.4-145.2-3" class="st5"/></g><g id="Слой_9"><linearGradient id="SVGID_4_" x1="981.944" x2="1392.696" y1="421.245" y2="421.245" gradientTransform="matrix(-1 0 0 1 1819.6328 0)" gradientUnits="userSpaceOnUse"><stop offset="0" stop-color="#87ADDE"/><stop offset="1" stop-color="#9FBEDE"/></linearGradient><path d="M632.3,443c-113.4,0-205.4,51.1-205.4,114.2V399.5c0-63.1,91.9-114.2,205.4-114.2s205.4,51.1,205.4,114.2 v157.7C837.7,494.1,745.7,443,632.3,443z" class="st6"/><linearGradient id="SVGID_5_" x1="981.944" x2="1392.696" y1="535.459" y2="535.459" gradientTransform="matrix(-1 0 0 1 1819.6328 0)" gradientUnits="userSpaceOnUse"><stop offset="0" stop-color="#AECDEC" stop-opacity=".656"/><stop offset="1" stop-color="#6B9AC1"/></linearGradient><path d="M632.3,513.7c113.4,0,205.4-51.1,205.4-114.2v157.7c0,63.1-91.9,114.2-205.4,114.2s-205.4-51.1-205.4-114.2 V399.5C426.9,462.6,518.9,513.7,632.3,513.7z" class="st7"/><linearGradient id="SVGID_6_" x1="981.949" x2="1392.701" y1="535.459" y2="535.459" gradientTransform="matrix(-1 0 0 1 1819.6328 0)" gradientUnits="userSpaceOnUse"><stop offset="0" stop-color="#AECDEC" stop-opacity=".656"/><stop offset="1" stop-color="#5A86C1"/></linearGradient><path d="M632.3,513.7c113.4,0,205.4-51.1,205.4-114.2v157.7c0,63.1-91.9,114.2-205.4,114.2s-205.4-51.1-205.4-114.2 V399.5C426.9,462.6,518.9,513.7,632.3,513.7z" class="st8"/><ellipse cx="632.5" cy="399.1" class="st9" rx="206.9" ry="115.9"/><linearGradient id="SVGID_7_" x1="981.949" x2="1392.701" y1="574.873" y2="574.873" gradientTransform="matrix(-1 0 0 1 1819.6328 0)" gradientUnits="userSpaceOnUse"><stop offset="0" stop-color="#7A9AC1" stop-opacity=".8"/><stop offset="1" stop-color="#5574BA" stop-opacity=".2"/></linearGradient><path d="M632.3,592.6c113.4,0,205.4-51.1,205.4-114.2v78.8c0,63.1-91.9,114.2-205.4,114.2s-205.4-51.1-205.4-114.2 v-78.8C426.9,541.4,518.9,592.6,632.3,592.6z" class="st10"/><path d="M687,588.5c87.9-13.3,152.4-57.6,152.4-110.1" class="st11"/><path d="M546.8,582.2c17.6,4.5,36.5,7.6,56.3,9.2" class="st11"/><ellipse cx="493.2" cy="510.9" class="st12" rx="8.2" ry="10" transform="matrix(0.866 -0.5 0.5 0.866 -189.3727 315.0233)"/><ellipse cx="521.3" cy="521.8" class="st13" rx="8.2" ry="10" transform="matrix(0.866 -0.5 0.5 0.866 -191.0516 330.5624)"/><ellipse cx="549.8" cy="639.4" class="st14" rx="8.2" ry="10" transform="matrix(0.866 -0.5 0.5 0.866 -246.0345 360.5734)"/><ellipse cx="582.8" cy="645.5" class="st14" rx="8.2" ry="10" transform="matrix(0.866 -0.5 0.5 0.866 -244.6991 377.8622)"/><path d="M754.8,518.2c32.3-13.7,57.1-32.6,70.2-54.5" class="st3"/><path d="M439.6,472.8c7.7,10.8,18.3,20.7,31.5,29.6" class="st3"/><path d="M472.4,578.2c32.7,22.2,80.1,37.3,133.9,40.9" class="st3"/><path d="M446.4,555.7c4.6,5.3,9.8,10.3,15.7,15" class="st3"/><ellipse cx="724.5" cy="645.8" class="st13" rx="5.4" ry="4.3" transform="matrix(0.136 -0.9907 0.9907 0.136 -13.8764 1275.6659)"/><ellipse cx="706.2" cy="633.9" class="st15" rx="5.4" ry="4.5" transform="matrix(0.1578 -0.9875 0.9875 0.1578 -31.2361 1231.26)"/><ellipse cx="705.9" cy="650.3" class="st13" rx="5.4" ry="4.5" transform="matrix(0.1578 -0.9875 0.9875 0.1578 -47.612 1244.7588)"/><ellipse cx="687.1" cy="619.7" class="st13" rx="5.4" ry="4.7" transform="matrix(0.2037 -0.979 0.979 0.2037 -59.5813 1166.204)"/></g><g id="_x32_22" class="st4"><path d="M486.8,638.9c-11.1,61-99.1,120.4-166.5,154.7" class="st5"/><path d="M778.1,638.9c11.1,61,98.9,120.4,166.3,154.7" class="st5"/></g><g id="Слой_1"><linearGradient id="SVGID_8_" x1="768.592" x2="1605.238" y1="594.671" y2="594.671" gradientTransform="matrix(-1 0 0 1 1819.6328 0)" gradientUnits="userSpaceOnUse"><stop offset="0" stop-color="#B8CEE8" stop-opacity=".5"/><stop offset="1" stop-color="#7A9AC1"/></linearGradient><path d="M632.7,550.4c231,0,418.3-104.2,418.3-232.6v321.1c0,128.5-187.3,232.6-418.3,232.6S214.4,767.4,214.4,638.9 V317.8C214.4,446.3,401.7,550.4,632.7,550.4z" class="st16"/><linearGradient id="SVGID_9_" x1="768.603" x2="1605.249" y1="674.953" y2="674.953" gradientTransform="matrix(-1 0 0 1 1819.6328 0)" gradientUnits="userSpaceOnUse"><stop offset="0" stop-color="#7A9AC1"/><stop offset="1" stop-color="#B8CEE8" stop-opacity=".5"/></linearGradient><path d="M632.7,711c231,0,418.3-104.2,418.3-232.6v160.6c0,128.5-187.3,232.6-418.3,232.6S214.4,767.4,214.4,638.9 V478.4C214.4,606.8,401.7,711,632.7,711z" class="st17"/><path d="M242.2,516.4c30.7,44.4,85.1,82.2,154.6,108.6" class="st3"/><path d="M886.2,566.7c34.3-14.6,64.4-32,89.3-51.7" class="st18"/><path d="M464.6,803.3c44.7,12.1,93.9,19.9,145.8,22.4" class="st19"/><ellipse cx="349.3" cy="550.3" class="st12" rx="16.7" ry="20.3" transform="matrix(0.866 -0.5 0.5 0.866 -228.38 248.3683)"/><ellipse cx="406.6" cy="572.6" class="st13" rx="16.7" ry="20.3" transform="matrix(0.866 -0.5 0.5 0.866 -231.7997 280.0193)"/><ellipse cx="464" cy="807.6" class="st14" rx="16.7" ry="20.3" transform="matrix(0.866 -0.5 0.5 0.866 -341.6611 340.1814)"/><ellipse cx="528.8" cy="822.7" class="st14" rx="16.7" ry="20.3" transform="matrix(0.866 -0.5 0.5 0.866 -340.5235 374.6306)"/><g><polygon points="496.7 408.2 475.7 397.1 639.9 313 660.9 324.2" class="st14"/><polygon points="537.1 429.6 516.1 418.5 680.2 334.4 701.3 345.6" class="st14"/><polygon points="577.5 451 556.4 439.9 720.6 355.8 741.6 367" class="st14"/><polygon points="617.8 472.4 596.8 461.3 761 377.2 782 388.4" class="st14"/><polygon points="724.3 460.5 703.3 449.4 741.9 429.6 762.9 440.8" class="st14"/><polygon points="497.4 386 475.7 397.1 496.7 408.2 518.6 397" class="st20"/></g></g><g id="Слой_7"><path d="M886.2,617.1c66.1-28,116.7-66.7,143.6-111.4" class="st3"/><path d="M242.2,471.3c15.6,22.6,37.5,43.5,64.3,62.1" class="st3"/><path d="M309.1,689.1c66.8,45.3,163.7,76.3,273.7,83.6" class="st3"/><path d="M256,643c9.3,10.7,20.1,21,32.1,30.7" class="st3"/><path d="M744.1,702.6c177.8-27.1,308.5-117.3,308.5-224.3" class="st11"/><path d="M353.1,651.9c-86.2-42.6-140.4-104.6-140.4-173.5" class="st11"/><path d="M458.5,689.9c35.8,9.1,74.3,15.5,114.7,18.7" class="st11"/><ellipse cx="850.9" cy="810.1" class="st15" rx="11.2" ry="8.8" transform="matrix(0.1212 -0.9926 0.9926 0.1212 -56.3368 1556.4971)"/><ellipse cx="815.4" cy="821.3" class="st13" rx="11.3" ry="9" transform="matrix(0.136 -0.9907 0.9907 0.136 -109.1847 1517.3595)"/><ellipse cx="777.3" cy="796.5" class="st15" rx="11.3" ry="9.3" transform="matrix(0.1578 -0.9875 0.9875 0.1578 -131.9485 1438.3595)"/><ellipse cx="776.7" cy="830.7" class="st13" rx="11.3" ry="9.3" transform="matrix(0.1578 -0.9875 0.9875 0.1578 -166.1544 1466.5557)"/><ellipse cx="737.4" cy="766.8" class="st13" rx="11.3" ry="9.8" transform="matrix(0.2037 -0.979 0.979 0.2037 -163.5832 1332.571)"/><ellipse cx="737.4" cy="732" class="st12" rx="11.3" ry="9.8" transform="matrix(0.2037 -0.979 0.979 0.2037 -129.4434 1304.8036)"/><ellipse cx="691.1" cy="737.1" class="st14" rx="11.3" ry="10.2" transform="matrix(0.2814 -0.9596 0.9596 0.2814 -210.6724 1192.8893)"/><path d="M342,485.7c-78.7-42.4-127.6-102-127.6-167.9c0-128.9,187.1-233.4,418-233.4s418,104.5,418,233.4 c0,72.5-59.1,137.2-151.9,180" class="st11"/><path d="M1025.8,619.1c-37,57.4-113.1,104.4-210.5,131" class="st3"/></g><g id="_x31_11" class="st4"><line x1="778.1" x2="923.4" y1="316.8" y2="152.6" class="st5"/><line x1="486.8" x2="341.6" y1="316.9" y2="152.7" class="st5"/><line x1="486.8" x2="320.3" y1="481.4" y2="473.1" class="st5"/><line x1="778.1" x2="944.5" y1="481.5" y2="473.1" class="st5"/><line x1="486.8" x2="341.6" y1="474.9" y2="471.9" class="st5"/><line x1="923.9" x2="780.2" y1="471.9" y2="476" class="st5"/><line x1="485.8" x2="320.3" y1="638.9" y2="793.6" class="st5"/><line x1="780.2" x2="944.5" y1="638.4" y2="793.6" class="st5"/></g><g id="_x32_22_1_" class="st4"><path d="M486.8,316.9c-11.1-61.5-77.8-129.5-145.2-164.1" class="st5"/><path d="M778.1,316.9c11.1-61.5,77.8-129.5,145.2-164.1" class="st5"/><path d="M486.8,481.4c-24.1-18.9-103.6-12.4-145.2,2.2" class="st5"/><path d="M778,481.4c15.7-26.1,101.5-27.8,166.5-8.4" class="st5"/></g><g id="Слой_15"><linearGradient id="SVGID_10_" x1="486.607" x2="357.607" y1="295.375" y2="160.375" gradientUnits="userSpaceOnUse"><stop offset="0" stop-color="#FFF"/><stop offset="1" stop-color="#F8CC46"/></linearGradient><path d="M382.4,167.3l20.8-11.9l-61.6-3.2v38.5l24.6-14.1c52.6,39.2,93.4,101.4,102.7,152.9l36.5-19.8 C496,258.1,440,203.9,382.4,167.3z" class="st21"/><linearGradient id="SVGID_11_" x1="791.145" x2="908.145" y1="282.138" y2="159.138" gradientUnits="userSpaceOnUse"><stop offset="0" stop-color="#FFF"/><stop offset="1" stop-color="#F8CC46"/></linearGradient><path d="M882.5,167.3l-20.8-11.9l61.6-3.2v38.5l-24.6-14.1c-52.6,39.2-93.4,101.4-102.7,152.9l-36.5-19.8 C768.9,258.1,824.9,203.9,882.5,167.3z" class="st22"/><linearGradient id="SVGID_12_" x1="383.151" x2="343.151" y1="200.144" y2="168.144" gradientUnits="userSpaceOnUse"><stop offset="0" stop-color="#F14600" stop-opacity="0"/><stop offset=".272" stop-color="#F14600" stop-opacity=".157"/><stop offset="1" stop-color="#F14600"/></linearGradient><path d="M382.4,167.3l20.8-11.9l-61.6-3.2v38.5l24.6-14.1c52.6,39.2,93.4,101.4,102.7,152.9l36.5-19.8 C496,258.1,440,203.9,382.4,167.3z" class="st23"/><linearGradient id="SVGID_13_" x1="879.994" x2="919.494" y1="195.882" y2="159.882" gradientUnits="userSpaceOnUse"><stop offset="0" stop-color="#F14600" stop-opacity="0"/><stop offset=".272" stop-color="#F14600" stop-opacity=".157"/><stop offset="1" stop-color="#F14600"/></linearGradient><path d="M882.5,167.3l-20.8-11.9l61.6-3.2v38.5l-24.6-14.1c-52.6,39.2-93.4,101.4-102.7,152.9l-36.5-19.8 C768.9,258.1,824.9,203.9,882.5,167.3z" class="st24"/><path d="M466.6,468.1c0.5,0.6,0.9,1.2,1.3,1.9l36.5,20.7C496.6,481.8,482.9,473.6,466.6,468.1L466.6,468.1z" class="st25"/><linearGradient id="SVGID_14_" x1="474.891" x2="346.141" y1="462.876" y2="476.376" gradientUnits="userSpaceOnUse"><stop offset="0" stop-color="#FFF"/><stop offset="1" stop-color="#F8CC46"/></linearGradient><path d="M381.4,469.4l20.8,11.9l-61.6,3.2v-38.5l24.6,14.1c39.7-17.9,68.9-14.9,86.7-4.7 c52.8,30.3,52.5,35.3,52.5,35.3C484.3,467.6,424.6,449.8,381.4,469.4z" class="st26"/><linearGradient id="SVGID_15_" x1="402.467" x2="351.717" y1="478.123" y2="502.873" gradientUnits="userSpaceOnUse"><stop offset="0" stop-color="#F14600" stop-opacity="0"/><stop offset=".272" stop-color="#F14600" stop-opacity=".157"/><stop offset="1" stop-color="#F14600"/></linearGradient><path d="M381.4,469.4l20.8,11.9l-61.6,3.2v-38.5l24.6,14.1c39.7-17.9,68.9-14.9,86.7-4.7 c52.8,30.3,52.5,35.3,52.5,35.3C484.3,467.6,424.6,449.8,381.4,469.4z" class="st27"/><path d="M799.6,467.1c-0.5,0.6-0.9,1.2-1.3,1.9l-36.5,20.7C769.5,480.8,783.2,472.6,799.6,467.1L799.6,467.1z" class="st25"/><linearGradient id="SVGID_16_" x1="711.601" x2="582.851" y1="461.876" y2="475.376" gradientTransform="matrix(-1 0 0 1 1502.8495 0)" gradientUnits="userSpaceOnUse"><stop offset="0" stop-color="#FFF"/><stop offset="1" stop-color="#F8CC46"/></linearGradient><path d="M884.8,468.4l-20.8,11.9l61.6,3.2v-38.5l-24.6,14.1c-39.7-17.9-68.9-14.9-86.7-4.7 c-52.8,30.3-52.5,35.3-52.5,35.3C781.8,466.6,841.5,448.8,884.8,468.4z" class="st28"/><linearGradient id="SVGID_17_" x1="639.177" x2="588.427" y1="477.123" y2="501.873" gradientTransform="matrix(-1 0 0 1 1502.8495 0)" gradientUnits="userSpaceOnUse"><stop offset="0" stop-color="#F14600" stop-opacity="0"/><stop offset=".272" stop-color="#F14600" stop-opacity=".157"/><stop offset="1" stop-color="#F14600"/></linearGradient><path d="M884.8,468.4l-20.8,11.9l61.6,3.2v-38.5l-24.6,14.1c-39.7-17.9-68.9-14.9-86.7-4.7 c-52.8,30.3-52.5,35.3-52.5,35.3C781.8,466.6,841.5,448.8,884.8,468.4z" class="st29"/></g><g id="Слой_16"><g class="st30"><linearGradient id="SVGID_18_" x1="478.56" x2="358.56" y1="664.308" y2="799.641" gradientUnits="userSpaceOnUse"><stop offset="0" stop-color="#FFF"/><stop offset="1" stop-color="#F8CC46"/></linearGradient><path d="M382.4,789.8l20.8,11.9l-61.6,3.2v-38.5l24.6,14.1c52.6-39.2,93.4-101.4,102.7-152.9l36.5,19.8 C496,699,440,753.2,382.4,789.8z" class="st31"/><linearGradient id="SVGID_19_" x1="788.791" x2="902.791" y1="671.031" y2="795.031" gradientUnits="userSpaceOnUse"><stop offset="0" stop-color="#FFF"/><stop offset="1" stop-color="#F8CC46"/></linearGradient><path d="M882.5,789.8l-20.8,11.9l61.6,3.2v-38.5l-24.6,14.1c-52.6-39.2-93.4-101.4-102.7-152.9l-36.5,19.8 C768.9,699,824.9,753.2,882.5,789.8z" class="st32"/><linearGradient id="SVGID_20_" x1="387.261" x2="340.761" y1="755.856" y2="795.106" gradientUnits="userSpaceOnUse"><stop offset="0" stop-color="#F14600" stop-opacity="0"/><stop offset=".272" stop-color="#F14600" stop-opacity=".157"/><stop offset="1" stop-color="#F14600"/></linearGradient><path d="M382.4,789.8l20.8,11.9l-61.6,3.2v-38.5l24.6,14.1c52.6-39.2,93.4-101.4,102.7-152.9l36.5,19.8 C496,699,440,753.3,382.4,789.8z" class="st33"/><linearGradient id="SVGID_21_" x1="880.326" x2="923.326" y1="757.345" y2="793.012" gradientUnits="userSpaceOnUse"><stop offset="0" stop-color="#F14600" stop-opacity="0"/><stop offset=".272" stop-color="#F14600" stop-opacity=".157"/><stop offset="1" stop-color="#F14600"/></linearGradient><path d="M882.5,789.8l-20.8,11.9l61.6,3.2v-38.5l-24.6,14.1c-52.6-39.2-93.4-101.4-102.7-152.9l-36.5,19.8 C768.9,699,824.9,753.3,882.5,789.8z" class="st34"/></g></g></svg>