<svg xmlns="http://www.w3.org/2000/svg" xmlns:xlink="http://www.w3.org/1999/xlink" viewBox="0 0 1280 960"><defs><style>.cls-1{fill:#313138}.cls-2{fill:#444450}.cls-3{fill:url(#Безымянный_градиент_69)}.cls-4,.cls-51,.cls-52{opacity:.8}.cls-4{fill:url(#Безымянный_градиент_16)}.cls-47,.cls-5,.cls-53{opacity:.5}.cls-5{fill:url(#Безымянный_градиент_33)}.cls-6{fill:url(#Безымянный_градиент_77)}.cls-7{fill:url(#Безымянный_градиент_75)}.cls-8{fill:url(#Безымянный_градиент_30)}.cls-9{fill:#f14600}.cls-10{fill:#cc1a11}.cls-11{fill:url(#Безымянный_градиент_54)}.cls-12,.cls-17,.cls-20,.cls-23,.cls-26,.cls-29,.cls-32,.cls-35,.cls-38{opacity:.3}.cls-12{fill:url(#Безымянный_градиент_104)}.cls-13{fill:url(#Безымянный_градиент_100)}.cls-14{fill:#f8cc46}.cls-15{fill:#ff9312}.cls-16{fill:url(#Безымянный_градиент_103)}.cls-17{fill:url(#Безымянный_градиент_104-2)}.cls-18{fill:url(#Безымянный_градиент_100-2)}.cls-19{fill:url(#Безымянный_градиент_103-2)}.cls-20{fill:url(#Безымянный_градиент_104-3)}.cls-21{fill:url(#Безымянный_градиент_100-3)}.cls-22{fill:url(#Безымянный_градиент_103-3)}.cls-23{fill:url(#Безымянный_градиент_104-4)}.cls-24{fill:url(#Безымянный_градиент_100-4)}.cls-25{fill:url(#Безымянный_градиент_103-4)}.cls-26{fill:url(#Безымянный_градиент_104-5)}.cls-27{fill:url(#Безымянный_градиент_100-5)}.cls-28{fill:url(#Безымянный_градиент_103-5)}.cls-29{fill:url(#Безымянный_градиент_104-6)}.cls-30{fill:url(#Безымянный_градиент_100-6)}.cls-31{fill:url(#Безымянный_градиент_103-6)}.cls-32{fill:url(#Безымянный_градиент_104-7)}.cls-33{fill:url(#Безымянный_градиент_100-7)}.cls-34{fill:url(#Безымянный_градиент_103-7)}.cls-35{fill:url(#Безымянный_градиент_104-8)}.cls-36{fill:url(#Безымянный_градиент_100-8)}.cls-37{fill:url(#Безымянный_градиент_103-8)}.cls-38{fill:url(#Безымянный_градиент_104-9)}.cls-39{fill:url(#Безымянный_градиент_100-9)}.cls-40{fill:url(#Безымянный_градиент_103-9)}.cls-41{fill:url(#Безымянный_градиент_16-2)}.cls-42{fill:#bacde0}.cls-43{fill:#eff4f9}.cls-44,.cls-45,.cls-46,.cls-54,.cls-55{fill:none;stroke-linecap:round;stroke-miterlimit:10}.cls-44,.cls-45{stroke:#313138;stroke-width:4px}.cls-45{stroke:#fff}.cls-46{stroke:#a0c9f5}.cls-46,.cls-54,.cls-55{stroke-width:7px}.cls-47{fill:#b8cce4}.cls-48{fill:url(#Безымянный_градиент_110)}.cls-49{fill:#565968}.cls-50{fill:#717484}.cls-51,.cls-56{fill:#257af4}.cls-52,.cls-53{fill:#444451}.cls-54{stroke:#d4e3f6}.cls-55{stroke:#f8cc46}.cls-57{fill:#fff}.cls-58{fill:#d4e3f6}.cls-59,.cls-60,.cls-61{opacity:.1}.cls-59{fill:url(#Безымянный_градиент_115)}.cls-60{fill:url(#Безымянный_градиент_115-2)}.cls-61{fill:url(#Безымянный_градиент_115-3)}</style><linearGradient id="Безымянный_градиент_69" x1="105.47" x2="765.66" y1="544.41" y2="544.41" gradientUnits="userSpaceOnUse"><stop offset="0" stop-color="#616172"/><stop offset="1" stop-color="#737686"/></linearGradient><linearGradient id="Безымянный_градиент_16" x1="105.44" x2="765.7" y1="333.65" y2="333.65" gradientUnits="userSpaceOnUse"><stop offset="0" stop-color="#d3e2f5"/><stop offset="1" stop-color="#e3f1fe"/></linearGradient><linearGradient id="Безымянный_градиент_33" x1="105.44" x2="203.56" y1="491.15" y2="491.15" gradientUnits="userSpaceOnUse"><stop offset="0" stop-color="#7a9ac1"/><stop offset="1" stop-color="#b8cee8" stop-opacity=".5"/></linearGradient><linearGradient id="Безымянный_градиент_77" x1="464.86" x2="408.31" y1="537.27" y2="517.87" gradientUnits="userSpaceOnUse"><stop offset="0" stop-color="#444450" stop-opacity=".8"/><stop offset="1" stop-color="#666778" stop-opacity="0"/></linearGradient><linearGradient id="Безымянный_градиент_75" x1="408.82" x2="305.89" y1="504.87" y2="469.56" gradientUnits="userSpaceOnUse"><stop offset="0" stop-color="#444450"/><stop offset="1" stop-color="#666778" stop-opacity="0"/></linearGradient><linearGradient id="Безымянный_градиент_30" x1="339.5" x2="478.33" y1="471.3" y2="471.3" gradientUnits="userSpaceOnUse"><stop offset="0" stop-color="#d61a1a"/><stop offset="1" stop-color="#f14600"/></linearGradient><linearGradient id="Безымянный_градиент_54" x1="381.73" x2="454.73" y1="405.58" y2="359.08" gradientUnits="userSpaceOnUse"><stop offset="0" stop-color="#e32f0d"/><stop offset=".76" stop-color="#fe561d"/><stop offset="1" stop-color="#ff6443"/></linearGradient><linearGradient id="Безымянный_градиент_104" x1="868.17" x2="802.84" y1="506.94" y2="472.02" gradientUnits="userSpaceOnUse"><stop offset="0" stop-color="#444450"/><stop offset=".89" stop-color="#666778" stop-opacity="0"/></linearGradient><linearGradient id="Безымянный_градиент_100" x1="808.58" x2="934.34" y1="481.88" y2="481.88" gradientUnits="userSpaceOnUse"><stop offset="0" stop-color="#ff9e1d"/><stop offset="1" stop-color="#f8cc46"/></linearGradient><linearGradient id="Безымянный_градиент_103" x1="846.83" x2="912.96" y1="422.35" y2="380.23" gradientUnits="userSpaceOnUse"><stop offset="0" stop-color="#fda927"/><stop offset=".76" stop-color="#f8cc46"/><stop offset="1" stop-color="#fddd55"/></linearGradient><linearGradient id="Безымянный_градиент_104-2" x1="1101.52" x2="1033.94" y1="658.34" y2="622.22" xlink:href="#Безымянный_градиент_104"/><linearGradient id="Безымянный_градиент_100-2" x1="1039.88" x2="1169.96" y1="632.42" y2="632.42" xlink:href="#Безымянный_градиент_100"/><linearGradient id="Безымянный_градиент_103-2" x1="1079.45" x2="1147.85" y1="570.85" y2="527.27" xlink:href="#Безымянный_градиент_103"/><linearGradient id="Безымянный_градиент_104-3" x1="646.36" x2="576.07" y1="604.43" y2="566.86" xlink:href="#Безымянный_градиент_104"/><linearGradient id="Безымянный_градиент_100-3" x1="582.24" x2="717.55" y1="577.47" y2="577.47" xlink:href="#Безымянный_градиент_100"/><linearGradient id="Безымянный_градиент_103-3" x1="623.4" x2="694.55" y1="513.42" y2="468.1" xlink:href="#Безымянный_градиент_103"/><linearGradient id="Безымянный_градиент_104-4" x1="597.1" x2="524.84" y1="701.72" y2="663.1" xlink:href="#Безымянный_градиент_104"/><linearGradient id="Безымянный_градиент_100-4" x1="531.19" x2="670.28" y1="674.01" y2="674.01" xlink:href="#Безымянный_градиент_100"/><linearGradient id="Безымянный_градиент_103-4" x1="567.5" x2="651.25" y1="598.49" y2="570.74" xlink:href="#Безымянный_градиент_103"/><linearGradient id="Безымянный_градиент_104-5" x1="792.42" x2="720.16" y1="667.51" y2="628.89" xlink:href="#Безымянный_градиент_104"/><linearGradient id="Безымянный_градиент_100-5" x1="726.51" x2="865.6" y1="639.8" y2="639.8" xlink:href="#Безымянный_градиент_100"/><linearGradient id="Безымянный_градиент_103-5" x1="762.82" x2="846.57" y1="564.28" y2="536.53" xlink:href="#Безымянный_градиент_103"/><linearGradient id="Безымянный_градиент_104-6" x1="923.05" x2="850.79" y1="685.46" y2="646.84" xlink:href="#Безымянный_градиент_104"/><linearGradient id="Безымянный_градиент_100-6" x1="857.14" x2="996.23" y1="657.74" y2="657.74" xlink:href="#Безымянный_градиент_100"/><linearGradient id="Безымянный_градиент_103-6" x1="893.45" x2="977.2" y1="582.22" y2="554.47" xlink:href="#Безымянный_градиент_103"/><linearGradient id="Безымянный_градиент_104-7" x1="962.18" x2="885.71" y1="851.57" y2="810.7" xlink:href="#Безымянный_градиент_104"/><linearGradient id="Безымянный_градиент_100-7" x1="892.42" x2="1039.62" y1="822.24" y2="822.24" xlink:href="#Безымянный_градиент_100"/><linearGradient id="Безымянный_градиент_103-7" x1="930.85" x2="1019.48" y1="742.32" y2="712.96" xlink:href="#Безымянный_градиент_103"/><linearGradient id="Безымянный_градиент_104-8" x1="694.41" x2="616.54" y1="818.3" y2="776.68" xlink:href="#Безымянный_градиент_104"/><linearGradient id="Безымянный_градиент_100-8" x1="623.38" x2="773.28" y1="788.44" y2="788.44" xlink:href="#Безымянный_градиент_100"/><linearGradient id="Безымянный_градиент_103-8" x1="662.51" x2="752.77" y1="707.05" y2="677.14" xlink:href="#Безымянный_градиент_103"/><linearGradient id="Безымянный_градиент_104-9" x1="365.41" x2="287.53" y1="761.49" y2="719.87" xlink:href="#Безымянный_градиент_104"/><linearGradient id="Безымянный_градиент_100-9" x1="294.38" x2="444.28" y1="731.63" y2="731.63" xlink:href="#Безымянный_градиент_100"/><linearGradient id="Безымянный_градиент_103-9" x1="333.51" x2="423.77" y1="650.24" y2="620.33" xlink:href="#Безымянный_градиент_103"/><linearGradient id="Безымянный_градиент_16-2" x1="475.99" x2="546.25" y1="489.01" y2="489.01" xlink:href="#Безымянный_градиент_16"/><linearGradient id="Безымянный_градиент_110" x1="216.53" x2="439.53" y1="335.57" y2="108.57" gradientUnits="userSpaceOnUse"><stop offset="0" stop-color="#313138"/><stop offset="1" stop-color="#444450"/></linearGradient><linearGradient id="Безымянный_градиент_115" x1="359.84" x2="256.84" y1="140.65" y2="316.65" gradientUnits="userSpaceOnUse"><stop offset="0" stop-color="#fff" stop-opacity=".5"/><stop offset="1" stop-color="#fff"/></linearGradient><linearGradient id="Безымянный_градиент_115-2" x1="615.91" x2="589.41" y1="126.72" y2="180.22" xlink:href="#Безымянный_градиент_115"/><linearGradient id="Безымянный_градиент_115-3" x1="549.02" x2="513.02" y1="214.72" y2="304.22" xlink:href="#Безымянный_градиент_115"/></defs><title>412</title><g id="Слой_2" data-name="Слой 2"><path d="M214.33,626.9,105.47,575.41v22.93h0c3.31,46,40,88.12,98.05,120Z" class="cls-1"/><polygon points="203.53 701.91 203.53 717.97 765.66 464.95 765.66 448.9 203.53 701.91" class="cls-2"/><path d="M484.59,386.9c-209.38,0-379.12,84.4-379.12,188.51,0,48.69,37.12,93.06,98.05,126.51l562.13-253C696.29,410.82,596.06,386.9,484.59,386.9Z" class="cls-3"/><path d="M751.48,146.5C683,112.77,588.64,91.89,484.63,91.89c-209.38,0-379.12,84.4-379.12,188.51,0,45.94-.07,295-.07,295,0-104.11,169.74-188.51,379.12-188.51,82.75,0,159.3,13.18,221.64,35.55v-71s31.29,10.72,59.5,26.47V301.47S725.55,278,664.29,261.94V191.21a441.6,441.6,0,0,1,86.85,32Z" class="cls-4"/><path d="M105.51,280.4c0,48.69,37.12,93.06,98.05,126.51v76.83c-17.47-9.16-34.65-22-34.65-22v70.72a220.57,220.57,0,0,1-22.54-19.23V589.9c23.67,23.17,57.19,41,57.19,41l-.07,71c-60.93-33.45-98.05-77.82-98.05-126.51C105.44,471.3,105.51,280.4,105.51,280.4Z" class="cls-5"/><path d="M476,548.7s-124-5.84-67-31.55c32.15-14.5,103.32,15.2,103.32,15.2Z" class="cls-6"/><path d="M383.3,534.2s-149.68-9.39-97-43C348.33,451.56,500,482,500,482Z" class="cls-7"/><path d="M398,413.15c-32.33,14.47-58.54,57.54-58.54,96.22,0,2,.07,3.91.21,5.79l43.6,19L456.36,463q.2-3,.21-6c0-8.78,27.45-23,20.68-26.27-3-1.48-42.24-18.45-44.2-19.32C423.28,407,411.16,407.28,398,413.15Z" class="cls-8"/><path d="M441.63,432.2c-32.33,14.47-58.54,57.54-58.54,96.22,0,2,.07,3.91.21,5.79L500,482q.2-3,.21-6C500.17,437.35,474,417.73,441.63,432.2Z" class="cls-9"/><path d="M398,413.15c-9.76,4.37-19,11.36-27.06,20,7.93,5,20.84,7.86,35.29,7.24,23.54-1,42.24-11,41.75-22.29,0-.09,0-.17,0-.26l-15-6.5C423.28,407,411.16,407.28,398,413.15Z" class="cls-10"/><circle cx="419.83" cy="381.31" r="47.67" class="cls-11"/><path d="M848.26,538.86s-116.37-14.93-68.62-45.43c56.16-35.86,174.3-1.87,174.3-1.87Z" class="cls-12"/><path d="M861.6,429.21c-29.29,13.11-53,52.13-53,87.16,0,1.79.07,3.54.19,5.24l39.49,17.25,66.19-64.54q.18-2.72.19-5.41c0-8,24.87-20.81,18.73-23.8-2.75-1.34-38.27-16.71-40-17.5C884.48,423.66,873.5,423.89,861.6,429.21Z" class="cls-13"/><path d="M901.1,446.46c-29.29,13.11-53,52.13-53,87.16,0,1.79.07,3.54.19,5.24l105.68-47.29q.18-2.72.19-5.41C954.12,451.13,930.38,433.36,901.1,446.46Z" class="cls-14"/><path d="M861.6,429.21c-8.85,4-17.18,10.29-24.51,18.16,7.19,4.49,18.88,7.12,32,6.56,21.33-.91,38.26-10,37.82-20.19,0-.08,0-.16,0-.23l-13.54-5.89C884.48,423.66,873.5,423.89,861.6,429.21Z" class="cls-15"/><circle cx="881.35" cy="400.37" r="43.18" class="cls-16"/><path d="M1080.92,691.36s-120.37-15.45-71-47c58.1-37.1,180.29-1.93,180.29-1.93Z" class="cls-17"/><path d="M1094.73,577.94c-30.29,13.56-54.85,53.92-54.85,90.16,0,1.86.07,3.66.19,5.42l40.85,17.84,68.46-66.76q.19-2.81.19-5.6c0-8.22,25.73-21.53,19.38-24.62-2.84-1.38-39.58-17.28-41.42-18.1C1118.39,572.2,1107,572.43,1094.73,577.94Z" class="cls-18"/><path d="M1135.58,595.78c-30.29,13.56-54.85,53.92-54.85,90.16,0,1.86.07,3.66.19,5.42l109.31-48.92q.19-2.81.19-5.6C1190.43,600.61,1165.87,582.23,1135.58,595.78Z" class="cls-14"/><path d="M1094.73,577.94c-9.15,4.09-17.77,10.65-25.35,18.78,7.44,4.64,19.53,7.37,33.07,6.79,22.06-.94,39.58-10.3,39.12-20.89,0-.08,0-.16,0-.24l-14-6.09C1118.38,572.2,1107,572.43,1094.73,577.94Z" class="cls-15"/><circle cx="1115.15" cy="548.1" r="44.67" class="cls-19"/><path d="M624.93,638.78s-125.2-16.07-73.83-48.87c60.43-38.59,187.52-2,187.52-2Z" class="cls-20"/><path d="M639.29,520.8c-31.51,14.1-57.05,56.08-57.05,93.78,0,1.93.07,3.81.2,5.64l42.49,18.56,71.21-69.44q.2-2.92.2-5.82c0-8.55,26.76-22.39,20.15-25.6-3-1.44-41.17-18-43.08-18.83C663.9,514.83,652.09,515.08,639.29,520.8Z" class="cls-21"/><path d="M681.78,539.36c-31.51,14.1-57.05,56.08-57.05,93.78,0,1.93.07,3.81.2,5.64l113.7-50.88q.2-2.92.2-5.82C738.83,544.38,713.29,525.26,681.78,539.36Z" class="cls-14"/><path d="M639.29,520.8c-9.52,4.26-18.48,11.07-26.37,19.53,7.73,4.83,20.32,7.66,34.4,7.06,22.95-1,41.16-10.71,40.69-21.73,0-.08,0-.17,0-.25l-14.57-6.34C663.9,514.83,652.09,515.08,639.29,520.8Z" class="cls-15"/><circle cx="660.54" cy="489.77" r="46.46" class="cls-22"/><path d="M575.08,737s-128.71-16.52-75.89-50.24C561.3,647.13,692,684.73,692,684.73Z" class="cls-23"/><path d="M589.84,615.76c-32.39,14.5-58.65,57.66-58.65,96.4,0,2,.07,3.92.21,5.8L575.08,737l73.2-71.38q.2-3,.21-6c0-8.79,27.51-23,20.72-26.32-3-1.48-42.32-18.48-44.29-19.36C615.14,609.62,603,609.87,589.84,615.76Z" class="cls-24"/><path d="M633.52,634.84c-32.39,14.5-58.65,57.66-58.65,96.4,0,2,.07,3.92.21,5.8L692,684.73q.2-3,.21-6C692.17,640,665.91,620.34,633.52,634.84Z" class="cls-14"/><path d="M589.84,615.76c-9.78,4.38-19,11.38-27.11,20.08,8,5,20.88,7.88,35.36,7.26,23.59-1,42.32-11,41.83-22.34,0-.09,0-.17,0-.26l-15-6.51C615.14,609.62,603,609.87,589.84,615.76Z" class="cls-15"/><circle cx="611.68" cy="583.85" r="47.76" class="cls-25"/><path d="M770.4,702.82s-128.71-16.52-75.89-50.24c62.12-39.67,192.78-2.06,192.78-2.06Z" class="cls-26"/><path d="M785.16,581.54c-32.39,14.5-58.65,57.66-58.65,96.4,0,2,.07,3.92.21,5.8l43.68,19.08,73.2-71.38q.2-3,.21-6c0-8.79,27.51-23,20.72-26.32-3-1.48-42.32-18.48-44.29-19.36C810.46,575.4,798.31,575.66,785.16,581.54Z" class="cls-27"/><path d="M828.84,600.62c-32.39,14.5-58.65,57.66-58.65,96.4,0,2,.07,3.92.21,5.8l116.88-52.31q.2-3,.21-6C887.49,605.79,861.23,586.13,828.84,600.62Z" class="cls-14"/><path d="M785.16,581.54c-9.78,4.38-19,11.38-27.11,20.08,8,5,20.88,7.88,35.36,7.26,23.59-1,42.32-11,41.83-22.34,0-.09,0-.17,0-.26l-15-6.51C810.46,575.4,798.31,575.66,785.16,581.54Z" class="cls-15"/><circle cx="807" cy="549.64" r="47.76" class="cls-28"/><path d="M901,720.77s-128.71-16.52-75.89-50.24c62.12-39.67,192.78-2.06,192.78-2.06Z" class="cls-29"/><path d="M915.79,599.49c-32.39,14.5-58.65,57.66-58.65,96.4,0,2,.07,3.92.21,5.8L901,720.77l73.2-71.38q.2-3,.21-6c0-8.79,27.51-23,20.72-26.32-3-1.48-42.32-18.48-44.29-19.36C941.09,593.35,928.94,593.6,915.79,599.49Z" class="cls-30"/><path d="M959.47,618.57c-32.39,14.5-58.65,57.66-58.65,96.4,0,2,.07,3.92.21,5.8l116.88-52.31q.2-3,.21-6C1018.12,623.73,991.86,604.07,959.47,618.57Z" class="cls-14"/><path d="M915.79,599.49c-9.78,4.38-19,11.38-27.11,20.08,8,5,20.88,7.88,35.36,7.26,23.59-1,42.32-11,41.83-22.34,0-.09,0-.17,0-.26l-15-6.51C941.09,593.35,928.94,593.6,915.79,599.49Z" class="cls-15"/><circle cx="937.63" cy="567.59" r="47.76" class="cls-31"/><path d="M938.87,888.94s-136.2-17.48-80.32-53.17c65.74-42,204-2.18,204-2.18Z" class="cls-32"/><path d="M954.49,760.6c-34.28,15.34-62.07,61-62.07,102,0,2.1.08,4.14.22,6.14l46.22,20.19,77.47-75.54q.21-3.18.22-6.33c0-9.31,29.11-24.36,21.93-27.86-3.22-1.57-44.79-19.56-46.87-20.49C981.26,754.1,968.41,754.37,954.49,760.6Z" class="cls-33"/><path d="M1000.71,780.79c-34.28,15.34-62.07,61-62.07,102,0,2.1.08,4.14.22,6.14l123.69-55.35q.21-3.18.22-6.33C1062.78,786.25,1035,765.45,1000.71,780.79Z" class="cls-14"/><path d="M954.49,760.6c-10.35,4.63-20.11,12-28.69,21.25,8.41,5.25,22.1,8.34,37.42,7.68,25-1.07,44.78-11.65,44.27-23.64,0-.09,0-.18,0-.27l-15.85-6.89C981.26,754.1,968.41,754.37,954.49,760.6Z" class="cls-15"/><circle cx="977.6" cy="726.83" r="50.54" class="cls-34"/><path d="M670.68,856.36S532,838.56,588.88,802.21C655.83,759.46,796.64,800,796.64,800Z" class="cls-35"/><path d="M686.59,725.65c-34.91,15.62-63.21,62.14-63.21,103.89,0,2.14.08,4.22.22,6.25l47.07,20.56,78.89-76.93q.22-3.24.22-6.45c0-9.48,29.65-24.81,22.33-28.37-3.28-1.59-45.61-19.92-47.73-20.86C713.85,719,700.76,719.31,686.59,725.65Z" class="cls-36"/><path d="M733.66,746.21c-34.91,15.62-63.21,62.14-63.21,103.89,0,2.14.08,4.22.22,6.25l126-56.37q.22-3.24.22-6.45C796.87,751.78,768.57,730.59,733.66,746.21Z" class="cls-14"/><path d="M686.59,725.65c-10.54,4.72-20.48,12.27-29.22,21.64,8.57,5.35,22.51,8.49,38.11,7.82C720.9,754,741.09,743.25,740.56,731c0-.09,0-.19,0-.28l-16.14-7C713.85,719,700.76,719.31,686.59,725.65Z" class="cls-15"/><circle cx="710.12" cy="691.27" r="51.47" class="cls-37"/><path d="M341.67,799.55S203,781.75,259.88,745.4c66.95-42.75,207.76-2.22,207.76-2.22Z" class="cls-38"/><path d="M357.58,668.84c-34.91,15.62-63.21,62.14-63.21,103.89,0,2.14.08,4.22.22,6.25l47.07,20.56,78.89-76.93q.22-3.24.22-6.45c0-9.48,29.65-24.81,22.33-28.37-3.28-1.59-45.61-19.92-47.73-20.86C384.85,662.23,371.76,662.5,357.58,668.84Z" class="cls-39"/><path d="M404.66,689.41C369.75,705,341.45,751.54,341.45,793.3c0,2.14.08,4.22.22,6.25l126-56.37q.22-3.24.22-6.45C467.86,695,439.57,673.78,404.66,689.41Z" class="cls-14"/><path d="M357.58,668.84c-10.54,4.72-20.48,12.27-29.22,21.64,8.57,5.35,22.51,8.49,38.11,7.82,25.42-1.09,45.61-11.86,45.09-24.07,0-.09,0-.19,0-.28l-16.14-7C384.85,662.23,371.76,662.5,357.58,668.84Z" class="cls-15"/><circle cx="381.12" cy="634.46" r="51.47" class="cls-40"/><polygon points="494.96 452.4 475.99 548.7 512.32 532.35 546.25 429.33 494.96 452.4" class="cls-41"/><polyline points="475.99 548.7 494.96 452.4 450.96 453.9 450.96 537.43 475.99 548.7" class="cls-42"/><polygon points="451.01 453.96 500.75 434.15 546.25 429.33 494.96 452.4 451.01 453.96" class="cls-43"/><rect width="25.62" height="11.55" x="481.84" y="402.48" class="cls-1" rx="5.77" ry="5.77" transform="translate(171.32 -145.65) rotate(20.19)"/><path d="M521.8,440.32v-3.2a26.91,26.91,0,0,0-18.46-25.54h0" class="cls-44"/></g><g id="Слой_9" data-name="Слой 9"><path d="M765.66,230.72c-69.37-38.08-169.6-62-281.07-62-209.38,0-379.12,84.4-379.12,188.51,0,33.47,17.55,64.9,48.31,92.15" class="cls-45"/><path d="M122.08,559.75c16.49,26.74,44.62,50.95,81.45,71.16" class="cls-45"/><path d="M122.08,597.87c12.19,19.77,30.75,38.15,54.47,54.56" class="cls-46"/><path d="M169.68,399.4c-40.55,30-64.21,66.13-64.21,105,0,19.26,5.81,37.84,16.6,55.35" class="cls-45"/><path d="M484.59,315.89c-90.34,0-173.29,15.71-238.42,41.93" class="cls-45"/><path d="M765.66,377.89c-33.59-18.44-74.42-33.56-120.25-44.25" class="cls-45"/><path d="M734.3,191.06a518.15,518.15,0,0,0-88.89-28.91" class="cls-46"/><path d="M707.42,154.76a549.33,549.33,0,0,0-62-18.23" class="cls-46"/><path d="M181.56,374.27c57.41-37.59,142.54-64.14,240.26-72.12a7.4,7.4,0,0,0,6.78-7.38V138a4,4,0,0,0-4.3-4c-100.41,7.86-187.72,35.3-245.62,74.23a7.45,7.45,0,0,0-3.31,6.18V370.94A4,4,0,0,0,181.56,374.27Z" class="cls-47"/><path d="M456.75,304.25a3.32,3.32,0,0,0,3.41,3.32q10.19-.27,20.51-.27a724.59,724.59,0,0,1,140.76,13.44,3.32,3.32,0,0,0,4-3.26v-90.7a3.33,3.33,0,0,0-2.66-3.27,723.85,723.85,0,0,0-142.08-13.7q-10.42,0-20.69.28a3.33,3.33,0,0,0-3.23,3.33Z" class="cls-47"/><path d="M520.07,193.11A699.14,699.14,0,0,1,606,204.48a4,4,0,0,0,4.75-3.89V138.33a4,4,0,0,0-3.18-3.9,697.86,697.86,0,0,0-86.89-11.64,4,4,0,0,0-4.25,4v62.4A4,4,0,0,0,520.07,193.11Z" class="cls-47"/><path d="M188.53,361.14C245.94,323.54,331.07,297,428.79,289a7.4,7.4,0,0,0,6.78-7.38V124.91a4,4,0,0,0-4.3-4c-100.41,7.86-187.72,35.3-245.62,74.23a7.45,7.45,0,0,0-3.31,6.18V357.81A4,4,0,0,0,188.53,361.14Z" class="cls-48"/><path d="M460.67,301.57a3.32,3.32,0,0,0,3.41,3.32q10.19-.27,20.51-.27A724.59,724.59,0,0,1,625.36,318a3.32,3.32,0,0,0,4-3.26V224.1a3.33,3.33,0,0,0-2.66-3.27,723.85,723.85,0,0,0-142.08-13.7q-10.42,0-20.69.28a3.33,3.33,0,0,0-3.23,3.33Z" class="cls-49"/><path d="M538.7,182.2a699.14,699.14,0,0,1,85.88,11.37,4,4,0,0,0,4.75-3.89V127.42a4,4,0,0,0-3.18-3.9,697.86,697.86,0,0,0-86.89-11.64,4,4,0,0,0-4.25,4v62.4A4,4,0,0,0,538.7,182.2Z" class="cls-50"/><ellipse cx="271.3" cy="367.16" class="cls-51" rx="6.74" ry="6.05" transform="translate(-159.3 518.8) rotate(-72.94)"/><ellipse cx="251.42" cy="391.83" class="cls-52" rx="6.74" ry="6.05" transform="translate(-196.93 517.23) rotate(-72.94)"/><ellipse cx="251.42" cy="410.05" class="cls-53" rx="6.74" ry="6.05" transform="translate(-214.35 530.11) rotate(-72.94)"/><ellipse cx="289.96" cy="380.91" class="cls-53" rx="6.74" ry="6.05" transform="matrix(0.29, -0.96, 0.96, 0.29, -159.26, 546.36)"/><ellipse cx="308.95" cy="356.99" class="cls-52" rx="6.74" ry="6.05" transform="translate(-122.97 547.61) rotate(-72.94)"/><ellipse cx="308.95" cy="394.13" class="cls-14" rx="6.74" ry="6.05" transform="translate(-158.48 573.86) rotate(-72.94)"/><ellipse cx="347.28" cy="348.59" class="cls-53" rx="6.74" ry="6.05" transform="translate(-87.85 578.32) rotate(-72.94)"/><ellipse cx="347.28" cy="385.73" class="cls-51" rx="6.74" ry="6.05" transform="translate(-123.36 604.56) rotate(-72.94)"/><polyline points="472.54 285.85 546.56 235.72 572.46 265.97 613.88 236.26" class="cls-54"/><polyline points="473.75 250.87 513.06 224.23 572.67 295.68 614.28 264.94" class="cls-55"/></g><g id="Слой_1" data-name="Слой 1"><path d="M264.35,289.51c-5.41,2.13-8.12,3.24-13.52,5.51L254,194.9c5.4-2.28,8.11-3.38,13.52-5.51Z" class="cls-14"/><path d="M264.35,289.51c-5.41,2.13-8.12,3.24-13.52,5.51l.41-12.75c5.4-2.28,8.11-3.38,13.52-5.51Z" class="cls-9"/><path d="M378.93,220c-5.36.93-8,1.43-13.43,2.51l.81-25.5c5.38-1.07,8.06-1.58,13.43-2.51Z" class="cls-14"/><path d="M292.76,279.11c-5.42,1.83-8.13,2.78-13.54,4.76l3.19-100.12c5.42-2,8.13-2.93,13.54-4.76Z" class="cls-14"/><path d="M321.18,270.28c-5.41,1.53-8.12,2.33-13.54,4l3.19-100.12c5.42-1.68,8.12-2.48,13.54-4Z" class="cls-14"/><path d="M349.53,263c-5.39,1.23-8.09,1.88-13.5,3.26l3.19-100.12c5.4-1.37,8.1-2,13.5-3.26Z" class="cls-14"/></g><g id="Слой_5" data-name="Слой 5"><path d="M685.46,382.9c-.7-9.82-8.06-18.49-16.44-19.37s-14.61,6.38-13.91,16.2,8.06,18.49,16.44,19.37S686.16,392.72,685.46,382.9Z" class="cls-56"/><path d="M606.84,153.09c-1.1-15.4-13.6-28.93-27.92-30.22S553.88,133,555,148.42s13.6,28.93,27.92,30.22S607.94,168.49,606.84,153.09Zm-25.16,8.6c-5.62-.51-10.52-5.81-10.95-11.85s3.77-10.52,9.39-10,10.52,5.81,10.95,11.85S587.3,162.19,581.69,161.69Z" class="cls-57"/><path d="M639.95,367.9c-.7-9.82-8.06-18.49-16.44-19.37s-14.61,6.38-13.91,16.2,8.06,18.49,16.44,19.37S640.65,377.72,639.95,367.9Z" class="cls-47"/><path d="M593.95,359.41c-.7-9.82-8.06-18.49-16.44-19.37s-14.61,6.38-13.91,16.2,8.06,18.49,16.44,19.37S594.65,369.23,593.95,359.41Z" class="cls-47"/><path d="M574.17,141.48a8.41,8.41,0,0,1,6-1.66c.26,0,.52.07.78.11V123.14c-.66-.11-1.32-.21-2-.27a21.48,21.48,0,0,0-15.21,4.21Z" class="cls-9"/><path d="M574.43,158a13.31,13.31,0,0,1-3.69-8.16,9.37,9.37,0,0,1,3.77-8.61l-9.93-14.77c-6.43,4.42-10.29,12.43-9.61,22a34,34,0,0,0,9.41,20.83Z" class="cls-58"/></g><g id="Слой_8" data-name="Слой 8"><path d="M228.82,338.71a459.37,459.37,0,0,1,57.49-22.49c39.88-96.45,87.93-164.56,108.54-191.52-19.22,2.49-37.83,5.71-55.74,9.6C313.92,168.64,266.22,240.72,228.82,338.71Z" class="cls-59"/><path d="M570.55,185.17q16.13,1.86,31.7,4.39c9.65-22.71,19-42.13,27.08-57.77v-4.38a4,4,0,0,0-3.18-3.9q-11.46-2.29-23.28-4.21C594.14,135.16,582.7,157.45,570.55,185.17Z" class="cls-60"/><path d="M536.46,306.38a907.83,907.83,0,0,1,30.93-94.73q-19.69-2.18-40.11-3.32a909.45,909.45,0,0,0-32.06,96.36Q516.15,305,536.46,306.38Z" class="cls-61"/></g></svg>