<svg xmlns="http://www.w3.org/2000/svg" width="60" height="60" fill="none" viewBox="0 0 60 60"><circle cx="30" cy="30" r="30" fill="#FAFAFA"/><path fill="#F14600" d="M18 18C16.3455 18 15 19.3455 15 21V39C15 40.6545 16.3455 42 18 42C18 42.828 18.672 43.5 19.5 43.5C20.328 43.5 21 42.828 21 42H39C39 42.828 39.672 43.5 40.5 43.5C41.328 43.5 42 42.828 42 42C43.6545 42 45 40.6545 45 39V21C45 19.3455 43.6545 18 42 18H18ZM39.8818 23.1211C40.2658 23.1211 40.6499 23.2651 40.9424 23.5576C41.5289 24.1441 41.5274 25.0937 40.9424 25.6787L39.6504 26.9707C40.1784 27.8647 40.5 28.89 40.5 30C40.5 31.11 40.1784 32.1368 39.6504 33.0293L41.0742 34.4531C41.6592 35.0381 41.6592 35.9892 41.0742 36.5742C40.4892 37.1607 39.5396 37.1592 38.9531 36.5742L37.5293 35.1504C36.6368 35.6769 35.61 36 34.5 36C33.39 36 32.3632 35.6784 31.4707 35.1504L30.1787 36.4424C29.5937 37.0274 28.6426 37.0274 28.0576 36.4424C27.4726 35.8574 27.4726 34.9063 28.0576 34.3213L29.3496 33.0293C28.8216 32.1368 28.5 31.11 28.5 30C28.5 28.89 28.8216 27.8632 29.3496 26.9707L28.1924 25.8105C27.6074 25.2255 27.6074 24.2774 28.1924 23.6924C28.7774 23.1074 29.7255 23.1074 30.3105 23.6924L31.4707 24.8496C32.3632 24.3216 33.39 24 34.5 24C35.61 24 36.6368 24.3216 37.5293 24.8496L38.8213 23.5576C39.1138 23.2651 39.4978 23.1211 39.8818 23.1211ZM21 25.5C21.828 25.5 22.5 26.172 22.5 27V33C22.5 33.828 21.828 34.5 21 34.5C20.172 34.5 19.5 33.828 19.5 33V27C19.5 26.172 20.172 25.5 21 25.5ZM34.5 27C33.7044 27 32.9413 27.3161 32.3787 27.8787C31.8161 28.4413 31.5 29.2044 31.5 30C31.5 30.7956 31.8161 31.5587 32.3787 32.1213C32.9413 32.6839 33.7044 33 34.5 33C35.2956 33 36.0587 32.6839 36.6213 32.1213C37.1839 31.5587 37.5 30.7956 37.5 30C37.5 29.2044 37.1839 28.4413 36.6213 27.8787C36.0587 27.3161 35.2956 27 34.5 27Z"/></svg>