<svg xmlns="http://www.w3.org/2000/svg" width="60" height="60" fill="none" viewBox="0 0 60 60"><circle cx="30" cy="30" r="30" fill="#FAFAFA"/><path fill="#F14600" d="M19.2015 16.8C19.0425 16.7977 18.8846 16.8271 18.737 16.8864C18.5895 16.9457 18.4551 17.0337 18.3419 17.1454C18.2287 17.257 18.1387 17.3901 18.0774 17.5368C18.016 17.6835 17.9844 17.841 17.9844 18C17.9844 18.159 18.016 18.3165 18.0774 18.4632C18.1387 18.6099 18.2287 18.7429 18.3419 18.8546C18.4551 18.9662 18.5895 19.0543 18.737 19.1136C18.8846 19.1729 19.0425 19.2022 19.2015 19.2H29.9827H40.8015C40.9605 19.2022 41.1184 19.1729 41.2659 19.1136C41.4135 19.0543 41.5478 18.9662 41.661 18.8546C41.7743 18.7429 41.8642 18.6099 41.9256 18.4632C41.9869 18.3165 42.0186 18.159 42.0186 18C42.0186 17.841 41.9869 17.6835 41.9256 17.5368C41.8642 17.3901 41.7743 17.257 41.661 17.1454C41.5478 17.0337 41.4135 16.9457 41.2659 16.8864C41.1184 16.8271 40.9605 16.7977 40.8015 16.8H19.2015ZM29.9827 19.2C29.671 19.205 29.3734 19.331 29.153 19.5515L26.753 21.9515C26.6379 22.0621 26.5459 22.1946 26.4826 22.3411C26.4192 22.4877 26.3858 22.6454 26.3841 22.805C26.3825 22.9647 26.4128 23.1231 26.4731 23.2709C26.5335 23.4187 26.6227 23.553 26.7356 23.6659C26.8485 23.7788 26.9828 23.868 27.1306 23.9283C27.2784 23.9887 27.4368 24.0189 27.5964 24.0173C27.7561 24.0157 27.9138 23.9822 28.0603 23.9189C28.2069 23.8555 28.3393 23.7636 28.4499 23.6484L28.8015 23.2969V36.7031L28.4499 36.3515C28.3381 36.2366 28.2043 36.1452 28.0566 36.0828C27.9089 36.0204 27.7501 35.9883 27.5897 35.9883C27.351 35.9883 27.1177 36.0596 26.9197 36.1929C26.7217 36.3263 26.568 36.5156 26.4781 36.7368C26.3883 36.958 26.3665 37.2009 26.4155 37.4345C26.4644 37.6682 26.582 37.8819 26.753 38.0484L29.153 40.4484C29.2667 40.5621 29.402 40.6518 29.5509 40.7122C29.6999 40.7726 29.8595 40.8024 30.0202 40.8C30.3319 40.795 30.6295 40.6689 30.8499 40.4484L33.2499 38.0484C33.4242 37.8808 33.5438 37.6645 33.593 37.4278C33.6423 37.1911 33.6189 36.9451 33.5259 36.7219C33.4329 36.4987 33.2747 36.3088 33.072 36.177C32.8692 36.0453 32.6315 35.9779 32.3897 35.9836C32.0732 35.9911 31.7725 36.1233 31.553 36.3515L31.2015 36.7031V23.2969L31.553 23.6484C31.6636 23.7636 31.796 23.8555 31.9426 23.9189C32.0892 23.9822 32.2469 24.0157 32.4065 24.0173C32.5662 24.0189 32.7245 23.9887 32.8723 23.9283C33.0202 23.868 33.1544 23.7788 33.2673 23.6659C33.3802 23.553 33.4695 23.4187 33.5298 23.2709C33.5902 23.1231 33.6204 22.9647 33.6188 22.805C33.6172 22.6454 33.5837 22.4877 33.5204 22.3411C33.457 22.1946 33.3651 22.0621 33.2499 21.9515L30.8499 19.5515C30.7363 19.4379 30.601 19.3482 30.452 19.2878C30.303 19.2274 30.1434 19.1975 29.9827 19.2ZM30.0202 40.8H19.2015C19.0425 40.7977 18.8846 40.8271 18.737 40.8864C18.5895 40.9457 18.4551 41.0337 18.3419 41.1454C18.2287 41.257 18.1387 41.3901 18.0774 41.5368C18.016 41.6835 17.9844 41.841 17.9844 42C17.9844 42.159 18.016 42.3165 18.0774 42.4632C18.1387 42.6099 18.2287 42.7429 18.3419 42.8546C18.4551 42.9662 18.5895 43.0543 18.737 43.1136C18.8846 43.1729 19.0425 43.2022 19.2015 43.2H40.8015C40.9605 43.2022 41.1184 43.1729 41.2659 43.1136C41.4135 43.0543 41.5478 42.9662 41.661 42.8546C41.7743 42.7429 41.8642 42.6099 41.9256 42.4632C41.9869 42.3165 42.0186 42.159 42.0186 42C42.0186 41.841 41.9869 41.6835 41.9256 41.5368C41.8642 41.3901 41.7743 41.257 41.661 41.1454C41.5478 41.0337 41.4135 40.9457 41.2659 40.8864C41.1184 40.8271 40.9605 40.7977 40.8015 40.8H30.0202ZM19.2015 21.6C18.8832 21.6 18.578 21.7264 18.3529 21.9515C18.1279 22.1765 18.0015 22.4817 18.0015 22.8C18.0015 23.1182 18.1279 23.4235 18.3529 23.6485C18.578 23.8736 18.8832 24 19.2015 24C19.5197 24 19.825 23.8736 20.05 23.6485C20.275 23.4235 20.4015 23.1182 20.4015 22.8C20.4015 22.4817 20.275 22.1765 20.05 21.9515C19.825 21.7264 19.5197 21.6 19.2015 21.6ZM40.8015 21.6C40.4832 21.6 40.178 21.7264 39.9529 21.9515C39.7279 22.1765 39.6015 22.4817 39.6015 22.8C39.6015 23.1182 39.7279 23.4235 39.9529 23.6485C40.178 23.8736 40.4832 24 40.8015 24C41.1197 24 41.4249 23.8736 41.65 23.6485C41.875 23.4235 42.0015 23.1182 42.0015 22.8C42.0015 22.4817 41.875 22.1765 41.65 21.9515C41.4249 21.7264 41.1197 21.6 40.8015 21.6ZM19.2015 26.4C18.8832 26.4 18.578 26.5264 18.3529 26.7515C18.1279 26.9765 18.0015 27.2817 18.0015 27.6C18.0015 27.9182 18.1279 28.2235 18.3529 28.4485C18.578 28.6736 18.8832 28.8 19.2015 28.8C19.5197 28.8 19.825 28.6736 20.05 28.4485C20.275 28.2235 20.4015 27.9182 20.4015 27.6C20.4015 27.2817 20.275 26.9765 20.05 26.7515C19.825 26.5264 19.5197 26.4 19.2015 26.4ZM40.8015 26.4C40.4832 26.4 40.178 26.5264 39.9529 26.7515C39.7279 26.9765 39.6015 27.2817 39.6015 27.6C39.6015 27.9182 39.7279 28.2235 39.9529 28.4485C40.178 28.6736 40.4832 28.8 40.8015 28.8C41.1197 28.8 41.4249 28.6736 41.65 28.4485C41.875 28.2235 42.0015 27.9182 42.0015 27.6C42.0015 27.2817 41.875 26.9765 41.65 26.7515C41.4249 26.5264 41.1197 26.4 40.8015 26.4ZM19.2015 31.2C18.8832 31.2 18.578 31.3264 18.3529 31.5515C18.1279 31.7765 18.0015 32.0817 18.0015 32.4C18.0015 32.7182 18.1279 33.0235 18.3529 33.2485C18.578 33.4736 18.8832 33.6 19.2015 33.6C19.5197 33.6 19.825 33.4736 20.05 33.2485C20.275 33.0235 20.4015 32.7182 20.4015 32.4C20.4015 32.0817 20.275 31.7765 20.05 31.5515C19.825 31.3264 19.5197 31.2 19.2015 31.2ZM40.8015 31.2C40.4832 31.2 40.178 31.3264 39.9529 31.5515C39.7279 31.7765 39.6015 32.0817 39.6015 32.4C39.6015 32.7182 39.7279 33.0235 39.9529 33.2485C40.178 33.4736 40.4832 33.6 40.8015 33.6C41.1197 33.6 41.4249 33.4736 41.65 33.2485C41.875 33.0235 42.0015 32.7182 42.0015 32.4C42.0015 32.0817 41.875 31.7765 41.65 31.5515C41.4249 31.3264 41.1197 31.2 40.8015 31.2ZM19.2015 36C18.8832 36 18.578 36.1264 18.3529 36.3515C18.1279 36.5765 18.0015 36.8817 18.0015 37.2C18.0015 37.5182 18.1279 37.8235 18.3529 38.0485C18.578 38.2736 18.8832 38.4 19.2015 38.4C19.5197 38.4 19.825 38.2736 20.05 38.0485C20.275 37.8235 20.4015 37.5182 20.4015 37.2C20.4015 36.8817 20.275 36.5765 20.05 36.3515C19.825 36.1264 19.5197 36 19.2015 36ZM40.8015 36C40.4832 36 40.178 36.1264 39.9529 36.3515C39.7279 36.5765 39.6015 36.8817 39.6015 37.2C39.6015 37.5182 39.7279 37.8235 39.9529 38.0485C40.178 38.2736 40.4832 38.4 40.8015 38.4C41.1197 38.4 41.4249 38.2736 41.65 38.0485C41.875 37.8235 42.0015 37.5182 42.0015 37.2C42.0015 36.8817 41.875 36.5765 41.65 36.3515C41.4249 36.1264 41.1197 36 40.8015 36Z"/></svg>