<svg width="48" height="48" viewBox="0 0 48 48" fill="none" xmlns="http://www.w3.org/2000/svg">
<path d="M9 27H12V41H9V27Z" fill="#607D8B"/>
<path d="M9 39H35V42H9V39Z" fill="#607D8B"/>
<path d="M32 27H35V41H32V27ZM15 33H29V36H15V33Z" fill="#607D8B"/>
<path d="M15.082 27.2598L29.0017 28.7577L28.6807 31.7404L14.7611 30.2425L15.082 27.2598Z" fill="#A68A6E"/>
<path d="M36.8706 5L39.004 18.8355L36.0381 19.2928L33.9047 5.45735L36.8706 5Z" fill="#EF6C00"/>
<path d="M28.4688 7.23682L35.2999 19.4548L32.6806 20.9193L25.8494 8.70134L28.4688 7.23682Z" fill="#FF9800"/>
<path d="M20.5 13.5513L31.9993 21.5331L30.2881 23.9984L18.7888 16.0166L20.5 13.5513Z" fill="#D38B28"/>
<path d="M16.8994 20.2178L30.072 24.9563L29.0562 27.7802L15.8836 23.0416L16.8994 20.2178Z" fill="#C09553"/>
</svg>
