<svg xmlns="http://www.w3.org/2000/svg" width="48" height="48" fill="none" viewBox="0 0 48 48"><path fill="#29B6F6" d="M24 4C18.6957 4 13.6086 6.10714 9.85786 9.85786C6.10714 13.6086 4 18.6957 4 24C4 29.3043 6.10714 34.3914 9.85786 38.1421C13.6086 41.8929 18.6957 44 24 44C29.3043 44 34.3914 41.8929 38.1421 38.1421C41.8929 34.3914 44 29.3043 44 24C44 18.6957 41.8929 13.6086 38.1421 9.85786C34.3914 6.10714 29.3043 4 24 4Z"/><path fill="#fff" d="M33.95 15L30.204 34.126C30.204 34.126 30.043 35 28.959 35C28.383 35 28.086 34.726 28.086 34.726L19.972 27.993L16.002 25.992L10.907 24.637C10.907 24.637 10 24.375 10 23.625C10 23 10.933 22.702 10.933 22.702L32.249 14.234C32.248 14.233 32.9 13.999 33.375 14C33.667 14 34 14.125 34 14.5C34 14.75 33.95 15 33.95 15Z"/><path fill="#B0BEC5" d="M22.9998 30.505L19.5738 33.879C19.5738 33.879 19.4248 33.994 19.2258 33.999C19.1568 34.001 19.0828 33.99 19.0068 33.956L19.9708 27.991L22.9998 30.505Z"/><path fill="#CFD8DC" d="M29.897 18.1959C29.728 17.9759 29.416 17.9359 29.196 18.1029L16 25.9999C16 25.9999 18.106 31.8919 18.427 32.9119C18.749 33.9329 19.007 33.9569 19.007 33.9569L19.971 27.9919L29.803 18.8959C30.023 18.7289 30.064 18.4159 29.897 18.1959Z"/></svg>