<svg xmlns="http://www.w3.org/2000/svg" width="48" height="48" fill="none" viewBox="0 0 48 48"><path fill="#03A9F4" d="M42.0001 12.429C40.6771 13.015 39.2541 13.406 37.7531 13.591C39.2791 12.685 40.4531 11.24 41.0041 9.533C39.5761 10.37 37.9941 10.985 36.3111 11.309C34.9671 9.884 33.0501 9 30.9261 9C26.8461 9 23.5391 12.278 23.5391 16.32C23.5391 16.892 23.6061 17.449 23.7321 17.99C17.5941 17.682 12.1501 14.764 8.50807 10.336C7.86807 11.418 7.50807 12.685 7.50807 14.022C7.50807 16.563 8.80907 18.8 10.7931 20.118C9.58207 20.081 8.44207 19.744 7.44407 19.204C7.44407 19.226 7.44407 19.259 7.44407 19.29C7.44407 22.841 9.99107 25.798 13.3671 26.471C12.7501 26.64 12.0981 26.734 11.4261 26.734C10.9491 26.734 10.4841 26.68 10.0341 26.599C10.9741 29.501 13.7011 31.622 16.9321 31.685C14.4041 33.645 11.2201 34.819 7.75807 34.819C7.16007 34.819 6.57507 34.785 5.99707 34.715C9.26807 36.786 13.1521 38 17.3211 38C30.9061 38 38.3381 26.844 38.3381 17.166C38.3381 16.849 38.3281 16.533 38.3131 16.221C39.7631 15.197 41.0131 13.905 42.0001 12.429Z"/></svg>