<svg width="2448" height="432" xmlns="http://www.w3.org/2000/svg" xmlns:xlink="http://www.w3.org/1999/xlink" style="background:#fff"><defs><linearGradient x1="50%" y1="5.387%" x2="7.925%" y2="92.027%" id="c"><stop stop-color="#F9FBFD" offset="0%"/><stop stop-color="#F1F6F9" offset="100%"/></linearGradient><linearGradient x1="100%" y1="51.29%" x2="46.829%" y2="50%" id="d"><stop stop-color="#454C53" stop-opacity="0" offset="0%"/><stop stop-color="#212529" offset="100%"/></linearGradient><linearGradient x1="100%" y1="50.974%" x2="0%" y2="49.026%" id="e"><stop stop-color="#FFE800" offset="0%"/><stop stop-color="#FC0" stop-opacity="0" offset="100%"/></linearGradient><linearGradient x1="100%" y1="52.688%" x2="0%" y2="47.312%" id="f"><stop stop-color="#FFE800" offset="0%"/><stop stop-color="#FC0" stop-opacity="0" offset="100%"/></linearGradient><linearGradient x1="100%" y1="50.075%" x2="0%" y2="49.925%" id="g"><stop stop-color="#FC0" stop-opacity="0" offset="0%"/><stop stop-color="#FFE800" offset="100%"/></linearGradient><linearGradient x1="100%" y1="53.995%" x2="0%" y2="46.005%" id="h"><stop stop-color="#FC0" stop-opacity="0" offset="0%"/><stop stop-color="#FFE800" offset="100%"/></linearGradient><linearGradient x1="174.731%" y1="44.617%" x2="39.814%" y2="50%" id="i"><stop stop-color="#FC0" stop-opacity=".5" offset="0%"/><stop stop-color="#FFE800" offset="100%"/></linearGradient><linearGradient x1="100%" y1="41.708%" x2="50%" y2="50%" id="j"><stop stop-color="#454C53" stop-opacity="0" offset="0%"/><stop stop-color="#212529" offset="100%"/></linearGradient><linearGradient x1="0%" y1="45.225%" x2="100%" y2="45.225%" id="l"><stop stop-color="#FFF" offset="0%"/><stop stop-color="#FFF" stop-opacity="0" offset="100%"/></linearGradient><radialGradient cx="50%" cy="50%" fx="50%" fy="50%" r="58.268%" gradientTransform="matrix(0 1 -.83643 0 .918 0)" id="k"><stop stop-color="#FFF" offset="0%"/><stop stop-color="#FFF" offset="67.349%"/><stop stop-color="#FFF" stop-opacity="0" offset="100%"/></radialGradient><path id="a" d="M0 0h2440v432H0z"/></defs><g fill="none" fill-rule="evenodd"><path fill="#FFF" d="M0 0h2448v432H0z"/><mask id="b" fill="#fff"><use xlink:href="#a"/></mask><g mask="url(#b)"><g transform="translate(-102.53 -434)"><path fill="#F1F6F9" d="m910.393 42.766 280.178 401.785h51.753V42.766z"/><path fill="url(#c)" d="M1454.914 42.766 1304.35 444.55h60.387l364.967-401.785z"/><path fill="#F1F6F9" d="M404.005 116.997V42.766h215.782L1163.73 444.55h-99.023zM1971.115 42.766 1432.546 444.55h-68.271L1860.29 42.766zM2080.643 67.526 1450.85 444.55h99.557l530.236-249.26zM404.005 1170.053v-29.1l641.914-407.38v6.246zM40.143 777.895-.001 643l1045.92-80.68v36.91zM404.005 1240.003v-35.749l641.914-449.535v7.447z"/><path fill="#E3F1FE" d="M404.005 1121.728v-34.717l641.914-353.437v21.145z"/><path fill="#F1F6F9" d="M404.005 1092.392v-34.716l641.914-344.008v21.145z"/><path stroke="#212529" stroke-width="4.193" stroke-linecap="round" d="m571.921 519.073-209.388-15.732"/><path stroke="url(#d)" stroke-width="4" stroke-linecap="round" d="m326.533 424.551 363.631 58.419"/><path fill="#F1F6F9" d="M500.727 1300h-96.722v-33.122l641.914-483.792v4.88z"/><path fill="#E3F1FE" d="M510.27 1243.866H559.9l486.02-449.729v-7.28z"/><path fill="#F1F6F9" d="m537.253 1300 508.666-498.297v20.886L606.515 1300zM1108.891 1300h-38.07l118.984-457.171h9.533zM690.648 1300h259.057l203.112-457.171h-100.61z"/><path fill="#E3F1FE" d="m1023.785 1300 149.672-457.171h20.54L1070.82 1300z"/><path fill="#F1F6F9" d="m1205.88 1300 28.8-457.171h14.117L1259.772 1300zM1323.541 1300 1265.1 842.829h87.477L1559.838 1300z"/><path fill="#E3F1FE" d="m1631.19 1300-253.687-457.171h14.457L1691.684 1300z"/><path fill="#F1F6F9" d="m1737.126 1300-315.57-457.171h16.719L1779.916 1300zM1828.814 1300l-370.629-457.171h56.593L2025.242 1300z"/><path fill="#E3F1FE" d="M1746.45 1148.382h60.518l-316.816-305.553h-18.72z"/><path fill="#F1F6F9" d="m2080.643 1295.81-530.87-452.981h21.622l509.248 318.638z"/><path fill="#E3F1FE" d="M2005.468 1190.69h68.007l-513.637-347.861h-14.631z"/><path fill="#F1F6F9" d="M1610.137 693.209v149.62l470.506 274.392 209.297-205.83z"/><path fill="#E3F1FE" d="M2080.643 1117.221v-45.807l-448-228.585h-22.506z"/><path fill="#F1F6F9" d="m2578.576 708.117 9.977-176.054-978.416 70.972v56.775z"/><path stroke="#212529" stroke-width="4" stroke-linecap="round" d="m1610.137 498.34 503.443-178.173"/><path stroke="url(#e)" stroke-width="4" stroke-linecap="round" d="m1828.809 709.768 266.153 37.145"/><path stroke="url(#f)" stroke-width="4" stroke-linecap="round" d="m1830.992 528.692 261.787-60.703"/><path stroke="url(#g)" stroke-width="4" stroke-linecap="round" d="m871.533 562.321-435.448-16.852"/><path d="M863.48 722.628 444.138 841.162" stroke="url(#h)" stroke-width="4" stroke-linecap="round"/><path d="M1174.48 276.628 755.138 395.162" stroke="url(#i)" stroke-width="4" stroke-linecap="round" transform="rotate(47 964.809 335.895)"/><path stroke="#212529" stroke-width="4" stroke-linecap="round" d="m1741.714 774.678 401.515 177.135"/><path stroke="#F1F6F9" stroke-width="4" stroke-linecap="round" d="m391.431 763.066 313.998-66.714"/><path stroke="url(#j)" stroke-width="4" stroke-linecap="round" d="m738.059 813.797-346.628 141.16"/><ellipse fill="url(#k)" cx="1326.533" cy="688.5" rx="860" ry="563.5"/></g></g><path fill="url(#l)" mask="url(#b)" transform="matrix(-1 0 0 1 4690 0)" d="M2242 0h206v799h-206z"/><path fill="url(#l)" mask="url(#b)" d="M0-184h206v799H0z"/></g></svg>