<svg width="2448" height="980" xmlns="http://www.w3.org/2000/svg" xmlns:xlink="http://www.w3.org/1999/xlink" style="background:#fff"><defs><linearGradient x1="50%" y1="5.387%" x2="7.925%" y2="92.027%" id="c"><stop stop-color="#F9FBFD" offset="0%"/><stop stop-color="#F1F6F9" offset="100%"/></linearGradient><linearGradient x1="100%" y1="58.669%" x2="50%" y2="50%" id="d"><stop stop-color="#454C53" stop-opacity="0" offset="0%"/><stop stop-color="#212529" offset="100%"/></linearGradient><linearGradient x1="100%" y1="51.29%" x2="46.829%" y2="50%" id="e"><stop stop-color="#454C53" stop-opacity="0" offset="0%"/><stop stop-color="#212529" offset="100%"/></linearGradient><linearGradient x1="100%" y1="50.974%" x2="0%" y2="49.026%" id="f"><stop stop-color="#FFE800" offset="0%"/><stop stop-color="#FC0" stop-opacity="0" offset="100%"/></linearGradient><linearGradient x1="100%" y1="52.688%" x2="0%" y2="47.312%" id="g"><stop stop-color="#FFE800" offset="0%"/><stop stop-color="#FC0" stop-opacity="0" offset="100%"/></linearGradient><linearGradient x1="100%" y1="50.075%" x2="0%" y2="49.925%" id="h"><stop stop-color="#FC0" stop-opacity="0" offset="0%"/><stop stop-color="#FFE800" offset="100%"/></linearGradient><linearGradient x1="100%" y1="53.995%" x2="0%" y2="46.005%" id="i"><stop stop-color="#FC0" stop-opacity="0" offset="0%"/><stop stop-color="#FFE800" offset="100%"/></linearGradient><linearGradient x1="174.731%" y1="44.617%" x2="39.814%" y2="50%" id="j"><stop stop-color="#FC0" stop-opacity=".5" offset="0%"/><stop stop-color="#FFE800" offset="100%"/></linearGradient><linearGradient x1="100%" y1="41.708%" x2="50%" y2="50%" id="k"><stop stop-color="#454C53" stop-opacity="0" offset="0%"/><stop stop-color="#212529" offset="100%"/></linearGradient><linearGradient x1="50%" y1="0%" x2="50%" y2="71.743%" id="l"><stop stop-color="#F8F9FA" stop-opacity="0" offset="0%"/><stop stop-color="#FFF" offset="100%"/></linearGradient><linearGradient x1="0%" y1="45.225%" x2="100%" y2="45.225%" id="n"><stop stop-color="#FFF" offset="0%"/><stop stop-color="#FFF" stop-opacity="0" offset="100%"/></linearGradient><radialGradient cx="50%" cy="50%" fx="50%" fy="50%" r="58.268%" gradientTransform="matrix(0 1 -.86232 0 .931 0)" id="m"><stop stop-color="#FFF" offset="0%"/><stop stop-color="#FFF" offset="67.349%"/><stop stop-color="#FFF" stop-opacity="0" offset="100%"/></radialGradient><path id="a" d="M0 0h2448v980H0z"/></defs><g fill="none" fill-rule="evenodd"><path fill="#FFF" d="M0 0h2448v980H0z"/><mask id="b" fill="#fff"><use xlink:href="#a"/></mask><g mask="url(#b)"><g transform="translate(-32.69 -169)"><path fill="#F1F6F9" d="M840.551 42.766 1120.73 444.55h51.753V42.766z"/><path fill="url(#c)" d="M1385.072 42.766 1234.508 444.55h60.387l364.967-401.785z"/><path fill="#F1F6F9" d="M334.163 116.997V42.766h215.782l543.943 401.785h-99.023zM1901.273 42.766 1362.704 444.55h-68.271l496.016-401.785zM2010.802 67.526 1381.008 444.55h99.557l643.831-302.47zM334.163 1170.053v-29.1l641.915-407.38v6.246zM0 772.227V636.48l976.078-74.16v36.91zM334.163 1240.003v-35.749l641.915-449.535v7.447z"/><path fill="#E3F1FE" d="M334.163 1121.728v-34.717l641.915-353.437v21.145z"/><path fill="#F1F6F9" d="M334.163 1092.392v-34.716l641.915-344.008v21.145z"/><path stroke="#212529" stroke-width="4.193" stroke-linecap="round" d="m502.08 519.073-209.389-15.732"/><path stroke="url(#d)" stroke-width="4" stroke-linecap="round" d="m435.791 271.35 354.531 147.62"/><path stroke="url(#e)" stroke-width="4" stroke-linecap="round" d="m256.691 424.551 363.631 58.419"/><path fill="#F1F6F9" d="M430.885 1300h-96.722v-33.122l641.915-483.792v4.88z"/><path fill="#E3F1FE" d="M440.429 1243.866h49.628l486.02-449.729v-7.28z"/><path fill="#F1F6F9" d="m467.41 1300 508.668-498.297v20.886L536.673 1300zM1039.05 1300h-38.07l118.983-457.171h9.534zM620.807 1300h259.056l203.112-457.171h-100.61z"/><path fill="#E3F1FE" d="m953.944 1300 149.67-457.171h20.541L1000.98 1300z"/><path fill="#F1F6F9" d="m1136.038 1300 28.8-457.171h14.117L1189.93 1300zM1253.7 1300l-58.443-457.171h87.477L1489.996 1300z"/><path fill="#E3F1FE" d="m1561.349 1300-253.688-457.171h14.457L1621.843 1300z"/><path fill="#F1F6F9" d="m1667.285 1300-315.572-457.171h16.72L1710.074 1300zM1758.972 1300l-370.629-457.171h56.593L1955.4 1300z"/><path fill="#E3F1FE" d="M1676.609 1148.382h60.518L1420.31 842.829h-18.72z"/><path fill="#F1F6F9" d="m2010.802 1295.81-530.87-452.981h21.62l509.25 318.638z"/><path fill="#E3F1FE" d="M1935.626 1190.69h68.007l-513.637-347.861h-14.63z"/><path fill="#F1F6F9" d="M1540.295 693.209v149.62l470.507 274.392 476.694-114.616z"/><path fill="#E3F1FE" d="M2010.802 1117.221v-45.807l-448-228.585h-22.507z"/><path fill="#F1F6F9" d="m2518.71 707.768-5.425-172.963-972.99 68.23v56.775z"/><path stroke="#212529" stroke-width="4" stroke-linecap="round" d="M1516.717 339.289 2025.12 0M1540.295 498.34l503.443-178.173"/><path stroke="url(#f)" stroke-width="4" stroke-linecap="round" d="m1758.967 709.768 266.153 37.145"/><path stroke="url(#g)" stroke-width="4" stroke-linecap="round" d="m1761.15 528.692 261.787-60.703"/><path stroke="url(#h)" stroke-width="4" stroke-linecap="round" d="m801.691 562.321-435.448-16.852"/><path d="M793.639 722.628 374.295 841.162" stroke="url(#i)" stroke-width="4" stroke-linecap="round"/><path d="M1104.639 276.628 685.295 395.162" stroke="url(#j)" stroke-width="4" stroke-linecap="round" transform="rotate(47 894.967 335.895)"/><path stroke="#212529" stroke-width="4" stroke-linecap="round" d="m1671.872 774.678 401.515 177.135M863.642 243.658 632.443 21.112"/><path stroke="#FC0" stroke-width="4" stroke-linecap="round" d="m1281.983 199.578 25.678-114.798"/><path stroke="#F1F6F9" stroke-width="4" stroke-linecap="round" d="m321.589 763.066 313.998-66.714"/><path stroke="url(#k)" stroke-width="4" stroke-linecap="round" d="m668.217 813.797-346.628 141.16"/><path fill="url(#l)" d="M32.69 649h2448v500h-2448z"/><ellipse fill="url(#m)" cx="1256.202" cy="608" rx="649.877" ry="439"/></g></g><path fill="url(#n)" d="M0 0h206v980H0z"/><path fill="url(#n)" transform="matrix(-1 0 0 1 4690 0)" d="M2242 0h206v980h-206z"/></g></svg>