<svg xmlns="http://www.w3.org/2000/svg" xmlns:xlink="http://www.w3.org/1999/xlink" width="700" height="320" version="1.1" viewBox="0 0 700 320"><title>Artboard</title><g id="Artboard" fill="none" fill-rule="evenodd" stroke="none" stroke-width="1"><g id="Quote-Panel-BG" fill="#FF8C00"><path id="Combined-Shape" d="M577.058824,0 L577.058824,96.5483699 L576.887,96.548 L576.880049,97.4482487 C576.317392,132.334805 548.290575,160.5098 513.587495,161.075432 L512.523092,161.084101 L512.523092,117.946846 C524.315884,117.946846 533.886494,108.382248 533.977629,96.5487133 L480,96.5483699 L480,0 L577.058824,0 Z"/><path id="Combined-Shape" d="M700,0 L700,96.5483699 L699.828176,96.548 L699.821226,97.4482487 C699.258568,132.334805 671.231751,160.5098 636.528671,161.075432 L635.464269,161.084101 L635.464269,117.946846 C647.257061,117.946846 656.82767,108.382248 656.918806,96.5487133 L602.941176,96.5483699 L602.941176,0 L700,0 Z"/><path id="Combined-Shape" d="M220,159 L220,255.54837 L219.828176,255.548 L219.821226,256.448249 C219.258568,291.334805 191.231751,319.5098 156.528671,320.075432 L155.464269,320.084101 L155.464269,276.946846 C167.257061,276.946846 176.82767,267.382248 176.918806,255.548713 L122.941176,255.54837 L122.941176,159 L220,159 Z" transform="translate(171.470588, 239.500000) scale(-1, 1) translate(-171.470588, -239.500000)"/><path id="Combined-Shape" d="M97.0588235,159 L97.0588235,255.54837 L96.887,255.548 L96.8800492,256.448249 C96.3173916,291.334805 68.2905748,319.5098 33.587495,320.075432 L32.5230924,320.084101 L32.5230924,276.946846 C44.3158844,276.946846 53.8864936,267.382248 53.9776294,255.548713 L-7.10542736e-15,255.54837 L-7.10542736e-15,159 L97.0588235,159 Z" transform="translate(48.529412, 239.500000) scale(-1, 1) translate(-48.529412, -239.500000)"/></g></g></svg>